<?xml version="1.0" encoding="utf-8"?>
<svg version="1.1" xmlns:xlink="http://www.w3.org/1999/xlink" width="70px" height="56px" xmlns="http://www.w3.org/2000/svg">
  <g transform="matrix(1 0 0 1 -260 -396 )">
    <path d="M 65 1  L 5 1  C 2.23857625084603 0.5  0 2.73857625084603  0 5.5  L 0 50.5  C 0 53.261423749154  2.23857625084603 55.5  5 55  L 65 55  C 67.761423749154 55.5  70 53.261423749154  70 50.5  L 70 5.5  C 70 2.73857625084603  67.761423749154 0.5  65 1  Z M 5 6  L 65 6  L 65 44.425  L 48.74 28.165  C 47.7637503712855 27.1890451541678  46.1812496287145 27.1890451541678  45.205 28.165  L 36.99 36.375  L 20.775 20.16  C 19.7987503712855 19.1840451541678  18.2162496287145 19.1840451541678  17.24 20.16  L 5 32.395  L 5 6  Z " fill-rule="nonzero" fill="#555555" stroke="none" transform="matrix(1 0 0 1 260 396 )" />
  </g>
</svg>