<?xml version="1.0" encoding="utf-8"?>
<svg version="1.1" xmlns:xlink="http://www.w3.org/1999/xlink" width="15px" height="15px" viewBox="345 831  15 15" xmlns="http://www.w3.org/2000/svg">
  <path d="M 352.5 831  C 356.7 831  360 834.3  360 838.5  C 360 842.7  356.7 846  352.5 846  C 348.3 846  345 842.7  345 838.5  C 345 834.3  348.3 831  352.5 831  Z " fill-rule="nonzero" fill="#ffffff" stroke="none" />
  <path d="M 352.5 831.5  C 356.42 831.5  359.5 834.58  359.5 838.5  C 359.5 842.42  356.42 845.5  352.5 845.5  C 348.58 845.5  345.5 842.42  345.5 838.5  C 345.5 834.58  348.58 831.5  352.5 831.5  Z " stroke-width="1" stroke="#4284f5" fill="none" />
  <path d="M 352.5 842.25  C 350.4 842.25  348.75 840.6  348.75 838.5  C 348.75 836.4  350.4 834.75  352.5 834.75  C 354.6 834.75  356.25 836.4  356.25 838.5  C 356.25 840.6  354.6 842.25  352.5 842.25  " fill-rule="nonzero" fill="#4284f5" stroke="none" />
</svg>