<?xml version="1.0" encoding="utf-8"?>
<svg version="1.1" xmlns:xlink="http://www.w3.org/1999/xlink" width="70px" height="70px" xmlns="http://www.w3.org/2000/svg">
  <g transform="matrix(1 0 0 1 -90 -150 )">
    <path d="M 69.99984375 52.499765625  C 69.99984375 62.164765625  62.164921875 69.999765625  52.49984375 69.999765625  C 42.83484375 69.999765625  34.99984375 62.164765625  34.99984375 52.499765625  C 34.99984375 42.834765625  42.83484375 34.999765625  52.49984375 34.999765625  C 62.16484375 34.999765625  69.99984375 42.834765625  69.99984375 52.499765625  Z M 55 57.0740625  L 55 64.493984375  C 59.75921875 63.50703125  63.507109375 59.759140625  64.494140625 55  L 59.51921875 55  C 57.945390625 55.21703125  56.821015625 56.4190625  55 57.0740625  Z M 50 52.5  C 50 53.880703125  51.119296875 55  52.5 55  C 53.880703125 55  55 53.880703125  55 52.5  C 55 51.119296875  53.880703125 50  52.5 50  C 51.119296875 50  50 51.119296875  50 52.5  Z M 40.505625 55  C 41.49265625 59.75921875  45.240703125 63.5071875  50 64.4940625  L 50 57.073515625  C 48.243046875 56.441015625  47.128203125 55.296640625  45.61953125 55  L 40.505625 55  Z M 64.494296875 50  C 63.34 44.4334375  58.408671875 40.24984375  52.49984375 40.24984375  C 46.591015625 40.24984375  41.6596875 44.4334375  40.50546875 50  L 45.67625 50  C 47.766171875 49.53734375  49.114296875 47.5  52.5 47.5  C 55.97078125 47.5  57.300625 49.64015625  59.44984375 50  L 64.494296875 50  Z M 44.999765625 14.730703125  C 44.99984375 24.395390625  37.973671875 34.999921875  30.04234375 34.999921875  C 22.111171875 34.999921875  15 24.436953125  15 14.772265625  C 15 5.107734375  22.111171875 0.00117187500000115  30.04234375 0.00117187500000115  C 37.973671875 0.00117187500000115  44.999765625 5.066171875  44.999765625 14.730703125  Z M 0 46.25  C 8.593828125 33.3778125  21.25 33.75  21.25 33.75  L 30 41.25  L 38.75 33.75  C 39.8419117858435 33.7727546069141  40.9314622154315 33.8612481312577  42.012734375 34.015  C 35.585546875 37.669296875  31.25 44.57796875  31.25 52.5  C 31.25 55.1403125  31.732890625 57.6675  32.61296875 60  L 2.499765625 60  C 0 60  0 57.272734375  0 57.272734375  L 0 46.25  Z " fill-rule="nonzero" fill="#657180" stroke="none" transform="matrix(1 0 0 1 90 150 )" />
  </g>
</svg>