<?xml version="1.0" encoding="utf-8"?>
<svg version="1.1" xmlns:xlink="http://www.w3.org/1999/xlink" width="70px" height="65px" xmlns="http://www.w3.org/2000/svg">
  <g transform="matrix(1 0 0 1 -90 -304 )">
    <path d="M 60.0737831858407 24.6071428571429  C 59.9878318584071 11.0608333333333  48.8745575221239 0.0038690476190441  35.3004424778761 0.0038690476190485  L 35.2950221238938 0.0038690476190485  C 21.666703539823 0.0038690476190485  10.5162610619469 11.1467261904762  11 24.7657738095238  L 11 52  L 29.1320796460177 52  C 28.2888330102406 49.6179166962279  27.8591061032134 47.1056851741926  27.8613938053097 44.5752976190476  C 27.8613938053097 32.2670833333333  37.845685840708 22.2895833333333  50.1622787610619 22.2895833333333  C 53.6011155546831 22.2847668294876  56.9940832327566 23.0781281820426  60.0737831858407 24.6071428571429  Z M 39.9379424778761 64  C 35.7162782597431 62.2016262641187  32.2992369883573 58.7327076573742  30.1813053097345 54  L 5.55741150442478 54  L 5.55741150442478 59.4324404761905  L 0.601659292035397 59.4324404761905  L 0.601659292035397 64  L 39.9379424778761 64  Z M 69.9883849557522 59.4324404761905  L 66.7826327433628 59.4324404761905  C 64.9693865742969 61.4578137522938  62.8019745603617 63.1360220498193  60.3866150442478 64.3848214285714  L 69.9883849557522 64.3848214285714  L 69.9883849557522 59.4324404761905  Z M 70 44.5714285714286  C 70 33.6313095238095  61.1253318584071 24.7619047619048  50.1769911504425 24.7619047619048  C 39.2294247787611 24.7619047619048  30.353982300885 33.6313095238095  30.353982300885 44.5714285714286  C 30.353982300885 55.5115476190476  39.2294247787611 64.3809523809524  50.1769911504425 64.3809523809524  C 61.1245575221239 64.3809523809524  70 55.5115476190476  70 44.5714285714286  Z M 58.6366150442478 50.9739285714286  L 55.1327433628319 54.4761904761905  L 47 47.047619047619  L 47 29.7142857142857  L 52 29.7142857142857  L 52 44.99625  L 58.6366150442478 50.9739285714286  Z " fill-rule="nonzero" fill="#ffa847" stroke="none" transform="matrix(1 0 0 1 90 304 )" />
  </g>
</svg>