<?xml version="1.0" encoding="utf-8"?>
<svg version="1.1" xmlns:xlink="http://www.w3.org/1999/xlink" width="50px" height="50px" xmlns="http://www.w3.org/2000/svg">
  <g transform="matrix(1 0 0 1 -75 -20 )">
    <path d="M 100 20  C 114 20  125 31  125 45  C 125 59  114 70  100 70  C 86 70  75 59  75 45  C 75 31  86 20  100 20  Z " fill-rule="nonzero" fill="#ffffff" stroke="none" />
    <path d="M 100 20.5  C 113.72 20.5  124.5 31.28  124.5 45  C 124.5 58.72  113.72 69.5  100 69.5  C 86.28 69.5  75.5 58.72  75.5 45  C 75.5 31.28  86.28 20.5  100 20.5  Z " stroke-width="1" stroke="#797979" fill="none" />
  </g>
</svg>