<?xml version="1.0" encoding="utf-8"?>
<svg version="1.1" xmlns:xlink="http://www.w3.org/1999/xlink" width="17px" height="17px" xmlns="http://www.w3.org/2000/svg">
  <g transform="matrix(1 0 0 1 -28 -234 )">
    <path d="M 4.25 5.7545  C 4.539 7.429  5.882 9.3585  6.6725 10.3785  C 6.698 10.421  6.732 10.455  6.749 10.472  C 7.4205 11.2795  8.092 11.8235  8.126 11.8405  L 8.5935 12.2145  L 9.061 11.8405  C 9.0865 11.815  9.7665 11.271  10.4295 10.4635  C 10.455 10.438  10.4805 10.404  10.506 10.3615  C 11.458 9.1205  12.648 7.3185  12.92 5.7545  C 12.971 5.3975  12.971 5.185  12.971 5.1595  C 12.9795 3.995  12.512 2.8985  11.662 2.074  C 10.8375 1.2835  9.741 0.8415  8.585 0.8415  C 7.429 0.8415  6.341 1.275  5.5165 2.074  C 4.658 2.907  4.1905 4.012  4.199 5.185  C 4.199 5.202  4.199 5.423  4.25 5.7545  Z M 6.613 5.5505  C 6.613 4.488  7.497 3.6295  8.5935 3.6295  C 9.69 3.6295  10.574 4.488  10.574 5.5505  C 10.574 6.613  9.6815 7.4715  8.5935 7.4715  C 7.497 7.4715  6.613 6.613  6.613 5.5505  Z M 16.388 14.5435  C 16.3965 13.651  15.623 12.9455  14.688 13  L 2.312 13  C 1.9635 12.9455  1.6915 12.699  1.6915 12.4185  C 1.6915 12.138  1.955 11.8915  2.312 11.8915  L 4.25 11.8915  C 4.5475 11.8915  4.794 11.6535  4.794 11.356  C 4.794 11.0585  4.5475 10.812  4.25 10.8205  L 2.312 10.8205  C 1.377 10.8205  0.612 11.526  0.612 12.4185  C 0.612 13.311  1.3855 14.0165  2.312 14  L 14.688 14  C 15.0365 14.0165  15.3085 14.263  15.3085 14.5435  C 15.3085 14.824  15.045 15.0705  14.688 15  L 3.859 15  C 3.5615 15.0705  3.315 15.3085  3.315 15.606  C 3.315 15.9035  3.5615 16.15  3.859 16  L 14.688 16  C 15.623 16.1415  16.388 15.436  16.388 14.5435  Z " fill-rule="nonzero" fill="#ffffff" stroke="none" transform="matrix(1 0 0 1 28 234 )" />
  </g>
</svg>