<?xml version="1.0" encoding="utf-8"?>
<svg version="1.1" xmlns:xlink="http://www.w3.org/1999/xlink" width="14px" height="17px" xmlns="http://www.w3.org/2000/svg">
  <g transform="matrix(1 0 0 1 -31 -279 )">
    <path d="M 13.780994140625 13.1419931640625  C 13.783109375 11.1322607421875  12.162431640625 9.5046064453125  10.1559462890625 9.5015634765625  C 8.1494423828125 9.498873046875  6.520359375 11.12474609375  6.520359375 13.131064453125  C 6.520359375 15.1372158203125  8.1417607421875 16.7611220703125  10.1446650390625 16.761474609375  C 12.1533212890625 16.761845703125  13.7790087890625 15.1434873046875  13.780994140625 13.1419931640625  Z M 11.43178515625 13.94409375  C 11.614771484375 14.141923828125  11.541703125 14.4593759765625  11.29626171875 14.541369140625  C 11.171537109375 14.5827275390625  11.053751953125 14.5592744140625  10.95930859375 14.46295703125  C 10.7224208984375 14.21981640625  9.7627724609375 13.2460107421875  9.52941015625 12.9982314453125  C 9.4668251953125 12.93234375  9.437193359375 12.84855078125  9.437193359375 12.75473828125  C 9.437193359375 12.2720380859375  9.435671875 11.7891708984375  9.4379169921875 11.3059326171875  C 9.4394384765625 11.105412109375  9.5896572265625 10.9526884765625  9.7783583984375 10.9521689453125  C 9.9692119140625 10.9514453125  10.1591005859375 11.106859375  10.16116015625 11.3113134765625  C 10.1625888671875 11.5154150390625  10.156669921875 12.336849609375  10.160974609375 12.5432705078125  C 10.1616796875 12.5780048828125  10.181013671875 12.620625  10.2039287109375 12.64533984375  C 10.3824248046875 12.837974609375  11.2536416015625 13.7511806640625  11.43178515625 13.94409375  Z M 0.0448105468750004 2.48568359375  C 0.0448105468750004 2.9006962890625  0.3926923828125 3.237111328125  0.822029296875 3.237111328125  C 1.2513662109375 3.237111328125  1.5994150390625 2.9005107421875  1.5994150390625 2.48568359375  L 1.5994150390625 0.982642578125  C 1.5994150390625 0.5674443359375  1.2513662109375 0.231029296875  0.822029296875 0.231029296875  C 0.3926923828125 0.231029296875  0.0448105468750004 0.5674443359375  0.0448105468750004 0.982642578125  L 0.0448105468750004 2.48568359375  Z M 7.8185751953125 2.48568359375  C 7.818482421875 2.9006962890625  8.1666240234375 3.237111328125  8.5959609375 3.237111328125  C 9.025390625 3.237111328125  9.3733466796875 2.9005107421875  9.3733466796875 2.48568359375  L 9.3733466796875 0.982642578125  C 9.3733466796875 0.5674443359375  9.0251865234375 0.231029296875  8.5959609375 0.231029296875  C 8.16660546875 0.231029296875  7.8185751953125 0.5674443359375  7.8185751953125 0.982642578125  L 7.8185751953125 2.48568359375  Z M 3.9317763671875 2.48568359375  C 3.931609375 2.9006962890625  4.279658203125 3.237111328125  4.7089951171875 3.237111328125  C 5.13833203125 3.237111328125  5.486380859375 2.9005107421875  5.486380859375 2.48568359375  L 5.486380859375 0.982642578125  C 5.486380859375 0.5674443359375  5.1382392578125 0.231029296875  4.7089951171875 0.231029296875  C 4.279658203125 0.231029296875  3.9317763671875 0.5674443359375  3.9317763671875 0.982642578125  L 3.9317763671875 2.48568359375  Z " fill-rule="nonzero" fill="#ffffff" stroke="none" transform="matrix(1 0 0 1 31 279 )" />
  </g>
</svg>