<?xml version="1.0" encoding="utf-8"?>
<svg version="1.1" xmlns:xlink="http://www.w3.org/1999/xlink" width="6px" height="5px" xmlns="http://www.w3.org/2000/svg">
  <g transform="matrix(1 0 0 1 -33 -421 )">
    <path d="M 3.43793060937499 0.216209437500001  C 3.50230088456395 0.171958746036006  3.58144684658576 0.154690540321755  3.65839909375 0.168107234375  L 3.68345234375 0.17412  C 4.05724665625 0.27733934375  4.40398346875 0.4647375625  4.693598890625 0.723286984375  L 4.748716015625 0.772391328125  C 4.811850171875 0.83251909375  4.8429161875 0.916697984375  4.83289490625 1.001879  L 4.77978203125 1.473882  C 4.77709260792175 1.50314006578408  4.79373882094901 1.53074841971517  4.82086934375 1.5420268125  L 5.267819109375 1.733433546875  C 5.3409745625 1.7644995625  5.3960916875 1.823625203125  5.4221470625 1.89577853125  L 5.42916196875 1.919829640625  C 5.52536640625 2.2886133125  5.5313791875 2.674433171875  5.447200296875 3.04421896875  L 5.43016409375 3.11436803125  C 5.40713064345449 3.19791240002616  5.34741053699899 3.26647992987313  5.267819109375 3.300764125  L 4.82086934375 3.493173  C 4.79351304975038 3.50418780778633  4.77675412146758 3.53198309772343  4.77978203125 3.561317796875  L 4.83289490625 4.0333208125  C 4.84114980581484 4.1099286782211  4.81719199438138 4.18652107683741  4.766754359375 4.244770140625  L 4.748716015625 4.26280846875  C 4.46601775146706 4.528936506851  4.12587021107231 4.72644153220309  3.75460353125 4.840035078125  L 3.68445446875 4.861079796875  C 3.66724867635737 4.86472925259714  3.6498508297222 4.86740584278205  3.632343734375 4.869096828125  L 3.60628835937499 4.87110109375  C 3.54577881077736 4.87083177862782  3.48688440006694 4.85155086879785  3.437930609375 4.81598396875  L 3.0430915625 4.536389828125  C 3.01898560677162 4.51851680344172  2.98602503385338 4.51851680344172  2.961919078125 4.536389828125  L 2.567080046875 4.81598396875  C 2.50315152720544 4.86211423177406  2.42304452727023 4.87987551122862  2.345609421875 4.8650883125  L 2.3205561875 4.85907553125  C 1.94572079226254 4.75683295774284  1.59963874163747 4.56921464540237  1.309407484375 4.3109106875  L 1.256294625 4.26180634375  C 1.19362139998137 4.20280997219369  1.16211177051074 4.11791932542453  1.171113609375 4.032318671875  L 1.224226484375 3.55831140625  C 1.22737484074311 3.52943822352758  1.21041820487495 3.5021421775893  1.183139171875 3.492170859375  L 0.733183015624997 3.30176625  C 0.662023870117777 3.27089597882209  0.606614191872651 3.21222690541392  0.579857203124996 3.139421265625  L 0.571840156249998 3.11336590625  C 0.476046845807352 2.74570279042884  0.47020337533562 2.36037749807254  0.554803953124996 1.989978703125  L 0.571840156249996 1.920831765625  C 0.593925387765182 1.83654843030955  0.653910278774901 1.76730661313602  0.734185140624997 1.733433546875  L 1.182137046875 1.5420268125  C 1.20926756967599 1.53074841971517  1.22591378270325 1.50314006578408  1.223224359375 1.473882  L 1.169109359375 1.000876859375  C 1.16104212767432 0.924421543099768  1.18539682656413 0.84808591150836  1.23625203125 0.790429656250001  L 1.254290359375 0.771389203125  C 1.536890890625 0.504822750000001  1.877614921875 0.307403234375  2.248402859375 0.194162593750001  L 2.318551921875 0.173117875000001  C 2.40337663202585 0.150245777095788  2.49397284447125 0.166017584303331  2.566077921875 0.216209437500001  L 2.960916953125 0.496805718750001  C 2.98533777478248 0.514847053819749  3.01867074084251 0.514847053819749  3.0430915625 0.496805718750001  L 3.43793060937499 0.216209437500001  Z M 4.22560440625 1.1000876875  C 4.05280619515768 0.95703428868133  3.85601644119519 0.845746289925236  3.64436928125 0.771389203125  L 3.3727921875 0.965802328125  C 3.15051404460871 1.12505971818524  2.85149022101629 1.12505971818524  2.629212078125 0.965802328125  L 2.35663284375 0.771389203125001  C 2.1453913559928 0.845968621689364  1.94896836832771 0.957241055938922  1.77639984375 1.1000876875  L 1.813478640625 1.42678190625  C 1.84274526349785 1.69631589560626  1.69098275261566 1.95292508985591  1.440686453125 2.057121390625  L 1.1330326875 2.189402484375  C 1.0929475 2.40586246875  1.0929475 2.62833521875  1.1330326875 2.8447951875  L 1.44168859375 2.978078421875  C 1.69104562135243 3.08213021124509  1.84230336435034 3.33775987500199  1.813478640625 3.606413625  L 1.77639984375 3.935112109375  C 1.948766125 4.078416625  2.145183515625 4.18764875  2.35663284375 4.26180634375  L 2.628209953125 4.06839534375  C 2.72575456703572 3.99826837294506  2.84103448398871 3.95694815855188  2.960916953125 3.949141921875  L 3.001002125 3.949141921875  C 3.13441961901429 3.94861014549307  3.26457597792265 3.99035841351896  3.3727921875 4.06839534375  L 3.64436928125 4.26180634375  C 3.855818609375 4.187648765625  4.052236 4.077414515625  4.22560440625 3.935112109375  L 4.188525609375 3.608417890625  C 4.15978747803633 3.33928427599022  4.31087177243034 3.08313328253867  4.560315671875 2.978078421875  L 4.8699736875 2.8447951875  C 4.9090668965156 2.62807984236025  4.9090668965156 2.40611782951476  4.8699736875 2.189402484375  L 4.560315671875 2.057121390625  C 4.31102948906674 1.95243664664838  4.15991435681817 1.69664068671805  4.188525609375 1.427784046875  L 4.22560440625 1.1000876875  Z M 1.89536804150902 2.5175998984375  C 1.89536804150902 1.90147139565684  2.38514456158456 1.39694970454237  3.001002125 1.3786796875  C 3.628335203125 1.3786796875  4.139421265625 1.88976575  4.139421265625 2.517098828125  C 4.139421265625 3.145434046875  3.628335203125 3.65652009375  3.001002125 3.656520109375  C 2.38514456158456 3.63825009233263  1.89536804150902 3.13372840121816  1.89536804150902 2.5175998984375  Z M 3.001002125 1.90980834375  C 2.66560484744761 1.90980834375  2.3937116328125 2.18170155838511  2.3937116328125 2.5170988359375  C 2.3937116328125 2.85249611348989  2.66560484744761 3.124389328125  3.001002125 3.124389328125  C 3.3363994025524 3.124389328125  3.6082926171875 2.85249611348989  3.6082926171875 2.5170988359375  C 3.6082926171875 2.18170155838511  3.33639940255239 1.90980834375  3.001002125 1.90980834375  Z " fill-rule="nonzero" fill="#343a40" stroke="none" transform="matrix(1 0 0 1 33 421 )" />
  </g>
</svg>