<?xml version="1.0" encoding="utf-8"?>
<svg version="1.1" xmlns:xlink="http://www.w3.org/1999/xlink" width="16px" height="16px" xmlns="http://www.w3.org/2000/svg">
  <g transform="matrix(1 0 0 1 -28 -280 )">
    <path d="M 10.07878125 15.2624833984375  C 9.3642216796875 14.6234970703125  8.866306640625 13.7474375  8.7085732421875 12.7577119140625  L 2.9151875 12.7577119140625  C 2.5572861328125 12.7577119140625  2.26733203125 12.4770537109375  2.26733203125 12.1314169921875  C 2.26733203125 11.7856875  2.5572861328125 11.505326171875  2.9151875 11.505326171875  L 8.69452734375 11.505326171875  C 8.78091796875 10.8647255859375  9.0093818359375 10.2694169921875  9.347318359375 9.751796875  L 3.044810546875 9.751796875  C 2.6152880859375 9.751796875  2.26733203125 9.4153818359375  2.26733203125 9.000369140625  C 2.26733203125 8.5851708984375  2.6152880859375 8.2489228515625  3.044810546875 8.2489228515625  L 11.044330078125 8.2489228515625  C 11.6110087890625 7.9707138671875  12.2478427734375 7.8140380859375  12.921767578125 7.8140380859375  C 13.7696982421875 7.8140380859375  14.5594599609375 8.0623740234375  15.2236064453125 8.4890205078125  L 15.2236064453125 1.48568359375  C 15.2236064453125 1.0704853515625  14.875724609375 0.7340703125  14.4463876953125 0.7340703125  L 13.150583984375 0.7340703125  L 13.150583984375 1.48568359375  C 13.150583984375 2.315708984375  12.4543935546875 2.9885390625  11.5957939453125 2.9885390625  C 10.7371201171875 2.9885390625  10.04100390625 2.315708984375  10.04100390625 1.48568359375  L 10.04100390625 0.7340703125  L 9.2636923828125 0.7340703125  L 9.2636923828125 1.48568359375  C 9.2636923828125 2.315708984375  8.5676689453125 2.9885390625  7.70890234375 2.9885390625  C 6.8503212890625 2.9885390625  6.154205078125 2.315708984375  6.154205078125 1.48568359375  L 6.154205078125 0.7340703125  L 5.3767265625 0.7340703125  L 5.3767265625 1.48568359375  C 5.3767265625 2.315708984375  4.680703125 2.9885390625  3.822029296875 2.9885390625  C 2.9635224609375 2.9885390625  2.26733203125 2.315708984375  2.26733203125 1.48568359375  L 2.26733203125 0.7340703125  L 0.97162109375 0.7340703125  C 0.54219140625 0.7340703125  0.1943095703125 1.0704853515625  0.1943095703125 1.48568359375  L 0.1943095703125 14.511037109375  C 0.1943095703125 14.9260498046875  0.54219140625 15.2624833984375  0.97162109375 15.2624833984375  L 10.07878125 15.2624833984375  Z M 2.26733203125 5.743984375  C 2.26733203125 5.328953125  2.6152880859375 4.99237109375  3.044810546875 4.99237109375  L 12.373365234375 4.99237109375  C 12.802869140625 4.99237109375  13.150583984375 5.3289716796875  13.150583984375 5.743984375  C 13.150583984375 6.1589970703125  12.8027021484375 6.4954306640625  12.373365234375 6.4954306640625  L 3.044810546875 6.4954306640625  C 2.6152880859375 6.4954306640625  2.26733203125 6.159015625  2.26733203125 5.743984375  Z " fill-rule="nonzero" fill="#ffffff" stroke="none" transform="matrix(1 0 0 1 28 280 )" />
  </g>
</svg>