<?xml version="1.0" encoding="utf-8"?>
<svg version="1.1" xmlns:xlink="http://www.w3.org/1999/xlink" width="17px" height="17px" xmlns="http://www.w3.org/2000/svg">
  <g transform="matrix(1 0 0 1 -28 -189 )">
    <path d="M 17 8.5  C 17 8.16  17 7.82  16.932 7.48  L 8.908 9.248  L 15.844 12.716  C 16.592 11.492  17 10.064  17 8.5  Z M 7.412 8.5  L 16.728 6.46  C 15.912 3.06  13.056 0.476  9.52 0.068  L 7.412 8.5  Z M 8.432 9.996  L 12.24 16.116  C 13.464 15.504  14.552 14.62  15.368 13.464  L 8.432 9.996  Z M 6.392 8.5  L 8.5 0  C 3.808 0  0 3.808  0 8.5  C 0 13.192  3.808 17  8.5 17  C 9.52 17  10.472 16.796  11.356 16.524  L 6.392 8.5  Z " fill-rule="nonzero" fill="#ffffff" stroke="none" transform="matrix(1 0 0 1 28 189 )" />
  </g>
</svg>