<?xml version="1.0" encoding="utf-8"?>
<svg version="1.1" xmlns:xlink="http://www.w3.org/1999/xlink" width="18px" height="17px" xmlns="http://www.w3.org/2000/svg">
  <g transform="matrix(1 0 0 1 -28 -369 )">
    <path d="M 3.93026242154132 3.61524527112349  C 3.93026242154132 5.37450559795729  5.29734720705664 6.80113980501393  6.98599892571959 6.80113982079851  C 8.67209851346332 6.80113982079851  10.040034009285 5.37450559795729  10.040034009285 3.61524527112349  C 10.040034009285 1.8568356545961  8.67209851346332 0.431052142061282  6.98599892571959 0.431052142061282  C 5.29734720705664 0.431052142061282  3.9294117270195 1.8568356545961  3.92941171123491 3.61524527112349  Z M 13.4768868681523 13.8560459340761  C 13.2471962061281 13.3430701290622  12.7725021754875 11.832215996286  12.230602362117 11.832215996286  C 11.6887025487465 11.832215996286  11.644465818013 12.0363854753946  11.644465818013 12.0363854753946  L 12.230602362117 13.6050876248839  L 9.23271387465181 13.3439208393686  L 7.96516170566388 10.3460323519034  C 6.7265335450325 7.29114655803157  5.48620397957289 6.94575986258124  4.27649982729805 6.94575986258124  C 3.68951258867224 6.94575986258124  2.46024219405757 7.01636847075209  1.5168090733519 8.2073570909935  C 0.57677877808728 9.39919640575673  0 15.9964226155989  0 15.9964226155989  L 5.73971440389972 15.9964226155989  L 3.67675199721448 11.98619381987  L 4.54787508913649 11.4357869350046  C 4.54787508913649 11.4357869350046  4.70185289693593 11.7675623286908  5.71334252646239 13.9198488913649  C 6.72568285051068 16.0746875691736  7.41645624141133 16.3681812042711  7.41645624141133 16.3681812042711  L 12.8099332395543 16.3681812042711  C 13.6044927827298 16.3681812042711  14.2450745181059 16.1121186490251  14.2450745181059 15.0861670389972  C 14.2450745181059 14.0610661234912  13.4768868681523 13.8568966443825  13.4768868681523 13.8568966443825  Z M 17.0073174029712 10.2618124419684  L 11.4522062200557 7.89855074930362  C 11.4522062200557 7.89855074930362  10.8949936843083 8.97554474094708  10.4534771977716 9.43662746982358  C 10.0111100009285 9.89685950417827  9.14679254410399 11.0699832869081  9.81970111327762 12.0108642924791  L 11.7984436258124 8.76116678551532  L 15.9303234113278 10.6463316220984  L 14.412663643454 12.9134635236769  C 14.412663643454 12.9134635236769  14.1999871086351 13.8169134651811  14.4892271922006 13.8551952237697  C 14.7776165812442 13.893476998143  17.0073174029712 10.2618124419684  17.0073174029712 10.2618124419684  Z " fill-rule="nonzero" fill="#ffffff" stroke="none" transform="matrix(1 0 0 1 28 369 )" />
  </g>
</svg>