<?xml version="1.0" encoding="utf-8"?>
<svg version="1.1" xmlns:xlink="http://www.w3.org/1999/xlink" width="14px" height="12px" xmlns="http://www.w3.org/2000/svg">
  <g transform="matrix(1 0 0 1 -29 -416 )">
    <path d="M 5.892646875 1.41413003125  C 5.892646875 1.380057625  6.225353875 0.76374796875  7.001002125 0.76374796875  C 7.813729171875 0.76374796875  8.109357375 1.41413003125  8.109357390625 1.4482024375  L 13.134034828125 9.768883875  C 13.170111484375 9.80195415625  13.281347875 10.007390703125  13.281347859375 10.4192659375  C 13.281347859375 11.1377928125  12.727170234375 11.75510459375  12.026681703125 11.75510459375  L 1.9773268125 11.75510459375  C 1.274834015625 11.75510459375  0.721658515625 11.171865203125  0.72165853125 10.4192659375  C 0.72165853125 10.007390703125  0.868971578125 9.768883875  0.8689715625 9.768883875  L 5.892646875 1.41413003125  Z M 7.33871978125 1.811975453125  C 7.302643125 1.74483278125  7.231491921875 1.6436176875  7.01904046875 1.6436176875  C 6.806589015625 1.6436176875  6.664286609375 1.877113859375  6.664286609375 1.877113859375  L 6.629212078125 1.945258671875  L 1.804960546875 10.081548296875  C 1.804960546875 10.14768884375  1.768883890625 10.182763375  1.768883875 10.248903921875  C 1.768883875 10.5164725  1.981335328125 10.80007515625  2.194788921875 10.80007515625  L 11.843292 10.80007515625  C 12.055743453125 10.80007515625  12.23211825 10.5164725  12.23211825 10.2819741875  C 12.23211825 10.181761234375  12.23211825 10.147688828125  12.19804584375 10.1146185625  L 7.3737943125 1.879118125  L 7.3737943125 1.84504571875  C 7.3737943125 1.84504571875  7.3737943125 1.8119754375  7.33871978125 1.811975453125  Z " fill-rule="nonzero" fill="#343a40" stroke="none" transform="matrix(1 0 0 1 29 416 )" />
  </g>
</svg>