<?xml version="1.0" encoding="utf-8"?>
<svg version="1.1" xmlns:xlink="http://www.w3.org/1999/xlink" width="17px" height="16px" xmlns="http://www.w3.org/2000/svg">
  <g transform="matrix(1 0 0 1 -28 -415 )">
    <path d="M 16.0020042696845 7.263434796875  L 16.0020042696845 8.735563078125  C 16.0020043157781 8.73589711977736  16.0020043388249 8.73623116146947  16.0020043388249 8.736565203125  C 16.0020043388249 12.7474960144745  12.7505024915253 15.998997875  8.73957169649083 15.998997875  L 7.26343483647986 15.998997875  C 7.2631007717579 15.9989979210999  7.26276670705916 15.9989979441499  7.26243264233403 15.9989979441499  C 3.25150184729959 15.9989979441499  0 12.7474960836244  0 8.73656527227491  C 0 8.736231207564  0 8.73589714283273  0 8.735563078125  L 0 7.263434796875  C 0 3.25195052717061  3.25195058309275 0  7.26343483647986 0  L 8.73957162735046 0  C 12.7506645209934 0.000553404364884975  16.0020043078607 3.25234184874014  16.0020042696845 7.263434796875  Z " fill-rule="nonzero" fill="#ffffff" stroke="none" transform="matrix(1 0 0 1 28 415 )" />
  </g>
</svg>