<?xml version="1.0" encoding="utf-8"?>
<svg version="1.1" xmlns:xlink="http://www.w3.org/1999/xlink" width="17px" height="13px" xmlns="http://www.w3.org/2000/svg">
  <g transform="matrix(1 0 0 1 -28 -146 )">
    <path d="M 3.287109375 9.10830965909091  C 3.52427455357143 8.87748579545455  3.64285714285714 8.59895833333333  3.64285714285714 8.27272727272727  C 3.64285714285714 7.94649621212121  3.52427455357143 7.66796875  3.287109375 7.43714488636364  C 3.04994419642857 7.20632102272727  2.76376488095238 7.09090909090909  2.42857142857143 7.09090909090909  C 2.09337797619048 7.09090909090909  1.80719866071429 7.20632102272727  1.57003348214286 7.43714488636364  C 1.33286830357143 7.66796875  1.21428571428571 7.94649621212121  1.21428571428571 8.27272727272727  C 1.21428571428571 8.59895833333333  1.33286830357143 8.87748579545455  1.57003348214286 9.10830965909091  C 1.80719866071429 9.33913352272727  2.09337797619048 9.45454545454546  2.42857142857143 9.45454545454546  C 2.76376488095238 9.45454545454546  3.04994419642857 9.33913352272727  3.287109375 9.10830965909091  Z M 5.10853794642857 4.97194602272727  C 5.345703125 4.74112215909091  5.46428571428571 4.4625946969697  5.46428571428571 4.13636363636364  C 5.46428571428571 3.81013257575757  5.345703125 3.53160511363636  5.10853794642857 3.30078125  C 4.87137276785714 3.06995738636364  4.58519345238095 2.95454545454546  4.25 2.95454545454546  C 3.91480654761905 2.95454545454546  3.62862723214286 3.06995738636364  3.39146205357143 3.30078125  C 3.154296875 3.53160511363636  3.03571428571429 3.81013257575757  3.03571428571429 4.13636363636364  C 3.03571428571429 4.4625946969697  3.154296875 4.74112215909091  3.39146205357143 4.97194602272727  C 3.62862723214286 5.20276988636364  3.91480654761905 5.31818181818182  4.25 5.31818181818182  C 4.58519345238095 5.31818181818182  4.87137276785714 5.20276988636364  5.10853794642857 4.97194602272727  Z M 10.2075892857143 9.41761363636363  C 10.0684523809524 9.06676136363637  9.84077380952381 8.78669507575757  9.52455357142857 8.57741477272727  L 10.4827008928571 5.05042613636364  C 10.5206473214286 4.89038825757576  10.4969308035714 4.74112215909091  10.4115513392857 4.60262784090909  C 10.326171875 4.46413352272727  10.2044270833333 4.3733428030303  10.0463169642857 4.33025568181818  C 9.8882068452381 4.28716856060606  9.73642113095238 4.30717329545455  9.59095982142857 4.39026988636364  C 9.44549851190476 4.47336647727273  9.35063244047619 4.59493371212121  9.30636160714286 4.75497159090909  L 8.34821428571428 8.28196022727273  C 7.96875 8.31273674242424  7.6303943452381 8.44661458333333  7.33314732142857 8.68359375  C 7.03590029761905 8.92057291666666  6.83668154761905 9.22372159090909  6.73549107142857 9.59303977272727  C 6.60900297619048 10.0669981060606  6.67224702380952 10.5163352272727  6.92522321428571 10.9410511363636  C 7.17819940476191 11.3657670454545  7.54817708333333 11.639678030303  8.03515625 11.7627840909091  C 8.52213541666667 11.8858901515152  8.98381696428572 11.8243371212121  9.42020089285714 11.578125  C 9.85658482142857 11.3319128787879  10.1380208333333 10.9718276515152  10.2645089285714 10.4978693181818  C 10.3656994047619 10.1285511363636  10.3467261904762 9.76846590909091  10.2075892857143 9.41761363636363  Z M 15.4299665178571 9.10830965909091  C 15.6671316964286 8.87748579545455  15.7857142857143 8.59895833333333  15.7857142857143 8.27272727272727  C 15.7857142857143 7.94649621212121  15.6671316964286 7.66796875  15.4299665178571 7.43714488636364  C 15.1928013392857 7.20632102272727  14.9066220238095 7.09090909090909  14.5714285714286 7.09090909090909  C 14.2362351190476 7.09090909090909  13.9500558035714 7.20632102272727  13.712890625 7.43714488636364  C 13.4757254464286 7.66796875  13.3571428571429 7.94649621212121  13.3571428571429 8.27272727272727  C 13.3571428571429 8.59895833333333  13.4757254464286 8.87748579545455  13.712890625 9.10830965909091  C 13.9500558035714 9.33913352272727  14.2362351190476 9.45454545454546  14.5714285714286 9.45454545454546  C 14.9066220238095 9.45454545454546  15.1928013392857 9.33913352272727  15.4299665178571 9.10830965909091  Z M 9.35853794642857 3.19921875  C 9.595703125 2.96839488636364  9.71428571428571 2.68986742424242  9.71428571428571 2.36363636363636  C 9.71428571428571 2.0374053030303  9.595703125 1.75887784090909  9.35853794642857 1.52805397727273  C 9.12137276785714 1.29723011363636  8.83519345238095 1.18181818181818  8.5 1.18181818181818  C 8.16480654761905 1.18181818181818  7.87862723214286 1.29723011363636  7.64146205357143 1.52805397727273  C 7.404296875 1.75887784090909  7.28571428571429 2.0374053030303  7.28571428571429 2.36363636363636  C 7.28571428571429 2.68986742424242  7.404296875 2.96839488636364  7.64146205357143 3.19921875  C 7.87862723214286 3.43004261363636  8.16480654761905 3.54545454545455  8.5 3.54545454545455  C 8.83519345238095 3.54545454545455  9.12137276785714 3.43004261363636  9.35853794642857 3.19921875  Z M 13.6085379464286 4.97194602272727  C 13.845703125 4.74112215909091  13.9642857142857 4.4625946969697  13.9642857142857 4.13636363636364  C 13.9642857142857 3.81013257575757  13.845703125 3.53160511363636  13.6085379464286 3.30078125  C 13.3713727678571 3.06995738636364  13.085193452381 2.95454545454546  12.75 2.95454545454546  C 12.414806547619 2.95454545454546  12.1286272321429 3.06995738636364  11.8914620535714 3.30078125  C 11.654296875 3.53160511363636  11.5357142857143 3.81013257575757  11.5357142857143 4.13636363636364  C 11.5357142857143 4.4625946969697  11.654296875 4.74112215909091  11.8914620535714 4.97194602272727  C 12.1286272321429 5.20276988636364  12.414806547619 5.31818181818182  12.75 5.31818181818182  C 13.085193452381 5.31818181818182  13.3713727678571 5.20276988636364  13.6085379464286 4.97194602272727  Z M 16.3264508928571 5.05965909090909  C 16.7754836309524 6.08143939393939  17 7.15246212121212  17 8.27272727272727  C 17 9.87926136363637  16.5541294642857 11.3657670454545  15.6623883928571 12.7322443181818  C 15.542224702381 12.9107481060606  15.3714657738095 13  15.1501116071429 13  L 1.84988839285714 13  C 1.62853422619048 13  1.45777529761905 12.9107481060606  1.33761160714286 12.7322443181818  C 0.445870535714286 11.3719223484848  0 9.88541666666667  0 8.27272727272727  C 0 7.15246212121212  0.224516369047619 6.08143939393939  0.673549107142857 5.05965909090909  C 1.1225818452381 4.03787878787879  1.7265625 3.15767045454546  2.48549107142857 2.41903409090909  C 3.24441964285714 1.68039772727273  4.14880952380952 1.09256628787879  5.19866071428571 0.655539772727273  C 6.24851190476191 0.218513257575757  7.34895833333333 0  8.5 0  C 9.65104166666667 0  10.7514880952381 0.218513257575757  11.8013392857143 0.655539772727273  C 12.8511904761905 1.09256628787879  13.7555803571429 1.68039772727273  14.5145089285714 2.41903409090909  C 15.2734375 3.15767045454546  15.8774181547619 4.03787878787879  16.3264508928571 5.05965909090909  Z " fill-rule="nonzero" fill="#ffffff" stroke="none" transform="matrix(1 0 0 1 28 146 )" />
  </g>
</svg>