<?xml version="1.0" encoding="utf-8"?>
<svg version="1.1" xmlns:xlink="http://www.w3.org/1999/xlink" width="17px" height="13px" xmlns="http://www.w3.org/2000/svg">
  <g transform="matrix(1 0 0 1 -28 -327 )">
    <path d="M 8.53062566974683 12.8149795080668  C 8.52317401966994 12.8149795080668  8.51572237302735 12.8149693889619  8.50827075043328 12.8149491507799  C 3.96910137909346 12.8110276199499  0.291455915219295 9.13020355032307  0.291455915219295 4.59103248501681  C 0.291455915219295 4.58866213699125  0.291456940013421 4.58629178908052  0.291458989601387 4.58392144194108  C 0.291458989601386 4.27576006073634  0.541273147824726 4.025945902513  0.849434529029463 4.025945902513  C 1.1575959102342 4.025945902513  1.40741006845754 4.27576006073634  1.40741006845754 4.58392144194108  C 1.42090551789455 8.49995824402234  4.59927646060003 11.6673947556058  8.51533651662705 11.6673947556058  C 12.4409592075996 11.6673947556058  15.6233051726063 8.48504879059915  15.6233051726063 4.55942609962655  C 15.6233051726063 3.32129645875678  15.2998935053752 2.10464099937594  14.6850955043328 1.02993712131716  C 14.6358615625949 0.944556739673798  14.6099447213102 0.847730926043144  14.6099447213102 0.749172361785095  C 14.6099447213102 0.438762573078603  14.8615815739452 0.187125720443661  15.1719913626516 0.187125720443661  C 15.3728979404346 0.187125720443661  15.5585263561409 0.29436407376923  15.6588872209705 0.468407602253033  C 16.3813220651909 1.719689148123  16.7616533638543 3.13909278582606  16.7616533638543 4.58395181395939  C 16.7616533638543 9.12982288484985  13.0764967406373 12.8149795080668  8.53062566974683 12.8149795080668  Z " fill-rule="nonzero" fill="#ffffff" stroke="none" transform="matrix(1 0 0 1 28 327 )" />
  </g>
</svg>