<?xml version="1.0" encoding="utf-8"?>
<svg version="1.1" xmlns:xlink="http://www.w3.org/1999/xlink" width="17px" height="14px" xmlns="http://www.w3.org/2000/svg">
  <g transform="matrix(1 0 0 1 -28 -327 )">
    <path d="M 8.53900333340726 13.0282441340489  C 8.52875911364035 13.0282441340489  8.51851490235414 13.0282254922813  8.50827075043328 13.0281882088388  C 3.85133297429157 13.0203432825411  0.0813980056569499 9.240864167551  0.0853279055459272 4.58392144194107  C 0.0853867668370073 4.1580330055921  0.430654062616397 3.81281342530031  0.856542503032929 3.81281342530031  C 1.28243094344946 3.81281342530031  1.62769823922885 4.1580330055921  1.62775710051993 4.58392144194107  C 1.62774674974042 4.58880381536365  1.6277415743463 4.59368619838455  1.6277415743463 4.5985685827791  C 1.6277415743463 8.41427383707017  4.72098185125107 11.5075141139749  8.53668710554214 11.5075141139749  C 12.3523923598332 11.5075141139749  15.445632636738 8.41427383707017  15.445632636738 4.5985685827791  C 15.445632636738 3.37726665500732  15.1218929250765 2.17778956226095  14.5073962868284 1.12234070970537  C 14.4574995472782 1.0179887426914  14.4316009108972 0.903788706874406  14.4316009108972 0.788121003355087  C 14.4316009108972 0.360228133561923  14.7784766182271 0.0133524262320366  15.2063694880203 0.0133524262320366  C 15.4608023799638 0.0133524262320366  15.6990187790617 0.13827554431395  15.843694397747 0.347572132582321  C 16.5901442778401 1.63465055124743  16.9832700855736 3.09610699798324  16.9832700855736 4.58397738188251  C 16.9832700855736 9.2476171326072  13.202643084132 13.0282441340489  8.53900333340726 13.0282441340489  Z M 0.852988508665511 4.23563098093588  C 0.666144939026164 4.23940674976588  0.515581782426362 4.3899699128666  0.511806021663778 4.57681348266898  C 0.511038470452639 7.80098789487761  2.43995379400742 10.7125581996188  5.40919641247834 11.9691008778163  C 7.40777831662241 12.8058840561224  9.65851895807429 12.8058840561224  11.6571008622184 11.9691008778163  C 14.624794460152 10.7124067437081  16.552787356898 7.80225236769118  16.552787356898 4.57944529342841  C 16.552787356898 3.16835884234645  16.1807109569187 1.7822192734661  15.4740800294627 0.560811190641247  C 15.4081912980924 0.474517375416388  15.3058293542385 0.423886000218361  15.1972570397764 0.423886000218361  C 15.0049015296517 0.423886000218361  14.8489665787712 0.579820951098853  14.8489665787712 0.772176461223561  C 14.8489665787712 0.819244256986309  14.8585066692492 0.865823720088299  14.877010669844 0.909101651646446  C 15.5242027910134 2.02638155487758  15.865018041824 3.29469632742511  15.865018041824 4.58588648532903  C 15.865018041824 8.63712909928855  12.5808370084699 11.9213101326427  8.52959439451036 11.9213101326427  C 4.47835178055083 11.9213101326427  1.19417074719667 8.63712909928855  1.19417074719667 4.58588648532903  C 1.19417074719667 4.58523147086291  1.19417083493065 4.58457645638369  1.19417101039861 4.58392144194108  C 1.19422037529023 4.58155244092421  1.19424505974508 4.57918298992342  1.19424505974508 4.57681347463324  C 1.19424505974508 4.38838358201693  1.04149245062828 4.23563097290014  0.853062558011973 4.23563097290014  Z " fill-rule="nonzero" fill="#ffffff" stroke="none" transform="matrix(1 0 0 1 28 327 )" />
  </g>
</svg>