<?xml version="1.0" encoding="utf-8"?>
<svg version="1.1" xmlns:xlink="http://www.w3.org/1999/xlink" width="10px" height="7px" xmlns="http://www.w3.org/2000/svg">
  <g transform="matrix(1 0 0 1 -31 -329 )">
    <path d="M 9.09779492634315 6.52884405285962  L 9.06225507105719 6.57149185268631  C 8.86278406051725 6.57203260776313  8.68171075912842 6.4550314004773  8.60023711438475 6.27295718024263  L 6.63132980329289 1.56037396620451  C 6.61007097274054 1.50550377010326  6.59916532782775 1.44716884911861  6.59916532782775 1.38832433963265  C 6.59916532782775 1.1813760304855  6.73281625228283 0.998115118463194  6.92986447573657 0.934872725303294  C 7.18309366357982 0.83058348704413  7.47328605278972 0.947291290987281  7.58379759792028 1.19786755719238  L 9.5598128830156 5.90334281195841  C 9.58274519111754 5.96006266543401  9.59453367097588 6.02066990602848  9.59453367097588 6.08185023402021  C 9.59453367097588 6.28150393746877  9.46999735254011 6.45996283774734  9.28260210311958 6.52884405285962  C 9.22145703218841 6.53945952982733  9.15893999727433 6.53945952982733  9.09779492634315 6.52884405285962  Z M 6.07690824350087 6.52173607885615  L 6.0698002694974 6.57149185268631  C 5.87032925895746 6.57203260776313  5.68925595756863 6.4550314004773  5.60778231282496 6.27295718024263  L 3.63176702772964 1.56037396620451  C 3.60716847771718 1.5019080252818  3.59449730248663 1.4391171766839  3.59449730248663 1.37568725542672  C 3.59449730248663 1.17503942190705  3.7202581907427 0.995915021289662  3.90897780762565 0.927764751299827  C 4.16220699139503 0.823475522631271  4.45239937015502 0.940183325000852  4.56291091507799 1.19075958318891  L 6.53892620017331 5.89623483795494  C 6.56185850952212 5.95295469277169  6.57364699003959 6.01356193502852  6.57364699003959 6.07474226473098  C 6.57364699003959 6.27439596317446  6.44911067775504 6.45285486009381  6.26171543500867 6.52173607885615  C 6.20057035927748 6.53235155752888  6.13805331923205 6.53235155752888  6.07690824350087 6.52173607885615  Z M 3.08445344194107 6.52173607885615  L 3.07734546793761 6.57149185268631  C 2.88116439952928 6.57458921693635  2.70097026172822 6.46370051807696  2.61532751126517 6.2871731135182  L 0.639312226169844 1.56037396620451  C 0.614713676157385 1.5019080252818  0.602042500926838 1.4391171766839  0.602042500926838 1.37568725542672  C 0.602042500926838 1.17503942190705  0.727803389182907 0.995915021289662  0.916523006065858 0.927764751299827  C 1.16975218983524 0.823475522631271  1.45994456859522 0.940183325000852  1.5704561135182 1.19075958318891  L 3.54647139861352 5.89623483795494  C 3.56940370671546 5.95295469143054  3.58119218657379 6.01356193202501  3.58119218657379 6.07474226001674  C 3.58119218657379 6.27439596346531  3.45665586813803 6.45285486374387  3.2692606187175 6.52173607885615  C 3.20811554778632 6.53235155582386  3.14559851287225 6.53235155582386  3.08445344194107 6.52173607885615  Z " fill-rule="nonzero" fill="#ffffff" stroke="none" transform="matrix(1 0 0 1 31 329 )" />
  </g>
</svg>