<?xml version="1.0" encoding="utf-8"?>
<svg version="1.1" xmlns:xlink="http://www.w3.org/1999/xlink" width="17px" height="12px" xmlns="http://www.w3.org/2000/svg">
  <g transform="matrix(1 0 0 1 -28 -328 )">
    <path d="M 1.69172880762565 1.50839459445407  C 1.69174520463542 1.97278187963169  1.31735939712284 2.35034045062108  0.852988508665511 2.35424286741768  C 0.850619236460526 2.35426277798459  0.848249891053676 2.35427273339987  0.845880535189313 2.35427273339987  C 0.3787314333608 2.35427273339987  3.22622257078371E-05 1.97557356226478  3.22622257078371E-05 1.50842446043626  C 3.22622257078371E-05 1.04127535860775  0.3787314333608 0.662576187472659  0.845880535189313 0.662576187472659  C 1.31301797366893 0.662576187472659  1.69171231351097 1.04125715626565  1.69172880762565 1.50839459445407  Z M 0.852988508665511 1.19564397400347  L 0.852988508665511 1.20275194800693  C 0.680261110490523 1.20275194800693  0.540237888214905 1.34277517028255  0.540237888214905 1.51550256845754  C 0.540237888214905 1.68822996663253  0.680261110490523 1.82825318890815  0.852988508665511 1.82825318890815  C 1.0257159068405 1.82825318890815  1.16573912911612 1.68822996663253  1.16573912911612 1.51550256845754  C 1.16579298281912 1.51313362284348  1.16581991227907 1.51076414168933  1.16581991227907 1.50839458402097  C 1.16581991227907 1.33566718584598  1.02579669000345 1.19564396357036  0.853069291828463 1.19564396357036  Z M 16.0782573630849 11.7794092954939  L 16.0853653370884 11.822057110052  C 15.9313248472171 11.8224785304549  15.7842382697898 11.7579668749082  15.6802111135182 11.6443578925477  L 13.6402241213172 9.51196729722704  C 13.5261565525326 9.40415194842705  13.4615213588063 9.25412136076092  13.4615213588063 9.09716417014742  C 13.4615213588063 8.7819366652237  13.7170637420975 8.52639428193251  14.0322912470212 8.52639428193251  C 14.190996793797 8.52639428193251  14.3425366336272 8.5924726644135  14.4505325389948 8.70876683882149  L 16.4834115719237 10.8411574341421  C 16.5824710243627 10.9443964130088  16.6377837300825 11.0819341186931  16.6377837300825 11.2250112373213  C 16.6377837300825 11.5312098097718  16.389560742741 11.7794327971133  16.0833621702905 11.7794327971133  C 16.0816605408394 11.7794327971133  16.0799589204049 11.7794249631572  16.0782573630849 11.7794092954939  Z " fill-rule="nonzero" fill="#ffffff" stroke="none" transform="matrix(1 0 0 1 28 328 )" />
  </g>
</svg>