<?xml version="1.0" encoding="utf-8"?>
<svg version="1.1" xmlns:xlink="http://www.w3.org/1999/xlink" width="13px" height="8px" xmlns="http://www.w3.org/2000/svg">
  <g transform="matrix(1 0 0 1 -28 -328 )">
    <path d="M 12.3323578916811 7.73497513691508  C 12.2460890439592 7.76781406126472  12.1545627403958 7.78467417178634  12.0622550710572 7.7847309254766  C 11.7744453034985 7.78736948540413  11.5134524215198 7.61618060407556  11.4012139896014 7.35114483535529  L 9.43230667850953 2.64566958058925  C 9.36504800377815 2.47678999872573  9.36504800377815 2.28855948394325  9.43230667850953 2.11967990207972  C 9.50609519017876 1.9446377765454  9.64687848726659 1.80641417769736  9.82324495407279 1.73584960051993  C 10.1843980664523 1.58861874653475  10.5967336462778 1.75989659963485  10.747280882149 2.11967990207972  L 12.7232961672444 6.82515515684575  C 12.7905548419757 6.99403473870928  12.7905548419757 7.18226525349176  12.7232961672444 7.35114483535529  C 12.6495076555751 7.5261869608896  12.5087243584873 7.66441055973765  12.3323578916811 7.73497513691508  Z M 10.0933477599653 2.11257192807625  L 10.0862397859619 2.09835599480069  C 10.0486808507443 2.09106849121759  10.0100712255122 2.09106849121759  9.97251229029463 2.09835599480069  C 9.90233483328886 2.12489934880601  9.84591393764309 2.17875566166842  9.81613698006932 2.2476233457539  C 9.78844462027747 2.31107451656764  9.78844462027747 2.38319528499215  9.81613698006932 2.44664645580589  L 11.7921522651646 7.15212171057192  C 11.8598035951255 7.29628901456075  12.0287057036445 7.36197316391221  12.1759825814558 7.30138904679376  C 12.2461600356553 7.27484569620574  12.3025809308621 7.22098938907751  12.3323578916811 7.15212171057192  C 12.3592141870207 7.08849867197392  12.3592141870207 7.01672162438656  12.3323578916811 6.95309858578856  L 10.3563426065858 2.31159505285962  C 10.3200430570187 2.19599088093438  10.2144657724193 2.11609455841278  10.0933477599653 2.11257192807625  Z M 9.07690824350087 7.7847309254766  L 9.0698002694974 7.7847309254766  C 8.78199050193875 7.78736948540413  8.52099761996003 7.61618060407556  8.40875918804159 7.35114483535529  L 6.43985187694974 2.64566958058925  C 6.37259320221836 2.47678999872573  6.37259320221836 2.28855948394325  6.43985187694974 2.11967990207972  C 6.51364038861897 1.94463777654541  6.6544236857068 1.80641417769736  6.830790152513 1.73584960051993  C 7.1919432648925 1.58861874653475  7.60427884471802 1.75989659963485  7.75482608058925 2.11967990207972  L 9.73084136568458 6.82515515684575  C 9.79810004041595 6.99403473870928  9.79810004041595 7.18226525349176  9.73084136568458 7.35114483535529  C 9.65705285401534 7.5261869608896  9.51626955692752 7.66441055973765  9.33990309012132 7.73497513691508  C 9.25586881672167 7.76697717747225  9.16682523774078 7.78382326227378  9.07690824350087 7.7847309254766  Z M 7.363887805026 2.31159505285962  C 7.32599620958465 2.19101012978279  7.21304734090528 2.10991863401287  7.08667702512998 2.11257192807626  C 7.05142511049562 2.10617411056489  7.0153094033692 2.10617411056489  6.98005748873484 2.11257192807626  C 6.90165555098922 2.15160813692904  6.84631236635965 2.22539905340973  6.830790152513 2.31159505285962  C 6.80393385717344 2.37521809145762  6.80393385717344 2.44699513904498  6.830790152513 2.51061817764298  L 8.80680543760832 7.21609343240901  C 8.87445676716375 7.36026072848825  9.04335886542849 7.42594487637288  9.19063573916811 7.36536076863085  C 9.26081319336764 7.33881741804283  9.31723408857441 7.2849611109146  9.34701104939342 7.21609343240901  C 9.37386734473297 7.15247039381101  9.37386734473297 7.08069334622365  9.34701104939342 7.01707030762565  L 7.363887805026 2.31159505285962  Z M 6.07734546793761 7.7847309254766  L 6.07023750866551 7.79894685875216  C 5.78242773576554 7.80158542467124  5.52143484644652 7.63039654234303  5.40919641247834 7.36536076863085  L 3.44028910138648 2.64566958058925  C 3.3730304266551 2.47678999872573  3.37303042665511 2.28855948394325  3.44028910138648 2.11967990207972  C 3.51407761305571 1.94463777654541  3.65486091014354 1.80641417769736  3.83122737694974 1.73584960051993  C 4.19238048932925 1.58861874653475  4.60471606915476 1.75989659963485  4.755263305026 2.11967990207972  L 6.73127859012132 6.82515515684575  C 6.79853726485269 6.99403473870928  6.79853726485269 7.18226525349176  6.73127859012132 7.35114483535529  C 6.65749007845209 7.5261869608896  6.51670678136426 7.66441055973765  6.34034031455806 7.73497513691508  C 6.25630604115841 7.76697717747225  6.16726246217752 7.78382326227378  6.07734546793761 7.7847309254766  Z M 4.10133018284229 2.11257192807626  L 4.09422222357019 2.11257192807625  C 4.05666328357993 2.10528442258762  4.01805365316184 2.10528442258762  3.98049471317158 2.11257192807626  C 3.90209277542596 2.15160813692904  3.84674959079639 2.22539905340973  3.83122737694974 2.31159505285962  C 3.80437108161018 2.37521809145762  3.80437108161018 2.44699513904498  3.83122737694974 2.51061817764298  L 5.80724266204506 7.21609343240901  C 5.87489399160049 7.36026072848825  6.04379608986523 7.42594487637288  6.19107296360485 7.36536076863085  C 6.27801109931237 7.33988423106746  6.34701516898123 7.27353416598218  6.37588015511265 7.18766155112652  C 6.40273645045221 7.12403851252851  6.40273645045221 7.05226146494116  6.37588015511265 6.98863842634315  L 4.36432502946274 2.31159505285962  C 4.32802547989563 2.19599088093438  4.22244819529628 2.11609455841279  4.10133018284229 2.11257192807626  Z M 0.845880549393414 0.932649142114384  C 0.527905113898819 0.932649142114384  0.270135090458267 1.19041915895948  0.270135082322357 1.50839459445407  C 0.270135082322357 1.82637005043299  0.527905108145862 2.0841400762565  0.845880549393414 2.0841400762565  C 1.16385599064097 2.0841400762565  1.42162601646447 1.82637005043299  1.42162601646447 1.50839460918544  C 1.42162601646447 1.19041916793789  1.16385599064097 0.932649142114384  0.845880549393414 0.932649142114384  Z " fill-rule="nonzero" fill="#ffffff" stroke="none" transform="matrix(1 0 0 1 28 328 )" />
  </g>
</svg>