<?xml version="1.0" encoding="utf-8"?>
<svg version="1.1" xmlns:xlink="http://www.w3.org/1999/xlink" width="10px" height="8px" xmlns="http://www.w3.org/2000/svg">
  <g transform="matrix(1 0 0 1 -31 -324 )">
    <path d="M 7.75438884142114 6.64566958058925  C 7.64215040950271 6.91070534930953  7.38115752752399 7.0818942306381  7.09334775996534 7.07925567071057  C 7.00340077298391 7.07865407893872  6.91430330123686 7.06179780319776  6.83035291334489 7.02949989688041  C 6.65130294926081 6.96052598166114  6.5077437538821 6.82209389376184  6.43230667850953 6.64566958058925  C 6.3631459638289 6.47469971806227  6.3631459638289 6.28354179060324  6.43230667850953 6.11257192807626  L 8.40832196360485 1.40709668804159  C 8.55886919947609 1.04731338559672  8.9712047793016 0.876035532496616  9.33235789168111 1.0232663864818  C 9.50872435848731 1.09383096365923  9.64950765557514 1.23205456250727  9.72329616724437 1.40709668804159  C 9.79055484197574 1.57597626990512  9.79055484197574 1.7642067846876  9.72329616724437 1.93308636655113  L 7.75438884142114 6.64566958058925  Z M 9.06225507105719 1.39998871403813  L 9.06936304506066 1.39288075476603  C 8.95543705121007 1.39191585192305  8.85193614433416 1.45905157201155  8.80636819844021 1.5634719982669  L 6.82324495407279 6.31159505285962  C 6.79555258999474 6.37504622790314  6.79555258999474 6.44716700259946  6.82324495407279 6.51061817764298  C 6.85302191164656 6.57948586172846  6.90944280729233 6.63334217459087  6.9796202642981 6.65988552859619  C 7.12487199189902 6.71248336097179  7.2865354373253 6.64842803019897  7.35634260658579 6.51061817764298  L 9.33235789168111 1.80514293760832  C 9.35921418702067 1.74151989901032  9.35921418702067 1.66974285142296  9.33235789168111 1.60611981282496  C 9.30258093410734 1.53725212873947  9.24616003846158 1.48339581587706  9.17598258145581 1.45685246187175  C 9.14259663261577 1.42995103763467  9.10380778084599 1.41055661426198  9.06225507105719 1.39998871403813  Z M 4.08667702512998 7.07925567071057  L 4.09378498440208 7.07925567071057  C 4.00329922886598 7.07721806861132  3.91403521271546 7.05791774065985  3.830790152513 7.02239192287695  C 3.65174018567764 6.95341801440292  3.50818098496975 6.81498593180103  3.43274390294627 6.63856162131716  C 3.36548522430358 6.46968203511273  3.36548522430358 6.28145151428068  3.43274390294628 6.11257192807626  L 5.41586716204506 1.40709668804159  C 5.56641439791629 1.04731338559672  5.97874997774181 0.876035532496616  6.33990309012132 1.0232663864818  C 6.51626955692752 1.09383096365923  6.65705285401534 1.23205456250728  6.73084136568458 1.40709668804159  C 6.79810004041595 1.57597626990512  6.79810004041595 1.7642067846876  6.73084136568458 1.93308636655113  L 4.75482608058925 6.64566958058925  C 4.64160903130016 6.91312989731693  4.37706008792243 7.08480527583861  4.08667702512998 7.07925567071057  Z M 6.0698002694974 1.39998871403813  L 6.0698002694974 1.39288075476603  C 5.95587428098055 1.39191585784995  5.85237338139878 1.45905157696765  5.80680543760832 1.5634719982669  L 3.830790152513 6.31159505285962  C 3.80393385717344 6.37521809145762  3.80393385717344 6.44699513904498  3.830790152513 6.51061817764298  C 3.86056711008677 6.57948586172846  3.91698800573253 6.63334217459087  3.9871654627383 6.65988552859619  C 4.13241719033923 6.71248336097179  4.29408063576551 6.64842803019897  4.363887805026 6.51061817764298  L 6.33990309012132 1.80514293760832  C 6.36675938546088 1.74151989901032  6.36675938546088 1.66974285142296  6.33990309012132 1.60611981282496  C 6.31012613254755 1.53725212873947  6.25370523690179 1.48339581587706  6.18352777989601 1.45685246187175  C 6.15014183105598 1.42995103763467  6.1113529792862 1.41055661426198  6.0698002694974 1.39998871403813  Z M 1.10133018284229 7.07925567071057  L 1.09422222357019 7.07925567071057  C 1.00613892938814 7.07632874442719  0.919368092531216 7.0570463367918  0.838335350953209 7.02239192287695  C 0.659285384117851 6.95341801440292  0.515726183409958 6.81498593180103  0.440289101386484 6.63856162131716  C 0.37303042274379 6.46968203511273  0.37303042274379 6.28145151428068  0.440289101386484 6.11257192807626  L 2.4163043864818 1.40709668804159  C 2.52352214356897 1.135788515864  2.78562837461276 0.957538702485805  3.07735388211108 0.957538702485805  C 3.1804518078387 0.957538702485805  3.28231573771731 0.979966477858248  3.37588015511265 1.0232663864818  C 3.55224662191885 1.09383096365923  3.69302991900668 1.23205456250728  3.76681843067591 1.40709668804159  C 3.83407710540729 1.57597626990512  3.83407710540729 1.7642067846876  3.76681843067591 1.93308636655113  L 1.76237127902946 6.64566958058925  C 1.65013284506128 6.91070535430144  1.38913995574226 7.08189423662965  1.10133018284229 7.07925567071057  Z M 3.07734546793761 1.39998871403813  L 3.07023750866551 1.39288075476603  C 2.95631151481492 1.39191585192305  2.85281060793901 1.45905157201155  2.80724266204506 1.5634719982669  L 0.83122737694974 6.31159505285962  C 0.804371081610182 6.37521809145762  0.804371081610182 6.44699513904498  0.83122737694974 6.51061817764298  C 0.861004334523511 6.57948586172846  0.917425230169273 6.63334217459087  0.987602687175043 6.65988552859619  C 1.13285441477597 6.71248336097179  1.29451786020225 6.64842803019897  1.36432502946274 6.51061817764298  L 3.37588015511265 1.76960308232236  C 3.40273644630665 1.70598004799689  3.40273644630665 1.63420300659584  3.37588015511265 1.57057997227036  C 3.34610319753888 1.50171228818488  3.28968230189312 1.44785597532247  3.21950484488735 1.42131262131716  C 3.17456257836636 1.4027317423716  3.12576143786951 1.39541157104422  3.07734546793761 1.39998871403813  Z " fill-rule="nonzero" fill="#ffffff" stroke="none" transform="matrix(1 0 0 1 31 324 )" />
  </g>
</svg>