<?xml version="1.0" encoding="utf-8"?>
<svg version="1.1" xmlns:xlink="http://www.w3.org/1999/xlink" width="14px" height="16px" xmlns="http://www.w3.org/2000/svg">
  <g transform="matrix(1 0 0 1 -31 -325 )">
    <path d="M 13.0782573630849 15.0424041421144  L 13.0853653370884 15.0352961681109  C 12.8724486610999 15.0377049417376  12.6684540828744 14.9499098118858  12.5238358032929 14.7936252435009  L 10.4838488110919 12.6612346481802  C 10.3502924654641 12.5186542277989  10.275975606982 12.3306073786844  10.275975606982 12.135244962305  C 10.275975606982 11.7103155718178  10.6204489396687 11.3658422391311  11.045378330156 11.3658422391311  C 11.258160792688 11.3658422391311  11.4614425717315 11.4539612668662  11.6069078492201 11.6092552764298  L 13.639786882149 13.7416458717504  C 13.7779297649131 13.8847534790141  13.8551335173478 14.0758937298026  13.8551335173478 14.2747988411374  C 13.8551335173478 14.6987660934222  13.5114401517816 15.0424594589884  13.0874728994968 15.0424594589884  C 13.0844009710158 15.0424594589884  13.0813290702058 15.0424410196982  13.0782573630849 15.0424041421144  Z M 11.0738102114385 11.8296023084922  L 11.045378330156 11.7514146533796  C 10.9582609572691 11.7511394887012  10.8743383330104 11.784199915002  10.810815364818 11.8438182417678  C 10.745340851357 11.9046039547856  10.7069415527832 11.9890824063423  10.7041958284229 12.0783812071057  C 10.700161605084 12.1703794943329  10.7334871032283 12.2601019827979  10.7965994315425 12.3271601204506  L 12.8365864237435 14.4595507157712  C 12.9011204308403 14.5568055191606  13.0100794004011 14.6152698224242  13.1267975860205 14.6152698224242  C 13.1984684824366 14.6152698224242  13.2683943754309 14.5931592379426  13.3270362616984 14.5519543041594  C 13.3925107751595 14.4911685911416  13.4309100737333 14.4066901395849  13.4336557980936 14.3173913388215  C 13.4376900213575 14.2253930587311  13.4043645289171 14.1356705766318  13.3412522097054 14.068612440208  L 11.3083731767764 11.9362218448873  C 11.2475874637586 11.8707473314263  11.1631090122019 11.8323480328525  11.0738102114385 11.8296023084922  Z M 1.10133018284229 5.85890863864818  L 1.10133018284229 5.86601661265165  C 1.04018511191111 5.87663208961936  0.977668076997039 5.87663208961936  0.916523006065858 5.86601661265165  C 0.727803389182908 5.79786634266181  0.602042500926839 5.61874194204442  0.602042500926839 5.41809410852476  C 0.602042500926839 5.35466418726757  0.614713676157385 5.29187333866967  0.639312226169844 5.23340739774697  L 2.61532751126517 0.492392317157712  C 2.72583905062681 0.241816053255882  3.01603143096036 0.125108243716191  3.2692606187175 0.229397470537261  C 3.45665586813803 0.298278685649543  3.58119218657379 0.476737585928109  3.58119218657379 0.67639128937667  C 3.58119218657379 0.737571617368406  3.56940370671547 0.798178857962872  3.54647139861352 0.854898711438475  L 1.5633481542461 5.56037396620451  C 1.48187450733244 5.74244819133086  1.30080119871782 5.8594493995551  1.10133018284229 5.85890863864818  Z M 4.10089295840555 5.85890863864818  L 4.09378498440208 5.86601661265165  C 4.0326399134709 5.87663208961936  3.97012287855683 5.87663208961936  3.90897780762565 5.86601661265165  C 3.7202581907427 5.79786634266181  3.59449730248663 5.61874194204442  3.59449730248663 5.41809410852476  C 3.59449730248663 5.35466418726757  3.60716847771718 5.29187333866968  3.63176702772964 5.23340739774697  L 5.60778231282496 0.527932157712305  C 5.71829385239418 0.277355885793435  6.00848624317765 0.160648074680175  6.26171543500866 0.264937311091854  C 6.44911067775504 0.333818529854201  6.57364699003959 0.51227742677354  6.57364699003959 0.711931125217021  C 6.57364699003959 0.773111454919479  6.56185850952211 0.833718697176325  6.53892620017331 0.890438551993067  L 4.56291091507799 5.56037396620451  C 4.48143727033432 5.74244818643917  4.30036396894549 5.859449393725  4.10089295840555 5.85890863864818  Z M 7.09334775996534 5.85890863864818  L 7.08623978596187 5.86601661265165  C 7.02509471503069 5.87663208961936  6.96257768011662 5.87663208961936  6.90143260918544 5.86601661265165  C 6.71271299230249 5.79786634266181  6.58695210404642 5.61874194204442  6.58695210404642 5.41809410852476  C 6.58695210404642 5.35466418726757  6.59962327927697 5.29187333866968  6.62422182928943 5.23340739774697  L 8.60023711438475 0.527932157712305  C 8.71074865395397 0.277355885793437  9.00094104473744 0.160648074680176  9.25417023656846 0.264937311091854  C 9.44156547931484 0.333818529854201  9.56610179159938 0.51227742677354  9.56610179159938 0.711931125217021  C 9.56610179159938 0.773111454919481  9.55431331108191 0.833718697176323  9.5313810017331 0.890438551993067  L 7.55536571663778 5.56037396620451  C 7.47389207189411 5.74244818643917  7.29281877050528 5.859449393725  7.09334775996534 5.85890863864818  Z " fill-rule="nonzero" fill="#ffffff" stroke="none" transform="matrix(1 0 0 1 31 325 )" />
  </g>
</svg>