<?xml version="1.0" encoding="utf-8"?>
<svg version="1.1" xmlns:xlink="http://www.w3.org/1999/xlink" width="17px" height="17px" xmlns="http://www.w3.org/2000/svg">
  <g transform="matrix(1 0 0 1 -28 -504 )">
    <path d="M 8.5 0.625  L 16.375 3.25  L 16.375 3.90625  L 8.5 6.53125  L 0.625 3.90625  L 0.625 3.25  L 8.5 0.625  Z M 14.40625 5.875  L 8.5 7.84375  L 2.59375 5.875  L 0.625 6.53125  L 0.625 7.1875  L 8.5 9.8125  L 16.375 7.1875  L 16.375 6.53125  L 14.40625 5.875  Z M 14.40625 9.15625  L 8.5 11.125  L 2.59375 9.15625  L 0.625 9.8125  L 0.625 10.46875  L 8.5 13.09375  L 16.375 10.46875  L 16.375 9.8125  L 14.40625 9.15625  Z M 14.40625 12.4375  L 8.5 14.40625  L 2.59375 12.4375  L 0.625 13.09375  L 0.625 13.75  L 8.5 16.375  L 16.375 13.75  L 16.375 13.09375  L 14.40625 12.4375  Z " fill-rule="nonzero" fill="#ffffff" stroke="none" transform="matrix(1 0 0 1 28 504 )" />
  </g>
</svg>