<?xml version="1.0" encoding="utf-8"?>
<svg version="1.1" xmlns:xlink="http://www.w3.org/1999/xlink" width="16px" height="16px" xmlns="http://www.w3.org/2000/svg">
  <g transform="matrix(1 0 0 1 -28 -460 )">
    <path d="M 15.8125 15.5166015625  L 12.048046875 14.7365234375  L 8.0814453125 15.8125  L 3.923828125 14.7365234375  L 0.1875 15.7453125  L 0.1875 12.5439453125  L 3.895703125 11.53515625  L 8.025 12.6111328125  L 12.2455078125 11.53515625  L 15.8125 12.315234375  L 15.8125 15.5166015625  Z M 11.671875 10.83203125  L 4.0546875 10.83203125  C 3.83889878537779 10.8320312675887  3.66406248241132 10.6571949646222  3.66406248241132 10.4415234550887  L 3.6640625 1.5546875  C 3.66406248241132 1.33889878537779  3.83889878537779 1.16406248241132  4.05457029491132 1.16406248241132  L 6.8298828125 1.1640625  C 6.93769710537099 0.597482088725676  7.43301846706418 0.187527101499435  8.009765625 0.187527101499435  C 8.58651278293583 0.187527101499435  9.08183414462902 0.597482088725677  9.1896484375 1.1640625  L 11.671875 1.1640625  C 11.8876637146222 1.16406248241132  12.0625000175887 1.33889878537779  12.0625000175887 1.55457029491132  L 12.0625 10.44140625  C 12.0625000175887 10.6571949646222  11.8876637146222 10.8320312675887  11.6719922050887 10.8320312675887  Z M 4.66015625 7.53125  L 4.66015625 8.625  L 7.86328125 8.625  L 7.86328125 7.53125  L 4.66015625 7.53125  Z M 4.66015625 5.1875  L 4.66015625 6.28125  L 9.40625 6.28125  L 9.40625 5.1875  L 4.66015625 5.1875  Z M 11.06640625 3.9375  L 11.06640625 2.84375  L 4.66015625 2.84375  L 4.66015625 3.9375  L 11.06640625 3.9375  Z " fill-rule="nonzero" fill="#ffffff" stroke="none" transform="matrix(1 0 0 1 28 460 )" />
  </g>
</svg>