<?xml version="1.0" encoding="utf-8"?>
<svg version="1.1" xmlns:xlink="http://www.w3.org/1999/xlink" width="20px" height="20px" xmlns="http://www.w3.org/2000/svg">
  <g transform="matrix(1 0 0 1 -320 -15 )">
    <path d="M 19.9158653846154 9.99519230769231  C 19.9158653846154 4.51201923076923  15.4735576923077 0.0673076923076912  9.98798076923077 0.0673076923076922  C 4.50480769230769 0.0673076923076922  0.0600961538461538 4.51201923076923  0.0600961538461538 9.99519230769231  C 0.0600961538461538 15.4783653846154  4.50480769230769 19.9230769230769  9.98798076923077 19.9230769230769  C 15.4711538461538 19.9230769230769  19.9158653846154 15.4783653846154  19.9158653846154 9.99519230769231  Z M 10.8221153846154 14.8221153846154  C 10.8221153846154 15.4711538461538  10.3052884615385 15.9951923076923  9.67067307692308 15.9951923076923  C 9.03605769230769 15.9951923076923  8.51923076923077 15.46875  8.51923076923077 14.8221153846154  C 8.51923076923077 14.1730769230769  9.03365384615385 13.6490384615385  9.67067307692308 13.6490384615385  C 10.3052884615385 13.6490384615385  10.8221153846154 14.1730769230769  10.8221153846154 14.8221153846154  Z M 13.1201923076923 7.56490384615385  C 13.1225961538462 7.96634615384616  13.0456730769231 8.31971153846154  12.8846153846154 8.625  C 12.7235576923077 8.92788461538462  12.5384615384615 9.18990384615385  12.3173076923077 9.40865384615385  C 12.0985576923077 9.62980769230769  11.7067307692308 10  11.1394230769231 10.5192307692308  C 10.9831730769231 10.6658653846154  10.8581730769231 10.7956730769231  10.7644230769231 10.90625  C 10.6706730769231 11.0168269230769  10.6009615384615 11.1201923076923  10.5528846153846 11.2115384615385  C 10.5072115384615 11.3028846153846  10.4711538461538 11.3966346153846  10.4471153846154 11.4903846153846  C 10.4230769230769 11.5841346153846  10.3846153846154 11.7451923076923  10.3341346153846 11.9759615384615  C 10.2475961538462 12.46875  9.97115384615384 12.7139423076923  9.51201923076923 12.7139423076923  C 9.27163461538462 12.7139423076923  9.07211538461539 12.6346153846154  8.90865384615384 12.4711538461539  C 8.74519230769231 12.3100961538462  8.66346153846154 12.0721153846154  8.66346153846154 11.7524038461539  C 8.66346153846154 11.3557692307692  8.72355769230769 11.0096153846154  8.84375 10.71875  C 8.96394230769231 10.4278846153846  9.12259615384615 10.1730769230769  9.31971153846154 9.95192307692308  C 9.51682692307692 9.73317307692308  9.78365384615385 9.46875000000001  10.1201923076923 9.16826923076924  C 10.4158653846154 8.90384615384616  10.6274038461538 8.70432692307693  10.7572115384615 8.5673076923077  C 10.8894230769231 8.43269230769231  11 8.28365384615385  11.0889423076923 8.11538461538462  C 11.1778846153846 7.94951923076924  11.2235576923077 7.77163461538462  11.2235576923077 7.57451923076924  C 11.2235576923077 7.19711538461539  11.0865384615385 6.87740384615385  10.8125 6.61778846153847  C 10.5384615384615 6.35817307692308  10.1850961538462 6.22596153846154  9.75240384615384 6.22596153846154  C 9.24519230769231 6.22596153846154  8.87259615384615 6.35817307692308  8.63461538461538 6.62019230769231  C 8.39423076923077 6.88221153846154  8.19230769230769 7.26923076923077  8.02884615384615 7.77884615384616  C 7.87259615384615 8.31490384615385  7.57451923076923 8.58173076923077  7.13701923076923 8.58173076923077  C 6.87980769230769 8.58173076923077  6.66105769230769 8.48798076923077  6.48317307692308 8.30288461538462  C 6.30528846153846 8.11538461538462  6.21634615384615 7.91346153846154  6.21634615384615 7.69711538461539  C 6.21634615384615 7.24759615384616  6.35576923076923 6.79326923076923  6.63701923076923 6.33173076923077  C 6.91586538461538 5.87019230769231  7.32692307692307 5.48798076923077  7.86538461538461 5.18509615384616  C 8.40384615384615 4.88221153846154  9.03125 4.73076923076923  9.75 4.73076923076923  C 10.4158653846154 4.73076923076923  11.0072115384615 4.85817307692308  11.5168269230769 5.11057692307693  C 12.0288461538462 5.36298076923077  12.4230769230769 5.70913461538462  12.7019230769231 6.14423076923077  C 12.9807692307692 6.57932692307693  13.1201923076923 7.05288461538462  13.1201923076923 7.56490384615385  Z " fill-rule="nonzero" fill="#999999" stroke="none" transform="matrix(1 0 0 1 320 15 )" />
  </g>
</svg>