<?xml version="1.0" encoding="utf-8"?>
<svg version="1.1" xmlns:xlink="http://www.w3.org/1999/xlink" width="20px" height="20px" xmlns="http://www.w3.org/2000/svg">
  <g transform="matrix(1 0 0 1 -215 -15 )">
    <path d="M 11 18.5510921710526  L 11.097641754386 18.5510921929825  C 11.097641754386 20.6694257894737  9.47291875 19.5758570614035  9.47291875 19.5758570614035  L 2.43708274122807 13.6563897368421  L 1.35047070175439 13.6563897368421  C 0.677287828947368 13.6563897368421  0.131973333333333 13.1011114692982  0.131973333333333 12.4159002631579  L 0.131973333333333 7.45472780701754  C 0.131973333333333 6.76949414473684  0.677310263157895 6.21435052631579  1.35047070175439 6.21435052631579  L 2.65022666666667 6.21435052631579  L 9.47291877192982 0.426409495614035  C 9.47291877192982 0.426409495614035  11.0977091008772 -0.676090723684211  11 1.4598814254386  L 11 18.5510921710526  Z M 14.7526850438596 13.2426688377193  C 16.7836561184211 11.5890867982456  16.6480680482456 8.45368559210526  14.7526850438596 7.04114153508772  C 14.0084093201754 6.59340019736842  13.5345242982456 8.07486032894737  13.5345242982456 8.07486032894737  C 13.5345242982456 8.07486032894737  15.4296828947368 10.4521397587719  13.5345242982456 12.2091969078947  C 13.1620273684211 12.6916094736842  13.87282125 13.6907916885965  14.7526850438596 13.2426688377193  Z M 15.768204254386 3.52718436403509  C 15.4975218201754 3.28576489035088  14.1777036622807 4.1817188377193  14.9559998464912 4.97399570175439  C 18.9834502850877 8.38501635964912  19.0509301535088 11.589109254386  14.9559998464912 15.1031786403509  C 14.346526754386 15.688954122807  15.1587311622807 16.79167875  15.768204254386 16.5501470614035  C 21.3522470394737 13.9660520614035  21.1156972368421 5.93875353070175  15.768204254386 3.52718436403509  Z " fill-rule="nonzero" fill="#999999" stroke="none" transform="matrix(1 0 0 1 215 15 )" />
  </g>
</svg>