<?xml version="1.0" encoding="utf-8"?>
<svg version="1.1" xmlns:xlink="http://www.w3.org/1999/xlink" width="15px" height="15px" xmlns="http://www.w3.org/2000/svg">
  <g transform="matrix(1 0 0 1 -23 -60 )">
    <path d="M 14.8777777777778 1.18888888888889  C 14.8777777777778 0.602222222222222  14.3977777777778 0.122222222222222  13.8111111111111 0.122222222222222  L 1.18888888888889 0.122222222222222  C 0.602222222222222 0.122222222222222  0.122222222222222 0.602222222222222  0.122222222222222 1.18888888888889  L 0.122222222222222 13.8111111111111  C 0.122222222222222 14.3977777777778  0.602222222222222 14.8777777777778  1.18888888888889 14.8777777777778  L 6.43333333333333 14.8777777777778  C 6.62977777777778 14.8777777777778  6.78888888888889 14.7186666666667  6.78888888888889 14.5222222222222  C 6.78888888888889 14.3257777777778  6.62977777777778 14.1666666666667  6.43333333333333 14.1666666666667  L 1.18888888888889 14.1666666666667  C 0.993333333333333 14.1666666666667  0.833333333333333 14.0066666666667  1 13.8111111111111  L 1 1.18888888888889  C 0.833333333333333 0.993333333333333  0.993333333333333 0.833333333333333  1.18888888888889 1  L 13.8111111111111 1  C 14.0066666666667 0.833333333333333  14.1666666666667 0.993333333333333  14.1666666666667 1.18888888888889  L 14.1666666666667 6.78888888888889  C 14.1666666666667 6.98533333333333  14.3257777777778 7.14444444444444  14.5222222222222 7.14444444444444  C 14.7186666666667 7.14444444444444  14.8777777777778 6.98533333333333  14.8777777777778 6.78888888888889  L 14.8777777777778 1.18888888888889  Z " fill-rule="nonzero" fill="#999999" stroke="none" transform="matrix(1 0 0 1 23 60 )" />
  </g>
</svg>