<?xml version="1.0" encoding="utf-8"?>
<svg version="1.1" xmlns:xlink="http://www.w3.org/1999/xlink" width="12px" height="12px" xmlns="http://www.w3.org/2000/svg">
  <g transform="matrix(1 0 0 1 -26 -63 )">
    <path d="M 11.7155310344828 6.03796363636364  L 10.7303724137931 5.06312727272727  C 10.5697103448276 4.90429090909091  10.3631448275862 4.824  10.1636413793103 4.824  C 9.98973793103448 4.824  9.82113103448276 4.88509090909091  9.69489655172414 5.01076363636364  L 5.10543448275862 9.54807272727273  C 4.99950344827586 9.6528  4.93417931034483 9.79243636363636  4.92005517241379 9.94603636363636  L 4.81942068965517 11.0203636363636  C 4.77704827586207 11.4724363636364  5.17075862068966 11.8843636363636  5.62273103448276 11.8843636363636  C 5.6448 11.8843636363636  5.66775172413793 11.8834909090909  5.69070344827586 11.8808727272727  L 6.77737931034483 11.7813818181818  C 6.93274482758621 11.7674181818182  7.07398620689655 11.7028363636364  7.17991724137931 11.5981090909091  L 11.7693793103448 7.0608  C 12.0403862068966 6.79287272727273  12.0165517241379 6.33469090909091  11.7155310344828 6.03796363636364  Z M 11.2512 6.58690909090909  L 6.69881379310345 11.0884363636364  L 5.62449655172414 11.1861818181818  C 5.60772413793103 11.1861818181818  5.57859310344827 11.1722181818182  5.55475862068965 11.1460363636364  C 5.53268965517241 11.1216  5.52386206896552 11.0971636363636  5.52474482758621 11.0840727272727  L 5.62361379310345 10.0245818181818  L 10.176 5.52392727272727  C 10.190124137931 5.52741818181818  10.2104275862069 5.53614545454546  10.2316137931034 5.55709090909091  L 11.2176551724138 6.53192727272727  C 11.239724137931 6.55374545454545  11.2485517241379 6.57381818181818  11.2512 6.58690909090909  Z M 0.0993103448275866 0.36  C 0.0993103448275866 0.552872727272727  0.257324137931035 0.709090909090909  0.452413793103448 0.709090909090909  L 9.0151724137931 0.709090909090909  C 9.21026206896552 0.709090909090909  9.36827586206897 0.552872727272727  9.36827586206897 0.36  C 9.36827586206897 0.167127272727273  9.21026206896552 0.0109090909090912  9.0151724137931 0.0109090909090912  L 0.452413793103448 0.0109090909090912  C 0.257324137931035 0.0109090909090912  0.0993103448275866 0.167127272727273  0.0993103448275866 0.36  Z M 0.0993103448275866 3.15272727272727  C 0.0993103448275866 3.3456  0.257324137931035 3.50181818181818  0.452413793103448 3.50181818181818  L 9.0151724137931 3.50181818181818  C 9.21026206896552 3.50181818181818  9.36827586206897 3.3456  9.36827586206897 3.15272727272727  C 9.36827586206897 2.95985454545455  9.21026206896552 2.80363636363636  9.0151724137931 2.80363636363636  L 0.452413793103448 2.80363636363636  C 0.257324137931035 2.80363636363636  0.0993103448275866 2.95985454545455  0.0993103448275866 3.15272727272727  Z " fill-rule="nonzero" fill="#999999" stroke="none" transform="matrix(1 0 0 1 26 63 )" />
  </g>
</svg>