<?xml version="1.0" encoding="utf-8"?>
<svg version="1.1" xmlns:xlink="http://www.w3.org/1999/xlink" width="19px" height="15px" xmlns="http://www.w3.org/2000/svg">
  <g transform="matrix(1 0 0 1 -13 -18 )">
    <path d="M 0.9071533203125 1.2488525390625  C 0.9071533203125 1.680322265625  1.25693359375 2.0301025390625  1.6884033203125 2  L 17.3164306640625 2  C 17.747900390625 2.0301025390625  18.0976806640625 1.680322265625  18.0976806640625 1.2488525390625  C 18.0976806640625 0.817382812499999  17.747900390625 0.467602539062499  17.3164306640625 0.467602539062499  L 1.6884033203125 0.467602539062499  C 1.25693359375 0.467602539062499  0.9071533203125 0.817382812499999  0.9071533203125 1.2488525390625  Z M 18.0976806640625 7.4797119140625  C 18.0976806640625 7.0482421875  17.747900390625 6.6984619140625  17.3164306640625 6.6984619140625  L 7.7068603515625 6.6984619140625  C 7.275390625 6.6984619140625  6.9256103515625 7.0482421875  6.9256103515625 7.4797119140625  C 6.9256103515625 7.911181640625  7.275390625 8.2609619140625  7.7068603515625 8.2609619140625  L 17.3164306640625 8.2609619140625  C 17.747900390625 8.2609619140625  18.0976806640625 7.911181640625  18.0976806640625 7.4797119140625  Z M 18.0976806640625 13.745166015625  C 18.0976806640625 13.3136962890625  17.747900390625 12.963916015625  17.3164306640625 13  L 1.6884033203125 13  C 1.25693359375 12.963916015625  0.9071533203125 13.3136962890625  0.9071533203125 13.745166015625  C 0.9071533203125 14.1766357421875  1.25693359375 14.526416015625  1.6884033203125 14.526416015625  L 17.3164306640625 14.526416015625  C 17.747900390625 14.526416015625  18.0976806640625 14.1766357421875  18.0976806640625 13.745166015625  Z M 4.78876953125 11.396337890625  L 4.78876953125 3.583837890625  L 0.882519531250001 7.490087890625  L 4.78876953125 11.396337890625  Z " fill-rule="nonzero" fill="#555555" stroke="none" transform="matrix(1 0 0 1 13 18 )" />
  </g>
</svg>