<?xml version="1.0" encoding="utf-8"?>
<svg version="1.1" xmlns:xlink="http://www.w3.org/1999/xlink" width="15px" height="18px" xmlns="http://www.w3.org/2000/svg">
  <g transform="matrix(1 0 0 1 -15 -61 )">
    <path d="M 14.8608870967742 9.79646017699115  C 14.8608870967742 8.74911504424779  14.0020161290323 7.90088495575221  12.9415322580645 7.90088495575221  L 3.88709677419355 7.90088495575221  L 3.88709677419355 5.06747787610619  C 3.88709677419355 3.17389380530974  5.44758064516129 1.63473451327434  7.36290322580645 1.63473451327434  L 7.52822580645162 1.63473451327434  C 9.44556451612904 1.63473451327434  11.0040322580645 3.17588495575221  11.0040322580645 5.06747787610619  C 11.0040322580645 5.50752212389381  11.3649193548387 5.86393805309735  11.8104838709677 5.86393805309735  C 12.2560483870968 5.86393805309735  12.616935483871 5.50752212389381  12.616935483871 5.06747787610619  C 12.616935483871 3.72544247787611  12.0866935483871 2.46305309734513  11.1270161290323 1.51327433628319  C 10.1653225806452 0.563495575221239  8.88709677419355 0.0418141592920353  7.52822580645162 0.0418141592920353  L 7.36290322580645 0.0418141592920353  C 6.00403225806452 0.0418141592920353  4.7258064516129 0.565486725663717  3.76411290322581 1.51327433628319  C 2.80241935483871 2.46305309734513  2.2741935483871 3.72544247787611  2.2741935483871 5.06747787610619  L 2.2741935483871 7.89889380530973  L 1.9758064516129 7.89889380530973  C 0.915322580645161 7.89889380530973  0.056451612903226 8.74712389380531  0.056451612903226 9.79446902654867  L 0.056451612903226 15.9690265486726  C 0.056451612903226 17.0163716814159  0.915322580645161 17.8646017699115  1.9758064516129 17.8646017699115  L 12.9415322580645 17.8646017699115  C 14.0020161290323 17.8646017699115  14.8608870967742 17.0163716814159  14.8608870967742 15.9690265486726  L 14.8608870967742 9.79646017699115  Z M 8.74798387096774 12.0404867256637  C 8.74798387096774 12.4845132743363  8.51612903225807 12.8747787610619  8.1633064516129 13.0977876106195  L 8.1633064516129 14.8519911504425  C 8.1633064516129 15.1765486725664  7.89717741935484 15.4393805309735  7.56854838709677 15.4393805309735  L 7.34677419354839 15.4393805309735  C 7.01814516129032 15.4393805309735  6.75201612903226 15.1765486725664  6.75201612903226 14.8519911504425  L 6.75201612903226 13.0778761061947  C 6.41733870967742 12.8508849557522  6.19959677419355 12.4705752212389  6.19959677419355 12.0404867256637  C 6.19959677419355 11.3455752212389  6.77016129032258 10.7820796460177  7.47379032258065 10.7820796460177  C 8.17741935483871 10.7820796460177  8.74798387096774 11.3455752212389  8.74798387096774 12.0404867256637  Z " fill-rule="nonzero" fill="#999999" stroke="none" transform="matrix(1 0 0 1 15 61 )" />
  </g>
</svg>