<?xml version="1.0" encoding="utf-8"?>
<svg version="1.1" xmlns:xlink="http://www.w3.org/1999/xlink" width="15px" height="17px" xmlns="http://www.w3.org/2000/svg">
  <g transform="matrix(1 0 0 1 -15 -103 )">
    <path d="M 6.60150329044118 1.29442305921053  C 6.60150329044118 0.660739577850877  7.13806185661765 0.147322615131579  7.79971207720588 0.147322615131579  C 8.46147516544118 0.147322615131579  8.99773275735294 0.660739577850877  8.99773275735294 1.29442305921053  L 8.99773275735294 7.67545420065789  C 8.99773275735294 8.30894693530702  8.46147516544118 8.8224592620614  7.79971207720588 8.8224592620614  C 7.13804303308824 8.8224592620614  6.60150329044118 8.30894693530702  6.60150329044118 7.67545420065789  L 6.60150329044118 1.29442305921053  Z M 7.5000940625 16.8526582971491  C 3.36448858455882 16.8526582971491  0.0118628492647065 13.6425052379386  0.0118628492647065 9.68282750986842  C 0.0118628492647065 6.63435233552631  2.00262604779412 4.03703402850877  4.80434060661765 2.99988065570175  L 4.80434060661765 5.55225877302632  C 3.36719733455882 6.41405763048246  2.40811113970588 7.93950645833333  2.40811113970588 9.68282750986842  C 2.40811113970588 12.37551975  4.68803358455882 14.5582475932018  7.50011288602941 14.5582475932018  C 10.3123990992647 14.5582475932018  12.5920205698529 12.3755197686404  12.5920205698529 9.68282750986842  C 12.5920205698529 8.19423115899123  11.893313125 6.86378386951754  10.7949519301471 5.96938620723684  L 10.7949519117647 3.25189674561404  C 13.2761496507353 4.4198459375  14.9881559742647 6.85689788157895  14.9881559742647 9.68303734429825  C 14.9883252757353 13.6425052379386  11.6356995220588 16.8526582971491  7.5000940625 16.8526582971491  Z " fill-rule="nonzero" fill="#999999" stroke="none" transform="matrix(1 0 0 1 15 103 )" />
  </g>
</svg>