<?xml version="1.0" encoding="utf-8"?>
<svg version="1.1" xmlns:xlink="http://www.w3.org/1999/xlink" width="16px" height="19px" xmlns="http://www.w3.org/2000/svg">
  <g transform="matrix(1 0 0 1 -23 -104 )">
    <path d="M 8.50508720930233 3.33857142857143  L 8.50508720930233 3.33642857142857  C 9.37718023255814 3.33642857142857  10.1991279069767 3.67071428571429  10.8161337209302 4.27714285714286  C 11.4331395348837 4.88357142857143  11.7754360465116 5.68928571428571  11.7754360465116 6.54857142857143  L 11.7797965116279 10.2214285714286  C 11.7797965116279 10.4592857142857  11.8364825581395 10.6971428571429  11.9454941860465 10.9114285714286  L 13.6351744186047 14.2285714285714  C 13.6460755813953 14.25  13.6787790697674 14.3142857142857  13.6286337209302 14.3957142857143  C 13.578488372093 14.4771428571429  13.5043604651163 14.4771428571429  13.4803779069767 14.4771428571429  L 10.9665697674419 14.4771428571429  L 8.8015988372093 14.4792857142857  L 6.19622093023256 14.4814285714286  L 4.79651162790698 14.4814285714286  L 1.53488372093023 14.4835714285714  L 1.53270348837209 14.4835714285714  C 1.50872093023256 14.4835714285714  1.43459302325581 14.4835714285714  1.3844476744186 14.4021428571429  C 1.3343023255814 14.3207142857143  1.36700581395349 14.2564285714286  1.37790697674419 14.235  L 3.06540697674419 10.9221428571429  C 3.17441860465116 10.7078571428571  3.23110465116279 10.4678571428571  3.23110465116279 10.23  L 3.22674418604651 6.55714285714286  C 3.22674418604651 5.69785714285714  3.56468023255814 4.89  4.18168604651163 4.28357142857143  C 4.79869186046512 3.675  5.62063953488372 3.34071428571429  6.49273255813953 3.34071428571429  L 8.50072674418605 3.33857142857143  L 8.50508720930233 3.33857142857143  Z M 13.0857558139535 6.54214285714286  C 13.0813953488372 4.06285714285714  11.031976744186 2.05071428571429  8.50508720930233 2.05071428571429  L 8.50072674418605 2.05071428571429  L 6.49273255813953 2.05285714285714  C 3.96366279069767 2.055  1.91642441860465 4.07142857142857  1.91860465116279 6.55714285714286  L 1.92296511627907 10.23  C 1.92296511627907 10.2707142857143  1.91424418604651 10.3092857142857  1.89462209302326 10.3457142857143  L 0.207122093023255 13.6585714285714  C -0.28561046511628 14.6271428571429  0.429505813953488 15.7671428571429  1.53270348837209 15.7671428571429  L 1.53488372093023 15.7671428571429  L 4.79869186046512 15.765  C 5.10392441860465 16.9521428571429  6.1984011627907 17.8307142857143  7.5 17.8307142857143  C 8.80377906976744 17.8307142857143  9.89825581395349 16.95  10.203488372093 15.7607142857143  L 9.73037790697674 15.7607142857143  L 10.203488372093 15.7607142857143  L 13.4825581395349 15.7585714285714  C 14.5835755813953 15.7585714285714  15.3008720930233 14.6164285714286  14.8081395348837 13.6478571428571  L 13.1184593023256 10.3307142857143  C 13.1010174418605 10.2942857142857  13.0901162790698 10.2557142857143  13.0901162790698 10.215  L 13.0857558139535 6.54214285714286  Z M 5.625 15.7671428571429  L 6.19622093023256 15.7671428571429  L 8.8015988372093 15.765  C 8.55523255813954 16.2257142857143  8.06468023255814 16.5407142857143  7.49781976744186 16.5407142857143  C 6.93313953488372 16.5407142857143  6.44258720930233 16.2257142857143  6.19622093023256 15.7671428571429  L 5.625 15.7671428571429  Z M 9.71293604651163 2.20928571428572  C 9.71293604651163 1.01785714285714  8.73183139534884 0.0514285714285719  7.51962209302326 0.0514285714285716  C 6.30959302325581 0.0514285714285716  5.32848837209302 1.01357142857143  5.32412790697674 2.20285714285714  C 5.69694767441861 2.10642857142857  6.08720930232558 2.055  6.49055232558139 2.05285714285714  L 6.62354651162791 2.05285714285714  C 6.71729651162791 1.665  7.07267441860465 1.37571428571429  7.49781976744186 1.37571428571429  C 7.92078488372093 1.37571428571429  8.27616279069768 1.665  8.37209302325581 2.05285714285714  L 8.50290697674419 2.05285714285714  C 8.92151162790698 2.05285714285714  9.32703488372093 2.10857142857143  9.71293604651163 2.21142857142857  L 9.71293604651163 2.20928571428572  Z " fill-rule="nonzero" fill="#999999" stroke="none" transform="matrix(1 0 0 1 23 104 )" />
  </g>
</svg>