<?xml version="1.0" encoding="utf-8"?>
<svg version="1.1" xmlns:xlink="http://www.w3.org/1999/xlink" width="28px" height="28px" xmlns="http://www.w3.org/2000/svg">
  <g transform="matrix(1 0 0 1 -17 -20 )">
    <path d="M 25.25 14  C 25.25 20.213193359375  20.213193359375 25.25  14 25.25  C 7.786806640625 25.25  2.75 20.213193359375  2.75 14  C 2.75 7.786806640625  7.786806640625 2.75  14 2.75  C 20.213193359375 2.75  25.25 7.786806640625  25.25 14  Z M 0.875 14  C 0.875 21.24875  6.75125 27.125  14 27.125  C 21.24875 27.125  27.125 21.24875  27.125 14  C 27.125 6.75125  21.24875 0.875  14 0.875  C 6.75125 0.875  0.875 6.75125  0.875 14  Z " fill-rule="nonzero" fill="#19be6b" stroke="none" transform="matrix(1 0 0 1 17 20 )" />
  </g>
</svg>