<?xml version="1.0" encoding="utf-8"?>
<svg version="1.1" xmlns:xlink="http://www.w3.org/1999/xlink" width="18px" height="12px" xmlns="http://www.w3.org/2000/svg">
  <g transform="matrix(1 0 0 1 -22 -29 )">
    <path d="M 17.485458984375 1.1704296875  L 16.49109375 0.176064453125001  C 16.4471395641701 0.132108002222576  16.3875235355175 0.107413334821175  16.325361328125 0.107413334821175  C 16.2631991207325 0.107413334821175  16.2035830920799 0.132108002222578  16.15962890625 0.176064453125001  L 7.041123046875 9.2945703125  L 1.86908203125 4.122529296875  C 1.82512784542008 4.07857284597258  1.7655118167675 4.05387817857117  1.703349609375 4.05387817857117  C 1.6411874019825 4.05387817857117  1.58157137332992 4.07857284597258  1.5376171875 4.122529296875  L 0.543251953125 5.11689453125  C 0.499295502222578 5.16084871707992  0.474600834821173 5.2204647457325  0.474600834821173 5.282626953125  C 0.474600834821173 5.3447891605175  0.499295502222576 5.40440518917008  0.543251953125 5.448359375  L 6.343740234375 11.24884765625  C 6.37224609375 11.277353515625  6.40212890625 11.3036328125  6.43318359375 11.32771484375  C 6.80150390625 11.645205078125  7.3580859375 11.629267578125  7.70748046875 11.27984375  L 17.485458984375 1.50189453125  C 17.5294154352774 1.45794034542007  17.5541101026788 1.3983243167675  17.5541101026788 1.336162109375  C 17.5541101026788 1.2739999019825  17.5294154352774 1.21438387332992  17.485458984375 1.1704296875  Z " fill-rule="nonzero" fill="#19be6b" stroke="none" transform="matrix(1 0 0 1 22 29 )" />
  </g>
</svg>