<?xml version="1.0" encoding="utf-8"?>
<svg version="1.1" xmlns:xlink="http://www.w3.org/1999/xlink" width="11px" height="11px" xmlns="http://www.w3.org/2000/svg">
  <g transform="matrix(1 0 0 1 -128 -18 )">
    <path d="M 3.72263157894737 1.36197368421053  C 4.26973684210526 1.13039473684211  4.85013157894737 1.01315789473684  5.44934210526316 1.01315789473684  C 6.04855263157895 1.01315789473684  6.62894736842105 1.13039473684211  7.17605263157895 1.36197368421053  C 7.70434210526316 1.58486842105263  8.17907894736842 1.90473684210526  8.58578947368421 2.31289473684211  C 8.99394736842105 2.72105263157895  9.31381578947368 3.19578947368421  9.53671052631579 3.72263157894737  C 9.76828947368421 4.26828947368421  9.88552631578948 4.85013157894737  9.88552631578948 5.44934210526316  C 9.88552631578948 6.04855263157895  9.76828947368421 6.62894736842105  9.53671052631579 7.17605263157895  C 9.31381578947368 7.70434210526316  8.99394736842105 8.17907894736842  8.58578947368421 8.58578947368421  C 8.17763157894737 8.99394736842105  7.70289473684211 9.31381578947368  7.17605263157895 9.53671052631579  C 6.63039473684211 9.76828947368421  6.04855263157895 9.88552631578948  5.44934210526316 9.88552631578948  C 4.85013157894737 9.88552631578948  4.26973684210526 9.76828947368421  3.72263157894737 9.53671052631579  C 3.19434210526316 9.31381578947368  2.7196052631579 8.99394736842105  2.31289473684211 8.58578947368421  C 1.90618421052632 8.17763157894737  1.58486842105263 7.70289473684211  1.36197368421053 7.17605263157895  C 1.13039473684211 6.62894736842105  1.01315789473684 6.04855263157895  1.01315789473684 5.44934210526316  C 1.01315789473684 4.85013157894737  1.13039473684211 4.26973684210526  1.36197368421053 3.72263157894737  C 1.58486842105263 3.19434210526316  1.90473684210526 2.71960526315789  2.31289473684211 2.31289473684211  C 2.72105263157895 1.90473684210526  3.19578947368421 1.58486842105263  3.72263157894737 1.36197368421053  Z M 10.8986842105263 5.44934210526316  C 10.8986842105263 2.44026315789474  8.45842105263158 0  5.44934210526316 0  C 2.44026315789474 0  0 2.44026315789474  0 5.44934210526316  C 0 8.45842105263158  2.44026315789474 10.8986842105263  5.44934210526316 10.8986842105263  C 8.45842105263158 10.8986842105263  10.8986842105263 8.45842105263158  10.8986842105263 5.44934210526316  Z " fill-rule="nonzero" fill="#aaaaaa" stroke="none" transform="matrix(1 0 0 1 128 18 )" />
  </g>
</svg>