<?xml version="1.0" encoding="utf-8"?>
<svg version="1.1" xmlns:xlink="http://www.w3.org/1999/xlink" width="25px" height="25px" xmlns="http://www.w3.org/2000/svg">
  <g transform="matrix(1 0 0 1 -222 -128 )">
    <path d="M 25 2.5  C 25 1.11928812542302  23.880711874577 0  22.5 0  L 2.5 0  C 1.11928812542302 0  0 1.11928812542302  0 2.5  L 0 22.5  C 0 23.880711874577  1.11928812542302 25  2.5 25  L 22.5 25  C 23.880711874577 25  25 23.880711874577  25 22.5  L 25 2.5  Z M 21.25 13.75  L 14.75 18.625  C 14.642249693789 18.7069652498997  14.5103793949086 18.7509220161932  14.375 18.75  C 14.1787347888048 18.7480804326927  13.9942947805629 18.6558604285718  13.875 18.5  C 13.7938611699158 18.3918148932211  13.75 18.2602313834737  13.75 18.125  C 13.75 17.9282766854168  13.8426213483335 17.7430339887499  14 17.625  L 17.5 15  L 6.875 15  C 6.52982203135575 15  6.25 14.7201779686442  6.25 14.375  C 6.25 14.0298220313558  6.52982203135575 13.75  6.875 13.75  L 21.25 13.75  Z M 20.625 11.25  L 3.75 11.25  L 10.25 6.375  C 10.3581851090996 6.29386116381245  10.4897686239125 6.24999999032141  10.6250000129048 6.24999999032141  C 10.970177981549 6.24999999032141  11.2500000129048 6.52982202167717  11.2500000129048 6.87499999032141  C 11.2500000129048 7.07172331058121  11.1573786592542 7.25696601190599  11 7.375  L 7.5 10  L 20.625 10  C 20.9701779686443 10  21.25 10.2798220313558  21.25 10.625  C 21.25 10.9701779686442  20.9701779686443 11.25  20.625 11.25  Z " fill-rule="nonzero" fill="#0099ff" stroke="none" transform="matrix(1 0 0 1 222 128 )" />
  </g>
</svg>