<?xml version="1.0" encoding="utf-8"?>
<svg version="1.1" xmlns:xlink="http://www.w3.org/1999/xlink" width="25px" height="25px" xmlns="http://www.w3.org/2000/svg">
  <g transform="matrix(1 0 0 1 -317 -128 )">
    <path d="M 3.2861328125 0.358723958333333  C 3.45491536458333 0.311686197916667  3.62923177083333 0.300618489583333  3.80078125 0.2646484375  L 21.0691731770833 0.2646484375  C 21.3513997395833 0.286783854166666  21.6363932291667 0.32275390625  21.9075520833333 0.4140625  C 22.56884765625 0.624348958333333  23.1443684895833 1.07259114583333  23.5262044270833 1.64811197916667  C 23.7918294270833 2.04378255208333  23.9661458333333 2.49755859375  24.0408528645833 2.96793619791667  C 24.0685221354167 3.1201171875  24.0657552083333 3.27783203125  24.0934244791667 3.43001302083333  L 24.0934244791667 13.1142578125  C 24.0546875 13.2083333333333  24.0546875 13.3079427083333  24.0491536458333 13.4075520833333  C 23.9274088541667 15.2032877604167  23.423828125 16.97412109375  22.5660807291667 18.5568033854167  C 21.7996419270833 19.97900390625  20.7509765625 21.2517903645833  19.4864908854167 22.26171875  C 18.2275390625 23.2716471354167  16.7527669270833 24.01318359375  15.1839192708333 24.4060872395833  C 13.22216796875 24.8986002604167  11.1248372395833 24.8404947916667  9.19352213541667 24.2345377604167  C 7.97607421875 23.8527018229167  6.822265625 23.2578125  5.80126953125 22.4913736979167  C 4.58658854166667 21.5865885416667  3.55729166666667 20.4383138020833  2.76595052083333 19.14892578125  C 1.70345052083333 17.4140625  1.07535807291667 15.41357421875  0.9453125 13.3854166666667  C 0.942545572916667 13.2941080729167  0.934244791666666 13.2027994791667  0.909342447916666 13.1170247395833  L 0.909342447916666 3.40511067708333  C 0.92041015625 3.29720052083333  0.931477864583333 3.19205729166667  0.939778645833333 3.08414713541667  C 1.00618489583333 2.51692708333333  1.22477213541667 1.96907552083333  1.56510416666667 1.51253255208333  C 1.98567708333333 0.9453125  2.59993489583333 0.524739583333333  3.2861328125 0.358723958333333  Z M 13.2138671875 3.61263020833333  C 12.0047200520833 3.46875  10.7540690104167 3.69563802083333  9.677734375 4.265625  C 8.30810546875 4.98225911458333  7.23177083333333 6.2412109375  6.74755859375 7.71044921875  C 6.54557291666667 8.2998046875  6.45426432291667 8.91959635416667  6.43212890625 9.53938802083333  C 6.43212890625 9.74137369791667  6.48470052083333 9.93782552083333  6.5400390625 10.1287434895833  C 6.70328776041667 10.64892578125  7.07405598958333 11.09716796875  7.54996744791667 11.3572591145833  C 8.19189453125 11.7169596354167  9.01920572916667 11.71142578125  9.65559895833334 11.3406575520833  C 10.0872395833333 11.0944010416667  10.4275716145833 10.6959635416667  10.6018880208333 10.2311197916667  C 10.6848958333333 9.9931640625  10.7457682291667 9.74690755208333  10.7457682291667 9.4951171875  C 10.7679036458333 9.10221354166666  10.9422200520833 8.72591145833333  11.205078125 8.43538411458333  C 11.470703125 8.14762369791666  11.8331705729167 7.95393880208333  12.2177734375 7.89029947916666  C 12.6023763020833 7.82942708333333  13.0091145833333 7.89583333333333  13.3494466145833 8.08675130208333  C 13.6731770833333 8.2666015625  13.93603515625 8.548828125  14.09375 8.88362630208333  C 14.2652994791667 9.24609375  14.3040364583333 9.66943359375  14.2071940104167 10.0568033854167  C 14.0965169270833 10.5078125  13.794921875 10.90625  13.396484375 11.1442057291667  C 13.1363932291667 11.2991536458333  12.8375651041667 11.3821614583333  12.5387369791667 11.3904622395833  C 11.9078776041667 11.3932291666667  11.2880859375 11.7003580729167  10.8951822916667 12.1956380208333  C 10.6018880208333 12.55810546875  10.4358723958333 13.0201822916667  10.4248046875 13.4850260416667  C 10.4192708333333 13.7672526041667  10.4248046875 14.05224609375  10.4220377604167 14.33447265625  C 10.4026692708333 14.7273763020833  10.4248046875 15.1202799479167  10.4220377604167 15.5104166666667  C 10.4275716145833 15.7373046875  10.4690755208333 15.96142578125  10.5437825520833 16.1744791666667  C 10.7706705729167 16.8357747395833  11.34619140625 17.3642578125  12.02685546875 17.5358072916667  C 12.4833984375 17.65478515625  12.9814453125 17.6188151041667  13.4158528645833 17.4334309895833  C 13.8889973958333 17.2342122395833  14.28466796875 16.8551432291667  14.5060221354167 16.39306640625  C 14.6775716145833 16.0472005208333  14.7384440104167 15.654296875  14.7190755208333 15.2696940104167  C 16.1302083333333 14.7190755208333  17.314453125 13.6178385416667  17.9646809895833 12.2509765625  C 18.4322916666667 11.2825520833333  18.6287434895833 10.1868489583333  18.5374348958333 9.11604817708333  C 18.4627278645833 8.21402994791666  18.1805013020833 7.32861328125  17.7184244791667 6.55110677083333  C 17.2618815104167 5.77913411458333  16.6310221354167 5.10953776041666  15.88671875 4.60595703125  C 15.0926106770833 4.06917317708333  14.16845703125 3.72330729166666  13.2138671875 3.61263020833333  Z M 13.5597330729167 18.1971028645833  C 13.2526041666667 17.9923502604167  12.8846028645833 17.8899739583333  12.5193684895833 17.8927408854167  C 12.1209309895833 17.8982747395833  11.7252604166667 18.0338541666667  11.41259765625 18.2801106770833  C 11.0777994791667 18.5402018229167  10.8343098958333 18.9192708333333  10.7430013020833 19.3343098958333  C 10.6544596354167 19.7189127604167  10.6959635416667 20.1339518229167  10.8564453125 20.49365234375  C 11.0003255208333 20.8201497395833  11.2438151041667 21.1023763020833  11.54541015625 21.2960611979167  C 11.9244791666667 21.5423177083333  12.3976236979167 21.63916015625  12.8430989583333 21.5672200520833  C 13.4656575520833 21.4703776041667  14.0218098958333 21.0304361979167  14.2569986979167 20.44384765625  C 14.42578125 20.0315755208333  14.4396158854167 19.5584309895833  14.29296875 19.1378580729167  C 14.1629231770833 18.7532552083333  13.9000651041667 18.4156901041667  13.5597330729167 18.1971028645833  Z M 11.1193033854167 5.0625  C 11.4983723958333 4.94905598958333  11.89404296875 4.88264973958333  12.29248046875 4.86328125  C 13.1640625 4.82731119791667  14.0439453125 5.029296875  14.8048502604167 5.45540364583333  C 15.54638671875 5.86767578125  16.1744791666667 6.47916666666667  16.6061197916667 7.20686848958333  C 17.1207682291667 8.07014973958333  17.3448893229167 9.10221354166667  17.2425130208333 10.1038411458333  C 17.1595052083333 10.9671223958333  16.8302408854167 11.8055013020833  16.3072916666667 12.4972330729167  C 15.7179361979167 13.2775065104167  14.8878580729167 13.8779296875  13.95263671875 14.1712239583333  C 13.7146809895833 14.2154947916667  13.5071614583333 14.3981119791667  13.4462890625 14.63330078125  C 13.40478515625 14.7633463541667  13.4269205729167 14.9016927083333  13.4241536458333 15.0345052083333  C 13.42138671875 15.22265625  13.4462890625 15.41357421875  13.4158528645833 15.6017252604167  C 13.3688151041667 15.8894856770833  13.1612955729167 16.14404296875  12.8929036458333 16.251953125  C 12.5968424479167 16.37646484375  12.234375 16.3128255208333  11.9991861979167 16.09423828125  C 11.8165690104167 15.9309895833333  11.7086588541667 15.6875  11.71142578125 15.4412434895833  C 11.7169596354167 15.1617838541667  11.69482421875 14.88232421875  11.7141927083333 14.6056315104167  C 11.71142578125 14.25146484375  11.71142578125 13.8972981770833  11.71142578125 13.5431315104167  C 11.71142578125 13.28857421875  11.8304036458333 13.0367838541667  12.0296223958333 12.8763020833333  C 12.1707356770833 12.7600911458333  12.3505859375 12.6881510416667  12.5359700520833 12.6826171875  C 13.32177734375 12.6715494791667  14.10205078125 12.3505859375  14.6554361979167 11.7916666666667  C 15.2724609375 11.1884765625  15.6044921875 10.30859375  15.54638671875 9.44807942708333  C 15.5021158854167 8.60139973958333  15.0787760416667 7.78238932291667  14.4147135416667 7.25390625  C 13.70361328125 6.67008463541667  12.7185872395833 6.44873046875  11.8221028645833 6.65348307291666  C 10.9698893229167 6.84163411458333  10.21728515625 7.419921875  9.80777994791668 8.18912760416666  C 9.57535807291668 8.615234375  9.46191406250001 9.10221354166666  9.43977864583334 9.58365885416666  C 9.40104166666667 9.96272786458333  9.07177734375001 10.2864583333333  8.69270833333334 10.3251953125  C 8.30257161458334 10.3805338541667  7.90136718750001 10.1259765625  7.77962239583334 9.75244140625  C 7.72705078125001 9.61962890625  7.73811848958334 9.47298177083333  7.74088541666667 9.33463541666666  C 7.78238932291668 8.6484375  7.97607421875001 7.97054036458333  8.30257161458334 7.36458333333333  C 8.89192708333334 6.26888020833333  9.92675781250001 5.41943359375  11.1193033854167 5.0625  Z M 11.9908854166667 19.6746419270833  C 12.0185546875 19.4283854166667  12.2288411458333 19.21533203125  12.47509765625 19.1876627604167  C 12.62451171875 19.1682942708333  12.7794596354167 19.2125651041667  12.8956705729167 19.3094075520833  C 13.0533854166667 19.4366861979167  13.1363932291667 19.6552734375  13.0921223958333 19.8544921875  C 13.0589192708333 20.0205078125  12.9427083333333 20.169921875  12.79052734375 20.24462890625  C 12.62451171875 20.32763671875  12.4169921875 20.3193359375  12.25927734375 20.2197265625  C 12.0738932291667 20.11181640625  11.9632161458333 19.8876953125  11.9908854166667 19.6746419270833  Z " fill-rule="nonzero" fill="#0099ff" stroke="none" transform="matrix(1 0 0 1 317 128 )" />
  </g>
</svg>