<?xml version="1.0" encoding="utf-8"?>
<svg version="1.1" xmlns:xlink="http://www.w3.org/1999/xlink" width="25px" height="25px" xmlns="http://www.w3.org/2000/svg">
  <g transform="matrix(1 0 0 1 -127 -128 )">
    <path d="M 0 12.5  C 0 5.59635417480469  5.59635417480469 0  12.5 0  C 19.4036458251953 0  25 5.59635417480469  25 12.5  C 25 19.4036458251953  19.4036458251953 25  12.5 25  C 5.59635417480469 25  0 19.4036458251953  0 12.5  Z M 23.4375 12.5  C 23.4375 6.459375  18.540625 1.5625  12.5 1.5625  C 6.459375 1.5625  1.5625 6.459375  1.5625 12.5  C 1.5625 18.540625  6.459375 23.4375  12.5 23.4375  C 18.540625 23.4375  23.4375 18.540625  23.4375 12.5  Z " fill-rule="nonzero" fill="#0099ff" stroke="none" transform="matrix(1 0 0 1 127 128 )" />
  </g>
</svg>