<?xml version="1.0" encoding="utf-8"?>
<svg version="1.1" xmlns:xlink="http://www.w3.org/1999/xlink" width="18px" height="10px" xmlns="http://www.w3.org/2000/svg">
  <g transform="matrix(1 0 0 1 -131 -136 )">
    <path d="M 1.34375000830078 4.49404762695313  L 7.18749999169922 4.49404762695313  C 7.62744770282959 4.49425517804468  7.98398025872485 4.83397823374197  7.98398025872485 5.25297610527148  C 7.98398025872485 5.64375527700829  7.67240334587353 5.97065471392064  7.26399999169922 6.00836308733259  L 7.18749999169922 6.01190476981027  L 1.34375000830078 6.01190476981027  C 0.903802197308932 6.01169735304469  0.547269485716548 5.67197425794054  0.547269485716548 5.25297629137139  C 0.547269485716548 4.86219702596837  0.858846543478626 4.53529754284129  1.26725000830078 4.49758928571428  L 1.34375000830078 4.49404762695313  Z M 1.34375000830078 8.03571428571429  L 6.12500000830078 8.03571428571429  C 6.56494781929264 8.03592170247985  6.92148053088503 8.37564479758401  6.92148053088503 8.79464276415317  C 6.92148053088503 9.18542202955619  6.60990347312294 9.51232151268327  6.20150000830078 9.55002976981027  L 6.12500000830078 9.55357142857143  L 1.34375000830078 9.55357142857143  C 0.903802197308925 9.55336401180586  0.547269485716535 9.2136409167017  0.547269485716535 8.79464295013255  C 0.547269485716535 8.40386368472952  0.858846543478621 8.07696420160245  1.26725000830078 8.03925594447544  L 1.34375000830078 8.03571428571429  Z M 12.2890937416992 3.25800594447544  L 11.39765625 4.97824405552455  L 9.40546875 5.25398808733259  L 9.34490625 5.265625  C 9.11248918195262 5.3247822889005  8.95082251831757 5.52530354827105  8.95082251831757 5.7544219133376  C 8.95082251831757 5.89080605607607  9.00863591756915 6.02141413982475  9.11115624169922 6.11663691266741  L 10.5524375083008 7.45538691266741  L 10.2124374916992 9.34613094447545  L 10.20553125 9.40178571428571  C 10.2049127020017 9.41173906323696  10.2046032252717 9.42170765119119  10.2046032252717 9.43167841777649  C 10.2046032252717 9.71110819755098  10.4424519482077 9.93763079082336  10.7358532169709 9.93763079082336  C 10.8220682777143 9.93763079082336  10.9069879925842 9.91764705235238  10.98328125 9.87940476981027  L 12.7656249916992 8.98690476981027  L 14.5479687583008 9.87940476981027  L 14.6016249916992 9.90267857142857  C 14.6633030608609 9.92565974608362  14.7289494060123 9.9374543624669  14.7951797040553 9.9374543624669  C 15.0885809728185 9.9374543624669  15.3264296957546 9.71093176919452  15.3264296957546 9.43150198942003  C 15.3264296957546 9.40289104544696  15.3238814935058 9.37433165710383  15.3188124916992 9.34613094447544  L 14.9782812583008 7.45538691266741  L 16.4206250083008 6.11663691266741  L 16.4620625083008 6.07363094447544  C 16.5389656317208 5.98345546969187  16.5809426341246 5.870822371369  16.5809426341246 5.75465064255331  C 16.5809426341246 5.50340751551036  16.3873596544386 5.29022378222467  16.1263125 5.25398808733258  L 14.1330624916992 4.97824405552455  L 13.2421562416992 3.25800594447544  C 13.1527199870136 3.08515788629998  12.9679554914188 2.97569995868781  12.7656249916992 2.97569995868781  C 12.5632944919797 2.97569995868781  12.3785299963849 3.08515788629998  12.2890937416992 3.25800594447544  Z M 12.7656249916992 4.62508928571428  L 13.3043124916992 5.66431548409598  L 13.3361874916992 5.71845237304687  C 13.4197963951778 5.83941994224292  13.5538266175021 5.92046618688926  13.7043437416992 5.94107142857143  L 14.9076249916992 6.10752976981027  L 14.0363750083008 6.91705357142857  L 13.9933437583008 6.96258928571429  C 13.8982216733902 7.07543147379327  13.8583854200232 7.2216634820998  13.88390625 7.36431548409598  L 14.0895 8.50625  L 13.0126562416992 7.96741071428571  L 12.9536874916992 7.94211308733258  C 12.8113779671815 7.8907281483498  12.6527623152347 7.89993928101744  12.5180625 7.96741071428571  L 11.4412187416992 8.50625  L 11.6473437583008 7.36431548409598  L 11.65425 7.30309523018973  C 11.6616540220282 7.15846207825592  11.6036335004813 7.0177392952441  11.494875 6.91654762695312  L 10.62309375 6.10752976981027  L 11.8269062416992 5.94107142857143  C 11.9999475018654 5.91713955052724  12.1495426141522 5.8136442946195  12.2269374916992 5.66431548409598  L 12.7656249916992 4.62559523018973  Z M 1.34375000830078 0.699404769810269  L 15.39796875 0.699404769810269  C 15.8382062793522 0.699404758819355  16.1949793693308 1.03918865403706  16.1949793693308 1.45833333024793  C 16.1949793693308 1.84911217600799  15.883402960797 2.17601145208382  15.4749999916992 2.21372023018973  L 15.39796875 2.21726191266741  L 1.34375000830078 2.21726191266741  C 0.903802197308929 2.21705449590184  0.547269485716548 1.87733140079768  0.547269485716548 1.45833343422853  C 0.547269485716548 1.06755416882551  0.858846543478626 0.740654685698435  1.26725000830078 0.702946428571429  L 1.34375000830078 0.699404769810269  Z " fill-rule="nonzero" fill="#ffffff" stroke="none" transform="matrix(1 0 0 1 131 136 )" />
  </g>
</svg>