<?xml version="1.0" encoding="utf-8"?>
<svg version="1.1" xmlns:xlink="http://www.w3.org/1999/xlink" width="28px" height="24px" xmlns="http://www.w3.org/2000/svg">
  <g transform="matrix(1 0 0 1 -31 -129 )">
    <path d="M 27.7340000098438 18.3000000100446  C 27.9230000098438 17.5928571428571  27.9230000098438 16.6928571629464  27.7340000098438 16.05  C 27.608 15.6642857142857  27.2930000196875 15.3428571328125  26.852 15.2142857243304  C 26.0330000098438 15.0214285814732  25.718 14.5071428571429  25.9699999901563 13.6714285814732  C 26.096 13.2857142957589  26.0329999803125 12.8357143058036  25.718 12.5142857243304  C 25.2139999901563 12  24.5210000098438 11.5500000100446  23.828 11.4214285714286  C 23.45 11.2928571328125  23.0090000098438 11.4857142756696  22.694 11.7428571529018  C 22.127 12.3857142857143  21.4970000098438 12.3857142857143  20.9300000098438 11.7428571529018  C 20.6780000196875 11.4214285714286  20.237 11.2928571629464  19.7960000098438 11.4214285714286  C 19.103 11.6142857142857  18.4100000196875 12  17.9060000098438 12.5142857243304  C 17.591 12.8357143058036  17.5280000098438 13.2857142957589  17.6539999901563 13.6714285814732  C 17.9059999803125 14.5071428571429  17.6539999901563 15.0214285814732  16.7720000098438 15.2142857243304  C 16.3940000098438 15.2785714285714  16.0160000098438 15.6000000100446  15.89 16.05  C 15.701 16.7571428671875  15.701 17.5928571428571  15.89 18.3000000100446  C 16.0160000098438 18.6857142957589  16.3309999901563 19.0071428772321  16.7720000098438 19.1357142857143  C 17.591 19.3285714285714  17.9060000098438 19.8428571529018  17.6539999901563 20.6785714285714  C 17.5279999803125 21.0642857142857  17.591 21.5142857042411  17.9060000098438 21.8357142857143  C 18.4100000196875 22.3500000100446  19.103 22.8  19.7960000098438 22.9285714386161  C 20.1740000098438 23.0571428772321  20.615 22.864285734375  20.9300000098438 22.6071428571429  C 21.4970000098438 21.9642857243304  22.127 21.9642857243304  22.694 22.6071428571429  C 22.9459999901563 22.9285714386161  23.3870000098438 23.0571428470982  23.828 22.9285714386161  C 24.5210000098438 22.7357142957589  25.2139999901563 22.3500000100446  25.718 21.8357142857143  C 26.0330000098438 21.5142857042411  26.096 21.0642857142857  25.9699999901563 20.6785714285714  C 25.718 19.8428571529018  25.9699999901563 19.3285714285714  26.852 19.1357142857143  C 27.2929999901562 19.0714285814732  27.608 18.75  27.7340000098438 18.3000000100446  Z M 24.4579999901563 17.1428571529018  C 24.4579999901563 18.6214285915179  23.3239999901563 19.8428571529018  21.8750000098438 19.8428571529018  C 20.426 19.8428571529018  19.292 18.6214285915179  19.292 17.1428571529018  C 19.292 15.6642857142857  20.4889999901562 14.4428571529018  21.8750000098438 14.4428571529018  C 23.2610000295313 14.4428571529018  24.4580000196875 15.6642857142857  24.4579999901563 17.1428571529018  Z M 16.646 11.2285714285714  C 17.402 10.3928571529018  18.4099999901563 9.74999998995536  19.4180000098438 9.49285714285714  C 19.67 9.42857143861607  19.9220000196875 9.42857143861607  20.1740000098438 9.42857143861607  C 20.6780000196875 9.42857143861607  21.1190000098438 9.55714287723214  21.56 9.81428572433036  L 21.56 2.35714285714286  C 21.56 1.64999998995536  20.993 1.07142856138393  20.2999999901563 1  L 1.39999999015625 1  C 0.7069999803125 1.07142856138393  0.1399999803125 1.64999998995536  0.14000000984375 2.35714285714286  L 0.14000000984375 21.8999999899554  C 0.14000000984375 22.8  1.2110000196875 23.2499999899554  1.84100000984375 22.6714285613839  L 5.93599999015625 19.0714285814732  L 14.378 19.0714285814732  C 14.3150000098437 19.0071428772321  14.3150000098437 18.8785714386161  14.2519999901562 18.8142857042411  C 13.9369999803125 17.7857142857143  13.9369999803125 16.5642856941964  14.2519999901562 15.5357142756696  C 14.5039999803125 14.7  15.0709999803125 13.9928571328125  15.8270000098438 13.6071428470982  C 15.7640000196875 12.7071428370536  16.079 11.8714285613839  16.646 11.2285714285714  Z M 11.4800000098438 16.8214285714286  C 11.4800000098438 17.3357142957589  11.0390000196875 17.7857142857143  10.5350000098438 17.7857142857143  C 10.031 17.7857142857143  9.59000000984375 17.3357142957589  9.59000000984375 16.8214285714286  C 9.59000000984375 16.3071428470982  10.031 15.8571428571429  10.5350000098438 15.8571428571429  C 11.0390000196875 15.8571428571429  11.4800000098438 16.3071428470982  11.4800000098438 16.8214285714286  Z M 15.2600000098438 8.07857143861607  C 15.2600000098438 10.3928571529018  13.622 12.2571428772321  11.4800000098438 12.5785714285714  L 11.4800000098438 13.6071428470982  C 11.4800000098438 14.1214285714286  11.0390000196875 14.5714285613839  10.5350000098438 14.5714285613839  C 10.031 14.5714285613839  9.59000000984375 14.1214285714286  9.59000000984375 13.6071428470982  L 9.59000000984375 11.6785714185268  C 9.59000000984375 11.1642856941964  10.031 10.7142857042411  10.5350000098438 10.7142857042411  L 10.8499999901563 10.7142857042411  C 12.4249999803125 10.7142857042411  13.6849999901562 9.235714265625  13.3069999901562 7.56428571428572  C 13.1179999901563 6.66428570424107  12.3619999901562 5.8928571328125  11.4800000098438 5.69999998995536  C 10.0940000196875 5.37857140848214  8.83400000984375 6.21428571428572  8.45600000984375 7.50000001004464  C 8.33 7.88571429575893  7.952 8.14285714285714  7.51100000984375 8.14285714285714  C 6.8810000196875 8.14285714285714  6.44 7.56428571428572  6.56600000984375 6.92142858147322  C 7.0700000196875 4.99285715290179  8.83400000984375 3.57857144866072  10.9130000098437 3.64285715290179  C 13.244 3.70714285714286  15.1970000196875 5.70000002008929  15.2600000098438 8.07857143861607  Z " fill-rule="nonzero" fill="#409eff" stroke="none" transform="matrix(1 0 0 1 31 129 )" />
  </g>
</svg>