<?xml version="1.0" encoding="utf-8"?>
<svg version="1.1" xmlns:xlink="http://www.w3.org/1999/xlink" width="10px" height="8px" xmlns="http://www.w3.org/2000/svg">
  <g transform="matrix(1 0 0 1 -22 -21 )">
    <path d="M 3.5 6.04857142857143  L 8.6464466 0.167367554285714  C 8.84170875 -0.055789182857143  9.15829125 -0.055789182857143  9.3535534 0.167367554285714  C 9.53379535 0.373358388571428  9.54766015 0.697490422857143  9.3951477 0.921656822857143  L 9.3535534 0.975489588571429  L 3.85355339 7.26120388571429  C 3.67331141 7.46719468571429  3.38969588 7.48304017142857  3.19355028 7.30874022857143  L 3.14644661 7.26120388571429  L 0.64644661 4.40406102857143  C 0.451184465 4.18090428571429  0.451184465 3.81909571428571  0.64644661 3.59593897142857  C 0.82668859 3.38994817142857  1.11030412 3.37410268571429  1.30644972 3.54840262857143  L 1.35355339 3.59593897142857  L 3.5 6.04857142857143  Z " fill-rule="nonzero" fill="#ffffff" stroke="none" transform="matrix(1 0 0 1 22 21 )" />
  </g>
</svg>