<?xml version="1.0" encoding="utf-8"?>
<svg version="1.1" xmlns:xlink="http://www.w3.org/1999/xlink" width="10px" height="14px" xmlns="http://www.w3.org/2000/svg">
  <g transform="matrix(1 0 0 1 -16 -12 )">
    <path d="M 9.67013888888889 6.384765625  C 9.89004629629629 6.55794270833334  10 6.76302083333334  10 7  C 10 7.23697916666667  9.89004629629629 7.44205729166667  9.67013888888889 7.615234375  L 1.89236111111112 13.740234375  C 1.67245370370371 13.9134114583333  1.41203703703705 14  1.11111111111112 14  C 0.81018518518519 14  0.549768518518521 13.9134114583333  0.329861111111116 13.740234375  C 0.109953703703711 13.5670572916667  0 13.3619791666667  0 13.125  L 0 0.875  C 0 0.638020833333332  0.109953703703711 0.432942708333332  0.329861111111116 0.259765625  C 0.549768518518521 0.0865885416666679  0.81018518518519 0  1.11111111111112 0  C 1.41203703703705 0  1.67245370370371 0.0865885416666679  1.89236111111112 0.259765625  L 9.67013888888889 6.384765625  Z " fill-rule="nonzero" fill="#000000" stroke="none" transform="matrix(1 0 0 1 16 12 )" />
  </g>
</svg>