<?xml version="1.0" encoding="utf-8"?>
<svg version="1.1" xmlns:xlink="http://www.w3.org/1999/xlink" width="15px" height="15px" viewBox="1057 327  15 15" xmlns="http://www.w3.org/2000/svg">
  <path d="M 1064.5 327  C 1068.7 327  1072 330.3  1072 334.5  C 1072 338.7  1068.7 342  1064.5 342  C 1060.3 342  1057 338.7  1057 334.5  C 1057 330.3  1060.3 327  1064.5 327  Z " fill-rule="nonzero" fill="#ffffff" stroke="none" />
  <path d="M 1064.5 327.5  C 1068.42 327.5  1071.5 330.58  1071.5 334.5  C 1071.5 338.42  1068.42 341.5  1064.5 341.5  C 1060.58 341.5  1057.5 338.42  1057.5 334.5  C 1057.5 330.58  1060.58 327.5  1064.5 327.5  Z " stroke-width="1" stroke="#4284f5" fill="none" />
  <path d="M 1064.5 338.25  C 1062.4 338.25  1060.75 336.6  1060.75 334.5  C 1060.75 332.4  1062.4 330.75  1064.5 330.75  C 1066.6 330.75  1068.25 332.4  1068.25 334.5  C 1068.25 336.6  1066.6 338.25  1064.5 338.25  " fill-rule="nonzero" fill="#4284f5" stroke="none" />
</svg>