<?xml version="1.0" encoding="utf-8"?>
<svg version="1.1" xmlns:xlink="http://www.w3.org/1999/xlink" width="15px" height="15px" viewBox="1177 327  15 15" xmlns="http://www.w3.org/2000/svg">
  <path d="M 1184.5 327  C 1188.7 327  1192 330.3  1192 334.5  C 1192 338.7  1188.7 342  1184.5 342  C 1180.3 342  1177 338.7  1177 334.5  C 1177 330.3  1180.3 327  1184.5 327  Z " fill-rule="nonzero" fill="#ffffff" stroke="none" />
  <path d="M 1184.5 327.5  C 1188.42 327.5  1191.5 330.58  1191.5 334.5  C 1191.5 338.42  1188.42 341.5  1184.5 341.5  C 1180.58 341.5  1177.5 338.42  1177.5 334.5  C 1177.5 330.58  1180.58 327.5  1184.5 327.5  Z " stroke-width="1" stroke="#4284f5" fill="none" />
  <path d="M 1184.5 338.25  C 1182.4 338.25  1180.75 336.6  1180.75 334.5  C 1180.75 332.4  1182.4 330.75  1184.5 330.75  C 1186.6 330.75  1188.25 332.4  1188.25 334.5  C 1188.25 336.6  1186.6 338.25  1184.5 338.25  " fill-rule="nonzero" fill="#4284f5" stroke="none" />
</svg>