<?xml version="1.0" encoding="utf-8"?>
<svg version="1.1" xmlns:xlink="http://www.w3.org/1999/xlink" width="25px" height="25px" xmlns="http://www.w3.org/2000/svg">
  <g transform="matrix(1 0 0 1 -310 -13 )">
    <path d="M 3.78053097345133 0.205263157894733  L 21.1964601769912 0.205263157894737  C 21.6873156342183 0.205263157894737  22.1498525073746 0.317543859649123  22.5840707964602 0.542105263157895  C 23.0182890855457 0.766666666666666  23.4005899705015 1.05204678362573  23.7309734513274 1.39824561403509  C 24.0613569321534 1.74444444444444  24.3256637168142 2.1374269005848  24.5238938053097 2.57719298245614  C 24.7221238938053 3.01695906432749  24.8212389380531 3.44269005847953  24.8212389380531 3.85438596491228  L 24.8212389380531 21.2859649122807  C 24.8212389380531 21.7163742690058  24.7174041297935 22.1421052631579  24.5097345132743 22.5631578947368  C 24.3020648967552 22.9842105263158  24.023598820059 23.3631578947368  23.6743362831858 23.7  C 23.3250737463127 24.0368421052632  22.9286135693215 24.312865497076  22.4849557522124 24.5280701754386  C 22.0412979351032 24.7432748538012  21.5929203539823 24.8508771929825  21.1398230088496 24.8508771929825  L 3.41238938053098 24.8508771929825  C 2.99705014749263 24.8508771929825  2.58643067846608 24.7526315789474  2.18053097345133 24.5561403508772  C 1.77463126843658 24.359649122807  1.41120943952803 24.1023391812865  1.09026548672567 23.7842105263158  C 0.769321533923306 23.466081871345  0.509734513274338 23.0918128654971  0.311504424778763 22.6614035087719  C 0.113274336283188 22.2309941520468  0.0141592920354006 21.772514619883  0 21.2859649122807  L 0 3.91052631578947  C 0.0141592920354002 3.44269005847953  0.113274336283188 2.98421052631579  0.311504424778763 2.53508771929824  C 0.509734513274338 2.0859649122807  0.783480825958704 1.68830409356725  1.13274336283186 1.34210526315789  C 1.48200589970502 0.995906432748534  1.88318584070797 0.719883040935668  2.33628318584071 0.514035087719294  C 2.78938053097345 0.30818713450292  3.27079646017699 0.205263157894733  3.78053097345133 0.205263157894733  Z " fill-rule="nonzero" fill="#7f7f7f" stroke="none" transform="matrix(1 0 0 1 310 13 )" />
  </g>
</svg>