<?xml version="1.0" encoding="utf-8"?>
<svg version="1.1" xmlns:xlink="http://www.w3.org/1999/xlink" width="25px" height="25px" xmlns="http://www.w3.org/2000/svg">
  <g transform="matrix(1 0 0 1 -375 -13 )">
    <path d="M 1.68678362573099 0.0259909031838864  L 9.99056530214425 0.0259909031838864  C 10.4518865063894 0.0259909031838864  10.8466709984839 0.19011479315573  11.1749187784275 0.518362573099416  C 11.5031665583712 0.846610353043102  11.6672904483431 1.24139484513754  11.6672904483431 1.70271604938272  L 11.6672904483431 10.006497725796  C 11.6672904483431 10.4678189300412  11.5031665583712 10.8626034221356  11.1749187784275 11.1908512020793  C 10.8466709984839 11.519098982023  10.4518865063894 11.6832228719948  9.99056530214425 11.6832228719948  L 1.68678362573099 11.6832228719948  C 1.22546242148581 11.6832228719948  0.83067792939138 11.519098982023  0.502430149447693 11.1908512020793  C 0.174182369504007 10.8626034221356  0.0100584795321638 10.4678189300412  0.0100584795321638 10.006497725796  L 0.0100584795321638 1.70271604938272  C 0.0100584795321638 1.24139484513754  0.174182369504007 0.846610353043103  0.502430149447693 0.518362573099416  C 0.83067792939138 0.19011479315573  1.22546242148581 0.0259909031838864  1.68678362573099 0.0259909031838864  Z M 14.9941260558804 0.0259909031838864  L 23.324522417154 0.0259909031838864  C 23.7858436213992 0.0259909031838864  24.1761923326836 0.19011479315573  24.4955685510071 0.518362573099416  C 24.8149447693307 0.846610353043102  24.9746328784925 1.24139484513754  24.9746328784925 1.70271604938272  L 24.9746328784925 10.006497725796  C 24.9746328784925 10.4678189300412  24.8149447693307 10.8626034221356  24.4955685510071 11.1908512020793  C 24.1761923326836 11.519098982023  23.7858436213992 11.6832228719948  23.324522417154 11.6832228719948  L 14.9941260558804 11.6832228719948  C 14.5328048516353 11.6832228719948  14.1380203595408 11.519098982023  13.8097725795971 11.1908512020793  C 13.4815247996535 10.8626034221356  13.3174009096816 10.4678189300412  13.3174009096816 10.006497725796  L 13.3174009096816 1.70271604938272  C 13.3174009096816 1.24139484513754  13.4815247996535 0.846610353043103  13.8097725795971 0.518362573099416  C 14.1380203595408 0.19011479315573  14.5328048516353 0.0259909031838864  14.9941260558804 0.0259909031838864  Z M 1.68678362573099 13.3333333333333  L 9.99056530214425 13.3333333333333  C 10.4518865063894 13.3333333333333  10.8466709984839 13.4974572233052  11.1749187784275 13.8257050032489  C 11.5031665583712 14.1539527831925  11.6672904483431 14.548737275287  11.6672904483431 15.0100584795322  L 11.6672904483431 23.3404548408057  C 11.6672904483431 23.8017760450509  11.5031665583712 24.1921247563353  11.1749187784275 24.5115009746589  C 10.8466709984839 24.8308771929825  10.4518865063894 24.9905653021442  9.99056530214425 24.9905653021442  L 1.68678362573099 24.9905653021442  C 1.22546242148581 24.9905653021442  0.83067792939138 24.8308771929825  0.502430149447693 24.5115009746589  C 0.174182369504007 24.1921247563353  0.0100584795321638 23.8017760450509  0.0100584795321638 23.3404548408057  L 0.0100584795321638 15.0100584795322  C 0.0100584795321638 14.548737275287  0.174182369504007 14.1539527831925  0.502430149447693 13.8257050032489  C 0.83067792939138 13.4974572233052  1.22546242148581 13.3333333333333  1.68678362573099 13.3333333333333  Z M 14.9941260558804 13.3333333333333  L 23.324522417154 13.3333333333333  C 23.7858436213992 13.3333333333333  24.1761923326836 13.4974572233052  24.4955685510071 13.8257050032489  C 24.8149447693307 14.1539527831925  24.9746328784925 14.548737275287  24.9746328784925 15.0100584795322  L 24.9746328784925 23.3404548408057  C 24.9746328784925 23.8017760450509  24.8149447693307 24.1921247563353  24.4955685510071 24.5115009746589  C 24.1761923326836 24.8308771929825  23.7858436213992 24.9905653021442  23.324522417154 24.9905653021442  L 14.9941260558804 24.9905653021442  C 14.5328048516353 24.9905653021442  14.1380203595408 24.8308771929825  13.8097725795971 24.5115009746589  C 13.4815247996535 24.1921247563353  13.3174009096816 23.8017760450509  13.3174009096816 23.3404548408057  L 13.3174009096816 15.0100584795322  C 13.3174009096816 14.548737275287  13.4815247996535 14.1539527831925  13.8097725795971 13.8257050032489  C 14.1380203595408 13.4974572233052  14.5328048516353 13.3333333333333  14.9941260558804 13.3333333333333  Z " fill-rule="nonzero" fill="#007cfd" stroke="none" transform="matrix(1 0 0 1 375 13 )" />
  </g>
</svg>