<?xml version="1.0" encoding="utf-8"?>
<svg version="1.1" xmlns:xlink="http://www.w3.org/1999/xlink" width="25px" height="25px" xmlns="http://www.w3.org/2000/svg">
  <g transform="matrix(1 0 0 1 -440 -13 )">
    <path d="M 2.0859649122807 0.205263157894737  L 5.2859649122807 0.205263157894737  C 5.80994152046784 0.205263157894737  6.25438596491228 0.387719298245614  6.61929824561403 0.752631578947368  C 6.98421052631579 1.11754385964912  7.16666666666667 1.56198830409357  7.16666666666667 2.0859649122807  L 7.16666666666667 5.2859649122807  C 7.16666666666667 5.80994152046784  6.98421052631579 6.25438596491228  6.61929824561403 6.61929824561403  C 6.25438596491228 6.98421052631579  5.80994152046784 7.16666666666667  5.2859649122807 7.16666666666667  L 2.0859649122807 7.16666666666667  C 1.56198830409357 7.16666666666667  1.11754385964912 6.98421052631579  0.752631578947368 6.61929824561403  C 0.387719298245614 6.25438596491228  0.205263157894737 5.80994152046784  0.205263157894737 5.2859649122807  L 0.205263157894737 2.0859649122807  C 0.205263157894737 1.56198830409357  0.387719298245614 1.11754385964912  0.752631578947368 0.752631578947368  C 1.11754385964912 0.387719298245614  1.56198830409357 0.205263157894737  2.0859649122807 0.205263157894737  Z M 10.9 0.205263157894737  L 14.1561403508772 0.205263157894737  C 14.6801169590643 0.205263157894737  15.1245614035088 0.387719298245614  15.4894736842105 0.752631578947368  C 15.8543859649123 1.11754385964912  16.0368421052632 1.56198830409357  16.0368421052632 2.0859649122807  L 16.0368421052632 5.2859649122807  C 16.0368421052632 5.80994152046784  15.8543859649123 6.25438596491228  15.4894736842105 6.61929824561403  C 15.1245614035088 6.98421052631579  14.6801169590643 7.16666666666667  14.1561403508772 7.16666666666667  L 10.9 7.16666666666667  C 10.3760233918129 7.16666666666667  9.93157894736842 6.98421052631579  9.56666666666667 6.61929824561403  C 9.20175438596491 6.25438596491228  9.01929824561404 5.80994152046784  9.01929824561404 5.2859649122807  L 9.01929824561404 2.0859649122807  C 9.01929824561404 1.56198830409357  9.20175438596491 1.11754385964912  9.56666666666667 0.752631578947368  C 9.93157894736843 0.387719298245614  10.3760233918129 0.205263157894737  10.9 0.205263157894737  Z M 19.6578947368421 0.205263157894737  L 22.9140350877193 0.205263157894737  C 23.4380116959064 0.205263157894737  23.8824561403509 0.387719298245614  24.2473684210526 0.752631578947368  C 24.6122807017544 1.11754385964912  24.7947368421053 1.56198830409357  24.7947368421053 2.0859649122807  L 24.7947368421053 5.2859649122807  C 24.7947368421053 5.80994152046784  24.6122807017544 6.25438596491228  24.2473684210526 6.61929824561403  C 23.8824561403509 6.98421052631579  23.4380116959064 7.16666666666667  22.9140350877193 7.16666666666667  L 19.6578947368421 7.16666666666667  C 19.133918128655 7.16666666666667  18.6894736842105 6.98421052631579  18.3245614035088 6.61929824561403  C 17.959649122807 6.25438596491228  17.7771929824561 5.80994152046784  17.7771929824561 5.2859649122807  L 17.7771929824561 2.0859649122807  C 17.7771929824561 1.56198830409357  17.959649122807 1.11754385964912  18.3245614035088 0.752631578947368  C 18.6894736842105 0.387719298245614  19.133918128655 0.205263157894737  19.6578947368421 0.205263157894737  Z M 2.0859649122807 9.01929824561404  L 5.2859649122807 9.01929824561403  C 5.80994152046784 9.01929824561403  6.25438596491228 9.20175438596491  6.61929824561403 9.56666666666667  C 6.98421052631579 9.93157894736842  7.16666666666667 10.3760233918129  7.16666666666667 10.9  L 7.16666666666667 14.1  C 7.16666666666667 14.6239766081871  6.98421052631579 15.0684210526316  6.61929824561403 15.4333333333333  C 6.25438596491228 15.7982456140351  5.80994152046784 15.980701754386  5.2859649122807 15.980701754386  L 2.0859649122807 15.980701754386  C 1.56198830409357 15.980701754386  1.11754385964912 15.7982456140351  0.752631578947368 15.4333333333333  C 0.387719298245614 15.0684210526316  0.205263157894737 14.6239766081871  0.205263157894737 14.1  L 0.205263157894737 10.9  C 0.205263157894737 10.3760233918129  0.387719298245614 9.93157894736842  0.752631578947368 9.56666666666667  C 1.11754385964912 9.20175438596491  1.56198830409357 9.01929824561404  2.0859649122807 9.01929824561404  Z M 10.9 9.01929824561404  L 14.1561403508772 9.01929824561403  C 14.6801169590643 9.01929824561403  15.1245614035088 9.20175438596491  15.4894736842105 9.56666666666667  C 15.8543859649123 9.93157894736842  16.0368421052632 10.3760233918129  16.0368421052632 10.9  L 16.0368421052632 14.1  C 16.0368421052632 14.6239766081871  15.8543859649123 15.0684210526316  15.4894736842105 15.4333333333333  C 15.1245614035088 15.7982456140351  14.6801169590643 15.980701754386  14.1561403508772 15.980701754386  L 10.9 15.980701754386  C 10.3760233918129 15.980701754386  9.93157894736842 15.7982456140351  9.56666666666667 15.4333333333333  C 9.20175438596491 15.0684210526316  9.01929824561404 14.6239766081871  9.01929824561404 14.1  L 9.01929824561404 10.9  C 9.01929824561404 10.3760233918129  9.20175438596491 9.93157894736842  9.56666666666667 9.56666666666667  C 9.93157894736843 9.20175438596491  10.3760233918129 9.01929824561404  10.9 9.01929824561404  Z M 19.6578947368421 9.01929824561404  L 22.9140350877193 9.01929824561403  C 23.4380116959064 9.01929824561403  23.8824561403509 9.20175438596491  24.2473684210526 9.56666666666667  C 24.6122807017544 9.93157894736842  24.7947368421053 10.3760233918129  24.7947368421053 10.9  L 24.7947368421053 14.1  C 24.7947368421053 14.6239766081871  24.6122807017544 15.0684210526316  24.2473684210526 15.4333333333333  C 23.8824561403509 15.7982456140351  23.4380116959064 15.980701754386  22.9140350877193 15.980701754386  L 19.6578947368421 15.980701754386  C 19.133918128655 15.980701754386  18.6894736842105 15.7982456140351  18.3245614035088 15.4333333333333  C 17.959649122807 15.0684210526316  17.7771929824561 14.6239766081871  17.7771929824561 14.1  L 17.7771929824561 10.9  C 17.7771929824561 10.3760233918129  17.959649122807 9.93157894736842  18.3245614035088 9.56666666666667  C 18.6894736842105 9.20175438596491  19.133918128655 9.01929824561404  19.6578947368421 9.01929824561404  Z M 2.0859649122807 17.8333333333333  L 5.2859649122807 17.8333333333333  C 5.80994152046784 17.8333333333333  6.25438596491228 18.0157894736842  6.61929824561403 18.380701754386  C 6.98421052631579 18.7456140350877  7.16666666666667 19.1900584795322  7.16666666666667 19.7140350877193  L 7.16666666666667 22.9140350877193  C 7.16666666666667 23.4380116959064  6.98421052631579 23.8824561403509  6.61929824561403 24.2473684210526  C 6.25438596491228 24.6122807017544  5.80994152046784 24.7947368421053  5.2859649122807 24.7947368421053  L 2.0859649122807 24.7947368421053  C 1.56198830409357 24.7947368421053  1.11754385964912 24.6122807017544  0.752631578947368 24.2473684210526  C 0.387719298245614 23.8824561403509  0.205263157894737 23.4380116959064  0.205263157894737 22.9140350877193  L 0.205263157894737 19.7140350877193  C 0.205263157894737 19.1900584795322  0.387719298245614 18.7456140350877  0.752631578947368 18.380701754386  C 1.11754385964912 18.0157894736842  1.56198830409357 17.8333333333333  2.0859649122807 17.8333333333333  Z M 10.9 17.8333333333333  L 14.1561403508772 17.8333333333333  C 14.6801169590643 17.8333333333333  15.1245614035088 18.0157894736842  15.4894736842105 18.380701754386  C 15.8543859649123 18.7456140350877  16.0368421052632 19.1900584795322  16.0368421052632 19.7140350877193  L 16.0368421052632 22.9140350877193  C 16.0368421052632 23.4380116959064  15.8543859649123 23.8824561403509  15.4894736842105 24.2473684210526  C 15.1245614035088 24.6122807017544  14.6801169590643 24.7947368421053  14.1561403508772 24.7947368421053  L 10.9 24.7947368421053  C 10.3760233918129 24.7947368421053  9.93157894736842 24.6122807017544  9.56666666666667 24.2473684210526  C 9.20175438596491 23.8824561403509  9.01929824561404 23.4380116959064  9.01929824561404 22.9140350877193  L 9.01929824561404 19.7140350877193  C 9.01929824561404 19.1900584795322  9.20175438596491 18.7456140350877  9.56666666666667 18.380701754386  C 9.93157894736843 18.0157894736842  10.3760233918129 17.8333333333333  10.9 17.8333333333333  Z M 19.6578947368421 17.8333333333333  L 22.9140350877193 17.8333333333333  C 23.4380116959064 17.8333333333333  23.8824561403509 18.0157894736842  24.2473684210526 18.380701754386  C 24.6122807017544 18.7456140350877  24.7947368421053 19.1900584795322  24.7947368421053 19.7140350877193  L 24.7947368421053 22.9140350877193  C 24.7947368421053 23.4380116959064  24.6122807017544 23.8824561403509  24.2473684210526 24.2473684210526  C 23.8824561403509 24.6122807017544  23.4380116959064 24.7947368421053  22.9140350877193 24.7947368421053  L 19.6578947368421 24.7947368421053  C 19.133918128655 24.7947368421053  18.6894736842105 24.6122807017544  18.3245614035088 24.2473684210526  C 17.959649122807 23.8824561403509  17.7771929824561 23.4380116959064  17.7771929824561 22.9140350877193  L 17.7771929824561 19.7140350877193  C 17.7771929824561 19.1900584795322  17.959649122807 18.7456140350877  18.3245614035088 18.380701754386  C 18.6894736842105 18.0157894736842  19.133918128655 17.8333333333333  19.6578947368421 17.8333333333333  Z " fill-rule="nonzero" fill="#7f7f7f" stroke="none" transform="matrix(1 0 0 1 440 13 )" />
  </g>
</svg>