<?xml version="1.0" encoding="utf-8"?>
<svg version="1.1" xmlns:xlink="http://www.w3.org/1999/xlink" width="20px" height="25px" xmlns="http://www.w3.org/2000/svg">
  <g transform="matrix(1 0 0 1 -17 -18 )">
    <path d="M 0.64964539893617 3.29252874461207  L 9.72085106382979 0.18908046875  C 9.89750901626298 0.128640862527196  10.0888739624604 0.128640862527196  10.2655319148936 0.18908046875  L 19.3497872340426 3.29252874461207  C 19.6958674324945 3.41065768739553  19.9289651015546 3.73927174729718  20 4.10919539331897  L 20 14.6839080549569  C 19.9290780053191 17.8304597790948  16.7234042553191 21.1189655172414  10.4226950265957 24.7436781519397  C 10.1623736295348 24.8934652302038  9.8434997198627 24.893683478431  9.58297872340425 24.7442528825431  C 3.27829787234043 21.1270115032328  0.0709219946808508 17.8379310344828  0 14.6839080549569  L 0 4.10919539331897  C 0.0709527434269166 3.73942352896661  0.30378932305146 3.41085574031284  0.64964539893617 3.29252874461207  Z M 14.5344680851064 10.4275862068966  L 14.5344680851064 6.32068965517241  L 8.33531914893617 6.32068965517241  L 8.33531914893617 10.4275862068966  L 10.7455319148936 10.4275862068966  L 10.7455319148936 11.2862068965517  L 7.89617021276596 11.2862068965517  L 7.89617021276596 12.5793103448276  L 8.95829787234043 12.5793103448276  C 8.91744680851064 13.0689655172414  8.8068085106383 13.4862068965517  8.6263829787234 13.8310344827586  C 8.47944491413857 14.1232199589042  8.25200946223311 14.3659736231508  7.97163119680851 14.5298850484914  L 7.86553191489362 14.5862068965517  L 7.86553191489362 16.0965517241379  C 8.20156008191671 16.0334855384957  8.52130361353855 15.9014699897505  8.80510638297872 15.7086206896552  C 9.09787234042553 15.5120689655172  9.3531914893617 15.2603448275862  9.57106382978724 14.9534482758621  C 9.79784302623538 14.6286903905516  9.97514280997431 14.2712490998911  10.0970212765957 13.8931034482759  C 10.2140234846315 13.5331280855562  10.2845847912359 13.1593397409533  10.3069503457447 12.7810344827586  L 10.3165957446809 12.5793103448276  L 10.7455319148936 12.5793103448276  L 10.7455319148936 16.251724137931  L 12.1242553191489 16.251724137931  L 12.1242553191489 12.5793103448276  L 12.5429787234043 12.5793103448276  C 12.5634042553192 13.0551724137931  12.6382978723404 13.4931034482759  12.7676595744681 13.8931034482759  C 12.8867091563655 14.2724224120373  13.0642199604375 14.6302891255528  13.2936170212766 14.9534482758621  C 13.5148936170213 15.2603448275862  13.771914893617 15.5120689655172  14.0646808510638 15.7086206896552  C 14.3154609840426 15.8770115032328  14.583829787234 15.9959770204741  14.8703546010638 16.0660919450431  L 15.0144680851064 16.0965517241379  L 15.0144680851064 14.5862068965517  C 14.6876595744681 14.4413793103448  14.4323404255319 14.1931034482759  14.2485106382979 13.8413793103448  C 14.0873758776596 13.5339080549569  13.981843962766 13.1729884967672  13.9302127659574 12.7597701239224  L 13.9114893617021 12.5793103448276  L 14.983829787234 12.5793103448276  L 14.983829787234 11.2862068965517  L 12.1242553191489 11.2862068965517  L 12.1242553191489 10.4275862068966  L 14.5344680851064 10.4275862068966  Z M 7.67432625 6.36321839978448  L 7.71234042553191 6.07241379310345  L 6.34382978723404 6.07241379310345  C 6.30978723404255 6.38275862068966  6.25872340425532 6.68965517241379  6.19063829787234 6.99310344827586  C 6.12412619908757 7.2914754016095  6.03361112886694 7.58383112817201  5.92 7.86724137931034  C 5.81162227687515 8.13894071742008  5.67647039799991 8.39887653858726  5.51659574468085 8.64310344827586  C 5.39177305851064 8.83333332435345  5.25106382978723 9.00287357219828  5.09503545212766 9.15114943426724  L 4.97531914893617 9.25862068965517  L 4.97531914893617 10.9965517241379  C 5.23120566489362 10.8528735721983  5.47631204787234 10.6856321928879  5.71063829787234 10.4931034482759  L 5.88425531914894 10.3448275862069  L 5.88425531914894 16.2310344827586  L 7.26297872340426 16.2310344827586  L 7.26297872340426 8.18275862068966  C 7.37191489361702 7.87241379310345  7.46212765957447 7.54137931034483  7.5336170212766 7.18965517241379  C 7.5875177393617 6.92586206896552  7.63404255319149 6.65057470366379  7.67432625 6.36321839978448  Z M 9.71404255319149 7.61379310344828  L 13.1557446808511 7.61379310344828  L 13.1557446808511 9.13448275862069  L 9.71404255319149 9.13448275862069  L 9.71404255319149 7.61379310344828  Z " fill-rule="nonzero" fill="#555555" stroke="none" transform="matrix(1 0 0 1 17 18 )" />
  </g>
</svg>