<?xml version="1.0" encoding="utf-8"?>
<svg version="1.1" xmlns:xlink="http://www.w3.org/1999/xlink" width="20px" height="23px" xmlns="http://www.w3.org/2000/svg">
  <g transform="matrix(1 0 0 1 -17 -19 )">
    <path d="M 19.8984375 3.47566964285714  C 19.8984375 3.25491071428571  19.7265625 3.01618303571429  19.515625 2.94430803571429  L 10.3828125 0.0513392857142857  C 10.2786458333333 0.0154017857142856  10.140625 0  10 0  C 9.859375 0  9.72135416666667 0.0179687500000001  9.6171875 0.0513392857142857  L 0.486979166666666 2.94430803571429  C 0.276041666666667 3.01361607142857  0.104166666666667 3.25491071428571  0.104166666666667 3.47310267857143  L 0.104166666666667 16.0486607142857  C 0.104166666666667 16.2694196428571  0.25 16.5594866071429  0.424479166666667 16.6955357142857  L 9.6796875 22.8973214285714  C 9.76822916666667 22.9640625  9.8828125 23  10 23  C 10.1171875 23  10.234375 22.9640625  10.3203125 22.8973214285714  L 19.578125 16.6955357142857  C 19.7526041666667 16.5594866071429  19.8984375 16.2694196428571  19.8984375 16.0486607142857  L 19.8984375 3.47566964285714  Z M 14.75 7.98582589285714  C 15.5052083333333 9.24620535714286  15.3307291666667 10.9018973214286  14.2291666666667 11.9877232142857  C 13.3541666666667 12.8502232142857  12.1145833333333 13.13515625  11 12.8425223214286  L 7.1796875 16.6056919642857  C 7.140625 16.6441964285714  7.07552083333333 16.6416294642857  7.03645833333333 16.6005580357143  L 4.82291666666667 14.4186383928571  C 4.78125 14.3775669642857  4.77864583333333 14.3159598214286  4.81770833333333 14.2774553571429  L 8.640625 10.51171875  C 8.34375 9.41305803571428  8.6328125 8.19118303571428  9.5078125 7.33125  C 10.609375 6.24542410714286  12.2864583333333 6.0734375  13.5677083333333 6.82042410714286  C 13.6484375 6.86662946428571  13.6744791666667 6.96674107142857  13.6276041666667 7.04631696428571  C 13.6197916666667 7.05915178571428  13.6119791666667 7.06941964285714  13.6015625 7.0796875  L 11.3541666666667 9.29497767857143  L 12.2395833333333 10.1677455357143  L 14.4869791666667 7.95245535714286  C 14.5520833333333 7.88828125  14.6588541666667 7.88828125  14.7239583333333 7.95245535714286  C 14.734375 7.96272321428571  14.7447916666667 7.97299107142857  14.75 7.98582589285714  Z " fill-rule="nonzero" fill="#555555" stroke="none" transform="matrix(1 0 0 1 17 19 )" />
  </g>
</svg>