<?xml version="1.0" encoding="utf-8"?>
<svg version="1.1" xmlns:xlink="http://www.w3.org/1999/xlink" width="20px" height="24px" xmlns="http://www.w3.org/2000/svg">
  <g transform="matrix(1 0 0 1 -17 -18 )">
    <path d="M 0.582857156250001 3.20914284848485  L 9.71885715625 0.216935060606061  C 9.89677694422225 0.158661864960699  10.0895087745278 0.158661864960699  10.2674285625 0.216935060606061  L 19.4165714375 3.20914284848485  C 19.7651236461685 3.32303755768865  19.9998863015677 3.63987273501564  20 3.99653678787879  L 20 14.1922077878788  C 20 17.225974030303  16.7714285625 20.3966060606061  10.42571428125 23.8913939393939  C 10.163533443629 24.0358120278224  9.84238185959248 24.0360224498395  9.58 23.8919480606061  C 3.23028571875 20.4043636363636  0 17.2331774848485  0 14.1922077878788  L 0 3.99653678787879  C 3.09585387103795E-05 3.64001907277439  0.234530665734594 3.3232285071002  0.582857156250001 3.20914284848485  Z M 7.56228571875 7.24585281818182  L 7.56228571875 5.78964503030303  L 6.17371428125 5.78964503030303  L 6.17371428125 7.24585281818182  L 4.92914284375 7.24585281818182  L 4.92914284375 8.49260606060606  L 5.752 8.49260606060606  C 5.71007841438826 8.78306162918542  5.66034720466767 9.07240687969133  5.60285715625 9.36034633333333  C 5.54682869103594 9.64319591331477  5.48165370307877 9.92426950915462  5.4074285625 10.2031515151515  C 5.3354285625 10.4724502121212  5.25828571875 10.7234632121212  5.176 10.9561904848485  C 5.11428571875 11.1307359393939  5.05028571875 11.2903203636364  4.98514284375 11.4349437272727  L 4.91885715625 11.5745800909091  L 4.91885715625 14.0680865757576  C 5.19913491174075 13.7245181319115  5.43569722855104 13.3494509475238  5.6234285625 12.9509956666667  C 5.790857125 12.6052294242424  5.94171428125 12.2384069090909  6.076 11.849974030303  L 6.17371428125 11.554632030303  L 6.17371428125 15.6739047575758  L 7.56228571875 15.6739047575758  L 7.56228571875 11.554632030303  C 7.72 12.0533333333333  7.90171428125 12.5187878787879  8.1074285625 12.9509956666667  C 8.26916254652613 13.2976291898175  8.46939357357839 13.6261276760521  8.7045714375 13.9306666666667  L 8.81714284375 14.0680865757576  L 8.81714284374999 11.5745800909091  C 8.71900577480452 11.3735146783703  8.63314337332456 11.1670286029568  8.56 10.9561904848485  C 8.47771428125 10.7234632121212  8.4005714375 10.4724502121212  8.3285714375 10.2031515151515  C 8.2565714375 9.93385281818182  8.19142859375 9.65291775757576  8.13314284375 9.36034633333333  L 8.04971428125 8.92425972727273  L 7.97371428125 8.49260606060606  L 8.80685715625 8.49260606060606  L 8.80685715625 7.24585281818182  L 7.56228571875 7.24585281818182  Z M 15.07085715625 15.5741645151515  L 15.07085715625 14.3772813939394  L 9.0434285625 14.3772813939394  L 9.0434285625 15.5741645151515  L 15.07085715625 15.5741645151515  Z M 12.67314284375 11.3690043333333  L 12.60228571875 10.8763982727273  L 11.2445714375 10.8763982727273  C 11.32 11.3684502121212  11.38 11.8621645151515  11.4245714375 12.3575411212121  C 11.45828571875 12.7287965454545  11.4805714375 13.1033766060606  11.49314284375 13.4807272727273  L 11.50171428125 13.858632030303  L 12.86971428125 13.858632030303  C 12.8630833191454 13.357399943674  12.835632490806 12.8566303144706  12.7874285625 12.3575411212121  C 12.7554403622374 12.0273918743955  12.7173389766353 11.6978264505718  12.67314284375 11.3690043333333  Z M 14.93314284375 11.2498701212121  L 14.9474285625 10.8763982727273  L 13.58971428125 10.8763982727273  C 13.5660186899941 11.7508572735979  13.4787546001395 12.6226071189124  13.3285714375 13.4851601818182  L 13.2605714375 13.858632030303  L 14.6285714375 13.858632030303  C 14.71771428125 13.3599307272727  14.78971428125 12.8628917575758  14.8445714375 12.3675151515152  C 14.88571428125 11.9962597272727  14.91542859375 11.623342  14.93314284375 11.2498701212121  Z M 10.59485715625 11.3690043333333  L 10.5245714375 10.8763982727273  L 9.16685715625 10.8763982727273  C 9.24228571875 11.3684502121212  9.30228571875 11.8621645151515  9.34685715625 12.3575411212121  C 9.3805714375 12.7287965454545  9.40285715625 13.1033766060606  9.4154285625 13.4807272727273  L 9.424 13.858632030303  L 10.78171428125 13.858632030303  C 10.7750753218159 13.3575178199035  10.7493434860452 12.8568125973324  10.7045714375 12.3575411212121  C 10.6748634010175 12.027346539839  10.6382845223842 11.6977671379927  10.59485715625 11.3690043333333  Z M 14.90628571875 10.2679826969697  L 14.90628571875 9.07109957575758  L 9.208 9.07109957575758  L 9.208 10.2679826969697  L 14.90628571875 10.2679826969697  Z M 12.9074285625 5.95975757575758  L 12.8285714375 5.82954112121212  L 11.28571428125 5.82954112121212  C 11.0618919501131 6.22597427118092  10.7358442390697 6.55932476056688  10.3394285625 6.79702163636364  C 10.0037205781977 7.00127011296911  9.64524787458091 7.16801133609006  9.27085715625 7.29406060606061  L 9.0434285625 7.36554112121212  L 9.0434285625 8.75193072727273  C 9.6243702219374 8.62214780798135  10.1847773253899 8.41752479125076  10.70971428125 8.14351515151515  C 11.2197450356695 7.87960496316167  11.6734882264518 7.52422568561661  12.04685715625 7.09624242424242  C 12.4213612467208 7.52510207588909  12.8769689233454 7.88057446042579  13.38914284375 8.14351515151515  C 13.9161246545275 8.41702382215927  14.4781594762169 8.62160973202859  15.0605714375 8.75193072727273  L 15.0605714375 7.36554112121212  C 14.6077810674903 7.23245900642232  14.1753772815252 7.04125791203577  13.77485715625 6.79702163636363  C 13.4233453982995 6.58610802442917  13.1265555884713 6.29963897889192  12.9074285625 5.95975757575758  Z " fill-rule="nonzero" fill="#555555" stroke="none" transform="matrix(1 0 0 1 17 18 )" />
  </g>
</svg>