<?xml version="1.0" encoding="utf-8"?>
<svg version="1.1" xmlns:xlink="http://www.w3.org/1999/xlink" width="20px" height="18px" xmlns="http://www.w3.org/2000/svg">
  <g transform="matrix(1 0 0 1 -17 -21 )">
    <path d="M 19.9600660669219 16.1649734332334  C 19.9600660669219 15.854356049567  19.8768975025973 15.5494719551351  19.719298245614 15.2823529411765  L 11.5087719298246 0.988235294117647  C 11.1927409633868 0.452494410613984  10.6193115068382 0.124048293329864  10 0.124048293329864  C 9.38068849316182 0.124048293329864  8.80725903661317 0.452494410613984  8.49122807017544 0.988235294117647  L 0.280701754385965 15.2823529411765  C 0.123102497402671 15.5494719551351  0.0399339330781367 15.854356049567  0.0399339330781367 16.1649734332334  C 0.0399339330781367 17.1201011770584  0.809689977228703 17.8943851979393  1.75923217869217 17.8943851979393  C 1.76931326538817 17.8943851979393  1.77939415712206 17.894296010863  1.78947368421053 17.8941176470588  L 18.2105263157895 17.8941176470588  C 18.220605842878 17.894296010863  18.2306867346117 17.8943851979393  18.2407678213078 17.8943851979393  C 19.1903100227713 17.8943851979393  19.9600660669219 17.1201011770584  19.9600660669219 16.1649734332334  Z M 10.7017543859649 14.6470588235294  C 10.7017543859649 15.0369068822335  10.3875682454953 15.3529411764706  10 15.3529411764706  C 9.61243175450471 15.3529411764706  9.29824561403509 15.0369068822335  9.29824561403509 14.6470588235294  C 9.29824561403509 14.2572107648253  9.61243175450471 13.9411764705882  10 13.9411764705882  C 10.3875682454953 13.9411764705882  10.7017543859649 14.2572107648253  10.7017543859649 14.6470588235294  Z M 10.7017543859649 4.76470588235294  L 10.7017543859649 11.8235294117647  C 10.7017543859649 12.2133774704688  10.3875682454953 12.5294117647059  10 12.5294117647059  C 9.61243175450471 12.5294117647059  9.29824561403509 12.2133774704688  9.29824561403509 11.8235294117647  L 9.29824561403509 4.76470588235294  C 9.29824561403509 4.37485782364885  9.61243175450471 4.05882352941176  10 4.05882352941176  C 10.3875682454953 4.05882352941176  10.7017543859649 4.37485782364885  10.7017543859649 4.76470588235294  Z " fill-rule="nonzero" fill="#555555" stroke="none" transform="matrix(1 0 0 1 17 21 )" />
  </g>
</svg>