<?xml version="1.0" encoding="utf-8"?>
<svg version="1.1" xmlns:xlink="http://www.w3.org/1999/xlink" width="15px" height="8px" xmlns="http://www.w3.org/2000/svg">
  <g transform="matrix(1 0 0 1 -22 -32 )">
    <path d="M 4.42623355263158 3.58558139534884  C 2.09358552631579 3.77  0.246710526315789 5.59302325581395  0.191694078947368 7.82651162790698  L 3.91110197368421 7.82651162790698  L 4.42623355263158 7.38976744186046  L 4.42623355263158 3.58558139534884  Z M 8.01587171052632 3.29348837209302  C 8.35754369027232 3.50439483698528  8.67518411576656 3.74801388787437  8.96373355263158 4.02046511627907  C 10.0401880907421 5.02983819658983  10.6561094959832 6.39545007130454  10.6803453947368 7.82651162790698  L 14.5559210526316 7.82651162790698  C 14.7957468841149 7.82635410097918  14.9900755549782 7.64304527917823  14.9900755549782 7.41697684360992  C 14.9900755549782 7.4108504664266  14.9899297192448 7.4047248605135  14.9896381578947 7.39860465116279  C 14.8579702036341 4.50827459134395  13.3614882020256 1.82503514257566  10.9102796052632 0.084186046511628  L 8.01587171052632 3.29348837209302  Z M 9.44037828947369 7.82651162790698  C 9.38412828947368 5.58139534883721  7.51973684210526 3.75116279069767  5.1703125 3.58255813953488  L 5.1703125 7.37325581395349  L 5.79621710526316 7.82651162790698  L 9.44037828947369 7.82651162790698  Z " fill-rule="nonzero" fill="#555555" stroke="none" transform="matrix(1 0 0 1 22 32 )" />
  </g>
</svg>