<?xml version="1.0" encoding="utf-8"?>
<svg version="1.1" xmlns:xlink="http://www.w3.org/1999/xlink" width="20px" height="17px" xmlns="http://www.w3.org/2000/svg">
  <g transform="matrix(1 0 0 1 -17 -24 )">
    <path d="M 15.7360451977401 7.00718679867987  L 16.6616949152542 7.00718679867987  C 17.2911367231638 7.00718679867987  17.7724745762712 6.52918495049505  17.7724745762712 5.90410561056106  C 17.7724745762712 5.27902627062706  17.2911367231638 4.80102442244224  16.6616949152542 4.80102442244224  L 15.4398372881356 4.80102442244224  L 14.6252655367232 1.67562772277228  C 14.4771615819209 1.16085650165016  14.1069016949153 0.756393399339934  13.5885378531073 0.609315907590759  C 10.5065875724559 -0.199623050891268  7.26588700381531 -0.199623050891268  4.18393672316384 0.609315907590759  C 3.66557288135593 0.756393399339933  3.25828700564972 1.16085650165016  3.11018305084746 1.67562772277228  L 2.33263728813559 4.80102442244224  L 1.4810395480226 4.80102442244224  C 0.851597740112995 4.80102442244224  0.37025988700565 5.27902627062706  0.37025988700565 5.90410561056106  C 0.37025988700565 6.38210745874587  0.66646779661017 6.78657056105611  1.11077966101695 6.93364805280528  C 0.44431186440678 7.30134178217822  0 8.03672924092409  0 8.84565544554455  L 0 11.7872052805281  C 0 12.4858233663366  0.481337853107345 13.037363960396  1.11077966101695 13.2212108250825  L 1.11077966101695 13.9933676567657  C 1.11077966101695 14.3978307590759  1.44401355932203 14.7287551155116  1.85129943502825 14.7287551155116  L 4.07285875706215 14.7287551155116  C 4.48014463276836 14.7287551155116  4.81337853107345 14.3978307590759  4.81337853107345 13.9933676567657  L 4.81337853107345 13.2579801980198  L 10.7375367231638 13.2579801980198  L 10.7375367231638 8.80888607260726  L 15.7360451977401 7.00718679867987  Z M 4.4431186440678 9.94873663366337  C 4.4431186440678 10.7576628382838  3.77665084745763 11.4195115511551  2.9620790960452 11.4195115511551  C 2.14750734463277 11.4195115511551  1.4810395480226 10.7576628382838  1.4810395480226 9.94873663366337  C 1.4810395480226 9.13981042904291  2.14750734463277 8.47796171617162  2.9620790960452 8.47796171617162  C 3.77665084745763 8.47796171617162  4.4431186440678 9.13981042904291  4.4431186440678 9.94873663366337  Z M 3.73962485875706 6  L 4.55419661016949 2.04332145214521  C 5.96118418079096 1.67562772277228  7.405197740113 1.49178085808581  8.88623728813559 1.49178085808581  C 10.3672768361582 1.49178085808581  11.8112903954802 1.67562772277228  13.2182779661017 2.04332145214521  L 14.0328497175141 6  L 3.73962485875706 6  Z M 16.1433310734463 11.1253565676568  C 16.4395389830508 10.8679709570957  16.6987209039548 10.5738159735974  16.9208768361582 10.2061222442244  C 17.1430327683616 10.5738159735974  17.4022146892655 10.8679709570957  17.6613966101695 11.1253565676568  L 16.1433310734463 11.1253565676568  Z M 19.9940338983051 9.58104290429043  L 15.9211751412429 8.11026798679868  L 11.8483163841808 9.58104290429043  L 11.8483163841808 13.405057689769  C 11.8483163841808 14.2139838943894  12.2926282485876 14.9493713531353  12.9961220338983 15.3538344554455  L 15.9211751412429 16.9349174917492  L 18.8462282485876 15.3538344554455  C 19.5497220338983 14.9493713531353  19.9940338983051 14.2139838943894  19.9940338983051 13.405057689769  L 19.9940338983051 9.58104290429043  Z M 18.809202259887 14.8758326072607  L 18.7721762711864 14.8758326072607  L 15.1066033898305 14.8758326072607  L 15.1066033898305 14.1772145214521  L 17.2911367231638 14.1772145214521  C 17.5503186440678 13.4785964356436  17.7354485875706 12.8167477227723  17.8465265536723 12.154899009901  L 18.6240723163842 12.3387458745875  C 18.4759683615819 12.8167477227723  18.2908384180791 13.4418270627063  18.0316564971751 14.1772145214521  L 18.809202259887 14.1772145214521  L 18.809202259887 14.8758326072607  Z M 15.8100971751412 12.2652071287129  C 15.9952271186441 12.8167477227723  16.2173830508475 13.2947495709571  16.3654870056497 13.8095207920792  L 15.6990192090395 14.030137029703  C 15.5509152542373 13.5521351815182  15.402811299435 13.037363960396  15.1806553672316 12.5225927392739  L 15.8100971751412 12.2652071287129  Z M 16.6987209039548 13.7359820462046  C 16.6246689265537 13.3682883168317  16.513590960452 12.8535170957096  16.3654870056497 12.1916683828383  L 16.9949288135593 12.0445908910891  C 17.1430327683616 12.5593621122112  17.2911367231638 13.0741333333333  17.365188700565 13.5889045544554  L 16.6987209039548 13.7359820462046  Z M 18.9202802259887 11.0885871947195  L 18.5129943502825 11.7872052805281  C 18.3648903954802 11.7136665346535  18.2538124293785 11.6033584158416  18.1057084745763 11.4930502970297  L 18.1057084745763 11.8239746534653  L 15.7360451977401 11.8239746534653  L 15.7360451977401 11.529819669967  C 15.5879412429379 11.6401277887789  15.4768632768362 11.7504359075908  15.3287593220339 11.8607440264026  C 15.1806553672316 11.5665890429043  15.0695774011299 11.3459728052805  14.9214734463277 11.1253565676568  L 14.5882395480226 11.1253565676568  L 14.5882395480226 11.529819669967  C 14.8474214689266 11.7504359075908  15.1436293785311 11.9710521452145  15.402811299435 12.1916683828383  L 14.9214734463277 12.779978349835  C 14.810395480226 12.6329008580858  14.6993175141243 12.5225927392739  14.5882395480226 12.412284620462  L 14.5882395480226 15.0596794719472  L 13.8477197740113 15.0596794719472  L 13.8477197740113 12.6329008580858  C 13.699615819209 13.0005945874587  13.5144858757062 13.3682883168317  13.2923299435028 13.7359820462046  C 13.2182779661017 13.3315189438944  13.1812519774011 13.0005945874587  13.1072 12.6696702310231  C 13.4034079096045 12.1916683828383  13.6255638418079 11.6768971617162  13.7736677966102 11.1253565676568  L 13.1442259887006 11.1253565676568  L 13.1442259887006 10.3899691089109  L 13.8106937853107 10.3899691089109  L 13.8106937853107 9.39719603960396  L 14.551213559322 9.39719603960396  L 14.551213559322 10.3899691089109  L 15.1806553672316 10.3899691089109  L 15.1806553672316 10.9415097029703  C 15.7360451977401 10.5370466006601  16.1803570621469 9.98550600660066  16.5506169491525 9.36042666666667  L 17.4762666666667 9.36042666666667  L 17.365188700565 9.58104290429043  C 17.7724745762712 10.2428916171617  18.2908384180791 10.7576628382838  18.9202802259887 11.0885871947195  Z " fill-rule="nonzero" fill="#555555" stroke="none" transform="matrix(1 0 0 1 17 24 )" />
  </g>
</svg>