<?xml version="1.0" encoding="utf-8"?>
<svg version="1.1" xmlns:xlink="http://www.w3.org/1999/xlink" width="13px" height="13px" xmlns="http://www.w3.org/2000/svg">
  <g transform="matrix(1 0 0 1 -1329 -16 )">
    <path d="M 1.34375 6.5  C 1.408203125 6.5  1.45947265625 6.44873046875  1.4609375 6.3857421875  C 1.4755859375 5.74560546875  1.607421875 5.12451171875  1.85498046875 4.5400390625  C 2.1083984375 3.939453125  2.4716796875 3.40185546875  2.9345703125 2.9375  C 3.3974609375 2.47314453125  3.9365234375 2.10986328125  4.537109375 1.8564453125  C 5.158203125 1.59423828125  5.8173828125 1.4609375  6.49853515625 1.4609375  C 7.1796875 1.4609375  7.8388671875 1.59423828125  8.45849609375 1.8564453125  C 9.0576171875 2.10986328125  9.5966796875 2.47314453125  10.0595703125 2.9375  C 10.20458984375 3.08251953125  10.3408203125 3.236328125  10.466796875 3.3974609375  L 9.5849609375 4.0859375  C 9.50732421875 4.14599609375  9.53369140625 4.26904296875  9.62890625 4.29248046875  L 12.20263671875 4.92236328125  C 12.27587890625 4.93994140625  12.34765625 4.88427734375  12.34765625 4.8095703125  L 12.359375 2.15966796875  C 12.359375 2.0615234375  12.24658203125 2.005859375  12.17041015625 2.0673828125  L 11.34423828125 2.71337890625  C 10.2177734375 1.27197265625  8.4658203125 0.34765625  6.4970703125 0.34765625  C 3.14111328125 0.34765625  0.41064453125 3.037109375  0.347626953125 6.3798828125  C 0.34619140625 6.44580078125  0.39892578125 6.5  0.46484375 6.5  L 1.34375 6.5  Z M 12.652373046875 6.6201171875  C 12.65380859375 6.55419921875  12.60107421875 6.5  12.53515625 6.5  L 11.65625 6.5  C 11.591796875 6.5  11.54052734375 6.55126953125  11.5390625 6.6142578125  C 11.5244140625 7.25439453125  11.392578125 7.87548828125  11.14501953125 8.4599609375  C 10.8916015625 9.060546875  10.5283203125 9.599609375  10.0654296875 10.0625  C 9.6025390625 10.525390625  9.0634765625 10.89013671875  8.462890625 11.1435546875  C 7.841796875 11.40576171875  7.1826171875 11.5390625  6.50146484375 11.5390625  C 5.8203125 11.5390625  5.1611328125 11.40576171875  4.5400390625 11.1435546875  C 3.94091796875 10.89013671875  3.40185546875 10.52685546875  2.93896484375 10.0625  C 2.7939453125 9.91748046875  2.65771484375 9.763671875  2.53173828125 9.6025390625  L 3.41357421875 8.9140625  C 3.4912109375 8.85400390625  3.46484375 8.73095703125  3.36962890625 8.70751953125  L 0.7958984375 8.07763671875  C 0.72265625 8.06005859375  0.65087890625 8.11572265625  0.65087890625 8.1904296875  L 0.640625 10.841796875  C 0.640625 10.93994140625  0.75341796875 10.99560546875  0.82958984375 10.93408203125  L 1.65576171875 10.2880859375  C 2.7822265625 11.72802734375  4.5341796875 12.65234375  6.5029296875 12.65234375  C 9.8603515625 12.65234375  12.58935546875 9.96142578125  12.652373046875 6.6201171875  Z " fill-rule="nonzero" fill="#555555" stroke="none" transform="matrix(1 0 0 1 1329 16 )" />
  </g>
</svg>