<?xml version="1.0" encoding="utf-8"?>
<svg version="1.1" xmlns:xlink="http://www.w3.org/1999/xlink" width="10px" height="10px" xmlns="http://www.w3.org/2000/svg">
  <g transform="matrix(1 0 0 1 -15 -15 )">
    <path d="M 8.473125 9.29  L 5 5.816875  L 1.526875 9.29  C 1.414375 9.4025  1.23125 9.4025  1.118125 9.29  L 0.709375 8.88125  C 0.596875 8.76875  0.596875 8.585625  0.709375 8.4725  L 4.183125 5  L 0.709375 1.526875  C 0.596875 1.414375  0.596875 1.23125  0.709375 1.118125  L 1.118125 0.709375  C 1.230625 0.596875  1.41375 0.596875  1.526875 0.709375  L 5 4.1825  L 8.473125 0.709375  C 8.585625 0.596875  8.76875 0.596875  8.881875 0.709375  L 9.290625 1.118125  C 9.403125 1.230625  9.403125 1.41375  9.290625 1.526875  L 5.816875 5  L 9.29 8.473125  C 9.4025 8.585625  9.4025 8.76875  9.29 8.881875  L 8.88125 9.290625  C 8.769375 9.403125  8.585625 9.403125  8.473125 9.29  Z " fill-rule="nonzero" fill="#999999" stroke="none" transform="matrix(1 0 0 1 15 15 )" />
  </g>
</svg>