<?xml version="1.0" encoding="utf-8"?>
<svg version="1.1" xmlns:xlink="http://www.w3.org/1999/xlink" width="17px" height="17px" xmlns="http://www.w3.org/2000/svg">
  <g transform="matrix(1 0 0 1 -34 -164 )">
    <path d="M 16.7785714365234 13.3857142910156  C 16.7446428730469 13.0125  16.4392857275391 12.7410714365234  16.0660714365234 12.7410714365234  L 15.3875 12.7410714365234  L 15.3875 4.25892856347656  L 16.0660714365234 4.25892856347656  C 16.4392857275391 4.25892856347656  16.7446428730469 3.95357141796875  16.7446428544922 3.58035714550781  L 16.7446428544922 1.00178570898437  C 16.7446428544922 0.62857141796875  16.4392857089844 0.323214272460937  16.0660714365234 0.323214291015625  L 13.3517857089844 0.323214291015625  C 12.9785714179688 0.323214291015625  12.6732142724609 0.628571436523437  12.6732142910156 1.00178570898437  L 12.6732142910156 1.6125  L 4.32678570898438 1.6125  L 4.32678570898438 1.00178570898437  C 4.32678570898438 0.62857141796875  4.02142856347656 0.323214272460937  3.64821429101563 0.323214291015625  L 0.933928563476562 0.323214291015625  C 0.560714272460937 0.323214291015625  0.255357126953125 0.628571436523437  0.255357145507812 1.00178570898437  L 0.255357145507812 3.61428570898438  C 0.255357145507812 3.9875  0.560714291015625 4.29285714550781  0.933928563476562 4.29285714550781  L 1.6125 4.29285714550781  L 1.6125 12.7071428544922  L 0.933928563476562 12.7071428544922  C 0.560714272460937 12.7071428544922  0.255357126953125 13.0125  0.255357145507812 13.3857142910156  L 0.255357145507812 15.9642857089844  C 0.255357145507812 16.3375  0.560714291015625 16.6428571455078  0.933928563476562 16.6428571455078  L 3.64821429101563 16.6428571455078  C 4.02142858203125 16.6428571455078  4.32678572753906 16.3375  4.32678570898438 15.9642857089844  L 4.32678570898438 15.3535714365234  L 12.7071428544922 15.3535714365234  L 12.7071428544922 15.9982142910156  C 12.7071428544922 16.3714285820313  13.0125 16.6767857275391  13.3857142910156 16.6767857089844  L 16.1 16.6767857089844  C 16.4732142910156 16.6767857089844  16.7785714365234 16.3714285634766  16.7785714365234 15.9982142910156  L 16.7785714365234 13.3857142910156  Z M 14.0303571455078 11.8589285634766  L 14.0303571455078 12.7410714365234  L 13.3517857089844 12.7410714365234  C 13.25 12.7410714365234  13.1821428544922 12.775  13.0803571455078 12.8089285634766  L 14.0303571455078 11.8589285634766  Z M 13.3178571455078 4.29285714550781  L 4.32678570898438 13.2839285634766  C 4.29285714550781 12.9446428544922  3.9875 12.7071428544922  3.64821429101563 12.7071428544922  L 12.6392857089844 3.71607143652344  C 12.6732142724609 4.05535714550781  12.9785714179688 4.29285714550781  13.3178571455078 4.29285714550781  Z M 4.32678570898438 3.61428570898438  L 4.32678570898438 2.96964285449219  L 5.14107143652344 2.96964285449219  L 4.29285714550781 3.81785714550781  C 4.32678570898438 3.75  4.32678570898438 3.68214285449219  4.32678570898438 3.61428570898438  Z M 2.96964285449219 5.10714285449219  L 2.96964285449219 4.25892856347656  L 3.64821429101563 4.25892856347656  C 3.71607143652344 4.25892856347656  3.78392858203125 4.25892856347656  3.85178570898438 4.225  L 2.96964285449219 5.10714285449219  Z M 2.96964285449219 8.29642856347656  L 2.96964285449219 7.04107143652344  L 7.04107143652344 2.96964285449219  L 8.29642856347656 2.96964285449219  L 2.96964285449219 8.29642856347656  Z M 3.00357143652344 10.1964285634766  L 10.2303571455078 2.96964285449219  L 11.4857142910156 2.96964285449219  L 3.00357143652344 11.4517857089844  L 3.00357143652344 10.1964285634766  Z M 6.76964285449219 13.9964285634766  L 5.51428570898438 13.9964285634766  L 13.9964285634766 5.51428570898438  L 13.9964285634766 6.76964285449219  L 6.76964285449219 13.9964285634766  Z M 9.95892856347656 13.9964285634766  L 8.70357143652344 13.9964285634766  L 14.0303571455078 8.66964285449219  L 14.0303571455078 9.925  L 9.95892856347656 13.9964285634766  Z M 11.825 14.0303571455078  L 12.7071428544922 13.1482142910156  C 12.6732142910156 13.2160714365234  12.6392857089844 13.3178571455078  12.6392857089844 13.4196428544922  L 12.6392857089844 14.0303571455078  L 11.825 14.0303571455078  Z " fill-rule="nonzero" fill="#4d4c4c" stroke="none" transform="matrix(1 0 0 1 34 164 )" />
  </g>
</svg>