<?xml version="1.0" encoding="utf-8"?>
<svg version="1.1" xmlns:xlink="http://www.w3.org/1999/xlink" width="383px" height="138px" xmlns="http://www.w3.org/2000/svg">
  <defs>
    <filter x="29px" y="274px" width="383px" height="138px" filterUnits="userSpaceOnUse" id="filter53">
      <feOffset dx="0" dy="0" in="SourceAlpha" result="shadowOffsetInner" />
      <feGaussianBlur stdDeviation="2.5" in="shadowOffsetInner" result="shadowGaussian" />
      <feComposite in2="shadowGaussian" operator="atop" in="SourceAlpha" result="shadowComposite" />
      <feColorMatrix type="matrix" values="0 0 0 0 0  0 0 0 0 0  0 0 0 0 0  0 0 0 0.0470588235294118 0  " in="shadowComposite" />
    </filter>
    <g id="widget54">
      <path d="M 34.5 283  A 3.5 3.5 0 0 1 38 279.5 L 403 279.5  A 3.5 3.5 0 0 1 406.5 283 L 406.5 403  A 3.5 3.5 0 0 1 403 406.5 L 38 406.5  A 3.5 3.5 0 0 1 34.5 403 L 34.5 283  Z " fill-rule="nonzero" fill="#f2f2f2" stroke="none" fill-opacity="0.2" />
      <path d="M 34.5 283  A 3.5 3.5 0 0 1 38 279.5 L 403 279.5  A 3.5 3.5 0 0 1 406.5 283 L 406.5 403  A 3.5 3.5 0 0 1 403 406.5 L 38 406.5  A 3.5 3.5 0 0 1 34.5 403 L 34.5 283  Z " stroke-width="1" stroke="#d7d7d7" fill="none" />
    </g>
  </defs>
  <g transform="matrix(1 0 0 1 -29 -274 )">
    <use xlink:href="#widget54" filter="url(#filter53)" />
    <use xlink:href="#widget54" />
  </g>
</svg>