<?xml version="1.0" encoding="utf-8"?>
<svg version="1.1" xmlns:xlink="http://www.w3.org/1999/xlink" width="16px" height="13px" xmlns="http://www.w3.org/2000/svg">
  <g transform="matrix(1 0 0 1 -40 -50 )">
    <path d="M 16 6.15000000000001  C 16 5.78999999999999  15.7866666666666 5.55000000000001  15.4666666666667 5.55000000000001  L 1.81333333333336 5.55000000000001  L 5.81333333333336 1.05000000000001  C 6.02666666666664 0.810000000000002  6.02666666666664 0.449999999999989  5.81333333333336 0.210000000000008  C 5.60000000000001 -0.0300000000000011  5.28000000000003 -0.0300000000000011  5.06666666666668 0.210000000000008  L 0.159999999999997 5.73000000000002  C 0.106666666666641 5.78999999999999  0.0533333333333559 5.84999999999999  0.0533333333333559 5.91  C 0 6.03  0 6.21000000000001  0.0533333333333559 6.39000000000001  C 0.106666666666641 6.45000000000002  0.106666666666641 6.50999999999999  0.159999999999997 6.56999999999999  L 5.06666666666668 12.09  C 5.28000000000003 12.33  5.60000000000001 12.33  5.81333333333336 12.09  C 6.02666666666664 11.85  6.02666666666664 11.49  5.81333333333336 11.25  L 1.81333333333336 6.75  L 15.4666666666667 6.75  C 15.7866666666666 6.75  16 6.51000000000002  16 6.15000000000001  Z " fill-rule="nonzero" fill="#333333" stroke="none" transform="matrix(1 0 0 1 40 50 )" />
  </g>
</svg>