<?xml version="1.0" encoding="utf-8"?>
<svg version="1.1" xmlns:xlink="http://www.w3.org/1999/xlink" width="25px" height="25px" xmlns="http://www.w3.org/2000/svg">
  <g transform="matrix(1 0 0 1 -1673 -22 )">
    <path d="M 7.8125 7.8125  C 7.8125 6.53828125  7.19375 5.41875  6.25 4.70390625  L 6.25 2.34375  C 6.25 1.0515625  5.1984375 0  3.90625 0  C 2.6140625 0  1.5625 1.0515625  1.5625 2.34375  L 1.5625 4.70390625  C 0.61875 5.41875  0 6.53828125  0 7.8125  C 0 9.08671875  0.61875 10.20625  2 10.91953125  L 2 22.65625  C 1.5625 23.9484375  2.6140625 25  3.90625 25  C 5.1984375 25  6.25 23.9484375  6.25 22.65625  L 6.25 10.91953125  C 7.19375 10.20703125  7.8125 9.08671875  7.8125 7.8125  Z M 3.125 3.984375  L 3.125 2.34375  C 3.125 1.91227753919469  3.47477753919469 1.5625  3.90625 1.5625  C 4.33772246080531 1.5625  4.6875 1.91227753919469  4.6875 2.34375  L 4.6875 3.984375  C 4.17184983961857 3.88046024174531  3.64065016038143 3.88046024174531  3.125 3.984375  Z M 5 11.6390625  L 5 22.65625  C 4.6875 22.65625  4.6875 22.65625  4.6875 22.65625  C 4.6875 23.0877224608053  4.33772246080531 23.4375  3.90625 23.4375  C 3.47477753919469 23.4375  3.125 23.0877224608053  3.125 22.65625  L 3.125 11.6390625  C 3.64033104925559 11.7461283294164  4.17216895074441 11.7461283294164  5 11.6390625  Z M 6.25 7.8125  C 6.25 8.04140625  6.20703125 8.259375  6.14453125 8.46875  C 6.13203125 8.51015625  6.12109375 8.55078125  6.10625 8.5921875  C 6.03537097601604 8.7968001274135  5.93595186556987 8.99037807791187  5.8109375 9.1671875  L 5.8 9.1796875  C 5.66427901458611 9.36552094966058  5.50215239174337 9.53054269076838  5.31875 9.66953125  L 5.3109375 9.67578125  C 5.12265625 9.81796875  4.9125 9.93203125  4.68671875 10.01171875  C 4.4421875 10.1  4.18203125 10.15625  3.90625 10.15625  C 3.63046875 10.15625  3.3703125 10.1  3.125 10.0109375  C 2.90090869340702 9.93168188847679  2.69036602219544 9.8183735672991  2.50078125 9.675  L 2.49296875 9.66875  C 2.30956635825663 9.52976144076838  2.14743973541389 9.36473969966059  2.01171875 9.17890625  L 2.00078125 9.16640625  C 1.87607645317755 8.98940934947691  1.77668049730653 8.79587648301904  1.70546875 8.59140625  C 1.690625 8.55  1.6796875 8.509375  1.6671875 8.46796875  C 1.60079227025419 8.25568792784885  1.56552955164071 8.03490120458986  1.5625 7.8125  C 1.5625 7.58203125  1.60546875 7.3640625  1.66796875 7.1546875  C 1.68046875 7.11328125  1.69140625 7.07265625  1.70625 7.0328125  C 1.7796875 6.8265625  1.875 6.63125  2.0015625 6.45625  L 2.0125 6.44375  C 2.1484375 6.259375  2.31015625 6.09296875  2.49375 5.95390625  L 2.5015625 5.94765625  C 2.6890625 5.8078125  2.89921875 5.69296875  3.125 5.6125  C 3.3703125 5.525  3.63046875 5.46875  3.90625 5.46875  C 4.18203125 5.46875  4.4421875 5.525  4.6875 5.6125  C 4.91328125 5.69375  5.1234375 5.8078125  5.31171875 5.9484375  L 5.31953125 5.9546875  C 5.503125 6.09375  5.66484375 6.26015625  5.80078125 6.44453125  L 5.81171875 6.45703125  C 5.96138915413955 6.66904343362869  6.07392974948232 6.90495599616648  6.14453125 7.1546875  C 6.20703125 7.3640625  6.25 7.58203125  6.25 7.8125  Z M 25 7.8125  C 25 6.53828125  24.38046875 5.41875  23.4375 4.70390625  L 23.4375 2.34375  C 23.4375 1.0515625  22.3859375 0  21.09375 0  C 19.8015625 0  18.75 1.0515625  18.75 2.34375  L 18.75 4.70390625  C 17.80546875 5.41875  17.1875 6.53828125  17.1875 7.8125  C 17.1875 9.08671875  17.80546875 10.20625  18.75 10.91953125  L 18.75 22.65625  C 18.75 23.9484375  19.8015625 25  21.09375 25  C 22.3859375 25  23.4375 23.9484375  23 22.65625  L 23 10.91953125  C 24.38046875 10.20703125  25 9.08671875  25 7.8125  Z M 20.3125 3.984375  L 20.3125 2.34375  C 20.3125 1.91227753919469  20.6622775391947 1.5625  21.09375 1.5625  C 21.5252224608053 1.5625  21.875 1.91227753919469  21.875 2.34375  L 21.875 3.984375  C 21.359318646399 3.88077340199613  20.828181353601 3.88077340199613  20.3125 3.984375  Z M 21.875 11.6390625  L 21.875 22.65625  C 21.875 23.0877224608053  21.5252224608053 23.4375  21.09375 23.4375  C 20.6622775391947 23.4375  20.3125 23.0877224608053  20 22.65625  L 20 11.6390625  C 20.8277988995319 11.7464406654702  21.3597011004681 11.7464406654702  21.875 11.6390625  Z M 23.4375 7.8125  C 23.4375 8.04140625  23.39453125 8.259375  23.33203125 8.46875  C 23.31953125 8.51015625  23.3078125 8.55078125  23.29375 8.5921875  C 23.2225986602886 8.79683124552846  23.1229174621869 8.9904073980425  22.99765625 9.1671875  L 22.98671875 9.1796875  C 22.8510668736301 9.36532193992202  22.6892287371905 9.53031789365801  22.50625 9.66953125  L 22.4984375 9.67578125  C 22.309375 9.81796875  22.1 9.93203125  21.87421875 10.01171875  C 21.6244553978657 10.1049463569535  21.3603346867108 10.15385759976  21.09375 10.15625  C 20.8268218490457 10.1540536226858  20.5623661864194 10.1048648694373  20.3125 10.0109375  C 20.0852088218831 9.93066437944689  19.8719337131484 9.8151952847302  19.68046875 9.66875  C 19.496640596695 9.52998945667999  19.3342248658009 9.3649413800664  19.1984375 9.17890625  L 19.1875 9.16640625  C 19.0630337205987 8.98938546246647  18.9638991869619 8.79584960900043  18.89296875 8.59140625  C 18.87734375 8.55  18.8671875 8.509375  18.8546875 8.46796875  C 18.7882922702542 8.25568792784885  18.7530295516407 8.03490120458986  18.75 7.8125  C 18.75 7.58203125  18.79296875 7.3640625  18.85546875 7.1546875  C 18.86796875 7.11328125  18.878125 7.07265625  18.89375 7.0328125  C 18.9671875 6.8265625  19.06328125 6.63125  19.18828125 6.45625  L 19.19921875 6.44375  C 19.33515625 6.259375  19.496875 6.09296875  19.68125 5.95390625  L 19.6890625 5.94765625  C 19.8765625 5.80703125  20.0875 5.69296875  20.31328125 5.61171875  C 20.5632991013112 5.51960445489033  20.8273147112605 5.47124123504977  21.09375 5.46875  C 21.36875 5.46875  21.6296875 5.525  21.875 5.6125  C 22.1015569576681 5.6944184608094  22.314589890351 5.80975643919647  22.50703125 5.9546875  C 22.68984375 6.09375  22.8515625 6.26015625  22.9875 6.44453125  L 22.9984375 6.45703125  C 23.125 6.6328125  23.21953125 6.828125  23.29453125 7.03359375  C 23.30859375 7.0734375  23.3203125 7.11484375  23.3328125 7.15546875  C 23.39453125 7.3640625  23.4375 7.58203125  23.4375 7.8125  Z M 16.40625 17.1875  C 16.40625 15.91328125  15.78671875 14.79375  14.84375 14.07890625  L 14.84375 2.34375  C 14.84375 1.0515625  13.7921875 0  12.5 0  C 11.2078125 0  10.15625 1.0515625  10.15625 2.34375  L 10.15625 14.07890625  C 9.2125 14.79296875  8.59375 15.91328125  8.59375 17.1875  C 8.59375 18.46171875  9.2125 19.58125  10.15625 20.29453125  L 10.15625 22.65625  C 10.15625 23.9484375  11.2078125 25  12.5 25  C 13.7921875 25  14.84375 23.9484375  14.84375 22.65625  L 14.84375 20.29453125  C 15.78671875 19.58203125  16.40625 18.46171875  16.40625 17.1875  Z M 12 13.359375  L 12 2.34375  C 11.71875 2.34375  11.71875 2.34375  11.71875 2.34375  C 11.71875 1.91227753919469  12.0685275391947 1.5625  12.5 1.5625  C 12.9314724608053 1.5625  13.28125 1.91227753919469  13.28125 2.34375  C 13.28125 2.34375  13.28125 2.34375  13 2.34375  L 13 13.359375  C 12.7655998396186 13.2554602417453  12.2344001603814 13.2554602417453  12 13.359375  Z M 13.28125 21.0140625  L 13.28125 22.65625  C 13.28125 23.0877224608053  12.9314724608053 23.4375  12.5 23.4375  C 12.0685275391947 23.4375  11.71875 23.0877224608053  11.71875 22.65625  L 11.71875 21.0140625  C 12.2340810492556 21.1211283294164  12.7659189507444 21.1211283294164  13.28125 21.0140625  Z M 14.84375 17.1875  C 14.84375 17.41640625  14.80078125 17.634375  14.73828125 17.84375  C 14.72578125 17.88515625  14.7140625 17.92578125  14.7 17.9671875  C 14.6288486602886 18.1718312455285  14.5291674621869 18.3654073980425  14.40390625 18.5421875  L 14.39296875 18.5546875  C 14.2573168736301 18.740321939922  14.0954787371905 18.905317893658  13.9125 19.04453125  L 13.9046875 19.05078125  C 13.715625 19.19296875  13.50625 19.30703125  13.28046875 19.38671875  C 13.0307053978657 19.4799463569535  12.7665846867108 19.52885759976  12.5 19.53125  C 12.22421875 19.53125  11.9640625 19.475  11.71875 19.3859375  C 11.494658693407 19.3066818884768  11.2841160221954 19.1933735672991  11.09453125 19.05  L 11.08671875 19.04375  C 10.9033163582566 18.9047614407684  10.7411897354139 18.7397396996606  10.60546875 18.55390625  L 10.59453125 18.54140625  C 10.4698264531776 18.3644093494769  10.3704304973065 18.170876483019  10.29921875 17.96640625  C 10.284375 17.925  10.2734375 17.884375  10.2609375 17.84296875  C 10.1945422702542 17.6306879278489  10.1592795516407 17.4099012045899  10.15625 17.1875  C 10.15625 16.95703125  10.19921875 16.7390625  10.26171875 16.5296875  C 10.27421875 16.48828125  10.28515625 16.44765625  10.3 16.4078125  C 10.37421875 16.2015625  10.46953125 16.00625  10.5953125 15.83125  L 10.60625 15.81875  C 10.7421875 15.634375  10.90390625 15.46796875  11.0875 15.32890625  L 11.0953125 15.32265625  C 11.28359375 15.18203125  11.49375 15.06796875  11.71953125 14.98671875  C 11.9640625 14.9  12.22421875 14.84375  12.5 14.84375  C 12.775 14.84375  13.0359375 14.9  13.28125 14.9875  C 13.5078069576681 15.0694184608094  13.720839890351 15.1847564391965  13.91328125 15.3296875  C 14.09609375 15.46875  14.2578125 15.63515625  14.39375 15.81953125  L 14.4046875 15.83203125  C 14.53125 16.0078125  14.62578125 16.203125  14.70078125 16.40859375  C 14.71484375 16.4484375  14.7265625 16.48984375  14.7390625 16.53046875  C 14.80078125 16.7390625  14.84375 16.95703125  14.84375 17.1875  Z " fill-rule="nonzero" fill="#007cfd" stroke="none" transform="matrix(1 0 0 1 1673 22 )" />
  </g>
</svg>