<?xml version="1.0" encoding="utf-8"?>
<svg version="1.1" xmlns:xlink="http://www.w3.org/1999/xlink" width="80px" height="30px" xmlns="http://www.w3.org/2000/svg">
  <g transform="matrix(1 0 0 1 -1515 -552 )">
    <path d="M 1515.5 555  A 2.5 2.5 0 0 1 1518 552.5 L 1592 552.5  A 2.5 2.5 0 0 1 1594.5 555 L 1594.5 579  A 2.5 2.5 0 0 1 1592 581.5 L 1518 581.5  A 2.5 2.5 0 0 1 1515.5 579 L 1515.5 555  Z " fill-rule="nonzero" fill="#f9f9f9" stroke="none" />
    <path d="M 1515.5 555  A 2.5 2.5 0 0 1 1518 552.5 L 1592 552.5  A 2.5 2.5 0 0 1 1594.5 555 L 1594.5 579  A 2.5 2.5 0 0 1 1592 581.5 L 1518 581.5  A 2.5 2.5 0 0 1 1515.5 579 L 1515.5 555  Z " stroke-width="1" stroke="#e4e4e4" fill="none" />
  </g>
</svg>