<?xml version="1.0" encoding="utf-8"?>
<svg version="1.1" xmlns:xlink="http://www.w3.org/1999/xlink" width="25px" height="25px" xmlns="http://www.w3.org/2000/svg">
  <g transform="matrix(1 0 0 1 -978 -294 )">
    <path d="M 23.583447265625 1.382373046875  C 24.3442529296875 2.143212890625  24.3442529296875 3.3767919921875  23.583447265625 4.1376318359375  L 4.10341796875 23.617626953125  C 3.342578125 24.378466796875  2.109033203125 24.378466796875  1.348193359375 23.617626953125  C 0.587353515624999 22.856787109375  0.587353515624999 21.6232421875  1.348193359375 20.86240234375  L 20.8281884765625 1.382373046875  C 21.5890283203125 0.621533203125  22.8225732421875 0.621533203125  23.5834130859375 1.382373046875  Z M 15.4052734375 19.130859375  C 15.4052734375 17.0732763671875  17.0732763671875 15.4052734375  19.130859375 15.4052734375  C 21.1884423828125 15.4052734375  22.8564453125 17.0732763671875  22.8564453125 19.130859375  C 22.8564453125 21.1884423828125  21.1884423828125 22.8564453125  19.130859375 22.8564453125  C 17.0732763671875 22.8564453125  15.4052734375 21.1884423828125  15.4052734375 19.130859375  Z M 2.109375 5.8349609375  C 2.109375 3.7773779296875  3.7773779296875 2.109375  5.8349609375 2.109375  C 7.8925439453125 2.109375  9.560546875 3.7773779296875  9.560546875 5.8349609375  C 9.560546875 7.8925439453125  7.8925439453125 9.560546875  5.8349609375 9.560546875  C 3.7773779296875 9.560546875  2.109375 7.8925439453125  2.109375 5.8349609375  Z " fill-rule="nonzero" fill="#ffffff" stroke="none" transform="matrix(1 0 0 1 978 294 )" />
  </g>
</svg>