<?xml version="1.0" encoding="utf-8"?>
<svg version="1.1" xmlns:xlink="http://www.w3.org/1999/xlink" width="56px" height="56px" xmlns="http://www.w3.org/2000/svg">
  <g transform="matrix(1 0 0 1 -654 -278 )">
    <path d="M 56 28  C 56 12.6  43.4 0  28 0  C 12.6 0  0 12.6  0 28  C 0 43.4  12.6 56  28 56  C 43.4 56  56 43.4  56 28  Z M 31.5 40.25  C 31.5 42.35  30.1 43.75  28 43.75  C 25.9 43.75  24.5 42.35  24.5 40.25  C 24.5 38.15  25.9 36.75  28 36.75  C 30.1 36.75  31.5 38.15  31.5 40.25  Z M 31.5 15.75  C 31.5 17.5  30.8 33.25  28 33.25  C 25.2 33.25  24.5 17.85  24.5 15.75  C 24.5 13.65  25.9 12.25  28 12.25  C 30.1 12.25  31.5 13.65  31.5 15.75  Z " fill-rule="nonzero" fill="#f9bf00" stroke="none" transform="matrix(1 0 0 1 654 278 )" />
  </g>
</svg>