<?xml version="1.0" encoding="utf-8"?>
<svg version="1.1" xmlns:xlink="http://www.w3.org/1999/xlink" width="22px" height="22px" xmlns="http://www.w3.org/2000/svg">
  <g transform="matrix(1 0 0 1 -789 -817 )">
    <path d="M 20.8222695957031 15.0670578007812  C 20.2594611914062 16.3671927246094  19.4983766699219 17.4967597363281  18.5390635332031 18.4557301972656  C 17.5800930722656 19.4150433339844  16.4541098046875 20.1764443417969  15.162110734375 20.7389362597656  C 13.8697975410156 21.3020874042969  12.4863500566406 21.5833333417969  11.0117207363281 21.5833333417969  C 9.53745793945312 21.5833333417969  8.15008652734375 21.3020874042969  6.84960886328125 20.7389362597656  C 5.54947389648437 20.1764443417969  4.41990692773437 19.4150433339844  3.46093646679687 18.4557301972656  C 2.5016233515625 17.4967359316406  1.74022230078125 16.3671927246094  1.1777303828125 15.0670578007812  C 0.614579302734375 13.7666039414062  0.33333334375 12.3792349355469  0.33333334375 10.9049459277344  C 0.33333334375 9.43031660742188  0.614579302734375 8.04686912304688  1.1777303828125 6.75455597265625  C 1.74022230078125 5.462559265625  2.5016233515625 4.3365759765625  3.46093646679687 3.37760313085938  C 4.41990692773437 2.41829003710938  5.54947389648437 1.65720545117187  6.84960886328125 1.094397046875  C 8.15008652734375 0.53158862109375  9.53745553320313 0.2500000078125  11.0117207363281 0.2500000078125  C 12.4863500566406 0.2500000078125  13.8697975410156 0.5315862578125  15.162110734375 1.094397046875  C 16.45408359375 1.657231640625  17.5800906660156 2.41829003710938  18.5390635332031 3.37760313085938  C 19.4983766699219 4.33659739648437  20.2594350019531 5.4625830703125  20.8222695957031 6.75455597265625  C 21.3850780644531 8.04686912304688  21.66666665625 9.43031660742188  21.66666665625 10.9049459277344  C 21.66666665625 12.3792349355469  21.3851018691406 13.7666039414062  20.8222695957031 15.0670578007812  Z " fill-rule="nonzero" fill="#ff2e00" stroke="none" transform="matrix(1 0 0 1 789 817 )" />
  </g>
</svg>