<?xml version="1.0" encoding="utf-8"?>
<svg version="1.1" xmlns:xlink="http://www.w3.org/1999/xlink" width="61px" height="61px" xmlns="http://www.w3.org/2000/svg">
  <g transform="matrix(1 0 0 1 -523 -456 )">
    <path d="M 553.5 456  C 570.58 456  584 469.42  584 486.5  C 584 503.58  570.58 517  553.5 517  C 536.42 517  523 503.58  523 486.5  C 523 469.42  536.42 456  553.5 456  Z " fill-rule="nonzero" fill="#ffffff" stroke="none" />
    <path d="M 553.5 456.5  C 570.3 456.5  583.5 469.7  583.5 486.5  C 583.5 503.3  570.3 516.5  553.5 516.5  C 536.7 516.5  523.5 503.3  523.5 486.5  C 523.5 469.7  536.7 456.5  553.5 456.5  Z " stroke-width="1" stroke="#ffffff" fill="none" />
  </g>
</svg>