<?xml version="1.0" encoding="utf-8"?>
<svg version="1.1" xmlns:xlink="http://www.w3.org/1999/xlink" width="12px" height="14px" xmlns="http://www.w3.org/2000/svg">
  <g transform="matrix(1 0 0 1 -59 -365 )">
    <path d="M 0.264282352941167 13.10456  L 0.265411764705881 13.10456  L 0.265411764705881 10.77496  C 0.265411764705881 10.42104  0.54776470588235 10.11752  0.897882352941175 10.11752  L 1.32931764705882 10.11752  L 4.62268235294117 5.37992  L 4.48941176470587 5.27911999999999  C 3.75616910258419 4.76451202271249  3.32201363660819 3.92768087462843  3.32611764705882 3.03688  C 3.32611764705882 1.53608  4.52329411764705 0.321999999999996  5.98588235294117 0.321999999999996  C 7.44959999999999 0.321999999999996  8.64790588235293 1.53608  8.64790588235293 3.03688  C 8.64790588235293 3.93064  8.21534117647058 4.77287999999999  7.48348235294117 5.27912  L 7.35021176470588 5.37992  L 10.6435764705882 10.11752  L 11.0761411764706 10.11752  C 11.4251294117647 10.11752  11.7086117647059 10.40424  11.7086117647059 10.77496  L 11.7086117647059 13.10456  C 11.7086117647059 13.27256  11.6408470588235 13.44168  11.5245176470588 13.55928  C 11.4057793612462 13.6776836325197  11.244528755823 13.7445464465316  11.0761411764706 13.7452  L 0.896752941176462 13.7452  C 0.546635294117637 13.762  0.264282352941167 13.4764  0.264282352941167 13.10456  Z M 1.53035294117647 12.44712  L 1.52922352941176 12.44712  L 10.4267294117647 12.44712  L 10.4267294117647 11.4324  L 1.53035294117647 11.4324  L 1.53035294117647 13.11912  L 1.53035294117647 12.44712  Z M 2.90936470588235 10.11752  L 9.08047058823529 10.11752  L 6.40263529411765 6.27368  L 5.57025882352941 6.27368  L 2.90936470588235 10.11752  Z M 7.36715294117647 3.03688  C 7.36715294117647 2.24391999999999  6.75162352941176 1.62007999999999  5.98588235294117 1.62007999999999  C 5.22127058823529 1.62007999999999  4.60574117647059 2.26071999999999  4.60574117647059 3.03688  C 4.60574117647059 3.81191999999999  5.22127058823529 4.45255999999999  5.98588235294117 4.45255999999999  C 6.75162352941176 4.45255999999999  7.36715294117647 3.81191999999999  7.36715294117647 3.03688  Z " fill-rule="nonzero" fill="#006eff" stroke="none" transform="matrix(1 0 0 1 59 365 )" />
  </g>
</svg>