<?xml version="1.0" encoding="utf-8"?>
<svg version="1.1" xmlns:xlink="http://www.w3.org/1999/xlink" width="28px" height="30px" xmlns="http://www.w3.org/2000/svg">
  <g transform="matrix(1 0 0 1 -43 -349 )">
    <path d="M 27.6960405063291 1.96057142857143  L 27.6960405063291 14.4188571428571  C 26.1082766160154 13.5933780022785  24.3471289427611 13.1638307572987  22.5604860759494 13.1662857142857  C 20.9896929505414 13.1634771493964  19.4360109013849 13.4948956007707  18.0010936708861 14.1388571428571  L 5.43441012658228 14.1388571428571  L 5.43441012658228 16.5617142857143  L 14.5452556962025 16.5617142857143  C 13.7498834783698 17.3779541184003  13.0811468818016 18.3103313845051  12.5615797468354 19.3274285714286  L 5.43554430379747 19.3274285714286  L 5.43554430379747 21.7502857142857  L 11.6576405063291 21.7502857142857  C 11.4333949411451 22.6555907843832  11.3202656617516 23.5852071032085  11.3207898734177 24.5182857142857  C 11.3207898734177 26.388  11.7687898734177 28.1502857142857  12.5615797468354 29.7068571428571  L 1.94568101265823 29.7068571428571  C 1.03607088607595 29.7068571428571  0.297721518987339 28.964  0.297721518987339 28.0474285714286  L 0.297721518987339 1.96057142857143  C 0.297721518987339 1.044  1.03493670886076 0.3  1.94568101265823 0.3  L 26.0480810126582 0.3  C 26.9588253164557 0.3  27.6960405063291 1.04285714285714  27.6960405063291 1.96057142857143  Z M 15.7111898734177 9  L 5.43554430379747 9  L 5.43554430379747 11.372  L 15.7111898734177 11.372  L 15.7111898734177 9  Z " fill-rule="nonzero" fill="#ffffff" stroke="none" transform="matrix(1 0 0 1 43 349 )" />
  </g>
</svg>