<?xml version="1.0" encoding="utf-8"?>
<svg version="1.1" xmlns:xlink="http://www.w3.org/1999/xlink" width="18px" height="18px" xmlns="http://www.w3.org/2000/svg">
  <g transform="matrix(1 0 0 1 -56 -364 )">
    <path d="M 6.9203076923077 0.29686153846154  C 7.62257773860387 0.117822713654193  8.3444976933303 0.0273966574693895  9.06923076923077 0.0276923076923071  C 9.07005302097589 0.027692072936068  9.07087527272919 0.027691955557951  9.07169752450783 0.027691955557951  C 13.8434377630459 0.027691955557951  17.7116975245078 3.8959517170199  17.7116975245078 8.66769195555795  C 17.7116975245078 9.33378176376555  17.6346713601549 9.99763733888082  17.4821538461538 10.6460307692308  C 16.6657846153846 14.6603076923077  13.1244923076923 17.6809846153846  8.87981538461539 17.6809846153846  C 4.02876873082979 17.6754870280384  0.0991314755125427 13.7413938754697  0.0991314755125427 8.89034410653602  C 0.0991314755125427 8.88664991607941  0.0991338041883155 8.88295572598234  0.0991384615384641 8.87926153846153  C 0.095334023737606 4.77854431825823  2.92456899117777 1.21879886068656  6.9203076923077 0.29686153846154  Z " fill-rule="nonzero" fill="#ffffff" stroke="none" transform="matrix(1 0 0 1 56 364 )" />
  </g>
</svg>