<?xml version="1.0" encoding="utf-8"?>
<svg version="1.1" xmlns:xlink="http://www.w3.org/1999/xlink" width="15px" height="15px" viewBox="433 265  15 15" xmlns="http://www.w3.org/2000/svg">
  <path d="M 440.5 265  C 444.7 265  448 268.3  448 272.5  C 448 276.7  444.7 280  440.5 280  C 436.3 280  433 276.7  433 272.5  C 433 268.3  436.3 265  440.5 265  Z " fill-rule="nonzero" fill="#ffffff" stroke="none" />
  <path d="M 440.5 265.5  C 444.42 265.5  447.5 268.58  447.5 272.5  C 447.5 276.42  444.42 279.5  440.5 279.5  C 436.58 279.5  433.5 276.42  433.5 272.5  C 433.5 268.58  436.58 265.5  440.5 265.5  Z " stroke-width="1" stroke="#4284f5" fill="none" />
  <path d="M 440.5 276.25  C 438.4 276.25  436.75 274.6  436.75 272.5  C 436.75 270.4  438.4 268.75  440.5 268.75  C 442.6 268.75  444.25 270.4  444.25 272.5  C 444.25 274.6  442.6 276.25  440.5 276.25  " fill-rule="nonzero" fill="#4284f5" stroke="none" />
</svg>