<?xml version="1.0" encoding="utf-8"?>
<svg version="1.1" xmlns:xlink="http://www.w3.org/1999/xlink" width="15px" height="15px" viewBox="333 265  15 15" xmlns="http://www.w3.org/2000/svg">
  <path d="M 340.5 265  C 344.7 265  348 268.3  348 272.5  C 348 276.7  344.7 280  340.5 280  C 336.3 280  333 276.7  333 272.5  C 333 268.3  336.3 265  340.5 265  Z " fill-rule="nonzero" fill="#ffffff" stroke="none" />
  <path d="M 340.5 265.5  C 344.42 265.5  347.5 268.58  347.5 272.5  C 347.5 276.42  344.42 279.5  340.5 279.5  C 336.58 279.5  333.5 276.42  333.5 272.5  C 333.5 268.58  336.58 265.5  340.5 265.5  Z " stroke-width="1" stroke="#4284f5" fill="none" />
  <path d="M 340.5 276.25  C 338.4 276.25  336.75 274.6  336.75 272.5  C 336.75 270.4  338.4 268.75  340.5 268.75  C 342.6 268.75  344.25 270.4  344.25 272.5  C 344.25 274.6  342.6 276.25  340.5 276.25  " fill-rule="nonzero" fill="#4284f5" stroke="none" />
</svg>