<?xml version="1.0" encoding="utf-8"?>
<svg version="1.1" xmlns:xlink="http://www.w3.org/1999/xlink" width="15px" height="15px" viewBox="-70 752  15 15" xmlns="http://www.w3.org/2000/svg">
  <path d="M -62.5 752  C -58.3 752  -55 755.3  -55 759.5  C -55 763.7  -58.3 767  -62.5 767  C -66.7 767  -70 763.7  -70 759.5  C -70 755.3  -66.7 752  -62.5 752  Z " fill-rule="nonzero" fill="#ffffff" stroke="none" />
  <path d="M -62.5 752.5  C -58.58 752.5  -55.5 755.58  -55.5 759.5  C -55.5 763.42  -58.58 766.5  -62.5 766.5  C -66.42 766.5  -69.5 763.42  -69.5 759.5  C -69.5 755.58  -66.42 752.5  -62.5 752.5  Z " stroke-width="1" stroke="#4284f5" fill="none" />
  <path d="M -62.5 763.25  C -64.6 763.25  -66.25 761.6  -66.25 759.5  C -66.25 757.4  -64.6 755.75  -62.5 755.75  C -60.4 755.75  -58.75 757.4  -58.75 759.5  C -58.75 761.6  -60.4 763.25  -62.5 763.25  " fill-rule="nonzero" fill="#4284f5" stroke="none" />
</svg>