<?xml version="1.0" encoding="utf-8"?>
<svg version="1.1" xmlns:xlink="http://www.w3.org/1999/xlink" width="15px" height="15px" viewBox="233 265  15 15" xmlns="http://www.w3.org/2000/svg">
  <path d="M 240.5 265  C 244.7 265  248 268.3  248 272.5  C 248 276.7  244.7 280  240.5 280  C 236.3 280  233 276.7  233 272.5  C 233 268.3  236.3 265  240.5 265  Z " fill-rule="nonzero" fill="#ffffff" stroke="none" />
  <path d="M 240.5 265.5  C 244.42 265.5  247.5 268.58  247.5 272.5  C 247.5 276.42  244.42 279.5  240.5 279.5  C 236.58 279.5  233.5 276.42  233.5 272.5  C 233.5 268.58  236.58 265.5  240.5 265.5  Z " stroke-width="1" stroke="#4284f5" fill="none" />
  <path d="M 240.5 276.25  C 238.4 276.25  236.75 274.6  236.75 272.5  C 236.75 270.4  238.4 268.75  240.5 268.75  C 242.6 268.75  244.25 270.4  244.25 272.5  C 244.25 274.6  242.6 276.25  240.5 276.25  " fill-rule="nonzero" fill="#4284f5" stroke="none" />
</svg>