<?xml version="1.0" encoding="utf-8"?>
<svg version="1.1" xmlns:xlink="http://www.w3.org/1999/xlink" width="15px" height="15px" viewBox="-170 752  15 15" xmlns="http://www.w3.org/2000/svg">
  <path d="M -162.5 752  C -158.3 752  -155 755.3  -155 759.5  C -155 763.7  -158.3 767  -162.5 767  C -166.7 767  -170 763.7  -170 759.5  C -170 755.3  -166.7 752  -162.5 752  Z " fill-rule="nonzero" fill="#ffffff" stroke="none" />
  <path d="M -162.5 752.5  C -158.58 752.5  -155.5 755.58  -155.5 759.5  C -155.5 763.42  -158.58 766.5  -162.5 766.5  C -166.42 766.5  -169.5 763.42  -169.5 759.5  C -169.5 755.58  -166.42 752.5  -162.5 752.5  Z " stroke-width="1" stroke="#4284f5" fill="none" />
  <path d="M -162.5 763.25  C -164.6 763.25  -166.25 761.6  -166.25 759.5  C -166.25 757.4  -164.6 755.75  -162.5 755.75  C -160.4 755.75  -158.75 757.4  -158.75 759.5  C -158.75 761.6  -160.4 763.25  -162.5 763.25  " fill-rule="nonzero" fill="#4284f5" stroke="none" />
</svg>