<?xml version="1.0" encoding="utf-8"?>
<svg version="1.1" xmlns:xlink="http://www.w3.org/1999/xlink" width="15px" height="15px" viewBox="175 412  15 15" xmlns="http://www.w3.org/2000/svg">
  <path d="M 182.5 412  C 186.7 412  190 415.3  190 419.5  C 190 423.7  186.7 427  182.5 427  C 178.3 427  175 423.7  175 419.5  C 175 415.3  178.3 412  182.5 412  Z " fill-rule="nonzero" fill="#ffffff" stroke="none" />
  <path d="M 182.5 412.5  C 186.42 412.5  189.5 415.58  189.5 419.5  C 189.5 423.42  186.42 426.5  182.5 426.5  C 178.58 426.5  175.5 423.42  175.5 419.5  C 175.5 415.58  178.58 412.5  182.5 412.5  Z " stroke-width="1" stroke="#4284f5" fill="none" />
  <path d="M 182.5 423.25  C 180.4 423.25  178.75 421.6  178.75 419.5  C 178.75 417.4  180.4 415.75  182.5 415.75  C 184.6 415.75  186.25 417.4  186.25 419.5  C 186.25 421.6  184.6 423.25  182.5 423.25  " fill-rule="nonzero" fill="#4284f5" stroke="none" />
</svg>