<?xml version="1.0" encoding="utf-8"?>
<svg version="1.1" xmlns:xlink="http://www.w3.org/1999/xlink" width="15px" height="15px" viewBox="275 412  15 15" xmlns="http://www.w3.org/2000/svg">
  <path d="M 282.5 412  C 286.7 412  290 415.3  290 419.5  C 290 423.7  286.7 427  282.5 427  C 278.3 427  275 423.7  275 419.5  C 275 415.3  278.3 412  282.5 412  Z " fill-rule="nonzero" fill="#ffffff" stroke="none" />
  <path d="M 282.5 412.5  C 286.42 412.5  289.5 415.58  289.5 419.5  C 289.5 423.42  286.42 426.5  282.5 426.5  C 278.58 426.5  275.5 423.42  275.5 419.5  C 275.5 415.58  278.58 412.5  282.5 412.5  Z " stroke-width="1" stroke="#4284f5" fill="none" />
  <path d="M 282.5 423.25  C 280.4 423.25  278.75 421.6  278.75 419.5  C 278.75 417.4  280.4 415.75  282.5 415.75  C 284.6 415.75  286.25 417.4  286.25 419.5  C 286.25 421.6  284.6 423.25  282.5 423.25  " fill-rule="nonzero" fill="#4284f5" stroke="none" />
</svg>