<?xml version="1.0" encoding="utf-8"?>
<svg version="1.1" xmlns:xlink="http://www.w3.org/1999/xlink" width="51px" height="40px" xmlns="http://www.w3.org/2000/svg">
  <g transform="matrix(1 0 0 1 -1037 -275 )">
    <path d="M 46.75 1  L 4.25 1  C 2.29399151101594 0.357142857142857  0.708333333333333 1.95612589346145  1 3.92857142857143  L 1 36.0714285714286  C 0.708333333333333 38.0438741065385  2.29399151101594 39.6428571428571  4.25 39  L 46.75 39  C 48.7060084889841 39.6428571428571  50.2916666666667 38.0438741065385  50 36.0714285714286  L 50 3.92857142857143  C 50.2916666666667 1.95612589346145  48.7060084889841 0.357142857142857  46.75 1  Z M 5 4  L 46 4  L 46 31.7321428571429  L 35.2325 20.1178571428571  C 34.5409898463272 19.4207465386913  33.4200518203395 19.4207465386913  32.7285416666667 20.1178571428571  L 26.9095833333333 25.9821428571429  L 15.4239583333333 14.4  C 14.7324481796605 13.7028893958342  13.6115101536728 13.7028893958342  12.92 14.4  L 5 23.1392857142857  L 5 4  Z " fill-rule="nonzero" fill="#555555" stroke="none" transform="matrix(1 0 0 1 1037 275 )" />
  </g>
</svg>