<?xml version="1.0" encoding="utf-8"?>
<svg version="1.1" xmlns:xlink="http://www.w3.org/1999/xlink" width="102px" height="80px" xmlns="http://www.w3.org/2000/svg">
  <g transform="matrix(1 0 0 1 -257 -300 )">
    <path d="M 93.5 1  L 8.5 1  C 4.58798302203188 0.714285714285714  1.41666666666667 3.9122517869229  2 7.85714285714286  L 2 72.1428571428571  C 1.41666666666667 76.0877482130771  4.58798302203188 79.2857142857143  8.5 79  L 93.5 79  C 97.4120169779681 79.2857142857143  100.583333333333 76.0877482130771  100 72.1428571428571  L 100 7.85714285714286  C 100.583333333333 3.9122517869229  97.4120169779681 0.714285714285714  93.5 1  Z M 9 8  L 93 8  L 93 63.4642857142857  L 70.465 40.2357142857143  C 69.0819796926544 38.8414930773826  66.8401036406789 38.8414930773826  65.4570833333333 40.2357142857143  L 53.8191666666667 51.9642857142857  L 30.8479166666667 28.8  C 29.4648963593211 27.4057787916684  27.2230203073456 27.4057787916684  25.84 28.8  L 9 46.2785714285714  L 9 8  Z " fill-rule="nonzero" fill="#555555" stroke="none" transform="matrix(1 0 0 1 257 300 )" />
  </g>
</svg>