<?xml version="1.0" encoding="utf-8"?>
<svg version="1.1" xmlns:xlink="http://www.w3.org/1999/xlink" width="29px" height="29px" xmlns="http://www.w3.org/2000/svg">
  <g transform="matrix(1 0 0 1 -961 -458 )">
    <path d="M 29 14.9375  C 29 7.175  22.7 0.875  14.9375 0.875  C 7.175 0.875  0.875 7.175  0.875 14.9375  C 0.875 22.7  7.175 29  14.9375 29  C 22.7 29  29 22.7  29 14.9375  Z M 21.21875 19.8875  C 21.59375 20.24375  21.59375 20.84375  21.2375 21.21875  C 20.8625 21.59375  20.2625 21.59375  19.90625 21.21875  L 14.88125 16.15625  L 9.78125 21.2  C 9.40625 21.575  8.80625 21.575  8.43125 21.2  C 8.05625 20.825  8.05625 20.225  8.43125 19.86875  L 13.55 14.80625  L 8.7125 9.96875  C 8.3375 9.59375  8.3375 8.99375  8.7125 8.6375  C 9.0875 8.2625  9.6875 8.2625  10.04375 8.6375  L 14.88125 13.49375  L 19.79375 8.6375  C 20.16875 8.2625  20.76875 8.2625  21.14375 8.6375  C 21.51875 9.0125  21.51875 9.6125  21.14375 9.96875  L 16.2125 14.84375  L 21.21875 19.8875  Z " fill-rule="nonzero" fill="#000000" stroke="none" transform="matrix(1 0 0 1 961 458 )" />
  </g>
</svg>