<?xml version="1.0" encoding="utf-8"?>
<svg version="1.1" xmlns:xlink="http://www.w3.org/1999/xlink" width="300px" height="240px" xmlns="http://www.w3.org/2000/svg">
  <g transform="matrix(1 0 0 1 -637 -508 )">
    <path d="M 91.25 48.75  C 97.0833333333333 54.5833333333333  100 61.6666666666666  100 70  C 100 78.3333333333333  97.0833333333333 85.4166666666667  91.25 91.25  C 85.4166666666667 97.0833333333333  78.3333333333333 100  70 100  C 61.6666666666667 100  54.5833333333333 97.0833333333333  48.75 91.25  C 42.9166666666667 85.4166666666667  40 78.3333333333333  40 70  C 40 61.6666666666666  42.9166666666667 54.5833333333333  48.75 48.75  C 54.5833333333333 42.9166666666666  61.6666666666667 40  70 40  C 78.3333333333333 40  85.4166666666667 42.9166666666666  91.25 48.75  Z M 195 65  L 260 130  L 260 200  L 40 200  L 40 170  L 90 120  L 115 145  L 195 65  Z M 278.515625 21.484375  C 277.526041666667 20.4947916666666  276.354166666667 20  275 20  L 25 20  C 23.6458333333333 20  22.4739583333333 20.4947916666666  21.484375 21.484375  C 20.4947916666667 22.4739583333333  20 23.6458333333333  20 25  L 20 215  C 20 216.354166666667  20.4947916666667 217.526041666667  21.484375 218.515625  C 22.4739583333333 219.505208333333  23.6458333333333 220  25 220  L 275 220  C 276.354166666667 220  277.526041666667 219.505208333333  278.515625 218.515625  C 279.505208333333 217.526041666667  280 216.354166666667  280 215  L 280 25  C 280 23.6458333333333  279.505208333333 22.4739583333333  278.515625 21.484375  Z M 292.65625 7.34375000000001  C 297.552083333333 12.2395833333333  300 18.125  300 25  L 300 215  C 300 221.875  297.552083333333 227.760416666667  292.65625 232.65625  C 287.760416666667 237.552083333333  281.875 240  275 240  L 25 240  C 18.125 240  12.2395833333333 237.552083333333  7.34375 232.65625  C 2.44791666666667 227.760416666667  0 221.875  0 215  L 0 25  C 0 18.125  2.44791666666667 12.2395833333333  7.34375 7.34375000000001  C 12.2395833333333 2.44791666666664  18.125 0  25 0  L 275 0  C 281.875 0  287.760416666667 2.44791666666664  292.65625 7.34375000000001  Z " fill-rule="nonzero" fill="#000000" stroke="none" transform="matrix(1 0 0 1 637 508 )" />
  </g>
</svg>