<?xml version="1.0" encoding="utf-8"?>
<svg version="1.1" xmlns:xlink="http://www.w3.org/1999/xlink" width="20px" height="20px" xmlns="http://www.w3.org/2000/svg">
  <g transform="matrix(1 0 0 1 -36 -154 )">
    <path d="M 46 154  C 51.6 154  56 158.4  56 164  C 56 169.6  51.6 174  46 174  C 40.4 174  36 169.6  36 164  C 36 158.4  40.4 154  46 154  Z " fill-rule="nonzero" fill="#ffffff" stroke="none" />
    <path d="M 46 154.5  C 51.32 154.5  55.5 158.68  55.5 164  C 55.5 169.32  51.32 173.5  46 173.5  C 40.68 173.5  36.5 169.32  36.5 164  C 36.5 158.68  40.68 154.5  46 154.5  Z " stroke-width="1" stroke="#1abc9c" fill="none" />
  </g>
</svg>