<?xml version="1.0" encoding="utf-8"?>
<svg version="1.1" xmlns:xlink="http://www.w3.org/1999/xlink" width="15px" height="15px" viewBox="754 1540  15 15" xmlns="http://www.w3.org/2000/svg">
  <path d="M 761.5 1540  C 765.7 1540  769 1543.3  769 1547.5  C 769 1551.7  765.7 1555  761.5 1555  C 757.3 1555  754 1551.7  754 1547.5  C 754 1543.3  757.3 1540  761.5 1540  Z " fill-rule="nonzero" fill="#ffffff" stroke="none" />
  <path d="M 761.5 1540.5  C 765.42 1540.5  768.5 1543.58  768.5 1547.5  C 768.5 1551.42  765.42 1554.5  761.5 1554.5  C 757.58 1554.5  754.5 1551.42  754.5 1547.5  C 754.5 1543.58  757.58 1540.5  761.5 1540.5  Z " stroke-width="1" stroke="#4284f5" fill="none" />
  <path d="M 761.5 1551.25  C 759.4 1551.25  757.75 1549.6  757.75 1547.5  C 757.75 1545.4  759.4 1543.75  761.5 1543.75  C 763.6 1543.75  765.25 1545.4  765.25 1547.5  C 765.25 1549.6  763.6 1551.25  761.5 1551.25  " fill-rule="nonzero" fill="#4284f5" stroke="none" />
</svg>