<?xml version="1.0" encoding="utf-8"?>
<svg version="1.1" xmlns:xlink="http://www.w3.org/1999/xlink" width="15px" height="15px" viewBox="669 1540  15 15" xmlns="http://www.w3.org/2000/svg">
  <path d="M 676.5 1540  C 680.7 1540  684 1543.3  684 1547.5  C 684 1551.7  680.7 1555  676.5 1555  C 672.3 1555  669 1551.7  669 1547.5  C 669 1543.3  672.3 1540  676.5 1540  Z " fill-rule="nonzero" fill="#f0f0f0" stroke="none" />
  <path d="M 676.5 1540.5  C 680.42 1540.5  683.5 1543.58  683.5 1547.5  C 683.5 1551.42  680.42 1554.5  676.5 1554.5  C 672.58 1554.5  669.5 1551.42  669.5 1547.5  C 669.5 1543.58  672.58 1540.5  676.5 1540.5  Z " stroke-width="1" stroke="#4284f5" fill="none" />
  <path d="M 676.5 1551.25  C 674.4 1551.25  672.75 1549.6  672.75 1547.5  C 672.75 1545.4  674.4 1543.75  676.5 1543.75  C 678.6 1543.75  680.25 1545.4  680.25 1547.5  C 680.25 1549.6  678.6 1551.25  676.5 1551.25  " fill-rule="nonzero" fill="#4284f5" stroke="none" />
</svg>