<?xml version="1.0" encoding="utf-8"?>
<svg version="1.1" xmlns:xlink="http://www.w3.org/1999/xlink" width="100px" height="35px" xmlns="http://www.w3.org/2000/svg">
  <g transform="matrix(1 0 0 1 -30 -1265 )">
    <path d="M 31 1270  A 4 4 0 0 1 35 1266 L 125 1266  A 4 4 0 0 1 129 1270 L 129 1295  A 4 4 0 0 1 125 1299 L 35 1299  A 4 4 0 0 1 31 1295 L 31 1270  Z " fill-rule="nonzero" fill="#f0f7ff" stroke="none" />
    <path d="M 30.5 1270  A 4.5 4.5 0 0 1 35 1265.5 L 125 1265.5  A 4.5 4.5 0 0 1 129.5 1270 L 129.5 1295  A 4.5 4.5 0 0 1 125 1299.5 L 35 1299.5  A 4.5 4.5 0 0 1 30.5 1295 L 30.5 1270  Z " stroke-width="1" stroke="#7abbff" fill="none" stroke-opacity="0.996078431372549" />
  </g>
</svg>