<?xml version="1.0" encoding="utf-8"?>
<svg version="1.1" xmlns:xlink="http://www.w3.org/1999/xlink" width="12px" height="12px" xmlns="http://www.w3.org/2000/svg">
  <g transform="matrix(1 0 0 1 -1186 -49 )">
    <path d="M 3.954 1.146  C 4.598 0.87  5.288 0.732  6.024 0.732  C 6.752 0.732  7.438 0.87  8.082 1.146  C 8.726 1.422  9.288 1.8  9.768 2.28  C 10.248 2.76  10.626 3.322  10.902 3.966  C 11.178 4.61  11.316 5.296  11.316 6.024  C 11.316 6.76  11.178 7.448  10.902 8.088  C 10.626 8.728  10.248 9.288  9.768 9.768  C 9.288 10.248  8.726 10.626  8.082 10.902  C 7.438 11.178  6.752 11.316  6.024 11.316  C 5.288 11.316  4.598 11.178  3.954 10.902  C 3.31 10.626  2.748 10.248  2.268 9.768  C 1.788 9.288  1.41 8.728  1.134 8.088  C 0.858 7.448  0.72 6.76  0.72 6.024  C 0.72 5.296  0.858 4.61  1.134 3.966  C 1.41 3.322  1.788 2.76  2.268 2.28  C 2.748 1.8  3.31 1.422  3.954 1.146  Z M 6.792 6.756  L 9.048 6.756  C 9.256 6.756  9.432 6.682  9.576 6.534  C 9.72 6.386  9.792 6.208  9.792 6  C 9.792 5.792  9.72 5.616  9.576 5.472  C 9.432 5.328  9.256 5.256  9.048 5.256  L 6.792 5.256  L 6.792 3  C 6.792 2.792  6.718 2.614  6.57 2.466  C 6.422 2.318  6.244 2.244  6.036 2.244  C 5.828 2.244  5.652 2.318  5.508 2.466  C 5.364 2.614  5.292 2.792  5.292 3  L 5.292 5.256  L 3.036 5.256  C 2.828 5.256  2.652 5.328  2.508 5.472  C 2.364 5.616  2.292 5.792  2.292 6  C 2.292 6.208  2.364 6.386  2.508 6.534  C 2.652 6.682  2.828 6.756  3.036 6.756  L 5.292 6.756  L 5.292 9  C 5.292 9.208  5.364 9.386  5.508 9.534  C 5.652 9.682  5.828 9.756  6.036 9.756  C 6.244 9.756  6.422 9.682  6.57 9.534  C 6.718 9.386  6.792 9.208  6.792 9  L 6.792 6.756  Z " fill-rule="nonzero" fill="#555555" stroke="none" transform="matrix(1 0 0 1 1186 49 )" />
  </g>
</svg>