<?xml version="1.0" encoding="utf-8"?>
<svg version="1.1" xmlns:xlink="http://www.w3.org/1999/xlink" width="11px" height="12px" xmlns="http://www.w3.org/2000/svg">
  <g transform="matrix(1 0 0 1 -30 -109 )">
    <path d="M 6.20588235058594 11.6000000039063  L 5.59411764453125 11.9647058847656  L 4.99411765234375 11.6000000039063  C 4.80588236328125 11.4941176455078  0.500000009765626 8.85882353222656  0.499999993164063 5.10588234863281  C 0.499999993164063 2.28923012449577  2.78334776902702 0.00588234863281218  5.59999999316406 0.00588234863281218  C 8.41665221730111 0.00588234863281218  10.6999999931641 2.28923012449577  10.6999999931641 5.10588234863281  C 10.6999999931641 8.87058822949219  6.39411763964844 11.4941176455078  6.20588235058594 11.6000000039063  Z M 8.34705883007813 5.09411765136719  C 8.34058095086704 3.57830663676127  7.1099425007491 2.35292732887114  5.59411764453125 2.3529411796875  C 4.08288516086806 2.3593857509704  2.85938574413447 3.582885167704  2.85294117285156 5.09411765136719  C 2.85294117285156 6.85882353613281  4.64117646875 8.43529411523437  5.60588235839844 9.1529411796875  C 6.71176471484375 8.3294117734375  8.34705883007813 6.8  8.34705883007813 5.09411765136719  Z " fill-rule="nonzero" fill="#ffffff" stroke="none" transform="matrix(1 0 0 1 30 109 )" />
  </g>
</svg>