<?xml version="1.0" encoding="utf-8"?>
<svg version="1.1" xmlns:xlink="http://www.w3.org/1999/xlink" width="18px" height="14px" xmlns="http://www.w3.org/2000/svg">
  <g transform="matrix(1 0 0 1 -29 -156 )">
    <path d="M 11.6249999941406 1.375  C 11.6249999941406 0.962499994140625  11.2874999941406 0.624999994140625  10.8750000058594 0.624999994140625  L 7.12499999414062 0.624999994140625  C 6.71249998828125 0.624999994140625  6.37499998828125 0.962499994140625  6.37500000585937 1.375  L 6.37500000585937 12.625  C 6.37500000585937 13.0375000058594  6.71250000585937 13.3750000058594  7.12499999414062 13.3750000058594  L 10.8750000058594 13.3750000058594  C 11.2875000117188 13.3750000058594  11.6250000117187 13.0375000058594  11.6249999941406 12.625  L 11.6249999941406 1.375  Z M 9.75000000585937 11.1250000058594  C 9.75000000585937 11.5375000117188  9.41250000585937 11.8750000117188  9 11.8749999941406  C 8.58749999414063 11.8749999941406  8.24999999414062 11.5374999941406  8.24999999414062 11.1250000058594  C 8.24999999414062 10.7125000175781  8.58749999414062 10.375  9 10.375  C 9.41250000585937 10.375  9.75000000585937 10.7125  9.75000000585937 11.1250000058594  Z M 10.4999999941406 6.4375  C 10.4999999941406 6.73750000585937  10.2375 7  9.93749999414062 7  L 8.06250000585937 7  C 7.7625 7  7.50000000585937 6.73750000585937  7.50000000585937 6.4375  C 7.50000000585937 6.13749999414063  7.7625 5.875  8.06250000585937 5.875  L 9.93749999414062 5.875  C 10.2375 5.875  10.4999999941406 6.13749999414063  10.4999999941406 6.4375  Z M 10.4999999941406 4.56249999414062  C 10.4999999941406 4.8625  10.2375 5.12499999414062  9.93749999414062 5.12499999414062  L 8.06250000585937 5.12499999414062  C 7.7625 5.12499999414062  7.50000000585937 4.8625  7.50000000585937 4.56249999414062  C 7.50000000585937 4.26249998828125  7.7625 3.99999999414062  8.06250000585937 3.99999999414062  L 9.93749999414062 3.99999999414062  C 10.2375 3.99999999414062  10.4999999941406 4.26249998828125  10.4999999941406 4.56249999414062  Z M 10.4999999941406 2.68750000585937  C 10.4999999941406 2.98750001171875  10.2375 3.25000000585937  9.93749999414062 3.25000000585937  L 8.06250000585937 3.25000000585937  C 7.7625 3.25000000585937  7.50000000585937 2.98750001171875  7.50000000585937 2.68750000585937  C 7.50000000585937 2.3875  7.7625 2.12500000585937  8.06250000585937 2.12500000585937  L 9.93749999414062 2.12500000585937  C 10.2375 2.12500000585937  10.4999999941406 2.3875  10.4999999941406 2.68750000585937  Z M 5.13750000585937 2.3875  L 4.6125 1.86249999414062  C 4.53749999414062 1.78749998828125  4.42499999414062 1.74999999414062  4.31249999414062 1.74999999414062  L 1.42500000585938 2.05  C 1.05000001171875 2.08749999414062  0.750000005859375 2.42499999414062  0.750000005859375 2.80000000585938  L 0.750000005859375 12.3249999941406  C 0.750000005859375 12.6999999882812  1.05000001171875 13.0374999882812  1.42500000585938 13.075  L 4.31249999414062 13.3750000058594  C 4.42499999414062 13.3750000058594  4.53749999414062 13.3375000117187  4.6125 13.2625000058594  L 5.13750000585937 12.7375  C 5.21250001171875 12.6624999941406  5.25000000585937 12.5875000058594  5.25000000585937 12.4750000058594  L 5.25000000585937 2.64999999414063  C 5.25000000585937 2.53749999414063  5.21250001171875 2.46249998828125  5.13750000585937 2.3875  Z M 3.6 7.5625  C 3.6 7.675  3.6 7.75000000585937  3.56250000585937 7.82499999414062  C 3.52500001171875 7.9  3.4875 7.93749999414062  3.45000000585937 8.0125  C 3.41250001171875 8.04999999414062  3.33750000585937 8.08750000585937  3.29999999414062 8.125  L 2.1375 8.125  C 2.06249999414062 8.125  2.025 8.08750000585937  1.94999999414062 8.08750000585937  C 1.87499998828125 8.05000001171875  1.83749999414062 8.0125  1.8 7.97500000585937  C 1.76250000585937 7.93750001171875  1.72499999414062 7.86250000585938  1.6875 7.7875  C 1.65000000585937 7.71249999414063  1.65000000585937 7.63750000585937  1.65000000585937 7.5625  C 1.65000000585937 7.48749999414063  1.65000000585937 7.41250000585937  1.6875 7.3375  C 1.72499999414062 7.26249999414063  1.76250000585937 7.225  1.8 7.14999999414063  C 1.83749999414062 7.1125  1.9125 7.07499998828125  1.94999999414062 7.03749999414063  C 2.025 7  2.06249999414062 7  2.1375 7  L 3.11250000585938 7  C 3.18750001171875 7  3.2625 7  3.29999999414062 7.03749999414063  C 3.375 7.07499998828125  3.41249999414062 7.1125  3.45000000585937 7.14999999414063  C 3.4875 7.18749998828125  3.52500001171875 7.26249999414063  3.56250000585937 7.3375  C 3.6 7.41250000585937  3.6 7.48749999414063  3.6 7.5625  Z M 3.6 5.68749999414062  C 3.6 5.7625  3.6 5.83749998828125  3.56250000585937 5.91249999414062  C 3.52500001171875 5.9875  3.4875 6.02499999414062  3.45000000585937 6.1  C 3.41250001171875 6.13749999414062  3.33750000585937 6.17500000585937  3.29999999414062 6.2125  C 3.2625 6.24999999414062  3.18749999414062 6.24999999414062  3.11250000585938 6.24999999414062  L 2.1375 6.24999999414062  C 2.06249999414062 6.24999999414062  2.025 6.24999999414062  1.94999999414062 6.2125  C 1.87499998828125 6.17500000585937  1.83749999414062 6.13749999414062  1.8 6.1  C 1.76250000585937 6.06250000585937  1.72499999414062 5.9875  1.6875 5.91249999414062  C 1.65000000585937 5.83749998828125  1.65000000585937 5.7625  1.65000000585937 5.68749999414062  C 1.65000000585937 5.61249998828125  1.65000000585937 5.5375  1.6875 5.46249999414062  C 1.72499999414062 5.38749998828125  1.76250000585937 5.34999999414062  1.8 5.27500000585937  C 1.83749999414062 5.23750001171875  1.9125 5.2  1.94999999414062 5.16250000585937  C 2.025 5.16250000585937  2.06249999414062 5.12500001171875  2.1375 5.12499999414062  L 3.11250000585938 5.12499999414062  C 3.18750001171875 5.12499999414062  3.2625 5.12499999414062  3.29999999414062 5.16250000585937  C 3.375 5.2  3.41249999414062 5.23750001171875  3.45000000585937 5.27500000585937  C 3.4875 5.3125  3.52500001171875 5.38750000585937  3.56250000585937 5.46249999414062  C 3.6 5.5375  3.6 5.61249998828125  3.6 5.68749999414062  Z M 3.6 3.81250000585937  C 3.6 3.85  3.6 3.92500000585937  3.56250000585937 3.99999999414062  C 3.52500001171875 4.075  3.4875 4.11249999414062  3.45000000585937 4.1875  C 3.41250001171875 4.22499999414062  3.33750000585937 4.3  3.29999999414062 4.3  C 3.2625 4.33749999414062  3.18749999414062 4.37500000585937  3.11250000585938 4.37500000585937  L 2.1375 4.37500000585937  C 2.06249999414062 4.37500000585937  2.025 4.37500000585937  1.94999999414062 4.33749999414062  C 1.87499998828125 4.29999998242187  1.83749999414062 4.26249998828125  1.8 4.22499999414062  C 1.76250000585937 4.1875  1.72499999414062 4.11249999414062  1.6875 4.03750000585937  C 1.65000000585937 3.9625  1.65000000585937 3.88750001171875  1.65000000585937 3.81250000585937  C 1.65000000585937 3.7375  1.65000000585937 3.66250001171875  1.6875 3.58750000585937  C 1.72499999414062 3.5125  1.76250000585937 3.47500000585937  1.8 3.4  C 1.83749999414062 3.36250000585937  1.9125 3.32499999414062  1.94999999414062 3.2875  C 2.025 3.25000000585937  2.06249999414062 3.25000000585937  2.1375 3.25000000585937  L 3.11250000585938 3.25000000585937  C 3.18750001171875 3.25000000585937  3.2625 3.25000000585937  3.29999999414062 3.2875  C 3.375 3.32499999414062  3.41249999414062 3.36250000585937  3.45000000585937 3.4  C 3.4875 3.43749999414062  3.52500001171875 3.5125  3.56250000585937 3.58750000585937  C 3.6 3.66250001171875  3.6 3.7375  3.6 3.81250000585937  Z M 17.2499999941406 2.80000000585938  C 17.2499999941406 2.42500001171875  16.9499999882812 2.08750001171875  16.5749999941406 2.05  L 13.6875000058594 1.74999999414063  C 13.5750000058594 1.74999999414063  13.4625000058594 1.78749998828125  13.3875 1.86249999414063  L 12.8624999941406 2.3875  C 12.7874999882812 2.46250000585938  12.7499999941406 2.53749999414063  12.7499999941406 2.64999999414063  L 12.7499999941406 12.4750000058594  C 12.7499999941406 12.5875000058594  12.7874999882812 12.6625000117187  12.8624999941406 12.7375  L 13.3875 13.2625000058594  C 13.4625000058594 13.3375000117187  13.5750000058594 13.3750000058594  13.6875000058594 13.3750000058594  L 16.5749999941406 13.075  C 16.9499999882812 13.0375000058594  17.2499999941406 12.7000000058594  17.2499999941406 12.3249999941406  L 17.2499999941406 2.80000000585938  Z M 16.3499999941406 7.5625  C 16.3499999941406 7.59999999414062  16.3125 7.675  16.3125 7.75000000585937  C 16.2750000058594 7.82500001171875  16.2374999941406 7.86250000585938  16.2 7.93749999414062  C 16.1625000058594 7.97499998828125  16.0875 8.04999999414062  16.0500000058594 8.04999999414062  C 15.975 8.08749998828125  15.9375000058594 8.08749998828125  15.8625 8.08750000585937  L 14.8874999941406 8.125  C 14.8124999882813 8.125  14.7375 8.125  14.7000000058594 8.08750000585937  C 14.625 8.05000001171875  14.5875000058594 8.0125  14.5499999941406 7.97500000585937  C 14.5125 7.93750001171875  14.4749999882813 7.86250000585938  14.4374999941406 7.7875  C 14.4 7.71249999414063  14.4 7.63750000585937  14.4 7.5625  C 14.4 7.48749999414063  14.4 7.41250000585937  14.4374999941406 7.3375  C 14.4749999882813 7.26249999414063  14.5125 7.225  14.5499999941406 7.14999999414063  C 14.5874999882813 7.1125  14.6624999941406 7.03749999414063  14.7000000058594 7.03749999414063  C 14.7750000117188 7  14.8125000058594 7  14.8874999941406 7  L 15.8625 7  C 15.9375000058594 7  15.975 7  16.0500000058594 7.03749999414063  C 16.1250000117188 7.07499998828125  16.1625000058594 7.1125  16.2 7.14999999414063  C 16.2374999941406 7.18749998828125  16.2750000058594 7.26249999414063  16.3125 7.3375  C 16.3499999941406 7.41250000585937  16.3499999941406 7.48749999414063  16.3499999941406 7.5625  Z M 16.3499999941406 5.68749999414062  C 16.3499999941406 5.7625  16.3125 5.83749998828125  16.3125 5.91249999414062  C 16.2750000058594 5.9875  16.2374999941406 6.02499999414063  16.2 6.1  C 16.1625000058594 6.13749999414063  16.0875 6.17500000585937  16.0500000058594 6.2125  C 15.975 6.24999999414062  15.9375000058594 6.24999999414062  15.8625 6.24999999414062  L 14.8874999941406 6.24999999414062  C 14.8124999882813 6.24999999414062  14.7375 6.24999999414062  14.7000000058594 6.2125  C 14.625 6.17500000585937  14.5875000058594 6.13749999414063  14.5499999941406 6.1  C 14.5125 6.06250000585938  14.4749999882813 5.9875  14.4374999941406 5.91249999414062  C 14.4 5.83749998828125  14.4 5.7625  14.4 5.68749999414062  C 14.4 5.61249998828125  14.4 5.5375  14.4374999941406 5.46249999414062  C 14.4749999882813 5.38749998828125  14.5125 5.34999999414062  14.5499999941406 5.27500000585937  C 14.5874999882813 5.23750001171875  14.6624999941406 5.2  14.7000000058594 5.16250000585937  C 14.7750000117188 5.12500001171875  14.8125000058594 5.12500001171875  14.8874999941406 5.12499999414062  L 15.8625 5.12499999414062  C 15.9375000058594 5.12499999414062  15.975 5.12499999414062  16.0500000058594 5.16250000585937  C 16.1250000117188 5.20000001757812  16.1625000058594 5.23750001171875  16.2 5.27500000585937  C 16.2374999941406 5.3125  16.2750000058594 5.38750000585937  16.3125 5.46249999414062  C 16.3499999941406 5.5375  16.3499999941406 5.61249998828125  16.3499999941406 5.68749999414062  Z M 16.3499999941406 3.85  C 16.3499999941406 3.92500000585937  16.3125 3.99999999414062  16.3125 4.03750000585937  C 16.2750000058594 4.11250001171875  16.2374999941406 4.15000000585937  16.2 4.22499999414062  C 16.1625000058594 4.26249998828125  16.0875 4.3  16.0500000058594 4.33749999414062  C 15.975 4.37499998828125  15.9375000058594 4.37499998828125  15.8625 4.37500000585937  L 14.8874999941406 4.37500000585937  C 14.8124999882813 4.37500000585937  14.7375 4.37500000585937  14.7000000058594 4.33749999414062  C 14.625 4.3  14.5875000058594 4.26249998828125  14.5499999941406 4.22499999414062  C 14.5125 4.1875  14.4749999882813 4.11249999414063  14.4374999941406 4.03750000585937  C 14.4 3.9625  14.4 3.88750001171875  14.4 3.81250000585937  C 14.4 3.7375  14.4 3.66250001171875  14.4374999941406 3.58750000585937  C 14.4749999882813 3.5125  14.5125 3.47500000585937  14.5499999941406 3.4  C 14.5874999882813 3.36250000585937  14.6624999941406 3.32499999414062  14.7000000058594 3.2875  C 14.7750000117188 3.25000000585937  14.8125000058594 3.25000000585937  14.8874999941406 3.25000000585937  L 15.8625 3.2875  C 15.9375000058594 3.2875  15.975 3.32499999414062  16.0500000058594 3.32499999414062  C 16.1250000117188 3.36249998828125  16.1625000058594 3.4  16.2 3.43749999414062  C 16.2374999941406 3.47499998828125  16.2750000058594 3.54999999414062  16.3125 3.625  C 16.3499999941406 3.70000000585937  16.3499999941406 3.77499999414062  16.3499999941406 3.85  Z " fill-rule="nonzero" fill="#ffffff" stroke="none" transform="matrix(1 0 0 1 29 156 )" />
  </g>
</svg>