<?xml version="1.0" encoding="utf-8"?>
<svg version="1.1" xmlns:xlink="http://www.w3.org/1999/xlink" width="6px" height="12px" xmlns="http://www.w3.org/2000/svg">
  <g transform="matrix(1 0 0 1 -34 -66 )">
    <path d="M 5.8035 4.26975  C 5.94525 4.1325  5.94525 3.90525  5.8035 3.768  L 3.01575 1.02075  C 2.793 0.80025  2.415 0.96  2.415 1.27275  L 2.415 4.71975  L 0.655499999999999 3.06825  C 0.630749999999999 3.0435  0.590249999999999 3.04575  0.565499999999999 3.0705  L 0.0637499999999998 3.60375  C 0.0389999999999997 3.6285  0.0412499999999998 3.669  0.0659999999999989 3.69375  L 2.415 5.89875  L 2.415 6.2295  L 0.0682499999999999 8.412  C 0.0434999999999999 8.43675  0.0412499999999998 8.47725  0.0660000000000007 8.502  L 0.5655 9.0375  C 0.590250000000001 9.06225  0.63075 9.0645  0.6555 9.03975  L 2.41725 7.40175  L 2.41725 10.89825  C 2.41725 11.211  2.79525 11.37075  3.018 11.15025  L 5.8035 8.4075  C 5.943 8.27025  5.943 8.043  5.8035 7.9035  L 4.215 6.33975  C 4.0755 6.2025  4.0755 5.97525  4.215 5.83575  L 5.8035 4.26975  Z M 3.2745 5.41275  L 3.2745 2.48325  L 4.8135 3.99975  L 3.2835 5.42175  L 3.2745 5.41275  Z M 3.27675 6.7605  L 3.2745 6.7605  L 3.30375 6.7335  L 4.827 8.16225  L 3.27675 9.69  L 3.27675 6.7605  Z " fill-rule="nonzero" fill="#343a40" stroke="none" transform="matrix(1 0 0 1 34 66 )" />
  </g>
</svg>