<?xml version="1.0" encoding="utf-8"?>
<svg version="1.1" xmlns:xlink="http://www.w3.org/1999/xlink" width="17px" height="16px" xmlns="http://www.w3.org/2000/svg">
  <g transform="matrix(1 0 0 1 -29 -110 )">
    <path d="M 7.508720703125 3.220283203125  L 7.508720703125 6.90134765625  L 3.827822265625 6.90134765625  C 2.055107421875 6.90134765625  0.61259765625 5.45900390625  0.61259765625 3.6862890625  L 0.61259765625 3.220283203125  C 0.61259765625 1.447568359375  2.055107421875 0.00522460937499969  3.827822265625 0.00522460937499969  L 4.293828125 0.00522460937499969  C 6.06654296875 0.00522460937499969  7.508720703125 1.447568359375  7.508720703125 3.220283203125  Z M 4.293828125 1.2890234375  L 3.827822265625 1.2890234375  C 2.762666015625 1.2890234375  1.89623046875 2.15529296875  1.89623046875 3.220283203125  L 1.89623046875 3.6862890625  C 1.89623046875 4.751279296875  2.7625 5.617548828125  3.827822265625 5.617548828125  L 6.224921875 5.617548828125  L 6.224921875 3.220283203125  C 6.224921875 2.15529296875  5.35865234375 1.2890234375  4.293828125 1.2890234375  Z M 16.40234375 3.686455078125  C 16.40234375 5.45900390625  14.959833984375 6.90134765625  13.187119140625 6.90134765625  L 9.506220703125 6.90134765625  L 9.506220703125 3.22044921875  C 9.506220703125 1.447734375  10.94873046875 0.00539062499999998  12.7214453125 0.00539062499999998  L 13.186953125 0.00539062499999998  C 14.959833984375 0.00539062499999998  16.40234375 1.447734375  16.40234375 3.22044921875  L 16.40234375 3.686455078125  Z M 10.79001953125 3.22044921875  L 10.79001953125 5.61771484375  L 13.187119140625 5.61771484375  C 14.252275390625 5.61771484375  15.1187109375 4.7514453125  15.1187109375 3.686455078125  L 15.1187109375 3.22044921875  C 15.1187109375 2.155458984375  14.25244140625 1.289189453125  13.187119140625 1.289189453125  L 12.721611328125 1.289189453125  C 11.656455078125 1.289189453125  10.79001953125 2.155458984375  10.79001953125 3.22044921875  Z M 7.508720703125 12.092490234375  C 7.508720703125 13.865205078125  6.06654296875 15.307548828125  4.293828125 15.307548828125  L 3.827822265625 15.307548828125  C 2.055107421875 15.307548828125  0.61259765625 13.865205078125  0.61259765625 12.09232421875  L 0.61259765625 11.626650390625  C 0.61259765625 9.853935546875  2.055107421875 8.411591796875  3.827822265625 8.411591796875  L 7.508720703125 8.411591796875  L 7.508720703125 12.092490234375  Z M 6.224921875 9.695224609375  L 3.827822265625 9.695224609375  C 2.762666015625 9.695224609375  1.89623046875 10.561494140625  1.89623046875 11.626484375  L 1.89623046875 12.092158203125  C 1.89623046875 13.1571484375  2.7625 14.02375  3.827822265625 14.02375  L 4.293828125 14.02375  C 5.35865234375 14.02375  6.224921875 13.157314453125  6.224921875 12.092158203125  L 6.224921875 9.695224609375  Z M 16.40234375 12.092158203125  C 16.40234375 13.865205078125  14.959833984375 15.307548828125  13.187119140625 15.307548828125  L 12.721611328125 15.307548828125  C 10.948896484375 15.307548828125  9.50638671875 13.865205078125  9.50638671875 12.09232421875  L 9.50638671875 8.41142578125  L 13.18728515625 8.41142578125  C 14.959833984375 8.41142578125  16.40234375 9.85376953125  16.40234375 11.626484375  L 16.40234375 12.092158203125  Z M 10.79001953125 9.695224609375  L 10.79001953125 12.09232421875  C 10.79001953125 13.157314453125  11.6562890625 14.023916015625  12.721611328125 14.023916015625  L 13.187119140625 14.023916015625  C 14.252275390625 14.023916015625  15.1187109375 13.15748046875  15.1187109375 12.09232421875  L 15.1187109375 11.626650390625  C 15.1187109375 10.56166015625  14.25244140625 9.695390625  13.187119140625 9.695390625  L 10.79001953125 9.695390625  Z " fill-rule="nonzero" fill="#ffffff" stroke="none" transform="matrix(1 0 0 1 29 110 )" />
  </g>
</svg>