<?xml version="1.0" encoding="utf-8"?>
<svg version="1.1" xmlns:xlink="http://www.w3.org/1999/xlink" width="17px" height="17px" xmlns="http://www.w3.org/2000/svg">
  <g transform="matrix(1 0 0 1 -28 -64 )">
    <path d="M 13.228125 16.89375  L 13.5203125 16.89375  C 13.5734375 16.89375  13.6265625 16.89375  13.6796875 16.8671875  C 13.5203125 16.89375  13.3875 16.89375  13.228125 16.89375  Z M 13.4671875 12.325  C 13.4671875 11.9265625  13.1484375 11.6078125  12.75 11.6078125  C 12.3515625 11.6078125  12.0328125 11.9265625  12.0328125 12.325  C 12.0328125 12.7234375  12.3515625 13.0421875  12.75 13.0421875  C 13.1484375 13.0421875  13.4671875 12.7234375  13.4671875 12.325  Z M 16.46875 12.803125  C 16.46875 11.0234375  15.0078125 9.5890625  13.228125 9.5890625  C 11.421875 9.5890625  9.9875 11.05  9.9875 12.8296875  C 9.9875 14.609375  11.421875 16.04375  13.228125 16.04375  C 15.0078125 16.04375  16.46875 14.609375  16.46875 12.803125  Z M 15.140625 14.3703125  C 15.140625 14.55625  14.98125 14.715625  14.7953125 14.715625  C 14.6890625 14.715625  14.609375 14.6625  14.5296875 14.609375  L 13.4671875 13.5734375  C 13.2546875 13.70625  13.015625 13.7859375  12.75 13.7859375  C 11.953125 13.7859375  11.315625 13.1484375  11.315625 12.3515625  C 11.315625 11.5546875  11.953125 10.9171875  12.75 10.9171875  C 13.546875 10.9171875  14.184375 11.5546875  14.184375 12.3515625  C 14.184375 12.6171875  14.1046875 12.85625  13.971875 13.06875  L 15.034375 14.1046875  C 15.0875 14.1578125  15.140625 14.2640625  15.140625 14.3703125  Z M 2.603125 2.2046875  C 2.6296875 2.603125  3.08125 3.0546875  3.453125 3.0546875  C 3.8515625 3.0546875  4.303125 2.603125  4.303125 2.2046875  L 4.303125 0.95625  C 4.303125 0.5578125  4.0375 0.10625  3.453125 0.10625  C 2.975 0.10625  2.603125 0.5578125  2.603125 0.95625  L 2.603125 2.2046875  Z M 6.375 2.2046875  C 6.4015625 2.603125  6.69375 3.0546875  7.225 3.0546875  C 7.915625 3.0546875  8.075 2.603125  8.075 2.2046875  L 8.075 0.95625  C 8.075 0.5578125  7.8359375 0.10625  7.225 0.10625  C 6.640625 0.10625  6.375 0.5578125  6.375 0.95625  L 6.375 2.2046875  Z M 10.146875 2.2046875  C 10.1734375 2.603125  10.625 3.0546875  10.996875 3.0546875  C 11.5546875 3.0546875  11.846875 2.603125  11.846875 2.2046875  L 11.846875 0.95625  C 11.846875 0.5578125  11.5546875 0.10625  10.996875 0.10625  C 10.51875 0.10625  10.146875 0.5578125  10.146875 0.95625  L 10.146875 2.2046875  Z M 13.228125 16.8671875  L 13.5203125 16.8671875  C 13.5734375 16.8671875  13.6265625 16.8671875  13.6796875 16.840625  C 13.5203125 16.8671875  13.3875 16.8671875  13.228125 16.8671875  Z M 13.228125 16.89375  C 10.9703125 16.8671875  9.1640625 15.0609375  9.1640625 12.8296875  C 9.1640625 10.5984375  10.996875 8.765625  13.228125 8.765625  C 13.6265625 8.765625  14.025 8.81875  14.396875 8.925  L 14.3703125 2.6296875  C 14.3703125 2.23125  13.91875 1.7796875  13.5203125 1.7796875  L 12.6703125 1.7796875  L 12.6703125 2.6296875  C 12.6703125 3.4265625  11.79375 3.878125  10.996875 3.878125  C 10.2 3.878125  9.3234375 3.4  9.3234375 2.6296875  L 9.3234375 1.7796875  L 8.8984375 1.7796875  L 8.8984375 2.6296875  C 8.8984375 3.4265625  8.021875 3.878125  7.225 3.878125  C 5.95 3.878125  5.5515625 3.0015625  5.5515625 2.2046875  L 5.5515625 1.7796875  L 5.1265625 1.7796875  L 5.1265625 2.2046875  C 5.1265625 3.0015625  4.4890625 3.878125  3.4 3.878125  C 2.603125 3.878125  1.753125 3.29375  1.753125 2.2046875  L 1.753125 1.7796875  L 1.38125 1.7796875  C 0.9828125 1.7796875  0.53125 2.23125  0.53125 2.6296875  L 0.53125 15.9375  C 0.53125 16.3359375  0.9828125 16.89375  1.38125 16.89375  L 13.228125 16.89375  Z M 2.2046875 7.2515625  C 2.2046875 6.69375  2.65625 6.4015625  3.0546875 6.4015625  C 3.0546875 6.4015625  11.79375 6.428125  11.8203125 6.4015625  C 12.21875 6.375  12.696875 6.640625  12.696875 7.2515625  C 12.696875 7.809375  12.2453125 8.1015625  11.846875 8.1015625  L 3.0546875 8.1015625  C 2.65625 8.1015625  2.2046875 7.8890625  2.2046875 7.2515625  Z M 7.6765625 13.9453125  C 7.65 14.45  7.1453125 14.76875  6.8265625 14.76875  L 3.0546875 14.76875  C 2.7359375 14.76875  2.2046875 14.5828125  2.2046875 13.91875  C 2.2046875 13.4140625  2.709375 13.0421875  3.0546875 13.0421875  L 6.8265625 13.0953125  C 7.1453125 13.0953125  7.6765625 13.28125  7.6765625 13.9453125  Z M 8.5265625 10.571875  C 8.5 10.996875  8.0484375 11.421875  7.65 11.421875  L 3.0546875 11.421875  C 2.65625 11.421875  2.2046875 11.15625  2.2046875 10.571875  C 2.2046875 9.934375  2.65625 9.721875  3.0546875 9.721875  L 7.6765625 9.721875  C 8.075 9.721875  8.5265625 10.040625  8.5265625 10.571875  Z " fill-rule="nonzero" fill="#ffffff" stroke="none" transform="matrix(1 0 0 1 28 64 )" />
  </g>
</svg>