<?xml version="1.0" encoding="utf-8"?>
<svg version="1.1" xmlns:xlink="http://www.w3.org/1999/xlink" width="17px" height="18px" xmlns="http://www.w3.org/2000/svg">
  <g transform="matrix(1 0 0 1 -29 -64 )">
    <path d="M 12.136 8.951595703125  C 12.136 9.241995703125  12.3736 9.479595703125  12.664 9.479595703125  C 12.9544 9.479595703125  13.192 9.241995703125  13.192 8.951595703125  L 13.192 1.471595703125  C 13.192 1.181195703125  12.9544 0.943595703124999  12.664 0.943595703124999  C 12.3736 0.943595703124999  12.136 1.181195703125  12.136 1.471595703125  L 12.136 8.951595703125  Z M 4.392 13.791595703125  C 4.392 12.959995703125  3.8332 12.260395703125  3 12.031595703125  L 3 1.471595703125  C 3.072 1.181195703125  2.8344 0.943595703125  2.544 0.943595703125  C 2.2536 0.943595703125  2.016 1.181195703125  2 1.471595703125  L 2 12.031595703125  C 1.2548 12.260395703125  0.696 12.959995703125  0.696 13.791595703125  C 0.696 14.623195703125  1.2548 15.322795703125  2.016 15.551595703125  L 2.016 17.311595703125  C 2.016 17.601995703125  2.2536 17.839595703125  2.544 17.839595703125  C 2.8344 17.839595703125  3.072 17.601995703125  3.072 17.311595703125  L 3.072 15.551595703125  C 3.8332 15.322795703125  4.392 14.623195703125  4.392 13.791595703125  Z M 3.336 13.791595703125  C 3.336 14.227195703125  2.9796 14.583595703125  2.544 14.583595703125  C 2.1084 14.583595703125  1.752 14.227195703125  1.752 13.791595703125  C 1.752 13.355995703125  2.1084 12.999595703125  2.544 12.999595703125  C 2.9796 12.999595703125  3.336 13.355995703125  3.336 13.791595703125  Z M 8 6.751595703125  C 8.8932 6.527195703125  9.452 5.827595703125  9.452 4.991595703125  C 9.452 4.155595703125  8.8932 3.460395703125  8.132 3.231595703125  L 8.132 1.471595703125  C 8.132 1.181195703125  7.8944 0.943595703125  7.604 0.943595703125  C 7.3136 0.943595703125  7.076 1.181195703125  7.076 1.471595703125  L 7.076 3.231595703125  C 6.3148 3.460395703125  5.756 4.159995703125  5.756 4.991595703125  C 5.756 5.823195703125  6.3148 6.522795703125  7 6.751595703125  L 7 17.311595703125  C 7.076 17.601995703125  7.3136 17.839595703125  7.604 17.839595703125  C 7.8944 17.839595703125  8.132 17.601995703125  8 17.311595703125  L 8 6.751595703125  Z M 7.604 5.783595703125  C 7.1684 5.783595703125  6.812 5.427195703125  6.812 4.991595703125  C 6.812 4.555995703125  7.1684 4.199595703125  7.604 4.199595703125  C 8.0396 4.199595703125  8.396 4.555995703125  8.396 4.991595703125  C 8.396 5.427195703125  8.0396 5.783595703125  7.604 5.783595703125  Z M 16.5404 13.822404296875  C 16.5356840457632 13.3389187076117  16.2627145697383 12.8980984357701  15.832 12.678404296875  C 15.7044 12.612404296875  15.546 12.458404296875  15.5064 12.383604296875  C 15.48 12.335204296875  15.458 12.286804296875  15.4316 12.242804296875  C 15.4052 12.194404296875  15.3744 12.150404296875  15.348 12.106404296875  C 15.2996 12.031604296875  15.2468 11.820404296875  15.2556 11.675204296875  C 15.2819548207332 11.1910619455311  15.0335133665434 10.7333170744554  14.6132 10.491604296875  C 14.1864 10.245204296875  13.6496 10.267204296875  13.2404 10.544404296875  C 13.1172 10.628004296875  12.972 10.667604296875  12.8092 10.663204296875  C 12.7212 10.658804296875  12.6288 10.658804296875  12.5408 10.663204296875  C 12.378 10.667604296875  12.2196 10.628004296875  12.0876 10.535604296875  C 11.8775269497892 10.3975377640027  11.6316403032531 10.3239689609742  11.3802580168361 10.3239689609742  C 10.6689810586044 10.3239689609742  10.0923771574611 10.9005728621174  10.0923771574611 11.6118498203492  C 10.0923771574611 11.635915488208  10.0930517031805 11.6599764283642  10.0944 11.684004296875  C 10.1032 11.846804296875  10.0636 12.005204296875  9.9756 12.141604296875  C 9.9272 12.216404296875  9.8832 12.295604296875  9.8436 12.374804296875  C 9.7688 12.515604296875  9.6588 12.621204296875  9.5268 12.687204296875  C 9.08056730551266 12.9027930053061  8.79562862833616 13.3532349859923  8.792 13.848804296875  C 8.792 14.332804296875  9.0604 14.772804296875  9.496 14.997204296875  C 9.62360000000001 15.063204296875  9.782 15.217204296875  9.8216 15.292004296875  C 9.848 15.340404296875  9.87 15.388804296875  9.8964 15.432804296875  C 9.9228 15.481204296875  9.95360000000001 15.525204296875  9.98 15.569204296875  C 10.0284 15.644004296875  10.0812 15.855204296875  10.0724 16.000404296875  C 10.0711133773472 16.0238493994936  10.0704697033725 16.0473253671438  10.0704697033725 16.0708057469245  C 10.0704697033725 16.7803811935071  10.6456942567899 17.3556057469245  11.3552697033725 17.3556057469245  C 11.3559131358529 17.3556057469245  11.3565565682457 17.3556052635745  11.3572 17.355604296875  C 11.6124 17.355604296875  11.872 17.280804296875  12.0876 17.131204296875  C 12.2108 17.047604296875  12.3648 17.008004296875  12.5188 17.012404296875  C 12.6112 17.016804296875  12.7036 17.016804296875  12.796 17.012404296875  C 12.9588 17.008004296875  13.1084 17.047604296875  13.2448 17.131204296875  C 13.654 17.390804296875  14.1688 17.404004296875  14.5824 17.162004296875  C 15.0004 16.920004296875  15.2468 16.471204296875  15.2248 15.987204296875  C 15.216 15.828804296875  15.26 15.674804296875  15.3436 15.538404296875  C 15.392 15.459204296875  15.4404 15.380004296875  15.4844 15.296404296875  C 15.5592 15.155604296875  15.6692 15.045604296875  15.8056 14.984004296875  C 16.2518326944873 14.768415588444  16.5367713716638 14.3179736077578  16.5404 13.822404296875  Z M 15.6692 13.826804296875  C 15.656 13.980804296875  15.5636 14.126004296875  15.4228 14.196404296875  C 15.1148 14.346004296875  14.8684 14.588004296875  14.7056 14.896004296875  C 14.6748 14.957604296875  14.6396 15.014804296875  14.6044 15.072004296875  C 14.4196 15.358004296875  14.3316 15.692404296875  14.3492 16.031204296875  C 14.358 16.185204296875  14.2788 16.330404296875  14.1468 16.405204296875  C 14.0104 16.480004296875  13.8476 16.475604296875  13.72 16.392004296875  C 13.434 16.207204296875  13.0996 16.114804296875  12.7608 16.132404296875  C 12.6948 16.136804296875  12.6244 16.136804296875  12.5584 16.132404296875  C 12.2108 16.119204296875  11.8764 16.211604296875  11.5948 16.405204296875  C 11.4628 16.493204296875  11.2912 16.502004296875  11.1592 16.422804296875  C 11.0272 16.348004296875  10.948 16.202804296875  10.9568 16.044404296875  C 10.97 15.780404296875  10.904 15.366804296875  10.7236 15.094004296875  C 10.7016 15.063204296875  10.684 15.028004296875  10.662 14.992804296875  C 10.6444 14.957604296875  10.6224 14.926804296875  10.6092 14.891604296875  C 10.4596 14.596804296875  10.1384 14.332804296875  9.9008 14.214004296875  C 9.7623988855368 14.1451100244161  9.67532465034976 14.003400974994  9.6764 13.848804296875  C 9.6764 13.694804296875  9.7688 13.549604296875  9.914 13.479204296875  C 10.222 13.329604296875  10.4684 13.087604296875  10.6312 12.779604296875  C 10.662 12.722404296875  10.6928 12.665204296875  10.728 12.612404296875  C 10.9128 12.317604296875  11.0008 11.983204296875  10.9832 11.635604296875  C 10.9744 11.477204296875  11.0536 11.332004296875  11.1856 11.257204296875  C 11.3209963126578 11.1806404279439  11.4880937866402 11.1874607330044  11.6168 11.274804296875  C 11.9072 11.464004296875  12.246 11.556404296875  12.5892 11.543204296875  C 12.6552 11.538804296875  12.7168 11.538804296875  12.7828 11.543204296875  C 13.1348 11.556404296875  13.4648 11.464004296875  13.7464 11.270404296875  C 13.8784 11.182404296875  14.05 11.173604296875  14.1864 11.252804296875  C 14.3184 11.327604296875  14.3976 11.472804296875  14.3888 11.631204296875  C 14.3756 11.895204296875  14.4416 12.308804296875  14.622 12.581604296875  C 14.644 12.612404296875  14.6616 12.647604296875  14.6836 12.682804296875  C 14.7012 12.718004296875  14.7232 12.748804296875  14.7364 12.784004296875  C 14.886 13.078804296875  15.2072 13.342804296875  15.4448 13.461604296875  C 15.5856 13.532004296875  15.6692 13.672804296875  15.6692 13.826804296875  Z M 12.6587132206487 12.4478218274011  C 12.4148887096115 12.4478218274011  12.1753844279211 12.5121841001549  11.964404296875 12.634404296875  C 11.300004296875 13.017204296875  11.075604296875 13.866404296875  11.458404296875 14.530804296875  C 11.8422415611582 15.1939867770805  12.68995128542 15.4221406703853  13.354804296875 15.041204296875  C 14.014804296875 14.658404296875  14.243604296875 13.809204296875  13.860804296875 13.144804296875  C 13.6140510065213 12.7137563077197  13.1553917436947 12.4478218274011  12.6587132206487 12.4478218274011  Z M 13.1633512808635 13.8391471258697  C 13.1633512808635 13.8809729523281  13.1581967714295 13.922639370875  13.148004296875 13.963204296875  C 13.112804296875 14.095204296875  13.029204296875 14.205204296875  12.910404296875 14.271204296875  C 12.791604296875 14.337204296875  12.655204296875 14.354804296875  12.527604296875 14.324004296875  C 12.395604296875 14.288804296875  12.285604296875 14.205204296875  12.219604296875 14.086404296875  C 12.153604296875 13.967604296875  12.136004296875 13.831204296875  12.166804296875 13.703604296875  C 12.202004296875 13.571604296875  12.285604296875 13.461604296875  12.404404296875 13.395604296875  C 12.4806730039719 13.3526389617916  12.566732225819 13.3300662664947  12.6542704214885 13.3300662664947  C 12.9354280165521 13.3300662664947  13.1633512808635 13.5579895308061  13.1633512808635 13.8391471258697  Z " fill-rule="nonzero" fill="#ffffff" stroke="none" transform="matrix(1 0 0 1 29 64 )" />
  </g>
</svg>