<?xml version="1.0" encoding="utf-8"?>
<svg version="1.1" xmlns:xlink="http://www.w3.org/1999/xlink" width="15px" height="19px" xmlns="http://www.w3.org/2000/svg">
  <g transform="matrix(1 0 0 1 -29 -243 )">
    <path d="M 14.67573 9.4981  C 14.671645 8.542875  13.860725 7.771  12.87434 7.771  L 4.8039 7.771  L 4.8039 4.897535  C 4.8039 3.946205  6.00869 2.88971  7.494015 2.88971  C 8.97953 2.88971  10.18413 3.9463  10.18413 4.897535  L 10.18413 5.75909  L 10.195815 5.75909  C 10.269915 6.24644  10.706535 6.62074  11.23293 6.62074  C 11.763125 6.62074  12.19984 6.24644  12.26995 5.75909  L 12.281635 5.75909  L 12.281635 4.89744  C 12.281635 2.679  10.141285 0.8778  7.49791 0.8778  C 4.858525 0.8778  2.71808 2.679  2.71808 4.89744  L 2.71808 7.771  L 2.11768 7.771  C 1.1274 7.771  0.324269999999997 8.542875  0.324269999999997 9.4981  L 0.324269999999997 16.398995  C 0.324269999999997 17.350325  1.1274 18.1222  2.11768 18  L 12.882225 18  C 13.876495 18.1222  14.67573 17.350325  14.67573 16.398995  L 14.67573 9.4981  Z M 9.576035 12.344205  C 9.583825 13.131755  9.09258 13.817845  8.38692 14.13752  L 8.38692 14.92127  C 8.38692 15.416505  7.98526 15.81408  7.48632 15.81408  C 7.48543200704659 15.8140826575427  7.48454401061374 15.8140839863163  7.48365601368366 15.8140839863163  C 6.99203974362178 15.8140839863163  6.59350601368366 15.4155502563782  6.59350601368366 14.9239339863163  C 6.59350601368366 14.923045989386  6.59350734245726 14.9221579929537  6.59351 14.92127  L 6.59351 14.13752  C 5.88785 13.817845  5.39271 13.13166  5.39271 12.344205  C 5.39271 11.244675  6.332355 10.355855  7.48632 10.355855  C 8.640285 10.355855  9.576035 11.24458  9.576035 12.344205  Z " fill-rule="nonzero" fill="#ffffff" stroke="none" transform="matrix(1 0 0 1 29 243 )" />
  </g>
</svg>