<?xml version="1.0" encoding="utf-8"?>
<svg version="1.1" xmlns:xlink="http://www.w3.org/1999/xlink" width="80px" height="62px" xmlns="http://www.w3.org/2000/svg">
  <g transform="matrix(1 0 0 1 -212 -520 )">
    <path d="M 73.75 0  L 6.25 0  C 3.14339828220179 0.0625  0.625 2.58089828220179  1 5.6875  L 1 56.3125  C 0.625 59.4191017177982  3.14339828220179 61.9375  6.25 62  L 73.75 62  C 76.8566017177982 61.9375  79.375 59.4191017177982  79 56.3125  L 79 5.6875  C 79.375 2.58089828220179  76.8566017177982 0.0625  73.75 0  Z M 7 6  L 73 6  L 73 49.016875  L 55.4575 30.71875  C 54.3592191676961 29.6208007984388  52.5789058323038 29.6208007984388  51.480625 30.71875  L 42.23875 39.960625  L 23.996875 21.71875  C 22.8985941676962 20.6208007984388  21.1182808323039 20.6208007984388  20.02 21.71875  L 7 35.483125  L 7 6  Z M 73.0975 56.3125  L 73.091875 56  L 7 56  L 7 43.436875  L 22.005625 27.686875  L 40.253125 45.92875  C 41.3514058323038 47.0266992015612  43.1317191676962 47.0266992015612  44.23 45.92875  L 53.46625 36.686875  L 73.0975 56.3125  Z " fill-rule="nonzero" fill="#7f7f7f" stroke="none" transform="matrix(1 0 0 1 212 520 )" />
  </g>
</svg>