<?xml version="1.0" encoding="utf-8"?>
<svg version="1.1" xmlns:xlink="http://www.w3.org/1999/xlink" width="15px" height="15px" viewBox="519 348  15 15" xmlns="http://www.w3.org/2000/svg">
  <path d="M 526.5 348  C 530.7 348  534 351.3  534 355.5  C 534 359.7  530.7 363  526.5 363  C 522.3 363  519 359.7  519 355.5  C 519 351.3  522.3 348  526.5 348  Z " fill-rule="nonzero" fill="#ffffff" stroke="none" />
  <path d="M 526.5 348.5  C 530.42 348.5  533.5 351.58  533.5 355.5  C 533.5 359.42  530.42 362.5  526.5 362.5  C 522.58 362.5  519.5 359.42  519.5 355.5  C 519.5 351.58  522.58 348.5  526.5 348.5  Z " stroke-width="1" stroke="#4284f5" fill="none" />
  <path d="M 526.5 359.25  C 524.4 359.25  522.75 357.6  522.75 355.5  C 522.75 353.4  524.4 351.75  526.5 351.75  C 528.6 351.75  530.25 353.4  530.25 355.5  C 530.25 357.6  528.6 359.25  526.5 359.25  " fill-rule="nonzero" fill="#4284f5" stroke="none" />
</svg>