<?xml version="1.0" encoding="utf-8"?>
<svg version="1.1" xmlns:xlink="http://www.w3.org/1999/xlink" width="15px" height="15px" viewBox="619 348  15 15" xmlns="http://www.w3.org/2000/svg">
  <path d="M 626.5 348  C 630.7 348  634 351.3  634 355.5  C 634 359.7  630.7 363  626.5 363  C 622.3 363  619 359.7  619 355.5  C 619 351.3  622.3 348  626.5 348  Z " fill-rule="nonzero" fill="#ffffff" stroke="none" />
  <path d="M 626.5 348.5  C 630.42 348.5  633.5 351.58  633.5 355.5  C 633.5 359.42  630.42 362.5  626.5 362.5  C 622.58 362.5  619.5 359.42  619.5 355.5  C 619.5 351.58  622.58 348.5  626.5 348.5  Z " stroke-width="1" stroke="#4284f5" fill="none" />
  <path d="M 626.5 359.25  C 624.4 359.25  622.75 357.6  622.75 355.5  C 622.75 353.4  624.4 351.75  626.5 351.75  C 628.6 351.75  630.25 353.4  630.25 355.5  C 630.25 357.6  628.6 359.25  626.5 359.25  " fill-rule="nonzero" fill="#4284f5" stroke="none" />
</svg>