<?xml version="1.0" encoding="utf-8"?>
<svg version="1.1" xmlns:xlink="http://www.w3.org/1999/xlink" width="30px" height="30px" xmlns="http://www.w3.org/2000/svg">
  <g transform="matrix(1 0 0 1 -59 -1153 )">
    <path d="M 74 1153  C 82.4 1153  89 1159.6  89 1168  C 89 1176.4  82.4 1183  74 1183  C 65.6 1183  59 1176.4  59 1168  C 59 1159.6  65.6 1153  74 1153  Z " fill-rule="nonzero" fill="#7f7f7f" stroke="none" />
    <path d="M 74 1153.5  C 82.12 1153.5  88.5 1159.88  88.5 1168  C 88.5 1176.12  82.12 1182.5  74 1182.5  C 65.88 1182.5  59.5 1176.12  59.5 1168  C 59.5 1159.88  65.88 1153.5  74 1153.5  Z " stroke-width="1" stroke="#797979" fill="none" />
  </g>
</svg>