<?xml version="1.0" encoding="utf-8"?>
<svg version="1.1" xmlns:xlink="http://www.w3.org/1999/xlink" width="6px" height="10px" xmlns="http://www.w3.org/2000/svg">
  <g transform="matrix(1 0 0 1 -381 -313 )">
    <path d="M 0.22027397260274 8.93333333007812  C 0.106860364597595 9.04902431596636  0.0437990202024515 9.20127795670024  0.0437990202024515 9.3594097840294  C 0.0437990202024515 9.70458775267365  0.338187129902752 9.9844097840294  0.701333266777794 9.9844097840294  C 0.867696611375373 9.9844097840294  1.02787578186748 9.92446866420856  1.14958903767123 9.81666666992188  L 5.75232876369863 5.44166666992188  C 6.00872625039178 5.19765204686241  6.00872625039178 4.80234795313759  5.75232876369863 4.55833333007813  L 1.14958903767123 0.183333330078125  C 1.02787578186748 0.0755313357914404  0.867696611375375 0.0155902159706026  0.701333266777798 0.0155902159706026  C 0.338187129902756 0.0155902159706026  0.0437990202024555 0.295412247326357  0.0437990202024555 0.640590215970603  C 0.0437990202024555 0.79872204329976  0.106860364597598 0.950975684033644  0.22027397260274 1.06666666992187  L 4.3574794520548 5  L 0.219397263698631 8.93333333007812  Z " fill-rule="nonzero" fill="#7f7f7f" stroke="none" transform="matrix(1 0 0 1 381 313 )" />
  </g>
</svg>