<?xml version="1.0" encoding="utf-8"?>
<svg version="1.1" xmlns:xlink="http://www.w3.org/1999/xlink" width="381px" height="60px" xmlns="http://www.w3.org/2000/svg">
  <defs>
    <filter x="-10px" y="-10px" width="381px" height="60px" filterUnits="userSpaceOnUse" id="filter3">
      <feOffset dx="0" dy="0" in="SourceAlpha" result="shadowOffsetInner" />
      <feGaussianBlur stdDeviation="5" in="shadowOffsetInner" result="shadowGaussian" />
      <feComposite in2="shadowGaussian" operator="atop" in="SourceAlpha" result="shadowComposite" />
      <feColorMatrix type="matrix" values="0 0 0 0 0.949019607843137  0 0 0 0 0.949019607843137  0 0 0 0 0.949019607843137  0 0 0 1 0  " in="shadowComposite" />
    </filter>
    <g id="widget4">
      <path d="M 1 4  A 3 3 0 0 1 4 1 L 357 1  A 3 3 0 0 1 360 4 L 360 36  A 3 3 0 0 1 357 39 L 4 39  A 3 3 0 0 1 1 36 L 1 4  Z " fill-rule="nonzero" fill="#f7f7f7" stroke="none" />
      <path d="M 0.5 4  A 3.5 3.5 0 0 1 4 0.5 L 357 0.5  A 3.5 3.5 0 0 1 360.5 4 L 360.5 36  A 3.5 3.5 0 0 1 357 39.5 L 4 39.5  A 3.5 3.5 0 0 1 0.5 36 L 0.5 4  Z " stroke-width="1" stroke="#f2f2f2" fill="none" stroke-opacity="0.996078431372549" />
    </g>
  </defs>
  <g transform="matrix(1 0 0 1 10 10 )">
    <use xlink:href="#widget4" filter="url(#filter3)" />
    <use xlink:href="#widget4" />
  </g>
</svg>