<?xml version="1.0" encoding="utf-8"?>
<svg version="1.1" xmlns:xlink="http://www.w3.org/1999/xlink" width="12px" height="9px" xmlns="http://www.w3.org/2000/svg">
  <g transform="matrix(1 0 0 1 -336 -15 )">
    <path d="M 11.7723711340206 0.916941176470588  C 11.960412371134 0.704647058823529  11.9500206185567 0.369529411764705  11.7510927835052 0.168882352941177  C 11.5521649484536 -0.0307058823529411  11.2384329896907 -0.0211764705882348  11.0518762886598 0.192176470588236  L 4.45261855670103 7.70929411764706  L 0.847670103092783 3.90917647058824  C 0.652701030927835 3.70376470588235  0.339463917525773 3.70588235294118  0.147463917525773 3.91447058823529  C -0.0445360824742272 4.12252941176471  -0.0420618556701035 4.45817647058824  0.152907216494845 4.66305882352941  L 4.11909278350515 8.84329411764706  C 4.12057731958763 8.84488235294118  4.12255670103093 8.84541176470588  4.1240412371134 8.847  C 4.12552577319588 8.84858823529412  4.1260206185567 8.85070588235294  4.12750515463918 8.85229411764706  C 4.15868041237113 8.88405882352941  4.19628865979381 8.90205882352942  4.23241237113402 8.92323529411765  C 4.25022680412371 8.93435294117647  4.26556701030928 8.95076470588236  4.28437113402062 8.95870588235294  C 4.34276288659794 8.98305882352942  4.40461855670103 8.99576470588236  4.4659793814433 8.99576470588236  C 4.53080412371134 8.99576470588236  4.59562886597938 8.982  4.656 8.9544705882353  C 4.67628865979381 8.9454705882353  4.69212371134021 8.92694117647059  4.71092783505155 8.91529411764706  C 4.7480412371134 8.892  4.78663917525773 8.87241176470589  4.81830927835052 8.838  C 4.81979381443299 8.83641176470589  4.82028865979381 8.83376470588236  4.82177319587629 8.83217647058824  C 4.82276288659794 8.83058823529412  4.82474226804124 8.83005882352941  4.82622680412371 8.8284705882353  L 11.7723711340206 0.916941176470588  Z " fill-rule="nonzero" fill="#18d0a5" stroke="none" transform="matrix(1 0 0 1 336 15 )" />
  </g>
</svg>