<?xml version="1.0" encoding="utf-8"?>
<svg version="1.1" xmlns:xlink="http://www.w3.org/1999/xlink" width="15px" height="15px" xmlns="http://www.w3.org/2000/svg">
  <g transform="matrix(1 0 0 1 -367 -119 )">
    <path d="M 6.50558035714286 14.8962053571429  C 6.44363839285714 14.9598214285714  6.38169642857143 14.9598214285714  6.2578125 14.9598214285714  C 6.13225446428571 14.9598214285714  6.00837053571429 14.8978794642857  5.94810267857143 14.8978794642857  C 5.765625 14.7672991071429  5.65178571428572 14.5630580357143  5.63839285714286 14.3387276785714  L 5.63839285714286 8.93136160714286  L 0.170758928571429 1.03627232142857  C 0.046875 0.850446428571429  -0.0150669642857143 0.601004464285714  0.108816964285714 0.3515625  C 0.227678571428571 0.157366071428572  0.440290178571428 0.0401785714285715  0.66796875 0  L 14.33203125 0  C 14.5597098214286 0.0401785714285715  14.7723214285714 0.159040178571429  14.8911830357143 0.3515625  C 15.0150669642857 0.537388392857143  14.953125 0.786830357142857  14.8292410714286 0.97265625  L 9.36328125 8.9296875  L 9.36328125 13.0948660714286  C 9.36328125 13.3443080357143  9.23772321428571 13.5301339285714  8.98995535714286 13.6540178571429  L 6.50558035714286 14.8962053571429  Z " fill-rule="nonzero" fill="#ffffff" stroke="none" transform="matrix(1 0 0 1 367 119 )" />
  </g>
</svg>