<?xml version="1.0" encoding="utf-8"?>
<svg version="1.1" xmlns:xlink="http://www.w3.org/1999/xlink" width="12px" height="12px" xmlns="http://www.w3.org/2000/svg">
  <g transform="matrix(1 0 0 1 -327 -118 )">
    <path d="M 4.06105263157895 1.48578947368421  C 4.65789473684211 1.23315789473684  5.29105263157895 1.10526315789474  5.94473684210526 1.10526315789474  C 6.59842105263158 1.10526315789474  7.23157894736842 1.23315789473684  7.82842105263158 1.48578947368421  C 8.40473684210526 1.72894736842105  8.92263157894737 2.07789473684211  9.36631578947368 2.52315789473684  C 9.81157894736842 2.96842105263158  10.1605263157895 3.48631578947368  10.4036842105263 4.06105263157895  C 10.6563157894737 4.65631578947368  10.7842105263158 5.29105263157895  10.7842105263158 5.94473684210526  C 10.7842105263158 6.59842105263158  10.6563157894737 7.23157894736842  10.4036842105263 7.82842105263158  C 10.1605263157895 8.40473684210527  9.81157894736842 8.92263157894737  9.36631578947368 9.36631578947368  C 8.92105263157895 9.81157894736842  8.40315789473684 10.1605263157895  7.82842105263158 10.4036842105263  C 7.23315789473684 10.6563157894737  6.59842105263158 10.7842105263158  5.94473684210526 10.7842105263158  C 5.29105263157895 10.7842105263158  4.65789473684211 10.6563157894737  4.06105263157895 10.4036842105263  C 3.48473684210526 10.1605263157895  2.96684210526316 9.81157894736842  2.52315789473684 9.36631578947368  C 2.07947368421053 8.92105263157895  1.72894736842105 8.40315789473684  1.48578947368421 7.82842105263158  C 1.23315789473684 7.23157894736842  1.10526315789474 6.59842105263158  1.10526315789474 5.94473684210526  C 1.10526315789474 5.29105263157895  1.23315789473684 4.65789473684211  1.48578947368421 4.06105263157895  C 1.72894736842105 3.48473684210526  2.07789473684211 2.96684210526316  2.52315789473684 2.52315789473684  C 2.96842105263158 2.07789473684211  3.48631578947368 1.72894736842105  4.06105263157895 1.48578947368421  Z M 11.8894736842105 5.94473684210526  C 11.8894736842105 2.6621052631579  9.22736842105263 0  5.94473684210526 0  C 2.6621052631579 0  0 2.6621052631579  0 5.94473684210526  C 0 9.22736842105263  2.6621052631579 11.8894736842105  5.94473684210526 11.8894736842105  C 9.22736842105263 11.8894736842105  11.8894736842105 9.22736842105263  11.8894736842105 5.94473684210526  Z " fill-rule="nonzero" fill="#ffffff" stroke="none" transform="matrix(1 0 0 1 327 118 )" />
  </g>
</svg>