<?xml version="1.0" encoding="utf-8"?>
<svg version="1.1" xmlns:xlink="http://www.w3.org/1999/xlink" width="15px" height="15px" viewBox="261 15  15 15" xmlns="http://www.w3.org/2000/svg">
  <path d="M 268.5 15  C 272.7 15  276 18.3  276 22.5  C 276 26.7  272.7 30  268.5 30  C 264.3 30  261 26.7  261 22.5  C 261 18.3  264.3 15  268.5 15  Z " fill-rule="nonzero" fill="#ffffff" stroke="none" />
  <path d="M 268.5 15.5  C 272.42 15.5  275.5 18.58  275.5 22.5  C 275.5 26.42  272.42 29.5  268.5 29.5  C 264.58 29.5  261.5 26.42  261.5 22.5  C 261.5 18.58  264.58 15.5  268.5 15.5  Z " stroke-width="1" stroke="#4284f5" fill="none" />
  <path d="M 268.5 26.25  C 266.4 26.25  264.75 24.6  264.75 22.5  C 264.75 20.4  266.4 18.75  268.5 18.75  C 270.6 18.75  272.25 20.4  272.25 22.5  C 272.25 24.6  270.6 26.25  268.5 26.25  " fill-rule="nonzero" fill="#4284f5" stroke="none" />
</svg>