<?xml version="1.0" encoding="utf-8"?>
<svg version="1.1" xmlns:xlink="http://www.w3.org/1999/xlink" width="40px" height="32px" xmlns="http://www.w3.org/2000/svg">
  <g transform="matrix(1 0 0 1 -40 -72 )">
    <path d="M 2.68359375 30.48390625  C 2.55652188900766 30.8781280553584  2.18985944828272 31.1455330819353  1.7756640625 31.1460546875  C 1.24853511704909 31.1458094019173  0.821342712509609 30.7184181683853  0.821342712509609 30.1912891658658  C 0.821342712509609 30.0924078501744  0.836703282706692 29.9941266534928  0.866875 29.8999609375  L 10.0961328125 1.2475390625  C 10.2209414438386 0.849339699861817  10.5898945179999 0.578330046665049  11.0071952810738 0.578330046665049  C 11.534497775424 0.578330046665049  11.9619609060738 1.00579317731488  11.9619609060738 1.53309567166505  C 11.9619609060738 1.63492208544353  11.9456717783442 1.73609291621717  11.9137109375 1.8327734375  L 2.68359375 30.48390625  Z M 38.3102734375 31.144765625  L 38.3102734375 31.1460546875  C 37.8960780517173 31.1455330819353  37.5294156109923 30.8781280553584  37.40234375 30.48390625  L 28.1722265625 1.8327734375  C 28.1432597648889 1.74035546750289  28.1285234060739 1.64406803659931  28.1285234060739 1.54721682833513  C 28.1285234060739 1.01991433398497  28.5559865367237 0.592451203335132  29.0832890310739 0.592451203335132  C 29.4951202688213 0.592451203335132  29.8605408535311 0.85652009926138  29.9898046875 1.2475390625  L 39.2190625 29.898671875  C 39.2492342172933 29.9928375909928  39.2645947874904 30.0911187876744  39.2645947874904 30.1900001033658  C 39.2645947874904 30.7171291058853  38.8374023829509 31.1445203394173  38.3102734375 31.144765625  Z M 35.1616652628707 30.3906640730384  C 35.1616652628707 30.2945007093516  35.1471309245067 30.1988896524786  35.1185546875 30.1070703125  L 26.1483984375 1.2565625  C 26.0242088772613 0.857327443176816  25.654706423316 0.585337418170873  25.2366015625 0.585390625  L 20.67890625 0.585390625  C 20.8811207661322 0.764934937351407  20.9971099848212 1.02223716641081  20.997734375 1.29265625  L 20.997734375 3.61296875  C 20.9867161007589 4.13226154955791  20.5625932721734 4.54748086427584  20.04318359375 4.54748086427584  C 19.5237739153266 4.54748086427584  19.0996510867411 4.13226154955791  19.0886328125 3.61296875  L 19.0886328125 1.29265625  C 19.0890932130809 1.02229251481748  19.2049309068034 0.764979635104648  19.40703125 0.585390625  L 14.781015625 0.585390625  C 14.362910764184 0.585337418170873  13.9934083102387 0.857327443176814  13.86921875 1.2565625  L 4.8990625 30.1070703125  C 4.87058759480137 30.1987615829597  4.8561057981561 30.2942233897431  4.8561057981561 30.390234375076  C 4.8561057981561 30.9175321643347  5.2835615857833 31.3449933460465  5.810859375 31  L 19.3524609375 31  C 19.1833601017938 31.1683891205434  19.0888639051344 30.933379849698  19.0886328125 30.6888671875  L 19.0886328125 28.3685546875  C 19.0996510867411 27.8492618879421  19.5237739153266 27.4340425732242  20.04318359375 27.4340425732242  C 20.5625932721734 27.4340425732242  20.9867161007589 27.8492618879421  20.997734375 28.3685546875  L 20.997734375 30.6888671875  C 20.9975654282247 30.9334740280763  20.902886440246 31.1685550274964  20.7334765625 31  L 34.2071875 31  C 34.2072347751222 31.3450000070256  34.207282050248 31.3450000105384  34.2073293253707 31.3450000105384  C 34.7343945098674 31.3450000105384  35.1616652628707 30.9177292575352  35.1616652628707 30.3906640730384  Z M 20.997734375 18.4668359375  L 20.997734375 23.4185546875  C 20.9978776001377 23.4253049081883  20.99794921875 23.4320564582425  20.99794921875 23.4388081982242  C 20.99794921875 23.9661106925744  20.5704860881002 24.3935738232242  20.04318359375 24.3935738232242  C 19.5158810993998 24.3935738232242  19.08841796875 23.9661106925744  19.08841796875 23.4388081982242  C 19.08841796875 23.4320564582425  19.0884895873623 23.4253049081883  19.0886328125 23.4185546875  L 19.0886328125 18.4668359375  C 19.0884895873623 18.4600857168116  19.08841796875 18.4533341667576  19.08841796875 18.4465824267758  C 19.08841796875 17.9192799324256  19.5158810993998 17.4918168017758  20.04318359375 17.4918168017758  C 20.5704860881002 17.4918168017758  20.99794921875 17.9192799324256  20.99794921875 18.4465824267758  C 20.99794921875 18.4533341667576  20.9978776001377 18.4600857168116  20.997734375 18.4668359375  Z M 20.997734375 8.56296875  L 20.997734375 13.5151171875  C 20.9867161007589 14.0344099870579  20.5625932721734 14.4496293017758  20.04318359375 14.4496293017758  C 19.5237739153266 14.4496293017758  19.0996510867411 14.0344099870579  19.0886328125 13.5151171875  L 19.0886328125 8.56296875  C 19.0884895873623 8.55621852931159  19.08841796875 8.54946697925761  19.08841796875 8.54271523927576  C 19.08841796875 8.0154127449256  19.5158810993998 7.58794961427576  20.04318359375 7.58794961427576  C 20.5704860881002 7.58794961427576  20.99794921875 8.0154127449256  20.99794921875 8.54271523927576  C 20.99794921875 8.54946697925761  20.9978776001377 8.55621852931159  20.997734375 8.56296875  Z " fill-rule="nonzero" fill="#0099ff" stroke="none" transform="matrix(1 0 0 1 40 72 )" />
  </g>
</svg>