<?xml version="1.0" encoding="utf-8"?>
<svg version="1.1" xmlns:xlink="http://www.w3.org/1999/xlink" width="40px" height="34px" xmlns="http://www.w3.org/2000/svg">
  <g transform="matrix(1 0 0 1 -296 -71 )">
    <path d="M 0.138888888888889 28  L 39.8611111111111 28  L 39.8611111111111 29.6129032258065  L 38.6480555555556 29.6129032258065  L 34.9615277777778 33.2533709677419  C 34.819109021921 33.3891487319496  34.6288447277322 33.4650367158426  34.4308451571529 33.4650367158426  C 34.0089609732544 33.4650367158426  33.666956268264 33.1274449747876  33.666956268264 32.7110044577781  C 33.666956268264 32.5155597203676  33.7438362519465 32.3277504493296  33.8813888888889 32.1871693548387  L 36.4877777777778 29.6129032258065  L 34.0647222222222 29.6129032258065  L 30.3781944444445 33.2533709677419  C 30.2357756885877 33.3891487319496  30.0455113943989 33.4650367158426  29.8475118238195 33.4650367158426  C 29.425627639921 33.4650367158426  29.0836229349307 33.1274449747876  29.0836229349307 32.7110044577781  C 29.0836229349307 32.5155597203676  29.1605029186132 32.3277504493296  29.2980555555556 32.1871693548387  L 31.9044444444444 29.6129032258065  L 29.4813888888889 29.6129032258065  L 25.7948611111111 33.2533709677419  C 25.6524423552543 33.3891487319496  25.4621780610655 33.4650367158426  25.2641784904862 33.4650367158426  C 24.8422943065877 33.4650367158426  24.5002896015973 33.1274449747876  24.5002896015973 32.7110044577781  C 24.5002896015973 32.5155597203676  24.5771695852799 32.3277504493296  24.7147222222222 32.1871693548387  L 27.3211111111111 29.6129032258065  L 24.8980555555556 29.6129032258065  L 21.2115277777778 33.2533709677419  C 21.069109021921 33.3891487319496  20.8788447277322 33.4650367158426  20.6808451571529 33.4650367158426  C 20.2589609732544 33.4650367158426  19.916956268264 33.1274449747876  19.916956268264 32.7110044577781  C 19.916956268264 32.5155597203676  19.9938362519465 32.3277504493296  20.1313888888889 32.1871693548387  L 22.7377777777778 29.6129032258065  L 20.3147222222222 29.6129032258065  L 16.6281944444445 33.2533709677419  C 16.4857756885876 33.3891487319496  16.2955113943989 33.4650367158426  16.0975118238195 33.4650367158426  C 15.675627639921 33.4650367158426  15.3336229349307 33.1274449747876  15.3336229349307 32.7110044577781  C 15.3336229349307 32.5155597203676  15.4105029186132 32.3277504493296  15.5480555555556 32.1871693548387  L 18.1544444444444 29.6129032258065  L 15.7313888888889 29.6129032258065  L 12.0448611111111 33.2533709677419  C 11.9024423552543 33.3891487319496  11.7121780610655 33.4650367158426  11.5141784904862 33.4650367158426  C 11.0922943065877 33.4650367158426  10.7502896015973 33.1274449747876  10.7502896015973 32.7110044577781  C 10.7502896015973 32.5155597203676  10.8271695852799 32.3277504493296  10.9647222222222 32.1871693548387  L 13.5711111111111 29.6129032258065  L 11.1480555555556 29.6129032258065  L 7.46152777777778 33.2533709677419  C 7.31910902192098 33.3891487319496  7.12884472773221 33.4650367158426  6.93084515715289 33.4650367158426  C 6.50896097325437 33.4650367158426  6.166956268264 33.1274449747876  6.166956268264 32.7110044577781  C 6.166956268264 32.5155597203675  6.24383625194653 32.3277504493296  6.38138888888889 32.1871693548387  L 8.98777777777778 29.6129032258065  L 6.56472222222222 29.6129032258065  L 2.87819444444445 33.2533709677419  C 2.73577568858765 33.3891487319496  2.54551139439888 33.4650367158426  2.34751182381956 33.4650367158426  C 1.92562763992104 33.4650367158426  1.58362293493067 33.1274449747876  1.58362293493067 32.7110044577781  C 1.58362293493067 32.5155597203675  1.6605029186132 32.3277504493296  1.79805555555556 32.1871693548387  L 4.40444444444444 29.6129032258065  L 0.138888888888889 29.6129032258065  L 0.138888888888889 28  Z M 29.1666666666667 20.5645161290323  C 29.4447222222222 18.8453225806452  30.1490277777778 17.0235806451613  31.2826388888889 15.0932580645161  C 32.7752777777778 12.5506612903226  34.5093055555556 10.7289193548387  36.4816666666667 9.63104838709677  C 35.3679166666667 11.9534677419355  34.8118055555556 13.9531612903226  34.8118055555556 15.6286209677419  C 34.8118055555556 17.3025725806452  35.0959722222222 18.9463629032258  35.6643055555556 20.5645161290323  L 39.8611111111111 20.5645161290323  L 39.8611111111111 26  L 0.138888888888889 26  L 0.138888888888889 20.5645161290323  L 4.72222222222222 20.5645161290323  C 5.59763888888889 19.2464677419355  5.975 17.5966451612903  5.85430555555555 15.6135403225806  C 5.73361111111111 13.630435483871  4.77722222222222 11.3879435483871  2.98361111111111 8.88908064516129  C 6.55402777777778 9.84820967741936  9.05347222222222 11.5824838709677  10.4819444444444 14.0888870967742  C 11.6127172644928 16.0726799824431  12.2563427125663 18.2906203660059  12.3611111111111 20.5645161290323  C 12.4772222222222 19.2208306451613  12.1655555555556 16.9587338709677  11.4261111111111 13.7782258064516  C 10.6866666666667 10.5977177419355  8.96180555555556 7.32974193548387  6.25 3.9758064516129  C 10.2741666666667 5.48387096774194  13.5268055555556 8.24815322580645  16.0109722222222 12.2701612903226  C 16.4341666666667 12.9563306451613  16.8130555555556 13.7556048387097  17.1445833333333 14.6679838709677  L 17.0926388888889 14.144685483871  C 16.9796426447649 13.1637913834506  16.8102958463325 12.1900242565608  16.5854166666667 11.2280887096774  C 15.8459722222222 8.04607258064516  14.4388888888889 4.62427419354839  12.3611111111111 0.959677419354839  C 15.9895833333333 2.73466935483871  19.0451388888889 5.63467741935484  21.5277777777778 9.65517741935484  C 22.3756944444444 11.0275161290323  23.1411111111111 13.3001693548387  23.8255555555556 16.4731370967742  C 24.2686111111111 14.7795806451613  24.8338888888889 13.3785887096774  25.5168055555556 12.2701612903226  C 28.0009722222222 8.24815322580645  31.2536111111111 5.48387096774194  35.2777777777778 3.9758064516129  C 32.5659722222222 7.32974193548387  30.8411111111111 10.5977177419355  30.1016666666667 13.7782258064516  C 29.3622222222222 16.9587338709677  29.0505555555556 19.2208306451613  29.1666666666667 20.5645161290323  Z M 21.8913888888889 7.43530645161291  C 23.9416666666667 5.17320967741935  26.3677777777778 3.51584677419355  29.1666666666667 2.46774193548387  C 26.6030555555556 5.63920161290323  24.9194444444444 8.73224193548387  24.1204166666667 11.7483709677419  C 23.7094444444444 10.5509677419355  23.2786111111111 9.59183870967742  22.8325 8.87098387096774  C 22.5321298682425 8.38403570160802  22.2183085686448 7.90529716773491  21.8913888888889 7.43530645161291  Z " fill-rule="nonzero" fill="#0099ff" stroke="none" transform="matrix(1 0 0 1 296 71 )" />
  </g>
</svg>