<?xml version="1.0" encoding="utf-8"?>
<svg version="1.1" xmlns:xlink="http://www.w3.org/1999/xlink" width="42px" height="30px" xmlns="http://www.w3.org/2000/svg">
  <g transform="matrix(1 0 0 1 -167 -73 )">
    <path d="M 24.4385262258652 17.2891449216758  L 24.4414571948998 17.2891449216758  L 24.4414571948998 17.198282557377  L 23.8933520801457 9.8706739125683  C 23.8777198445659 9.6713629690346  23.7936965950212 9.4994084177292  23.6412823315118 9.35481025865209  C 23.4888680680024 9.21021209957498  23.3130054644809 9.13791303339405  23.1136945209472 9.13791306010928  L 18.8548883970856 9.13791306010928  C 18.6555774535519 9.13791306010928  18.4797148500304 9.21021212629022  18.3273005865209 9.35481025865209  C 18.1748863230115 9.49940839101396  18.0908630734669 9.67136294231937  18.0752308378871 9.8706739125683  L 17.527125723133 17.198282557377  L 17.527125723133 17.2891449216758  C 17.5114934875531 17.4728236563449  17.572068383728 17.6252379198543  17.7088504116576 17.746387712204  C 17.8456324395871 17.8675375045537  18.0058628208865 17.9281124007286  18.1895415555556 17.9281124007286  L 23.7761103934426 17.9281124007286  C 23.9597891281117 17.9281124007286  24.1200195094111 17.8675375045537  24.2568015373406 17.746387712204  C 24.3935835652702 17.6252379198543  24.454158461445 17.4728236563449  24.4385262258652 17.2891449216758  Z M 41.8137517850637 27.9845225027322  L 41.8196138433515 27.9845225027322  C 41.8196138433515 29.0983190273224  41.4688656393443 29.6552172896175  40.7673692313297 29.6552172896175  L 24.6466302367942 29.6552172896175  C 24.8459411803279 29.6552172896175  25.0139876660595 29.5829182234366  25.1507696939891 29.4383200910747  C 25.2875517219186 29.2937219587128  25.3481266180935 29.1217674074074  25.3324943825137 28.9224564371585  L 24.8752515919854 23.0603695373406  C 24.8596193564056 22.8610585938069  24.775596106861 22.6891040425015  24.6231818433515 22.5445058834244  C 24.4707675798421 22.3999077243473  24.2949049763206 22.3276086581664  24.0955940327869 22.3276086848816  L 17.8671267067395 22.3276086848816  C 17.6678157632058 22.3276086848816  17.4919531596843 22.3999077510625  17.3395388961749 22.5445058834244  C 17.1871246326655 22.6891040157863  17.1031013831208 22.8610585670917  17.087469147541 23.0603695373406  L 16.6302263570128 28.9224564371585  C 16.6145941214329 29.1217673806922  16.6751690176078 29.2937219319976  16.8119510455373 29.4383200910747  C 16.9487330734669 29.5829182501518  17.1167795591985 29.6552173163327  17.3160905027322 29.6552172896175  L 1.19535150819672 29.6552172896175  C 0.493855100182152 29.6552172896175  0.143106896174866 29.0983190273224  0.143106896174865 27.9845225027322  C 0.143106896174866 27.1599222695811  0.34144083667274 26.274747140255  0.73810871766849 25.3289971147541  L 10.2874483132969 1.42340668488161  C 10.4085981056466 1.13421039344263  10.6069320461445 0.882140658166366  10.8824501347905 0.667197479052827  C 11.1579682234366 0.452254299939287  11.448141531269 0.34575972677596  11.7529700582878 0.347713759562845  L 19.514373140255 0.347713759562845  C 19.3150621967213 0.347713759562845  19.1391995931998 0.420012825743781  18.9867853296903 0.56461095810565  C 18.8343710661809 0.70920909046752  18.7503478166363 0.881163641772924  18.7347155810565 1.08047461202186  L 18.3917835081967 5.47703980692168  C 18.3761512726169 5.69002895324834  18.4367261687917 5.86589155676989  18.5735081967213 6.00462761748634  C 18.7102902246509 6.14336367820279  18.8783367103825 6.21175469216758  19.0776476539162 6.20980065938069  L 22.8792110273224 6.20980065938069  C 23.0785219708561 6.20980065938069  23.2465684565877 6.14140964541591  23.3833504845173 6.00462761748634  C 23.5201325124469 5.86784558955677  23.5807074086217 5.69198298603522  23.5650751730419 5.47703980692168  L 23.2221431001822 1.08047461202186  C 23.2065108646023 0.881163668488163  23.1224876150577 0.709209117182759  22.9700733515483 0.564610958105649  C 22.8176590880389 0.420012799028539  22.6417964845173 0.347713732847605  22.4424855409836 0.347713759562844  L 30.2038886229508 0.347713759562844  C 30.5087171499696 0.347713759562844  30.7988904578021 0.454208332726172  31.0744085464481 0.667197479052826  C 31.3499266350941 0.880186625379481  31.548260575592 1.13225636065574  31.6694103679417 1.42340668488161  L 41.2187499635701 25.3289971147541  C 41.6154178445659 26.274747140255  41.8137517850637 27.1599222695811  41.8137517850637 27.9845225027322  Z " fill-rule="nonzero" fill="#0099ff" stroke="none" transform="matrix(1 0 0 1 167 73 )" />
  </g>
</svg>