<?xml version="1.0" encoding="utf-8"?>
<svg version="1.1" xmlns:xlink="http://www.w3.org/1999/xlink" width="39px" height="38px" xmlns="http://www.w3.org/2000/svg">
  <g transform="matrix(1 0 0 1 -41 -254 )">
    <path d="M 8.284375 0.25  L 9.840625 0.25  C 12.9730143090444 0.249894729630375  15.6216790154138 2.5685618660259  16.0359375 5.6734375  L 17.49375 16.6109375  C 17.5303080916561 16.8849411263458  17.5486475450152 17.1610683097674  17.5486475450152 17.4375000035295  C 17.5486475450152 20.889279689972  14.7504272314576 23.6875000035295  11.2986475450152 23.6875000035295  L 11 23.6875  L 11 34.625  L 20 34.625  L 20 31.5  L 19.21875 31.5  C 18.7872775391947 31.5  18.4375 31.1502224608053  18.4375 30.71875  L 18.4375 27.59375  C 18.4375 27.1622775391947  18.7872775391947 26.8125  19.21875 26.8125  L 21.5625 26.8125  L 21.5625 23.6875  L 19.21875 23.6875  C 18.7872775391947 23.6875  18.4375 23.3377224608053  18.4375 22.90625  L 18.4375 19.78125  C 18.4375 19.3497775391947  18.7872775391947 19  19.21875 19  L 36.40625 19  C 36.8377224608053 19  37.1875 19.3497775391947  37.1875 19.78125  L 37.1875 22.90625  C 37.1875 23.3377224608053  36.8377224608053 23.6875  36.40625 23.6875  L 34.0625 23.6875  L 34.0625 26.8125  L 36.40625 26.8125  C 36.8377224608053 26.8125  37.1875 27.1622775391947  37.1875 27.59375  L 37.1875 30.71875  C 37.1875 31.1502224608053  36.8377224608053 31.5  36.40625 31.5  L 35.625 31.5  L 35.625 34.625  L 37.1875 34.625  C 38.0504449216106 34.625  38.75 35.3245550783894  38.75 36.1875  C 38.75 37.0504449216106  38.0504449216106 37.75  37.1875 37.75  C 37.1875 37.75  37.1875 37.75  37.1875 37  L 2.8125 37  C 2.8125 37.75  2.8125 37.75  2.8125 37.75  C 1.94955507838939 37.75  1.25 37.0504449216106  1.25 36.1875  C 1.25 35.3245550783894  1.94955507838939 34.625  2.8125 34.625  L 8 34.625  L 8 23.6875  L 6.8265625 23.6875  C 3.37457276854237 23.6875000035295  0.576352454984826 20.889279689972  0.576352454984826 17.4375000035295  C 0.576352454984826 17.1610683097674  0.594691908343859 16.8849411263458  0.631250000000001 16.6109375  L 2.0890625 5.6734375  C 2.50332098458615 2.5685618660259  5.15198569095557 0.249894729630375  8.284375 0.25  Z M 21.5625 34  L 34.0625 34  L 34.0625 31  L 21.5625 31  L 21.5625 34  Z M 32.5 26.8125  L 32.5 23.6875  L 23.125 23.6875  L 23.125 26.8125  L 32.5 26.8125  Z " fill-rule="nonzero" fill="#0099ff" stroke="none" transform="matrix(1 0 0 1 41 254 )" />
  </g>
</svg>