<?xml version="1.0" encoding="utf-8"?>
<svg version="1.1" xmlns:xlink="http://www.w3.org/1999/xlink" width="40px" height="37px" xmlns="http://www.w3.org/2000/svg">
  <g transform="matrix(1 0 0 1 -168 -255 )">
    <path d="M 38.9462348282098 12.1255776491863  C 39.0552058227848 12.3496416274864  39.111527920434 12.5957447016275  39.111527920434 12.8467453526221  C 39.111527920434 13.4920006509946  38.7368635443038 14.0772606871609  38.1540522965642 14.3454028571429  C 34.7171144712323 15.9612172857289  30.6880003586543 15.6784886985235  27.5104006148282 13.5985228933092  C 25.011853919984 11.9487376287144  21.7700042716978 11.9487376287144  19.2714575768535 13.5985228933092  C 17.3901674273579 14.8399302048639  15.1695332045774 15.4659008928908  12.9168559132007 15.3898104159132  C 10.9541533092224 15.323693164557  11.4610521880651 12.6863498372514  12.6964650994575 12.7843013019892  C 14.3564229157756 12.9148981025404  16.0124550036492 12.4874237667383  17.4018088607595 11.5697030379747  C 21.0340299396089 9.17161091768988  25.7466038397763 9.17161091768988  29.3788249186257 11.5697030379747  C 31.5654854720197 12.9995273834038  34.336895059811 13.1941423442029  36.7019217359855 12.0839482820976  C 37.5394067992767 11.6835716455696  38.5434093670886 11.2954389511754  38.9462348282098 12.1255776491863  Z M 12.2262980470163 35.9179898372514  L 12.2250736347197 35.9155410488246  C 11.7328674864376 34.4315762748644  11.6434867631103 34.6262548282098  11.6434867992767 34.6262548282098  L 10.5733669801085 31.3791635804702  L 6.56347866184448 32.5349909222423  C 6.42449962889502 32.5769492644353  6.28011197405591 32.5982696532081  6.13493734101298 32.5982696532081  C 5.31604243133342 32.5982696532081  4.65219694318296 31.9344241650576  4.65219694318296 31.115529255378  C 4.65219694318296 31.1144347768404  4.65219815501 31.1133402986389  4.65220057866184 31.1122458227848  C 4.65220057866184 30.3800585895118  5.17868972875226 29.7568423508137  5.8974086437613 29.6429737793852  L 9.64282799276673 28.5569368173599  L 8.0976435443038 23.8724077396022  L 4.52731244122966 24.8004979385172  C 4.46412349621858 24.8103967573341  4.40026067182469 24.8153686315183  4.33630108000624 24.8153686315183  C 3.65467757356492 24.8153686315183  3.10211254474403 24.2628036026974  3.10211254474403 23.5811800962561  C 3.10211254474403 23.5798963728579  3.10211454761359 23.5786126502407  3.10211855334539 23.5773289330922  C 3.10211855334539 23.0141079927667  3.48168050632911 22.5194530560579  4.02408676311031 22.3774234358047  L 7.32015377938517 21.5130016998192  L 5.4798905244123 15.9322166726944  C 5.46764658227848 15.9346654611212  5.45785142857143 15.9407874141049  5.44683189873418 15.9420118264014  L 3.05436723327305 16.8823459312839  C 2.99117827651293 16.8922447538566  2.92731543998569 16.8972166299357  2.86335583597849 16.8972166299357  C 2.18173232953717 16.8972166299357  1.62916730071628 16.3446516011148  1.62916730071628 15.6630280946735  C 1.62916730071628 15.6617443814472  1.6291693035541 15.6604606690021  1.62917330922242 15.6591769620253  C 1.62917330922242 15.0959560216998  2.00751084990958 14.6025254611212  2.54991714285714 14.460495840868  L 4.70484951175407 13.5826057866184  L 3.25027016274864 9.16377005424955  L 1.82874943942134 9.4576244846293  C 1.76556049441026 9.46752330344626  1.70169767001638 9.47249517763041  1.63773807819792 9.47249517763041  C 0.956114571756598 9.47249517763041  0.403549542935713 8.91993014880952  0.403549542935713 8.2383066423682  C 0.403549542935713 8.23702291896998  0.40355154580527 8.2357391963528  0.40355555153707 8.23445547920434  C 0.40355555153707 7.67123453887884  0.781893092224232 7.17780397830018  1.32429938517179 7.03699873417721  L 2.47033157323689 6.79946643761302  C 2.47033157323689 6.79946643761302  0.791688245931284 3.64910227848101  0.424370235081374 2.33043059674503  C 0.0546034358047016 1.00931012658228  0.840663978300181 0.78157294755877  0.840663978300181 0.78157294755877  L 0.854132296564195 0.78157294755877  C 1.55326090415913 0.780348571428571  2.17647714285714 1.22235457504521  2.41156068716094 1.88597580470163  L 5.51294911392405 8.89440350813743  L 7.5331982278481 8.55524654611211  C 7.57631096197963 8.55068286553001  7.61963439488141 8.54839626114071  7.66298799939997 8.54839626114071  C 8.3439352816024 8.54839626114071  8.89595212236562 9.10041310190393  8.89595212236562 9.78136038410635  C 8.89595212236562 9.78241942556296  8.89595075788698 9.78347846658019  8.89594802893309 9.7845375045208  C 8.89717240506329 10.3661243761302  8.49557139240506 10.8693500542495  7.93235045207957 10.9930137793852  L 6.33084390596745 11.2623803254973  L 8.04132144665461 16.223622278481  L 9.4983495840868 15.9787436166365  C 9.54186626627454 15.9740932124852  9.58559968748115 15.9717630632646  9.62936414666208 15.9717630632646  C 10.3103114288645 15.9717630632646  10.8623282696277 16.5237799040278  10.8623282696277 17.2047271862302  C 10.8623282696277 17.2058296506556  10.8623267909621 17.2069321145863  10.8623238336347 17.2080345750452  C 10.8623238336347 17.7896214466546  10.4607228209765 18.292847124774  9.89750184448463 18.4165108499096  L 8.85921623869801 18.5903747197107  L 10.6921331283906 23.9017932007233  L 12.2030345750452 23.648343761302  C 12.2461473211092 23.6437800781705  12.2894707661202 23.6414934725012  12.3328243827733 23.6414934725012  C 13.0137716649757 23.6414934725012  13.565788505739 24.1935103132644  13.565788505739 24.8744575954668  C 13.565788505739 24.8755166381994  13.565787141257 24.8765756804941  13.5657844122966 24.8776347197107  C 13.5657844122966 25.4592215913201  13.1641833996383 25.9612228571429  12.5997380108499 26.086110994575  L 11.5088035081374 26.2697699819168  L 13.1666321518987 31.0742896202532  L 14.6579432911392 30.8232889692586  C 14.701459973327 30.8186385651072  14.7451933945336 30.8163084158866  14.7889578537145 30.8163084158866  C 15.4699051359169 30.8163084158866  16.0219219766802 31.3683252566498  16.0219219766802 32.0492725388523  C 16.0219219766802 32.0503750032782  16.0219204980145 32.0514774672078  16.0219175406872 32.0525799276673  C 16.0219175406872 32.6341667992767  15.6203165280289 33.137392477396  15.0558711392405 33.2610562025316  L 13.9820781555154 33.4410420253165  L 14.5159136708861 34.9874508860759  C 14.6910019168174 35.4857789873418  14.6101919710669 36.0404291862568  14.3016448101266 36.4689668716094  C 13.9906488969259 36.8999533453888  12.718504159132 37.4019546112116  12.2262980470163 35.9179898372514  Z M 39.0650009764919 22.4778236889693  C 39.1727475949367 22.7018876672694  39.2278452802893 22.9479907414105  39.2278452802893 23.1965426039783  C 39.2289105924946 23.8401740676198  38.8562666572363 24.4258938981893  38.2728184448463 24.6976488969259  C 34.835240912312 26.3137800682234  30.8054498510654 26.0315324752455  27.6267180108499 23.9519933092224  C 25.1281713076445 22.3022080287072  21.8863216399143 22.3022080287072  19.3877749367089 23.9519933092224  C 17.9714041537462 24.8868606033853  16.3556960516149 25.4768687369736  14.6701872332731 25.6747148282098  C 13.9306536347197 25.7604223508137  13.8167850632911 23.175727920434  14.4424500542495 23.0887959855334  C 15.541400868886 22.9323132960099  16.5921330482725 22.5346824521335  17.5193506329114 21.9243978661844  C 21.1510941556686 19.5261971708267  25.8633987918901 19.5261971708267  29.4951423146474 21.9243978661844  C 31.6818028680413 23.3542222116135  34.4532124558327 23.5488371724126  36.8182391320072 22.4386431103074  C 37.6581729837251 22.0370420976492  38.6609511754069 21.6489093670886  39.0650009764919 22.4778236889693  Z M 18.7743538517179 34.3042393851718  C 17.5499604701628 35.1135633996383  15.8566244122966 32.969650596745  16.907153960217 32.2766439421338  C 20.5385171639369 29.8786584540674  25.2503580259366 29.8786584540674  28.8817212296564 32.2766439421338  C 31.0525707052441 33.7042866184448  34.3474132730561 33.9026383363472  36.697024159132 32.7908891500904  C 38.2532281374322 32.0464579746835  38.9413372151899 32.8312941410488  38.9413372513562 32.8312941410488  C 39.0491391624465 33.0554659444942  39.1051141034753 33.3010229067697  39.1051141034753 33.5497682574693  C 39.1051141034753 34.1930683401796  38.7329600187574 34.7782924683496  38.1503791320072 35.0511193490054  C 34.7343215913201 36.6685430018083  30.1673342857143 36.3820349728752  27.0145213019892 34.3042393851718  C 24.5157889031708 32.6535910991318  21.2730862505363 32.6535910991318  18.7743538517179 34.3042393851718  Z " fill-rule="nonzero" fill="#0099ff" stroke="none" transform="matrix(1 0 0 1 168 255 )" />
  </g>
</svg>