<?xml version="1.0" encoding="utf-8"?>
<svg version="1.1" xmlns:xlink="http://www.w3.org/1999/xlink" width="45px" height="26px" xmlns="http://www.w3.org/2000/svg">
  <g transform="matrix(1 0 0 1 -294 -262 )">
    <path d="M 16.3231816978346 21.1294376746575  L 20.7274573523622 21.1294376746575  L 20.7274573523622 15.9753527842466  L 16.3231816978346 15.9753527842466  L 16.3231816978346 21.1294376746575  Z M 29.2786158809055 21.1294376746575  L 33.6828461811024 21.1294376746575  L 33.6828461811024 15.9753527842466  L 29.2786158809055 15.9753527842466  L 29.2786158809055 21.1294376746575  Z M 12.598352140748 6.16517903424658  C 20.6611035679134 6.16517907876712  20.2677400541339 6.16517907876712  37.3226939468504 6.16517907876712  L 38.2899449409449 13.1768521335616  L 38.2899449409449 14.4624576609589  L 37.126034867126 14.4624576609589  L 37.126034867126 19.4665651575342  C 36.5925760777559 19.4967246678082  36.0899826820866 19.6443330787671  35.6439984448819 19.8832855890411  L 35.6439984005906 14.4624576164384  L 28.8993933070866 14.4624576164384  L 24.9601831299213 9.49033194520548  L 21.0215168503937 14.4624576164384  L 14.2770930413386 14.4624576164384  L 14.2770930413386 24.2717657089041  L 22.8452479281496 24.2717657089041  L 22.8452479281496 15.9753527842466  L 27.0756169192913 15.9753527842466  L 27.0756169192913 24.2717657534247  L 32.5278648425197 24.2717657534247  C 32.5269583759843 24.2433374691781  32.5266864271654 24.2155925308219  32.5266864271654 24.1870731575342  C 32.5266864271654 22.8118547568493  33.6116428051181 21.6914886678082  34.9682688336614 21.6436070410959  C 35.6155805019685 20.6926717328767  36.7039814616142 20.0677961027397  37.9375539271654 20.0677961027397  C 39.3086835088583 20.0677961027397  40.5001050147638 20.8394145308219  41.1062175442913 21.9740403287671  C 41.1645943257874 21.9714435342466  41.2230617716535 21.9689833732877  41.2826623228346 21.9689833732877  C 42.6709695472441 21.9689833732877  43.8301206496063 22.9569119178082  44.1022435777559 24.2718112979452  L 44.8731527066929 24.2718112979452  L 44.8731527066929 25.7722234828767  L 3.69090482775591 25.7722234828767  L 3.69090482775591 24.2718112979452  L 6.17545399606299 24.2718112979452  L 7.06325270669291 23.7117649315068  L 7.72320968503937 22.2014210582192  L 7.96347008858268 20.8981390034247  L 7.77324693897638 20.4360426506849  C 6.17717630905512 20.4418740856164  4.27254262795276 20.4629219760274  3.67436174704724 18.804058489726  C 3.50371838090551 18.3310737465753  3.1845949015748 18.0962670342466  2.48461719980315 17.546972380137  C 1.14879468011811 16.4994993390411  1.06286115649606 15.7514800068493  0.662880383858268 14.2260564006849  C 0.525187293307087 13.7027299143836  0.470934921259843 13.2280139452055  0.523918213582678 12.8976262465753  C 0.767985812007874 11.5927496438356  0.475965841535433 11.7537521506849  0.288280807086615 10.7021333116438  C -0.158065999015748 8.56951064726026  0.937360098425197 5.75848146917807  2.26221431102362 4.36212413356164  C 2.87970307086614 3.71223708219177  3.18958051181102 3.60235084246575  3.60755477362205 3.20986735273972  C 3.73441553149606 3.09077835958903  3.8382519242126 2.87865958561643  4.2675117519685 2.22284996575341  C 5.50026837106299 1.26517202054794  7.34403246555118 0.276377907534237  9.40525923720472 0.232778756849305  C 10.7539083070866 0.204304928082181  11.9990382874016 0.800615551369853  13.1149506791339 1.30963682876711  C 14.1224036811024 1.86143718835615  13.6631396161417 1.72640280479451  15.0208534399606 1.94275846575341  C 16.9461093897638 2.24972929109588  18.5704165895669 3.73405945205478  19.4714951279528 5.28299110958903  L 12.5983521850394 5.28299102054795  L 11.8336977017717 5.28299102054795  L 10.7529110875984 13.1157130890411  L 10.7529110875984 15.3448279417808  L 11.9162773080709 15.3448279417808  L 11.9162773080709 20.4368626746575  C 11.5442612007874 20.3657008527397  11.1316351181102 20.2650628664384  10.7741225639764 20.1903930479452  L 10.3728274015748 20.2197780342466  L 10.3395145570866 20.5149493116438  L 10.3520692027559 21.4306681986301  L 10.7190997440945 23.2530854417808  L 11.5317065994095 24.2719024315068  L 12.7943314812992 24.2719024315068  L 12.7943314370079 14.4624576164384  L 11.6309652165354 14.4624576164384  L 11.6309652165354 13.1768520890411  L 12.598352140748 6.16517903424658  Z " fill-rule="nonzero" fill="#0099ff" stroke="none" transform="matrix(1 0 0 1 294 262 )" />
  </g>
</svg>