<?xml version="1.0" encoding="utf-8"?>
<svg version="1.1" xmlns:xlink="http://www.w3.org/1999/xlink" width="30px" height="7px" xmlns="http://www.w3.org/2000/svg">
  <g transform="matrix(1 0 0 1 -45 -639 )">
    <path d="M 27.1499787578125 0  L 3.10999515625 0  L 0.449996984375001 6  L 29.8199769609375 6  L 27.1499787578125 0  Z M 6.3799929140625 3.12001970703125  L 8.0499917734375 4.780018578125  C 8.10262854537763 4.82918753150184  8.13250931530985 4.8979891714082  8.13250931530985 4.97001844140625  C 8.13250931530985 5.04204771140429  8.10262854537763 5.11084935131066  8.0499917734375 5.1600183046875  C 7.94604162511861 5.25780542792827  7.78394218347514 5.25780542792827  7.67999203515625 5.1600183046875  L 5.9999931875 3.4900194453125  L 4.33999431640625 5.1600183046875  C 4.23604416808736 5.25780542792827  4.07394472644389 5.25780542792827  3.969994578125 5.1600183046875  C 3.91735780618487 5.11084935131066  3.88747703625265 5.04204771140429  3.88747703625265 4.97001844140625  C 3.88747703625265 4.8979891714082  3.91735780618487 4.82918753150184  3.969994578125 4.780018578125  L 5.62999344921875 3.12001970703125  L 3.99999454296875 1.45002084765625  C 3.95676118459858 1.40192559235587  3.93284312420122 1.33953999808897  3.93284312420122 1.27486947266686  C 3.93284312420122 1.13017097607931  4.05014443230116 1.01286966797936  4.19484292888872 1.01286966797936  C 4.25951344382107 1.01286966797936  4.32189902873005 1.03678772063406  4.36999428125 1.08002106640625  L 5.9999931875 2.75001992578125  L 7.669992046875 1.08002106640625  C 7.71808729939495 1.03678772063406  7.78047288430394 1.01286966797936  7.84514339923629 1.01286966797936  C 7.98984189582384 1.01286966797936  8.10714320392378 1.13017097607931  8.10714320392378 1.27486947266686  C 8.10714320392378 1.33953999808897  8.08322514352642 1.40192559235587  8.03999178515625 1.45002084765625  L 6.3799929140625 3.12001970703125  Z M 12.459988796875 3.12001970703125  L 14.12998765625 4.780018578125  C 14.1826244281901 4.82918753150184  14.2125051981224 4.8979891714082  14.2125051981224 4.97001844140625  C 14.2125051981224 5.04204771140429  14.1826244281901 5.11084935131066  14.12998765625 5.1600183046875  C 14.0260375020401 5.25780545487574  13.8639380292099 5.25780545487574  13.759987875 5.1600183046875  L 12.089989015625 3.4900194453125  L 10.4299901445313 5.1600183046875  C 10.3817025244811 5.19964904947261  10.3211669171058 5.22130993147682  10.2586986036794 5.22130993147682  C 10.1095818247785 5.22130993147682  9.98869879117943 5.10042689787774  9.98869879117943 4.95131011897681  C 9.98869879117943 4.88884180555047  10.0103596731836 4.82830619817518  10.0499904179688 4.780018578125  L 11.7199892773437 3.12001970703125  L 10.0499904179688 1.45002084765625  C 9.95220326778051 1.34607069344636  9.95220326778051 1.18397122061614  10.0499904179688 1.08002106640625  C 10.0991593713456 1.02738429446612  10.167961011252 0.997503524533899  10.23999028125 0.997503524533899  C 10.312019551248 0.997503524533899  10.3808211911544 1.02738429446612  10.4299901445313 1.08002106640625  L 12.089989015625 2.75001992578125  L 13.759987875 1.08002106640625  C 13.8080831550249 1.03678759601021  13.8704688325058 1.01286946676209  13.9351394512067 1.01286946676209  C 14.0798379477942 1.01286946676209  14.1971392558942 1.13017077486203  14.1971392558942 1.27486927144959  C 14.1971392558942 1.3395398901505  14.173221126646 1.40192556763135  14.12998765625 1.45002084765625  L 12.459988796875 3.12001970703125  Z M 18.5399846367188 3.12001970703125  L 20.2099834960938 4.780018578125  C 20.3090905730065 4.88729919358927  20.3090905730065 5.05273768922322  20.2099834960938 5.1600183046875  C 20.1060333477749 5.25780542792827  19.9439339061314 5.25780542792827  19.8399837578125 5.1600183046875  L 18.1699848984375 3.4900194453125  L 16.4999860390625 5.1600183046875  C 16.3960358848526 5.25780545487574  16.2339364120224 5.25780545487575  16.1299862578125 5.1600183046875  C 16.0308791808997 5.05273768922322  16.0308791808997 4.88729919358927  16.1299862578125 4.780018578125  L 17.7999851171875 3.12001970703125  L 16.1299862578125 1.45002084765625  C 16.0321991076243 1.34607069344636  16.0321991076243 1.18397122061614  16.1299862578125 1.08002106640625  C 16.1773673449478 1.02789253316467  16.2445421891788 0.998172824090441  16.3149861484375 0.998172824090441  C 16.3854301076962 0.998172824090441  16.4526049519272 1.02789253316467  16.4999860390625 1.08002106640625  L 18.1699848984375 2.75001992578125  L 19.8399837578125 1.08002106640625  C 19.8873648441269 1.02789254744936  19.9545396788172 0.998172847727485  20.0249836269531 0.998172847727485  C 20.095427575089 0.998172847727485  20.1626024097794 1.02789254744936  20.2099834960938 1.08002106640625  C 20.307770646282 1.18397122061614  20.307770646282 1.34607069344636  20.2099834960938 1.45002084765625  L 18.5399846367188 3.12001970703125  Z M 24.6199804765625 3.12001970703125  L 26.2899793359375 4.780018578125  C 26.3890864128503 4.88729919358927  26.3890864128503 5.05273768922322  26.2899793359375 5.1600183046875  C 26.1860291876186 5.25780542792827  26.0239297459751 5.25780542792827  25.9199795976563 5.1600183046875  L 24.2499807382813 3.4900194453125  L 22.5799818789063 5.1600183046875  C 22.4760317305874 5.25780542792827  22.3139322889439 5.25780542792827  22.209982140625 5.1600183046875  C 22.1108750637123 5.05273768922322  22.1108750637123 4.88729919358927  22.209982140625 4.780018578125  L 23.879981 3.12001970703125  L 22.209982140625 1.45002084765625  C 22.1121949904368 1.34607069344636  22.1121949904368 1.18397122061614  22.209982140625 1.08002106640625  C 22.2573632269394 1.02789254744935  22.3245380616297 0.998172847727485  22.3949820097656 0.998172847727485  C 22.4654259579015 0.998172847727485  22.5326007925919 1.02789254744936  22.5799818789063 1.08002106640625  L 24.2499807382813 2.75001992578125  L 25.9199795976563 1.08002106640625  C 25.9673606839706 1.02789254744935  26.034535518661 0.998172847727481  26.1049794667969 0.998172847727481  C 26.1754234149328 0.998172847727481  26.2425982496231 1.02789254744935  26.2899793359375 1.08002106640625  C 26.3877664861257 1.18397122061614  26.3877664861257 1.34607069344636  26.2899793359375 1.45002084765625  L 24.6199804765625 3.12001970703125  Z " fill-rule="nonzero" fill="#0099ff" stroke="none" transform="matrix(1 0 0 1 45 639 )" />
  </g>
</svg>