<?xml version="1.0" encoding="utf-8"?>
<svg version="1.1" xmlns:xlink="http://www.w3.org/1999/xlink" width="40px" height="44px" xmlns="http://www.w3.org/2000/svg">
  <g transform="matrix(1 0 0 1 -40 -627 )">
    <path d="M 20.0357990093257 0  C 20.0238616870683 0  20.0119243674592 1.12500616322717E-05  19.9999870664063 3.37500067881906E-05  C 19.9880497509295 1.12500072598069E-05  19.976112416898 0  19.9641750802168 0  C 9.47077198077301 0  0.96418802162302 8.50658323264483  0.96418802162302 18.9999854358991  C 0.96418802162302 27.581540089899  6.71651594657944 35.0978761144994  14.9999904335938 37.3400051078597  C 17.3817518304214 38.9202278602818  19.1472451842873 41.2718647877333  19.9999870664063 44  C 20.8527289374647 41.2718647941196  22.6182222755087 38.9202278675335  24.99998365625 37.3400051078597  C 33.2834581431155 35.0978761143936  39.0357860679194 27.5815400898646  39.0357860679194 18.9999854359806  C 39.0357860679194 8.50658323272638  30.5292021087694 0  20.0357990093257 0  Z M 18.9999877226563 3.15003133644984  L 19.439987421875 1.76003239656902  C 19.4577421382796 1.69112864657371  19.5188667783308 1.6422289492148  19.5899873320312 1.64003250447386  L 20.4099867578125 1.64003250447386  C 20.4811073115129 1.6422289492148  20.5422319515642 1.69112864657371  20.5599866679688 1.76003239656902  L 20.9999863671875 3.15003133644984  C 21.0052972650305 3.16617066586801  21.0080035682959 3.18305291166641  21.0080035682959 3.2000436027986  C 21.0080035682959 3.28763574280453  20.9375718783975 3.35894572206546  20.8499864570313 3.36003120132729  L 19.1599876210938 3.36003120132729  C 19.1572962771804 3.36016729600063  19.1546019245307 3.36023537591589  19.1519071418265 3.36023537591589  C 19.063541637945 3.36023537591589  18.991907243389 3.28860098747783  18.991907243389 3.20023549114319  C 18.991907243389 3.18317702020946  18.9946351801344 3.16622830295727  18.9999877226563 3.15003133644984  Z M 17.088653136602 8.53002913495485  C 17.088653136602 8.48255210165217  17.0958467449176 8.43534911315544  17.1099890351563 8.39002732642772  L 18.359988171875 4.33003045442196  C 18.4185213833657 4.13121840715858  18.6027756187637 3.99609864020871  18.809987859375 4.00003069744935  L 21.1899862304688 4.00003069744935  C 21.3971984710801 3.99609864020871  21.5814527064781 4.13121840715858  21.6399859179688 4.33003045442196  L 22.8899850546875 8.39002732642772  C 22.9041273449261 8.43534911315546  22.9113209532418 8.48255210165216  22.9113209532418 8.53002913495485  C 22.9113209532418 8.78960275967327  22.7008949360666 9.00002875887701  22.4413212891793 9.00002875887701  C 22.4408759811739 9.00002875887701  22.440430673394 9.00002812600676  22.4399853671875 9.00002686026818  L 17.5599887226563 9.00002686026819  C 17.5595434164501 9.00002812600676  17.5590981086695 9.00002875887701  17.5586528006645 9.00002875887701  C 17.2990791537772 9.00002875887701  17.088653136602 8.78960275967327  17.088653136602 8.53002913495485  Z M 11.5660871444734 22.1200100000856  C 11.5660871444734 22.2389168111829  11.5471519474453 22.3570650435827  11.5099928476563 22.4700164989256  L 10.2599936679688 26.2300136192091  C 10.1054995813565 26.6896861743956  9.67493469680135 26.9995319122797  9.18999440625 27.0000130378222  L 4.54999756640625 27.0000130378222  C 3.93296752338176 26.9978613175649  3.43390398203185 26.4970544393928  3.43390398203185 25.8800206973146  C 3.43390398203185 25.7611138710609  3.45283918388667 25.6429656237961  3.48999829296875 25.5300141555551  L 4.7399974296875 21.7700170352715  C 4.89449153617521 21.310344482093  5.32505643937057 21.0004987605281  5.809996734375 21.0000176596271  L 10.4499935742188 21.0000176596271  C 11.067023611706 21.0021693876441  11.5660871444734 21.5029762635175  11.5660871444734 22.1200100000856  Z M 27.5638488132328 32.7700239098618  C 27.5638488132328 33.4469397397119  27.0168902031202 33.9966324060638  26.3399827304687 34  L 13.659991359375 34  C 12.9830838867235 33.9966324060638  12.436125276611 33.4469397397119  12.436125276611 32.7700239098618  C 12.436125276611 32.6480114172738  12.4542796790146 32.5266779465336  12.489992171875 32.4100089  L 15.7299899648438 21.8600169650851  C 15.8911213380149 21.3491682077231  16.3643324768281 21.0013378373585  16.8999891523438 21.0000176596271  L 23.0999849375 21.0000176596271  C 23.6356416130156 21.0013378373585  24.1088527518289 21.3491682077231  24.269984125 21.8600169650851  L 27.5099819179687 32.4100089  C 27.5456944108291 32.5266779465336  27.5638488132328 32.6480114172738  27.5638488132328 32.7700239098618  Z M 36.5660701078119 25.8800206973146  C 36.5660701078119 26.4970544393928  36.067006566462 26.9978613175649  35.4499765234375 27.0000130378222  L 30.8099796835938 27.0000130378222  C 30.3250393930424 26.9995319122797  29.8944745084873 26.6896861743956  29.739980421875 26.2300136192091  L 28.4899812421875 22.4700164989255  C 28.4528221423985 22.3570650435827  28.4338869453704 22.2389168111829  28.4338869453704 22.1200100000856  C 28.4338869453704 21.5029762635175  28.9329504781378 21.0021693876441  29.549980515625 21.0000176596271  L 34.1899773554687 21.0000176596271  C 34.6749176504732 21.0004987605281  35.1054825536685 21.310344482093  35.2599766601562 21.7700170352715  L 36.509975796875 25.5300141555551  C 36.5471349059571 25.642965623796  36.5660701078119 25.7611138710609  36.5660701078119 25.8800206973146  Z M 37.1447213444048 18.6176297606643  C 37.1447213444048 19.3290728197993  36.6075241515668 19.9256731014027  35.8999762109375 20  L 4.36999769140625 20  C 3.66127972992333 19.9330673733602  3.11978627385923 19.3380094449167  3.11978627385923 18.6261362095204  C 3.11978627385923 18.4085060065564  3.17125793687662 18.1939611945575  3.26999846484375 18.0000199275608  L 6.46999626171875 10.7800254816848  C 6.65234874987919 10.3227292743807  7.08796214421166 10.0166225932716  7.57999551953125 10  L 32.6899783828125 10  C 33.1795865992461 10.0149226725022  33.6145410282595 10.3166477908807  33.799977640625 10.7700254942576  L 36.9999754375 18.0000199275608  C 37.0951828255792 18.19198137873  37.1447213444048 18.4033550679647  37.1447213444048 18.6176297606643  Z " fill-rule="nonzero" fill="#0099ff" stroke="none" transform="matrix(1 0 0 1 40 627 )" />
  </g>
</svg>