<?xml version="1.0" encoding="utf-8"?>
<svg version="1.1" xmlns:xlink="http://www.w3.org/1999/xlink" width="2px" height="31px" xmlns="http://www.w3.org/2000/svg">
  <g transform="matrix(1 0 0 1 -59 -629 )">
    <path d="M 1.4999866953125 25.5000112578125  C 1.4999866953125 25.2238690808959  1.27612924332287 25.0000116096685  0.999987066406252 25.0000115859375  C 0.723844872709286 25.0000115859375  0.499987394531253 25.2238690641155  0.499987394531253 25.5000112578125  L 0.499987394531253 30.5000078476562  C 0.5000683291337 30.7760927899555  0.723902090759584 30.9998609440875  0.999987044921877 30.9998609440875  C 1.27607199908417 30.9998609440875  1.49990576071005 30.7760927899555  1.4999866953125 30.5000078476562  L 1.4999866953125 25.5000112578125  Z M 1.4999866953125 20.5000146679687  C 1.4999866953125 20.2238724910521  1.27612924332287 20.0000150198247  0.999987066406252 20.0000149960937  C 0.723844872709286 20.0000149960937  0.499987394531253 20.2238724742718  0.499987394531253 20.5000146679687  L 0.499987394531253 23.5000126132812  C 0.500068329133697 23.7760975555805  0.723902090759584 23.9998657097125  0.999987044921877 23.9998657097125  C 1.27607199908417 23.9998657097125  1.49990576071005 23.7760975555805  1.4999866953125 23.5000126132813  L 1.4999866953125 20.5000146679687  Z M 0.499987394531253 5.5000248984375  C 0.499987418262233 5.77616707535412  0.723844889489627 6.00002452734375  0.999987066406252 6.00002452734375  C 1.27612922654253 6.00002450361277  1.49998667158152 5.77616705857378  1.4999866953125 5.5000248984375  L 1.4999866953125 3.50002625390625  C 1.49990576071005 3.22394131160699  1.27607199908417 3.00017315747499  0.999987044921877 3.00017315747499  C 0.723902090759584 3.00017315747499  0.500068329133697 3.22394131160699  0.499987394531253 3.50002625390625  L 0.499987394531253 5.5000248984375  Z M 0.749987230468751 0.75002814453125  C 0.749987254199731 0.88809922459939  0.861915986338108 1.0000279375  0.999987066406252 1.0000279375  C 1.13805812969405 1.00002791376902  1.24998683564402 0.888099207819052  1.249986859375 0.75002814453125  L 1.249986859375 0.25002847265625  C 1.24992963488388 0.111997861624209  1.13801766781593 0.000132281207871454  0.999987044921877 0.000132281207871454  C 0.86195642202782 0.000132281207871454  0.750044454959877 0.111997861624209  0.749987230468754 0.25002847265625  L 0.749987230468751 0.75002814453125  Z " fill-rule="nonzero" fill="#0099ff" stroke="none" transform="matrix(1 0 0 1 59 629 )" />
  </g>
</svg>