<?xml version="1.0" encoding="utf-8"?>
<svg version="1.1" xmlns:xlink="http://www.w3.org/1999/xlink" width="40px" height="44px" xmlns="http://www.w3.org/2000/svg">
  <g transform="matrix(1 0 0 1 -168 -437 )">
    <path d="M 20.0357990093257 0  C 20.0238616870683 0  20.0119243674592 1.12500616322717E-05  19.9999870664063 3.37500067881906E-05  C 19.9880497509295 1.12500072598069E-05  19.976112416898 0  19.9641750802168 0  C 9.47077198077301 0  0.96418802162302 8.50658323264483  0.96418802162302 18.9999854358991  C 0.96418802162302 27.581540089899  6.71651594657944 35.0978761144994  14.9999904335938 37.3400051078597  C 17.3817518304214 38.9202278602818  19.1472451842873 41.2718647877333  19.9999870664063 44  C 20.8527289374647 41.2718647941196  22.6182222755087 38.9202278675335  24.99998365625 37.3400051078597  C 33.2834581431155 35.0978761143936  39.0357860679194 27.5815400898646  39.0357860679194 18.9999854359806  C 39.0357860679194 8.50658323272638  30.5292021087694 0  20.0357990093257 0  Z M 30.999979546875 15.0000222384633  L 30.999979546875 10.0000260756444  C 30.999979546875 9.44774175914938  31.4476944839933 9.00002686026818  31.9999788476563 9.00002686026818  L 33.9999774921875 9.00002686026818  C 34.5522618988192 9.00002686026818  34.9999768359375 9.44774175914938  34.9999768359375 10.0000260756444  L 34.9999768359375 15.0000222384633  C 34.9999768359375 15.5523065979271  34.5522618988192 16.0000214968083  33.9999775351562 16.0000214968083  L 31.9999788476563 16.0000214968083  C 31.4476944839933 16.0000214968083  30.999979546875 15.5523065979271  30.999979546875 15.000022281432  Z M 25.9999829570313 15.0000222384633  L 25.9999829570313 6.00002917117063  C 25.9999829570313 5.44774481170681  26.4476978941496 5.00002991282562  26.9999822578125 5.00002991282562  L 28.9999809023437 5.00002991282562  C 29.5522653089754 5.00002991282562  29.9999802460937 5.44774481170681  29.9999802460937 6.00002912820188  L 29.9999802460937 15.0000222384633  C 29.9999802460937 15.5523065979271  29.5522653089754 16.0000214968083  28.9999809453125 16.0000214968083  L 26.9999822578125 16.0000214968083  C 26.4476978941496 16.0000214968083  25.9999829570313 15.5523065979271  25.9999829570313 15.000022281432  Z M 9.99999384375 15.0000222384633  L 9.99999384375 6.00002917117063  C 9.99999384375 5.44774481170681  10.4477087808683 5.00002991282562  10.9999931445313 5.00002991282562  L 12.9999918320313 5.00002991282562  C 13.5522761956942 5.00002991282562  13.9999911328125 5.44774481170681  13.9999911328125 6.00002912820189  L 13.9999911328125 15.0000222384633  C 13.9999911328125 15.5523065979271  13.5522761956942 16.0000214968083  12.9999918320313 16.0000214968083  L 10.9999931875 16.0000214968083  C 10.4477087808683 16.0000214968083  9.99999384375 15.5523065979271  9.99999384375 15.000022281432  Z M 4.99999725390625 15.0000222384633  L 4.99999725390625 10.0000260756444  C 4.99999725390625 9.66669300385236  4.99999725390625 10.3333591474365  4.99999725390625 10.0000260756444  C 4.99999725390625 9.44774175914938  5.44771219102456 9.00002686026818  5.9999965546875 9.00002686026818  L 7.9999952421875 9.00002686026818  C 8.55227960585044 9.00002686026818  8.99999454296875 9.44774175914938  8.99999454296875 10.0000260756445  L 8.99999454296875 15.0000222384633  C 8.99999454296875 15.5523065979271  8.55227960585044 16.0000214968083  7.9999952421875 16.0000214968083  L 5.99999659765625 16.0000214968083  C 5.44771219102456 16.0000214968083  4.99999725390625 15.5523065979271  4.99999725390625 15.000022281432  Z M 32.4954234293224 30.5939259413664  C 32.4954234293224 30.6651060489707  32.4799155273519 30.7354315746736  32.449978578125 30.8000101078145  L 31.7899790078125 32.2100090655185  C 31.7052668625809 32.3871762878008  31.5263574769725 32.4999669752474  31.3299793320312 32  L 8.6699947578125 32  C 8.47361661287124 32.4999669752474  8.29470722726285 32.3871762878008  8.20999508203125 32.2100090655185  L 7.5499955546875 30.8000101078145  C 7.51786723636662 30.7335274128444  7.50117953865093 30.6606433083771  7.50117953865093 30.5868044473871  C 7.50117953865093 30.3940262753492  7.6142154320167 30.2191614171877  7.789995359375 30.1400106368381  C 7.85755131735743 30.1055403337255  7.93231392957006 30.0875687399726  8.00815593283047 30.0875687399726  C 8.20077112740302 30.0875687399726  8.37473132924598 30.2027084666615  8.4499949296875 30.3800104639971  L 8.99999454296875 31  L 30.999979546875 31  L 31.5299791835937 30.3800104639971  C 31.6052427840353 30.2027084666615  31.7792029858782 30.0875687399726  31.9718181804508 30.0875687399726  C 32.0476601837112 30.0875687399726  32.1224227959238 30.1055403337255  32.1899787539062 30.1400106368381  C 32.3746497165099 30.2150950079794  32.4954234293224 30.3945744392566  32.4954234293224 30.5939259413664  Z M 9.40999427734375 27.0000130378222  L 9.3999942890625 27.0000130378222  L 10.3999935898437 26.000013822446  C 10.4675422175563 25.932230244244  10.5592989510926 25.8941300130245  10.6549934199219 25.8941300130245  C 10.7506878887511 25.8941300130245  10.8424446222875 25.932230244244  10.90999325 26.000013822446  C 10.9771818141085 26.0658449045204  11.0150441885401 26.1559496280555  11.0150441885401 26.2500136155478  C 11.0150441885401 26.3440776030402  10.9771818141085 26.4341823265753  10.90999325 26.5000134086497  L 9.90999390625 27.5000126669947  C 9.84491584814819 27.5588597625914  9.76030308960968 27.5914426079663  9.67256407378449 27.5914426079663  C 9.47705540178612 27.5914426079663  9.31856430815949 27.4329515278756  9.31856430815949 27.2374428725746  C 9.31856430815949 27.1497038537518  9.35114716409223 27.0650910930903  9.40999427734375 27.0000130378222  Z M 11.219993015625 23.8800154566295  L 11.219993015625 23.9000154314839  C 11.2199697054285 23.8966821534251  11.2199580502233 23.8933488040492  11.2199580502233 23.8900154444853  C 11.2199580502233 23.1002488654899  11.8601904154967 22.4600165548956  12.6499570619421 22.4600165548956  C 13.4397237083875 22.4600165548956  14.0799560736608 23.1002488654899  14.0799560736608 23.8900154444853  C 14.0799560736608 24.6797683518973  13.4397450449368 25.3199949993936  12.6499920703125 25.3200143336463  L 13.3599915820312 25.3200143336463  C 13.7521134847408 25.3200143336463  14.06999109375 25.6378919155072  14.06999109375 26.0300137847276  L 14.06999109375 28.1700121253984  C 14.06999109375 28.5621340375875  13.7521134847408 28.8800116194484  13.3599915820312 28.8800116194484  L 11.9299925273438 28.8800116194484  C 11.5378706246342 28.8800116194484  11.219993015625 28.5621340375875  11.219993015625 28.1700121683671  L 11.219993015625 26.000013822446  C 11.219993015625 25.6078919532256  11.5378706246342 25.2900143713647  11.9299925273438 25.2900143713647  L 12.6499920703125 25.2900143713647  C 11.8679704103522 25.2900908835476  11.2309303725496 24.6619605648595  11.219993015625 23.8800154566295  Z M 14.06999109375 29.2200113208794  L 14.06999109375 29.2400113387026  L 14.06999109375 30.660010240865  C 14.0733186159681 30.6797668024567  14.0749910878906 30.6997666608911  14.0749910878906 30.719801483779  C 14.0749910878906 30.9186238386665  13.9138137097585 31.0798012030332  13.7149913378906 31.0798012030332  C 13.5161689660227 31.0798012030332  13.3549915878906 30.9186238386665  13.3549915878906 30.719801483779  C 13.3549915878906 30.6997666608911  13.3566640598131 30.6797668024567  13.3599915820312 30.660010240865  L 13.3599915820312 29.2200113208794  C 13.3566640598131 29.2002547592877  13.3549915878906 29.1802549008532  13.3549915878906 29.1602200779654  C 13.3549915878906 28.9613977230779  13.5161689660227 28.8002203587112  13.7149913378906 28.8002203587112  C 13.9138137097585 28.8002203587112  14.0749910878906 28.9613977230779  14.0749910878906 29.1602200779654  C 14.0749910878906 29.1802549008533  14.0733186159681 29.2002547592877  14.06999109375 29.2200113208794  Z M 11.579992765625 28.8600116016252  L 11.579992765625 28.8800116194484  C 11.7748992537516 28.8854277609558  11.9300677658166 29.0450296432719  11.9299925273437 29.2400113387026  L 11.9299925273437 30.660010240865  C 11.9333200495619 30.6797668024567  11.9349925214844 30.6997666608911  11.9349925214844 30.719801483779  C 11.9349925214844 30.9186238386665  11.7738151433523 31.0798012030332  11.5749927714844 31.0798012030332  C 11.3761703996165 31.0798012030332  11.2149930214844 30.9186238386665  11.2149930214844 30.719801483779  C 11.2149930214844 30.6997666608911  11.2166654934069 30.6797668024567  11.219993015625 30.660010240865  L 11.219993015625 29.2200113208794  C 11.219993015625 29.021188965992  11.3811703937571 28.8600116016252  11.579992765625 28.8600116016252  Z M 14.379990859375 26.5000134086497  C 14.2503424736452 26.3585599523582  14.2503424736452 26.1414672787375  14.379990859375 26.000013822446  C 14.4475394870875 25.932230244244  14.5392962206239 25.8941300130245  14.6349906894531 25.8941300130245  C 14.7306851582824 25.8941300130245  14.8224418918187 25.932230244244  14.8899905195312 26.000013822446  L 15.8899898632813 27.0000130378222  C 16.0196382752662 27.1414665003916  16.0196382752662 27.3585592044253  15.8899898632813 27.5000126669947  C 15.8224412355687 27.5677962451967  15.7306845020324 27.6058964764162  15.6349900332031 27.6058964764162  C 15.5392955643739 27.6058964764162  15.4475388308375 27.5677962451967  15.379990203125 27.5000126669947  L 14.379990859375 26.5000134086497  Z M 17.3899888359375 27.0000130378222  L 17.3799888476563 27.0000130378222  L 18.3799881484375 26.000013822446  C 18.44753677615 25.932230244244  18.5392935096864 25.8941300130245  18.6349879785156 25.8941300130245  C 18.7306824473449 25.8941300130245  18.8224391808812 25.932230244244  18.8899878085938 26.000013822446  C 18.9571763727022 26.0658449045204  18.9950387471339 26.1559496280555  18.9950387471339 26.2500136155478  C 18.9950387471339 26.3440776030402  18.9571763727022 26.4341823265753  18.8899878085938 26.5000134086497  L 17.8899884648437 27.5000126669947  C 17.8249104067419 27.5588597625914  17.7402976482034 27.5914426079663  17.6525586323782 27.5914426079663  C 17.4570499603799 27.5914426079663  17.2985588667532 27.4329515278756  17.2985588667532 27.2374428725746  C 17.2985588667532 27.1497038537518  17.331141722686 27.0650910930903  17.3899888359375 27.0000130378222  Z M 19.21998759375 23.8800154566295  L 19.1999875742187 23.9000154314839  C 19.1999642640222 23.8966821534251  19.1999526088171 23.8933488040492  19.1999526088171 23.8900154444853  C 19.1999526088171 23.1002488654899  19.8401849740905 22.4600165548956  20.6299516205358 22.4600165548956  C 21.4197182669812 22.4600165548956  22.0599506322546 23.1002488654899  22.0599506322546 23.8900154444853  C 22.0599506322546 24.6797683518973  21.4197396035306 25.3199949993936  20.6299866289063 25.3200143336463  L 21.339986140625 25.3200143336463  C 21.7321080433346 25.3200143336463  22.0499856523438 25.6378919155072  22.0499856523438 26.0300137847276  L 22.0499856523438 28.1700121253984  C 22.0499856523438 28.5621340375875  21.7321080433346 28.8800116194484  21.339986140625 28.8800116194484  L 19.9299871054688 28.8800116194484  C 19.5378652027592 28.8800116194484  19.21998759375 28.5621340375875  19.21998759375 28.1700121683671  L 19.21998759375 26.000013822446  C 19.21998759375 25.6078919532256  19.5378652027592 25.2900143713647  19.9299871054688 25.2900143713647  L 20.6499866054688 25.2900143713647  C 19.8679649622401 25.2900908600478  19.2309249504429 24.6619605481272  19.21998759375 23.8800154566295  Z M 22.0499856523438 29.2200113208794  L 22.0499856523438 29.2400113387026  L 22.0499856523438 30.660010240865  C 22.0533131745619 30.6797668024567  22.0549856464844 30.6997666608911  22.0549856464844 30.719801483779  C 22.0549856464844 30.9186238386665  21.8938082683523 31.0798012030332  21.6949858964844 31.0798012030332  C 21.4961635246165 31.0798012030332  21.3349861464844 30.9186238386665  21.3349861464844 30.719801483779  C 21.3349861464844 30.6997666608911  21.3366586184069 30.6797668024567  21.339986140625 30.660010240865  L 21.339986140625 29.2200113208794  C 21.3366586184069 29.2002547592877  21.3349861464844 29.1802549008533  21.3349861464844 29.1602200779654  C 21.3349861464844 28.9613977230779  21.4961635246165 28.8002203587112  21.6949858964844 28.8002203587112  C 21.8938082683523 28.8002203587112  22.0549856464844 28.9613977230779  22.0549856464844 29.1602200779654  C 22.0549856464844 29.1802549008533  22.0533131745619 29.2002547592877  22.0499856523438 29.2200113208794  Z M 19.57998734375 28.8600116016252  L 19.5599873242187 28.8800116194484  C 19.7548938123453 28.8854277609558  19.9100623244103 29.0450296432719  19.9099870859375 29.2400113387026  L 19.9099870859375 30.660010240865  C 19.9133146081556 30.6797668024567  19.9149870800781 30.6997666608911  19.9149870800781 30.719801483779  C 19.9149870800781 30.9186238386665  19.753809701946 31.0798012030332  19.5549873300781 31.0798012030332  C 19.3561649582102 31.0798012030332  19.1949875800781 30.9186238386665  19.1949875800781 30.719801483779  C 19.1949875800781 30.6997666608911  19.1966600520006 30.6797668024567  19.1999875742187 30.660010240865  L 19.1999875742187 29.2200113208794  C 19.1999871448468 29.020632955787  19.3611645229789 28.8594555914203  19.5599868948468 28.8594555914203  C 19.566657574906 28.8594555914203  19.5733269663827 28.8596409997448  19.57998734375 28.8600116016252  Z M 22.3799854375 26.5000134086497  C 22.2503370517702 26.3585599523581  22.2503370517702 26.1414672787375  22.3799854375 26.000013822446  C 22.4475340634972 25.9322302574269  22.5392907878132 25.8941300345836  22.6349852460938 25.8941300345836  C 22.7306797043743 25.8941300345836  22.8224364286903 25.9322302574269  22.8899850546875 26.000013822446  L 23.8899843984375 27.0000130378222  C 24.0196328104225 27.1414665003916  24.0196328104225 27.3585592044253  23.8899843984375 27.5000126669947  C 23.822435770725 27.5677962451967  23.7306790371886 27.6058964764161  23.6349845683594 27.6058964764161  C 23.5392900995301 27.6058964764161  23.4475333659938 27.5677962451967  23.3799847382812 27.5000126669947  L 22.3799854375 26.5000134086497  Z M 25.3899833710937 27.0000130378222  L 25.3799833828125 27.0000130378222  L 26.3799826835937 26.000013822446  C 26.4475313113063 25.932230244244  26.5392880448426 25.8941300130245  26.6349825136719 25.8941300130245  C 26.7306769825011 25.8941300130245  26.8224337160375 25.932230244244  26.88998234375 26.000013822446  C 26.9571709078585 26.0658449045204  26.9950332822901 26.1559496280555  26.9950332822901 26.2500136155478  C 26.9950332822901 26.3440776030402  26.9571709078585 26.4341823265753  26.88998234375 26.5000134086497  L 25.8899830429688 27.5000126669947  C 25.8249049564137 27.5588598944943  25.7402921002272 27.5914428210754  25.6525529748295 27.5914428210754  C 25.4570443028311 27.5914428210754  25.2985532092045 27.4329517409847  25.2985532092045 27.2374430856838  C 25.2985532092045 27.1497039677794  25.3311361385684 27.0650911188192  25.3899833710937 27.0000130378222  Z M 27.2199821289063 23.8800154566295  L 27.1999821523437 23.9000154314839  C 27.1999588421472 23.8966821534248  27.1999471869421 23.8933488040485  27.1999471869421 23.8900154444842  C 27.1999471869421 23.1002488654889  27.8401795522155 22.4600165548946  28.6299461986608 22.4600165548946  C 29.4197128451062 22.4600165548946  30.0599452103796 23.1002488654889  30.0599452103796 23.8900154444842  C 30.0599452103796 24.6797683686765  29.4197341554676 25.3199950231238  28.6299811640625 25.3200143336463  L 29.3399806757813 25.3200143336463  C 29.7321025784908 25.3200143336463  30.0499801875 25.6378919155072  30.0499801875 26.0300137847276  L 30.0499801875 28.1700121253984  C 30.0499801875 28.5621340375875  29.7321025784908 28.8800116194484  29.3399806757813 28.8800116194484  L 27.929981640625 28.8800116194484  C 27.5378597379154 28.8800116194484  27.2199821289063 28.5621340375875  27.2199821289063 28.1700121683671  L 27.2199821289063 26.000013822446  C 27.2199821289063 25.6078919532256  27.5378597379154 25.2900143713647  27.929981640625 25.2900143713647  L 28.649981140625 25.2900143713647  C 27.8679594973964 25.2900908600478  27.2309194855991 24.6619605481272  27.2199821289063 23.8800154566295  Z M 30.0499801875 29.2200113208794  L 30.0499801875 29.2400113387026  L 30.0499801875 30.660010240865  C 30.0533077097181 30.6797668024567  30.0549801816406 30.6997666608911  30.0549801816406 30.719801483779  C 30.0549801816406 30.9186238386664  29.8938028035085 31.0798012030332  29.6949804316406 31.0798012030332  C 29.4961580597727 31.0798012030332  29.3349806816406 30.9186238386664  29.3349806816406 30.719801483779  C 29.3349806816406 30.6997666608911  29.3366531535631 30.6797668024567  29.3399806757812 30.660010240865  L 29.3399806757812 29.2200113208794  C 29.3366531535631 29.2002547592877  29.3349806816406 29.1802549008533  29.3349806816406 29.1602200779654  C 29.3349806816406 28.9613977230779  29.4961580597727 28.8002203587112  29.6949804316406 28.8002203587112  C 29.8938028035085 28.8002203587112  30.0549801816406 28.9613977230779  30.0549801816406 29.1602200779654  C 30.0549801816406 29.1802549008533  30.0533077097181 29.2002547592877  30.0499801875 29.2200113208794  Z M 27.5799818789062 28.8600116016252  L 27.5599819023437 28.8800116194484  C 27.7548883904703 28.8854277609558  27.9100569025353 29.0450296432719  27.9099816640625 29.2400113387026  L 27.9099816640625 30.660010240865  C 27.9133091862806 30.6797668024567  27.9149816582031 30.6997666608911  27.9149816582031 30.719801483779  C 27.9149816582031 30.9186238386664  27.753804280071 31.0798012030332  27.5549819082031 31.0798012030332  C 27.3561595363352 31.0798012030332  27.1949821582031 30.9186238386664  27.1949821582031 30.719801483779  C 27.1949821582031 30.6997666608911  27.1966546301256 30.6797668024567  27.1999821523437 30.660010240865  L 27.1999821523437 29.2200113208794  C 27.1999817229755 29.0206329581781  27.3611591011076 28.8594555938114  27.5599814729755 28.8594555938114  C 27.5666521386856 28.8594555938114  27.5733215158215 28.8596410013383  27.5799818789062 28.8600116016252  Z M 30.3799799726563 26.5000134086497  C 30.2503315869265 26.3585599523581  30.2503315869265 26.1414672787375  30.3799799726563 26.000013822446  C 30.4475286003688 25.932230244244  30.5392853339051 25.8941300130245  30.6349798027344 25.8941300130245  C 30.7306742715636 25.8941300130245  30.8224310051 25.932230244244  30.8899796328125 26.000013822446  L 31.8899789335938 27.0000130378222  C 32.0196273455787 27.1414665003916  32.0196273455787 27.3585592044253  31.8899789335937 27.5000126669947  C 31.8224303058812 27.5677962451967  31.7306735723449 27.6058964764161  31.6349791035156 27.6058964764161  C 31.5392846346864 27.6058964764161  31.44752790115 27.5677962451967  31.3799792734375 27.5000126669947  L 30.3799799726563 26.5000134086497  Z M 37.4499751679687 20.2100182661596  L 37.4499751679687 20.2400182284412  L 35.9999761367187 23.3200158599251  C 35.9134302212688 23.4955414427612  35.7356640961575 23.6076113791027  35.5399764609375 23.6100156242201  C 35.4673247010009 23.6076530550101  35.3958977705255 23.5906466548838  35.329976578125 23.5600156870841  C 35.1535217004868 23.478034716274  35.0406497426271 23.3011352916  35.0406497426271 23.1065660286141  C 35.0406497426271 23.0315975766773  35.0575079336047 22.9575886905179  35.0899767734375 22.8900161857117  L 36.2199760078125 21  L 3.78999811328125 21  L 4.91999734765625 22.8900161857117  C 4.95176213030498 22.9572393259745  4.96823681996915 23.0306658255681  4.96823681996915 23.1050160228184  C 4.96823681996915 23.3829473211934  4.74292896664303 23.6082551552771  4.46499764453125 23.6082551552771  C 4.2703504341468 23.6082551552771  4.09315744913662 23.4960045740353  4.00999794140625 23.3200158599251  L 2.549998921875 20.2100182661596  C 2.46626589032763 20.0609734195491  2.46626589032763 19.879063458452  2.549998921875 19.7300186118415  C 2.64736329087414 19.5776097534866  2.81944130876977 19.4896587916001  2.99999865234375 20  L 36.9999754375 20  C 37.1699713616238 19.5003020062632  37.3281774585312 19.5869386590335  37.4199751601562 19.7300186118415  C 37.5132079185205 19.8737693087849  37.5245834413908 20.0557774962349  37.4499751679687 20.2100182661596  Z M 36.9999754375 19  L 2.99999865234375 19  C 2.44771427681532 19.0000191859058  1.99999933007813 18.5523042774058  1.99999933007813 18.0000199490452  C 1.99999933007813 17.4477356206846  2.44771427681532 17.0000207121846  2.99999865234375 17.0000207121846  L 36.9999754375 17  C 37.5522598130284 17.0000207121846  37.9999747597656 17.4477356206846  37.9999747597656 18.0000199490452  C 37.9999747597656 18.5523042774058  37.5522598130284 19.0000191859058  36.9999754375 19.0000191859058  Z " fill-rule="nonzero" fill="#0099ff" stroke="none" transform="matrix(1 0 0 1 168 437 )" />
  </g>
</svg>