<?xml version="1.0" encoding="utf-8"?>
<svg version="1.1" xmlns:xlink="http://www.w3.org/1999/xlink" width="40px" height="44px" xmlns="http://www.w3.org/2000/svg">
  <g transform="matrix(1 0 0 1 -294 -436 )">
    <path d="M 25.473875 37.71075  C 24.318875 38.053125  22.492875 40.15  20 44  C 17.589625 40.161  15.824125 38.082  14.702125 37.761625  C 6.646 35.459875  0.75 28.0445  0.75 19.25  C 0.75 8.6185  9.3685 0  20 0  C 30.6315 0  39.25 8.6185  39.25 19.25  C 39.25 27.979875  33.43925 35.35125  25.473875 37.71075  Z M 13.6151875 25.3343593776893  C 13.6151875 25.3494921882971  13.6154166929503 25.3646241310485  13.615875 25.37975  C 13.5814958614634 24.5777132754777  12.9212732137092 23.9451846700934  12.1185 23.9451846700934  C 11.3157267862908 23.9451846700934  10.6555041385366 24.5777132754777  10.621125 25.37975  L 10.621125 31.502625  C 10.6202084384798 31.5240076183783  10.61975 31.5454074166201  10.61975 31.5668096700934  C 10.61975 32.3945464389023  11.2907632311911 33.0655596700934  12.1185 33.0655596700934  C 12.9462367688089 33.0655596700934  13.61725 32.3945464389023  13.61725 31.5668096700934  C 13.61725 31.5454074166201  13.6167915615202 31.5240076183783  13.615875 31.502625  C 13.6154166929503 31.5177508689515  13.6151875 31.5328828117029  13.6151875 31.5480156223107  C 13.6151875 32.3757523911196  14.2862007311911 33.0467656223107  15.1139375 33.0467656223107  C 15.9416742688089 33.0467656223107  16.6126875 32.3757523911196  16.6126875 31.5480156223107  C 16.6126875 31.5328828117029  16.6124583070497 31.5177508689515  16.612 31.502625  L 16.612 25.37975  C 16.6124583070497 25.3646241310485  16.6126875 25.3494921882971  16.6126875 25.3343593776893  C 16.6126875 24.5066226088804  15.9416742688089 23.8356093776893  15.1139375 23.8356093776893  C 14.2862007311911 23.8356093776893  13.6151875 24.5066226088804  13.6151875 25.3343593776893  Z M 16.612 21.549  L 16.612 21.55175  C 16.6370076219534 21.9807238193558  16.9921728719526 22.3157872170382  17.421875 22.3157872170382  C 17.8515771280474 22.3157872170382  18.2067423780466 21.9807238193558  18.23175 21.55175  L 18.23175 14.0525  C 18.2067423780466 13.6235261806442  17.8515771280474 13.2884627829618  17.421875 13.2884627829618  C 16.9921728719526 13.2884627829618  16.6370076219534 13.6235261806442  16.612 14.0525  L 16.612 14.762  C 16.612 13.92325  15.931375 13.242625  15.09125 13.242625  L 12.1405 13.242625  C 11.30175 13.242625  10.621125 13.921875  10.621125 14.762  L 10.621125 14.0525  C 10.6032179866705 13.6178166638751  10.2456145242811 13.2746415572226  9.8105625 13.2746415572226  C 9.37551047571893 13.2746415572226  9.01790701332954 13.6178166638751  9 14.0525  L 9 21.550375  C 9.01790701332954 21.9850583361249  9.37551047571893 22.3282334427774  9.8105625 22.3282334427774  C 10.2456145242811 22.3282334427774  10.6032179866705 21.9850583361249  10.621125 21.550375  L 10.621125 22.361625  C 10.621125 23.200375  11.300375 23.879625  12.1405 23.879625  L 15.09125 23.879625  C 15.93 23.879625  16.612 23.200375  16.612 22.36025  L 16.612 21.549  Z M 13.61725 13.244  L 13.615875 13.244  C 16.09775 13.244  18.109375 11.202125  18.109375 8.6845  C 18.109375 6.166875  16.09775 4.125  13.615875 4.125  C 11.134 4.125  9.12375 6.166875  9.12375 8.6845  C 9.12375 11.202125  11.135375 13.244  13.61725 13.244  Z M 27.341125 28.441875  L 27.341125 28.4405  L 27.341125 32.250625  C 27.341125 32.6644933844045  27.6766316155955 33  28.0905 33  C 28.5043683844045 33  28.839875 32.6644933844045  28.839875 32.250625  L 28.839875 28.441875  L 29.7075 28.441875  C 29.7079323008387 28.441875369002  29.7083646018034 28.441875553503  29.7087969027996 28.441875553503  C 30.5479245445737 28.441875553503  31.2281719027996 27.7616281952771  31.2281719027996 26.922500553503  C 31.2281719027996 26.7545339762526  31.200320198052 26.5877298537432  31.14575 26.428875  L 27.282 15.151125  C 27.0723326708065 14.5355000159787  26.4940995290091 14.1215839801657  25.84375 14.1215839801657  C 25.1934004709909 14.1215839801657  24.6151673291936 14.5355000159787  24.4055 15.151125  L 20.54175 26.428875  C 20.4874899415307 26.5873203411225  20.4597998180401 26.7536466282288  20.4597998180401 26.9211252240807  C 20.4597998180401 27.7602528658549  21.1400471762659 28.4405002240807  21.9791748180401 28.4405002240807  L 22.849 28.4405  L 22.849 32.250625  C 22.8485417192399 32.2613163091892  22.8483125 32.2720162083101  22.8483125 32.2827173350467  C 22.8483125 32.6965857194512  23.1838191155955 33.0320923350467  23.5976875 33.0320923350467  C 24.0115558844045 33.0320923350467  24.3470625 32.6965857194512  24.3470625 32.2827173350467  C 24.3470625 32.2720162083101  24.3468332807601 32.2613163091892  24.346375 32.250625  L 24.346375 28.441875  L 27.341125 28.441875  Z M 21.35025 8.6845  C 21.35025 11.202125  23.361875 13.244  25.84375 13.244  C 28.325625 13.244  30.33725 11.202125  30.33725 8.6845  C 30.33725 6.166875  28.325625 4.125  25.84375 4.125  C 23.361875 4.125  21.35025 6.166875  21.35025 8.6845  Z M 23.452625 15.1415  L 23.45125 15.1415  C 23.3489164008013 15.0908970773378  23.2362924707297 15.0645726795501  23.1221310879994 15.0645726795501  C 22.8367823858227 15.0645726795501  22.5766790356103 15.2280975588597  22.453 15.48525  L 19.165375 22.32725  C 19.1158734595147 22.4300066739702  19.0901673533161 22.5425985909998  19.0901673533161 22.6566570696668  C 19.0901673533161 22.9483195885756  19.257295211576 23.2141832060661  19.520125 23.340625  C 19.6205676500231 23.3889558864774  19.7306030602982 23.4140521562487  19.8420687524701 23.4140521562487  C 20.1276677317244 23.4140521562487  20.387952826513 23.2502434423913  20.5115 22.99275  L 23.8005 16.15075  C 23.9806826593379 15.775844509175  23.8255440910008 15.3257587022205  23.452625 15.1415  Z M 28.3439939120006 15.0191976795501  C 28.2298325292703 15.0191976795501  28.1172085991987 15.0455220773378  28.014875 15.096125  C 27.641171605064 15.280405879056  27.4858985820177 15.7314954914632  27.667 16.10675  L 30.956 22.94875  C 31.0796790356103 23.2059024411403  31.3397823858227 23.3694273204499  31.6251310879993 23.3694273204499  C 31.7392924707297 23.3694273204499  31.8519164008013 23.3431029226622  31.95425 23.2925  C 32.327953394936 23.108219120944  32.4832264179823 22.6571295085368  32.302125 22.281875  L 29.013125 15.439875  C 28.8894459643897 15.1827225588597  28.6293426141773 15.0191976795501  28.3439939120006 15.0191976795501  Z " fill-rule="nonzero" fill="#0099ff" stroke="none" transform="matrix(1 0 0 1 294 436 )" />
  </g>
</svg>