<?xml version="1.0" encoding="utf-8"?>
<svg version="1.1" xmlns:xlink="http://www.w3.org/1999/xlink" width="40px" height="38px" xmlns="http://www.w3.org/2000/svg">
  <g transform="matrix(1 0 0 1 -40 -532 )">
    <path d="M 37.9832937685179 18.8021273964131  L 38.9541629524284 19.9480472362105  C 39.4978496954182 20.5592044841024  39.7826379893653 21.2314774567836  39.8085278342696 21.9648661542539  C 39.8344176791739 22.6982548517242  39.6272989199396 23.3094120996162  39.1871715565669 23.7983378979297  C 38.6952645033856 24.3178215586379  38.1256879154914 24.5622844577947  37.4784417928844 24.5317265954001  C 36.8311956702774 24.5011687330055  36.3133987721918 24.2872636962433  35.9250510986276 23.8900114851135  C 35.7956018741062 23.7677800355351  35.4007817393159 23.3399699620108  34.7405906942568 22.6065812645404  C 34.0803996491977 21.8731925670701  33.2907593796171 20.9946540232255  32.3716698855152 19.9709656330065  C 31.4525803914132 18.9472772427875  30.4687662850506 17.847194196582  29.4202275664273 16.67071649439  C 28.3716888478039 15.494238792198  27.3814022802152 14.3865162803938  26.4493678636611 13.3475489589775  C 25.5173334471071 12.3085816375612  24.7147482550744 11.4071246969206  24.0416122875631 10.6431781370557  C 23.3684763200518 9.87923157719076  22.9412938791312 9.40558471007451  22.7600649648012 9.22223753570692  C 21.9315899278643 8.33605952626361  21.1160598133795 7.90824945273925  20.3134746213468 7.93880731513385  C 19.5108894293141 7.96936517752845  18.7212491597336 8.3971752510528  17.9445538126052 9.22223753570692  C 17.6856553635624 9.4972582972583  17.2002207716071 10.0243814235651  16.4882500367394 10.8036069146273  C 15.7762793018717 11.5828324056896  14.9542767261608 12.4919288119288  14.0222423096068 13.5308961333451  C 13.0902078930527 14.5698634547614  12.1063937866901 15.6546675697696  11.0707999905189 16.7853084783697  C 10.0352061943477 17.9159493869698  9.0772819328893 18.9701956395834  8.19702720614378 19.9480472362105  C 7.31677247939826 20.9258988328376  6.55949451594807 21.7586005830904  5.92519331579321 22.4461524869688  C 5.29089211563836 23.1337043908473  4.90901690330023 23.5385960675757  4.77956767877883 23.6608275171541  C 4.39122000521463 24.0275218658892  3.87342310712903 24.2261479714541  3.22617698452203 24.2567058338487  C 2.57893086191503 24.2872636962433  2.02229919647301 24.0580797282838  1.55628198819597 23.5691539299703  C 1.03848509011037 23.0191124068675  0.792531563519715 22.354478899785  0.818421408423994 21.5752534087228  C 0.844311253328274 20.7960279176606  1.06437493501465 20.17723120417  1.47861245348313 19.718863268251  C 1.63395152290881 19.5355160938834  2.11291365363799 19.000753501978  2.91549884567067 18.1145754925347  C 3.71808403770335 17.2283974830914  4.67600829916171 16.1741512304778  5.78927163004574 14.9518367346939  C 6.90253496092978 13.72952223891  8.09994028775273 12.4155341559423  9.38148761051459 11.0098724857909  C 10.6630349332764 9.60421081563939  11.8539677988733 8.29022273267171  12.9542862073052 7.06790823688783  C 14.0546046157371 5.84559374110395  14.9995839547433 4.798986954089  15.7892242243239 3.92808787584298  C 16.5788644939044 3.05718879759696  17.0384092409554 2.54534460248746  17.1678584654768 2.39255529051447  C 18.1516725718394 1.26191438191438  19.2131562129149 0.688954462015688  20.3523093887032 0.673675530818389  C 21.4914625644915 0.65839659962109  22.462331748402 1.1091250699414  23.2649169404347 2.02586094177931  C 23.4202560098604 2.1786502537523  23.7438790711639 2.53770513688881  24.2357861243452 3.10302559118886  C 24.7276931775265 3.6683460454889  25.329632071551 4.35589794936734  26.0416028064187 5.16568130282416  C 26.7535735412864 5.97546465628099  27.549686272093 6.88456106252025  28.4299409988386 7.89297052154195  C 29.3101957255841 8.90137998056366  30.2033953747817 9.91742890518401  31.1095399464315 10.941117295403  C 32.0156845180813 11.964805685622  32.9024117060529 12.9808546102424  33.7697215103463 13.9892640692641  C 34.6370313146397 14.9976735282858  35.4331440454463 15.906769934525  36.1580597027661 16.7165532879819  C 36.882975360086 17.5263366414387  37.4913867153365 18.2215280109158  37.9832937685179 18.8021273964131  Z M 17.187275849155 14.1496928468357  C 17.5885684451713 13.706603842114  17.8409944329881 13.423943614964  17.9445538126052 13.3017121653856  C 18.5917999352122 12.5988813303099  19.3684952823406 12.2245475159761  20.2746398539904 12.1787107223842  C 21.1807844256402 12.1328739287923  21.996314540125 12.5072077431261  22.7212301974448 13.3017121653856  C 22.7988997321577 13.3933857525694  23.0319083362962 13.6531275829235  23.4202560098604 14.0809376564479  L 24.8959771694043 15.6852254321642  C 25.4655537572985 16.3269405424508  26.1063274186794 17.0450503087238  26.8182981535471 17.8395547309833  C 27.5302688884148 18.6340591532428  28.2616570069607 19.4285635755024  29.0124625091849 20.2230679977619  C 30.7470821177716 22.1176554662269  32.6888204855926 24.2414269026514  34.8376776126479 26.5943823070354  L 34.8376776126479 35.3033730894955  C 34.8376776126479 35.9756460621767  34.6240863921875 36.5715243788713  34.1969039512669 37.0910080395795  C 33.7697215103463 37.6104917002876  33.1936724612261 37.885512461839  32.4687568039062 37.9160703242336  L 25.1289857735429 37.9160703242336  L 25.1289857735429 30.8113673174898  C 25.1289857735429 29.8029578584681  24.7276931775265 29.2987531289572  23.9251079854938 29.2987531289572  L 16.5076674204176 29.2987531289572  C 16.0675400570449 29.2987531289572  15.7633343794196 29.4515424409302  15.5950503875418 29.7571210648762  C 15.426766395664 30.0626996888221  15.342624399725 30.41411510636  15.342624399725 30.8113673174898  C 15.342624399725 30.9947144918574  15.336151938499 31.460721893375  15.3232070160468 32.2093895220426  C 15.3102620935947 32.9580571507102  15.3037896323686 33.7602010385684  15.3037896323686 34.6158211856171  L 15.3037896323686 37.9160703242336  L 8.19702720614378 37.9160703242336  C 7.44622170391966 37.9160703242336  6.85075527112122 37.7174442186687  6.41062790774846 37.3201920075389  C 5.9705005443757 36.9229397964092  5.75043686268933 36.3576193421091  5.75043686268932 35.6242306446388  L 5.75043686268932 26.5027087198516  C 7.87340414484028 24.2108690402568  9.80219759020914 22.1329343974242  11.5368171987959 20.2689047913538  C 12.2617328561157 19.4744003690942  12.9866485134356 18.6875354124334  13.7115641707554 17.9083099213711  C 14.4364798280752 17.1290844303089  15.0966708731344 16.4186141296345  15.6921373059328 15.776899019348  C 16.2876037387313 15.1351839090615  16.7859832531387 14.5927818515574  17.187275849155 14.1496928468357  Z " fill-rule="nonzero" fill="#0099ff" stroke="none" transform="matrix(1 0 0 1 40 532 )" />
  </g>
</svg>