<?xml version="1.0" encoding="utf-8"?>
<svg version="1.1" xmlns:xlink="http://www.w3.org/1999/xlink" width="40px" height="21px" xmlns="http://www.w3.org/2000/svg">
  <g transform="matrix(1 0 0 1 -168 -536 )">
    <path d="M 1 1  L 39 1  L 39 12.75  C 39.3333333247848 12.7501580136837  39.3333333299507 12.7503160273421  39.3333333299507 12.7504740410261  C 39.3333333299507 16.7545384772994  36.087397766224 20.0004740410261  32.0833333299507 20.0004740410261  C 29.6517700161494 20.0004740410261  27.3821244889629 18.7815299670181  26.03925 16.7544166855469  C 24.6982718453237 18.7826627716184  22.4290447545551 20.0027090796313  19.9975833427734 20.0027090796313  C 17.5661219309918 20.0027090796313  15.2968948402232 18.7826627716184  13.9559166855469 16.7544166855469  C 12.6123133397037 18.777330409885  10.3451300605084 19.9931923297401  7.91666348938242 19.9931923297401  C 3.91525735567399 19.9931923297401  0.67042396189642 16.7514043696875  1 12.75  L 1 1  Z " fill-rule="nonzero" fill="#0099ff" stroke="none" transform="matrix(1 0 0 1 168 536 )" />
  </g>
</svg>