<?xml version="1.0" encoding="utf-8"?>
<svg version="1.1" xmlns:xlink="http://www.w3.org/1999/xlink" width="4px" height="24px" xmlns="http://www.w3.org/2000/svg">
  <g transform="matrix(1 0 0 1 -314 -533 )">
    <path d="M 1.99998706640625 4.43002563671875  C 2.00332036054053 4.43004501665319  2.00665370397009 4.43005470668183  2.00998705444184 4.43005470668183  C 2.95991618557157 4.43005470668183  3.72998589819184 3.65998499406155  3.72998589819184 2.71005586293183  C 3.72998589819184 1.76012673180211  2.95991618557157 0.990057019181831  2.00998705444184 0.990057019181831  C 1.06006927581899 0.990057019181831  0.290004265642914 1.76010901448157  0.289988210937501 2.71002679296875  C 0.289968717666781 2.71336008685526  0.289958970968925 2.71669343061516  0.289958970968925 2.72002678149999  C 0.289958970968925 3.6644330716035  1.05555153633417 4.43002563696874  1.99995782643767 4.43002563696874  Z M 1.53998734765625 23.6900124765625  L 2.4599867421875 23.6900124765625  L 2.4599867421875 23.620012515625  L 2.249986859375 23.3300127265625  L 1.74998723046875 23.3300127265625  L 1.53998734765625 23.620012515625  L 1.53998734765625 23.6900124765625  Z " fill-rule="nonzero" fill="#0099ff" stroke="none" transform="matrix(1 0 0 1 314 533 )" />
  </g>
</svg>