<?xml version="1.0" encoding="utf-8"?>
<svg version="1.1" xmlns:xlink="http://www.w3.org/1999/xlink" width="4px" height="3px" xmlns="http://www.w3.org/2000/svg">
  <g transform="matrix(1 0 0 1 -314 -557 )">
    <path d="M 0.609988007812497 2.0800108359375  L 3.38998608203125 2.060010859375  C 3.45253678758096 2.05523777842792  3.50085564884293 2.003091359315  3.50085564884293 1.9403588074261  C 3.50085564884293 1.91068036265469  3.48985769519941 1.8820547610304  3.46998603125 1.8600110078125  L 2.84998645703125 1.0000115859375  C 2.82047047443869 0.992390592002298  2.7895025021238 0.992390592002298  2.75998651953125 1.0000115859375  L 1.23998757031249 1.0000115859375  C 1.21047158771994 0.992390592002298  1.17950361540505 0.992390592002298  1.1499876328125 1.0000115859375  L 0.529988058593748 1.880010984375  C 0.510116394644335 1.90205473759291  0.499118441000814 1.93068033921719  0.499118441000814 1.96035878398861  C 0.499118441000814 2.0230913358775  0.547437302262793 2.07523775499042  0.609988007812497 2.0800108359375  Z " fill-rule="nonzero" fill="#0099ff" stroke="none" transform="matrix(1 0 0 1 314 557 )" />
  </g>
</svg>