<?xml version="1.0" encoding="utf-8"?>
<svg version="1.1" xmlns:xlink="http://www.w3.org/1999/xlink" width="40px" height="44px" xmlns="http://www.w3.org/2000/svg">
  <g transform="matrix(1 0 0 1 -296 -533 )">
    <path d="M 20.0357990093257 0  C 20.0238616870683 0  20.0119243674592 1.12500616322717E-05  19.9999870664063 3.37500067881906E-05  C 19.9880497509295 1.12500072598069E-05  19.976112416898 0  19.9641750802168 0  C 9.47077198077301 0  0.96418802162302 8.50658323264483  0.96418802162302 18.9999854358991  C 0.96418802162302 27.581540089899  6.71651594657944 35.0978761144994  14.9999904335938 37.3400051078597  C 17.3817518304214 38.9202278602818  19.1472451842873 41.2718647877333  19.9999870664063 44  C 20.8527289374647 41.2718647941196  22.6182222755087 38.9202278675335  24.99998365625 37.3400051078597  C 33.2834581431155 35.0978761143936  39.0357860679194 27.5815400898646  39.0357860679194 18.9999854359806  C 39.0357860679194 8.50658323272638  30.5292021087694 0  20.0357990093257 0  Z M 15 15.0000222384633  L 15 4.00003069744935  C 14.9999904335938 2.89546204072822  15.8954203270681 2.00003222372807  16.999989078125 2.00003222372807  L 22.9999850117187 2.00003222372807  C 24.1045537627756 2.00003222372807  24.99998365625 2.89546204072823  25 4.00003069744935  L 25 15.0000222384633  C 24.99998365625 16.1045908951844  24.1045537627756 17.0000207121846  22.9999850117187 17.0000207121846  L 16.999989078125 17.0000207121846  C 15.8954203270681 17.0000207121846  14.9999904335937 16.1045908951844  14.9999904335937 15.0000222384633  Z M 20.9999863671875 19.0000191859058  L 20.9999863671875 22.0000168750034  C 20.9999863671875 22.552301203364  20.5522714204503 23.000016111864  19.9999870449219 23.000016111864  C 19.4477026693934 23.000016111864  18.9999877226563 22.552301203364  18.9999877226563 22.0000168750034  L 18.9999877226563 19.0000191859058  C 18.9999877226563 18.4477348575453  19.4477026693934 18.0000199490452  19.9999870449219 18.0000199490452  C 20.5522714204503 18.0000199490452  20.9999863671875 18.4477348575453  20.9999863671875 19.0000191859058  Z M 32.0214383819887 32.0030983132268  C 32.0214383819887 32.5249231436671  31.6201923930316 32.9590241038786  31.0999794726563 33  L 8.8999946171875 33  C 8.36787667899127 32.9732849074249  7.95015317868042 32.534056455501  7.95015317868042 32.0012679421175  C 7.95015317868042 31.7577826266997  8.03898828923777 31.5226621650516  8.19999509375 31.3400097296646  L 13.1999916835938 24.3400150931245  C 13.3582375036591 24.1077052464445  13.6189719697041 23.9661636807338  13.8999912070312 24  L 26.0699829179688 24  C 26.3510021552959 23.9661636807338  26.6117366213409 24.1077052464445  26.7699824414063 24.3400150931245  L 31.76997903125 31.3400097296646  C 31.9319894612421 31.5228982025845  32.0214383819887 31.7587715474603  32.0214383819887 32.0030983132268  Z " fill-rule="nonzero" fill="#0099ff" stroke="none" transform="matrix(1 0 0 1 296 533 )" />
  </g>
</svg>