<?xml version="1.0" encoding="utf-8"?>
<svg version="1.1" xmlns:xlink="http://www.w3.org/1999/xlink" width="7px" height="3px" xmlns="http://www.w3.org/2000/svg">
  <g transform="matrix(1 0 0 1 -313 -560 )">
    <path d="M 5.9899850234375 2.21000871484375  L 4.68998590234375 0.470009894531248  C 4.65119756961428 0.414295355054502  4.58786877858212 0.380768348979053  4.519986015625 0.380009957031248  L 1.5199880703125 0.380009957031248  C 1.45210530735539 0.380768348979053  1.38877651632322 0.414295355054506  1.34998818359375 0.470009894531248  L 0.0899890156250009 2.21000871484375  C 0.0581568951349141 2.25424629572183  0.0410308093169469 2.30736835790179  0.0410308093169469 2.36186833457004  C 0.0410308093169469 2.49345594275127  0.139342493596391 2.60429802050723  0.269988890625001 2.62000844921875  L 5.8099851484375 2.62000844921875  C 5.94063154546611 2.60429802050723  6.03894322974555 2.49345594275127  6.03894322974555 2.36186833457004  C 6.03894322974555 2.30736835790179  6.02181714392758 2.25424629572183  5.9899850234375 2.21000871484375  Z " fill-rule="nonzero" fill="#0099ff" stroke="none" transform="matrix(1 0 0 1 313 560 )" />
  </g>
</svg>