<?xml version="1.0" encoding="utf-8"?>
<svg version="1.1" xmlns:xlink="http://www.w3.org/1999/xlink" width="20px" height="20px" xmlns="http://www.w3.org/2000/svg">
  <g transform="matrix(1 0 0 1 -50 -451 )">
    <path d="M 14.175 1.9925  L 13.8525 3.03  L 12.5925 0.960000000000001  C 12.3201062178674 0.512463619597991  11.833915020115 0.239514175245798  11.31 0.239999999999998  L 8.7825 0.239999999999998  C 8.2425 0.239999999999998  7.745 0.529999999999998  7.48 0.997499999999999  L 5.2225 4.965  L 7.83 6.4475  L 9.655 3.24  L 10.4675 3.24  L 11.1875 4.4225  L 10.31 4.1825  L 9.52 7.0775  L 13.8575 8.2625  C 14.6379042223713 8.47424423249639  15.4458299707331 8.02994033257648  15.685 7.2575  L 17.04 2.88  L 14.175 1.9925  Z M 16.97 16.5725  C 17.4975 16.5525  17.97 16.2575  18.22 15.795  L 19.425 13.5725  C 19.6825 13.0975  19.665 12.5225  19.38 12.065  L 16.9675 8.19  L 14.42 9.775  L 16.37 12.91  L 15.9825 13.6225  L 14.6 13.69  L 15.2275 13.0325  L 13.06 10.9575  L 9.95 14.205  C 9.3902762557929 14.7888781733431  9.39470138502074 15.7115176173484  9.96 16.29  L 13.1625 19.565  L 15.3075 17.4675  L 14.55 16.6925  L 16.97 16.5725  Z M 4.835 6.69250000000001  L 0.4475 8.015  L 1.3125 10.8875  L 2.35 10.575  L 1.335 12.775  C 1.115 13.25  1.16 13.8075  1.4525 14.24  L 2.865 16.3375  C 3.14417299553929 16.7514464557972  3.61071136346127 16.9997048242697  4.11 17  C 4.1475 17  4.185 16.9975  4.2225 16.995  L 8.7725 16.6525  L 8.5475 13.66  L 4.8675 13.9375  L 4.415 13.265  L 4.995 12.0075  L 5.285 12.87  L 8.1275 11.91  L 6.69 7.65000000000001  C 6.43106639359565 6.88280485687428  5.61036998503442 6.45918393439591  4.835 6.69250000000001  Z " fill-rule="nonzero" fill="#0099ff" stroke="none" transform="matrix(1 0 0 1 50 451 )" />
  </g>
</svg>