<?xml version="1.0" encoding="utf-8"?>
<svg version="1.1" xmlns:xlink="http://www.w3.org/1999/xlink" width="120px" height="94px" xmlns="http://www.w3.org/2000/svg">
  <g transform="matrix(1 0 0 1 -912 -71 )">
    <path d="M 110 1  L 10 1  C 5.39762708474339 0.839285714285714  1.66666666666667 4.59689584963441  2 9.23214285714286  L 2 84.7678571428571  C 1.66666666666667 89.4031041503656  5.39762708474339 93.1607142857143  10 93  L 110 93  C 114.602372915257 93.1607142857143  118.333333333333 89.4031041503656  118 84.7678571428571  L 118 9.23214285714286  C 118.333333333333 4.59689584963441  114.602372915257 0.839285714285714  110 1  Z M 10 10  L 110 10  L 110 74.5705357142857  L 82.9 47.2769642857143  C 81.2729172854758 45.6387543659246  78.6354160478576 45.6387543659246  77.0083333333333 47.2769642857143  L 63.3166666666667 61.0580357142857  L 36.2916666666667 33.84  C 34.6645839521425 32.2017900802103  32.0270827145242 32.2017900802103  30.4 33.84  L 10 54.3773214285714  L 10 10  Z " fill-rule="nonzero" fill="#555555" stroke="none" transform="matrix(1 0 0 1 912 71 )" />
  </g>
</svg>