<?xml version="1.0" encoding="utf-8"?>
<svg version="1.1" xmlns:xlink="http://www.w3.org/1999/xlink" width="16px" height="16px" xmlns="http://www.w3.org/2000/svg">
  <g transform="matrix(1 0 0 1 -336 -4887 )">
    <path d="M 344 4888  C 347.92 4888  351 4891.08  351 4895  C 351 4898.92  347.92 4902  344 4902  C 340.08 4902  337 4898.92  337 4895  C 337 4891.08  340.08 4888  344 4888  Z " fill-rule="nonzero" fill="#ffffff" stroke="none" />
    <path d="M 344 4888  C 347.92 4888  351 4891.08  351 4895  C 351 4898.92  347.92 4902  344 4902  C 340.08 4902  337 4898.92  337 4895  C 337 4891.08  340.08 4888  344 4888  Z " stroke-width="2" stroke="#aeaeae" fill="none" />
  </g>
</svg>