<?xml version="1.0" encoding="utf-8"?>
<svg version="1.1" xmlns:xlink="http://www.w3.org/1999/xlink" width="16px" height="16px" xmlns="http://www.w3.org/2000/svg">
  <g transform="matrix(1 0 0 1 -336 -4579 )">
    <path d="M 344 4580  C 347.92 4580  351 4583.08  351 4587  C 351 4590.92  347.92 4594  344 4594  C 340.08 4594  337 4590.92  337 4587  C 337 4583.08  340.08 4580  344 4580  Z " fill-rule="nonzero" fill="#ffffff" stroke="none" />
    <path d="M 344 4580  C 347.92 4580  351 4583.08  351 4587  C 351 4590.92  347.92 4594  344 4594  C 340.08 4594  337 4590.92  337 4587  C 337 4583.08  340.08 4580  344 4580  Z " stroke-width="2" stroke="#555555" fill="none" />
  </g>
</svg>