<?xml version="1.0" encoding="utf-8"?>
<svg version="1.1" xmlns:xlink="http://www.w3.org/1999/xlink" width="19px" height="23px" xmlns="http://www.w3.org/2000/svg">
  <g>
    <path d="M 8.6125 21.7359375  C 9.12516806764162 22.1683300890044  9.87483193235838 22.1683300890044  10.3875 21.7359375  C 12.584375 19.915625  18.09375 14.7859375  18.09375 9.15625  C 18.09375 4.41005293114162  14.2461970688584 0.562500000000001  9.5 0.562500000000001  C 4.75380293114162 0.562500000000001  0.90625 4.41005293114162  0.90625 9.15625  C 0.90625 14.7859375  6.415625 19.915625  8.6125 21.7359375  Z M 13.40625 9.15625  C 13.40625 11.3136123040265  11.6573623040265 13.0625  9.5 13.0625  C 7.34263769597346 13.0625  5.59375 11.3136123040265  5.59375 9.15625  C 5.59375 6.99888769597346  7.34263769597346 5.25  9.5 5.25  C 11.6573623040265 5.25  13.40625 6.99888769597346  13.40625 9.15625  Z " fill-rule="nonzero" fill="#d9001b" stroke="none" />
  </g>
</svg>