<?xml version="1.0" encoding="utf-8"?>
<svg version="1.1" xmlns:xlink="http://www.w3.org/1999/xlink" width="80px" height="35px" xmlns="http://www.w3.org/2000/svg">
  <g transform="matrix(1 0 0 1 -575 -720 )">
    <path d="M 575.5 723  A 2.5 2.5 0 0 1 578 720.5 L 652 720.5  A 2.5 2.5 0 0 1 654.5 723 L 654.5 752  A 2.5 2.5 0 0 1 652 754.5 L 578 754.5  A 2.5 2.5 0 0 1 575.5 752 L 575.5 723  Z " fill-rule="nonzero" fill="#f9f9f9" stroke="none" />
    <path d="M 575.5 723  A 2.5 2.5 0 0 1 578 720.5 L 652 720.5  A 2.5 2.5 0 0 1 654.5 723 L 654.5 752  A 2.5 2.5 0 0 1 652 754.5 L 578 754.5  A 2.5 2.5 0 0 1 575.5 752 L 575.5 723  Z " stroke-width="1" stroke="#e4e4e4" fill="none" />
  </g>
</svg>