<?xml version="1.0" encoding="utf-8"?>
<svg version="1.1" xmlns:xlink="http://www.w3.org/1999/xlink" width="15px" height="15px" viewBox="1157 507  15 15" xmlns="http://www.w3.org/2000/svg">
  <path d="M 1164.5 507  C 1168.7 507  1172 510.3  1172 514.5  C 1172 518.7  1168.7 522  1164.5 522  C 1160.3 522  1157 518.7  1157 514.5  C 1157 510.3  1160.3 507  1164.5 507  Z " fill-rule="nonzero" fill="#ffffff" stroke="none" />
  <path d="M 1164.5 507.5  C 1168.42 507.5  1171.5 510.58  1171.5 514.5  C 1171.5 518.42  1168.42 521.5  1164.5 521.5  C 1160.58 521.5  1157.5 518.42  1157.5 514.5  C 1157.5 510.58  1160.58 507.5  1164.5 507.5  Z " stroke-width="1" stroke="#4284f5" fill="none" />
  <path d="M 1164.5 518.25  C 1162.4 518.25  1160.75 516.6  1160.75 514.5  C 1160.75 512.4  1162.4 510.75  1164.5 510.75  C 1166.6 510.75  1168.25 512.4  1168.25 514.5  C 1168.25 516.6  1166.6 518.25  1164.5 518.25  " fill-rule="nonzero" fill="#4284f5" stroke="none" />
</svg>