<?xml version="1.0" encoding="utf-8"?>
<svg version="1.1" xmlns:xlink="http://www.w3.org/1999/xlink" width="15px" height="15px" viewBox="1157 457  15 15" xmlns="http://www.w3.org/2000/svg">
  <path d="M 1164.5 457  C 1168.7 457  1172 460.3  1172 464.5  C 1172 468.7  1168.7 472  1164.5 472  C 1160.3 472  1157 468.7  1157 464.5  C 1157 460.3  1160.3 457  1164.5 457  Z " fill-rule="nonzero" fill="#ffffff" stroke="none" />
  <path d="M 1164.5 457.5  C 1168.42 457.5  1171.5 460.58  1171.5 464.5  C 1171.5 468.42  1168.42 471.5  1164.5 471.5  C 1160.58 471.5  1157.5 468.42  1157.5 464.5  C 1157.5 460.58  1160.58 457.5  1164.5 457.5  Z " stroke-width="1" stroke="#4284f5" fill="none" />
  <path d="M 1164.5 468.25  C 1162.4 468.25  1160.75 466.6  1160.75 464.5  C 1160.75 462.4  1162.4 460.75  1164.5 460.75  C 1166.6 460.75  1168.25 462.4  1168.25 464.5  C 1168.25 466.6  1166.6 468.25  1164.5 468.25  " fill-rule="nonzero" fill="#4284f5" stroke="none" />
</svg>