<?xml version="1.0" encoding="utf-8"?>
<svg version="1.1" xmlns:xlink="http://www.w3.org/1999/xlink" width="15px" height="15px" viewBox="1037 307  15 15" xmlns="http://www.w3.org/2000/svg">
  <path d="M 1044.5 307  C 1048.7 307  1052 310.3  1052 314.5  C 1052 318.7  1048.7 322  1044.5 322  C 1040.3 322  1037 318.7  1037 314.5  C 1037 310.3  1040.3 307  1044.5 307  Z " fill-rule="nonzero" fill="#ffffff" stroke="none" />
  <path d="M 1044.5 307.5  C 1048.42 307.5  1051.5 310.58  1051.5 314.5  C 1051.5 318.42  1048.42 321.5  1044.5 321.5  C 1040.58 321.5  1037.5 318.42  1037.5 314.5  C 1037.5 310.58  1040.58 307.5  1044.5 307.5  Z " stroke-width="1" stroke="#4284f5" fill="none" />
  <path d="M 1044.5 318.25  C 1042.4 318.25  1040.75 316.6  1040.75 314.5  C 1040.75 312.4  1042.4 310.75  1044.5 310.75  C 1046.6 310.75  1048.25 312.4  1048.25 314.5  C 1048.25 316.6  1046.6 318.25  1044.5 318.25  " fill-rule="nonzero" fill="#4284f5" stroke="none" />
</svg>