<?xml version="1.0" encoding="utf-8"?>
<svg version="1.1" xmlns:xlink="http://www.w3.org/1999/xlink" width="15px" height="15px" viewBox="1037 457  15 15" xmlns="http://www.w3.org/2000/svg">
  <path d="M 1044.5 457  C 1048.7 457  1052 460.3  1052 464.5  C 1052 468.7  1048.7 472  1044.5 472  C 1040.3 472  1037 468.7  1037 464.5  C 1037 460.3  1040.3 457  1044.5 457  Z " fill-rule="nonzero" fill="#ffffff" stroke="none" />
  <path d="M 1044.5 457.5  C 1048.42 457.5  1051.5 460.58  1051.5 464.5  C 1051.5 468.42  1048.42 471.5  1044.5 471.5  C 1040.58 471.5  1037.5 468.42  1037.5 464.5  C 1037.5 460.58  1040.58 457.5  1044.5 457.5  Z " stroke-width="1" stroke="#4284f5" fill="none" />
  <path d="M 1044.5 468.25  C 1042.4 468.25  1040.75 466.6  1040.75 464.5  C 1040.75 462.4  1042.4 460.75  1044.5 460.75  C 1046.6 460.75  1048.25 462.4  1048.25 464.5  C 1048.25 466.6  1046.6 468.25  1044.5 468.25  " fill-rule="nonzero" fill="#4284f5" stroke="none" />
</svg>