<?xml version="1.0" encoding="utf-8"?>
<svg version="1.1" xmlns:xlink="http://www.w3.org/1999/xlink" width="10px" height="7px" xmlns="http://www.w3.org/2000/svg">
  <g transform="matrix(1 0 0 1 -3 -4 )">
    <path d="M 3.5 5.2925  L 8.6464466 0.14644661  C 8.84170875 -0.0488155350000001  9.15829125 -0.0488155350000001  9.3535534 0.14644661  C 9.53379535 0.32668859  9.54766015 0.61030412  9.3951477 0.80644972  L 9.3535534 0.85355339  L 3.85355339 6.3535534  C 3.67331141 6.53379535  3.38969588 6.54766015  3.19355028 6.3951477  L 3.14644661 6.3535534  L 0.64644661 3.8535534  C 0.451184465 3.65829125  0.451184465 3.34170875  0.64644661 3.1464466  C 0.82668859 2.96620465  1.11030412 2.95233985  1.30644972 3.1048523  L 1.35355339 3.1464466  L 3.5 5.2925  Z " fill-rule="nonzero" fill="#ffffff" stroke="none" transform="matrix(1 0 0 1 3 4 )" />
  </g>
</svg>