<?xml version="1.0" encoding="utf-8"?>
<svg version="1.1" xmlns:xlink="http://www.w3.org/1999/xlink" width="13px" height="13px" xmlns="http://www.w3.org/2000/svg">
  <g transform="matrix(1 0 0 1 -18 -14 )">
    <path d="M 7.38315217391304 3.85054347826087  C 7.38315217391304 3.3648097826087  6.98573369565218 2.96739130434783  6.5 2.96739130434783  C 6.01426630434783 2.96739130434783  5.61684782608696 3.3648097826087  5.61684782608696 3.85054347826087  L 5.61684782608696 6.5  C 5.61684782608696 6.98573369565218  6.01426630434783 7.38315217391304  6.5 7.38315217391304  C 6.98573369565218 7.38315217391304  7.38315217391304 6.98573369565218  7.38315217391304 6.5  L 7.38315217391304 3.85054347826087  Z M 12.6820652173913 6.5  C 12.6820652173913 3.08220108695652  9.90896739130435 0.317934782608696  6.5 0.317934782608696  C 3.08220108695652 0.317934782608696  0.317934782608696 3.08220108695652  0.317934782608696 6.5  C 0.317934782608696 9.91779891304348  3.08220108695652 12.6820652173913  6.5 12.6820652173913  C 9.91779891304348 12.6820652173913  12.6820652173913 9.91779891304348  12.6820652173913 6.5  Z M 11.7989130434783 6.5  C 11.7989130434783 9.42323369565217  9.42323369565217 11.7989130434783  6.5 11.7989130434783  C 3.57676630434783 11.7989130434783  1.20108695652174 9.42323369565217  1.20108695652174 6.5  C 1.20108695652174 3.57676630434783  3.57676630434783 1.20108695652174  6.5 1.20108695652174  C 9.42323369565217 1.20108695652174  11.7989130434783 3.57676630434783  11.7989130434783 6.5  Z M 7.38315217391304 9.14945652173913  C 7.38315217391304 8.66372282608696  6.98573369565218 8.26630434782609  6.5 8.26630434782609  C 6.01426630434783 8.26630434782609  5.61684782608696 8.66372282608696  5.61684782608696 9.14945652173913  C 5.61684782608696 9.6351902173913  6.01426630434783 10.0326086956522  6.5 10.0326086956522  C 6.98573369565218 10.0326086956522  7.38315217391304 9.6351902173913  7.38315217391304 9.14945652173913  Z " fill-rule="nonzero" fill="#ff9900" stroke="none" transform="matrix(1 0 0 1 18 14 )" />
  </g>
</svg>