<?xml version="1.0" encoding="utf-8"?>
<svg version="1.1" xmlns:xlink="http://www.w3.org/1999/xlink" width="14px" height="13px" xmlns="http://www.w3.org/2000/svg">
  <g transform="matrix(1 0 0 1 -18 -14 )">
    <path d="M 7.05882352941176 12.6764705882353  C 10.4699940430725 12.6764705882353  13.2352941176471 9.91117051366078  13.2352941176471 6.5  C 13.2352941176471 3.08882948633922  10.4699940430725 0.323529411764706  7.05882352941176 0.323529411764706  C 3.64765301575098 0.323529411764706  0.88235294117647 3.08882948633922  0.88235294117647 6.5  C 0.88235294117647 9.91117051366078  3.64765301575098 12.6764705882353  7.05882352941176 12.6764705882353  Z M 7.05882345052326 11.7941176470588  C 4.13496301024259 11.7941176470588  1.76470580346444 9.42386044028067  1.76470580346444 6.5  C 1.76470580346444 3.57613955971933  4.13496301024259 1.20588235294118  7.05882345052326 1.20588235294118  C 9.98268389080393 1.20588235294118  12.3529410975821 3.57613955971933  12.3529410975821 6.5  C 12.3529410975821 9.42386044028067  9.98268389080393 11.7941176470588  7.05882345052326 11.7941176470588  Z " fill-rule="nonzero" fill="#f56c6c" stroke="none" transform="matrix(1 0 0 1 18 14 )" />
  </g>
</svg>