<?xml version="1.0" encoding="utf-8"?>
<svg version="1.1" xmlns:xlink="http://www.w3.org/1999/xlink" width="18px" height="18px" xmlns="http://www.w3.org/2000/svg">
  <g transform="matrix(1 0 0 1 -383 -156 )">
    <path d="M 9 17.75  C 13.8324915610194 17.75  17.75 13.8324915610194  17.75 9  C 17.75 4.16750843898056  13.8324915610194 0.25  9 0.25  C 4.16750843898056 0.25  0.25 4.16750843898056  0.25 9  C 0.25 13.8324915610194  4.16750843898056 17.75  9 17.75  Z M 16.5 8.99974990400965  C 16.5 10.6473226505016  15.95747997913 12.2490526438276  14.95625 13.5575  C 14.2416092005714 11.573122038302  12.3591390060012 10.2501429852256  10.25 10.25  L 7.75 10.25  C 5.64086099399881 10.2501429852256  3.75839079942859 11.573122038302  3.04375 13.5575  C 2.04252002087003 12.2490526438276  1.5 10.6473226505016  1.5 8.99974990400965  C 1.5 4.8576142802787  4.85786437626905 1.49974990400965  9 1.49974990400965  C 13.1421356237309 1.49974990400965  16.5 4.8576142802787  16.5 8.99974990400965  Z " fill-rule="nonzero" fill="#e4e4e4" stroke="none" transform="matrix(1 0 0 1 383 156 )" />
  </g>
</svg>