<?xml version="1.0" encoding="utf-8"?>
<svg version="1.1" xmlns:xlink="http://www.w3.org/1999/xlink" width="16px" height="18px" xmlns="http://www.w3.org/2000/svg">
  <g transform="matrix(1 0 0 1 -385 -296 )">
    <path d="M 15.7470703125 4.007421875  C 15.6921875 3.4685546875  15.294921875 3.026953125  14.76484375 2.915625  C 13.6900862174863 2.74667481188756  12.6285463589711 2.50232158531021  11.5880859375 2.184375  C 10.5692002300236 1.76656029784812  9.61383243567522 1.20814479790349  8.7498046875 0.525390625  C 8.296875 0.19921875  7.6859375 0.19921875  7.2328125 0.525390625  C 6.41488967460761 1.28185774526818  5.43761953655077 1.84511294913798  4.373046875 2.1736328125  C 3.38729971925522 2.58127597981021  2.34594411095565 2.83863572393634  1.2837890625 2.937109375  C 0.741992187499999 3.024609375  0.336132812499999 3.4806640625  0.312304687499999 4.02890625  C 0.288476562499999 4.5771484375  0.279296874999999 6.7689453125  0.279296874999999 9.1806640625  C 0.279296874999999 13.5466796875  5.4310546875 17.7716796875  8.0078125 17.7716796875  C 10.58359375 17.7716796875  14.950390625 14.79140625  15.648828125 9.2466796875  C 15.8236328125 5.9716796875  15.7470703125 4.006640625  15.7470703125 4.006640625  Z M 12.941796875 7.3798828125  L 7.5599609375 12.4556640625  C 7.3177734375 12.6865234375  6.94765625 12.7228515625  6.665234375 12.5431640625  L 6.5240234375 12.42265625  L 3.5544921875 9.334375  C 3.2771484375 9.0330078125  3.296484375 8.5638671875  3.5978515625 8.2865234375  C 3.89921875 8.0091796875  4.368359375 8.0287109375  4.645703125 8.3298828125  L 7.091015625 10.8951171875  L 11.9375 6.3103515625  C 12.2390625 6.0330078125  12.7083984375 6.0525390625  12.9857421875 6.3541015625  C 13.2630859375 6.6556640625  13.2435546875 7.125  12.9419921875 7.40234375  L 12.9419921875 7.3798828125  Z " fill-rule="nonzero" fill="#e4e4e4" stroke="none" transform="matrix(1 0 0 1 385 296 )" />
  </g>
</svg>