<?xml version="1.0" encoding="utf-8"?>
<svg version="1.1" xmlns:xlink="http://www.w3.org/1999/xlink" width="18px" height="18px" xmlns="http://www.w3.org/2000/svg">
  <g transform="matrix(1 0 0 1 -384 -227 )">
    <path d="M 12.17728125 10.44590625  C 9.37125 10.44590625  7.09734375 8.13178125  7.09734375 5.32884375  C 7.09734375 2.5228125  9.37125 0.24890625  12.17728125 0.286031250000001  C 14.9833125 0.286031250000001  17.25721875 2.5599375  17.25721875 5.36596875  C 17.25721875 8.172  14.9833125 10.44590625  12.17728125 10.44590625  Z M 12.328875 3.6984375  C 12.328875 4.570875  13.0095 5.2515  13.8819375 5.2515  C 14.754375 5.2515  15.435 4.56778125  15.435 3.6984375  C 15.435 2.826  14.75128125 2.145375  13.8819375 2.145375  C 13.01259375 2.145375  12.328875 2.82909375  12.328875 3.6984375  Z M 0.343687499999998 15.0339375  C 0.0466874999999951 14.72765625  0.0466874999999951 14.23575  0.349875 13.9325625  L 6.30225 7.9430625  C 6.6425625 7.60275  6.75703125 7.9059375  6.8715 8.05753125  C 6.98596875 8.24625  7.02309375 8.32359375  6.834375 8.4751875  L 1.56571875 13.74384375  C 1.377 13.9325625  1.377 14.124375  1.45125 14.23575  C 1.56571875 14.35021875  1.7544375 14.35021875  1.94315625 14.12128125  L 6.83128125 9.30740625  C 6.97691318086 9.16174773352888  7.17444842353943 9.07991539578265  7.380421875 9.07991539578265  C 7.58639532646057 9.07991539578265  7.78393056914 9.16174773352888  7.9295625 9.30740625  C 7.9295625 9.30740625  8.68753125 9.87665625  8.839125 10.3685625  C 8.913375 10.5975  8.6101875 11.6184375  8.45859375 11.77003125  C 8.307 11.921625  7.09425 12.30215625  7.01690625 12.45375  C 6.97978125 12.60534375  7.1685 14.0068125  6.71371875 14.15840625  C 6.2218125 14.31  4.55428125 14.15840625  4.36246875 14.38734375  C 4.13353125 14.61628125  4.4769375 16.9273125  4.39959375 17.193375  C 4.285125 17.4965625  2.95790624999999 17.5336875  2.7320625 17.30784375  L 0.343687499999998 15.0339375  Z " fill-rule="nonzero" fill="#409eff" stroke="none" transform="matrix(1 0 0 1 384 227 )" />
  </g>
</svg>