<?xml version="1.0" encoding="utf-8"?>
<svg version="1.1" xmlns:xlink="http://www.w3.org/1999/xlink" width="160px" height="67px" xmlns="http://www.w3.org/2000/svg">
  <g transform="matrix(1 0 0 1 -633 -276 )">
    <path d="M 634 327.4  C 634 327.4  634 281  634 281  C 634 278.790861000677  635.790861000677 277  638 277  C 638 277  788 277  788 277  C 790.209138999323 277  792 278.790861000677  792 281  C 792 281  792 327.4  792 327.4  C 792 329.609138999323  790.209138999323 331.4  788 331.4  C 788 331.4  723.446291853377 331.4  723.446291853377 331.4  C 723.446291853377 331.4  713.857142857143 340.879558721992  713.857142857143 340.879558721992  C 713.857142857143 340.879558721992  704.267993860908 331.4  704.267993860908 331.4  C 704.267993860908 331.4  638 331.4  638 331.4  C 635.790861000677 331.4  634 329.609138999323  634 327.4  Z " fill-rule="nonzero" fill="#333333" stroke="none" fill-opacity="0.8" />
  </g>
</svg>