<?xml version="1.0" encoding="utf-8"?>
<svg version="1.1" xmlns:xlink="http://www.w3.org/1999/xlink" width="13px" height="13px" xmlns="http://www.w3.org/2000/svg">
  <g transform="matrix(1 0 0 1 -619 -299 )">
    <path d="M 0.8125 6.5  C 0.8125 9.64111951466264  3.35888048533736 12.1875  6.5 12.1875  C 9.64111951466264 12.1875  12.1875 9.64111951466264  12.1875 6.5  C 12.1875 3.35888048533736  9.64111951466264 0.8125  6.5 0.8125  C 3.35888048533736 0.8125  0.8125 3.35888048533736  0.8125 6.5  Z M 4.7766875 8.79775  L 4.20225 8.2233125  L 5.92475 6.5  L 4.20225 4.7766875  L 4.7766875 4.20225  L 6.5 5.92475  L 8.2233125 4.20225  L 8.79775 4.7766875  L 7.07525 6.5  L 8.79775 8.2233125  L 8.2233125 8.79775  L 6.5 7.07525  L 4.7766875 8.79775  Z " fill-rule="nonzero" fill="#999999" stroke="none" transform="matrix(1 0 0 1 619 299 )" />
  </g>
</svg>