<?xml version="1.0" encoding="utf-8"?>
<svg version="1.1" xmlns:xlink="http://www.w3.org/1999/xlink" width="18px" height="18px" xmlns="http://www.w3.org/2000/svg">
  <g transform="matrix(1 0 0 1 -52 -262 )">
    <path d="M 18 9  C 18 4.02790178571429  13.9700892857143 0  9 0  C 4.02991071428572 0  0 4.02790178571429  0 9  C 0 13.9720982142857  4.02991071428572 18  9 18  C 13.9700892857143 18  18 13.9720982142857  18 9  Z M 9.94821428571429 13.1022321428571  C 9.94821428571429 13.6245535714286  9.52433035714286 14.0504464285714  9 14.0504464285714  C 8.47566964285714 14.0504464285714  8.05178571428571 13.6245535714286  8.05178571428571 13.1022321428571  C 8.05178571428571 12.5779017857143  8.47566964285714 12.1520089285714  9 12.1520089285714  C 9.52433035714285 12.1520089285714  9.94821428571429 12.5779017857143  9.94821428571429 13.1022321428571  Z M 9.59866071428571 3.6  C 10.2595982142857 3.6  10.7116071428571 4.30714285714286  10.603125 4.96004464285714  L 9.79754464285714 9.96830357142857  C 9.6890625 10.6191964285714  9.33147321428571 11.1515625  9 11.1515625  C 8.66852678571429 11.1515625  8.3109375 10.6191964285714  8.20245535714286 9.96830357142857  L 7.396875 4.96004464285714  C 7.28839285714286 4.30915178571429  7.74040178571429 3.6  8.39933035714285 3.6  L 9.59866071428571 3.6  Z " fill-rule="nonzero" fill="#ff9900" stroke="none" transform="matrix(1 0 0 1 52 262 )" />
  </g>
</svg>