<?xml version="1.0" encoding="utf-8"?>
<svg version="1.1" xmlns:xlink="http://www.w3.org/1999/xlink" width="30px" height="30px" xmlns="http://www.w3.org/2000/svg">
  <g transform="matrix(1 0 0 1 -210 -287 )">
    <path d="M 30 15  C 30 23.2845  23.2845 30  15 30  C 6.71549999999999 30  0 23.2845  0 15  C 0 6.71550000000001  6.71549999999999 0  15 0  C 23.2845 0  30 6.71550000000001  30 15  Z M 15 27  C 21.6274169979695 27  27 21.6274169979695  27 15  C 27 8.37258300203047  21.6274169979695 3.00000000000001  15 3.00000000000001  C 8.37258300203049 3.00000000000001  3 8.37258300203047  3 15  C 3 21.6274169979695  8.37258300203049 27  15 27  Z M 24.111 10.3935  L 13.5045 21  L 7.14 14.6355  L 9.26099999999999 12.5145  L 13.5045 16.758  L 21.9885 8.2725  L 24.111 10.3935  Z " fill-rule="nonzero" fill="#ffffff" stroke="none" transform="matrix(1 0 0 1 210 287 )" />
  </g>
</svg>