<?xml version="1.0" encoding="utf-8"?>
<svg version="1.1" xmlns:xlink="http://www.w3.org/1999/xlink" width="60px" height="60px" xmlns="http://www.w3.org/2000/svg">
  <g transform="matrix(1 0 0 1 -13 -264 )">
    <path d="M 13 264  L 73 264  L 73 324  L 13 324  L 13 264  " fill-rule="nonzero" fill="#cccccc" stroke="none" />
    <path d="M 17 268  L 69 268  L 69 320  L 17 320  L 17 268  " fill-rule="nonzero" fill="#ffffff" stroke="none" />
    <path d="M 48.7 282  C 46.18 282  44.2 280.02  44.2 277.5  C 44.2 274.98  46.18 273  48.7 273  C 51.22 273  53.2 274.98  53.2 277.5  C 53.2 280.02  51.22 282  48.7 282  " fill-rule="nonzero" fill="#cccccc" stroke="none" />
    <path d="M 19 319  L 19 292.05  L 31.25 279.8  L 48.4 289.6  L 58.2 287.15  L 68 289.6  L 68 319  L 19 319  " fill-rule="nonzero" fill="#169bd5" stroke="none" />
  </g>
</svg>