<?xml version="1.0" encoding="utf-8"?>
<svg version="1.1" xmlns:xlink="http://www.w3.org/1999/xlink" width="19px" height="23px" xmlns="http://www.w3.org/2000/svg">
  <g transform="matrix(1 0 0 1 -303 -95 )">
    <path d="M 18.875375 9.5004375  C 18.875375 14.5000625  9.87375 23  9.87375 23  C 9.87375 23  0.875 14.5000625  0.875 9.5004375  C 0.875 4.499375  3.8750625 0  9.87375 0  C 15.8753125 0  18.875375 4.499375  18.875375 9.5004375  Z M 9.87375 12.4990625  L 9.87375 12.5005  C 12.3590831509339 12.5005  14.37384375 10.4857394009339  14.37384375 8.00040625  C 14.37384375 5.51507309906613  12.3590831509339 3.5003125  9.87375 3.5003125  C 7.38881380373008 3.5003125  5.374375 5.51475130373007  5.374375 7.9996875  C 5.374375 10.4846236962699  7.38881380373008 12.4990625  9.87375 12.4990625  Z " fill-rule="nonzero" fill="#555555" stroke="none" transform="matrix(1 0 0 1 303 95 )" />
  </g>
</svg>