<?xml version="1.0" encoding="utf-8"?>
<svg version="1.1" xmlns:xlink="http://www.w3.org/1999/xlink" width="24px" height="23px" xmlns="http://www.w3.org/2000/svg">
  <g transform="matrix(1 0 0 1 -176 -15 )">
    <path d="M 20.2176 17.3592  L 18.8344 17.3592  L 18.8344 15.2536  C 18.8344 14.9176  18.5656 14.632  18.2296 14.632  C 17.8488 14.632  17.5688 14.9456  17.5688 15.3264  L 17.5688 18.216  C 17.5688 18.44  17.7536 18.6248  17.9776 18.6248  L 20.2624 18.6248  C 20.6208 18.6248  20.9232 18.3336  20.912 17.9752  C 20.9008 17.6  20.5928 17.3592  20.2176 17.3592  Z M 9.0512 14.1  L 5.0976 14.1  C 4.6496 14.1  4.2968 14.4808  4.336 14.9344  C 4.3696 15.332  4.7168 15.6288  5.12 15.6288  L 9.0288 15.6288  C 9.4264 15.6288  9.7736 15.332  9.8128 14.9344  C 9.852 14.4808  9.4992 14.1  9.0512 14.1  Z M 4.5544 7.5424  C 4.7 7.6824  4.8904 7.7664  5.0976 7.7664  L 13.5592 7.7664  C 13.9904 7.7664  14.3376 7.4136  14.3264 6.9768  C 14.3152 6.568  13.9512 6.232  13.5424 6.232  L 5.1144 6.232  C 4.7112 6.232  4.3528 6.5568  4.3304 6.96  C 4.3192 7.1784  4.4032 7.3856  4.5544 7.5424  Z M 10.9384 11.6192  C 11.3584 11.6304  11.7 11.2832  11.7 10.8576  C 11.7 10.4376  11.3584 10.0904  10.9328 10.0904  L 5.1144 10.0904  C 4.7168 10.0904  4.3696 10.3872  4.336 10.7848  C 4.2968 11.2384  4.6552 11.6192  5.1032 11.6192  L 10.9384 11.6192  Z M 13.352 22.08  C 13.4248 21.576  13.0328 21.1448  12.5456 21.1448  L 3.7816 21.1448  C 3.1208 21.1448  2.5776 20.6016  3 19.9408  L 3 3.8016  C 2.5776 3.1408  3.1208 2.5976  3.7816 3  L 16.3872 3  C 17.048 2.5976  17.5912 3.1408  17.5912 3.8016  L 17.5912 9.9  C 17.5912 10.3256  17.9104 10.6896  18.3304 10.7288  C 18.812 10.7736  19.2152 10.3928  19.2152 9.9168  L 19.2152 3.8016  C 19.2152 2.2392  17.944 0.968  16.3872 1  L 3.7816 1  C 2.2696 0.968  1.032 2.144  1 3.6504  L 1 20.0976  C 1.032 21.5984  2.2752 22.7744  3.7816 22.7744  L 12.5288 22.7744  C 12.9376 22.7744  13.296 22.4832  13.352 22.08  Z M 23.9304 17.2584  C 23.9248 14.2064  21.4496 11.7312  18.4032 11.7312  C 15.3456 11.7312  12.8592 14.2288  12.8816 17.2976  C 12.904 20.2992  15.3568 22.752  18.364 22.78  C 21.4272 22.8024  23.9304 20.316  23.9304 17.2584  Z M 18.4032 13.2488  C 20.6096 13.2488  22.4072 15.0408  22.4072 17.2528  C 22.4072 19.4816  20.5816 21.2848  18.3472 21.2568  C 16.1912 21.2288  14.4328 19.4704  14.3992 17.32  C 14.3656 15.08  16.1744 13.2488  18.4032 13.2488  Z " fill-rule="nonzero" fill="#555555" stroke="none" transform="matrix(1 0 0 1 176 15 )" />
  </g>
</svg>