<?xml version="1.0" encoding="utf-8"?>
<svg version="1.1" xmlns:xlink="http://www.w3.org/1999/xlink" width="15px" height="17px" xmlns="http://www.w3.org/2000/svg">
  <g transform="matrix(1 0 0 1 -305 -15 )">
    <path d="M 8.45501729785156 15.6941176523438  L 7.62733563671875 16.1875432558594  L 6.81557094140625 15.6941176523438  C 6.56089966796875 15.5508650498047  0.735294130859376 11.9854671318359  0.735294108398438 6.90795847167969  C 0.735294108398437 3.09719369784721  3.82452933456596 0.00795847167968706  7.63529410839844 0.00795847167968706  C 11.4460588822309 0.00795847167968706  14.5352941083984 3.09719369784721  14.5352941083984 6.90795847167969  C 14.5352941083984 12.0013840751953  8.70968857128907 15.5508650498047  8.45501729785156 15.6941176523438  Z M 11.3519031230469 6.89204152832031  C 11.343138933526 4.8412383909123  9.67815750101349 3.18337226847272  7.62733563671875 3.1833910078125  C 5.58272698235091 3.19211013366584  3.92740424206428 4.84743287395247  3.91868511621094 6.89204152832031  C 3.91868511621094 9.27958478417969  6.33806228125 11.4124567441406  7.64325260253907 12.3833910078125  C 9.13944637890625 11.2692041640625  11.3519031230469 9.2  11.3519031230469 6.89204152832031  Z " fill-rule="nonzero" fill="#555555" stroke="none" transform="matrix(1 0 0 1 305 15 )" />
  </g>
</svg>