<?xml version="1.0" encoding="utf-8"?>
<svg version="1.1" xmlns:xlink="http://www.w3.org/1999/xlink" width="24px" height="23px" xmlns="http://www.w3.org/2000/svg">
  <g transform="matrix(1 0 0 1 -51 -95 )">
    <path d="M 21.7835277116669 22  C 22.6920277105674 22.08  23.2785277098575 21.16  22.8760277103447 20.378  L 12.5950277227874 1.5755  C 12.1465277233302 0.7015  10.858527724889 0.7015  10.3985277254457 1.5755  L 0.129027737874518 20.378  C -0.273472261638352 21.16  0.313027737651829 22.08  1.23302773653839 22  L 21.7835277116669 22  Z M 10.582527725223 14.7315  L 10.582527725223 9.2115  C 10.582527725223 8.7055  10.996527724722 8.2915  11.5025277241096 8.2915  C 12.0085277234972 8.2915  12.4225277229962 8.7055  12.4225277229962 9.2115  L 12.4225277229962 14.7315  C 12.4225277229962 15.2375  12.0085277234972 15.6515  11.5025277241096 15.6515  C 10.996527724722 15.6515  10.582527725223 15.2375  10.582527725223 14.7315  Z M 12.6525277227178 17.7215  C 12.6525277227178 18.354  12.1350277233441 18.8715  11.5025277241096 18.8715  C 10.8700277248751 18.8715  10.3525277255014 18.354  10.3525277255014 17.7215  C 10.3525277255014 17.089  10.8700277248751 16.5715  11.5025277241096 16.5715  C 12.1350277233441 16.5715  12.6525277227178 17.089  12.6525277227178 17.7215  Z " fill-rule="nonzero" fill="#555555" stroke="none" transform="matrix(1 0 0 1 51 95 )" />
  </g>
</svg>