<?xml version="1.0" encoding="utf-8"?>
<svg version="1.1" xmlns:xlink="http://www.w3.org/1999/xlink" width="9px" height="8px" xmlns="http://www.w3.org/2000/svg">
  <g transform="matrix(1 0 0 1 -189 -108 )">
    <path d="M 8.65244416503906 5.31328737792968  C 8.65664370117187 6.60255334472656  7.60255334472656 7.65664370117187  6.31328742675781 7.65664370117187  L 1.62237526855469 7.65664370117187  C 1.18982026367187 7.65664370117187  0.841256494140623 7.30807995605469  0.841256494140623 6.87552492675781  C 0.841256494140623 6.44296989746093  1.18982023925781 6.09440615234375  1.62237526855469 6.09440615234375  L 6.30908784179687 6.09440615234375  C 6.74164284667969 6.09440615234375  7.09020661621094 5.74584240722656  7.09020661621094 5.31328737792968  L 7.09020661621094 1.4076935546875  C 7.09020661621094 0.975138549804685  7.43877036132812 0.626574780273433  7.871325390625 0.626574780273433  C 8.30388041992188 0.626574780273433  8.65244416503906 0.975138525390619  8.65244416503906 1.4076935546875  L 8.65244416503906 5.31328737792968  Z " fill-rule="nonzero" fill="#555555" stroke="none" transform="matrix(1 0 0 1 189 108 )" />
  </g>
</svg>