<?xml version="1.0" encoding="utf-8"?>
<svg version="1.1" xmlns:xlink="http://www.w3.org/1999/xlink" width="8px" height="8px" xmlns="http://www.w3.org/2000/svg">
  <g transform="matrix(1 0 0 1 -177 -108 )">
    <path d="M 7.3734251953125 6.87552497558594  C 7.37342517089844 7.30807995605469  7.02486142578125 7.65664370117187  6.59230639648437 7.65664370117187  L 2.68671257324219 7.65664370117187  C 1.39324709472656 7.65664370117187  0.343356274414063 6.60675288085938  0.343356274414063 5.31328740234375  L 0.343356274414063 1.40769357910156  C 0.343356274414063 0.97513857421875  0.69192001953125 0.626574804687499  1.12447504882813 0.626574804687499  C 1.557030078125 0.626574804687499  1.90559382324219 0.97513857421875  1.90559382324219 1.40769360351563  L 1.90559382324219 5.31328742675781  C 1.90559382324219 5.74584243164063  2.25835712890625 6.09440620117187  2.68671259765625 6.09440620117187  L 6.59230642089844 6.09440620117187  C 7.02486142578125 6.09440620117187  7.3734251953125 6.44296994628906  7.3734251953125 6.87552497558594  Z " fill-rule="nonzero" fill="#555555" stroke="none" transform="matrix(1 0 0 1 177 108 )" />
  </g>
</svg>