<?xml version="1.0" encoding="utf-8"?>
<svg version="1.1" xmlns:xlink="http://www.w3.org/1999/xlink" width="8px" height="8px" xmlns="http://www.w3.org/2000/svg">
  <g transform="matrix(1 0 0 1 -177 -95 )">
    <path d="M 1.90559379882813 6.59230642089844  C 1.90559382324219 7.02486142578125  1.557030078125 7.37342517089844  1.12447504882812 7.37342517089844  C 0.691920043945312 7.37342517089844  0.343356274414063 7.02486142578125  0.343356274414063 6.59230639648437  L 0.343356274414063 2.68671257324219  C 0.343356274414063 1.39324709472656  1.39324709472656 0.343356274414063  2.68671257324219 0.343356274414063  L 6.59230639648437 0.343356274414063  C 7.02486140136719 0.343356274414063  7.37342517089844 0.69192001953125  7.37342517089844 1.12447504882813  C 7.37342517089844 1.557030078125  7.02486142578125 1.90559382324219  6.59230639648437 1.90559382324219  L 2.68671257324219 1.90559382324219  C 2.25835712890625 1.90559382324219  1.90559379882813 2.25835712890625  1.90559379882813 2.68671259765625  L 1.90559379882813 6.59230642089844  Z " fill-rule="nonzero" fill="#555555" stroke="none" transform="matrix(1 0 0 1 177 95 )" />
  </g>
</svg>