<?xml version="1.0" encoding="utf-8"?>
<svg version="1.1" xmlns:xlink="http://www.w3.org/1999/xlink" width="9px" height="8px" xmlns="http://www.w3.org/2000/svg">
  <g transform="matrix(1 0 0 1 -189 -95 )">
    <path d="M 8.652444140625 6.59230639648437  C 8.65664370117187 7.02486142578125  8.30807995605469 7.37342517089844  7.87552495117188 7.37342517089844  C 7.44296994628906 7.37342517089844  7.09440617675781 7.02486142578125  7.09440617675781 6.59230639648437  L 7.09440617675781 2.68671257324219  C 7.09440617675781 2.25835712890625  6.74584243164063 1.90559379882813  6.31328740234375 1.90559379882813  L 1.62237526855469 1.90559382324219  C 1.18982026367187 1.90559382324219  0.841256494140623 1.557030078125  0.841256494140623 1.12447504882812  C 0.841256494140623 0.69192001953125  1.18982023925781 0.343356274414062  1.62237526855469 0.343356274414062  L 6.30908784179687 0.343356274414062  C 7.6025533203125 0.343356274414062  8.652444140625 1.39324709472656  8.652444140625 2.68671257324219  L 8.652444140625 6.59230639648437  Z " fill-rule="nonzero" fill="#555555" stroke="none" transform="matrix(1 0 0 1 189 95 )" />
  </g>
</svg>