<?xml version="1.0" encoding="utf-8"?>
<svg version="1.1" xmlns:xlink="http://www.w3.org/1999/xlink" width="13px" height="7px" xmlns="http://www.w3.org/2000/svg">
  <g transform="matrix(1 0 0 1 -56 -21 )">
    <path d="M 11.96875 0.6875  L 1.03125 0.6875  C 0.599777539194693 0.6875  0.25 1.03727753919469  0.25 1.46875  C 0.25 1.90022246080531  0.599777539194693 2.25  1.03125 2.25  L 11.96875 2.25  C 12.4002224608053 2.25  12.75 1.90022246080531  12.75 1.46875  C 12.75 1.03727753919469  12.4002224608053 0.6875  11.96875 0.6875  Z M 7.28125 4.59375  L 1.03125 4.59375  C 0.599777539194693 4.59375  0.25 4.94352753919469  0.25 5.375  C 0.25 5.80647246080531  0.599777539194693 6.15625  1.03125 6.15625  L 7.28125 6.15625  C 7.71272246080531 6.15625  8.0625 5.80647246080531  8.0625 5.375  C 8.0625 4.94352753919469  7.71272246080531 4.59375  7.28125 4.59375  Z " fill-rule="nonzero" fill="#ffffff" stroke="none" transform="matrix(1 0 0 1 56 21 )" />
  </g>
</svg>