<?xml version="1.0" encoding="utf-8"?>
<svg version="1.1" xmlns:xlink="http://www.w3.org/1999/xlink" width="8px" height="9px" xmlns="http://www.w3.org/2000/svg">
  <g transform="matrix(1 0 0 1 -61 -29 )">
    <path d="M 7.75101637110211 4.40625  C 7.75101637110211 4.25058015460857  7.68917676580254 4.10128614080254  7.5791015625 3.9912109375  L 4.458984375 0.873535156249998  C 4.42942466527709 0.8432455677071  4.39668309912483 0.816233775631487  4.361328125 0.79296875  C 4.332564795682 0.772881126817712  4.30139747656999 0.756477274653497  4.2685546875 0.744140625  L 4.234375 0.744140625  C 4.2108006775124 0.734263610394697  4.18625101637789 0.726898712054343  4.1611328125 0.72216796875  C 4.12949717684944 0.718558096229279  4.09755360440057 0.718558096229279  4.06591796875 0.72216796875  L 4.03906250000001 0.722167968750004  C 4.00008292461412 0.718568389475141  3.96085457538589 0.718568389475141  3.921875 0.72216796875  L 3.90234375000001 0.72216796875  C 3.87145668383123 0.729354034644693  3.84123702117647 0.739155006316508  3.81201171875 0.751464843750002  L 3.7998046875 0.751464843750002  C 3.73461302955195 0.780660016990881  3.67510181936646 0.821160701700451  3.6240234375 0.871093750000002  L 0.4990234375 3.9912109375  C 0.388948234197455 4.10128614080255  0.327108628897886 4.25058015460856  0.327108628897886 4.40625  C 0.327108628897886 4.73041567186385  0.589896828136153 4.99320387110211  0.9140625 4.99320387110211  C 1.06973234539143 4.99320387110211  1.21902635919746 4.93136426580254  1.3291015625 4.8212890625  L 3.453125 2.69482421875  L 3.453125 7.7265625  C 3.453125 8.05016684560398  3.71545815439602 8.3125  4.0390625 8.3125  C 4.36266684560398 8.3125  4.625 8.05016684560398  4.625 7.7265625  L 4.625 2.697265625  L 6.7490234375 4.8212890625  C 6.85909864080254 4.93136426580255  7.00839265460857 4.99320387110212  7.1640625 4.99320387110212  C 7.48822817186385 4.99320387110212  7.75101637110211 4.73041567186385  7.75101637110211 4.40625  Z " fill-rule="nonzero" fill="#ffffff" stroke="none" transform="matrix(1 0 0 1 61 29 )" />
  </g>
</svg>