<?xml version="1.0" encoding="utf-8"?>
<svg version="1.1" xmlns:xlink="http://www.w3.org/1999/xlink" width="23px" height="23px" xmlns="http://www.w3.org/2000/svg">
  <g transform="matrix(1 0 0 1 -51 -175 )">
    <path d="M 22.4181034599807 21.7986543076181  C 22.4181034378013 21.4568220973963  22.1411228437801 21.1798414811958  21.7992906557377 21.1798414811958  L 20 21.1798414811958  L 20 3.56595324686596  C 20.4542391002893 2.1006044831244  19.2621580829315 0.90852344358727  17.7968092970106 1  L 5.20792872516876 1  C 3.74257996142719 0.908523465766634  2.55049892189007 2.1006044831244  3 3.56595324686596  L 3 21.1798414811958  L 1.20000182256509 21.1798414811958  C 0.858169612343298 21.1798414811958  0.581188996142719 21.4568220973963  0.581188996142719 21.7986543076181  C 0.581188996142719 22.1404865178399  0.858169612343298 22.4174671340405  1.20000182256509 22  L 21.7992906557377 22  C 22.1411228659595 22.4174671340405  22.4181034821601 22.1404865178399  22.4181034599807 21.7986543076181  Z M 17.4334424108004 15.6139914136933  C 17.4334424108004 15.9558236239151  17.1564617945998 16.2328042401157  16.814629584378 16.2328042401157  L 12.7193263027965 16.2328042401157  C 12.3774940925747 16.2328042401157  12.1005134763742 15.9558236239151  12.1005134985535 15.6139914136933  C 12.1005135207329 15.2721592034715  12.3774941147541 14.995178587271  12.7193263027965 14.995178587271  L 16.814629584378 14.995178587271  C 17.1564617945998 14.995178587271  17.4334424108004 15.2721592034715  17.4334424108004 15.6139914136933  Z M 17.4334424108004 13.0815618196721  C 17.4334424108004 13.4233940298939  17.1564617945998 13.7003746460945  16.814629584378 13.7003746460945  L 12.7193263027965 13.7003746460945  C 12.3774940925747 13.7003746460945  12.1005134763742 13.4233940298939  12.1005134985535 13.0815618196721  C 12.1005135207329 12.7397296094503  12.3774941147541 12.4627489932498  12.7193263027965 12.4627489932498  L 16.814629584378 12.4627489932498  C 17.1564617945998 12.4627489932498  17.4334424108004 12.7397296094503  17.4334424108004 13.0815618196721  Z M 17.892354002893 4.57981618032787  L 17.892354002893 9.95160655351977  C 17.892354002893 10.4565578244937  17.4814622854388 10.8674495419479  16.9765110144648 11  L 6.02822700771456 11  C 5.5232757367406 10.8674495419479  5.1123840192864 10.4565578244937  5.1123840192864 9.95160655351977  L 5.1123840192864 4.57981618032787  C 5.1123840192864 4.07486490935391  5.5232757367406 3.66397319189971  6.02822700771456 4  L 16.9765110144648 4  C 17.4814622854388 3.66397321407907  17.892354002893 4.07486493153327  17.892354002893 4.57981618032787  Z " fill-rule="nonzero" fill="#555555" stroke="none" transform="matrix(1 0 0 1 51 175 )" />
  </g>
</svg>