<?xml version="1.0" encoding="utf-8"?>
<svg version="1.1" xmlns:xlink="http://www.w3.org/1999/xlink" width="20px" height="20px" xmlns="http://www.w3.org/2000/svg">
  <g transform="matrix(1 0 0 1 -82 -309 )">
    <path d="M 20 10  C 20 15.5226315820313  15.5226315820313 20  10 20  C 4.47736841796875 20  0 15.5226315820313  0 10  C 0 4.47736841796875  4.47736841796875 0  10 0  C 15.5226315820313 0  20 4.47736841796875  20 10  Z M 18.9473684179688 10  C 18.9473684179688 5.0584210546875  14.9415789453125 1.05263158203125  10 1.05263158203125  C 5.0584210546875 1.05263158203125  1.05263158203125 5.0584210546875  1.05263158203125 10  C 1.05263158203125 14.9415789453125  5.0584210546875 18.9473684179688  10 18.9473684179688  C 14.9415789453125 18.9473684179688  18.9473684179688 14.9415789453125  18.9473684179688 10  Z M 15.106842109375 11.8478947460938  C 14.9610526367188 12.0994736914063  14.6394736914063 12.1857894726562  14.3878947460937 12.0405263085938  L 9.7952631640625 10.4847368359375  L 9.72631578125 10.4615789453125  C 9.5315789453125 10.3489473632812  9.43947369140625 10.1310526367187  9.47368421875 9.9215789453125  L 9.47368421875 3.68421052734375  C 9.47368421875 3.39368421875  9.70947369140625 3.15789474609375  10 3.15789474609375  C 10.2905263085938 3.15789474609375  10.52631578125 3.39368421875  10.52631578125 3.68421052734375  L 10.52631578125 9.64263158203125  L 14.9142105273437 11.1289473632812  C 15.1657894726563 11.2742105273438  15.2521052539062 11.59631578125  15.106842109375 11.8478947460938  Z " fill-rule="nonzero" fill="#555555" stroke="none" transform="matrix(1 0 0 1 82 309 )" />
  </g>
</svg>