<?xml version="1.0" encoding="utf-8"?>
<svg version="1.1" xmlns:xlink="http://www.w3.org/1999/xlink" width="20px" height="20px" xmlns="http://www.w3.org/2000/svg">
  <g transform="matrix(1 0 0 1 -82 -339 )">
    <path d="M 17.8571428515625 1.42857142578125  L 2.1428571484375 1.42857142578125  C 1.71428572265625 1.42857142578125  1.42857142578125 1.714285703125  1.42857142578125 2.1428571484375  L 1.42857142578125 17.8571428515625  C 1.42857142578125 18.2857142773438  1.714285703125 18.5714285742188  2.1428571484375 18.5714285742188  L 17.8571428515625 18.5714285742188  C 18.2857142773438 18.5714285742188  18.5714285742188 18.285714296875  18.5714285742188 17.8571428515625  L 18.5714285742188 2.1428571484375  C 18.5714285742188 1.71428572265625  18.285714296875 1.42857142578125  17.8571428515625 1.42857142578125  Z M 0 2.1428571484375  C 0 1  1 0  2.1428571484375 0  L 17.8571428515625 0  C 19 0  20 1  20 2.1428571484375  L 20 17.8571428515625  C 20 19  19 20  17.8571428515625 20  L 2.1428571484375 20  C 1 20  0 19  0 17.8571428515625  L 0 2.1428571484375  Z M 10 6.42857142578125  C 10 5.99999998046875  10.2857142773438 5.714285703125  10.7142857226562 5.71428572265625  L 15 5.71428572265625  C 15.4285714257812 5.71428572265625  15.7142857226562 6  15.7142857226562 6.42857142578125  C 15.7142857226562 6.8571428515625  15.4285714453125 7.1428571484375  15 7.1428571484375  L 10.7142857226562 7.1428571484375  C 10.285714296875 7.1428571484375  10 6.85714287109375  10 6.42857142578125  Z M 5.71428572265625 13.5714285742187  C 5.7142857421875 14.0000000195312  6 14.285714296875  6.42857142578125 14.2857142773438  C 6.8571428515625 14.2857142773438  7.1428571484375 14  7.1428571484375 13.5714285742188  C 7.1428571484375 13.1428571484375  6.8571428515625 12.8571428515625  6.42857142578125 12.8571428515625  C 6 12.8571428515625  5.714285703125 13.1428571289062  5.71428572265625 13.5714285742187  Z M 8.57142857421875 13.5714285742187  C 8.57142857421875 14.7142857226562  7.57142857421875 15.7142857226562  6.42857142578125 15.7142857226563  C 5.28571427734375 15.7142857226562  4.28571427734375 14.7142857226562  4.28571427734375 13.5714285742187  C 4.28571427734375 12.4285714257812  5.28571427734375 11.4285714257813  6.42857142578125 11.4285714257813  C 7.57142857421875 11.4285714257813  8.57142857421875 12.4285714257813  8.57142857421875 13.5714285742187  Z M 8.8571428515625 4.57142857421875  L 6.28571427734375 7  L 4.71428572265625 5.42857142578125  C 4.4285714453125 5.1428571484375  4 5.1428571484375  3.71428572265625 5.42857142578125  C 3.4285714453125 5.714285703125  3.4285714453125 6.1428571484375  3.71428572265625 6.42857142578125  L 5.71428572265625 8.42857142578125  C 5.85714287109375 8.57142857421875  6.1428571484375 8.714285703125  6.28571427734375 8.71428572265625  C 6.42857140625 8.7142857421875  6.714285703125 8.71428572265625  6.8571428515625 8.57142857421875  L 9.8571428515625 5.57142857421875  C 10.1428571289062 5.285714296875  10.1428571289062 4.8571428515625  9.8571428515625 4.57142857421875  C 9.57142857421875 4.285714296875  9.14285712890625 4.285714296875  8.8571428515625 4.57142857421875  Z M 10 13.5714285742187  C 10 13.1428571484375  10.2857142773438 12.8571428515625  10.7142857226562 12.8571428515625  L 15 12.8571428515625  C 15.4285714257812 12.8571428515625  15.7142857226562 13.1428571289062  15.7142857226562 13.5714285742187  C 15.7142857226562 14.0000000195312  15.4285714453125 14.285714296875  15 14.2857142773437  L 10.7142857226562 14.2857142773437  C 10.285714296875 14.2857142773437  10 14  10 13.5714285742187  Z " fill-rule="nonzero" fill="#555555" stroke="none" transform="matrix(1 0 0 1 82 339 )" />
  </g>
</svg>