<?xml version="1.0" encoding="utf-8"?>
<svg version="1.1" xmlns:xlink="http://www.w3.org/1999/xlink" width="17px" height="17px" xmlns="http://www.w3.org/2000/svg">
  <g>
    <path d="M 14.65101171875 15.68283203125  C 14.193904296875 16.1055078125  13.61480859375 16.153453125  13.3757958984375 16.1534697265625  C 13.34320703125 16.1534697265625  13.317009765625 16.1525732421875  13.2982333984375 16.151626953125  L 3.37456640625 16.151626953125  C 2.709806640625 16.151626953125  2.3271572265625 15.8716416015625  2.1232236328125 15.6367626953125  C 1.676326171875 15.122064453125  1.71221875 14.424234375  1.732373046875 14.2306103515625  L 1.732373046875 8.2618505859375  L 2.794873046875 8.2618505859375  L 2.794873046875 14.303375  L 2.789859375 14.3346357421875  C 2.7772255859375 14.44090234375  2.7760302734375 14.770875  2.9274697265625 14.94240234375  C 2.9595107421875 14.978693359375  3.05701171875 15.089126953125  3.3745830078125 15.089126953125  L 13.3406337890625 15.089126953125  L 13.3530849609375 15.09048828125  C 13.388828125 15.09175  13.723548828125 15.097693359375  13.9340732421875 14.8986240234375  C 14.0744228515625 14.7659111328125  14.1455771484375 14.5464716796875  14.1455771484375 14.2463818359375  L 14.1455771484375 8.2572685546875  L 15.2080771484375 8.2572685546875  L 15.2080771484375 14.2463818359375  C 15.2080771484375 15.007912109375  14.9051484375 15.447853515625  14.65101171875 15.68283203125  Z M 2.7948564453125 8.2291953125  C 2.7948564453125 8.5225947265625  2.557005859375 8.7604453125  2.2636064453125 8.7604453125  L 0.630859375 8.7604453125  C 0.4102080078125 8.7604453125  0.2125498046875 8.624080078125  0.13420703125 8.4178056640625  C 0.055880859375 8.21153125  0.113189453125 7.9783291015625  0.278208984375 7.8318701171875  L 8.1177822265625 0.8743212890625  C 8.3173330078125 0.6972158203125  8.6172734375 0.6955888671875  8.81875 0.870552734375  L 16.7672626953125 7.7733330078125  C 16.93253125 7.9168701171875  16.9928447265625 8.147083984375  16.91918359375 8.353208984375  C 16.8455224609375 8.559333984375  16.6529775390625 8.699185546875  16.43415234375 8.7054775390625  L 14.692017578125 8.7554814453125  C 14.6868212890625 8.7556474609375  14.681658203125 8.7557138671875  14.676478515625 8.7557138671875  C 14.3901513671875 8.7557138671875  14.1540107421875 8.527791015625  14.1457265625 8.2397041015625  C 14.1373095703125 7.9464208984375  14.3682373046875 7.7018466796875  14.6615205078125 7.6934296875  L 15.0422109375 7.682505859375  L 8.474234375 1.9785576171875  L 2.029806640625 7.6979453125  L 2.2636064453125 7.6979453125  C 2.557005859375 7.6979453125  2.7948564453125 7.9357958984375  2.7948564453125 8.2291953125  Z M 7.1386552734375 15.1771650390625  C 7.138671875 15.4247275390625  6.9379921875 15.6254072265625  6.6904296875 15.6254072265625  C 6.4428671875 15.6254072265625  6.2421875 15.4247275390625  6.2421875 15.1771650390625  L 6.2421875 11.4277685546875  C 6.242220703125 11.3469853515625  6.262673828125 11.0143896484375  6.5745673828125 10.6973828125  C 6.9530830078125 10.3126748046875  7.5948662109375 10.1176064453125  8.482103515625 10.1176064453125  C 9.3559765625 10.1176064453125  9.990787109375 10.31534765625  10.368904296875 10.7053515625  C 10.6880693359375 11.03452734375  10.708638671875 11.381134765625  10.7080078125 11.47307421875  L 10.7080078125 15.162771484375  C 10.7080078125 15.410333984375  10.507328125 15.611013671875  10.259765625 15.611013671875  C 10.012203125 15.611013671875  9.8115234375 15.410333984375  9.8115234375 15.162771484375  L 9.8115234375 11.478353515625  C 9.8085517578125 11.4589794921875  9.78980859375 11.377017578125  9.6784287109375 11.2867548828125  C 9.552771484375 11.1849208984375  9.230236328125 11.0140908203125  8.4820869140625 11.0140908203125  C 7.6142900390625 11.0140908203125  7.3058994140625 11.232318359375  7.2135947265625 11.3261171875  C 7.1682724609375 11.3721865234375  7.1492470703125 11.4113828125  7.14126171875 11.4361357421875  C 7.1400498046875 11.43987109375  7.1392197265625 11.442958984375  7.1386552734375 11.44525  L 7.1386552734375 15.1771650390625  Z M 6.9560546875 11.0068359375  L 6.806640625 12.052734375  L 6.6572265625 15.47265625  L 2.7060546875 15.2568359375  L 2.423828125 11.0400390625  L 2.5068359375 8.2841796875  L 1.328125 7.90234375  L 8.4501953125 1.4443359375  L 15.47265625 7.5703125  L 14.7587890625 8.2509765625  L 14.4599609375 14.3935546875  L 14.177734375 15.33984375  L 10.458984375 15.47265625  L 10.392578125 12.9990234375  L 10.16015625 11.3388671875  L 9.6953125 10.95703125  L 8.7822265625 10.8076171875  L 7.6533203125 10.9072265625  L 6.9560546875 11.0068359375  Z " fill-rule="nonzero" fill="#006eff" stroke="none" />
  </g>
</svg>