<?xml version="1.0" encoding="utf-8"?>
<svg version="1.1" xmlns:xlink="http://www.w3.org/1999/xlink" width="375px" height="73px" xmlns="http://www.w3.org/2000/svg">
  <g transform="matrix(1 0 0 1 0 -227 )">
    <path d="M 0.5 287.588285812436  C 0.5 287.588285812436  0.5 227.5  0.5 227.5  C 0.5 227.5  374.5 227.5  374.5 227.5  C 374.5 227.5  374.5 287.588285812436  374.5 287.588285812436  C 374.5 287.588285812436  263.448671860816 287.588285812436  263.448671860816 287.588285812436  C 263.448671860816 287.588285812436  253.494958987184 298.946358891545  253.494958987184 298.946358891545  C 253.494958987184 298.946358891545  223.83271497702 287.588285812436  223.83271497702 287.588285812436  C 223.83271497702 287.588285812436  0.5 287.588285812436  0.5 287.588285812436  Z " fill-rule="nonzero" fill="#ffffff" stroke="none" />
    <path d="M 0 288.088285812436  C 0 288.088285812436  0 227  0 227  C 0 227  375 227  375 227  C 375 227  375 288.088285812436  375 288.088285812436  C 375 288.088285812436  263.675324675325 288.088285812436  263.675324675325 288.088285812436  C 263.675324675325 288.088285812436  253.641434262948 299.537848605578  253.641434262948 299.537848605578  C 253.641434262948 299.537848605578  223.74025974026 288.088285812436  223.74025974026 288.088285812436  C 223.74025974026 288.088285812436  0 288.088285812436  0 288.088285812436  Z M 1 287.088285812436  C 1 287.088285812436  223.925170213775 287.088285812436  223.925170213775 287.088285812436  C 223.925170213775 287.088285812436  253.34848371142 298.354869177513  253.34848371142 298.354869177513  C 253.34848371142 298.354869177513  263.222019046307 287.088285812436  263.222019046307 287.088285812436  C 263.222019046307 287.088285812436  374 287.088285812436  374 287.088285812436  C 374 287.088285812436  374 228  374 228  C 374 228  1 228  1 228  C 1 228  1 287.088285812436  1 287.088285812436  Z " fill-rule="nonzero" fill="#d7d7d7" stroke="none" />
  </g>
</svg>