<?xml version="1.0" encoding="utf-8"?>
<svg version="1.1" xmlns:xlink="http://www.w3.org/1999/xlink" width="15px" height="15px" viewBox="30 52  15 15" xmlns="http://www.w3.org/2000/svg">
  <path d="M 37.5 52  C 41.7 52  45 55.3  45 59.5  C 45 63.7  41.7 67  37.5 67  C 33.3 67  30 63.7  30 59.5  C 30 55.3  33.3 52  37.5 52  Z " fill-rule="nonzero" fill="#ffffff" stroke="none" />
  <path d="M 37.5 52.5  C 41.42 52.5  44.5 55.58  44.5 59.5  C 44.5 63.42  41.42 66.5  37.5 66.5  C 33.58 66.5  30.5 63.42  30.5 59.5  C 30.5 55.58  33.58 52.5  37.5 52.5  Z " stroke-width="1" stroke="#4284f5" fill="none" />
  <path d="M 37.5 63.25  C 35.4 63.25  33.75 61.6  33.75 59.5  C 33.75 57.4  35.4 55.75  37.5 55.75  C 39.6 55.75  41.25 57.4  41.25 59.5  C 41.25 61.6  39.6 63.25  37.5 63.25  " fill-rule="nonzero" fill="#4284f5" stroke="none" />
</svg>