<?xml version="1.0" encoding="utf-8"?>
<svg version="1.1" xmlns:xlink="http://www.w3.org/1999/xlink" width="15px" height="15px" viewBox="115 209  15 15" xmlns="http://www.w3.org/2000/svg">
  <path d="M 122.5 209  C 126.7 209  130 212.3  130 216.5  C 130 220.7  126.7 224  122.5 224  C 118.3 224  115 220.7  115 216.5  C 115 212.3  118.3 209  122.5 209  Z " fill-rule="nonzero" fill="#ffffff" stroke="none" />
  <path d="M 122.5 209.5  C 126.42 209.5  129.5 212.58  129.5 216.5  C 129.5 220.42  126.42 223.5  122.5 223.5  C 118.58 223.5  115.5 220.42  115.5 216.5  C 115.5 212.58  118.58 209.5  122.5 209.5  Z " stroke-width="1" stroke="#4284f5" fill="none" />
  <path d="M 122.5 220.25  C 120.4 220.25  118.75 218.6  118.75 216.5  C 118.75 214.4  120.4 212.75  122.5 212.75  C 124.6 212.75  126.25 214.4  126.25 216.5  C 126.25 218.6  124.6 220.25  122.5 220.25  " fill-rule="nonzero" fill="#4284f5" stroke="none" />
</svg>