<?xml version="1.0" encoding="utf-8"?>
<svg version="1.1" xmlns:xlink="http://www.w3.org/1999/xlink" width="15px" height="15px" viewBox="30 132  15 15" xmlns="http://www.w3.org/2000/svg">
  <path d="M 37.5 132  C 41.7 132  45 135.3  45 139.5  C 45 143.7  41.7 147  37.5 147  C 33.3 147  30 143.7  30 139.5  C 30 135.3  33.3 132  37.5 132  Z " fill-rule="nonzero" fill="#ffffff" stroke="none" />
  <path d="M 37.5 132.5  C 41.42 132.5  44.5 135.58  44.5 139.5  C 44.5 143.42  41.42 146.5  37.5 146.5  C 33.58 146.5  30.5 143.42  30.5 139.5  C 30.5 135.58  33.58 132.5  37.5 132.5  Z " stroke-width="1" stroke="#4284f5" fill="none" />
  <path d="M 37.5 143.25  C 35.4 143.25  33.75 141.6  33.75 139.5  C 33.75 137.4  35.4 135.75  37.5 135.75  C 39.6 135.75  41.25 137.4  41.25 139.5  C 41.25 141.6  39.6 143.25  37.5 143.25  " fill-rule="nonzero" fill="#4284f5" stroke="none" />
</svg>