<?xml version="1.0" encoding="utf-8"?>
<svg version="1.1" xmlns:xlink="http://www.w3.org/1999/xlink" width="15px" height="15px" viewBox="30 209  15 15" xmlns="http://www.w3.org/2000/svg">
  <path d="M 37.5 209  C 41.7 209  45 212.3  45 216.5  C 45 220.7  41.7 224  37.5 224  C 33.3 224  30 220.7  30 216.5  C 30 212.3  33.3 209  37.5 209  Z " fill-rule="nonzero" fill="#ffffff" stroke="none" />
  <path d="M 37.5 209.5  C 41.42 209.5  44.5 212.58  44.5 216.5  C 44.5 220.42  41.42 223.5  37.5 223.5  C 33.58 223.5  30.5 220.42  30.5 216.5  C 30.5 212.58  33.58 209.5  37.5 209.5  Z " stroke-width="1" stroke="#4284f5" fill="none" />
  <path d="M 37.5 220.25  C 35.4 220.25  33.75 218.6  33.75 216.5  C 33.75 214.4  35.4 212.75  37.5 212.75  C 39.6 212.75  41.25 214.4  41.25 216.5  C 41.25 218.6  39.6 220.25  37.5 220.25  " fill-rule="nonzero" fill="#4284f5" stroke="none" />
</svg>