<?xml version="1.0" encoding="utf-8"?>
<svg version="1.1" xmlns:xlink="http://www.w3.org/1999/xlink" width="20px" height="16px" xmlns="http://www.w3.org/2000/svg">
  <g transform="matrix(1 0 0 1 -339 -19 )">
    <path d="M 15.0520833333333 0.607142857142858  L 19.1145833333333 3.39285714285714  C 19.3576388888889 3.55952380952381  19.5659722222222 3.78571428571429  19.7395833333333 4.07142857142857  C 19.9131944444444 4.35714285714286  20 4.61904761904762  20 4.85714285714286  L 20 15.1428571428571  C 20 15.3809523809524  19.8784722222222 15.5833333333333  19.6354166666667 15.75  C 19.3923611111111 15.9166666666667  19.0972222222222 16  18.75 16  L 1.25 16  C 0.902777777777778 16  0.607638888888889 15.9166666666667  0.364583333333333 15.75  C 0.121527777777778 15.5833333333333  0 15.3809523809524  0 15.1428571428571  L 0 0.857142857142858  C 0 0.619047619047619  0.121527777777778 0.416666666666666  0.364583333333333 0.25  C 0.607638888888889 0.0833333333333339  0.902777777777778 0  1.25 0  L 12.9166666666667 0  C 13.2638888888889 0  13.6458333333333 0.0595238095238102  14.0625 0.178571428571429  C 14.4791666666667 0.297619047619047  14.8090277777778 0.44047619047619  15.0520833333333 0.607142857142858  Z M 13.8671875 1.41071428571429  C 13.7630208333333 1.33928571428571  13.5850694444444 1.27380952380952  13.3333333333333 1.21428571428571  L 13.3333333333333 4.57142857142857  L 18.2291666666667 4.57142857142857  C 18.1423611111111 4.39880952380952  18.046875 4.27678571428571  17.9427083333333 4.20535714285714  L 13.8671875 1.41071428571429  Z M 2 14.8571428571429  L 18.3333333333333 14.8571428571429  L 18.3333333333333 5.71428571428571  L 12.9166666666667 5.71428571428571  C 12.5694444444444 5.71428571428571  12.2743055555556 5.63095238095238  12.03125 5.46428571428571  C 11.7881944444444 5.29761904761905  11.6666666666667 5.09523809523809  11.6666666666667 4.85714285714286  L 11.6666666666667 1.14285714285714  L 2 1.14285714285714  L 2 14.8571428571429  Z M 5 6.85714285714286  L 10 6.85714285714286  C 10.4513888888889 6.85714285714286  10.8420138888889 6.9702380952381  11.171875 7.19642857142857  C 11.5017361111111 7.42261904761905  11.6666666666667 7.69047619047619  11.6666666666667 8  L 11.6666666666667 11.4285714285714  C 11.6666666666667 11.7380952380952  11.5017361111111 12.0059523809524  11.171875 12.2321428571429  C 10.8420138888889 12.4583333333333  10.4513888888889 12.5714285714286  10 12.5714285714286  L 5 12.5714285714286  C 4.54861111111111 12.5714285714286  4.15798611111111 12.4583333333333  3.828125 12.2321428571429  C 3.49826388888889 12.0059523809524  3.33333333333333 11.7380952380952  3.33333333333333 11.4285714285714  L 3.33333333333333 8  C 3.33333333333333 7.69047619047619  3.49826388888889 7.42261904761905  3.828125 7.19642857142857  C 4.15798611111111 6.9702380952381  4.54861111111111 6.85714285714286  5 6.85714285714286  Z M 16.25 6.85714285714286  C 16.2847222222222 6.85714285714286  16.3368055555556 6.86309523809524  16.40625 6.875  C 16.5798611111111 6.92261904761905  16.6666666666667 7.01190476190476  16.6666666666667 7.14285714285714  L 16.6666666666667 12.2857142857143  C 16.6666666666667 12.4166666666667  16.5798611111111 12.5059523809524  16.40625 12.5535714285714  C 16.3368055555556 12.5654761904762  16.2847222222222 12.5714285714286  16.25 12.5714285714286  C 16.1284722222222 12.5714285714286  16.0286458333333 12.5446428571429  15.9505208333333 12.4910714285714  L 12.5 10.1160714285714  L 12.5 9.3125  L 15.9505208333333 6.9375  C 16.0286458333333 6.88392857142857  16.1284722222222 6.85714285714286  16.25 6.85714285714286  Z " fill-rule="nonzero" fill="#555555" stroke="none" transform="matrix(1 0 0 1 339 19 )" />
  </g>
</svg>