<?xml version="1.0" encoding="utf-8"?>
<svg version="1.1" xmlns:xlink="http://www.w3.org/1999/xlink" width="15px" height="14px" xmlns="http://www.w3.org/2000/svg">
  <g transform="matrix(1 0 0 1 -453 -52 )">
    <path d="M 1.14690265486726 0  L 13.7543362831858 0  C 14.0715044247788 0  14.3405309734513 0.112  14.5614159292035 0.336  C 14.7823008849558 0.56  14.8927433628319 0.832820512820513  14.8927433628319 1.15446153846154  L 14.8927433628319 2.03323076923077  C 14.8927433628319 2.3548717948718  14.7823008849558 2.62769230769231  14.5614159292035 2.85169230769231  C 14.3405309734513 3.07569230769231  14.0715044247788 3.18769230769231  13.7543362831858 3.18769230769231  L 1.14690265486726 3.18769230769231  C 0.829734513274337 3.18769230769231  0.56070796460177 3.07569230769231  0.339823008849558 2.85169230769231  C 0.118938053097345 2.62769230769231  0.00849557522123895 2.35487179487179  0.00849557522123895 2.03323076923077  L 0.00849557522123895 1.15446153846154  C 0.00849557522123895 0.832820512820513  0.118938053097345 0.560000000000001  0.339823008849558 0.336  C 0.56070796460177 0.112000000000001  0.829734513274337 0  1.14690265486726 0  Z M 1.14690265486726 5.39323076923077  L 13.7543362831858 5.39323076923077  C 14.0715044247788 5.39323076923077  14.3405309734513 5.50523076923077  14.5614159292035 5.72923076923077  C 14.7823008849558 5.95323076923077  14.8927433628319 6.22605128205128  14.8927433628319 6.54769230769231  L 14.8927433628319 7.42646153846154  C 14.8927433628319 7.74810256410257  14.7823008849558 8.02092307692308  14.5614159292035 8.24492307692308  C 14.3405309734513 8.46892307692308  14.0715044247788 8.58092307692308  13.7543362831858 8.58092307692308  L 1.14690265486726 8.58092307692308  C 0.829734513274337 8.58092307692308  0.56070796460177 8.46892307692308  0.339823008849558 8.24492307692308  C 0.118938053097345 8.02092307692308  0.00849557522123895 7.74810256410257  0.00849557522123895 7.42646153846154  L 0.00849557522123895 6.54769230769231  C 0.00849557522123895 6.22605128205128  0.118938053097345 5.95323076923077  0.339823008849558 5.72923076923077  C 0.56070796460177 5.50523076923077  0.829734513274337 5.39323076923077  1.14690265486726 5.39323076923077  Z M 1.14690265486726 10.7864615384615  L 13.7543362831858 10.7864615384615  C 14.0715044247788 10.7864615384615  14.3405309734513 10.8984615384615  14.5614159292035 11.1224615384615  C 14.7823008849558 11.3464615384615  14.8927433628319 11.6192820512821  14.8927433628319 11.9409230769231  L 14.8927433628319 12.8196923076923  C 14.8927433628319 13.1413333333333  14.7823008849558 13.4141538461538  14.5614159292035 13.6381538461538  C 14.3405309734513 13.8621538461538  14.0715044247788 13.9741538461538  13.7543362831858 14  L 1.14690265486726 14  C 0.829734513274337 13.9741538461538  0.56070796460177 13.8621538461538  0.339823008849558 13.6381538461538  C 0.118938053097345 13.4141538461538  0.00849557522123895 13.1413333333333  0.00849557522123895 12.8196923076923  L 0.00849557522123895 11.9409230769231  C 0.00849557522123895 11.6192820512821  0.118938053097345 11.3464615384615  0.339823008849558 11.1224615384615  C 0.56070796460177 10.8984615384615  0.829734513274337 10.7864615384615  1.14690265486726 10.7864615384615  Z " fill-rule="nonzero" fill="#d7d7d7" stroke="none" transform="matrix(1 0 0 1 453 52 )" />
  </g>
</svg>