<?xml version="1.0" encoding="utf-8"?>
<svg version="1.1" xmlns:xlink="http://www.w3.org/1999/xlink" width="23px" height="23px" xmlns="http://www.w3.org/2000/svg">
  <g transform="matrix(1 0 0 1 -34 -79 )">
    <path d="M 13.0625 6.8125  C 13.0625 5.953125  12.359375 5.25  11.5 5.25  C 10.640625 5.25  9.9375 5.953125  9.9375 6.8125  L 9.9375 11.5  C 9.9375 12.359375  10.640625 13.0625  11.5 13.0625  C 12.359375 13.0625  13.0625 12.359375  13.0625 11.5  L 13.0625 6.8125  Z M 22.4375 11.5  C 22.4375 5.453125  17.53125 0.5625  11.5 0.5625  C 5.453125 0.5625  0.5625 5.453125  0.5625 11.5  C 0.5625 17.546875  5.453125 22.4375  11.5 22.4375  C 17.546875 22.4375  22.4375 17.546875  22.4375 11.5  Z M 20.875 11.5  C 20.875 16.671875  16.671875 20.875  11.5 20.875  C 6.328125 20.875  2.125 16.671875  2.125 11.5  C 2.125 6.328125  6.328125 2.125  11.5 2.125  C 16.671875 2.125  20.875 6.328125  20.875 11.5  Z M 13.0625 16.1875  C 13.0625 15.328125  12.359375 14.625  11.5 14.625  C 10.640625 14.625  9.9375 15.328125  9.9375 16.1875  C 9.9375 17.046875  10.640625 17.75  11.5 17.75  C 12.359375 17.75  13.0625 17.046875  13.0625 16.1875  Z " fill-rule="nonzero" fill="#ff9900" stroke="none" transform="matrix(1 0 0 1 34 79 )" />
  </g>
</svg>