<?xml version="1.0" encoding="utf-8"?>
<svg version="1.1" xmlns:xlink="http://www.w3.org/1999/xlink" width="12px" height="12px" xmlns="http://www.w3.org/2000/svg">
  <g transform="matrix(1 0 0 1 -88 -82 )">
    <path d="M 6 11.8333333333333  C 9.22166104067963 11.8333333333333  11.8333333333333 9.22166104067963  11.8333333333333 6  C 11.8333333333333 2.77833895932037  9.22166104067963 0.166666666666666  6 0.166666666666666  C 2.77833895932037 0.166666666666666  0.166666666666666 2.77833895932037  0.166666666666666 6  C 0.166666666666666 9.22166104067963  2.77833895932037 11.8333333333333  6 11.8333333333333  Z M 3.5 6.41666666666667  L 3.5 5.58333333333333  L 5.58333333333333 5.58333333333333  L 5.58333333333333 3.5  L 6.41666666666667 3.5  L 6.41666666666667 5.58333333333333  L 8.5 5.58333333333333  L 8.5 6.41666666666667  L 6.41666666666667 6.41666666666667  L 6.41666666666667 8.5  L 5.58333333333333 8.5  L 5.58333333333333 6.41666666666667  L 3.5 6.41666666666667  Z " fill-rule="nonzero" fill="#ffffff" stroke="none" transform="matrix(1 0 0 1 88 82 )" />
  </g>
</svg>