<?xml version="1.0" encoding="utf-8"?>
<svg version="1.1" xmlns:xlink="http://www.w3.org/1999/xlink" width="14px" height="14px" xmlns="http://www.w3.org/2000/svg">
  <g transform="matrix(1 0 0 1 -1167 -806 )">
    <path d="M 5.059875 9.91109375  L 2.70765625 7.558890625  L 8.195421875 2.071125  L 10.547625 4.42334375  L 5.059875 9.91109375  Z M 11.3296875 3.6375  L 12.115625 2.8546875  C 12.5515625 2.41875  12.5515625 1.721875  12.115625 1.2859375  L 11.33125 0.5015625  C 10.8953125 0.0656249999999998  10.1984375 0.0656249999999998  9.7625 0.5015625  L 8.978125 1.2859375  L 11.3296875 3.6375  Z M 3.403125 11.0421875  C 3.665625 11.04375  3.9265625 10.95625  4.1875 10.78125  L 4.275 10.78125  L 1.8359375 8.3421875  L 1.8359375 8.4296875  C 1.6609375 8.690625  1.575 8.953125  1.575 9.2140625  L 0.703125 11.9140625  L 3.403125 11.0421875  Z M 13.9390625 13.209375  C 13.9390625 12.890625  13.6796875 12.6328125  13.3625 12.6328125  L 0.6265625 12.6328125  C 0.3078125 12.6328125  0.0499999999999998 12.890625  0.0499999999999998 13.209375  C 0.0499999999999998 13.528125  0.3078125 13.7859375  0.6265625 13.7859375  L 13.3625 13.7859375  C 13.68125 13.7859375  13.9390625 13.528125  13.9390625 13.209375  Z " fill-rule="nonzero" fill="#ffffff" stroke="none" transform="matrix(1 0 0 1 1167 806 )" />
  </g>
</svg>