<?xml version="1.0" encoding="utf-8"?>
<svg version="1.1" xmlns:xlink="http://www.w3.org/1999/xlink" width="10px" height="10px" xmlns="http://www.w3.org/2000/svg">
  <g transform="matrix(1 0 0 1 -705 -12 )">
    <path d="M 3.38421052631579 1.23815789473684  C 3.88157894736842 1.02763157894737  4.40921052631579 0.921052631578947  4.95394736842105 0.921052631578947  C 5.49868421052632 0.921052631578947  6.02631578947368 1.02763157894737  6.52368421052632 1.23815789473684  C 7.00394736842105 1.44078947368421  7.43552631578947 1.73157894736842  7.80526315789474 2.10263157894737  C 8.17631578947369 2.47368421052632  8.46710526315789 2.90526315789474  8.66973684210526 3.38421052631579  C 8.88026315789474 3.88026315789474  8.98684210526316 4.40921052631579  8.98684210526316 4.95394736842105  C 8.98684210526316 5.49868421052632  8.88026315789474 6.02631578947369  8.66973684210526 6.52368421052632  C 8.4671052631579 7.00394736842105  8.17631578947369 7.43552631578947  7.80526315789474 7.80526315789474  C 7.43421052631579 8.17631578947369  7.00263157894737 8.46710526315789  6.52368421052632 8.66973684210526  C 6.02763157894737 8.88026315789474  5.49868421052632 8.98684210526316  4.95394736842105 8.98684210526316  C 4.40921052631579 8.98684210526316  3.88157894736842 8.88026315789474  3.38421052631579 8.66973684210526  C 2.90394736842105 8.4671052631579  2.47236842105263 8.17631578947369  2.10263157894737 7.80526315789474  C 1.73289473684211 7.43421052631579  1.44078947368421 7.00263157894737  1.23815789473684 6.52368421052632  C 1.02763157894737 6.02631578947368  0.921052631578947 5.49868421052632  0.921052631578947 4.95394736842105  C 0.921052631578947 4.40921052631579  1.02763157894737 3.88157894736842  1.23815789473684 3.38421052631579  C 1.44078947368421 2.90394736842105  1.73157894736842 2.47236842105263  2.10263157894737 2.10263157894737  C 2.47368421052632 1.73157894736842  2.90526315789474 1.44078947368421  3.38421052631579 1.23815789473684  Z M 9.90789473684211 4.95394736842105  C 9.90789473684211 2.21842105263158  7.68947368421053 0  4.95394736842105 0  C 2.21842105263158 0  0 2.21842105263158  0 4.95394736842105  C 0 7.68947368421053  2.21842105263158 9.90789473684211  4.95394736842105 9.90789473684211  C 7.68947368421053 9.90789473684211  9.90789473684211 7.68947368421053  9.90789473684211 4.95394736842105  Z " fill-rule="nonzero" fill="#ffffff" stroke="none" transform="matrix(1 0 0 1 705 12 )" />
  </g>
</svg>