<?xml version="1.0" encoding="utf-8"?>
<svg version="1.1" xmlns:xlink="http://www.w3.org/1999/xlink" width="11px" height="11px" xmlns="http://www.w3.org/2000/svg">
  <g transform="matrix(1 0 0 1 -707 -14 )">
    <path d="M 1.9429347826087 6.04282608695652  C 0.380217391304348 4.48010869565217  0.380217391304348 1.94652173913043  1.9429347826087 0.383804347826087  C 2.04815217391304 0.278586956521739  2.15815217391304 0.18054347826087  2.27173913043478 0.0896739130434783  C 1.82576086956522 0.252282608695652  1.40847826086957 0.511739130434783  1.05097826086957 0.869239130434782  C -0.260652173913043 2.18086956521739  -0.260652173913043 4.30913043478261  1.05097826086957 5.62076086956522  C 1.4479347826087 6.01771739130435  1.91902173913043 6.29391304347826  2.41880434782609 6.45054347826087  C 2.25260869565217 6.32978260869565  2.09358695652174 6.19347826086956  1.9429347826087 6.04282608695652  Z M 10.5982608695652 9.20413043478261  C 11.0071739130435 9.61423913043478  11.0071739130435 10.2838043478261  10.5970652173913 10.6927173913043  C 10.188152173913 11.1016304347826  9.51858695652174 11.1016304347826  9.10847826086957 10.6927173913043  L 6.10021739130435 7.68326086956522  C 5.69130434782609 7.27434782608696  5.69130434782609 6.60478260869565  6.10021739130435 6.19467391304348  C 6.50913043478261 5.78576086956522  7.17869565217391 5.78576086956522  7.58880434782609 6.19467391304348  L 10.5982608695652 9.20413043478261  Z " fill-rule="nonzero" fill="#ffffff" stroke="none" transform="matrix(1 0 0 1 707 14 )" />
  </g>
</svg>