<?xml version="1.0" encoding="utf-8"?>
<svg version="1.1" xmlns:xlink="http://www.w3.org/1999/xlink" width="10px" height="8px" xmlns="http://www.w3.org/2000/svg">
  <g transform="matrix(1 0 0 1 -16 -12 )">
    <path d="M 9.6648872858431 2.39745536519387  C 7.4699296663661 1.29342470694319  5.99668530207394 2.23617132551849  4.45275924256087 4.94391523895401  L 5.8282434625789 5.74794950405771  C 5.92676104598737 5.80533814247069  5.98649774571686 5.91141749323715  5.97340667267809 6.02331650135257  C 5.96906402164112 6.0595473399459  5.95782867448152 6.09504598737601  5.93963751127142 6.12617673579802  C 5.90511091073039 6.18751668169522  5.84546257889991 6.23425067628494  5.77106943192065 6.25245446348061  L 1.84518665464382 7.76887285843102  C 1.69647610459874 7.80685843101894  1.54002705139766 7.71524616771866  1.49762308385933 7.5666618575293  L 0.821633904418395 3.35901172227232  C 0.790616771866547 3.25009197475203  0.828539224526601 3.13420378719567  0.916705139765555 3.06776375112714  C 1.00575473399459 3.00080613165014  1.12583408476105 2.99945536519387  1.22456627592426 3.05736158701533  L 2.62595491433724 3.87609017132552  C 4.1994084761046 1.11782506762849  6.38926600541028 -0.688187556357079  9.66496302975654 2.09174030658251  L 9.66496302975654 2.39783408476105  Z " fill-rule="nonzero" fill="#409eff" stroke="none" transform="matrix(1 0 0 1 16 12 )" />
  </g>
</svg>