<?xml version="1.0" encoding="utf-8"?>
<svg version="1.1" xmlns:xlink="http://www.w3.org/1999/xlink" width="12px" height="12px" xmlns="http://www.w3.org/2000/svg">
  <g transform="matrix(1 0 0 1 -14 -12 )">
    <path d="M 9.8942091974752 11.3150009017133  L 1.92680793507665 11.3150009017133  C 0.949004508566276 11.3150009017133  0.15634445446348 10.522176735798  0.15634445446348 9.54447430117223  L 0.15634445446348 2.46241839495041  C 0.15634445446348 1.48462759242561  0.949029756537421 0.691967538322814  1.92680793507665 0.691967538322814  L 3.69733453561767 0.691967538322814  L 3.69733453561767 1.52188097385032  L 1.92680793507665 1.52188097385032  C 1.43745175834085 1.52188097385032  1.04150045085663 1.91829936880072  1.04150045085663 2.40718845807033  L 1.04150045085663 9.60001983769162  C 1.04150045085663 10.0892245266005  1.43750225428314 10.4853273219116  1.92680793507665 10.4853273219116  L 9.89425969341749 10.4853273219116  C 10.3827574391344 10.4853273219116  10.7795671776375 10.0893255184851  10.7795671776375 9.60001983769162  L 10.7795671776375 5.11830297565374  L 11.6648746618575 5.11830297565374  L 11.6648746618575 9.54460054102795  C 11.6648494138864 10.5223660955816  10.8719621280433 11.3150513976555  9.89415870153291 11.3150513976555  Z " fill-rule="nonzero" fill="#409eff" stroke="none" transform="matrix(1 0 0 1 14 12 )" />
  </g>
</svg>