<?xml version="1.0" encoding="utf-8"?>
<svg version="1.1" xmlns:xlink="http://www.w3.org/1999/xlink" width="22px" height="21px" xmlns="http://www.w3.org/2000/svg">
  <g transform="matrix(1 0 0 1 -1625 -47 )">
    <path d="M 4.17058823529412 2.71323529411764  C 3.67352941176471 3.14264705882352  3.79117647058824 3.92058823529411  4.03529411764706 4.52941176470588  C 4.14175898803034 4.79209893898088  4.19649453425892 5.07287394015593  4.19649453425892 5.35631585687664  C 4.19649453425892 6.45488235166885  3.386605746705 7.38531097425802  2.29852941176471 7.53676470588235  C 1.64705882352941 7.62941176470588  0.914705882352941 7.91764705882353  0.791176470588235 8.56323529411765  C 0.547409475637876 9.84290629872569  0.547409475637876 11.1570937012743  0.791176470588235 12.4367647058824  C 0.914705882352941 13.0838235294118  1.64705882352941 13.3705882352941  2.29705882352941 13.4632352941176  C 3.38576077681221 13.6140675858013  4.19641618647553 14.5447767932077  4.19641618647553 15.6438774816327  C 4.19641618647553 15.9272492134356  4.14170773916763 16.2079560218475  4.03529411764706 16.4705882352941  C 3.79117647058824 17.0794117647059  3.67352941176471 17.8573529411765  4.17058823529412 18.2867647058824  C 5.15602953060221 19.1407326255756  6.29489036724343 19.7994952479973  7.52647058823529 20.2279411764706  C 8.14705882352941 20.4426470588235  8.76176470588235 19.9514705882353  9.16617647058824 19.4338235294118  C 9.58360008846081 18.8982772506645  10.2246681544109 18.5851510031689  10.9036764705882 18.5851510031689  C 11.5826847867655 18.5851510031689  12.2237528527157 18.8982772506645  12.6411764705882 19.4338235294118  C 13.0455882352941 19.9514705882353  13.6602941176471 20.4426470588235  14.2794117647059 20.2279411764706  C 15.5115271079492 19.7996962819084  16.6509064462609 19.1409224200724  17.6367647058824 18.2867647058824  C 18.1338235294118 17.8573529411765  18.0161764705882 17.0794117647059  17.7720588235294 16.4705882352941  C 17.6655939531461 16.2079010610191  17.6108584069176 15.9271260598441  17.6108584069176 15.6436841431234  C 17.6108584069176 14.5451176483312  18.4207471944715 13.614689025742  19.5088235294118 13.4632352941176  C 20.1588235294118 13.3705882352941  20.8911764705882 13.0823529411765  21.0147058823529 12.4367647058824  C 21.2586139942903 11.1571070261844  21.2586139942903 9.84289297381556  21.0147058823529 8.56323529411764  C 20.8926470588235 7.91617647058823  20.1588235294118 7.62941176470588  19.5088235294118 7.53676470588235  C 18.4207471944715 7.38531097425802  17.6108584069176 6.45488235166884  17.6108584069176 5.35631585687663  C 17.6108584069176 5.07287394015592  17.6655939531461 4.79209893898087  17.7720588235294 4.52941176470588  C 18.0161764705882 3.92058823529411  18.1338235294118 3.14264705882353  17.6367647058824 2.71323529411764  C 16.6509273319877 1.85904826822943  15.5115420908107 1.20027099343589  14.2794117647059 0.772058823529407  C 13.6602941176471 0.557352941176466  13.0455882352941 1.0485294117647  12.6411764705882 1.56617647058823  C 12.2240835037209 2.10224595461887  11.5828944287718 2.41577187935426  10.9036764705882 2.41577187935426  C 10.2244585124047 2.41577187935426  9.58326943745553 2.10224595461887  9.16617647058824 1.56617647058823  C 8.76029411764706 1.0485294117647  8.14705882352941 0.557352941176466  7.52647058823529 0.772058823529408  C 6.29487539126629 1.2004720626912  5.15600866095164 1.85923809424919  4.17058823529412 2.71323529411764  Z M 5.30735294117647 17.3220588235294  L 5.30735294117647 17.3235294117647  C 5.32893490721483 17.2194579276523  5.35994520037065 17.1175669644261  5.4 17.0191176470588  C 5.5765012184869 16.5821180051587  5.66722796956245 16.1152268831576  5.66722796956245 15.6439293474668  C 5.66722796956245 13.8126665020283  4.31797945996328 12.2613132211463  2.50441176470588 12.0073529411765  C 2.39946006100798 11.9922261097816  2.29609583900925 11.9676155807343  2.19558823529412 11.9338235294118  C 2.04052766368437 10.9842295499284  2.04052766368437 10.0157704500716  2.19558823529412 9.06617647058823  C 2.29614305509868 9.03288346225401  2.39950637465946 9.0087653543565  2.50441176470588 8.99411764705882  C 4.31797945996328 8.74015736708894  5.66722796956245 7.18880408620702  5.66722796956245 5.3575412407685  C 5.66722796956245 4.88624370507773  5.5765012184869 4.41935258307658  5.4 3.98235294117647  C 5.35994520037064 3.88390362380918  5.32893490721484 3.78201266058295  5.30735294117647 3.67794117647058  C 6.05157480662412 3.06586773335363  6.89115079810919 2.5800065974528  7.79264705882353 2.23970588235294  C 7.87151599707083 2.30999523422165  7.94386926568907 2.38727049390236  8.00882352941176 2.47058823529411  C 8.70468250126829 3.36224787178945  9.77262535942296 3.88347852761074  10.9036764705882 3.88347852761074  C 12.0347275817535 3.88347852761074  13.1026704399082 3.36224787178945  13.7985294117647 2.47058823529411  C 13.8635140876357 2.38729649894358  13.935864891566 2.31002387161663  14.0147058823529 2.23970588235294  C 14.9161907285161 2.58003066927903  15.7557629507485 3.06588962392004  16.5 3.67794117647058  C 16.481375097091 3.78274510436116  16.4502714729834 3.88494272642874  16.4073529411765 3.98235294117647  C 16.2311677100392 4.41901202682717  16.1406079790816 4.88548130203554  16.1406079790816 5.3563447565021  C 16.1406079790816 7.18685807017741  17.4887818223865 8.73781686102843  19.3014705882353 8.99264705882353  C 19.4064222919332 9.0077738902184  19.5097865139319 9.03238441926572  19.6102941176471 9.06617647058823  C 19.7651472146993 10.0157872667858  19.7651472146993 10.9842127332142  19.6102941176471 11.9338235294118  C 19.5097392978425 11.967116537746  19.4063759782817 11.9912346456435  19.3014705882353 12.0058823529412  C 17.4885290076044 12.260462450341  16.1400461396419 13.8115347236838  16.1400461396419 15.642263595137  C 16.1400461396419 16.1136319423672  16.2308001512453 16.580591877939  16.4073529411765 17.0176470588235  C 16.4469140167411 17.1161425857713  16.4774319574718 17.2180331298239  16.4985294117647 17.3220588235294  C 15.7546934496599 17.9339063224406  14.915639296508 18.4197529546387  14.0147058823529 18.7602941176471  C 13.9358981267428 18.6899420868399  13.86355023975 18.6126725748815  13.7985294117647 18.5294117647059  C 13.1027026177654 17.6371946627996  12.0344120263741 17.1155789650914  10.9029411764706 17.1155789650914  C 9.77147032656708 17.1155789650914  8.70317973517574 17.6371946627996  8.00735294117647 18.5294117647059  C 7.94241705078268 18.6127452120718  7.87006228832178 18.6900220672171  7.79117647058823 18.7602941176471  C 6.89020884409088 18.4198250443481  6.05114341166017 17.9339718809868  5.30735294117647 17.3220588235294  Z M 15.3147058823529 10.5000000657404  C 15.3147058823529 12.936550432641  13.3394915433711 14.9117647716228  10.9029411764706 14.9117647716228  C 8.46639080957003 14.9117647716228  6.49117647058823 12.936550432641  6.49117647058823 10.5000000657404  C 6.49117650689566 8.06344965877267  8.46639083524326 6.08823535985806  10.9029411764706 6.08823535985806  C 13.3394915433711 6.08823535985806  15.3147058823529 8.06344969883986  15.3147058823529 10.5000000657404  Z M 13.8441176470588 10.5  C 13.8441176470588 8.87563308873296  12.5273080877376 7.55882352941176  10.9029411764706 7.55882352941176  C 9.27857426520355 7.55882352941176  7.96176470588235 8.87563308873296  7.96176470588235 10.5  C 7.96176470588235 12.124366911267  9.27857426520355 13.4411764705882  10.9029411764706 13.4411764705882  C 12.5273080877376 13.4411764705882  13.8441176470588 12.124366911267  13.8441176470588 10.5  Z " fill-rule="nonzero" fill="#007cfd" stroke="none" transform="matrix(1 0 0 1 1625 47 )" />
  </g>
</svg>