<?xml version="1.0" encoding="utf-8"?>
<svg version="1.1" xmlns:xlink="http://www.w3.org/1999/xlink" width="28px" height="34px" xmlns="http://www.w3.org/2000/svg">
  <g transform="matrix(1 0 0 1 -136 -142 )">
    <path d="M 27 30.0625  L 27 8.6875  L 18.75 1  L 4.5 1  C 2.5324855787278 0.375  0.9375 1.9699855787278  1 3.9375  L 1 30.0625  C 0.9375 32.0300144212722  2.5324855787278 33.625  4.5 33  L 23.5 33  C 25.4675144212722 33.625  27.0625 32.0300144212722  27 30.0625  Z M 4.5 31  C 3.84416185957593 31.25  3.3125 30.7183381404241  3.3125 30.0625  L 3.3125 3.9375  C 3.3125 3.28166185957593  3.84416185957593 2.75  4.5 3  L 16.375 3  L 16.375 7.5  C 16.375 9.4675144212722  17.9699855787278 11.0625  19.9375 11.0625  L 24.6875 11.0625  L 24.6875 30.0625  C 24.6875 30.7183381404241  24.1558381404241 31.25  23.5 31  L 4.5 31  Z M 18.75 3.73325  L 23.70425 8.6875  L 19.9375 8.6875  C 19.2816618595759 8.6875  18.75 8.15583814042407  18.75 7.5  L 18.75 3.73325  Z " fill-rule="nonzero" fill="#007cfd" stroke="none" transform="matrix(1 0 0 1 136 142 )" />
  </g>
</svg>