<?xml version="1.0" encoding="utf-8"?>
<svg version="1.1" xmlns:xlink="http://www.w3.org/1999/xlink" width="19px" height="14px" xmlns="http://www.w3.org/2000/svg">
  <g transform="matrix(1 0 0 1 -292 -148 )">
    <path d="M 11.3333302753906 2.70831882421875  L 1.25001376074218 2.70831882421875  C 0.743753584491522 2.70831882421875  0.333348623046874 2.2979138627741  0.333348623046874 1.79165368652344  C 0.333348623046874 1.28539351027277  0.743753584491522 0.874988548828124  1.25001376074218 0.874988548828124  C 1.25001376074218 0.874988548828124  1.25001376074218 0.874988548828124  1.25001376074219 1  L 11.3333302753906 1  C 11.3333302753906 0.874988548828124  11.3333302753906 0.874988548828124  11.3333302753906 0.874988548828124  C 11.8395904516413 0.874988548828124  12.2499954130859 1.28539351027277  12.2499954130859 1.79165368652344  C 12.2499954130859 2.2979138627741  11.8395904516413 2.70831882421875  11.3333302753906 2.70831882421875  Z M 17.7499862392578 8  L 1.25001376074218 8  C 1.25001376074218 8.20830965039062  1.25001376074218 8.20830965039062  1.25001376074218 8.20830965039062  C 0.743753584491522 8.20830965039062  0.333348623046874 7.79790468894597  0.333348623046874 7.29164451269531  C 0.333348623046874 6.78538433644465  0.743753584491522 6.374979375  1.25001376074218 6.374979375  L 17.7499862392578 6.374979375  C 18.2562464155085 6.374979375  18.6666513769531 6.78538433644465  18.6666513769531 7.29164451269531  C 18.6666513769531 7.79790468894597  18.2562464155085 8.20830965039062  17.7499862392578 8.20830965039062  C 17.7499862392578 8.20830965039062  17.7499862392578 8.20830965039062  17.7499862392578 8  Z M 7.66666972460938 13.7083004765625  L 1.25001376074218 13.7083004765625  C 0.743753584491522 13.7083004765625  0.333348623046874 13.2978955151179  0.333348623046874 12.7916353388672  C 0.333348623046874 12.2853751626165  0.743753584491522 11.8749702011719  1.25001376074218 11.8749702011719  L 7.66666972460937 11.8749702011719  C 8.17292990086004 11.8749702011719  8.58333486230469 12.2853751626165  8.58333486230469 12.7916353388672  C 8.58333486230469 13.2978955151179  8.17292990086004 13.7083004765625  7.66666972460937 13.7083004765625  Z " fill-rule="nonzero" fill="#007cfd" stroke="none" transform="matrix(1 0 0 1 292 148 )" />
  </g>
</svg>