<?xml version="1.0" encoding="utf-8"?>
<svg version="1.1" xmlns:xlink="http://www.w3.org/1999/xlink" width="32px" height="33px" xmlns="http://www.w3.org/2000/svg">
  <g transform="matrix(1 0 0 1 -286 -142 )">
    <path d="M 26.8657310615234 30.0656998769531  C 26.8458657019202 30.0508924949216  26.8266003463481 30.0352967334468  26.8079811582031 30.0189499628906  C 25.787555439928 30.76458897973  24.5564678172319 31.1664486093437  23.2926457609477 31.1664486093437  C 20.0019546064192 31.1664486093437  17.3343223498148 28.4988163527393  17.3343223498148 25.2081251982109  C 17.3343223498148 21.9174340436824  20.0019546064192 19.2498017870781  23.2926457609477 19.2498017870781  C 26.5833369154761 19.2498017870781  29.2509691720805 21.9174340436824  29.2509691720805 25.2081251982109  C 29.2509691720805 26.4662357534939  28.8527292736726 27.6920598536501  28.1133123037109 28.7099521435547  L 31.6268897861328 31.3490310761719  C 31.8576082358951 31.5222141105096  31.9933725904967 31.793878595742  31.9933725904967 32.0823631992187  C 31.9933725904967 32.5887753007892  31.5828444692462 32.9993034220396  31.0764323676758 32.9993034220396  C 30.8779083749385 32.9993034220396  30.6847464999114 32.9348732161176  30.5259749492188 32.8156953222656  L 26.8657310615234 30.0656998769531  Z M 30 1.83333027539062  L 30 15.5833073730469  L 28 15.5833073730469  L 28 2  L 3 2  L 3 31  L 14.5833348623047 31  L 14.5833348623047 33  L 2.66668804003906 33  C 1.65416768753773 32.9999449892578  0.833357764648437 32.1791350663685  1 31.1666147138672  L 1 1.83333027539062  C 0.833357764648437 0.820809922889294  1.65416768753773 0  2.66668804003906 0  L 28.3333119599609 0  C 29.3458323124623 0  30.1666422353516 0.820809922889294  30 1.83333027539062  Z M 19.167025152419 25.2082913188477  C 19.167025152419 27.4863197363814  21.0136252778882 29.3330830871374  23.2916536865234 29.3332844384766  C 25.5701890901883 29.3332844545898  27.4170114239034 27.4864621208748  27.4170114239034 25.2082913188477  C 27.4170114239034 22.9301205168205  25.5701890901883 21.0832981831055  23.2920182881612 21.0832981831055  C 21.0136252778882 21.0834995505579  19.167025152419 22.9302629013139  19.167025152419 25.2082913188477  Z " fill-rule="nonzero" fill="#007cfd" stroke="none" transform="matrix(1 0 0 1 286 142 )" />
  </g>
</svg>