<?xml version="1.0" encoding="utf-8"?>
<svg version="1.1" xmlns:xlink="http://www.w3.org/1999/xlink" width="14px" height="10px" xmlns="http://www.w3.org/2000/svg">
  <g transform="matrix(1 0 0 1 -442 -157 )">
    <path d="M 1.640625 0.40478515625  C 1.12451171875 0.40478515625  0.7041015625 0.8251953125  0.7041015625 1.3447265625  C 0.7041015625 1.8642578125  1.12451171875 2.28466796875  1.64404296875 2.28466796875  L 12.427734375 2.28466796875  C 12.947265625 2.28466796875  13.36767578125 1.8642578125  13.36767578125 1.3447265625  C 13.36767578125 0.8251953125  12.947265625 0.40478515625  12.427734375 0.40478515625  L 1.640625 0.40478515625  Z M 13.3642578125 9.048828125  C 13.3642578125 8.529296875  12.94384765625 8.10888671875  12.42431640625 8  L 1.640625 8  C 1.12109375 8.10888671875  0.70068359375 8.529296875  0.70068359375 9.048828125  C 0.70068359375 9.568359375  1.12109375 9.98876953125  1.640625 10  L 12.42431640625 10  C 12.94384765625 9.98876953125  13.3642578125 9.568359375  13.3642578125 9.048828125  Z " fill-rule="nonzero" fill="#007cfd" stroke="none" transform="matrix(1 0 0 1 442 157 )" />
  </g>
</svg>