<?xml version="1.0" encoding="utf-8"?>
<svg version="1.1" xmlns:xlink="http://www.w3.org/1999/xlink" width="33px" height="35px" xmlns="http://www.w3.org/2000/svg">
  <g transform="matrix(1 0 0 1 -436 -142 )">
    <path d="M 32 0.970703125  C 32.45849609375 0.43408203125  32.0244140625 0  31.48779296875 0  L 8.44384765625 0  C 7.9072265625 0  7.47314453125 0.43408203125  7.47314453125 0.970703125  L 7.47314453125 5.39013671875  L 1.51220703125 5.39013671875  C 0.9755859375 5.39013671875  0.54150390625 5.82421875  1 6.36083984375  L 1 34.02587890625  C 0.54150390625 34.5625  0.9755859375 34.99658203125  1.51220703125 35  L 24.55615234375 35  C 25.0927734375 34.99658203125  25.52685546875 34.5625  25.52685546875 34.02587890625  L 25.52685546875 29.6064453125  L 31.48779296875 29.6064453125  C 32.0244140625 29.6064453125  32.45849609375 29.17236328125  32 28.6357421875  L 32 0.970703125  Z M 23 7.27001953125  L 23 33  L 3 33  L 3 7.27001953125  L 23 7.27001953125  Z M 30 2  L 30 27.72998046875  L 25 27.72998046875  L 25 6.3642578125  C 25.52685546875 5.82763671875  25.0927734375 5.3935546875  24.55615234375 6  L 9.349609375 6  L 9.349609375 2  L 30 2  Z " fill-rule="nonzero" fill="#007cfd" stroke="none" transform="matrix(1 0 0 1 436 142 )" />
  </g>
</svg>