<?xml version="1.0" encoding="utf-8"?>
<svg version="1.1" xmlns:xlink="http://www.w3.org/1999/xlink" width="16px" height="16px" xmlns="http://www.w3.org/2000/svg">
  <g transform="matrix(1 0 0 1 -45 -51 )">
    <path d="M 10.8153220316706 2.93749949945281  C 10.8153220316706 1.38485388750899  9.55714533561585 0.125926325391516  8.0045 0.125  C 8.00204431005487 0.124993567523493  7.99958861273773 0.1249903512811  7.99713291436795 0.1249903512811  C 6.44383205546884 0.1249903512811  5.18463291436795 1.38418949238199  5.18463291436795 2.9374903512811  C 5.18463291436795 4.27506697646829  6.1266703185518 5.42759821157548  7.4375 5.69375  L 7.4375 7.4375  L 3.5 7.4375  C 2.87867965644036 7.4375  2.375 7.94117965644036  2.375 8.5625  L 2.375 10.3085  C 1.22138628742481 10.571064707553  0.402875 11.5968035945177  0.402875 12.7799201667513  C 0.402875 14.1797549007912  1.53766526596013 15.3145451667513  2.9375 15.3145451667513  C 4.33733473403988 15.3145451667513  5.472125 14.1797549007912  5.472125 12.7799201667513  C 5.472125 11.5968035945177  4.65361371257519 10.571064707553  3.5 10.3085  L 3.5 8.5625  L 12.5 8.5625  L 12.5 10.3085  C 11.3463862874248 10.571064707553  10.527875 11.5968035945177  10.527875 12.7799201667513  C 10.527875 14.1797549007912  11.6626652659601 15.3145451667513  13.0625 15.3145451667513  C 14.4623347340399 15.3145451667513  15.597125 14.1797549007912  15.597125 12.7799201667513  C 15.597125 11.5968035945177  14.7786137125752 10.571064707553  13.625 10.3085  L 13.625 8.5625  C 13.625 7.94117965644036  13.1213203435596 7.4375  12.5 7.4375  L 8.5625 7.4375  L 8.5625 5.69375  C 9.87330840212696 5.42758022217106  10.8153220316706 4.27505885055321  10.8153220316706 2.93749949945281  Z " fill-rule="nonzero" fill="#555555" stroke="none" transform="matrix(1 0 0 1 45 51 )" />
  </g>
</svg>