<?xml version="1.0" encoding="utf-8"?>
<svg version="1.1" xmlns:xlink="http://www.w3.org/1999/xlink" width="12px" height="12px" xmlns="http://www.w3.org/2000/svg">
  <g transform="matrix(1 0 0 1 -804 -57 )">
    <path d="M 1.24038461538462 6  C 1.29987980769231 6  1.34720552884615 5.95267427884615  1.34855769230769 5.89453125  C 1.36207932692308 5.30363581730769  1.48377403846154 4.73031850961538  1.71228966346154 4.19080528846154  C 1.94621394230769 3.63641826923077  2.28155048076923 3.14017427884615  2.70883413461539 2.71153846153846  C 3.13611778846154 2.28290264423077  3.63371394230769 1.94756610576923  4.18810096153846 1.71364182692308  C 4.76141826923077 1.47160456730769  5.36989182692308 1.34855769230769  5.99864783653846 1.34855769230769  C 6.62740384615385 1.34855769230769  7.23587740384615 1.47160456730769  7.80784254807692 1.71364182692308  C 8.36087740384615 1.94756610576923  8.85847355769231 2.28290264423077  9.28575721153846 2.71153846153846  C 9.41962139423077 2.84540264423077  9.54537259615385 2.98737980769231  9.66165865384615 3.13611778846154  L 8.84765625 3.77163461538462  C 8.77599158653846 3.82707331730769  8.80033052884615 3.94065504807692  8.88822115384615 3.96228966346154  L 11.2639723557692 4.54371995192308  C 11.3315805288462 4.55994591346154  11.3978365384615 4.50856370192308  11.3978365384615 4.43960336538462  L 11.4086538461538 1.99353966346154  C 11.4086538461538 1.90294471153846  11.3045372596154 1.8515625  11.2342247596154 1.90835336538462  L 10.4716045673077 2.50465745192308  C 9.43179086538462 1.17412860576923  7.81460336538462 0.320913461538462  5.99729567307692 0.320913461538462  C 2.89948918269231 0.320913461538462  0.379056490384615 2.80348557692308  0.320886418269231 5.88912259615385  C 0.319561298076923 5.94996995192308  0.368239182692308 6  0.429086538461538 6  L 1.24038461538462 6  Z M 11.6791135817308 6.11087740384616  C 11.6804387019231 6.05003004807692  11.6317608173077 6  11.5709134615385 6  L 10.7596153846154 6  C 10.7001201923077 6  10.6527944711538 6.04732572115385  10.6514423076923 6.10546875  C 10.6379206730769 6.69636418269231  10.5162259615385 7.26968149038462  10.2877103365385 7.80919471153846  C 10.0537860576923 8.36358173076923  9.71844951923077 8.86117788461538  9.29116586538462 9.28846153846154  C 8.86388221153846 9.71574519230769  8.36628605769231 10.0524338942308  7.81189903846154 10.2863581730769  C 7.23858173076923 10.5283954326923  6.63010817307692 10.6514423076923  6.00135216346154 10.6514423076923  C 5.37259615384615 10.6514423076923  4.76412259615385 10.5283954326923  4.19080528846154 10.2863581730769  C 3.63777043269231 10.0524338942308  3.14017427884615 9.71709735576923  2.712890625 9.28846153846154  C 2.57902644230769 9.15459735576923  2.45327524038462 9.01262019230769  2.33698918269231 8.86388221153846  L 3.15099158653846 8.22836538461539  C 3.22265625 8.17292668269231  3.19831730769231 8.05934495192308  3.11042668269231 8.03771033653846  L 0.734675480769231 7.45628004807692  C 0.667067307692308 7.44005408653846  0.600811298076923 7.49143629807693  0.600811298076923 7.56039663461539  L 0.591346153846154 10.0078125  C 0.591346153846154 10.0984074519231  0.695462740384616 10.1497896634615  0.765775240384616 10.0929987980769  L 1.52839543269231 9.49669471153846  C 2.56820913461538 10.8258713942308  4.18539663461538 11.6790865384615  6.00270432692308 11.6790865384615  C 9.10186298076923 11.6790865384615  11.6209435096154 9.19516225961539  11.6791135817308 6.11087740384616  Z " fill-rule="nonzero" fill="#7abbff" stroke="none" transform="matrix(1 0 0 1 804 57 )" />
  </g>
</svg>