<?xml version="1.0" encoding="utf-8"?>
<svg version="1.1" xmlns:xlink="http://www.w3.org/1999/xlink" width="18px" height="18px" xmlns="http://www.w3.org/2000/svg">
  <g transform="matrix(1 0 0 1 -285 -163 )">
    <path d="M 9.5625 3.9375  C 9.5625 4.275  9.33749999999998 4.5  9 4.5  C 8.66250000000002 4.5  8.4375 4.275  8.4375 3.9375  L 8.4375 0.5625  C 8.4375 0.28125  8.66250000000002 0  9 0  C 9.28125 0  9.5625 0.225000000000001  9.5625 0.5625  L 9.5625 3.9375  Z M 9.5625 17.4375  C 9.5625 17.775  9.33749999999998 18  9 18  C 8.66250000000002 18  8.4375 17.775  8.4375 17.4375  L 8.4375 14.0625  C 8.4375 13.78125  8.66250000000002 13.5  9 13.5  C 9.28125 13.5  9.5625 13.725  9.5625 14.0625  L 9.5625 17.4375  Z M 12.0375 4.89375  C 11.86875 5.175  11.53125 5.23125  11.25 5.11875  C 10.96875 4.95  10.9125 4.6125  11.025 4.33125  L 12.7125 1.40625  C 12.88125 1.125  13.21875 1.06875  13.5 1.18125  C 13.78125 1.35  13.8375 1.6875  13.725 1.96875  L 12.0375 4.89375  Z M 5.28750000000002 16.59375  C 5.11874999999998 16.875  4.78125 16.93125  4.5 16.81875  C 4.21875 16.65  4.16250000000002 16.3125  4.27499999999998 16.03125  L 5.96249999999998 13.10625  C 6.13125000000002 12.825  6.46875 12.76875  6.75 12.88125  C 7.03125 13.05  7.08749999999998 13.3875  6.97500000000002 13.66875  L 5.28750000000002 16.59375  Z M 17.4375 8.4375  C 17.775 8.4375  18 8.6625  18 9  C 18 9.3375  17.775 9.5625  17.4375 9.5625  L 14.0625 9.5625  C 13.78125 9.5625  13.5 9.3375  13.5 9  C 13.5 8.71875  13.725 8.4375  14.0625 8.4375  L 17.4375 8.4375  Z M 3.9375 8.4375  C 4.27499999999998 8.4375  4.5 8.6625  4.5 9  C 4.5 9.3375  4.27499999999998 9.5625  3.9375 9.5625  L 0.5625 9.5625  C 0.28125 9.5625  0 9.3375  0 9  C 0 8.71875  0.225000000000023 8.4375  0.5625 8.4375  L 3.9375 8.4375  Z M 1.96875 13.725  C 1.6875 13.8375  1.35000000000002 13.78125  1.18124999999998 13.5  C 1.01249999999999 13.21875  1.125 12.88125  1.40625 12.7125  L 4.33125000000001 11.025  C 4.61250000000001 10.85625  4.94999999999999 10.96875  5.11874999999998 11.25  C 5.28750000000002 11.53125  5.17500000000001 11.86875  4.89375000000001 12.0375  L 1.96875 13.725  Z M 13.66875 6.975  C 13.3875 7.0875  13.05 7.03125  12.88125 6.75  C 12.7125 6.46875  12.825 6.13125  13.10625 5.9625  L 16.03125 4.275  C 16.3125 4.1625  16.65 4.21875  16.81875 4.5  C 16.9875 4.78125  16.875 5.11875  16.59375 5.2875  L 13.66875 6.975  Z M 16.59375 12.7125  C 16.875 12.88125  16.93125 13.21875  16.81875 13.5  C 16.65 13.78125  16.3125 13.8375  16.03125 13.725  L 13.10625 12.0375  C 12.825 11.86875  12.76875 11.53125  12.88125 11.25  C 13.05 10.96875  13.3875 10.9125  13.66875 11.025  L 16.59375 12.7125  Z M 4.89375000000001 5.9625  C 5.17500000000001 6.13125  5.23124999999999 6.46875  5.11874999999998 6.75  C 4.94999999999999 7.03125  4.61250000000001 7.0875  4.33125000000001 6.975  L 1.40625 5.2875  C 1.125 5.11875  1.06875000000002 4.78125  1.18124999999998 4.5  C 1.35000000000002 4.21875  1.6875 4.1625  1.96875 4.275  L 4.89375000000001 5.9625  Z M 13.78125 15.91875  C 14.00625 16.2  13.89375 16.5375  13.6125 16.70625  C 13.33125 16.875  12.99375 16.7625  12.825 16.5375  L 11.08125 13.66875  C 10.9125 13.3875  11.025 13.05  11.25 12.88125  C 11.53125 12.7125  11.86875 12.825  12.0375 13.05  L 13.78125 15.91875  Z M 6.86250000000001 4.33125  C 7.03125 4.6125  6.97500000000002 5.00625  6.69375000000002 5.11875  C 6.41250000000002 5.2875  6.07499999999999 5.175  5.90625 4.95  L 4.16250000000002 2.08125  C 3.99374999999998 1.8  4.10624999999999 1.4625  4.38749999999999 1.29375  C 4.61250000000001 1.125  5.00625000000002 1.2375  5.11874999999998 1.4625  L 6.86250000000001 4.33125  Z " fill-rule="nonzero" fill="#188cea" stroke="none" transform="matrix(1 0 0 1 285 163 )" />
  </g>
</svg>