<?xml version="1.0" encoding="utf-8"?>
<svg version="1.1" xmlns:xlink="http://www.w3.org/1999/xlink" width="17px" height="13px" xmlns="http://www.w3.org/2000/svg">
  <g transform="matrix(1 0 0 1 -197 -541 )">
    <path d="M 15.9355908203125 6.216640625  C 15.314775390625 5.539091796875  14.5466003417969 5.1669921875  13.6314392089844 5.100341796875  C 13.39181640625 3.8562646484375  12.7924792480469 2.8287060546875  11.8338012695313 2.017666015625  C 10.8751232910156 1.20681640625  9.76385620117187 0.8013916015625  8.5 0.8013916015625  C 7.51947021484375 0.8013916015625  6.60972534179688 1.062470703125  5.77076538085938 1.5844384765625  C 4.93180541992187 2.10640625  4.29455444335937 2.8009033203125  3.85882568359375 3.66716796875  C 2.81292724609375 3.80046875  1.93045043945313 4.267021484375  1.21139526367188 5.066826171875  C 0.492340087890625 5.866630859375  0.1328125 6.8220166015625  0.1328125 7.93279296875  C 0.1328125 8.6882275390625  0.3180859375 9.3935791015625  0.688446044921875 10.0490380859375  C 1.05899291992188 10.7044970703125  1.56550659179688 11.22646484375  2.20836059570312 11.615322265625  C 2.85121459960938 12.0041796875  3.55383422851563 12.19841796875  4.31659301757812 12.19841796875  L 13.3701513671875 12.19841796875  C 14.0019860839844 12.19841796875  14.5848876953125 12.037314453125  15.1188562011719 11.715107421875  C 15.6526379394531 11.392900390625  16.0775341796875 10.9596728515625  16.393544921875 10.4154248046875  C 16.7091821289062 9.8713671875  16.8671875 9.2770361328125  16.8671875 8.6328125  C 16.8671875 7.69970703125  16.5565930175781 6.8943798828125  15.9355908203125 6.216640625  Z M 11.9972229003906 7.1998291015625  L 9.90542602539063 7.1998291015625  L 9.90542602539063 10.0657958984375  L 7.09457397460938 10.0657958984375  L 7.09457397460938 7.1998291015625  L 5.00277709960938 7.1998291015625  L 8.5 3.6673583984375  L 11.9972229003906 7.1998291015625  Z " fill-rule="nonzero" fill="#666666" stroke="none" transform="matrix(1 0 0 1 197 541 )" />
  </g>
</svg>