<?xml version="1.0" encoding="utf-8"?>
<svg version="1.1" xmlns:xlink="http://www.w3.org/1999/xlink" width="16px" height="14px" xmlns="http://www.w3.org/2000/svg">
  <g transform="matrix(1 0 0 1 -134 -541 )">
    <path d="M 6.30416666666667 6.36478365384615  C 6.77361111111111 5.89082532051282  7.33888888888889 5.65384615384615  8 5.65384615384615  C 8.66111111111111 5.65384615384615  9.22638888888889 5.89082532051282  9.69583333333333 6.36478365384615  C 10.1652777777778 6.83874198717949  10.4 7.40945512820513  10.4 8.07692307692308  C 10.4 8.74439102564103  10.1652777777778 9.31510416666667  9.69583333333333 9.7890625  C 9.22638888888889 10.2630208333333  8.66111111111111 10.5  8 10.5  C 7.33888888888889 10.5  6.77361111111111 10.2630208333333  6.30416666666667 9.7890625  C 5.83472222222222 9.31510416666667  5.6 8.74439102564103  5.6 8.07692307692308  C 5.6 7.40945512820513  5.83472222222222 6.83874198717949  6.30416666666667 6.36478365384615  Z M 12 2.15384615384615  L 13.8666666666667 2.15384615384615  C 14.4555555555556 2.15384615384615  14.9583333333333 2.36418269230769  15.375 2.78485576923077  C 15.7916666666667 3.20552884615385  16 3.71314102564102  16 4.30769230769231  L 16 11.8461538461538  C 16 12.4407051282051  15.7916666666667 12.9483173076923  15.375 13.3689903846154  C 14.9583333333333 13.7896634615385  14.4555555555556 14  13.8666666666667 14  L 2.13333333333333 14  C 1.54444444444444 14  1.04166666666667 13.7896634615385  0.625 13.3689903846154  C 0.208333333333333 12.9483173076923  0 12.4407051282051  0 11.8461538461538  L 0 4.30769230769231  C 0 3.71314102564102  0.208333333333333 3.20552884615385  0.625 2.78485576923077  C 1.04166666666667 2.36418269230769  1.54444444444444 2.15384615384615  2.13333333333333 2.15384615384615  L 4 2.15384615384615  L 4.425 1.00961538461538  C 4.53055555555556 0.734775641025641  4.72361111111111 0.497796474358974  5.00416666666667 0.298677884615384  C 5.28472222222222 0.0995592948717963  5.57222222222222 0  5.86666666666667 0  L 10.1333333333333 0  C 10.4277777777778 0  10.7152777777778 0.0995592948717963  10.9958333333333 0.298677884615384  C 11.2763888888889 0.497796474358974  11.4694444444444 0.734775641025641  11.575 1.00961538461538  L 12 2.15384615384615  Z M 5.3625 10.7397836538462  C 6.09305555555556 11.4773637820513  6.97222222222222 11.8461538461538  8 11.8461538461538  C 9.02777777777778 11.8461538461538  9.90694444444445 11.4773637820513  10.6375 10.7397836538462  C 11.3680555555556 10.002203525641  11.7333333333333 9.11458333333333  11.7333333333333 8.07692307692308  C 11.7333333333333 7.03926282051282  11.3680555555556 6.15164262820513  10.6375 5.4140625  C 9.90694444444445 4.67648237179487  9.02777777777778 4.30769230769231  8 4.30769230769231  C 6.97222222222222 4.30769230769231  6.09305555555556 4.67648237179487  5.3625 5.4140625  C 4.63194444444444 6.15164262820513  4.26666666666667 7.03926282051282  4.26666666666667 8.07692307692308  C 4.26666666666667 9.11458333333333  4.63194444444444 10.002203525641  5.3625 10.7397836538462  Z " fill-rule="nonzero" fill="#666666" stroke="none" transform="matrix(1 0 0 1 134 541 )" />
  </g>
</svg>