<?xml version="1.0" encoding="utf-8"?>
<svg version="1.1" xmlns:xlink="http://www.w3.org/1999/xlink" width="16px" height="12px" xmlns="http://www.w3.org/2000/svg">
  <g transform="matrix(1 0 0 1 -166 -542 )">
    <path d="M 15.6517857142857 0.346875  C 15.8839285714286 0.453125  16 0.6375  16 0.899999999999999  L 16 11.1  C 16 11.3625  15.8839285714286 11.546875  15.6517857142857 11.653125  C 15.5744047619048 11.684375  15.5 11.7  15.4285714285714 11.7  C 15.2678571428571 11.7  15.1339285714286 11.640625  15.0267857142857 11.521875  L 11.4285714285714 7.74375  L 11.4285714285714 9.3  C 11.4285714285714 10.04375  11.1770833333333 10.6796875  10.6741071428571 11.2078125  C 10.171130952381 11.7359375  9.56547619047619 12  8.85714285714286 12  L 2.57142857142857 12  C 1.86309523809524 12  1.25744047619048 11.7359375  0.754464285714286 11.2078125  C 0.251488095238095 10.6796875  0 10.04375  0 9.3  L 0 2.7  C 0 1.95625  0.251488095238095 1.3203125  0.754464285714286 0.7921875  C 1.25744047619048 0.264062499999998  1.86309523809524 0  2.57142857142857 0  L 8.85714285714286 0  C 9.56547619047619 0  10.171130952381 0.264062499999998  10.6741071428571 0.7921875  C 11.1770833333333 1.3203125  11.4285714285714 1.95625  11.4285714285714 2.7  L 11.4285714285714 4.246875  L 15.0267857142857 0.478124999999999  C 15.1339285714286 0.359375  15.2678571428571 0.3  15.4285714285714 0.3  C 15.5 0.3  15.5744047619048 0.315624999999998  15.6517857142857 0.346875  Z " fill-rule="nonzero" fill="#666666" stroke="none" transform="matrix(1 0 0 1 166 542 )" />
  </g>
</svg>