<?xml version="1.0" encoding="utf-8"?>
<svg version="1.1" xmlns:xlink="http://www.w3.org/1999/xlink" width="18px" height="18px" xmlns="http://www.w3.org/2000/svg">
  <g transform="matrix(1 0 0 1 -180 -318 )">
    <path d="M 17.9582958984375 9  C 17.9583178710938 8.57326904296875  17.609150390625 8.2241015625  17.18244140625 8.2241015625  L 9.7864453125 8.2241015625  L 9.7864453125 0.828105468749999  C 9.7864453125 0.401352539062499  9.43727783203125 0.0522070312499995  9.01052490234375 0.0522070312499995  C 8.5837939453125 0.0522070312499995  8.2346484375 0.401352539062499  8.2346484375 0.828105468749999  L 8.2346484375 8.2241015625  L 0.83863037109375 8.2241015625  C 0.4118994140625 8.2241015625  0.0627319335937504 8.5732470703125  0.0627319335937504 8.99997802734375  C 0.0627319335937504 9.42673095703125  0.41187744140625 9.77587646484375  0.83863037109375 9.77587646484375  L 8.23462646484375 9.77587646484375  L 8.23462646484375 17.1718725585937  C 8.23462646484375 17.598603515625  8.58377197265625 17.9477490234375  9.0105029296875 17.9477490234375  C 9.437255859375 17.9477490234375  9.7864013671875 17.598603515625  9.7864013671875 17.1718505859375  L 9.7864013671875 9.7758984375  L 17.1823974609375 9.7758984375  C 17.6091284179688 9.7758984375  17.9582958984375 9.4267529296875  17.9582958984375 9  Z " fill-rule="nonzero" fill="#d7d7d7" stroke="none" transform="matrix(1 0 0 1 180 318 )" />
  </g>
</svg>