<?xml version="1.0" encoding="utf-8"?>
<svg version="1.1" xmlns:xlink="http://www.w3.org/1999/xlink" width="12px" height="12px" xmlns="http://www.w3.org/2000/svg">
  <g transform="matrix(1 0 0 1 -231 -1324 )">
    <path d="M 8.09933268292683 3.81190243902439  C 5.28899121951219 5.4151843902439  4.3030712195122 6.94474536585366  5.45484878048781 9.22987317073171  L 5.13234731707317 9.22987317073171  C 2.23908292682927 5.8206087804878  4.11878634146341 3.54468292682927  6.97519609756097 1.91377170731707  L 6.13670634146341 0.45792  C 6.07021753038269 0.360700307401728  6.07021753038269 0.232638229183638  6.13670634146341 0.135418536585366  C 6.20423485901689 0.0319316548582548  6.3306500455534 -0.0163999510257148  6.44999414634146 0.0156409756097561  L 10.8267512195122 0.715925853658537  C 10.9813846494829 0.760722022234502  11.0743038189336 0.918282176156184  11.0386770731707 1.07528195121951  L 9.46304780487805 5.18481951219512  C 9.44576672976065 5.25834856535229  9.39914946417013 5.32160337228288  9.33403317073171 5.35987902439024  L 9.22346926829268 5.35987902439024  C 9.10748864858566 5.37151716924129  8.99553785640314 5.31373848348171  8.93783414634146 5.21246048780488  L 8.09933268292683 3.81190243902439  Z M 11.9785287804878 10.1512975609756  C 11.9785287804878 11.1690748386833  11.1534572777077 11.9941463414634  10.13568 11.9941463414634  L 1.84287219512195 11.9941463414634  C 0.825094917414261 11.9941463414634  2.34146341463415E-05 11.1690748386833  2.34146341463415E-05 10.1512975609756  L 2.34146341463415E-05 2.77990243902439  C 2.34146341463415E-05 1.7621251613167  0.825094917414261 0.937053658536585  1.84287219512195 0.937053658536585  L 3.68572097560976 0.937053658536585  L 3.68572097560976 1.80319609756098  L 1.84287219512195 1.80319609756098  C 1.33398355626811 1.80319609756098  0.921447804878049 2.21573184895103  0.921447804878049 2.72462048780488  L 0.921447804878049 10.2065795121951  C 0.921447804878049 10.715468151049  1.33398355626811 11.128003902439  1.84287219512195 11.128003902439  L 10.13568 11.128003902439  C 10.6445686388538 11.128003902439  11.0571043902439 10.715468151049  11.0571043902439 10.2065795121951  L 11.0571043902439 5.5441756097561  L 11.9785287804878 5.5441756097561  L 11.9785287804878 10.1512975609756  Z " fill-rule="nonzero" fill="#ffffff" stroke="none" transform="matrix(1 0 0 1 231 1324 )" />
  </g>
</svg>