<?xml version="1.0" encoding="utf-8"?>
<svg version="1.1" xmlns:xlink="http://www.w3.org/1999/xlink" width="15px" height="15px" xmlns="http://www.w3.org/2000/svg">
  <g transform="matrix(1 0 0 1 -9 -15 )">
    <path d="M 7.49860465116279 0.104651162790699  C 3.38652359288775 0.104651162790699  0.0530232558139551 3.43815149986449  0.0530232558139551 7.55023255813954  C 0.0530232558139551 11.6623136164146  3.38652359288775 14.9958139534884  7.49860465116279 14.9958139534884  C 11.6106857094378 14.9958139534884  14.9441860465116 11.6623136164146  14.9441860465116 7.55023255813954  C 14.9441860465116 3.43815149986449  11.6106857094378 0.104651162790699  7.49860465116279 0.104651162790699  Z M 7.49860465116279 11.646976744186  L 7.49860465116279 11.6804651162791  C 7.04239176013977 11.6804651162791  6.67255813953488 11.3106314956742  6.67255813953488 10.8544186046512  C 6.67255813953488 10.3982057136281  7.04239176013977 10.0283720930233  7.49860465116279 10.0283720930233  C 7.95481754218581 10.0283720930233  8.3246511627907 10.3982057136281  8.3246511627907 10.8544186046512  C 8.30667366323105 11.2975027344812  7.94205318673017 11.6473412997725  7.49860465116279 11.646976744186  Z M 8.28 4.56976744186047  L 7.91162790697674 8.33162790697674  C 7.91162790697674 8.78930232558139  7.72186046511628 9.15767441860465  7.49860465116279 9.15767441860465  C 7.2753488372093 9.15767441860465  7.08558139534884 8.78930232558139  7.08558139534884 8.33162790697674  L 6.62790697674419 4.56976744186047  C 6.62790699597212 4.11355456443365  6.99774061094528 3.74372096504782  7.45395348837209 3.74372096504782  C 7.91016637939511 3.74372096504782  8.28 4.1135545856527  8.28 4.56976747667572  Z " fill-rule="nonzero" fill="#f59a23" stroke="none" transform="matrix(1 0 0 1 9 15 )" />
  </g>
</svg>