<?xml version="1.0" encoding="utf-8"?>
<svg version="1.1" xmlns:xlink="http://www.w3.org/1999/xlink" width="13px" height="13px" xmlns="http://www.w3.org/2000/svg">
  <g transform="matrix(1 0 0 1 -1273 -18 )">
    <path d="M 2.29619565217391 7.14152173913043  C 0.449347826086957 5.29467391304348  0.449347826086957 2.30043478260869  2.29619565217391 0.453586956521739  C 2.42054347826087 0.329239130434783  2.55054347826087 0.213369565217391  2.68478260869565 0.105978260869565  C 2.15771739130435 0.298152173913043  1.6645652173913 0.604782608695652  1.2420652173913 1.02728260869565  C -0.30804347826087 2.57739130434783  -0.30804347826087 5.09260869565217  1.2420652173913 6.64271739130435  C 1.71119565217391 7.11184782608696  2.2679347826087 7.43826086956522  2.85858695652174 7.62336956521739  C 2.66217391304348 7.48065217391304  2.47423913043478 7.3195652173913  2.29619565217391 7.14152173913043  Z M 12.5252173913043 10.8776086956522  C 13.0084782608696 11.3622826086957  13.0084782608696 12.1535869565217  12.5238043478261 12.636847826087  C 12.0405434782609 13.1201086956522  11.2492391304348 13.1201086956522  10.7645652173913 12.636847826087  L 7.20934782608696 9.08021739130435  C 6.72608695652174 8.59695652173913  6.72608695652174 7.80565217391304  7.20934782608696 7.32097826086957  C 7.69260869565217 6.83771739130435  8.48391304347826 6.83771739130435  8.96858695652174 7.32097826086957  L 12.5252173913043 10.8776086956522  Z " fill-rule="nonzero" fill="#555555" stroke="none" transform="matrix(1 0 0 1 1273 18 )" />
  </g>
</svg>