<?xml version="1.0" encoding="utf-8"?>
<svg version="1.1" xmlns:xlink="http://www.w3.org/1999/xlink" width="20px" height="20px" xmlns="http://www.w3.org/2000/svg">
  <g transform="matrix(1 0 0 1 -1670 -13 )">
    <path d="M 19.6842105263158 13.375  C 19.9649122807018 12.8571428571429  19.8421052631579 12.2321428571429  19.3859649122807 11.875  L 17.719298245614 10.5892857142857  C 17.7368421052632 10.4107142857143  17.7543859649123 10.2142857142857  17.7543859649123 10  C 17.7543859649123 9.78571428571428  17.7368421052632 9.58928571428572  17.719298245614 9.41071428571429  L 19.3859649122807 8.125  C 19.8421052631579 7.76785714285714  19.9649122807018 7.14285714285714  19.6666666666667 6.60714285714286  L 17.8070175438597 3.41071428571429  C 17.5964912280702 3.03571428571429  17.1929824561403 2.80357142857143  16.7719298245614 2.80357142857143  C 16.6315789473684 2.80357142857143  16.5087719298246 2.82142857142857  16.3684210526316 2.875  L 14.3859649122807 3.66071428571429  C 14.0526315789474 3.42857142857143  13.7017543859649 3.23214285714286  13.3508771929825 3.07142857142857  L 13.0526315789474 1.01785714285714  C 12.9649122807018 0.428571428571428  12.4736842105263 0  11.8771929824561 0  L 8.12280701754386 0  C 7.52631578947368 0  7.03508771929824 0.428571428571428  6.94736842105263 1  L 6.66666666666667 3.07142857142857  C 6.31578947368421 3.23214285714286  5.98245614035088 3.42857142857143  5.63157894736842 3.66071428571429  L 3.64912280701754 2.875  C 3.50877192982456 2.82142857142857  3.36842105263158 2.80357142857143  3.2280701754386 2.80357142857143  C 2.80701754385965 2.80357142857143  2.40350877192982 3.01785714285714  2.21052631578947 3.39285714285714  L 0.333333333333333 6.60714285714286  C 0.0350877192982456 7.10714285714286  0.157894736842105 7.76785714285714  0.614035087719298 8.125  L 2.28070175438596 9.41071428571429  C 2.26315789473684 9.625  2.24561403508772 9.82142857142857  2.24561403508772 10  C 2.24561403508772 10.1785714285714  2.24561403508772 10.375  2.28070175438596 10.5892857142857  L 0.614035087719298 11.875  C 0.157894736842105 12.2321428571429  0.0350877192982456 12.8571428571429  0.333333333333333 13.3928571428571  L 2.19298245614035 16.5892857142857  C 2.40350877192982 16.9642857142857  2.80701754385965 17.1964285714286  3.2280701754386 17.1964285714286  C 3.36842105263158 17.1964285714286  3.49122807017544 17.1785714285714  3.63157894736842 17.125  L 5.6140350877193 16.3392857142857  C 5.94736842105263 16.5714285714286  6.29824561403509 16.7678571428571  6.64912280701754 16.9285714285714  L 6.94736842105263 18.9821428571429  C 7.01754385964912 19.5535714285714  7.52631578947368 20  8.12280701754386 20  L 11.8771929824561 20  C 12.4736842105263 20  12.9649122807018 19.5714285714286  13.0526315789474 19  L 13.3508771929825 16.9285714285714  C 13.7017543859649 16.7678571428571  14.0350877192982 16.5714285714286  14.3859649122807 16.3392857142857  L 16.3684210526316 17.125  C 16.5087719298246 17.1785714285714  16.6491228070175 17.1964285714286  16.7894736842105 17.1964285714286  C 17.2105263157895 17.1964285714286  17.6140350877193 16.9821428571429  17.8070175438597 16.6071428571429  L 19.6842105263158 13.375  Z M 10 5.71428571428571  C 12.3157894736842 5.71428571428571  14.2105263157895 7.64285714285714  14.2105263157895 10  C 14.2105263157895 12.3571428571429  12.3157894736842 14.2857142857143  10 14.2857142857143  C 7.68421052631579 14.2857142857143  5.78947368421053 12.3571428571429  5.78947368421053 10  C 5.78947368421053 7.64285714285714  7.68421052631579 5.71428571428571  10 5.71428571428571  Z " fill-rule="nonzero" fill="#f2f2f2" stroke="none" fill-opacity="0.996078431372549" transform="matrix(1 0 0 1 1670 13 )" />
  </g>
</svg>