<?xml version="1.0" encoding="utf-8"?>
<svg version="1.1" xmlns:xlink="http://www.w3.org/1999/xlink" width="13px" height="10px" xmlns="http://www.w3.org/2000/svg">
  <g transform="matrix(1 0 0 1 -1533 -15 )">
    <path d="M 12.9126216435586 3.99024390243903  C 12.9126216435586 3.91707534587939  12.8789411127244 3.84747070732865  12.82022857375 3.7993031402439  L 7.93222857375 0.0585365853658537  C 7.88444420295278 0.0218491396042368  7.82459847670458 0.00180408878633593  7.76285023240685 0.00180408878633593  C 7.61590399802488 0.00180408878633593  7.49648530795465 0.113026396869229  7.49542857375 0.250871082317073  L 7.49542857375 1.64459929878049  C 7.49308334711349 1.77331388149011  7.38833040231633 1.8799698563331  7.25177142625 1.89268292682927  C 0.922628573750001 2.4780487804878  0.120342852500001 7.35609756097561  0.0817142787500009 9.66411149390244  C 0.0817076372253499 9.66483327718866  0.0817043164166349 9.66555508400272  0.0817043164166349 9.66627689417804  C 0.0817043164166349 9.8048291671153  0.20143616721551 9.91714797649511  0.349132890166635 9.91714797649511  C 0.451652556024594 9.91714797649511  0.545149177592586 9.86216840547454  0.589828573750001 9.77560975609756  C 1.7784 7.4787456402439  4.29222857375 6.26341463414634  7.21611427875 6.15191637195122  C 7.21908471405422 6.15182445803171  7.22205656288572 6.1517784917023  7.22502861369679 6.1517784917023  C 7.37436641005104 6.1517784917023  7.49542861369679 6.26534528686717  7.49542861369679 6.40543702828767  L 7.49542857375 7.74912891768293  C 7.4954265348538 7.88866081239039  7.61515838565267 8.00097962177019  7.7628551086038 8.00097962177019  C 7.8246011895529 8.00097962177019  7.88444495564979 7.98093597317001  7.93222857375 7.94425086890244  L 12.82022857375 4.18118466463415  C 12.8789411127244 4.1330170975494  12.9126216435586 4.06341245899866  12.9126216435586 3.99024390243903  Z " fill-rule="nonzero" fill="#555555" stroke="none" transform="matrix(1 0 0 1 1533 15 )" />
  </g>
</svg>