<?xml version="1.0" encoding="utf-8"?>
<svg version="1.1" xmlns:xlink="http://www.w3.org/1999/xlink" width="20px" height="20px" xmlns="http://www.w3.org/2000/svg">
  <g transform="matrix(1 0 0 1 -270 -176 )">
    <path d="M 20 10  C 20 15.5225  15.5225 20  10 20  C 4.4775 20  0 15.5225  0 10  C 0 4.4775  4.4775 0  10 0  C 15.5225 0  20 4.4775  20 10  Z M 8.08916666015625 16.4816666601563  L 13.9208333398437 10.6541666601562  L 13.955 10.6216666601563  L 14.5441666601563 10.0325  L 8.08916666015625 3.57583333984375  C 7.76309362581332 3.25289319665681  7.23773969449918 3.25289319665681  6.91166666015625 3.57583333984375  C 6.75482563298559 3.73177928064123  6.6666376265072 3.94382530828515  6.6666376265072 4.165  C 6.6666376265072 4.38617469171485  6.75482563298559 4.59822071935877  6.91166666015625 4.75416666015625  L 12.1866666601563 10.0308333398437  L 6.91166666015625 15.3033333398438  C 6.7548757661705 15.459136590507  6.66670805826411 15.6710447971547  6.66670805826411 15.8920833398438  C 6.66670805826411 16.1131218825328  6.7548757661705 16.3250300891805  6.91166666015625 16.4808333398437  C 7.23666666015625 16.8058333398438  7.7683333203125 16.8025  8.08916666015625 16.4816666601563  Z " fill-rule="nonzero" fill="#007cfd" stroke="none" transform="matrix(1 0 0 1 270 176 )" />
  </g>
</svg>