<?xml version="1.0" encoding="utf-8"?>
<svg version="1.1" xmlns:xlink="http://www.w3.org/1999/xlink" width="18px" height="20px" xmlns="http://www.w3.org/2000/svg">
  <g transform="matrix(1 0 0 1 -1178 -378 )">
    <path d="M 9 20  L 3.10756138671875 14.1417276953125  C 1.54574828648413 12.5926693822838  0.667250631068471 10.4840254718313  0.667250631068471 8.2842887109375  C 0.667250631068471 6.08455195004367  1.54574828648413 3.97590803959116  3.10756138671875 2.4268497265625  C 6.36169416015625 -0.808949902343749  11.638305859375 -0.808949902343749  14.8924386132812 2.4268497265625  C 16.454508457187 3.97594045582495  17.3331694899565 6.08476348896901  17.3331694899565 8.28470537109375  C 17.3331694899565 10.4846472532185  16.454508457187 12.5934702863626  14.8924386132813 14.142561015625  L 9 20  Z M 9 10.833428828125  C 10.3806974957572 10.833428828125  11.4999739648437 9.71415235903848  11.4999739648437 8.33345486328125  C 11.4999739648437 6.95275736752402  10.3806974957572 5.8334808984375  9 5.8334808984375  C 7.61930250424277 5.8334808984375  6.50002603515625 6.95275736752402  6.50002603515625 8.33345486328125  C 6.50002603515625 9.71415235903848  7.61930250424277 10.833428828125  9 10.833428828125  Z " fill-rule="nonzero" fill="#d9001b" stroke="none" transform="matrix(1 0 0 1 1178 378 )" />
  </g>
</svg>