<?xml version="1.0" encoding="utf-8"?>
<svg version="1.1" xmlns:xlink="http://www.w3.org/1999/xlink" width="15px" height="15px" viewBox="9 286  15 15" xmlns="http://www.w3.org/2000/svg">
  <path d="M 16.5 286  C 20.7 286  24 289.3  24 293.5  C 24 297.7  20.7 301  16.5 301  C 12.3 301  9 297.7  9 293.5  C 9 289.3  12.3 286  16.5 286  Z " fill-rule="nonzero" fill="#ffffff" stroke="none" />
  <path d="M 16.5 286.5  C 20.42 286.5  23.5 289.58  23.5 293.5  C 23.5 297.42  20.42 300.5  16.5 300.5  C 12.58 300.5  9.5 297.42  9.5 293.5  C 9.5 289.58  12.58 286.5  16.5 286.5  Z " stroke-width="1" stroke="#4284f5" fill="none" />
  <path d="M 16.5 297.25  C 14.4 297.25  12.75 295.6  12.75 293.5  C 12.75 291.4  14.4 289.75  16.5 289.75  C 18.6 289.75  20.25 291.4  20.25 293.5  C 20.25 295.6  18.6 297.25  16.5 297.25  " fill-rule="nonzero" fill="#4284f5" stroke="none" />
</svg>