<?xml version="1.0" encoding="utf-8"?>
<svg version="1.1" xmlns:xlink="http://www.w3.org/1999/xlink" width="15px" height="15px" viewBox="9 56  15 15" xmlns="http://www.w3.org/2000/svg">
  <path d="M 16.5 56  C 20.7 56  24 59.3  24 63.5  C 24 67.7  20.7 71  16.5 71  C 12.3 71  9 67.7  9 63.5  C 9 59.3  12.3 56  16.5 56  Z " fill-rule="nonzero" fill="#ffffff" stroke="none" />
  <path d="M 16.5 56.5  C 20.42 56.5  23.5 59.58  23.5 63.5  C 23.5 67.42  20.42 70.5  16.5 70.5  C 12.58 70.5  9.5 67.42  9.5 63.5  C 9.5 59.58  12.58 56.5  16.5 56.5  Z " stroke-width="1" stroke="#4284f5" fill="none" />
  <path d="M 16.5 67.25  C 14.4 67.25  12.75 65.6  12.75 63.5  C 12.75 61.4  14.4 59.75  16.5 59.75  C 18.6 59.75  20.25 61.4  20.25 63.5  C 20.25 65.6  18.6 67.25  16.5 67.25  " fill-rule="nonzero" fill="#4284f5" stroke="none" />
</svg>