<?xml version="1.0" encoding="utf-8"?>
<svg version="1.1" xmlns:xlink="http://www.w3.org/1999/xlink" width="15px" height="15px" viewBox="9 194  15 15" xmlns="http://www.w3.org/2000/svg">
  <path d="M 16.5 194  C 20.7 194  24 197.3  24 201.5  C 24 205.7  20.7 209  16.5 209  C 12.3 209  9 205.7  9 201.5  C 9 197.3  12.3 194  16.5 194  Z " fill-rule="nonzero" fill="#ffffff" stroke="none" />
  <path d="M 16.5 194.5  C 20.42 194.5  23.5 197.58  23.5 201.5  C 23.5 205.42  20.42 208.5  16.5 208.5  C 12.58 208.5  9.5 205.42  9.5 201.5  C 9.5 197.58  12.58 194.5  16.5 194.5  Z " stroke-width="1" stroke="#4284f5" fill="none" />
  <path d="M 16.5 205.25  C 14.4 205.25  12.75 203.6  12.75 201.5  C 12.75 199.4  14.4 197.75  16.5 197.75  C 18.6 197.75  20.25 199.4  20.25 201.5  C 20.25 203.6  18.6 205.25  16.5 205.25  " fill-rule="nonzero" fill="#4284f5" stroke="none" />
</svg>