<?xml version="1.0" encoding="utf-8"?>
<svg version="1.1" xmlns:xlink="http://www.w3.org/1999/xlink" width="15px" height="15px" viewBox="9 240  15 15" xmlns="http://www.w3.org/2000/svg">
  <path d="M 16.5 240  C 20.7 240  24 243.3  24 247.5  C 24 251.7  20.7 255  16.5 255  C 12.3 255  9 251.7  9 247.5  C 9 243.3  12.3 240  16.5 240  Z " fill-rule="nonzero" fill="#ffffff" stroke="none" />
  <path d="M 16.5 240.5  C 20.42 240.5  23.5 243.58  23.5 247.5  C 23.5 251.42  20.42 254.5  16.5 254.5  C 12.58 254.5  9.5 251.42  9.5 247.5  C 9.5 243.58  12.58 240.5  16.5 240.5  Z " stroke-width="1" stroke="#4284f5" fill="none" />
  <path d="M 16.5 251.25  C 14.4 251.25  12.75 249.6  12.75 247.5  C 12.75 245.4  14.4 243.75  16.5 243.75  C 18.6 243.75  20.25 245.4  20.25 247.5  C 20.25 249.6  18.6 251.25  16.5 251.25  " fill-rule="nonzero" fill="#4284f5" stroke="none" />
</svg>