<?xml version="1.0" encoding="utf-8"?>
<svg version="1.1" xmlns:xlink="http://www.w3.org/1999/xlink" width="15px" height="15px" viewBox="9 102  15 15" xmlns="http://www.w3.org/2000/svg">
  <path d="M 16.5 102  C 20.7 102  24 105.3  24 109.5  C 24 113.7  20.7 117  16.5 117  C 12.3 117  9 113.7  9 109.5  C 9 105.3  12.3 102  16.5 102  Z " fill-rule="nonzero" fill="#ffffff" stroke="none" />
  <path d="M 16.5 102.5  C 20.42 102.5  23.5 105.58  23.5 109.5  C 23.5 113.42  20.42 116.5  16.5 116.5  C 12.58 116.5  9.5 113.42  9.5 109.5  C 9.5 105.58  12.58 102.5  16.5 102.5  Z " stroke-width="1" stroke="#4284f5" fill="none" />
  <path d="M 16.5 113.25  C 14.4 113.25  12.75 111.6  12.75 109.5  C 12.75 107.4  14.4 105.75  16.5 105.75  C 18.6 105.75  20.25 107.4  20.25 109.5  C 20.25 111.6  18.6 113.25  16.5 113.25  " fill-rule="nonzero" fill="#4284f5" stroke="none" />
</svg>