<?xml version="1.0" encoding="utf-8"?>
<svg version="1.1" xmlns:xlink="http://www.w3.org/1999/xlink" width="18px" height="12px" xmlns="http://www.w3.org/2000/svg">
  <g transform="matrix(1 0 0 1 -1106 -31 )">
    <path d="M 0.0778124999999998 1.34691176470588  L 0.0778124999999998 0.0692647058823526  L 2.228671875 0.0692647058823526  L 2.228671875 1.34691176470588  L 0.0778124999999998 1.34691176470588  Z M 3.28921875 1.34691176470588  L 3.28921875 0  L 17.9296875 0  L 17.9296875 1.34691176470588  L 3.28921875 1.34691176470588  Z M 0.0778124999999998 6.60529411764706  L 0.0778124999999998 5.32764705882353  L 2.228671875 5.32764705882353  L 2.228671875 6.60529411764706  L 0.0778124999999998 6.60529411764706  Z M 3.28921875 6.60529411764706  L 3.28921875 5.32764705882353  L 17.9296875 5.32764705882353  L 17.9296875 6.60529411764706  L 3.28921875 6.60529411764706  Z M 0.0778124999999998 11.8638970588235  L 0.0778124999999998 10.58625  L 2.228671875 10.58625  L 2.228671875 11.8638970588235  L 0.0778124999999998 11.8638970588235  Z M 3.28921875 11.8638970588235  L 3.28921875 10.58625  L 17.9296875 10.58625  L 17.9296875 11.8638970588235  L 3.28921875 11.8638970588235  Z " fill-rule="nonzero" fill="#ffffff" stroke="none" transform="matrix(1 0 0 1 1106 31 )" />
  </g>
</svg>