<?xml version="1.0" encoding="utf-8"?>
<svg version="1.1" xmlns:xlink="http://www.w3.org/1999/xlink" width="16px" height="16px" xmlns="http://www.w3.org/2000/svg">
  <g transform="matrix(1 0 0 1 -298 -27 )">
    <path d="M 11.4400392074113 7.44662651970607  C 11.7467339497353 7.44662651970607  11.9963708593683 7.69332673036689  12 8  C 12 8.30927945990524  11.7492794599052 8.56  11.44 8.56  L 8.573333328125 8.56  L 8.573333328125 11.413333328125  C 8.573333328125 11.7244537343199  8.32112040619486 11.97666665625  8.01 11.97666665625  C 7.69887959380514 11.97666665625  7.446666671875 11.7244537343199  7.446666671875 11.413333328125  L 7.446666671875 8.573333328125  L 4.56 8.573333328125  C 4.24887959380514 8.573333328125  3.996666671875 8.32112040619486  3.996666671875 8.01  C 3.996666671875 7.69887959380514  4.24887959380514 7.446666671875  4.56 7.446666671875  L 7.44 7.446666671875  L 7.44 4.58  C 7.44 4.26887958949041  7.69221292542791 4.0166666640625  8.0033333359375 4.0166666640625  C 8.31445374644709 4.0166666640625  8.566666671875 4.26887958949041  8.566666671875 4.58  L 8.566666671875 7.446666671875  L 11.433333328125 7.446666671875  C 11.4355685210484 7.4466399040023  11.4378038542124 7.44662651970607  11.4400392074113 7.44662651970607  Z M 16 8  C 16 3.58172200135365  12.4182779986463 0  8 0  C 3.58172200135365 0  0 3.58172200135365  0 8  C 0 12.4182779986463  3.58172200135365 16  8 16  C 12.4182779986463 16  16 12.4182779986463  16 8  Z " fill-rule="nonzero" fill="#ffffff" stroke="none" transform="matrix(1 0 0 1 298 27 )" />
  </g>
</svg>