<?xml version="1.0" encoding="utf-8"?>
<svg version="1.1" xmlns:xlink="http://www.w3.org/1999/xlink" width="15px" height="15px" xmlns="http://www.w3.org/2000/svg">
  <g transform="matrix(1 0 0 1 -239 556 )">
    <path d="M 15 2.8125  C 15 2.2939453125  14.57958984375 1.875  14.0625 1.875  L 12.2021484375 1.875  C 12.2021484375 1.0986328125  11.572265625 0.46875  10.7958984375 0.46875  L 10.5615234375 0.46875  C 9.78515625 0.46875  9.1552734375 1.0986328125  9.1552734375 1.875  L 5.859375 1.875  C 5.859375 1.48681640625  5.70263671875 1.13525390625  5.44775390625 0.88037109375  C 5.19287109375 0.62548828125  4.84130859375 0.46875  4.453125 0.46875  L 4.21875 0.46875  C 3.4423828125 0.46875  2.8125 1.0986328125  2.8125 1.875  L 0.9375 1.875  C 0.42041015625 1.875  0 2.2939453125  0 2.8125  L 0 13.59375  C 0 14.11083984375  0.42041015625 14.53125  0.9375 14.53125  L 14.0625 14.53125  C 14.57958984375 14.53125  15 14.11083984375  15 13.59375  L 15 2.8125  Z M 10.0927734375 3.1640625  L 10.0927734375 1.9921875  C 10.0927734375 1.66845703125  10.35498046875 1.40625  10.6787109375 1.40625  C 11.00244140625 1.40625  11.2646484375 1.66845703125  11.2646484375 1.9921875  L 11.2646484375 3.1640625  C 11.2646484375 3.48779296875  11.00244140625 3.75  10.6787109375 3.75  C 10.517578125 3.75  10.37109375 3.68408203125  10.26416015625 3.57861328125  C 10.15869140625 3.4716796875  10.0927734375 3.3251953125  10.0927734375 3.1640625  Z M 3.75 3.1640625  L 3.75 1.9921875  C 3.75 1.66845703125  4.01220703125 1.40625  4.3359375 1.40625  C 4.65966796875 1.40625  4.921875 1.66845703125  4.921875 1.9921875  L 4.921875 3.1640625  C 4.921875 3.48779296875  4.65966796875 3.75  4.3359375 3.75  C 4.1748046875 3.75  4.0283203125 3.68408203125  3.92138671875 3.57861328125  C 3.81591796875 3.4716796875  3.75 3.3251953125  3.75 3.1640625  Z M 14.0625 6.5625  L 14.0625 13.125  C 14.0625 13.38427734375  13.85302734375 13.59375  13.59375 13.59375  L 1.40625 13.59375  C 1.14697265625 13.59375  0.9375 13.38427734375  0.9375 13.125  L 0.9375 6.5625  L 14.0625 6.5625  Z M 1.40625 9.84375  L 1.40625 7.5  L 5.15625 7.5  L 5.15625 9.84375  L 1.40625 9.84375  Z M 1.40625 12.65625  L 1.40625 10.3125  L 5.15625 10.3125  L 5.15625 12.65625  L 1.40625 12.65625  Z M 5.625 9.84375  L 5.625 7.5  L 9.375 7.5  L 9.375 9.84375  L 5.625 9.84375  Z M 5.625 12.65625  L 5.625 10.3125  L 9.375 10.3125  L 9.375 12.65625  L 5.625 12.65625  Z M 9.84375 9.84375  L 9.84375 7.5  L 13.59375 7.5  L 13.59375 9.84375  L 9.84375 9.84375  Z M 9.84375 12.65625  L 9.84375 10.3125  L 13.59375 10.3125  L 13.59375 12.65625  L 9.84375 12.65625  Z " fill-rule="nonzero" fill="#aaaaaa" stroke="none" transform="matrix(1 0 0 1 239 -556 )" />
  </g>
</svg>