<?xml version="1.0" encoding="utf-8"?>
<svg version="1.1" xmlns:xlink="http://www.w3.org/1999/xlink" width="30px" height="27px" xmlns="http://www.w3.org/2000/svg">
  <g transform="matrix(1 0 0 1 -341 -207 )">
    <path d="M 2.53485714285714 9.072  L 4.94857142857143 9.072  C 5.70438095238095 9.072  6.25904761904762 9.3  6.61257142857143 9.756  C 6.96609523809524 10.212  7.14285714285714 10.716  7.14285714285714 11.268  L 7.14285714285714 27  L 0.267428571428571 27  L 0.267428571428571 11.412  C 0.267428571428572 10.668  0.505142857142857 10.092  0.980571428571429 9.684  C 1.456 9.276  1.97409523809524 9.072  2.53485714285714 9.072  Z M 13.9085714285714 0.215999999999998  L 16.3588571428571 0.216  C 17.0171428571429 0.216  17.5413333333333 0.414  17.9314285714286 0.810000000000001  C 18.3215238095238 1.206  18.5165714285714 1.68  18 2.232  L 18 27  L 12 27  L 12 2.304  C 11.6777142857143 1.944  11.7508571428571 1.632  11.8971428571429 1.368  C 12.0434285714286 1.104  12.2262857142857 0.887999999999999  12.4457142857143 0.719999999999999  C 12.6651428571429 0.551999999999999  12.9089523809524 0.425999999999999  13.1771428571429 0.341999999999998  C 13.4453333333333 0.257999999999999  13.6891428571429 0.215999999999998  13.9085714285714 0.215999999999998  Z M 25.3554285714286 15.804  L 27.7325714285714 15.804  C 27.952 15.804  28.1897142857143 15.864  28.4457142857143 15.984  C 28.7017142857143 16.104  28.9455238095238 16.272  29.1771428571429 16.488  C 29.4087619047619 16.704  29.6038095238095 16.95  29.7622857142857 17.226  C 29.9207619047619 17.502  30 17.796  30 18.108  L 30 27  L 23.1611428571429 27  L 23.1611428571429 18.18  C 23.1611428571429 17.916  23.216 17.64  23.3257142857143 17.352  C 23.4354285714286 17.064  23.5878095238095 16.806  23.7828571428571 16.578  C 23.9779047619048 16.35  24.2095238095238 16.164  24.4777142857143 16.02  C 24.7459047619048 15.876  25.0384761904762 15.804  25.3554285714286 15.804  Z " fill-rule="nonzero" fill="#dadbf1" stroke="none" transform="matrix(1 0 0 1 341 207 )" />
  </g>
</svg>