<?xml version="1.0" encoding="utf-8"?>
<svg version="1.1" xmlns:xlink="http://www.w3.org/1999/xlink" width="35px" height="28px" xmlns="http://www.w3.org/2000/svg">
  <g transform="matrix(1 0 0 1 -1545 -1151 )">
    <path d="M 32.5 0  L 2.5 0  C 1.11928812542302 0  0 1.13963881861253  0 2.54545454545455  L 0 25.4545454545455  C 0 26.8603611813875  1.11928812542302 28  2.5 28  L 32.5 28  C 33.880711874577 28  35 26.8603611813875  35 25.4545454545455  L 35 2.54545454545455  C 35 1.13963881861253  33.880711874577 0  32.5 0  Z M 3 3  L 32 3  L 32 22.3618181818182  L 24.37 14.084  C 23.8818751856427 13.5871502603036  23.0906248143573 13.5871502603036  22.6025 14.084  L 18.495 18.2636363636364  L 10.3875 10.0087272727273  C 9.89937518564273 9.5118775330309  9.10812481435727 9.5118775330309  8.62 10.0087272727273  L 3 16.2374545454545  L 3 3  Z " fill-rule="nonzero" fill="#2b788a" stroke="none" transform="matrix(1 0 0 1 1545 1151 )" />
  </g>
</svg>