<?xml version="1.0" encoding="utf-8"?>
<svg version="1.1" xmlns:xlink="http://www.w3.org/1999/xlink" width="3px" height="9px" xmlns="http://www.w3.org/2000/svg">
  <g transform="matrix(1 0 0 1 -304 -456 )">
    <path d="M 1.5028125 2.15625  C 1.11448728527522 2.15625  0.799687499999999 1.84145021472478  0.799687499999999 1.453125  C 0.799687499999999 1.06479978527522  1.11448728527522 0.75  1.5028125 0.75  C 1.89113771472478 0.75  2.2059375 1.06479978527522  2.2059375 1.453125  C 2.2059375 1.84145021472478  1.89113771472478 2.15625  1.5028125 2.15625  Z M 2.90625 8.25  L 0.09375 8.25  L 0.09375 7.3125  L 1.0340625 7.3125  L 1.0340625 4.03125  L 0.09375 4.03125  L 0.09375 3.09375  L 1.9715625 3.09375  L 1.9715625 7.3125  L 2.90625 7.3125  L 2.90625 8.25  Z " fill-rule="nonzero" fill="#f59a23" stroke="none" transform="matrix(1 0 0 1 304 456 )" />
  </g>
</svg>