<?xml version="1.0" encoding="utf-8"?>
<svg version="1.1" xmlns:xlink="http://www.w3.org/1999/xlink" width="15px" height="15px" xmlns="http://www.w3.org/2000/svg">
  <g transform="matrix(1 0 0 1 -298 -453 )">
    <path d="M 7.5 14.0625  C 11.1243686707646 14.0625  14.0625 11.1243686707646  14.0625 7.5  C 14.0625 3.87563132923542  11.1243686707646 0.9375  7.5 0.9375  C 3.87563132923542 0.9375  0.9375 3.87563132923542  0.9375 7.5  C 0.9375 11.1243686707646  3.87563132923542 14.0625  7.5 14.0625  Z M 7.49999991618097 13.125  C 4.39339819838276 13.125  1.87499991618097 10.6066017177982  1.87499991618097 7.5  C 1.87499991618097 4.39339828220179  4.39339819838276 1.875  7.49999991618097 1.875  C 10.6066016339792 1.875  13.124999916181 4.39339828220179  13.124999916181 7.5  C 13.124999916181 10.6066017177982  10.6066016339792 13.125  7.49999991618097 13.125  Z " fill-rule="nonzero" fill="#f59a23" stroke="none" transform="matrix(1 0 0 1 298 453 )" />
  </g>
</svg>