<?xml version="1.0" encoding="utf-8"?>
<svg version="1.1" xmlns:xlink="http://www.w3.org/1999/xlink" width="15px" height="15px" viewBox="1057 477  15 15" xmlns="http://www.w3.org/2000/svg">
  <path d="M 1064.5 477  C 1068.7 477  1072 480.3  1072 484.5  C 1072 488.7  1068.7 492  1064.5 492  C 1060.3 492  1057 488.7  1057 484.5  C 1057 480.3  1060.3 477  1064.5 477  Z " fill-rule="nonzero" fill="#ffffff" stroke="none" />
  <path d="M 1064.5 477.5  C 1068.42 477.5  1071.5 480.58  1071.5 484.5  C 1071.5 488.42  1068.42 491.5  1064.5 491.5  C 1060.58 491.5  1057.5 488.42  1057.5 484.5  C 1057.5 480.58  1060.58 477.5  1064.5 477.5  Z " stroke-width="1" stroke="#4284f5" fill="none" />
  <path d="M 1064.5 488.25  C 1062.4 488.25  1060.75 486.6  1060.75 484.5  C 1060.75 482.4  1062.4 480.75  1064.5 480.75  C 1066.6 480.75  1068.25 482.4  1068.25 484.5  C 1068.25 486.6  1066.6 488.25  1064.5 488.25  " fill-rule="nonzero" fill="#4284f5" stroke="none" />
</svg>