<?xml version="1.0" encoding="utf-8"?>
<svg version="1.1" xmlns:xlink="http://www.w3.org/1999/xlink" width="10px" height="10px" xmlns="http://www.w3.org/2000/svg">
  <g transform="matrix(1 0 0 1 -183 -13 )">
    <path d="M 6.66666666666667 0.833333333333333  L 3.33333333333333 0.833333333333333  L 3.33333333333333 0  L 2.5 0  L 2.5 0.833333333333333  L 0.833333333333333 0.833333333333333  C 0.373096041807672 0.833333333333333  0 1.20642937514101  0 1.66666666666667  L 0 9.16666666666667  C 0 9.62690395819233  0.373096041807672 10  0.833333333333333 10  L 9.16666666666667 10  C 9.62690395819233 10  10 9.62690395819233  10 9.16666666666667  L 10 1.66666666666667  C 10 1.20642937514101  9.62690395819233 0.833333333333333  9.16666666666667 0.833333333333333  L 7.5 0.833333333333333  L 7.5 0  L 6.66666666666667 0  L 6.66666666666667 0.833333333333333  Z M 9.16666666666667 1.66666666666667  L 9.16666666666667 3.33333333333333  L 0.833333333333333 3.33333333333333  L 0.833333333333333 1.66666666666667  L 2.5 1.66666666666667  L 2.5 2.5  L 3.33333333333333 2.5  L 3.33333333333333 1.66666666666667  L 6.66666666666667 1.66666666666667  L 6.66666666666667 2.5  L 7.5 2.5  L 7.5 1.66666666666667  L 9.16666666666667 1.66666666666667  Z M 0.833333333333333 9.16666666666667  L 0.833333333333333 4.16666666666667  L 9.16666666666667 4.16666666666667  L 9.16666666666667 9.16666666666667  L 0.833333333333333 9.16666666666667  Z " fill-rule="nonzero" fill="#aaaaaa" stroke="none" transform="matrix(1 0 0 1 183 13 )" />
  </g>
</svg>