<?xml version="1.0" encoding="utf-8"?>
<svg version="1.1" xmlns:xlink="http://www.w3.org/1999/xlink" width="7px" height="7px" xmlns="http://www.w3.org/2000/svg">
  <g transform="matrix(1 0 0 1 -62 -133 )">
    <path d="M 1.1046875 3.78125  C 1.12212904851424 3.77942997630734  1.13965133142615 3.77849128257992  1.1571875 3.7784375  L 6.3125 3.7784375  L 6.3125 4.7159375  L 3.5 4.7159375  L 3.5 6.1034375  C 3.50000102251047 6.10377191924759  3.5000015337666 6.1041063398634  3.5000015337666 6.10444076067418  C 3.5000015337666 6.28565919421241  3.35309496730483 6.43256576067418  3.1718765337666 6.43256576067418  C 3.09514249118949 6.43256576067418  3.0208352141868 6.40567264593007  2.961875 6.3565625  L 0.856249999999999 4.608125  C 0.748757720466955 4.51907220789345  0.686546503120449 4.38674584707366  0.686546503120449 4.24715720161428  C 0.686546503120449 4.00822210663398  0.866263959531271 3.80752470638717  1.10375 3.78125  Z M 4.053125 0.27875  L 6.141875 2.0140625  C 6.24934610747205 2.10311556948219  6.31154301345481 2.2354283796983  6.31154301345481 2.37500089893281  C 6.31154301345481 2.633884375416  6.10167648993799 2.84375089893281  5.84279301345481 2.84375089893281  L 0.6875 2.84375  L 0.6875 1.90625  L 3.5 1.90625  L 3.5 0.537499999999998  C 3.50048921485249 0.351451017585694  3.65144920762029 0.200887451464501  3.83749883322746 0.200887451464501  C 3.91625751867466 0.200887451464501  3.9925362463105 0.228431678687335  4.053125 0.27875  Z " fill-rule="nonzero" fill="#ffffff" stroke="none" transform="matrix(1 0 0 1 62 133 )" />
  </g>
</svg>