<?xml version="1.0" encoding="utf-8"?>
<svg version="1.1" xmlns:xlink="http://www.w3.org/1999/xlink" width="15px" height="11px" xmlns="http://www.w3.org/2000/svg">
  <g transform="matrix(1 0 0 1 -58 -127 )">
    <path d="M 7.5009375 0.87740219310904  C 9.21753055158582 0.87740219310904  10.7151879383999 2.04241580532199  11.1375 3.70625  C 12.8044950276108 3.88525621754634  14.0684149978644 5.29216542273921  14.0684149978644 6.96874397681876  C 14.0684149978644 8.60212109472959  12.8670463450179 9.9867923451485  11.25 10.2171875  L 11.25 9.7784375  C 11.2501889854511 9.54927944121909  11.1661030272374 9.32805328925224  11.01375 9.156875  C 11.3775 8.6009375  11.35125 7.80125  10.741875 7.293125  L 8.65125 5.5578125  C 7.8215625 4.866875  6.5625 5.4575  6.5625 6.5375  L 6.5625 6.96875  L 4.6875 6.96875  C 4.16973304703363 6.96875  3.75 7.38848304703363  3.75 7.90625  L 3.75 8.84375  C 3.75 9.0828125  3.84 9.3003125  3.9871875 9.46625  C 3.84047735702923 9.68965446949417  3.75809314867943 9.94913229106833  3.7490625 10.21625  C 2.13424533408211 9.9836647559309  0.935590129435453 8.59999557211269  0.935590129435453 6.96851453480279  C 0.935590129435453 5.29275495618813  2.19831144429085 3.88625664892316  3.864375 3.70625  C 4.28668706160007 2.04241580532199  5.78434444841417 0.87740219310904  7.5009375 0.87740219310904  Z " fill-rule="nonzero" fill="#ffffff" stroke="none" transform="matrix(1 0 0 1 58 127 )" />
  </g>
</svg>