<?xml version="1.0" encoding="utf-8"?>
<svg version="1.1" xmlns:xlink="http://www.w3.org/1999/xlink" width="18px" height="18px" xmlns="http://www.w3.org/2000/svg">
  <g transform="matrix(1 0 0 1 -341 -11 )">
    <path d="M 6.756875 11.541875  L 6.7575 11.54125  C 6.04751650755179 12.3115206588343  5.04770567478092 12.7497018750176  4.00014018880403 12.7497018750176  C 1.92907237693856 12.7497018750176  0.250140188804032 11.0707696868831  0.250140188804032 8.99970187501764  C 0.250140188804032 6.92863406315217  1.92907237693856 5.24970187501764  4.00014018880403 5.24970187501764  C 4.95024220704733 5.24970187501764  5.86492595777013 5.61034089085979  6.559375 6.25875  L 9.831875 4.125  C 9.69391409234546 3.78732676342802  9.62295689924944 3.42604087023508  9.62295689924944 3.06127186560631  C 9.62295689924944 1.50797100670721  10.8821560403503 0.248771865606313  12.4354568992494 0.248771865606313  C 13.9887577581485 0.248771865606313  15.2479568992494 1.50797100670721  15.2479568992494 3.06127186560631  C 15.2479568992494 4.61457272450542  13.9887577581485 5.87377186560631  12.4354568992494 5.87377186560631  C 11.7390881302064 5.87377186560631  11.0674799613696 5.61543020250077  10.550625 5.14875  L 7.319375 7.255  C 7.594375 7.776875  7.749375 8.370625  7.749375 9.000625  C 7.74997847018564 9.51384032906555  7.64487869325645 10.0216807491667  7.440625 10.4925  L 12.14875 13.140625  C 12.6830984023894 12.4984093803616  13.4753025585667 12.1269915364995  14.3107480189312 12.1269915364995  C 15.8640488778303 12.1269915364995  17.1232480189312 13.3861906776004  17.1232480189312 14.9394915364995  C 17.1232480189312 16.4927923953986  15.8640488778303 17.7519915364995  14.3107480189312 17.7519915364995  C 12.757447160032 17.7519915364995  11.4982480189312 16.4927923953986  11.4982480189312 14.9394915364995  C 11.4982480189312 14.7091535796706  11.5265439254976 14.4796878931211  11.5825 14.25625  L 6.756875 11.541875  Z " fill-rule="nonzero" fill="#555555" stroke="none" transform="matrix(1 0 0 1 341 11 )" />
  </g>
</svg>