<?xml version="1.0" encoding="utf-8"?>
<svg version="1.1" xmlns:xlink="http://www.w3.org/1999/xlink" width="80px" height="53px" xmlns="http://www.w3.org/2000/svg">
  <g transform="matrix(1 0 0 1 -94 -703 )">
    <path d="M 24.3333333333333 10.765625  C 25.8888888888889 12.0538194444444  26.6666666666667 13.6180555555555  26.6666666666667 15.4583333333333  C 26.6666666666667 17.2986111111111  25.8888888888889 18.8628472222222  24.3333333333333 20.1510416666667  C 22.7777777777778 21.4392361111111  20.8888888888889 22.0833333333333  18.6666666666667 22.0833333333333  C 16.4444444444444 22.0833333333333  14.5555555555556 21.4392361111111  13 20.1510416666667  C 11.4444444444444 18.8628472222222  10.6666666666667 17.2986111111111  10.6666666666667 15.4583333333333  C 10.6666666666667 13.6180555555555  11.4444444444444 12.0538194444444  13 10.765625  C 14.5555555555556 9.47743055555555  16.4444444444444 8.83333333333333  18.6666666666667 8.83333333333333  C 20.8888888888889 8.83333333333333  22.7777777777778 9.47743055555555  24.3333333333333 10.765625  Z M 52 14.3541666666667  L 69 28.7083333333333  L 69 44  L 10.6666666666667 44  L 10.6666666666667 37.5416666666667  L 24 26.5  L 30.6666666666667 32.0208333333333  L 52 14.3541666666667  Z M 74.2708333333333 4.74446614583333  C 74.0069444444445 4.52593315972222  73.6944444444445 4.41666666666667  73.3333333333333 5  L 6.66666666666667 5  C 6.30555555555556 4.41666666666667  5.99305555555556 4.52593315972222  5.72916666666667 4.74446614583333  C 5.46527777777778 4.96299913194444  5.33333333333333 5.22178819444444  6 5.52083333333333  L 6 47.4791666666667  C 5.33333333333333 47.7782118055556  5.46527777777778 48.0370008680556  5.72916666666667 48.2555338541667  C 5.99305555555556 48.4740668402778  6.30555555555556 48.5833333333333  6.66666666666667 48  L 73.3333333333333 48  C 73.6944444444445 48.5833333333333  74.0069444444445 48.4740668402778  74.2708333333333 48.2555338541667  C 74.5347222222222 48.0370008680556  74.6666666666667 47.7782118055556  74 47.4791666666667  L 74 5.52083333333333  C 74.6666666666667 5.22178819444444  74.5347222222222 4.96299913194444  74.2708333333333 4.74446614583333  Z M 78.0416666666667 1.62174479166667  C 79.3472222222222 2.70290798611111  80 4.00260416666667  80 5.52083333333333  L 80 47.4791666666667  C 80 48.9973958333333  79.3472222222222 50.2970920138889  78.0416666666667 51.3782552083333  C 76.7361111111111 52.4594184027778  75.1666666666667 53  73.3333333333333 53  L 6.66666666666667 53  C 4.83333333333333 53  3.26388888888889 52.4594184027778  1.95833333333333 51.3782552083333  C 0.652777777777778 50.2970920138889  0 48.9973958333333  0 47.4791666666667  L 0 5.52083333333333  C 0 4.00260416666667  0.652777777777778 2.70290798611111  1.95833333333333 1.62174479166667  C 3.26388888888889 0.540581597222217  4.83333333333333 0  6.66666666666667 0  L 73.3333333333333 0  C 75.1666666666667 0  76.7361111111111 0.540581597222217  78.0416666666667 1.62174479166667  Z " fill-rule="nonzero" fill="#555555" stroke="none" transform="matrix(1 0 0 1 94 703 )" />
  </g>
</svg>