<?xml version="1.0" encoding="utf-8"?>
<svg version="1.1" xmlns:xlink="http://www.w3.org/1999/xlink" width="8px" height="13px" xmlns="http://www.w3.org/2000/svg">
  <g transform="matrix(1 0 0 1 -42 -16 )">
    <path d="M 0.292529684931508 11.6133333291016  L 0.293698630136986 11.6133333291016  C 0.142480486130127 11.7637316107563  0.0583986936032686 11.9616613437103  0.0583986936032686 12.1672327192382  C 0.0583986936032686 12.6159640784757  0.450916173203669 12.9797327192382  0.935111022370392 12.9797327192382  C 1.15692881516716 12.9797327192382  1.37050104248997 12.9018092634711  1.53278538356164 12.7616666708984  L 7.66977168493151 7.07416667089844  C 8.01163500052237 6.75694766092113  8.01163500052237 6.24305233907887  7.66977168493151 5.92583332910156  L 1.53278538356164 0.238333329101563  C 1.37050104248997 0.0981907365288725  1.15692881516717 0.0202672807617833  0.935111022370397 0.0202672807617833  C 0.450916173203675 0.0202672807617833  0.0583986936032741 0.384035921524264  0.0583986936032741 0.832767280761783  C 0.0583986936032741 1.03833865628969  0.14248048613013 1.23626838924374  0.293698630136986 1.38666667089844  L 5.80997260273973 6.5  L 0.292529684931508 11.6133333291016  Z " fill-rule="nonzero" fill="#ffffff" stroke="none" transform="matrix(1 0 0 1 42 16 )" />
  </g>
</svg>