<?xml version="1.0" encoding="utf-8"?>
<svg version="1.1" xmlns:xlink="http://www.w3.org/1999/xlink" width="23px" height="5px" xmlns="http://www.w3.org/2000/svg">
  <g transform="matrix(1 0 0 1 -1325 -598 )">
    <path d="M 20.7120003821839 0.239251151315789  L 2.22356994252874 0.239251151315789  L 0.177845120689656 4.83254944078947  L 22.7654159281609 4.83254944078947  L 20.7120003821839 0.239251151315789  Z M 4.73842715229885 2.62776628289474  L 6.02277319252874 3.89857881578947  C 6.06325455527475 3.93622011981002  6.08623495931876 3.98889123170006  6.08623495931876 4.04403325657895  C 6.08623495931876 4.09917528145783  6.06325455527475 4.15184639334788  6.02277319252874 4.18948769736842  C 5.94282825087492 4.26434865295944  5.81816243159634 4.26434865295944  5.73821748994253 4.18948769736842  L 4.44618075862069 2.91101967105263  L 3.16952540948276 4.18948769736842  C 3.08958046782894 4.26434865295944  2.96491464855037 4.26434865295944  2.88496970689655 4.18948769736842  C 2.84448834415053 4.15184639334788  2.82150794010653 4.09917528145783  2.82150794010653 4.04403325657895  C 2.82150794010653 3.98889123170006  2.84448834415053 3.93622011981002  2.88496970689655 3.89857881578947  L 4.16162505603448 2.62776628289474  L 2.90804178017241 1.34929825657895  C 2.87479230079891 1.3124789223777  2.85639763783918 1.26471961576189  2.85639763783918 1.21521107955358  C 2.85639763783918 1.10443711087411  2.94661055608533 1.01463706639568  3.05789383036792 1.01463706639568  C 3.1076299839627 1.01463706639568  3.15560886640054 1.03294753732751  3.19259748275862 1.06604483552632  L 4.44618075862069 2.34451286184211  L 5.73052679885058 1.06604483552632  C 5.76751541520865 1.03294753732751  5.8154942976465 1.01463706639568  5.86523045124128 1.01463706639568  C 5.97651372552387 1.01463706639568  6.06672664377002 1.10443711087411  6.06672664377002 1.21521107955358  C 6.06672664377002 1.26471961576189  6.04833198081029 1.3124789223777  6.01508250143678 1.34929825657895  L 4.73842715229885 2.62776628289474  Z M 9.41436964942529 2.62776628289474  L 10.6987156896552 3.89857881578947  C 10.7391970524012 3.93622011981002  10.7621774564452 3.98889123170006  10.7621774564452 4.04403325657895  C 10.7621774564452 4.09917528145783  10.7391970524012 4.15184639334788  10.6987156896552 4.18948769736842  C 10.6187707434708 4.26434867358908  10.4941049002074 4.26434867358908  10.414159954023 4.18948769736842  L 9.1298139137931 2.91101967105263  L 7.85315856465517 4.18948769736842  C 7.81602200419861 4.2198270235197  7.76946588400194 4.23640951692005  7.72142337754238 4.23640951692005  C 7.60674213483488 4.23640951692005  7.5137746189217 4.14386748162889  7.5137746189217 4.02971109586742  C 7.5137746189217 3.9818884635793  7.53043335367102 3.93554541487095  7.56091217097701 3.89857881578947  L 8.8452582112069 2.62776628289474  L 7.56091217097701 1.34929825657895  C 7.48570700635993 1.26971919115511  7.48570700635993 1.14562390095015  7.56091217097701 1.06604483552632  C 7.59872653846432 1.02574874217502  7.65163981638604 1.0028735116049  7.70703536781609 1.0028735116049  C 7.76243091924614 1.0028735116049  7.81534419716786 1.02574874217502  7.85315856465517 1.06604483552632  L 9.1298139137931 2.34451286184211  L 10.414159954023 1.06604483552632  C 10.4511485915343 1.03294744192169  10.4991275451664 1.01463691235375  10.5488637785665 1.01463691235375  C 10.6601470528491 1.01463691235375  10.7503599710952 1.10443695683218  10.7503599710952 1.21521092551164  C 10.7503599710952 1.26471953312957  10.7319652551844 1.31247890344984  10.6987156896552 1.34929825657895  L 9.41436964942529 2.62776628289474  Z M 14.0903121135057 2.62776628289474  L 15.3746581537356 3.89857881578947  C 15.4508784344125 3.98070751662337  15.4508784344125 4.10735899653453  15.3746581537356 4.18948769736842  C 15.2947132120818 4.26434865295944  15.1700473928032 4.26434865295944  15.0901024511494 4.18948769736842  L 13.8057564109195 2.91101967105263  L 12.5214103706897 4.18948769736842  C 12.4414654245053 4.26434867358909  12.3167995812419 4.26434867358909  12.2368546350575 4.18948769736842  C 12.1606343543806 4.10735899653453  12.1606343543806 3.98070751662337  12.2368546350575 3.89857881578947  L 13.5212006752874 2.62776628289474  L 12.2368546350575 1.34929825657895  C 12.1616494704404 1.26971919115511  12.1616494704404 1.14562390095015  12.2368546350575 1.06604483552631  C 12.2732940082358 1.02613782443228  12.3249561663904 1.00338589404053  12.3791325028736 1.00338589404053  C 12.4333088393568 1.00338589404053  12.4849709975114 1.02613782443228  12.5214103706897 1.06604483552632  L 13.8057564109195 2.34451286184211  L 15.0901024511494 1.06604483552631  C 15.1265418236963 1.02613783536793  15.1782039745136 1.00338591213587  15.2323803024425 1.00338591213587  C 15.2865566303715 1.00338591213587  15.3382187811887 1.02613783536793  15.3746581537356 1.06604483552632  C 15.4498633183527 1.14562390095015  15.4498633183527 1.26971919115511  15.3746581537356 1.34929825657895  L 14.0903121135057 2.62776628289474  Z M 18.7662545775862 2.62776628289474  L 20.0506006178161 3.89857881578947  C 20.126820898493 3.98070751662337  20.126820898493 4.10735899653453  20.0506006178161 4.18948769736842  C 19.9706556761623 4.26434865295944  19.8459898568837 4.26434865295944  19.7660449152299 4.18948769736842  L 18.481698875 2.91101967105263  L 17.1973528347701 4.18948769736842  C 17.1174078931163 4.26434865295944  16.9927420738377 4.26434865295944  16.9127971321839 4.18948769736842  C 16.836576851507 4.10735899653453  16.836576851507 3.98070751662337  16.9127971321839 3.89857881578947  L 18.1971431724138 2.62776628289474  L 16.9127971321839 1.34929825657895  C 16.8375919675668 1.26971919115511  16.8375919675668 1.14562390095015  16.9127971321839 1.06604483552631  C 16.9492365047308 1.02613783536793  17.0008986555481 1.00338591213587  17.055074983477 1.00338591213587  C 17.109251311406 1.00338591213587  17.1609134622232 1.02613783536793  17.1973528347701 1.06604483552632  L 18.481698875 2.34451286184211  L 19.7660449152299 1.06604483552631  C 19.8024842877768 1.02613783536793  19.854146438594 1.00338591213587  19.908322766523 1.00338591213587  C 19.962499094452 1.00338591213587  20.0141612452692 1.02613783536793  20.0506006178161 1.06604483552632  C 20.1258057824332 1.14562390095015  20.1258057824332 1.26971919115511  20.0506006178161 1.34929825657895  L 18.7662545775862 2.62776628289474  Z " fill-rule="nonzero" fill="#6e98fa" stroke="none" transform="matrix(1 0 0 1 1325 598 )" />
  </g>
</svg>