<?xml version="1.0" encoding="utf-8"?>
<svg version="1.1" xmlns:xlink="http://www.w3.org/1999/xlink" width="30px" height="35px" xmlns="http://www.w3.org/2000/svg">
  <g transform="matrix(1 0 0 1 -1322 -589 )">
    <path d="M 15.0278953319421 0.271314863516922  C 15.0185935223909 0.271314863516922  15.0092917149033 0.271323742994555  14.999989921875 0.271341501937984  C 14.9906881176074 0.271323742951639  14.9813862988816 0.27131486345255  14.972084478091 0.27131486345255  C 6.79540673826468 0.27131486345255  0.166899757108847 6.98546146968792  0.166899757108847 15.2677810407781  C 0.166899757108847 22.0411017126153  4.64923320512683 27.9736577848616  11.1038886495536 29.7433439631783  C 12.9598066211076 30.99059529078  14.3355157280161 32.8467148000741  14.999989921875 35  C 15.6644641071153 32.8467148051148  17.0401732016951 30.9905952965037  18.8960911607143 29.7433439631783  C 25.3507466050251 27.9736577847781  29.8330800529242 22.0411017125882  29.8330800529242 15.2677810408425  C 29.8330800529242 6.98546146975229  23.2045730717684 0.271314863516922  15.0278953319421 0.271314863516922  Z M 14.2207696540179 2.7575977374031  L 14.5636265625 1.66048783914729  C 14.5774614064516 1.60610291554923  14.6250909961019 1.56750695662082  14.680509609375 1.56577332848837  L 15.3194702008929 1.56577332848837  C 15.3748888141659 1.56750695662082  15.4225184038163 1.60610291554924  15.4363532477679 1.66048783914729  L 15.77921015625 2.7575977374031  C 15.7833485182056 2.77033632125943  15.7854573259448 2.78366128032149  15.7854573259448 2.79707183401654  C 15.7854573259448 2.86620728516886  15.7305754896604 2.92249141736993  15.662327109375 2.92334817344961  L 14.3454448995536 2.92334817344961  C 14.3433477484523 2.92345559138277  14.3412482528811 2.92350932606326  14.3391484222024 2.92350932606326  C 14.2702921854117 2.92350932606326  14.2144731766667 2.86696914149475  14.2144731766667 2.79722328924155  C 14.2144731766667 2.78375923774227  14.2165988416632 2.77038181353955  14.2207696540179 2.7575977374031  Z M 12.731418028521 7.00396704603035  C 12.731418028521 6.9664939791943  12.7370234375981 6.92923721271687  12.7480434040179 6.89346525678295  L 13.7220687053571 3.68895723352713  C 13.7676790000252 3.53203721100981  13.9112537289068 3.42538876005241  14.0727178125 3.42849228682171  L 15.9272619977679 3.42849228682171  C 16.0887260813611 3.42538876005241  16.2323008102427 3.53203721100981  16.2779111049107 3.68895723352713  L 17.25193640625 6.89346525678295  C 17.2629563726697 6.92923721271688  17.2685617817468 6.96649397919429  17.2685617817468 7.00396704603035  C 17.2685617817468 7.20884547063486  17.1045934566753 7.37493224951872  16.9023282772825 7.37493224951872  C 16.9019812840316 7.37493224951872  16.9016342909563 7.37493175000164  16.9012872991071 7.37493075096899  L 13.0986925111607 7.37493075096899  C 13.0983455193118 7.37493175000164  13.097998526236 7.37493224951872  13.0976515329853 7.37493224951872  C 12.8953863535926 7.37493224951872  12.731418028521 7.20884547063486  12.731418028521 7.00396704603035  Z M 8.42811985283639 17.7303799205037  C 8.42811985283639 17.8242316751217  8.41336515385345 17.9174846924502  8.38441001116072 18.0066359544574  L 7.41038467633929 20.9743576841085  C 7.28999967378426 21.3371718530855  6.95449456893612 21.5817294683554  6.57661901785715 21.5821092151163  L 2.96103706473214 21.5821092151163  C 2.48023443380397 21.5804108874954  2.09135375223261 21.1851298787168  2.09135375223261 20.6981123662791  C 2.09135375223261 20.6042605996984  2.10610845497663 20.5110075706372  2.13506360491071 20.4218562984496  L 3.10908890625 17.4541345687985  C 3.22947392429237 17.0913204014064  3.56497904366538 16.846762799017  3.94285459821429 16.8463830717054  L 7.55843655133929 16.8463830717054  C 8.0392391779527 16.8480814054509  8.42811985283639 17.2433624124151  8.42811985283639 17.7303799205037  Z M 20.8939081661554 26.1363112789689  C 20.8939081661554 26.6705930225782  20.467706651782 27.1044590119329  19.9402462834821 27.1071230717054  L 10.0597335267857 27.1071230717054  C 9.53227315848588 27.1044590119329  9.10607164411244 26.6705930225782  9.10607164411244 26.1363112789689  C 9.10607164411244 26.0400082462914  9.1202179316997 25.9442411576127  9.14804584821429 25.8521556443798  L 11.672719453125 17.5251704602713  C 11.7982763672843 17.1219635137527  12.1670123196063 16.8474250725408  12.5844071316964 16.8463830717054  L 17.4155726785714 16.8463830717054  C 17.8329674906615 16.8474250725408  18.2017034429836 17.1219635137527  18.3272603571429 17.5251704602713  L 20.8519339620536 25.8521556443798  C 20.8797618785682 25.9442411576127  20.8939081661554 26.0400082462914  20.8939081661554 26.1363112789689  Z M 27.9086260580352 20.6981123662791  C 27.9086260580352 21.1851298787168  27.5197453764639 21.5804108874954  27.0389427455357 21.5821092151163  L 23.4233607924107 21.5821092151163  C 23.0454852413317 21.5817294683554  22.7099801364836 21.3371718530855  22.5895951339286 20.9743576841085  L 21.6155697991071 18.0066359544574  C 21.5866146564144 17.9174846924502  21.5718599574315 17.8242316751217  21.5718599574315 17.7303799205037  C 21.5718599574315 17.2433624124151  21.9607406323152 16.8480814054509  22.4415432589286 16.8463830717054  L 26.0571252120536 16.8463830717054  C 26.4350007666025 16.846762799017  26.7705058859755 17.0913204014064  26.8908909040179 17.4541345687985  L 27.8649162053571 20.4218562984496  C 27.8938713552912 20.5110075706372  27.9086260580352 20.6042605996985  27.9086260580352 20.6981123662791  Z M 28.3595231255102 14.9659921804282  C 28.3595231255102 15.5275258620937  27.9409279103118 15.9984154832795  27.3895918526786 16  L 2.820777421875 16  C 2.26852965968052 16.004251695612  1.84658670690329 15.5345794357274  1.84658670690329 14.9727062209725  C 1.84658670690329 14.8009332483603  1.88669449626749 14.6315955387332  1.96363516741071 14.4785199660853  L 4.45713994419643 8.77986283430232  C 4.59923279211366 8.4189242889023  4.93867180068441 8.17731786739249  5.32207443080357 8.16421843023256  L 24.88829484375 8.16421843023256  C 25.2698077396723 8.1759761398207  25.6087332687737 8.41412424513786  25.7532293303571 8.77196996124031  L 28.2467341071429 14.4785199660853  C 28.3209216822695 14.6300328932673  28.3595231255102 14.7968676728033  28.3595231255102 14.9659921804282  Z " fill-rule="nonzero" fill="#6e98fa" stroke="none" transform="matrix(1 0 0 1 1322 589 )" />
  </g>
</svg>