<?xml version="1.0" encoding="utf-8"?>
<svg version="1.1" xmlns:xlink="http://www.w3.org/1999/xlink" width="15px" height="16px" xmlns="http://www.w3.org/2000/svg">
  <g transform="matrix(1 0 0 1 -2739 -672 )">
    <path d="M 14.8903301886792 3.36991150442478  C 14.8885613207547 2.26902654867257  13.9935141509434 1.37345132743363  12.8932783018868 1.37345132743363  L 11.4923349056604 1.37345132743363  L 11.4923349056604 0.805309734513274  C 11.4923349056604 0.43716814159292  11.1951650943396 0.139823008849558  10.8272405660377 0.139823008849558  C 10.4593160377358 0.139823008849558  10.1621462264151 0.43716814159292  10.1621462264151 0.805309734513274  L 10.1621462264151 1.37345132743363  L 4.84139150943396 1.37345132743363  L 4.84139150943396 0.805309734513274  C 4.84139150943396 0.43716814159292  4.54422169811321 0.139823008849558  4.17629716981132 0.139823008849558  C 3.80837264150943 0.139823008849558  3.51120283018868 0.43716814159292  3.51120283018868 0.805309734513274  L 3.51120283018868 1.37345132743363  L 2.10672169811321 1.37345132743363  C 1.0064858490566 1.37345132743363  0.111438679245282 2.26902654867257  0.111438679245282 3.36991150442478  L 0.111438679245282 13.9982300884956  C 0.111438679245282 15.0991150442478  1.0064858490566 15.9946902654867  2.10672169811321 16  L 12.8950471698113 16  C 13.9952830188679 15.9946902654867  14.8903301886792 15.0991150442478  14.8903301886792 13.9982300884956  L 14.8903301886792 3.36991150442478  Z M 1.44162735849057 3.36991150442478  C 1.44162735849057 3.00353982300885  1.73879716981132 2.70442477876106  2.10672169811321 2.70442477876106  L 3.51120283018868 2.70442477876106  L 3.51120283018868 3.55044247787611  C 3.51120283018868 3.91858407079646  3.80837264150943 4.21592920353982  4.17629716981132 4.21592920353982  C 4.54422169811321 4.21592920353982  4.84139150943396 3.91858407079646  4.84139150943396 3.55044247787611  L 4.84139150943396 2.70442477876106  L 10.1621462264151 2.70442477876106  L 10.1621462264151 3.55044247787611  C 10.1621462264151 3.91858407079646  10.4593160377358 4.21592920353982  10.8272405660377 4.21592920353982  C 11.1951650943396 4.21592920353982  11.4923349056604 3.91858407079646  11.4923349056604 3.55044247787611  L 11.4923349056604 2.70442477876106  L 12.8932783018868 2.70442477876106  C 13.2594339622642 2.70442477876106  13.5583726415094 3.00353982300885  13.5583726415094 3.36991150442478  L 13.5583726415094 5  L 1.44162735849057 5  L 1.44162735849057 3.36991150442478  Z M 13.560141509434 14  C 13.5583726415094 14.3646017699115  13.2612028301887 14.6637168141593  12.8932783018868 14.6637168141593  L 2.10672169811321 14.6637168141593  C 1.74056603773585 14.6637168141593  1.44162735849057 14.3646017699115  1.44162735849057 13.9982300884956  L 1.44162735849057 6.26194690265487  L 13.560141509434 6.26194690265487  L 13.560141509434 14  Z M 11.9716981132075 8.49380530973451  C 11.9716981132075 8.12566371681416  11.6727594339623 7.8283185840708  11.3066037735849 7.8283185840708  L 3.32370283018868 7.8283185840708  C 2.95577830188679 7.8283185840708  2.65860849056604 8.12566371681416  2.65860849056604 8.49380530973451  C 2.65860849056604 8.86194690265487  2.95577830188679 9.15929203539823  3.32370283018868 9.15929203539823  L 11.3066037735849 9.15929203539823  C 11.6745283018868 9.15929203539823  11.9716981132075 8.86194690265487  11.9716981132075 8.49380530973451  Z M 11.9716981132075 11.716814159292  C 11.9716981132075 11.3486725663717  11.6727594339623 11.0513274336283  11.3066037735849 11.0513274336283  L 3.32370283018868 11.0513274336283  C 2.95577830188679 11.0513274336283  2.65860849056604 11.3486725663717  2.65860849056604 11.716814159292  C 2.65860849056604 12.0849557522124  2.95577830188679 12.3823008849558  3.32370283018868 12.3823008849558  L 11.3066037735849 12.3823008849558  C 11.6745283018868 12.3823008849558  11.9716981132075 12.0849557522124  11.9716981132075 11.716814159292  Z " fill-rule="nonzero" fill="#007cfd" stroke="none" transform="matrix(1 0 0 1 2739 672 )" />
  </g>
</svg>