<?xml version="1.0" encoding="utf-8"?>
<svg version="1.1" xmlns:xlink="http://www.w3.org/1999/xlink" width="30px" height="30px" xmlns="http://www.w3.org/2000/svg">
  <g transform="matrix(1 0 0 1 -1235 -499 )">
    <path d="M 29.2222222321429 16.2500000097656  C 29.2222222321429 17.0000000097656  28.7142857142857 17.5000000195313  27.952380952381 17.4999999902344  C 27.1904761904762 17.4999999902344  26.6825396726191 16.9999999804688  26.6825396726191 16.2500000097656  L 26.6825396726191 12.75  C 26.682539672619 9.24999999023438  23.7619047619048 6.24999999023438  20.0793650892857 6.24999999023438  C 16.3968254166667 6.24999999023438  13.4761904761905 9.24999999023438  13.4761904761905 12.75  L 13.4761904761905 13.3749999902344  C 13.4761904761905 15.6249999902344  11.5714285714286 17.3749999804688  9.41269842261905 17.3750000097656  C 7.25396827380952 17.3750000390625  5.34920636904762 15.5000000097656  5.34920633928571 13.3749999902344  L 5.34920633928571 1.25000000976563  C 5.34920633928571 0.500000009765625  5.85714285714286 0  6.61904761904762 0  C 7.38095238095238 0  7.88888889880952 0.500000009765625  8 1.25000000976563  L 8 13.5  C 7.88888889880952 14.3750000097656  8.65079366071429 15  9.41269842261905 15  C 10.1746031845238 15  10.9365079464286 14.25  10.9365079464286 13.5  L 10.9365079464286 12.8750000097656  C 10.9365079464286 7.875  15 3.75  20.0793650892857 3.75  C 25.1587301785714 3.75  29.2222222321429 7.875  29.2222222321429 12.75  L 29.2222222321429 16.2500000097656  Z M 18.5555555654762 13.3749999902344  C 18.5555555654762 18.375  14.365079375 22.5  9.28571428571429 22.5  C 4.20634919642857 22.5  0.142857142857143 18.375  0.142857142857143 13.5  L 0.142857142857143 1.25000000976563  C 0.142857142857143 0.500000009765625  0.650793660714286 0  1.41269842261905 0  C 2.17460318452381 0  2.68253970238095 0.500000009765625  3 1.25000000976563  L 3 13.5  C 2.68253967261905 17.1249999902344  5.7301587202381 20.0000000097656  9.28571428571429 20.0000000097656  C 12.8412698511905 20.0000000097656  15.8888888988095 17.0000000097656  15.8888888988095 13.5  L 15.8888888988095 12.8750000097656  C 16.0158730059524 10.6250000097656  17.7936508035714 8.75000000976562  20.0793650892857 8.75000000976562  C 22.365079375 8.75000000976562  24.1428571428571 10.6250000097656  24.1428571428571 12.75  L 24.1428571428571 16.2500000097656  C 24.1428571428571 17.0000000097656  23.634920625 17.5000000195313  22.8730158630952 17.4999999902344  C 22.1111111011905 17.4999999609375  21.6031745833333 16.9999999804687  21.6031746130952 16.2500000097656  L 21.6031746130952 12.75  C 21.6031746130952 12  20.9682539880952 11.25  20.0793650892857 11.25  C 19.1904761904762 11.25  18.5555555654762 12  18.5555555654762 12.75  L 18.5555555654762 13.3749999902344  Z M 29.8571428571429 25.5  C 29.9841269940476 27.9999999902344  27.952380952381 30  25.412698422619 30  C 23 30  20.9682539880952 27.9999999902344  20.9682539583333 25.5  C 20.9682539583333 21.8750000097656  24.5238095238095 19.125  24.6507936607143 18.9999999902344  C 25.1587301785714 18.6249999902344  25.7936508035714 18.6249999902344  26.1746031845238 18.9999999902344  C 26.3015873214286 19.125  29.8571428571429 21.8749999804688  29.8571428571429 25.5  Z M 27.317460327381 25.5  C 27.4444444642857 23.8749999902344  26.3015873214286 22.5  25.412698422619 21.75  C 24.6507936607143 22.5  23.5079365178571 24  23.5079365178571 25.5  C 23.5079365178571 26.625  24.3968254166667 27.5000000097656  25.412698422619 27.5000000097656  C 26.4285714285714 27.5000000097656  27.317460327381 26.625  27.317460327381 25.5  Z " fill-rule="nonzero" fill="#000000" stroke="none" transform="matrix(1 0 0 1 1235 499 )" />
  </g>
</svg>