<?xml version="1.0" encoding="utf-8"?>
<svg version="1.1" xmlns:xlink="http://www.w3.org/1999/xlink" width="32px" height="32px" xmlns="http://www.w3.org/2000/svg">
  <g transform="matrix(1 0 0 1 -1118 -621 )">
    <path d="M 3 6.65824561403509  L 1.26877192982456 6.65824561403509  C 0.67346710474379 6.65824561403509  0.190877192982456 6.17565570227375  0.190877192982456 5.58035087719298  C 0.190877192982456 4.98504605211221  0.67346710474379 4.50245614035088  1.26877192982456 4.50245614035088  C 1.26877192982456 4.50245614035088  1.26877192982456 4.50245614035088  1.26877192982456 5  L 30.7312280701754 5  C 30.7312280701754 4.50245614035088  30.7312280701754 4.50245614035088  30.7312280701754 4.50245614035088  C 31.3265328952562 4.50245614035088  31.8091228070175 4.98504605211221  31.8091228070175 5.58035087719298  C 31.8091228070175 6.17565570227375  31.3265328952562 6.65824561403509  30.7312280701754 6.65824561403509  L 29 6.65824561403509  L 29 27.4975438596491  C 28.9347368421053 29.8787631599722  27.0043771950599 31.8091228070175  24.6231578947368 31.8091228070175  L 7.37684210526316 31.8091228070175  C 4.99562280494007 31.8091228070175  3.06526315789474 29.8787631599722  3 27.4975438596491  L 3 6.65824561403509  Z M 11.3291228070175 0.190877192982456  L 20.6708771929825 0.190877192982456  C 21.2661820180632 0.190877192982456  21.7487719298246 0.67346710474379  21.7487719298246 1.26877192982456  C 21.7487719298246 1.86407675490533  21.2661820180632 2.34666666666667  20.6708771929825 2.34666666666667  L 11.3291228070175 2.34666666666667  C 10.7338179819368 2.34666666666667  10.2512280701754 1.86407675490533  10.2512280701754 1.26877192982456  C 10.2512280701754 0.67346710474379  10.7338179819368 0.190877192982456  11.3291228070175 0.190877192982456  Z " fill-rule="nonzero" fill="#000000" stroke="none" transform="matrix(1 0 0 1 1118 621 )" />
  </g>
</svg>