<?xml version="1.0" encoding="utf-8"?>
<svg version="1.1" xmlns:xlink="http://www.w3.org/1999/xlink" width="17px" height="18px" xmlns="http://www.w3.org/2000/svg">
  <g transform="matrix(1 0 0 1 -1318 -655 )">
    <path d="M 16.724558435 17.3445308823529  C 16.7237590150117 17.5163545618528  16.5892085306227 17.6551281297545  16.42368334 17.6548494264706  L 9.5040400175 17.6548494264706  C 9.33851482687725 17.6551281297545  9.20396434248827 17.5163545618528  9 17.3445308823529  L 9 2.04452086764706  C 9.20422937892775 1.70142781617955  9.47246241725205 1.42388052937517  9.80297710426571 1.42388052937517  C 9.80362310827499 1.42388052937517  9.80426911186267 1.42388161272212  9.8049151125 1.42388377941177  L 14.9193079075 4.21524432352941  C 15.2503892430184 4.21413287049558  15.5197248040313 4.49169720709415  15.5210580975 4.83537926470588  L 15.5210580975 15.6905028970588  L 16.42368334 15.6905028970588  C 16.5892085306227 15.6902241937749  16.7237590150117 15.8289977616766  16.724558435 16.0008214411765  L 16.724558435 17.3445308823529  Z M 12.4433783336318 5.66615929411765  C 12.4368468312359 5.66615929411765  12.4303155775938 5.66624297696167  12.423786065 5.66641032352941  L 12.1974041625 5.66641032352941  C 12.1908746499062 5.66624297696167  12.1843433962641 5.66615929411765  12.1778118938682 5.66615929411765  C 11.7394149973265 5.66615929411765  11.3840240938682 6.0350771869809  11.3840240938682 6.49016047058824  C 11.3840240938682 6.94524375419558  11.7394149973265 7.31416164705883  12.1778118938682 7.31416164705883  C 12.1843433962641 7.31416164705883  12.1908746499062 7.31407796421481  12.1974041625 7.31391061764706  L 12.423786065 7.31391061764706  C 12.4303155775938 7.31407796421481  12.436846831236 7.31416164705883  12.4433783336318 7.31416164705883  C 12.8817752301735 7.31416164705883  13.2371661336318 6.94524375419558  13.2371661336318 6.49016047058824  C 13.2371661336318 6.0350771869809  12.8817752301735 5.66615929411765  12.4433783336318 5.66615929411765  Z M 13.217573865 9.90040063235294  C 13.217573865 9.44254414021451  12.86001726326 9.07137811764706  12.4189488425 9.07137811764706  L 12.202241385 9.07137811764706  C 11.76117292174 9.07137811764706  11.40361632 9.44254414021451  11.40361632 9.90040063235294  L 11.40361632 9.90592411764706  C 11.40361632 10.3637806097855  11.76117292174 10.7349466323529  12.2022413425 10.7349466323529  L 12.4194325775 10.7349466323529  C 12.86050099826 10.7349466323529  13.2180576 10.3637806097855  13.2180576 9.90592411764706  L 13.2180576 9.90040063235294  Z M 12.4433783336318 12.4921631029412  C 12.4368468312359 12.4921631029412  12.4303155775938 12.4922467857852  12.423786065 12.4924141323529  L 12.1974041625 12.4924141323529  C 12.1908746499062 12.4922467857852  12.1843433962641 12.4921631029412  12.1778118938682 12.4921631029412  C 11.7394149973265 12.4921631029412  11.3840240938682 12.8610809958044  11.3840240938682 13.3161642794118  C 11.3840240938682 13.7712475630191  11.7394149973265 14.1401654558824  12.1778118938682 14.1401654558824  C 12.1843433962641 14.1401654558824  12.1908746499062 14.1400817730383  12.1974041625 14.1399144264706  L 12.423786065 14.1399144264706  C 12.4303155775938 14.1400817730383  12.436846831236 14.1401654558824  12.4433783336318 14.1401654558824  C 12.8817752301735 14.1401654558824  13.2371661336318 13.7712475630191  13.2371661336318 13.3161642794118  C 13.2371661336318 12.8610809958044  12.8817752301735 12.4921631029412  12.4433783336318 12.4921631029412  Z M 8.501284265 17.3445308823529  C 8.50048484501173 17.5163545618528  8.36593436062275 17.6551281297545  8.20040917 17.6548494264706  L 0.578885190000001 17.6548494264706  C 0.412658824610706 17.6548510515601  0.278542311493477 17.5160774045797  0.278010095000001 17.3445308823529  L 0.278010095000001 16.0008214411765  C 0.27854231149348 15.8292749189497  0.412658824610706 15.6905012719694  0.577916164701406 15.6905012719694  L 1.481510475 15.6905028970588  L 1.481510475 3.80198836764706  C 1.48257493142775 3.45889531617955  1.75080796975205 3.18134802937517  2.08132265676572 3.18134802937517  C 2.08196866077478 3.18134802937517  2.0826146643629 3.18134911272211  2.083260665 3.18135127941177  L 7.8995341175 0.0801743382352947  C 8.23061543644629 0.0790629096088653  8.49995097152243 0.356627239081965  8.501284265 0.700309279411765  L 8.501284265 17.3445308823529  Z M 5.11208753363176 5.66615929411765  C 5.10555603123595 5.66615929411765  5.0990247775938 5.66624297696167  5.092495265 5.66641032352941  L 4.881108765 5.66641032352941  C 4.87457925240621 5.66624297696167  4.86804799876406 5.66615929411765  4.86151649636825 5.66615929411765  C 4.42311959982651 5.66615929411765  4.06772869636824 6.0350771869809  4.06772869636824 6.49016047058824  C 4.06772869636824 6.94524375419558  4.42311959982651 7.31416164705883  4.86151649636825 7.31416164705883  C 4.86804799876406 7.31416164705883  4.87457925240621 7.31407796421481  4.881108765 7.31391061764706  L 5.092495265 7.31391061764706  C 5.0990247775938 7.31407796421481  5.10555603123595 7.31416164705883  5.11208753363176 7.31416164705883  C 5.5504844301735 7.31416164705883  5.90587533363176 6.94524375419558  5.90587533363176 6.49016047058824  C 5.90587533363176 6.0350771869809  5.5504844301735 5.66615929411765  5.11208753363176 5.66615929411765  Z M 5.8862831075 9.90592411764706  L 5.8862831075 9.90040063235294  C 5.8862831075 9.44254414021451  5.52872650576003 9.07137811764706  5.087658085 9.07137811764706  L 4.8859459875 9.07137811764706  C 4.44487752423998 9.07137811764706  4.08732092250001 9.44254414021451  4.08732092250001 9.90040063235294  L 4.0873209225 9.90592411764706  C 4.0873209225 10.3637806097855  4.44487752423998 10.7349466323529  4.88594594500001 10.7349466323529  L 5.0876580425 10.7349466323529  C 5.52872650576003 10.7349466323529  5.8862831075 10.3637806097855  5.8862831075 9.90592411764706  Z M 5.11208753363176 12.4921631029412  C 5.10555603123595 12.4921631029412  5.0990247775938 12.4922467857852  5.092495265 12.4924141323529  L 4.881108765 12.4924141323529  C 4.87457925240621 12.4922467857852  4.86804799876406 12.4921631029412  4.86151649636825 12.4921631029412  C 4.42311959982651 12.4921631029412  4.06772869636824 12.8610809958044  4.06772869636824 13.3161642794118  C 4.06772869636824 13.7712475630191  4.42311959982651 14.1401654558824  4.86151649636825 14.1401654558824  C 4.86804799876406 14.1401654558824  4.87457925240621 14.1400817730383  4.881108765 14.1399144264706  L 5.092495265 14.1399144264706  C 5.0990247775938 14.1400817730383  5.10555603123595 14.1401654558824  5.11208753363176 14.1401654558824  C 5.5504844301735 14.1401654558824  5.90587533363176 13.7712475630191  5.90587533363176 13.3161642794118  C 5.90587533363176 12.8610809958044  5.5504844301735 12.4921631029412  5.11208753363176 12.4921631029412  Z " fill-rule="nonzero" fill="#ffffff" stroke="none" transform="matrix(1 0 0 1 1318 655 )" />
  </g>
</svg>