<?xml version="1.0" encoding="utf-8"?>
<svg version="1.1" xmlns:xlink="http://www.w3.org/1999/xlink" width="30px" height="30px" xmlns="http://www.w3.org/2000/svg">
  <g transform="matrix(1 0 0 1 -1213 -484 )">
    <path d="M 20.2767857142857 28.0178571428571  L 20.2767857142857 27.0569196428571  L 21.2377232142857 27.0569196428571  L 21.2377232142857 28.0178571428571  L 20.2767857142857 28.0178571428571  Z M 22.2020089285714 28.0178571428571  L 22.2020089285714 27.0569196428571  L 23.1629464285714 27.0569196428571  L 23.1629464285714 28.0178571428571  L 22.2020089285714 28.0178571428571  Z M 24.1238839285714 28.0178571428571  L 24.1238839285714 27.0569196428571  L 25.0848214285714 27.0569196428571  L 25.0848214285714 28.0178571428571  L 24.1238839285714 28.0178571428571  Z M 20.7555803571429 18.3950892857143  L 20.7555803571429 17.4341517857143  L 21.7165178571429 17.4341517857143  L 21.7165178571429 18.3950892857143  L 20.7555803571429 18.3950892857143  Z M 11.6149553571429 23.6886160714286  L 11.6149553571429 22.7276785714286  L 12.5758928571429 22.7276785714286  L 12.5758928571429 23.6886160714286  L 11.6149553571429 23.6886160714286  Z M 17.3872767857143 20.3203125  L 17.3872767857143 16.4698660714286  L 22.6808035714286 16.4698660714286  L 22.6808035714286 20.3203125  L 17.3872767857143 20.3203125  Z M 16.4263392857143 15.5089285714286  L 16.4263392857143 21.2845982142857  L 23.6450892857143 21.2845982142857  L 23.6450892857143 15.5089285714286  L 16.4263392857143 15.5089285714286  Z M 28.9352678571429 10.0011160714286  L 28.9386160714286 13.6707589285714  L 23.6551339285714 10.3225446428571  C 23.9631696428571 10.2522321428571  24.28125 10.2120535714286  24.609375 10.2120535714286  L 24.609375 9.25111607142857  C 22.2220982142857 9.25111607142857  20.2767857142857 7.30915178571429  20.2767857142857 4.91852678571429  L 19.3158482142857 4.91852678571429  C 19.3158482142857 5.7421875  19.0814732142857 6.51227678571429  18.6796875 7.16852678571429  L 14.9866071428571 4.828125  L 1.03125 13.6674107142857  L 1.03125 9.99776785714286  L 6.83035714285714 6.26450892857143  C 7.11495535714286 6.71316964285714  7.28236607142857 7.23883928571428  7.28236607142857 7.80803571428571  L 8.24330357142857 7.80803571428571  C 8.24330357142857 6.21428571428571  9.5390625 4.921875  11.1294642857143 4.921875  L 11.1294642857143 3.9609375  C 10.9587053571429 3.9609375  10.7946428571429 3.94419642857143  10.6339285714286 3.9140625  L 14.9799107142857 1.16183035714286  L 28.9352678571429 10.0011160714286  Z M 17.1863839285714 9.73325892857143  C 18.3348214285714 9.20424107142857  19.265625 8.27678571428572  19.7946428571429 7.125  C 20.3236607142857 8.27678571428571  21.2511160714286 9.20424107142857  22.4029017857143 9.73325892857143  C 21.2544642857143 10.2622767857143  20.3236607142857 11.1897321428571  19.7946428571429 12.3415178571429  C 19.265625 11.1897321428571  18.3381696428571 10.2622767857143  17.1863839285714 9.73325892857143  Z M 26 12.9810267857143  L 26 29  L 15 29  L 15 15.5089285714286  L 7 15.5089285714286  L 7 28.9821428571429  L 3.9140625 28.9821428571429  L 3.9140625 23.2098214285714  C 3.9140625 21.8839285714286  4.9921875 20.8024553571429  6.32142857142857 20.8024553571429  L 6.32142857142857 19.8415178571429  C 4.99553571428572 19.8415178571429  3.9140625 18.7633928571429  3.9140625 17.4341517857143  L 3.9140625 12.984375  L 14.9832589285714 5.97321428571429  L 18.0870535714286 7.93861607142857  C 17.3002232142857 8.74888392857143  16.2020089285714 9.25446428571429  14.9832589285714 9.25446428571429  L 14.9832589285714 10.21875  C 17.3705357142857 10.21875  19.3158482142857 12.1607142857143  19.3158482142857 14.5513392857143  L 20.2767857142857 14.5513392857143  C 20.2767857142857 12.9174107142857  21.1875 11.4910714285714  22.5267857142857 10.7544642857143  L 26 12.9810267857143  Z M 14 16.4698660714286  L 14 28.9821428571429  L 8 28.9821428571429  L 8 16.4698660714286  L 14 16.4698660714286  Z M 3.43526785714286 21.4754464285714  C 3.14732142857143 21.0033482142857  2.75223214285714 20.6049107142857  2.28013392857143 20.3203125  C 2.75223214285714 20.0357142857143  3.15066964285714 19.6372767857143  3.43526785714286 19.1651785714286  C 3.71986607142857 19.6372767857143  4.11830357142857 20.0357142857143  4.59040178571429 20.3203125  C 4.11830357142857 20.6049107142857  3.71986607142857 21.0033482142857  3.43526785714286 21.4754464285714  Z M 6.25446428571429 4.43638392857143  C 6.890625 4.09151785714286  7.41294642857143 3.56584821428571  7.76450892857143 2.93303571428572  C 8.11607142857143 3.56584821428572  8.63839285714286 4.08816964285714  9.27120535714286 4.43973214285714  C 8.63819245532608 4.79149618662788  8.11627297234216 5.3134156696118  7.76450892857143 5.94642857142857  C 7.5703125 5.59821428571429  7.32254464285714 5.28683035714286  7.03459821428571 5.015625  L 7.02120535714286 4.99553571428572  L 7.01450892857143 4.99888392857143  C 6.78348214285714 4.78459821428571  6.53236607142857 4.59040178571429  6.25446428571429 4.43638392857143  Z M 29.8995535714286 9.46875  L 14.9832589285714 0.0200892857142865  L 9.53236607142857 3.47209821428571  C 8.75558035714286 2.953125  8.24665178571429 2.07254464285714  8.24665178571429 1.07142857142857  L 7.28571428571429 1.07142857142857  C 7.28571428571429 2.66517857142857  5.98995535714286 3.95758928571429  4.39955357142857 3.95758928571429  L 4.39955357142857 4.921875  C 5.07254464285714 4.921875  5.68861607142857 5.15625  6.18080357142857 5.54129464285714  L 0.0636160714285716 9.47209821428571  L 0.0636160714285716 15.421875  L 2.94977678571429 13.59375  L 2.94977678571429 17.4341517857143  C 2.94977678571429 18.7600446428571  1.87165178571429 19.8415178571429  0.542410714285715 19.8415178571429  L 0.542410714285715 20.8024553571429  C 1.86830357142857 20.8024553571429  2.94977678571429 21.8805803571429  2.94977678571429 23.2098214285714  L 2.94977678571429 30  L 27 30  L 27 13.59375  L 29.8995535714286 15.421875  L 29.8995535714286 9.46875  Z " fill-rule="nonzero" fill="#000000" stroke="none" transform="matrix(1 0 0 1 1213 484 )" />
  </g>
</svg>