<?xml version="1.0" encoding="utf-8"?>
<svg version="1.1" xmlns:xlink="http://www.w3.org/1999/xlink" width="30px" height="30px" xmlns="http://www.w3.org/2000/svg">
  <g transform="matrix(1 0 0 1 -1378 -475 )">
    <path d="M 16.7032565789474 17.4118092105263  L 16.7032565789474 17.4150986842105  L 13.4683881578947 17.4150986842105  L 13.4683881578947 23.8746052631579  L 10.2336184210526 23.8746052631579  L 10.2336184210526 7.72424342105263  L 16.7032565789474 7.72424342105263  C 19.8976644736842 7.72424342105263  21.4525986842105 9.9425  21.4525986842105 12.5679934210526  C 21.4525986842105 15.1935526315789  20.2274342105263 17.4118092105263  17.0297368421053 17.4118092105263  L 16.7032565789474 17.4118092105263  Z M 29.8206578947368 15.0015789473684  C 29.8206578947368 6.82546052631579  23.1861184210526 0.201052631578947  14.9999671052632 0.201052631578947  C 6.81371710526316 0.201052631578947  0.179210526315791 6.82546052631579  0.179210526315791 15.0015789473684  C 0.179210526315791 23.1744078947368  6.81371710526316 29.8022039473684  14.9999671052632 29.8022039473684  C 23.1861184210526 29.8022039473684  29.8206578947368 23.1744407894737  29.8206578947368 15.0015789473684  Z M 16.7032565789474 10.9522697368421  L 13.4683881578947 10.9522697368421  L 13.4683881578947 14.1836842105263  L 16.7032565789474 14.1836842105263  C 18.0697039473684 14.1836842105263  18.3188815789474 13.826875  18.3188815789474 12.5679934210526  C 18.3188815789474 11.3091118421053  18.3963486842105 10.9523026315789  17.0262828947368 10.9523026315789  L 16.7032565789474 10.9523026315789  Z " fill-rule="nonzero" fill="#000000" stroke="none" transform="matrix(1 0 0 1 1378 475 )" />
  </g>
</svg>