<?xml version="1.0" encoding="utf-8"?>
<svg version="1.1" xmlns:xlink="http://www.w3.org/1999/xlink" width="30px" height="45px" xmlns="http://www.w3.org/2000/svg">
  <g transform="matrix(1 0 0 1 -1312 -650 )">
    <path d="M 29.886808564209 15.2362492276991  C 29.886808564209 19.7650508012427  27.825548667373 24.0476513176791  24.2860009883721 26.8728320058139  C 24.1751178819641 26.9694475528868  24.059150371412 27.060067882275  23.938594622093 27.1443052761628  C 23.8844984738372 27.1850014534884  23.8289134883721 27.2237124418605  23.7738247674419 27.263416002907  C 15.8747965552326 32.8457400436047  15.0712952616279 39.363083502907  15.0028065261628 41.0956487354651  C 15.0028065261628 41.077782122093  15.0028065261628 41.0628932703488  14.9993325 41.0460192296512  C 14.5253709593023 34.0075662209302  8.84924720930232 29.1845732267442  6.8000458866279 27.6649185174419  C 2.62285299786665 24.9096528152163  0.109119901418303 20.2402905464512  0.109119901418303 15.2362492276991  C 0.109119901418303 7.0133675608648  6.77508256597934 0.347404896303762  14.9979642328137 0.347404896303762  C 23.220845899648 0.347404896303762  29.886808564209 7.0133675608648  29.886808564209 15.2362492276991  Z M 15.0047917151163 41.094656119186  C 15.5775159593023 49.6105787790698  15.0013176453488 41.5413214534884  15.0013176453488 41.5413214534884  C 15.0013176453488 41.5413214534884  14.9933769331395 41.3810182412791  15.0047917151163 41.094656119186  Z " fill-rule="nonzero" fill="#000000" stroke="none" transform="matrix(1 0 0 1 1312 650 )" />
  </g>
</svg>