<?xml version="1.0" encoding="utf-8"?>
<svg version="1.1" xmlns:xlink="http://www.w3.org/1999/xlink" width="13px" height="14px" xmlns="http://www.w3.org/2000/svg">
  <g transform="matrix(1 0 0 1 -1373 -678 )">
    <path d="M 7.35305365853658 9.46738604651163  C 7.42407804878049 9.31944186046512  7.32464390243902 9.03605581395349  7.21709268292683 8.86519069767442  C 6.77065365853658 8.16506046511628  6.2816 7.49201860465116  5.83516097560975 6.79188837209303  C 5.72558048780488 6.61893953488372  5.65658536585366 6.37722790697674  5.66470243902439 6.17302325581396  C 5.69717073170732 5.39371162790698  5.77834146341464 4.61648372093024  5.82298536585366 3.83717209302326  C 5.86357073170732 3.14746046511628  5.55106341463415 2.79531162790698  4.8793756097561 2.78280930232558  C 4.16101463414634 2.76822325581396  3.4406243902439 2.77030697674419  2.72226341463415 2.78280930232558  C 2.01607804878049 2.79322790697675  1.72386341463415 3.11828837209303  1.7644487804878 3.85175813953489  C 1.80503414634146 4.57480930232558  1.89026341463415 5.29369302325582  1.90852682926829 6.01674418604652  C 1.91461463414634 6.29179534883721  1.8476487804878 6.60852093023256  1.71168780487805 6.84189767441861  C 1.30380487804878 7.55036279069768  0.835043902439022 8.21923720930233  0.417014634146341 8.9214511627907  C 0.321639024390242 9.08189767441861  0.264819512195122 9.3506976744186  0.331785365853658 9.50280930232558  C 0.384546341463415 9.62366511627907  0.652409756097561 9.69451162790698  0.828956097560975 9.70284651162791  C 1.42150243902439 9.72576744186047  2.01607804878049 9.71118139534884  2.68167804878049 9.71118139534884  L 2.68167804878049 10.2196093023256  C 2.68167804878049 11.2135441860465  2.67761951219512 12.2074790697674  2.68370731707317 13.2014139534884  C 2.68573658536585 13.7140093023256  2.8582243902439 13.8932093023256  3.35336585365854 13.9098790697674  C 3.6435512195122 13.9202976744186  3.93373658536585 13.9182139534884  4.22392195121951 13.9098790697674  C 4.72312195121951 13.897376744186  4.92199024390244 13.6952558139535  4.92604878048781 13.1764093023256  C 4.93416585365854 12.2533209302326  4.92807804878049 11.3302325581395  4.92807804878049 10.4071441860465  L 4.92807804878049 9.71118139534884  C 5.59367804878049 9.71118139534884  6.20042926829268 9.72993488372093  6.8051512195122 9.70076279069768  C 6.99996097560976 9.69242790697675  7.28811707317073 9.60491162790698  7.35305365853658 9.46738604651163  Z M 2.68573658536585 1.31378604651163  C 2.66950243902439 1.95348837209302  3.12811707317073 2.45983255813954  3.74501463414634 2.47858604651163  C 4.36597073170732 2.49525581395349  4.86922926829268 2.0222511627907  4.89358048780488 1.39713488372093  C 4.91793170731707 0.776186046511628  4.43699512195122 0.249004651162791  3.82618536585366 0.230251162790698  C 3.19914146341463 0.211497674418604  2.70602926829268 0.680334883720929  2.68573658536585 1.31378604651163  Z M 12.9173073170732 3.76632558139535  C 12.9416585365854 3.14329302325582  12.6311804878049 2.79947906976745  12.0224 2.79114418604651  C 10.9712390243902 2.77447441860465  9.9180487804878 2.77447441860465  8.86688780487805 2.79114418604651  C 8.28651707317073 2.80156279069767  7.97603902439024 3.14746046511628  8.0044487804878 3.74965581395349  C 8.06532682926829 5.11240930232558  8.15055609756098 6.47099534883721  8.22563902439024 7.8337488372093  C 8.24390243902439 8.15672558139535  8.41030243902439 8.32550697674419  8.72483902439024 8.33800930232558  C 8.84659512195122 8.34217674418605  8.97038048780487 8.33800930232558  9.14083902439024 8.33800930232558  L 9.14083902439024 8.86727441860465  C 9.14083902439024 10.2883720930233  9.13880975609756 11.7073860465116  9.14286829268292 13.1284837209302  C 9.14489756097561 13.7327627906977  9.31941463414634 13.9077953488372  9.91399024390244 13.9140465116279  C 10.2873756097561 13.9182139534884  10.6607609756098 13.9202976744186  11.0341463414634 13.9140465116279  C 11.6003121951219 13.9036279069767  11.7748292682927 13.726511627907  11.778887804878 13.1451534883721  C 11.7829463414634 12.292911627907  11.7809170731707 11.4406697674419  11.7809170731707 10.5884279069767  L 11.7809170731707 8.36093023255814  C 11.9392 8.35259534883721  12.060956097561 8.34426046511628  12.1827121951219 8.34009302325582  C 12.5195707317073 8.32967441860466  12.6798829268293 8.14839069767442  12.6981463414634 7.80666046511628  C 12.7691707317073 6.46057674418605  12.8523707317073 5.11240930232559  12.9173073170732 3.76632558139535  Z M 9.36405853658536 1.35337674418605  C 9.36202926829268 1.98474418604651  9.81455609756097 2.46608372093023  10.4253658536585 2.4765023255814  C 11.0645853658537 2.48692093023256  11.5455219512195 2.01808372093023  11.5516097560976 1.37629767441861  C 11.5576975609756 0.724093023255815  11.1031414634146 0.240669767441862  10.4679804878049 0.232334883720932  C 9.83687804878049 0.224000000000003  9.36811707317073 0.701172093023257  9.36405853658536 1.35337674418605  Z " fill-rule="nonzero" fill="#ffffff" stroke="none" transform="matrix(1 0 0 1 1373 678 )" />
  </g>
</svg>