<?xml version="1.0" encoding="utf-8"?>
<svg version="1.1" xmlns:xlink="http://www.w3.org/1999/xlink" width="35px" height="33px" xmlns="http://www.w3.org/2000/svg">
  <defs>
    <linearGradient gradientUnits="userSpaceOnUse" x1="17.5" y1="0" x2="17.5" y2="33" id="LinearGradient65">
      <stop id="Stop66" stop-color="#33ffff" offset="0" />
      <stop id="Stop67" stop-color="#6633ff" offset="1" />
    </linearGradient>
  </defs>
  <g transform="matrix(1 0 0 1 -320 -8 )">
    <path d="M 32.5 2.74642392717816  L 32.5 10.9856957087126  C 33.1901041666667 10.9856957087126  33.779296875 11.2539011703511  34.267578125 11.7903120936281  C 34.755859375 12.3267230169051  35 12.9739921976593  35 13.7321196358908  C 35 14.4902470741222  34.755859375 15.1375162548765  34.267578125 15.6739271781534  C 33.779296875 16.2103381014304  33.1901041666667 16.4785435630689  32.5 16.4785435630689  L 32.5 24.7178153446034  C 32.5 25.4616384915475  32.2526041666667 26.1053315994798  31.7578125 26.6488946684005  C 31.2630208333333 27.1924577373212  30.6770833333333 27.4642392717815  30 27.4642392717815  C 24.5703125 22.5006501950585  19.2838541666667 19.7828348504551  14.140625 19.3107932379714  C 13.3854166666667 19.5825747724317  12.79296875 20.0546163849155  12.36328125 20.7269180754226  C 11.93359375 21.3992197659298  11.7317708333333 22.1180104031209  11.7578125 22.8832899869961  C 11.7838541666667 23.6485695708712  12.0442708333333 24.3101430429129  12.5390625 24.8680104031209  C 12.2786458333333 25.3400520156047  12.12890625 25.8085175552666  12.08984375 26.2734070221066  C 12.05078125 26.7382964889467  12.08984375 27.1531209362809  12.20703125 27.5178803641092  C 12.32421875 27.8826397919376  12.5423177083333 28.2760078023407  12.861328125 28.6979843953186  C 13.1803385416667 29.1199609882965  13.4928385416667 29.4775682704811  13.798828125 29.7708062418725  C 14.1048177083333 30.064044213264  14.5052083333333 30.4252275682705  15 30.8543563068921  C 14.6223958333333 31.6840052015605  13.896484375 32.277633289987  12.822265625 32.6352405721717  C 11.748046875 32.9928478543563  10.6510416666667 33.0750975292588  9.53125 32.8819895968791  C 8.41145833333333 32.6888816644993  7.55208333333333 32.2919375812744  6.953125 31.6911573472042  C 6.86197916666667 31.3621586475943  6.669921875 30.7363459037711  6.376953125 29.8137191157347  C 6.083984375 28.8910923276983  5.87565104166667 28.2152145643693  5.751953125 27.7860858257477  C 5.62825520833333 27.3569570871261  5.478515625 26.7204161248374  5.302734375 25.8764629388817  C 5.126953125 25.0325097529259  5.029296875 24.3101430429129  5.009765625 23.7093628088427  C 4.990234375 23.1085825747724  5.01302083333333 22.4040962288687  5.078125 21.5959037711313  C 5.14322916666667 20.787711313394  5.28645833333333 19.9973992197659  5.5078125 19.2249674902471  L 3.125 19.2249674902471  C 2.265625 19.2249674902471  1.52994791666667 18.8888166449935  0.91796875 18.2165149544863  C 0.305989583333329 17.5442132639792  0 16.7360208062419  0 15.7919375812744  L 0 11.6723016905072  C 0 10.7282184655397  0.305989583333329 9.92002600780233  0.91796875 9.24772431729519  C 1.52994791666667 8.57542262678803  2.265625 8.23927178153446  3.125 8.23927178153446  L 12.5 8.23927178153446  C 18.1640625 8.23927178153446  23.9973958333333 5.4928478543563  30 0  C 30.6770833333333 0  31.2630208333333 0.271781534460331  31.7578125 0.815344603381021  C 32.2526041666667 1.35890767230168  32.5 2.00260078023406  32.5 2.74642392717816  Z M 15 16.6287386215865  C 19.9088541666667 17.2295188556567  24.9088541666667 19.668400520156  30 23.9453836150845  L 30 3.47594278283485  C 24.8697916666667 7.79583875162548  19.8697916666667 10.2490247074122  15 10.8355006501951  L 15 16.6287386215865  Z " fill-rule="nonzero" fill="url(#LinearGradient65)" stroke="none" transform="matrix(1 0 0 1 320 8 )" />
  </g>
</svg>