<?xml version="1.0" encoding="utf-8"?>
<svg version="1.1" xmlns:xlink="http://www.w3.org/1999/xlink" width="28px" height="32px" xmlns="http://www.w3.org/2000/svg">
  <g transform="matrix(1 0 0 1 -1880 -7 )">
    <path d="M 12.3228061421569 2.43656105263158  C 12.3228061421569 1.2437450877193  13.3243821323529 0.277313157894737  14.5594625441177 0.277313157894737  C 15.7947536421569 0.277313157894737  16.7957678137255 1.2437450877193  16.7957678137255 2.43656105263158  L 16.7957678137255 14.4479137894737  C 16.7957678137255 15.6403707017544  15.7947536421569 16.6069821403509  14.5594625441177 16.6069821403509  C 13.324346995098 16.6069821403509  12.3228061421569 15.6403707017544  12.3228061421569 14.4479137894737  L 12.3228061421569 2.43656105263158  Z M 14.0001755833333 31.7226509122807  C 6.28037869117647 31.7226509122807  0.0221439852941189 25.6800098596491  0.0221439852941189 18.2264988421053  C 0.0221439852941189 12.4881926315789  3.73823528921569 7.59912287719298  8.96810246568628 5.64683417543859  L 8.96810246568628 10.4513106315789  C 6.28543502450981 12.073520245614  4.49514079411765 14.9449533333333  4.49514079411765 18.2264988421053  C 4.49514079411765 23.295096  8.7509960245098 27.4037601754386  14.0002107205882 27.4037601754386  C 19.2498116519608 27.4037601754386  23.5051050637255 23.2950960350877  23.5051050637255 18.2264988421053  C 23.5051050637255 15.424435122807  22.2008511666667 12.920063754386  20.1505769362745 11.2364916842105  L 20.1505769019608 6.12121740350877  C 24.7821460147059 8.31971  27.9778911519608 12.9071018947368  27.9778911519608 18.2268938245614  C 27.9782071813726 25.6800098596491  21.7199724411765 31.7226509122807  14.0001755833333 31.7226509122807  Z " fill-rule="nonzero" fill="#3192ce" stroke="none" transform="matrix(1 0 0 1 1880 7 )" />
  </g>
</svg>