<?xml version="1.0" encoding="utf-8"?>
<svg version="1.1" xmlns:xlink="http://www.w3.org/1999/xlink" width="32px" height="32px" xmlns="http://www.w3.org/2000/svg">
  <g transform="matrix(1 0 0 1 -1046 -574 )">
    <path d="M 0.233876555555556 22.668641962963  L 0.233876555555556 22  L 10.8246913703704 22  L 10.8404938148148 24.9315555555556  L 7.24543211111111 24.9631604814815  L 7.28809877777778 29  L 19.3769876666667 29  L 20.198716037037 20.3930864074074  L 19.590321 20.3140740740741  C 19.590321 20.3140740740741  17.6071111111111 22.4110617407407  14.3154567777778 20.9461728518519  C 12.672 20.2129382962963  12.0667654074074 18.7543703703704  11.9071604814815 17.4712098888889  C 11.4488888888889 13.7765925925926  14.7310617037037 12.3480494074074  14.6346666666667 11.8344691481482  C 14.5777777777778 11.526321  13.2298271481481 10.2194568148148  13.5996049259259 8.37372840740741  C 13.9314567777778 6.73027162962963  14.6820740740741 5.92434570370371  15.6634074074074 5.37916048148148  C 16.2327494270842 5.0565293766574  16.8825206604363 4.90354526348844  17.536 4.93827159259259  C 16.6447407407407 -1.804642  26.5686913703704 -0.924444444444444  25.0200493703704 4.88612344444445  C 25.0200493703704 4.88612344444445  27.7064691111111 4.94933333333333  28.4144197407407 7.62785185185185  C 28.8647901111111 9.11644444444445  28.5281975185185 10.7409382592593  27.526321 11.910321  C 27.526321 11.910321  30.2743703703704 13.4937284074074  30.1842962962963 16.8280493703704  C 30.092641962963 20.1623703703704  27.5057777777778 21.5640493703704  26.1704691481482 21.5703703703704  C 25.3547127536636 21.576420309538  24.5465504242738 21.4133888959176  23.7969382592593 21.0915555555556  L 22.3051851851852 20.3425185185185  L 21.8058271481482 20.326716037037  L 22.4379259259259 29.5158518518518  L 31.7787654444445 29.4889876666667  L 31.8024691481481 31.8024691481481  L 0.24493825925926 31.7961481481481  L 0.224395074074075 29.555358037037  L 4.20187655555556 29.5600987777778  L 4.20187655555556 24.8936296296296  L 0.197530851851852 24.9125925925926  L 0.233876555555556 22.668641962963  Z " fill-rule="nonzero" fill="#000000" stroke="none" transform="matrix(1 0 0 1 1046 574 )" />
  </g>
</svg>