<?xml version="1.0" encoding="utf-8"?>
<svg version="1.1" xmlns:xlink="http://www.w3.org/1999/xlink" width="30px" height="35px" xmlns="http://www.w3.org/2000/svg">
  <g transform="matrix(1 0 0 1 -1273 -621 )">
    <path d="M 15.0278953319421 0.271314863516922  C 15.0185935223909 0.271314863516922  15.0092917149033 0.271323742994555  14.999989921875 0.271341501937984  C 14.9906881176074 0.271323742951639  14.9813862988816 0.27131486345255  14.972084478091 0.27131486345255  C 6.79540673826468 0.27131486345255  0.166899757108847 6.98546146968792  0.166899757108847 15.2677810407781  C 0.166899757108847 22.0411017126153  4.64923320512683 27.9736577848616  11.1038886495536 29.7433439631783  C 12.9598066211076 30.99059529078  14.3355157280161 32.8467148000741  14.999989921875 35  C 15.6644641071153 32.8467148051148  17.0401732016951 30.9905952965037  18.8960911607143 29.7433439631783  C 25.3507466050251 27.9736577847781  29.8330800529242 22.0411017125882  29.8330800529242 15.2677810408425  C 29.8330800529242 6.98546146975229  23.2045730717684 0.271314863516922  15.0278953319421 0.271314863516922  Z M 23.5714126339286 12.1106568943798  L 23.5714126339286 8.16421843023256  C 23.5714126339286 7.72830688174595  23.9202814160987 7.37493075096899  24.3506328683036 7.37493075096899  L 25.9090733705357 7.37493075096899  C 26.3394248562227 7.37493075096899  26.6882936383929 7.72830688174595  26.6882936383929 8.16421843023256  L 26.6882936383929 12.1106568943798  C 26.6882936383929 12.5465684767812  26.3394248562227 12.8999446075581  25.9090734040179 12.8999446075581  L 24.3506328683036 12.8999446075581  C 23.9202814160987 12.8999446075581  23.5714126339286 12.5465684767812  23.5714126339286 12.1106569282946  Z M 19.6753113950893 12.1106568943798  L 19.6753113950893 5.00706767926357  C 19.6753113950893 4.57115609686223  20.0241801772594 4.21777996608527  20.4545316294643 4.21777996608527  L 22.0129721316964 4.21777996608527  C 22.4433236173835 4.21777996608527  22.7921923995536 4.57115609686223  22.7921923995536 5.00706764534884  L 22.7921923995536 12.1106568943798  C 22.7921923995536 12.5465684767812  22.4433236173835 12.8999446075581  22.0129721651786 12.8999446075581  L 20.4545316294643 12.8999446075581  C 20.0241801772594 12.8999446075581  19.6753113950893 12.5465684767812  19.6753113950893 12.1106569282946  Z M 7.20778741071429 12.1106568943798  L 7.20778741071429 5.00706767926357  C 7.20778741071429 4.57115609686223  7.5566561928844 4.21777996608527  7.98700764508929 4.21777996608527  L 9.54544818080357 4.21777996608527  C 9.97579963300847 4.21777996608527  10.3246684151786 4.57115609686223  10.3246684151786 5.00706764534884  L 10.3246684151786 12.1106568943798  C 10.3246684151786 12.5465684767812  9.97579963300846 12.8999446075581  9.54544818080357 12.8999446075581  L 7.98700767857143 12.8999446075581  C 7.55665619288439 12.8999446075581  7.20778741071429 12.5465684767812  7.20778741071429 12.1106569282946  Z M 3.311686171875 12.1106568943798  L 3.311686171875 8.16421843023256  C 3.311686171875 7.9011225371447  3.311686171875 8.42731432332041  3.311686171875 8.16421843023256  C 3.311686171875 7.72830688174595  3.66055495404511 7.37493075096899  4.09090640625 7.37493075096899  L 5.64934694196429 7.37493075096899  C 6.07969839416917 7.37493075096899  6.42856717633929 7.72830688174595  6.42856717633929 8.16421843023256  L 6.42856717633928 12.1106568943798  C 6.42856717633929 12.5465684767812  6.07969839416917 12.8999446075581  5.64934694196429 12.8999446075581  L 4.09090643973214 12.8999446075581  C 3.66055495404511 12.8999446075581  3.311686171875 12.5465684767812  3.311686171875 12.1106569282946  Z M 24.7366935812902 24.4187426159199  C 24.7366935812902 24.4749242419421  24.7246095018327 24.5304313564694  24.7012820089286 24.5814024370155  L 24.1869966294643 25.6942981153101  C 24.1209871656474 25.8341341307455  23.9815772547838 25.9231585005334  23.8285553236607 26  L 6.17142448660714 26  C 6.01840255548408 25.9231585005334  5.8789926446204 25.8341341307455  5.81298318080357 25.6942981153101  L 5.29869783482143 24.5814024370155  C 5.27366278158438 24.528928423819  5.26065938076696 24.4714018530121  5.26065938076696 24.4131217040538  C 5.26065938076696 24.2609641486469  5.34873929767535 24.1229453622711  5.48571066964286 24.0604725775194  C 5.53835167586293 24.0332655706249  5.59660825680784 24.0190808019693  5.65570592168608 24.0190808019693  C 5.80579568369066 24.0190808019693  5.94134908772414 24.109959240944  5.99999604910714 24.2499016327519  L 6.42856717633929 25  L 23.5714126339286 25  L 23.9843993638393 24.2499016327519  C 24.0430463252223 24.109959240944  24.1785997292558 24.0190808019693  24.3286894912603 24.0190808019693  C 24.3877871561386 24.0190808019693  24.4460437370835 24.0332655706249  24.4986847433036 24.0604725775194  C 24.642584194683 24.1197357930658  24.7366935812902 24.2613968080047  24.7366935812902 24.4187426159199  Z M 6.74804748883928 21.5821092151163  L 6.74025529017857 21.5821092151163  L 7.51947552455357 20.7928215358527  C 7.57211081887501 20.7393207507435  7.64360957227996 20.7092486840697  7.71817669084821 20.7092486840697  C 7.79274380941647 20.7092486840697  7.86424256282142 20.7393207507435  7.91687785714286 20.7928215358527  C 7.96923258242219 20.8447812386155  7.99873573132998 20.9158998425465  7.99873573132998 20.9901434471899  C 7.99873573132998 21.0643870518333  7.96923258242219 21.1355056557644  7.91687785714286 21.1874653585271  L 7.13765758928571 21.9767530717054  C 7.08694741414144 22.023200395664  7.02101539450105 22.0489176542521  6.95264733022168 22.0489176542521  C 6.80030291048269 22.0489176542521  6.67680335700739 21.9238224993107  6.67680335700739 21.7695098054149  C 6.67680335700739 21.7002584245311  6.70219259539655 21.6334745626323  6.74804748883928 21.5821092151163  Z M 8.15843611607143 19.1195316327519  L 8.15843611607143 19.135317378876  C 8.15841795228193 19.1326864615083  8.1584088703039 19.1300554878509  8.1584088703039 19.1274245061522  C 8.1584088703039 18.5040709867591  8.65729123285459 17.9987431156483  9.27269381450033 17.9987431156483  C 9.88809639614607 17.9987431156483  10.3869787586968 18.5040709867591  10.3869787586968 19.1274245061522  C 10.3869787586968 19.7507672347246  9.88811302202868 20.2560906360184  9.27272109375 20.2561058963178  L 9.82596746651786 20.2561058963178  C 10.1315170010967 20.2561058963178  10.3792138392857 20.5070029520545  10.3792138392857 20.8165001550388  L 10.3792138392857 22.5055758042636  C 10.3792138392857 22.8150730411626  10.1315170010967 23.0659700968992  9.82596746651786 23.0659700968992  L 8.71168248883929 23.0659700968992  C 8.4061329542604 23.0659700968992  8.15843611607143 22.8150730411626  8.15843611607143 22.5055758381783  L 8.15843611607143 20.7928215358527  C 8.15843611607143 20.4833243328684  8.4061329542604 20.2324272771318  8.71168248883929 20.2324272771318  L 9.27272109375 20.2324272771318  C 8.66335356650821 20.2324876673024  8.16695873185686 19.7367117567925  8.15843611607143 19.1195316327519  Z M 10.3792138392857 23.3343278827519  L 10.3792138392857 23.3501136627907  L 10.3792138392857 24.4709021802326  C 10.3818067137414 24.4864958031166  10.3831099386161 24.5022814573518  10.3831099386161 24.5180947086208  C 10.3831099386161 24.6750228668252  10.2575171764352 24.8022382745123  10.1025906529018 24.8022382745123  C 9.94766412936836 24.8022382745123  9.8220713671875 24.6750228668252  9.8220713671875 24.5180947086208  C 9.8220713671875 24.5022814573517  9.82337459206218 24.4864958031166  9.82596746651786 24.4709021802326  L 9.82596746651786 23.3343278827519  C 9.82337459206218 23.3187342598679  9.8220713671875 23.3029486056327  9.8220713671875 23.2871353543637  C 9.8220713671875 23.1302071961593  9.94766412936836 23.0029917884722  10.1025906529018 23.0029917884722  C 10.2575171764352 23.0029917884722  10.3831099386161 23.1302071961593  10.3831099386161 23.2871353543637  C 10.3831099386161 23.3029486056327  10.3818067137414 23.3187342598679  10.3792138392857 23.3343278827519  Z M 8.43895540178572 23.0501843168605  L 8.43895540178572 23.0659700968992  C 8.59083058733889 23.0702449940144  8.71174111622069 23.1962168921543  8.71168248883929 23.3501136627907  L 8.71168248883929 24.4709021802326  C 8.71427536329496 24.4864958031166  8.71557858816964 24.5022814573518  8.71557858816964 24.5180947086208  C 8.71557858816964 24.6750228668252  8.58998582598879 24.8022382745123  8.43505930245536 24.8022382745123  C 8.28013277892193 24.8022382745123  8.15454001674107 24.6750228668252  8.15454001674107 24.5180947086208  C 8.15454001674107 24.5022814573517  8.15584324161575 24.4864958031166  8.15843611607143 24.4709021802326  L 8.15843611607143 23.3343278827519  C 8.15843611607143 23.1773997245475  8.28402887825229 23.0501843168605  8.43895540178572 23.0501843168605  Z M 10.6207720982143 21.1874653585271  C 10.5197473820612 21.0758178006856  10.5197473820612 20.9044690936942  10.6207720982143 20.7928215358527  C 10.6734073925357 20.7393207507435  10.7449061459407 20.7092486840697  10.8194732645089 20.7092486840697  C 10.8940403830772 20.7092486840697  10.9655391364821 20.7393207507435  11.0181744308036 20.7928215358527  L 11.7973946986607 21.5821092151163  C 11.8984194352724 21.6937567779128  11.8984194352724 21.8651055089089  11.7973946986607 21.9767530717054  C 11.7447594043393 22.0302538568146  11.6732606509343 22.0603259234885  11.5986935323661 22.0603259234885  C 11.5241264137978 22.0603259234885  11.4526276603929 22.0302538568146  11.3999923660714 21.9767530717054  L 10.6207720982143 21.1874653585271  Z M 12.9662250669643 21.5821092151163  L 12.9584328683036 21.5821092151163  L 13.7376531026786 20.7928215358527  C 13.790288397 20.7393207507435  13.861787150405 20.7092486840697  13.9363542689732 20.7092486840697  C 14.0109213875415 20.7092486840697  14.0824201409464 20.7393207507435  14.1350554352679 20.7928215358527  C 14.1874101605472 20.8447812386155  14.216913309455 20.9158998425465  14.216913309455 20.9901434471899  C 14.216913309455 21.0643870518333  14.1874101605472 21.1355056557644  14.1350554352679 21.1874653585271  L 13.3558351674107 21.9767530717054  C 13.3051249922664 22.023200395664  13.2391929726261 22.0489176542521  13.1708249083467 22.0489176542521  C 13.0184804886077 22.0489176542521  12.8949809351324 21.9238224993107  12.8949809351324 21.7695098054149  C 12.8949809351324 21.7002584245311  12.9203701735215 21.6334745626323  12.9662250669643 21.5821092151163  Z M 14.392198125 19.1195316327519  L 14.3766136941964 19.135317378876  C 14.3765955304069 19.1326864615083  14.3765864484289 19.1300554878509  14.3765864484289 19.1274245061522  C 14.3765864484289 18.5040709867591  14.8754688109796 17.9987431156483  15.4908713926253 17.9987431156483  C 16.1062739742711 17.9987431156483  16.6051563368218 18.5040709867591  16.6051563368218 19.1274245061522  C 16.6051563368218 19.7507672347246  16.1062906001537 20.2560906360184  15.490898671875 20.2561058963178  L 16.0441450446429 20.2561058963178  C 16.3496945792218 20.2561058963178  16.5973914174107 20.5070029520545  16.5973914174107 20.8165001550388  L 16.5973914174107 22.5055758042636  C 16.5973914174107 22.8150730411626  16.3496945792218 23.0659700968992  16.0441450446429 23.0659700968992  L 14.9454444977679 23.0659700968992  C 14.639894963189 23.0659700968992  14.392198125 22.8150730411626  14.392198125 22.5055758381783  L 14.392198125 20.7928215358527  C 14.392198125 20.4833243328684  14.639894963189 20.2324272771318  14.9454444977679 20.2324272771318  L 15.5064830691964 20.2324272771318  C 14.8971155549923 20.2324876487543  14.4007207406048 19.7367117435858  14.392198125 19.1195316327519  Z M 16.5973914174107 23.3343278827519  L 16.5973914174107 23.3501136627907  L 16.5973914174107 24.4709021802326  C 16.5999842918664 24.4864958031166  16.6012875167411 24.5022814573518  16.6012875167411 24.5180947086208  C 16.6012875167411 24.6750228668252  16.4756947545602 24.8022382745123  16.3207682310268 24.8022382745123  C 16.1658417074934 24.8022382745123  16.0402489453125 24.6750228668252  16.0402489453125 24.5180947086208  C 16.0402489453125 24.5022814573518  16.0415521701872 24.4864958031166  16.0441450446429 24.4709021802326  L 16.0441450446429 23.3343278827519  C 16.0415521701872 23.3187342598679  16.0402489453125 23.3029486056327  16.0402489453125 23.2871353543637  C 16.0402489453125 23.1302071961593  16.1658417074934 23.0029917884722  16.3207682310268 23.0029917884722  C 16.4756947545602 23.0029917884722  16.6012875167411 23.1302071961593  16.6012875167411 23.2871353543637  C 16.6012875167411 23.3029486056327  16.5999842918664 23.3187342598679  16.5973914174107 23.3343278827519  Z M 14.6727174107143 23.0501843168605  L 14.6571329799107 23.0659700968992  C 14.8090081654639 23.0702449940144  14.9299186943457 23.1962168921543  14.9298600669643 23.3501136627907  L 14.9298600669643 24.4709021802326  C 14.93245294142 24.4864958031166  14.9337561662946 24.5022814573518  14.9337561662946 24.5180947086208  C 14.9337561662946 24.6750228668252  14.8081634041138 24.8022382745123  14.6532368805804 24.8022382745123  C 14.4983103570469 24.8022382745123  14.3727175948661 24.6750228668252  14.3727175948661 24.5180947086208  C 14.3727175948661 24.5022814573518  14.3740208197408 24.4864958031166  14.3766136941964 24.4709021802326  L 14.3766136941964 23.3343278827519  C 14.3766133596209 23.1769608721989  14.5022061218017 23.0497454645118  14.6571326453352 23.0497454645118  C 14.6623305778489 23.0497454645118  14.6675275062722 23.0498918051329  14.6727174107143 23.0501843168605  Z M 16.8545341071429 21.1874653585271  C 16.7535093909898 21.0758178006856  16.7535093909898 20.9044690936942  16.8545341071429 20.7928215358527  C 16.9071694001277 20.7393207611486  16.9786681463479 20.709248701086  17.0532352566964 20.709248701086  C 17.1278023670449 20.709248701086  17.1993011132652 20.7393207611486  17.25193640625 20.7928215358527  L 18.0311566741071 21.5821092151163  C 18.1321814107188 21.6937567779128  18.1321814107188 21.8651055089089  18.0311566741071 21.9767530717054  C 17.9785213797857 22.0302538568146  17.9070226263808 22.0603259234885  17.8324555078125 22.0603259234885  C 17.7578883892442 22.0603259234885  17.6863896358393 22.0302538568146  17.6337543415179 21.9767530717054  L 16.8545341071429 21.1874653585271  Z M 19.1999870424107 21.5821092151163  L 19.19219484375 21.5821092151163  L 19.971415078125 20.7928215358527  C 20.0240503724464 20.7393207507435  20.0955491258514 20.7092486840697  20.1701162444196 20.7092486840697  C 20.2446833629879 20.7092486840697  20.3161821163928 20.7393207507435  20.3688174107143 20.7928215358527  C 20.4211721359936 20.8447812386155  20.4506752849014 20.9158998425465  20.4506752849014 20.9901434471899  C 20.4506752849014 21.0643870518333  20.4211721359936 21.1355056557644  20.3688174107143 21.1874653585271  L 19.5895971763393 21.9767530717054  C 19.5388869790237 22.0232004997734  19.4729548832939 22.0489178224567  19.4045867336333 22.0489178224567  C 19.2522423138944 22.0489178224567  19.1287427604191 21.9238226675153  19.1287427604191 21.7695099736195  C 19.1287427604191 21.7002585145318  19.1541320560273 21.6334745829398  19.1999870424107 21.5821092151163  Z M 20.6259601004464 19.1195316327519  L 20.610375703125 19.135317378876  C 20.6103575393355 19.1326864615081  20.6103484573575 19.1300554878503  20.6103484573575 19.1274245061514  C 20.6103484573575 18.5040709867583  21.1092308199081 17.9987431156475  21.7246334015539 17.9987431156475  C 22.3400359831996 17.9987431156475  22.8389183457503 18.5040709867583  22.8389183457503 19.1274245061514  C 22.8389183457503 19.7507672479682  22.3400525886761 20.2560906547483  21.7246606473214 20.2561058963178  L 22.2779070200893 20.2561058963178  C 22.5834565546682 20.2561058963178  22.8311533928571 20.5070029520545  22.8311533928571 20.8165001550388  L 22.8311533928571 22.5055758042636  C 22.8311533928571 22.8150730411626  22.5834565546682 23.0659700968992  22.2779070200893 23.0659700968992  L 21.1792064732143 23.0659700968992  C 20.8736569386354 23.0659700968992  20.6259601004464 22.8150730411626  20.6259601004464 22.5055758381783  L 20.6259601004464 20.7928215358527  C 20.6259601004464 20.4833243328684  20.8736569386354 20.2324272771318  21.1792064732143 20.2324272771318  L 21.7402450446429 20.2324272771318  C 21.1308775304387 20.2324876487543  20.6344827160513 19.7367117435858  20.6259601004464 19.1195316327519  Z M 22.8311533928571 23.3343278827519  L 22.8311533928571 23.3501136627907  L 22.8311533928571 24.4709021802326  C 22.8337462673128 24.4864958031166  22.8350494921875 24.5022814573517  22.8350494921875 24.5180947086208  C 22.8350494921875 24.6750228668252  22.7094567300066 24.8022382745123  22.5545302064732 24.8022382745123  C 22.3996036829398 24.8022382745123  22.2740109207589 24.6750228668252  22.2740109207589 24.5180947086208  C 22.2740109207589 24.5022814573517  22.2753141456336 24.4864958031166  22.2779070200893 24.4709021802326  L 22.2779070200893 23.3343278827519  C 22.2753141456336 23.3187342598679  22.2740109207589 23.3029486056327  22.2740109207589 23.2871353543637  C 22.2740109207589 23.1302071961593  22.3996036829398 23.0029917884722  22.5545302064732 23.0029917884722  C 22.7094567300066 23.0029917884722  22.8350494921875 23.1302071961593  22.8350494921875 23.2871353543637  C 22.8350494921875 23.3029486056327  22.8337462673128 23.3187342598679  22.8311533928571 23.3343278827519  Z M 20.9064793861607 23.0501843168605  L 20.8908949888393 23.0659700968992  C 21.0427701743925 23.0702449940144  21.1636807032743 23.1962168921543  21.1636220758929 23.3501136627907  L 21.1636220758929 24.4709021802326  C 21.1662149503485 24.4864958031166  21.1675181752232 24.5022814573517  21.1675181752232 24.5180947086208  C 21.1675181752232 24.6750228668252  21.0419254130423 24.8022382745123  20.8869988895089 24.8022382745123  C 20.7320723659755 24.8022382745123  20.6064796037946 24.6750228668252  20.6064796037946 24.5180947086208  C 20.6064796037946 24.5022814573517  20.6077828286693 24.4864958031166  20.610375703125 24.4709021802326  L 20.610375703125 23.3343278827519  C 20.6103753685523 23.1769608740862  20.7359681307332 23.0497454663991  20.8908946542666 23.0497454663991  C 20.8960925755992 23.0497454663991  20.9012894928479 23.0498918063906  20.9064793861607 23.0501843168605  Z M 23.0882960825893 21.1874653585271  C 22.9872713664362 21.0758178006856  22.9872713664362 20.9044690936942  23.0882960825893 20.7928215358527  C 23.1409313769107 20.7393207507435  23.2124301303157 20.7092486840697  23.2869972488839 20.7092486840697  C 23.3615643674522 20.7092486840697  23.4330631208571 20.7393207507435  23.4856984151786 20.7928215358527  L 24.2649186495536 21.5821092151163  C 24.3659433861652 21.6937567779128  24.3659433861652 21.8651055089089  24.2649186495536 21.9767530717054  C 24.2122833552321 22.0302538568146  24.1407846018272 22.0603259234885  24.0662174832589 22.0603259234885  C 23.9916503646907 22.0603259234885  23.9201516112857 22.0302538568146  23.8675163169643 21.9767530717054  L 23.0882960825893 21.1874653585271  Z M 28.5973832477679 16.2228457945736  L 28.5973832477679 16.2465244137597  L 27.4675138727679 18.677530503876  C 27.4000754970926 18.8160707925061  27.2615564385642 18.9045262818806  27.1090725669643 18.9064239244186  C 27.0524608059747 18.9045591761866  26.9968034575523 18.8911362235663  26.9454362946429 18.8669595591085  C 26.8079389873923 18.8022529381437  26.7199868124367 18.6626282922269  26.7199868124367 18.5090570496931  C 26.7199868124367 18.4498853278183  26.7331230651465 18.3914709799835  26.7584234598214 18.3381367926357  L 27.63894234375 17  L 2.36882969866071 17  L 3.24934858258929 18.3381367926357  C 3.27410036127661 18.3911952306374  3.28693778179415 18.4491499075707  3.28693778179415 18.5078336482558  C 3.28693778179415 18.7272015698662  3.1113732207608 18.9050344068819  2.894803359375 18.9050344068819  C 2.74313020842608 18.9050344068819  2.60505775257399 18.8164363366014  2.54025813616071 18.677530503876  L 1.4025965625 16.2228457945736  C 1.33735004441114 16.1052064411836  1.33735004441114 15.9616270374986  1.4025965625 15.8439876841085  C 1.47846490197985 15.7236931556124  1.61255166917125 15.6542744905485  1.753245703125 16  L 28.2467341071429 16  C 28.3791984636029 15.6626750553412  28.5024759417126 15.731056351599  28.5740066183036 15.8439876841085  C 28.6466555209251 15.9574484271155  28.6555195647201 16.1011053597115  28.5973832477679 16.2228457945736  Z M 28.2467341071429 15.2678076792636  L 1.753245703125 15.2678076792636  C 1.32289424167427 15.2678076792636  0.974025452008929 14.9144315408945  0.974025452008929 14.4785199830426  C 0.974025452008929 14.0426084251907  1.32289424167427 13.6892322868217  1.753245703125 13.6892322868217  C 1.753245703125 13.6892322868217  1.753245703125 13.6892322868217  1.753245703125 14  L 28.2467341071429 14  L 28.2467341071429 13.6892322868217  C 28.6770855685936 13.6892322868217  29.0259543582589 14.0426084251907  29.0259543582589 14.4785199830426  C 29.0259543582589 14.9144315408945  28.6770855685936 15.2678076792636  28.2467341071429 15.2678076792636  Z " fill-rule="nonzero" fill="#2e2000" stroke="none" transform="matrix(1 0 0 1 1273 621 )" />
  </g>
</svg>