<?xml version="1.0" encoding="utf-8"?>
<svg version="1.1" xmlns:xlink="http://www.w3.org/1999/xlink" width="32px" height="27px" xmlns="http://www.w3.org/2000/svg">
  <g transform="matrix(1 0 0 1 -1091 -561 )">
    <path d="M 0 22  L 32 22  L 32 23.5862068965517  L 31.0227692307692 23.5862068965517  L 28.0529230769231 26.5828965517241  C 27.9381913239531 26.6946634592334  27.7849154729703 26.757131458514  27.6254081266015 26.757131458514  C 27.2855405882441 26.757131458514  27.0100235112169 26.4792392342711  27.0100235112169 26.1364418033416  C 27.0100235112169 25.975559393642  27.0719575959737 25.8209621991162  27.1827692307692 25.7052413793103  L 29.2824615384615 23.5862068965517  L 27.3304615384615 23.5862068965517  L 24.3606153846154 26.5828965517241  C 24.2458836316454 26.6946634592334  24.0926077806626 26.757131458514  23.9331004342938 26.757131458514  C 23.5932328959364 26.757131458514  23.3177158189092 26.4792392342711  23.3177158189092 26.1364418033416  C 23.3177158189092 25.975559393642  23.379649903666 25.8209621991162  23.4904615384615 25.7052413793103  L 25.5901538461538 23.5862068965517  L 23.6381538461538 23.5862068965517  L 20.6683076923077 26.5828965517241  C 20.5535759393377 26.6946634592334  20.4003000883549 26.757131458514  20.2407927419861 26.757131458514  C 19.9009252036287 26.757131458514  19.6254081266015 26.4792392342711  19.6254081266015 26.1364418033416  C 19.6254081266015 25.975559393642  19.6873422113583 25.8209621991162  19.7981538461538 25.7052413793103  L 21.8978461538462 23.5862068965517  L 19.9458461538462 23.5862068965517  L 16.976 26.5828965517241  C 16.8612682470301 26.6946634592334  16.7079923960472 26.757131458514  16.5484850496784 26.757131458514  C 16.208617511321 26.757131458514  15.9331004342938 26.4792392342711  15.9331004342938 26.1364418033416  C 15.9331004342938 25.975559393642  15.9950345190506 25.8209621991162  16.1058461538462 25.7052413793103  L 18.2055384615385 23.5862068965517  L 16.2535384615385 23.5862068965517  L 13.2836923076923 26.5828965517241  C 13.1689605547224 26.6946634592334  13.0156847037395 26.757131458514  12.8561773573707 26.757131458514  C 12.5163098190133 26.757131458514  12.2407927419861 26.4792392342711  12.2407927419861 26.1364418033416  C 12.2407927419861 25.975559393642  12.3027268267429 25.8209621991162  12.4135384615385 25.7052413793103  L 14.5132307692308 23.5862068965517  L 12.5612307692308 23.5862068965517  L 9.59138461538461 26.5828965517241  C 9.47665286241466 26.6946634592334  9.32337701143181 26.757131458514  9.16386966506301 26.757131458514  C 8.8240021267056 26.757131458514  8.5484850496784 26.4792392342711  8.5484850496784 26.1364418033416  C 8.5484850496784 25.975559393642  8.61041913443524 25.8209621991162  8.72123076923077 25.7052413793103  L 10.8209230769231 23.5862068965517  L 8.86892307692308 23.5862068965517  L 5.89907692307692 26.5828965517241  C 5.78434517010697 26.6946634592334  5.63106931912413 26.757131458514  5.47156197275534 26.757131458514  C 5.13169443439793 26.757131458514  4.85617735737072 26.4792392342711  4.85617735737072 26.1364418033416  C 4.85617735737072 25.975559393642  4.91811144212755 25.8209621991162  5.02892307692308 25.7052413793103  L 7.12861538461538 23.5862068965517  L 5.17661538461538 23.5862068965517  L 2.20676923076923 26.5828965517241  C 2.09203747779928 26.6946634592334  1.93876162681644 26.757131458514  1.77925428044765 26.757131458514  C 1.43938674209024 26.757131458514  1.16386966506303 26.4792392342711  1.16386966506303 26.1364418033416  C 1.16386966506303 25.975559393642  1.22580374981986 25.8209621991162  1.33661538461539 25.7052413793103  L 3.43630769230769 23.5862068965517  L 0 23.5862068965517  L 0 22  Z M 23.3846153846154 16.1379310344828  C 23.6086153846154 14.7227586206897  24.176 13.2231724137931  25.0892307692308 11.6342068965517  C 26.2916923076923 9.54124137931034  27.6886153846154 8.04165517241379  29.2775384615385 7.13793103448276  C 28.3803076923077 9.04965517241379  27.9323076923077 10.695724137931  27.9323076923077 12.0748965517241  C 27.9323076923077 13.4528275862069  28.1612307692308 14.8059310344828  28.6190769230769 16.1379310344828  L 32 16.1379310344828  L 32 21  L 0 21  L 0 16.1379310344828  L 3.69230769230769 16.1379310344828  C 4.39753846153846 15.0529655172414  4.70153846153846 13.6948965517241  4.60430769230769 12.0624827586207  C 4.50707692307692 10.4300689655172  3.73661538461538 8.58413793103448  2.29169230769231 6.5271724137931  C 5.168 7.31668965517241  7.18153846153846 8.74427586206897  8.33230769230769 10.8074482758621  C 9.24325195013686 12.4404284421217  9.7617530104031 14.2661496060945  9.84615384615385 16.1379310344828  C 9.93969230769231 15.0318620689655  9.68861538461539 13.1697931034483  9.09292307692308 10.551724137931  C 8.49723076923077 7.93365517241379  7.10769230769231 5.24358620689655  4.92307692307692 2.48275862068966  C 8.16492307692308 3.72413793103448  10.7852307692308 5.99958620689655  12.7864615384615 9.31034482758621  C 13.1273846153846 9.8751724137931  13.4326153846154 10.5331034482759  13.6996923076923 11.2841379310345  L 13.6578461538462 10.8533793103448  C 13.5668170117267 10.0459459221323  13.4303921783043 9.2443791778144  13.2492307692308 8.45255172413793  C 12.6535384615385 5.83324137931035  11.52 3.01655172413793  9.84615384615385 0  C 12.7692307692308 1.46110344827586  15.2307692307692 3.84827586206896  17.2307692307692 7.15779310344828  C 17.9138461538462 8.28744827586207  18.5304615384615 10.1582068965517  19.0818461538462 12.7700689655172  C 19.4387692307692 11.376  19.8941538461538 10.2227586206897  20.4443076923077 9.31034482758621  C 22.4455384615385 5.99958620689655  25.0658461538462 3.72413793103448  28.3076923076923 2.48275862068966  C 26.1230769230769 5.24358620689655  24.7335384615385 7.93365517241379  24.1378461538462 10.551724137931  C 23.5421538461539 13.1697931034483  23.2910769230769 15.0318620689655  23.3846153846154 16.1379310344828  Z M 17.5236923076923 5.33048275862069  C 19.1753846153846 3.46841379310345  21.1298461538462 2.10413793103448  23.3846153846154 1.24137931034483  C 21.3193846153846 3.852  19.9630769230769 6.39806896551724  19.3193846153846 8.8808275862069  C 18.9883076923077 7.8951724137931  18.6412307692308 7.10565517241379  18.2818461538462 6.51227586206897  C 18.0398696560947 6.11143930886561  17.7870569727824 5.71736060423541  17.5236923076923 5.33048275862069  Z " fill-rule="nonzero" fill="#000000" stroke="none" transform="matrix(1 0 0 1 1091 561 )" />
  </g>
</svg>