<?xml version="1.0" encoding="utf-8"?>
<svg version="1.1" xmlns:xlink="http://www.w3.org/1999/xlink" width="32px" height="24px" xmlns="http://www.w3.org/2000/svg">
  <g transform="matrix(1 0 0 1 -1278 -468 )">
    <path d="M 10.2062742711864 12.0029752159091  C 6.89918030508474 12.00297525  4.21847766101695 9.36099173863636  4.21847766101695 6.10175205681818  C 4.21847766101695 2.842512375  6.89918027118644 0.200528931818183  10.2062742711864 0.200528931818183  C 13.5149460677966 0.200528931818183  16.1956486779661 2.84251240909091  16.1956486779661 6.10175205681818  C 16.1956486779661 9.36099170454546  13.5133682372881 12.0029751818182  10.2062742711864 12.0029752159091  Z M 12.7339291186441 23.8054215  C 12.5397102647022 23.354446197755  12.4429074995454 22.8671414499263  12.4499229491525 22.3757355340909  L 12.4499229491525 21.967933875  C 12.4499229491525 18.9594049431818  14.008801220339 16.3158347045455  16.3597411525424 14.7576198409091  C 15.297725426666 14.2404608466334  14.1332096472503 13.9714095942793  12.9532449830508 13.9705785  L 7.96104776271186 13.9705785  C 3.68833281355932 13.9705785  0.225035423728813 17.3821487386364  0.225035423728813 21.5918677840909  L 0.225035423728813 22.0837685795455  C 0.225035423728813 23.8054214659091  3.68833281355932 23.8054214659091  7.96104776271186 23.8054215  L 12.7339291186441 23.8054215  Z M 28.0513282033898 9.10869422727273  C 28.0513282033898 6.40323968181818  25.8281910847458 4.21031406818182  23.081220338983 4.21031403409091  C 20.3374052542373 4.21031403409091  18.1111124745763 6.40323964772728  18.1111124745763 9.10869422727273  C 18.1111124745763 11.8141488068182  20.337405220339 14.0070743863636  23.081220338983 14.0070743863636  C 25.8266132542373 14.0070743863636  28.0513282033898 11.8141487727273  28.0513282033898 9.10869422727273  Z M 28.0513282033898 9.10869422727273  C 28.0513282033898 6.40323968181818  25.8281910847458 4.21031406818182  23.081220338983 4.21031403409091  C 20.3374052542373 4.21031403409091  18.1111124745763 6.40323964772728  18.1111124745763 9.10869422727273  C 18.1111124745763 11.8141488068182  20.337405220339 14.0070743863636  23.081220338983 14.0070743863636  C 25.8266132542373 14.0070743863636  28.0513282033898 11.8141487727273  28.0513282033898 9.10869422727273  Z M 25.3627365084746 15.6414545454545  L 21.2194021694915 15.6414545454545  C 17.6724807457627 15.6414545454545  14.7977072542373 18.4738512272727  14.7977072542373 21.967933875  L 14.7977072542373 22.3757355340909  C 14.7977072542373 23.8038347045455  17.6724807457627 23.8038347045455  21.2194021694915 23.8038347045455  L 25.3627365084746 23.8038347045455  C 28.9080801016949 23.8038347045455  31.7812757966102 23.7514710681818  31.7812757966102 22.3757355340909  L 31.7812757966102 21.967933875  C 31.7812757966102 18.4738512272727  28.9080801016949 15.6414545454545  25.3627365084746 15.6414545454545  Z " fill-rule="nonzero" fill="#000000" stroke="none" transform="matrix(1 0 0 1 1278 468 )" />
  </g>
</svg>