<?xml version="1.0" encoding="utf-8"?>
<svg version="1.1" xmlns:xlink="http://www.w3.org/1999/xlink" width="32px" height="31px" xmlns="http://www.w3.org/2000/svg">
  <g transform="matrix(1 0 0 1 -1079 -682 )">
    <path d="M 13.91903375 18.810080505787  C 13.91903375 18.1365649976852  13.3755485357143 17.5905636481481  12.7051367857143 17.5905636481481  L 8.19644967857143 17.5905636481481  C 7.52603792857143 17.5905636481481  6.98255271428572 18.1365649976852  6.98255271428572 18.810080505787  L 6.98255271428572 23.339677869213  C 6.98255271428572 24.0131933773148  7.52603792857143 24.5591947268519  8.19644967857143 24.5591947268519  L 12.7051733214286 24.5591947268519  C 13.3755850714286 24.5591947268519  13.9190702857143 24.0131933773148  13.9190702857143 23.339677869213  L 13.9190702857143 18.810080505787  Z M 9.41034664285714 22.1201610115741  L 9.41034664285714 20.0295973634259  L 11.4912763571429 20.0295973634259  L 11.4912763571429 22.1201610115741  L 9.41034664285714 22.1201610115741  Z M 31.95385525 9.29307584143519  C 31.9538918214286 8.92573380671296  31.8196194285714 8.57340850925926  31.5623675714286 8.31243228240741  L 28.4856512857143 5.18046033912037  L 28.4856512857143 1.56281118055556  C 28.4856512857143 0.793136865740741  27.8449519642857 0.169077623842592  27.0788245357143 0.169077623842592  L 4.92205253571428 0.169077623842592  C 4.15592510714286 0.169077623842592  3.51427557142857 0.793100160879629  3.51427557142857 1.56281118055556  L 3.51427557142857 5.18049704398148  L 0.437559285714284 8.31246898726852  C 0.180307428571427 8.57344521412037  0.0460350357142844 8.92577051157407  0.0460350357142844 9.29307584143519  L 0.0460350357142844 12.8321898009259  C 0.0460350357142844 13.6018274108796  0.667693535714284 14.1063031481482  1.43378442857143 14.1063031481482  L 30.5670195357143 14.1063031481482  C 31.3331469642857 14.1063031481482  31.95385525 13.6018641157407  31.95385525 12.8321898009259  L 31.95385525 9.29307584143519  Z M 6.28893382142857 3  L 25.7110661785714 3  L 25.7110661785714 5  L 6.28893382142857 5  L 6.28893382142857 3  Z M 29.1793067142857 11.3188359988426  L 2.82069328571429 11.3188359988426  L 2.82069328571429 9.86628363773148  L 5.67242839285714 7.13770873842593  L 26.3285583928571 7.13770873842593  L 29.1793432857143 9.86628363773148  L 29.17934325 11.3188359988426  Z M 28.4856878214286 15.5309514548611  C 29.2518517857143 15.5309514548611  29.8729621428571 16.1550107326389  29.8729621428571 16.9246850115741  L 29.8729621428571 29.4371887835648  C 29.8729621428571 30.2068630983796  29.2500610357143 30.8309223402778  28.4839336071429 30.8309223402778  L 23.7262541785714 30.8309223761574  C 22.96012675 30.8309223761574  22.3389433571429 30.2712627280093  22.3389433571429 29.5015884131944  L 22.33846825 22.1201610115741  L 19.1214128571429 22.1201610115741  L 19.1214128571429 29.4371888194444  C 19.1214128571429 30.2068631342593  18.47461025 30.8309223761574  17.7084828214286 30.8309223761574  L 3.54036992857143 30.8309223761574  C 2.7742425 30.8309223761574  2.12703789285714 30.2068998391204  2.12703789285714 29.4371888194444  L 2.12703785714286 16.9246850115741  C 2.12703785714286 16.1550106967593  2.74818471428571 15.5309514548611  3.51434867857143 15.5309514548611  C 4.28051264285714 15.5309514548611  4.9016595 16.1549739918981  5 16.9246850115741  L 5 28  L 16.3468642142857 28  L 16.34686425 20.5979586828704  C 16.34686425 19.8281375127315  16.9424284642857 19.3326938622685  17.7085193214286 19.3326938622685  L 23.7256328571429 19.3326938622685  C 24.4917602857143 19.3326938622685  25.0174472857143 19.8282843680556  25.0174472857143 20.5979586828704  L 25.0174472857143 28.0434552268519  L 27 28.0434552268519  L 27 16.9246850115741  C 27.098377 16.1550106967593  27.7195238571429 15.5309514548611  28.4856878214286 15.5309514548611  Z " fill-rule="nonzero" fill="#000000" stroke="none" transform="matrix(1 0 0 1 1079 682 )" />
  </g>
</svg>