<?xml version="1.0" encoding="utf-8"?>
<svg version="1.1" xmlns:xlink="http://www.w3.org/1999/xlink" width="32px" height="30px" xmlns="http://www.w3.org/2000/svg">
  <g transform="matrix(1 0 0 1 -1211 -587 )">
    <path d="M 31.7889216197849 10.0975088427985  C 31.7889216197849 10.6246192981579  31.4832335917087 11.1031773033339  31.0068965517241 11.3217777777778  C 28.1986896379274 12.6410806868028  24.9135766613401 12.4104295066562  22.3143724137931 10.7114666666667  C 20.2709470571914 9.36393394398218  17.6287053566017 9.36393394398218  15.58528 10.7114666666667  C 14.0465616335135 11.7260414598055  12.2341095841524 12.2371118532316  10.3958951724138 12.1747555555556  C 8.7924524137931 12.1214222222222  9.20611310344827 9.96693333333333  10.2144 10.0469333333333  C 11.5692457667615 10.1540167744356  12.9210624622309 9.80516478980805  14.0577544827586 9.05511111111111  C 17.0284948476343 7.09634216147917  20.8695686006415 7.09634216147917  23.8403089655172 9.05511111111111  C 25.6289390093659 10.2232027155228  27.888709264657 10.3820606161497  29.8211751724138 9.47555555555556  C 30.5046068965517 9.14844444444445  31.325395862069 8.83146666666667  31.6541351724138 9.50862222222223  C 31.7428302211937 9.69208619493179  31.7889216197849 9.89346109933344  31.7889216197849 10.0975088427985  Z M 9.83075310344828 28.9393777777778  C 9.42892137931034 27.7269333333333  9.35618206896552 27.8858666666667  9.35618206896552 27.8858666666667  L 8.48189793103448 25.2343111111111  L 5.20651034482758 26.1777777777778  C 5.09173498999424 26.2132551932841  4.97234541835135 26.231291698279  4.85228406610174 26.231291698279  C 4.18562990495978 26.231291698279  3.64519992817071 25.68710873554  3.64519992817071 25.0158250316124  C 3.64519992817071 24.4182934092478  4.07651988824285 23.9093867358508  4.66255448275862 23.8154666666667  L 7.72166620689655 22.9288888888889  L 6.4600275862069 19.1029333333333  L 3.5444524137931 19.8608  C 3.49160790755502 19.8693742166036  3.43816737316653 19.8736818964001  3.38464122538474 19.8736818964001  C 2.82982739228576 19.8736818964001  2.38006191503991 19.4207930477845  2.38006191503991 18.8621263408446  C 2.38006191503991 18.4010856699661  2.68965731310666 17.9983735747558  3.13291034482759 17.8828444444444  L 5.82461793103448 17.1758222222222  L 4.32180965517241 12.6177777777778  C 4.31262896551724 12.6200888888889  4.30415448275862 12.6245333333333  4.29497379310345 12.6264888888889  L 2.34072275862069 13.3939555555556  C 2.28787825238259 13.4025297721592  2.23443771799411 13.4068374519557  2.18091157021231 13.4068374519557  C 1.62609773711333 13.4068374519557  1.17633225986748 12.9539486033401  1.17633225986748 12.3952818964001  C 1.17633225986748 11.9342412255216  1.48592765793424 11.5315291303113  1.92918068965517 11.416  L 3.68922482758621 10.6992  L 2.49944275862069 7.09031111111111  L 1.3377324137931 7.33084444444445  C 1.28488790755501 7.33941866104809  1.2314473731665 7.34372634084458  1.17792122538471 7.34372634084458  C 0.623107392285723 7.34372634084458  0.17334191503988 6.89083749222897  0.17334191503988 6.33217078528902  C 0.17334191503988 5.8711301144105  0.482937313106643 5.46841801920022  0.926190344827586 5.35288888888889  L 1.86191448275862 5.15893333333333  C 1.86191448275862 5.15893333333333  0.492049655172413 2.58631111111111  0.191205517241379 1.50862222222222  C -0.109638620689656 0.430933333333334  0.53336275862069 0.244444444444445  0.53336275862069 0.244444444444445  L 0.544485517241379 0.244444444444445  C 1.11530105122128 0.242933029613378  1.62488786801406 0.604401517790539  1.81565793103448 1.14613333333333  L 4.34811586206897 6.86933333333334  L 5.99869793103448 6.59235555555556  C 6.03527126241148 6.58828845003635  6.07203909144701 6.58625027854773  6.10883477795437 6.58625027854773  C 6.66296606327977 6.58625027854773  7.11217822623024 7.03858197040757  7.11217822623024 7.59656138965884  C 7.11217822623024 8.07122756202224  6.78402498360053 8.48188676810491  6.32355310344828 8.58346666666667  L 5.01565793103448 8.80337777777778  L 6.41341793103448 12.8547555555556  L 7.60390620689655 12.6549333333333  C 7.64059710447838 12.6508397746505  7.67748440237758 12.6487883162103  7.71439983073698 12.6487883162103  C 8.26853111606238 12.6487883162103  8.71774327901285 13.1011200080701  8.71774327901285 13.6590994273214  C 8.71774327901285 14.1338352152938  8.38949588975634 14.5445349221868  7.92893793103448 14.6460444444444  L 7.08148965517242 14.7882666666667  L 8.57794206896552 19.1260444444444  L 9.81150896551724 18.9189333333333  C 9.84808229689424 18.9148662278141  9.8848501259298 18.9128280563255  9.92164581243717 18.9128280563255  C 10.4757770977626 18.9128280563255  10.924989260713 19.3651597481853  10.924989260713 19.9231391674366  C 10.924989260713 20.3978053398  10.5968360180833 20.8084645458827  10.136364137931 20.9100444444444  L 9.24495448275862 21.0597333333333  L 10.5987531034483 24.9836444444444  L 11.81696 24.7790222222222  C 11.8536508975819 24.7749286635393  11.890538195481 24.7728772050992  11.9274536238405 24.7728772050992  C 12.4815849091659 24.7728772050992  12.9307970721163 25.225208896959  12.9307970721163 25.7831883162103  C 12.9307970721163 26.2579241041827  12.6025496828598 26.6686238110757  12.1419917241379 26.7701333333333  L 11.2654124137931 26.9173333333333  L 11.7009655172414 28.1795555555556  C 11.843529349708 28.5873791308038  11.7779899182482 29.0397044267972  11.5256496551724 29.3895111111111  C 11.2721213793103 29.7420444444445  10.2325848275862 30.1518222222222  9.83075310344828 28.9393777777778  Z M 31.8854767039227 18.5509423596612  C 31.8854767039227 19.0783406317279  31.5803642798357 19.5574123736808  31.1043531034483 19.7774222222222  C 28.2957628728142 21.0967249515948  25.0103794004517 20.8664281597253  22.4104165517241 19.168  C 20.3669226648656 17.820482274274  17.7246414730654 17.820482274274  15.6811475862069 19.168  C 14.5227051352607 19.9321317492143  13.2033277999359 20.4138536868642  11.8277296551724 20.5749333333333  C 11.224275862069 20.6444444444444  11.1307034482759 18.5340444444444  11.6418206896552 18.4629333333333  C 12.5388485508874 18.3354013644294  13.3970052987926 18.0106218726533  14.1553875862069 17.5116444444444  C 17.12556605977 15.5529257672737  20.9661746298852 15.5529257672737  23.9363531034483 17.5116444444444  C 25.7251845827602 18.6794704711847  27.9849823629364 18.8380569406704  29.917395862069 17.9313777777778  C 30.6027696551724 17.6040888888889  31.4219696551724 17.2869333333333  31.7521213793103 17.9640888888889  C 31.8398907560048 18.1470999018129  31.8854767039227 18.347708852613  31.8854767039227 18.5509423596612  Z M 13.6548634482759 25.9672888888889  C 16.6249733892545 24.0085552093617  20.4655424728145 24.0085552093617  23.4356524137931 25.9672888888889  C 25.2075255172414 27.1333333333333  27.8992331034483 27.2951111111111  29.8181737931034 26.3868444444444  C 31.0893462068965 25.7792  31.6509572413793 26.4195555555556  31.6509572413793 26.4195555555556  C 31.7397664427163 26.6031586297811  31.7859188002761 26.8047041149764  31.7859188002761 27.0089272433472  C 31.7859188002761 27.5355557294601  31.4809011036177 28.0138091226893  31.0053075862069 28.2328888888889  C 28.2157903448276 29.5543111111111  24.4843696551724 29.3196444444444  21.9098924137931 27.6238222222222  C 19.8665083141573 26.2759339478317  17.2240075479116 26.2759339478317  15.1806234482759 27.6238222222222  C 14.1801048275862 28.2842666666667  12.7971751724138 26.5320888888889  13.6548634482759 25.9672888888889  Z " fill-rule="nonzero" fill="#000000" stroke="none" transform="matrix(1 0 0 1 1211 587 )" />
  </g>
</svg>