<?xml version="1.0" encoding="utf-8"?>
<svg version="1.1" xmlns:xlink="http://www.w3.org/1999/xlink" width="30px" height="30px" xmlns="http://www.w3.org/2000/svg">
  <g transform="matrix(1 0 0 1 -1151 -493 )">
    <path d="M 21 0  L 23.9926530654762 0  C 25.075600604685 -0.000142120114806397  25.993976542447 0.783347351618262  26.1477550892857 1.83857143300003  L 29.8832652976191 27.552857122754  C 29.897952609678 27.6536410338625  29.9053242781226 27.7553272199963  29.9053242781226 27.85714286407  C 29.9053242781226 29.0406101813102  28.9307060483653 30  27.728453534075 30  L 21 29.999999980951  L 21 0  Z M 6.00081633928571 0  L 9 0  L 9 29.999999980951  L 2.27183672619048 29.999999980951  C 1.06960511305504 29.9999999810497  0.0949868832977332 29.04061016236  0.0949868832977332 27.8571428451197  C 0.0949868832977332 27.7560496643967  0.102254307480503 27.6550832030438  0.116734702380952 27.5549999840794  L 3.84571428571429 1.84071429432541  C 3.9985109818822 0.784639144791842  4.91715184428049 1.02469621411764E-05  6.00081633928571 0  Z M 12.8231292559524 23.5714285731609  L 17.1768707440476 23.5714285731609  L 17.1768707440476 29.999999980951  L 12.8231292559524 29.999999980951  L 12.8231292559524 23.5714285731609  Z M 12.8231292559524 10.7142857282839  L 17.1768707440476 10.7142857282839  L 17.1768707440476 19.285714272004  L 12.8231292559524 19.285714272004  L 12.8231292559524 10.7142857282839  Z M 12.8231292559524 0  L 17.1768707440476 0  L 17.1768707440476 6.42857142712698  L 12.8231292559524 6.42857142712698  L 12.8231292559524 0  Z " fill-rule="nonzero" fill="#000000" stroke="none" transform="matrix(1 0 0 1 1151 493 )" />
  </g>
</svg>