<?xml version="1.0" encoding="utf-8"?>
<svg version="1.1" xmlns:xlink="http://www.w3.org/1999/xlink" width="35px" height="27px" xmlns="http://www.w3.org/2000/svg">
  <g transform="matrix(1 0 0 1 -1313 -452 )">
    <path d="M 33.8313966601289 8.00171268722892  L 33.8313966601289 8.00364315469879  L 30.5762886560194 8.00364315469879  C 30.4283455371062 8.00670559330398  30.2833087232304 8.04510594001981  30.1533961856729 8.11560933108434  L 28.6868516895489 3.80877221493976  C 28.2174022826189 1.35902937253012  26.4482374894929 0.175662650602409  24.275578993182 0.175662650602409  L 10.4927766433175 0.175662650602409  C 7.99615921920239 0.175662650602409  6.48305778649482 1.76249371662651  6.08150392079948 3.8049113060241  L 4.61107969739423 8.12912249927711  C 4.47389201325276 8.04901676343794  4.3181350086984 8.00577628728638  4.15908914168301 8.00364315469879  L 0.905921001214159 8.00364315469879  C 0.902670693063073 8.0036079596061  0.899420216554363 8.00359036166913  0.896169715994013 8.00359036166913  C 0.404963186665936 8.00359036166913  0.00528701284120082 8.39706709612041  0 8.88585944963855  L 0 9.65031821783133  C 0 10.1387224279518  0.407373456617166 10.5344649542169  0.905921001214159 10.5344649542169  L 2.13774076772205 10.7410232559036  C 1.72515033963267 11.5365830478146  1.51594138177262 12.4210709415383  1.52862044643691 13.3162454428916  L 1.07275013729336 18.3991240279518  C 1.07275013729336 18.5458383325301  1.08244950779864 18.6964135460241  1.10184824880919 18.8469887595181  C 1.08244950779864 18.9435113262651  1.07275013729336 19.040033893012  1.07275013729336 19.1365564857831  L 1.07275013729336 25.2502961118072  C 1.07275013729336 26.1189992385542  1.7963230148501 26.8236140096386  2.68866489212665 26.8236140096386  L 5.15812406836649 26.8236140096386  C 6.05046594564304 26.8236140096386  6.77209895955917 26.1189992385542  6.77209895955917 25.2502961118072  L 6.77209895955917 23  L 27.9943168132997 23  L 27.9943168132997 25.2502961118072  C 27.9943168132997 26.1189992385542  28.7178896908565 26.8236140096386  29.6121714317736 26.8236140096386  L 32.0816306080134 26.8236140096386  C 32.97397248529 26.8236140096386  33.6956054992061 26.1189992385542  33.6956054992061 25.2502961118072  L 33.6956054992061 19.1326955768675  C 33.6956054992061 19.0361730101205  33.6859061287009 18.9396504433735  33.6665073876903 18.8450583180723  C 33.6859061287009 18.6944831045783  33.6956054992061 18.5439078910843  33.6956054992061 18.397193586506  L 33.2397351900626 13.3143150014458  C 33.2397351900626 12.3259238804819  33.0166497207434 11.4784557137349  32.6267351153451 10.7352319055422  L 33.8294567703372 10.5344649542169  L 33.8333365237695 10.5344649542169  C 34.3275634938164 10.5387519633614  34.7319874549156 10.1440651787417  34.737317661343 9.65224865927711  L 34.737317661343 8.88585944963856  C 34.7309272992134 8.39266761883256  34.3250782197136 7.99741967586941  33.8294567703372 8.00171268722892  L 33.8313966601289 8.00171268722892  Z M 6.76239958905389 8.65806618795181  L 6.7643394526945 8.65999662939759  L 7.16783318203045 7.10019187373494  L 8.24446307275614 4.30682868433735  L 8.25804217054263 4.24119333686747  C 8.36473521994956 3.67750152  8.60333967684692 3.57518760289157  8.95639669001588 3.14083603951807  L 25.8216582908378 3.14083603951807  C 26.1785950574391 3.58870077108434  26.4036203903988 3.70066694746988  26.5006140954516 4.23540198650602  L 27.5947028373961 7.10212234120482  L 27.9962566769403 8.65999662939759  C 27.9050826151116 9.79896296385542  26.4986742056598 10.6985533359036  25.3328101428972 11  L 9.42778598673765 11  C 8.25804217054264 10.6985533359036  6.85163376109088 9.79896296385542  6.76239958905389 8.65806618795181  Z M 10.4016025814887 17.9995205927711  C 10.3877441307715 19.3314883467561  9.29196026935595 20.4003479727414  7.95348200990007 20.3874889966265  L 7.91856428131129 20.3874889966265  C 6.59476621382408 20.3801663182581  5.52193957930029 19.3168485269871  5.50924119174372 17.9995205927711  C 5.52182736340338 16.6757888048089  6.60372246335938 15.6092875091721  7.93397473072589 15.6092875091721  C 8.00004934681954 15.6092875091721  8.06609635454889 15.6119750956719  8.13195038012515 15.6173435392771  C 9.39960825180383 15.6953418104609  10.3907827506444 16.735656774017  10.4016025814887 17.9995205927711  Z M 21.600493224993 16.6327609966265  L 21.5985533352013 16.6327609966265  L 21.5985533352013 18.6269172896386  C 21.5943233598182 19.020509971934  21.2724979561539 19.3373653699927  20.8769615881668 19.3373653699927  C 20.8743612819941 19.3373653699927  20.8717609948132 19.3373513834856  20.8691608405716 19.3373234110843  L 14.0020080919025 19.3373234110843  C 13.6042002164232 19.3416158317858  13.2779394232272 19.0247112426543  13.2726155972728 18.6288477571084  L 13.2726155972728 16.6346914380723  C 13.2726155972728 16.2428097946988  13.6004542523583 15.9242853166265  14.0020080919025 15.9242853166265  L 20.8711007303633 15.9242853166265  C 21.2726545699075 15.9242853166265  21.600493224993 16.2428097946988  21.600493224993 16.6327609966265  Z M 29.2862726664799 18.0033815016868  L 29.2882125301205 18.0033815016868  C 29.2722321799949 19.3345963615324  28.175886515317 20.4014296031209  26.8381520948912 20.3874889966265  L 26.8342723414589 20.3874889966265  C 25.4980521118081 20.3982100931365  24.4049542669249 19.3311413480887  24.3900315494536 18.0014510342169  C 24.4070729887033 16.6732745578418  25.4995480317095 15.6085394517604  26.8342723414589 15.6192739807229  L 26.8420318483235 15.6192739807229  C 28.1921839245354 15.6192739807229  29.2862726664799 16.6868136173494  29.2862726664799 18.0033815016868  Z " fill-rule="nonzero" fill="#000000" stroke="none" transform="matrix(1 0 0 1 1313 452 )" />
  </g>
</svg>