<?xml version="1.0" encoding="utf-8"?>
<svg version="1.1" xmlns:xlink="http://www.w3.org/1999/xlink" width="30px" height="36px" xmlns="http://www.w3.org/2000/svg">
  <g transform="matrix(1 0 0 1 -1208 -478 )">
    <path d="M 29.8972602739726 14.9318181818182  C 29.9293664383562 6.75  23.2512842465753 0.102272727272727  15 0.102272727272727  C 6.74871575342466 0.102272727272727  0.0706335616438356 6.75  0.0706335616438356 14.9637784090909  C 0.0706335616438356 19.0227272727273  1.70804794520548 22.7301136363636  4.3728595890411 25.4147727272727  L 15 35.8977272727273  L 25.5950342465753 25.3828125  C 28.259845890411 22.6981534090909  29.8972602739726 19.0227272727273  29.8972602739726 14.9318181818182  Z M 15.0321061643836 7.8046875  C 17.9858732876712 7.8046875  20.3938356164384 10.3295454545455  20.1369863013699 13.3338068181818  C 19.9443493150685 15.8267045454545  17.9537671232877 17.8082386363636  15.4494863013699 18  C 12.4315068493151 18.2556818181818  9.8951198630137 15.8586647727273  9.8951198630137 12.9183238636364  C 9.8951198630137 10.1058238636364  12.2067636986301 7.8046875  15.0321061643836 7.8046875  Z " fill-rule="nonzero" fill="#00c196" stroke="none" transform="matrix(1 0 0 1 1208 478 )" />
  </g>
</svg>