<?xml version="1.0" encoding="utf-8"?>
<svg version="1.1" xmlns:xlink="http://www.w3.org/1999/xlink" width="15px" height="15px" xmlns="http://www.w3.org/2000/svg">
  <g transform="matrix(1 0 0 1 0 -7 )">
    <path d="M 14.53125 7.5  C 14.53125 3.68303571624756  11.3169642837524 0.46875  7.5 0.46875  C 3.68303571624756 0.46875  0.46875 3.68303571624756  0.46875 7.5  C 0.46875 11.3169642837524  3.68303571624756 14.53125  7.5 14.53125  C 11.3169642837524 14.53125  14.53125 11.3169642837524  14.53125 7.5  Z M 8.50446428375244 7.5  L 10.5133928512573 9.50892856750488  C 10.8147321350098 9.81026785125732  10.8147321350098 10.2120535675049  10.5133928512573 10.4129464324951  C 10.2120535675049 10.7142857162476  9.81026785125732 10.7142857162476  9.609375 10.4129464324951  L 7.60044643249512 8.40401785125732  L 5.49107143249512 10.5133928512573  C 5.18973214874268 10.8147321350098  4.78794643249512 10.8147321350098  4.48660714874268 10.5133928512573  C 4.18526786499023 10.2120535675049  4.18526786499023 9.70982141876221  4.48660714874268 9.50892856750488  L 6.59598214874268 7.39955356750488  L 4.58705356750488 5.390625  C 4.28571428375244 5.18973214874268  4.28571428375244 4.78794643249512  4.58705356750488 4.48660714874268  C 4.88839285125732 4.18526786499023  5.29017856750488 4.18526786499023  5.49107143249512 4.48660714874268  L 7.5 6.49553571624756  L 9.609375 4.38616071624756  C 9.91071428375244 4.08482143249512  10.3125 4.08482143249512  10.6138392837524 4.38616071624756  C 10.9151785675049 4.6875  10.9151785675049 5.08928571624756  10.6138392837524 5.390625  L 8.50446428375244 7.5  Z " fill-rule="nonzero" fill="#f04844" stroke="none" transform="matrix(1 0 0 1 0 7 )" />
  </g>
</svg>