<?xml version="1.0" encoding="utf-8"?>
<svg version="1.1" xmlns:xlink="http://www.w3.org/1999/xlink" width="17px" height="16px" xmlns="http://www.w3.org/2000/svg">
  <g transform="matrix(1 0 0 1 -80 -351 )">
    <path d="M 17 16  C 17 12.70625  15.19375 11.00625  12.64375 9.51875  C 11.58125 10.475  10.2 11.1125  8.60625 11.1125  C 7.0125 11.1125  5.63125 10.475  4.4625 9.51875  C 1.80625 10.9  0 12.70625  0 16  L 17 16  Z M 3.71875 4.95  C 3.71875 7.7125  5.95 9.8375  8.5 9.8375  C 11.15625 9.8375  13.28125 7.60625  13.28125 4.95  C 13.28125 2.29375  11.15625 0.0625  8.5 0.0625  C 5.84375 0.0625  3.71875 2.29375  3.71875 4.95  Z " fill-rule="nonzero" fill="#006eff" stroke="none" transform="matrix(1 0 0 1 80 351 )" />
  </g>
</svg>