<?xml version="1.0" encoding="utf-8"?>
<svg version="1.1" xmlns:xlink="http://www.w3.org/1999/xlink" width="15px" height="11px" xmlns="http://www.w3.org/2000/svg">
  <g transform="matrix(1 0 0 1 -82 -416 )">
    <path d="M 14.8890625 0.903125  C 14.8890625 0.509375  14.565625 0.2  14.1859375 0.2  L 0.925 0.2  C 0.53125 0.2  0.221875 0.509375  0.221875 0.903125  L 0.221875 10.0578125  C 0.221875 10.4515625  0.53125 10.7609375  0.925 10.7609375  L 14.1859375 10.7609375  C 14.5796875 10.7609375  14.8890625 10.4515625  14.8890625 10.0578125  L 14.8890625 0.903125  Z M 9.08125 4.503125  C 9.0671875 4.925  8.8984375 5.3046875  8.6171875 5.571875  L 8.6171875 6.89375  C 8.6171875 7.484375  8.1390625 7.9625  7.5484375 7.9625  C 6.9578125 7.9625  6.4796875 7.484375  6.4796875 6.89375  L 6.4796875 5.571875  C 6.2125 5.3046875  6.04375 4.925  6.04375 4.503125  C 6.04375 3.659375  6.71875 2.984375  7.5625 2.984375  C 8.40625 2.984375  9.08125 3.659375  9.08125 4.503125  Z " fill-rule="nonzero" fill="#555555" stroke="none" transform="matrix(1 0 0 1 82 416 )" />
  </g>
</svg>