<?xml version="1.0" encoding="utf-8"?>
<svg version="1.1" xmlns:xlink="http://www.w3.org/1999/xlink" width="13px" height="13px" xmlns="http://www.w3.org/2000/svg">
  <g transform="matrix(1 0 0 1 -302 -349 )">
    <path d="M 13 6.5078330078125  C 13 6.1344765625  12.697318359375 5.8318076171875  12.3239111328125 5.8318076171875  L 7.193341796875 5.8318076171875  L 7.193341796875 0.7014287109375  C 7.193341796875 0.328072265625  6.8906474609375 0.025390625  6.5172783203125 0.025390625  C 6.143896484375 0.025390625  5.84121484375 0.3280595703125  5.84121484375 0.7014287109375  L 5.84121484375 5.8318076171875  L 0.7106201171875 5.8318076171875  C 0.33723828125 5.8318076171875  0.034556640625 6.1344765625  0.034556640625 6.5078330078125  C 0.034556640625 6.8812021484375  0.33723828125 7.183896484375  0.7106201171875 7.183896484375  L 5.84121484375 7.183896484375  L 5.84121484375 12.3142626953125  C 5.84121484375 12.68759375  6.143896484375 12.990275390625  6.5172783203125 12.990275390625  C 6.8906474609375 12.990275390625  7.193341796875 12.68759375  7.193341796875 12.3142626953125  L 7.193341796875 7.183896484375  L 12.3239111328125 7.183896484375  C 12.697318359375 7.183896484375  13 6.8812021484375  13 6.5078330078125  Z " fill-rule="nonzero" fill="#ffffff" stroke="none" transform="matrix(1 0 0 1 302 349 )" />
  </g>
</svg>