<?xml version="1.0" encoding="utf-8"?>
<svg version="1.1" xmlns:xlink="http://www.w3.org/1999/xlink" width="13px" height="13px" xmlns="http://www.w3.org/2000/svg">
  <g transform="matrix(1 0 0 1 -439 -350 )">
    <path d="M 12.1798828125 5.20634765625  C 12.1798828125 4.02822265625  11.23408203125 3.0697265625  10.0724609375 3.0697265625  L 9.8083984375 3.0697265625  L 9.8083984375 2.9453125  C 9.8083984375 1.7671875  8.86259765625 0.80869140625  7.7009765625 0.80869140625  L 2.9275390625 0.80869140625  C 1.76591796875 0.80869140625  0.8201171875 1.7671875  0.8201171875 2.9453125  L 0.8201171875 7.784765625  C 0.8201171875 8.962890625  1.76591796875 9.92138671875  2.9275390625 9.92138671875  L 3.1916015625 9.92138671875  L 3.1916015625 10.04580078125  C 3.1916015625 11.22392578125  4.13740234375 12.182421875  5.2990234375 12.182421875  L 10.0724609375 12.182421875  C 11.23408203125 12.182421875  12.1798828125 11.22392578125  12.1798828125 10.04580078125  L 12.1798828125 5.20634765625  Z M 5.2990234375 3.0697265625  C 4.13740234375 3.0697265625  3.1916015625 4.02822265625  3.1916015625 5.20634765625  L 3.1916015625 8.90830078125  L 2.9275390625 8.90830078125  C 2.31689453125 8.90830078125  1.81923828125 8.404296875  1.81923828125 7.784765625  L 1.81923828125 2.9453125  C 1.81923828125 2.32578125  2.31689453125 1.8205078125  2.9275390625 1.8205078125  L 7.7009765625 1.8205078125  C 8.312890625 1.8205078125  8.80927734375 2.32451171875  8.80927734375 2.9453125  L 8.80927734375 3.0697265625  L 5.2990234375 3.0697265625  Z M 11.18076171875 5.20634765625  L 11.18076171875 10.04580078125  C 11.18076171875 10.66533203125  10.68310546875 11.1693359375  10.0724609375 11.1693359375  L 5.2990234375 11.1693359375  C 4.687109375 11.1693359375  4.19072265625 10.66533203125  4.19072265625 10.04580078125  L 4.19072265625 5.20634765625  C 4.19072265625 4.58681640625  4.68837890625 4.08154296875  5.2990234375 4.08154296875  L 10.0724609375 4.08154296875  C 10.684375 4.08154296875  11.18076171875 4.585546875  11.18076171875 5.20634765625  Z M 10.181640625 7.6248046875  C 10.18291015625 7.34677734375  9.958203125 7.11953125  9.68271484375 7.11953125  L 8.18466796875 7.11953125  L 8.18466796875 5.601171875  C 8.18466796875 5.32314453125  7.9599609375 5.09462890625  7.6857421875 5.09462890625  C 7.4115234375 5.09462890625  7.18681640625 5.321875  7.18681640625 5.601171875  L 7.18681640625 7.11953125  L 5.68876953125 7.11953125  C 5.41455078125 7.11953125  5.18984375 7.348046875  5.18984375 7.62607421875  C 5.18984375 7.9041015625  5.41455078125 8.1326171875  5.68876953125 8.1326171875  L 7.18681640625 8.1326171875  L 7.18681640625 9.6509765625  C 7.18681640625 9.92900390625  7.4115234375 10.15751953125  7.6857421875 10.15751953125  C 7.9599609375 10.15751953125  8.18466796875 9.9302734375  8.18466796875 9.6509765625  L 8.18466796875 8.13134765625  L 9.68271484375 8.13134765625  C 9.95693359375 8.13134765625  10.181640625 7.9041015625  10.181640625 7.6248046875  Z " fill-rule="nonzero" fill="#666666" stroke="none" transform="matrix(1 0 0 1 439 350 )" />
  </g>
</svg>