<?xml version="1.0" encoding="utf-8"?>
<svg version="1.1" xmlns:xlink="http://www.w3.org/1999/xlink" width="14px" height="13px" xmlns="http://www.w3.org/2000/svg">
  <g transform="matrix(1 0 0 1 -537 -350 )">
    <path d="M 10.9265625 3.6046875  L 9.384375 2.0625  C 9.296875 1.975  9.296875 1.84375  9.384375 1.75625  L 10.3140625 0.8265625  C 10.4015625 0.7390625  10.5328125 0.7390625  10.6203125 0.8265625  L 12.1625 2.36875  C 12.25 2.45625  12.25 2.5875  12.1625 2.675  L 11.2328125 3.6046875  C 11.1453125 3.6921875  11.0140625 3.6921875  10.9265625 3.6046875  Z M 2.625 10.375  L 5.25 9.609375  L 10.3359375 4.5234375  C 10.4125 4.446875  10.4015625 4.315625  10.3140625 4.2390625  L 8.771875 2.6859375  C 8.684375 2.5984375  8.553125 2.5875  8.4875 2.6640625  L 3.390625 7.75  L 2.625 10.375  Z M 13.125 11  L 0.875 11  L 0.875 12  L 13.125 12  L 13.125 11  Z " fill-rule="nonzero" fill="#666666" stroke="none" transform="matrix(1 0 0 1 537 350 )" />
  </g>
</svg>