<?xml version="1.0" encoding="utf-8"?>
<svg version="1.1" xmlns:xlink="http://www.w3.org/1999/xlink" width="12px" height="12px" xmlns="http://www.w3.org/2000/svg">
  <g transform="matrix(1 0 0 1 -1484 -52 )">
    <path d="M 6 10.95  C 8.73380951166243 10.95  10.95 8.73380951166243  10.95 6  L 11.85 6  C 11.8498200113362 9.23073850601206  9.23073852010423 11.8496740888563  6.00000000907847 11.8496740888563  C 2.76913422256833 11.8496740888563  0.15000000907847 9.23053987536644  0.15000000907847 5.9996740888563  C 0.15000000907847 2.76880830234616  2.76913422256833 0.149674088856297  6.00000000907847 0.149674088856297  C 7.44926008333471 0.149674088856297  8.84692976507424 0.687626863232349  9.9222 1.6593  L 11.3118 0.2697  C 11.3709111750724 0.210342458672373  11.4512311444185 0.176974950591941  11.5350013582829 0.176974950591941  C 11.7089710544796 0.176974950591941  11.8500013582829 0.318005254395241  11.8500013582829 0.491974950591941  L 11.85 3.7824  C 11.85 4.03092813742386  11.6485281374239 4.2324  11.4 4.2324  L 8.1105 4.2324  C 7.93560525439524 4.23240135828294  7.79457495059195 4.09137105447964  7.79457495059195 3.91740135828294  C 7.79457495059195 3.83363114441847  7.82794245867238 3.75331117507239  7.8873 3.6942  L 9.285 2.2974  C 8.37931569124574 1.49378834346834  7.21049920927983 1.05000000962502  5.99969131302326 1.05000000962502  C 3.26588180136083 1.05000000962502  1.04969131302326 3.26619049796259  1.04969131302326 6.00000000962502  C 1.04969131302326 8.73380952128744  3.26588180136083 10.950000009625  5.99969131302326 10.950000009625  Z " fill-rule="nonzero" fill="#409eff" stroke="none" fill-opacity="0.996078431372549" transform="matrix(1 0 0 1 1484 52 )" />
  </g>
</svg>