<?xml version="1.0" encoding="utf-8"?>
<svg version="1.1" xmlns:xlink="http://www.w3.org/1999/xlink" width="4px" height="20px" xmlns="http://www.w3.org/2000/svg">
  <g transform="matrix(1 0 0 1 -257 -140 )">
    <path d="M 0.125 17.5  C 0.125 16.46875  0.96875 15.625  2 15.625  C 3.03125 15.625  3.875 16.46875  3.875 17.5  C 3.875 18.53125  3.03125 19.375  2 19.375  C 0.968749999999998 19.375  0.125 18.53125  0.125 17.5  Z M 2 8.125  C 0.968749999999998 8.125  0.125 8.96875  0.125 10  C 0.125 11.03125  0.96875 11.875  2 11.875  C 3.03125 11.875  3.875 11.03125  3.875 10  C 3.875 8.96875  3.03125 8.125  2 8.125  Z M 2 0.625  C 0.968749999999998 0.625  0.125 1.46875  0.125 2.5  C 0.125 3.53125  0.96875 4.375  2 4.375  C 3.03125 4.375  3.875 3.53125  3.875 2.5  C 3.875 1.46875  3.03125 0.625  2 0.625  Z " fill-rule="nonzero" fill="#333333" stroke="none" transform="matrix(1 0 0 1 257 140 )" />
  </g>
</svg>