<?xml version="1.0" encoding="utf-8"?>
<svg version="1.1" xmlns:xlink="http://www.w3.org/1999/xlink" width="15px" height="15px" viewBox="59 438  15 15" xmlns="http://www.w3.org/2000/svg">
  <path d="M 66.5 438  C 70.7 438  74 441.3  74 445.5  C 74 449.7  70.7 453  66.5 453  C 62.3 453  59 449.7  59 445.5  C 59 441.3  62.3 438  66.5 438  Z " fill-rule="nonzero" fill="#ffffff" stroke="none" />
  <path d="M 66.5 438.5  C 70.42 438.5  73.5 441.58  73.5 445.5  C 73.5 449.42  70.42 452.5  66.5 452.5  C 62.58 452.5  59.5 449.42  59.5 445.5  C 59.5 441.58  62.58 438.5  66.5 438.5  Z " stroke-width="1" stroke="#4284f5" fill="none" />
  <path d="M 66.5 449.25  C 64.4 449.25  62.75 447.6  62.75 445.5  C 62.75 443.4  64.4 441.75  66.5 441.75  C 68.6 441.75  70.25 443.4  70.25 445.5  C 70.25 447.6  68.6 449.25  66.5 449.25  " fill-rule="nonzero" fill="#4284f5" stroke="none" />
</svg>