<?xml version="1.0" encoding="utf-8"?>
<svg version="1.1" xmlns:xlink="http://www.w3.org/1999/xlink" width="15px" height="15px" viewBox="59 518  15 15" xmlns="http://www.w3.org/2000/svg">
  <path d="M 66.5 518  C 70.7 518  74 521.3  74 525.5  C 74 529.7  70.7 533  66.5 533  C 62.3 533  59 529.7  59 525.5  C 59 521.3  62.3 518  66.5 518  Z " fill-rule="nonzero" fill="#ffffff" stroke="none" />
  <path d="M 66.5 518.5  C 70.42 518.5  73.5 521.58  73.5 525.5  C 73.5 529.42  70.42 532.5  66.5 532.5  C 62.58 532.5  59.5 529.42  59.5 525.5  C 59.5 521.58  62.58 518.5  66.5 518.5  Z " stroke-width="1" stroke="#4284f5" fill="none" />
  <path d="M 66.5 529.25  C 64.4 529.25  62.75 527.6  62.75 525.5  C 62.75 523.4  64.4 521.75  66.5 521.75  C 68.6 521.75  70.25 523.4  70.25 525.5  C 70.25 527.6  68.6 529.25  66.5 529.25  " fill-rule="nonzero" fill="#4284f5" stroke="none" />
</svg>