<?xml version="1.0" encoding="utf-8"?>
<svg version="1.1" xmlns:xlink="http://www.w3.org/1999/xlink" width="15px" height="15px" viewBox="144 518  15 15" xmlns="http://www.w3.org/2000/svg">
  <path d="M 151.5 518  C 155.7 518  159 521.3  159 525.5  C 159 529.7  155.7 533  151.5 533  C 147.3 533  144 529.7  144 525.5  C 144 521.3  147.3 518  151.5 518  Z " fill-rule="nonzero" fill="#ffffff" stroke="none" />
  <path d="M 151.5 518.5  C 155.42 518.5  158.5 521.58  158.5 525.5  C 158.5 529.42  155.42 532.5  151.5 532.5  C 147.58 532.5  144.5 529.42  144.5 525.5  C 144.5 521.58  147.58 518.5  151.5 518.5  Z " stroke-width="1" stroke="#4284f5" fill="none" />
  <path d="M 151.5 529.25  C 149.4 529.25  147.75 527.6  147.75 525.5  C 147.75 523.4  149.4 521.75  151.5 521.75  C 153.6 521.75  155.25 523.4  155.25 525.5  C 155.25 527.6  153.6 529.25  151.5 529.25  " fill-rule="nonzero" fill="#4284f5" stroke="none" />
</svg>