<?xml version="1.0" encoding="utf-8"?>
<svg version="1.1" xmlns:xlink="http://www.w3.org/1999/xlink" width="15px" height="15px" viewBox="144 595  15 15" xmlns="http://www.w3.org/2000/svg">
  <path d="M 151.5 595  C 155.7 595  159 598.3  159 602.5  C 159 606.7  155.7 610  151.5 610  C 147.3 610  144 606.7  144 602.5  C 144 598.3  147.3 595  151.5 595  Z " fill-rule="nonzero" fill="#ffffff" stroke="none" />
  <path d="M 151.5 595.5  C 155.42 595.5  158.5 598.58  158.5 602.5  C 158.5 606.42  155.42 609.5  151.5 609.5  C 147.58 609.5  144.5 606.42  144.5 602.5  C 144.5 598.58  147.58 595.5  151.5 595.5  Z " stroke-width="1" stroke="#4284f5" fill="none" />
  <path d="M 151.5 606.25  C 149.4 606.25  147.75 604.6  147.75 602.5  C 147.75 600.4  149.4 598.75  151.5 598.75  C 153.6 598.75  155.25 600.4  155.25 602.5  C 155.25 604.6  153.6 606.25  151.5 606.25  " fill-rule="nonzero" fill="#4284f5" stroke="none" />
</svg>