<?xml version="1.0" encoding="utf-8"?>
<svg version="1.1" xmlns:xlink="http://www.w3.org/1999/xlink" width="15px" height="15px" viewBox="59 595  15 15" xmlns="http://www.w3.org/2000/svg">
  <path d="M 66.5 595  C 70.7 595  74 598.3  74 602.5  C 74 606.7  70.7 610  66.5 610  C 62.3 610  59 606.7  59 602.5  C 59 598.3  62.3 595  66.5 595  Z " fill-rule="nonzero" fill="#f0f0f0" stroke="none" />
  <path d="M 66.5 595.5  C 70.42 595.5  73.5 598.58  73.5 602.5  C 73.5 606.42  70.42 609.5  66.5 609.5  C 62.58 609.5  59.5 606.42  59.5 602.5  C 59.5 598.58  62.58 595.5  66.5 595.5  Z " stroke-width="1" stroke="#4284f5" fill="none" />
  <path d="M 66.5 606.25  C 64.4 606.25  62.75 604.6  62.75 602.5  C 62.75 600.4  64.4 598.75  66.5 598.75  C 68.6 598.75  70.25 600.4  70.25 602.5  C 70.25 604.6  68.6 606.25  66.5 606.25  " fill-rule="nonzero" fill="#4284f5" stroke="none" />
</svg>