<?xml version="1.0" encoding="utf-8"?>
<svg version="1.1" xmlns:xlink="http://www.w3.org/1999/xlink" width="383px" height="595px" xmlns="http://www.w3.org/2000/svg">
  <defs>
    <filter x="25px" y="167px" width="383px" height="595px" filterUnits="userSpaceOnUse" id="filter9">
      <feOffset dx="0" dy="0" in="SourceAlpha" result="shadowOffsetInner" />
      <feGaussianBlur stdDeviation="2" in="shadowOffsetInner" result="shadowGaussian" />
      <feComposite in2="shadowGaussian" operator="atop" in="SourceAlpha" result="shadowComposite" />
      <feColorMatrix type="matrix" values="0 0 0 0 0.949019607843137  0 0 0 0 0.949019607843137  0 0 0 0 0.949019607843137  0 0 0 1 0  " in="shadowComposite" />
    </filter>
    <g id="widget10">
      <path d="M 30 181  A 9 9 0 0 1 39 172 L 394 172  A 9 9 0 0 1 403 181 L 403 748  A 9 9 0 0 1 394 757 L 39 757  A 9 9 0 0 1 30 748 L 30 181  Z " fill-rule="nonzero" fill="#ffffff" stroke="none" />
      <path d="M 29.5 181  A 9.5 9.5 0 0 1 39 171.5 L 394 171.5  A 9.5 9.5 0 0 1 403.5 181 L 403.5 748  A 9.5 9.5 0 0 1 394 757.5 L 39 757.5  A 9.5 9.5 0 0 1 29.5 748 L 29.5 181  Z " stroke-width="1" stroke="#f2f2f2" fill="none" stroke-opacity="0.996078431372549" />
    </g>
  </defs>
  <g transform="matrix(1 0 0 1 -25 -167 )">
    <use xlink:href="#widget10" filter="url(#filter9)" />
    <use xlink:href="#widget10" />
  </g>
</svg>