<?xml version="1.0" encoding="utf-8"?>
<svg version="1.1" xmlns:xlink="http://www.w3.org/1999/xlink" width="21px" height="19px" xmlns="http://www.w3.org/2000/svg">
  <g transform="matrix(1 0 0 1 -71 -190 )">
    <path d="M 20.3958333251953 9.70833332519531  C 20.3992459697285 9.25002298505616  20.3679061543198 8.79211346535963  20.3020833251953 8.33854167480469  C 20.1929960536417 7.87355092764256  19.8399259201794 7.50452281892956  19.3802083251953 7.375  L 19.0625 7.30208332519531  C 17.4381199334549 6.80868468469643  16.4792737316385 5.13526976937931  16.875 3.484375  L 16.96875 3.18229167480469  C 17.0855024487595 2.71977329611552  16.9442080216786 2.23021796798933  16.5989583251953 1.90104167480469  C 16.2343579314361 1.6275564342255  15.8495780696539 1.38206339676644  15.4479166748047 1.16666667480469  C 15.0579460811019 0.928009462701965  14.6505421492561 0.719084369447725  14.2291666748047 0.541666674804688  C 13.7728861334228 0.404238271128138  13.277971062675 0.525971409644677  12.9375 0.859375  L 12.7135416748047 1.09895832519531  C 11.4815491844787 2.26827907982329  9.54970081552128 2.26827907982329  8.31770832519531 1.09895832519531  L 8.10416667480469 0.864583325195313  C 7.7636956121297 0.531179734839988  7.26878054138192 0.409446596323449  6.8125 0.546875  C 6.38763149855707 0.721955155506263  5.97672003368647 0.929152039565188  5.58333332519531 1.16666667480469  C 5.18131534400636 1.3853729586729  4.79652380116027 1.63435571977059  4.43229167480469 1.91145832519531  C 4.08320354848345 2.23832826609612  3.93953363189546 2.7292004811051  4.05729167480469 3.19270832519531  L 4.15104167480469 3.49479167480469  C 4.54282212817536 5.1441788054428  3.5815914339551 6.81320405308046  1.95833332519531 7.30208332519531  L 1.64583332519531 7.375  C 1.18812873914438 7.50614159226545  0.837337676738832 7.87487084365986  0.729166674804688 8.33854167480469  C 0.671504569147762 8.79447233483642  0.648868839593684 9.25415165528092  0.661458325195312 9.71354167480469  C 0.650010326075388 10.1642581126214  0.67264423983641 10.6151952064338  0.729166674804687 11.0625  C 0.829927714387761 11.5356075209891  1.18180548588107 11.9154755733812  1.64583332519531 12.0520833251953  L 1.94791667480469 12.1197916748047  C 3.58355037503476 12.6067932578846  4.55168668127536 14.2890159176644  4.15104167480469 15.9479166748047  L 4.05729167480469 16.25  C 3.93953363189546 16.7135078440902  4.08320354848345 17.2043800590992  4.43229167480469 17.53125  C 4.79614593492973 17.8088901651642  5.18097982415299 18.0579003350212  5.58333332519531 18.2760416748047  C 5.97532763452773 18.5068391065393  6.38452524060136 18.7070847381705  6.80729167480469 18.875  C 7.26266394001107 19.0126104221277  7.75685047685982 18.8930491617061  8.09895832519531 18.5625  L 8.3125 18.3541666748047  C 9.54693613483231 17.1808832657938  11.4843138651677 17.1808832657938  12.71875 18.3541666748047  L 12.9322916748047 18.5833333251953  C 13.2743995231402 18.9138824869014  13.7685860599889 19.033443747323  14.2239583251953 18.8958333251953  C 14.6466855671428 18.7177245634038  15.0557705491882 18.5088301072648  15.4479166748047 18.2708333251953  C 15.8500904157312 18.0523891970838  16.2349015125382 17.8033937834232  16.5989583251953 17.5260416748047  C 16.9470614091499 17.1985665655211  17.0905604799916 16.7082780734788  16.9739583251953 16.2447916748047  L 16.8802083251953 15.9322916748047  C 16.4795633187246 14.2733909176644  17.4476996249652 12.5911682578846  19.0833333251953 12.1041666748047  L 19.3854166748047 12.0364583251953  C 19.8485051266942 11.9061558446155  20.2026109618984 11.5320440331471  20.3072916748047 11.0625  C 20.3709024542888 10.6139887756385  20.400500748705 10.1613088927513  20.3958333251953 9.70833332519531  Z M 13.6666709579428 9.5052125942904  C 13.6666709579428 11.2549588245224  12.2497438752108 12.6742125459334  10.5 12.6770833251953  C 10.4965277948828 12.6770947095178  10.4930555734353 12.6771004016905  10.4895833496553 12.6771004016905  C 8.73492868020819 12.6771004016905  7.31250002445996 11.2546717459422  7.31250002445996 9.50001707649515  C 7.31250002445996 7.74536240704807  8.73492868020819 6.32293375129984  10.4895833496553 6.32293375129984  C 12.2442380191023 6.32293375129984  13.6666666748506 7.74536240704807  13.6666666748506 9.50001707649515  C 13.6666695302296 9.50173752996369  13.6666709579428 9.50347506198043  13.6666709579428 9.5052125942904  Z " fill-rule="nonzero" fill="#ffffff" stroke="none" transform="matrix(1 0 0 1 71 190 )" />
  </g>
</svg>