<?xml version="1.0" encoding="utf-8"?>
<svg version="1.1" xmlns:xlink="http://www.w3.org/1999/xlink" width="20px" height="20px" xmlns="http://www.w3.org/2000/svg">
  <g transform="matrix(1 0 0 1 -71 -245 )">
    <path d="M 8.25654166666667 16.661125  C 8.49785416666667 16.4672916666667  8.58397916666667 16.4007916666667  8.73508333333333 16.3021875  C 8.87647916666667 16.2099375  9.02014583333333 16.1312916666667  9.18304166666667 16.0651666666667  C 9.43404166666667 15.9632916666667  9.70416666666667 15.9027708333333  10 15.9027708333333  C 14.5332916666667 15.9027708333333  18.125 12.7101458333333  18.125 8.88889583333334  C 18.125 5.06764583333334  14.5332916666667 1.875  10 1.875  C 5.46670833333333 1.875  1.875 5.067625  1.875 8.88889583333333  C 1.875 11.5607083333333  3.63902083333333 14.0006458333333  6.41914583333333 15.1846458333333  C 7.1630625 15.5014791666667  7.59429166666667 16.1710208333333  7.6649375 16.9012916666667  C 7.6713125 16.9672083333333  7.67491666666667 17.0315833333333  7.6759375 17.0948125  C 7.84991666666667 16.9806458333333  8.01739583333333 16.85325  8.2565625 16.661125  Z M 5.5555625 20  C 3.88889583333333 20  6.34577083333333 17.191375  5.68445833333333 16.9097291666667  C 2.32204166666667 15.4777083333333  0 12.4243333333333  0 8.88889583333333  C 0 3.9796875  4.47714583333333 0  10 0  C 15.5228541666667 0  20 3.9796875  20 8.88889583333333  C 20 13.7980833333333  15.5228541666667 17.7777708333333  10 17.7777708333333  C 9.719375 17.7777708333333  9.31839583333333 18.3276875  8.33333333333333 18.8888958333333  C 7.36833333333333 19.4386875  6.3803125 20  5.5555625 20  Z M 7.41666666666667 8.04166666666667  L 12.5833333333333 8.04166666666667  C 13.8333333333333 8.04166666666667  13.8333333333333 6.16666666666667  12.5833333333333 6.16666666666667  L 7.41666666666667 6.16666666666667  C 6.16666666666667 6.16666666666667  6.16666666666667 8.04166666666667  7.41666666666667 8.04166666666667  Z M 7.41666666666667 11.875  L 11.1666666666667 11.875  C 12.4166666666667 11.875  12.4166666666667 10  11.1666666666667 10  L 7.41666666666667 10  C 6.16666666666667 10  6.16666666666667 11.875  7.41666666666667 11.875  Z " fill-rule="nonzero" fill="#ffffff" stroke="none" transform="matrix(1 0 0 1 71 245 )" />
  </g>
</svg>