<?xml version="1.0" encoding="utf-8"?>
<svg version="1.1" xmlns:xlink="http://www.w3.org/1999/xlink" width="19px" height="19px" xmlns="http://www.w3.org/2000/svg">
  <g transform="matrix(1 0 0 1 -72 -302 )">
    <path d="M 0.117283943287037 9.5  C 0.117283943287037 4.31816050115741  4.31816050115741 0.117283943287037  9.5 0.117283943287037  C 14.6818394988426 0.117283943287037  18.882716056713 4.31816047916667  18.882716056713 9.5  C 18.882716056713 14.6818395208333  14.6818394988426 18.882716056713  9.5 18.882716056713  C 4.31816050115741 18.882716056713  0.117283943287037 14.6818394988426  0.117283943287037 9.5  Z M 9.5 13.0185185185185  C 9.111355176045 13.0185185185185  8.7962962962963 13.3335773982672  8.7962962962963 13.7222222222222  C 8.7962962962963 14.1108670461772  9.111355176045 14.4259259259259  9.5 14.4259259259259  C 9.888644823955 14.4259259259259  10.2037037037037 14.1108670461772  10.2037037037037 13.7222222222222  C 10.2037037037037 13.3335773982672  9.888644823955 13.0185185185185  9.5 13.0185185185185  Z M 9.44464198263889 4.80864198263889  C 8.37993827893519 4.80864198263889  7.40507407407407 5.33993827893519  6.83624690625 6.20314814814815  C 6.68673329082411 6.42984750242723  6.56853647944109 6.67570950238867  6.48486420486111 6.93406172106482  C 6.46225192351358 7.00400544961054  6.45073638157718 7.07705979984805  6.45073638157718 7.15056789756944  C 6.45073638157718 7.53927649399621  6.76584695912879 7.85438707154782  7.15455555555556 7.85438707154782  C 7.45985048896887 7.85438707154782  7.73033324037766 7.65756541599369  7.82424690625 7.36707407407407  C 7.86858023958333 7.22985185185185  7.93167899768518 7.09872838773148  8.01166666666667 6.97745679745371  C 8.3212962962963 6.50738272337963  8.85587653587963 6.2160493900463  9.44464198263889 6.2160493900463  C 10.3857283877315 6.2160493900463  11.1419753159722 6.95493827893518  11.1419753159722 7.85802468402778  C 11.1419753159722 8.76111108912037  10.3854938344907 9.5  9.44440740740741 9.5  C 9.0557625834524 9.5  8.7407037037037 9.8150588797487  8.7407037037037 10.2037037037037  L 8.7407037037037 11.6111111111111  C 8.7407037037037 11.9997559350661  9.0557625834524 12.3148148148148  9.44440740740741 12.3148148148148  C 9.83305223136241 12.3148148148148  10.1481111111111 11.9997559350661  10.1481111111111 11.6111111111111  L 10.1481111111111 10.8285925925926  C 11.5219753159722 10.5159135729167  12.5493827233796 9.30718518518519  12.5493827233796 7.85802468402778  C 12.5493827233796 6.17007407407407  11.1555802615741 4.80864196064815  9.44440740740741 4.80864198263889  Z " fill-rule="nonzero" fill="#ffffff" stroke="none" transform="matrix(1 0 0 1 72 302 )" />
  </g>
</svg>