<?xml version="1.0" encoding="utf-8"?>
<svg version="1.1" xmlns:xlink="http://www.w3.org/1999/xlink" width="15px" height="15px" viewBox="933 365  15 15" xmlns="http://www.w3.org/2000/svg">
  <path d="M 940.5 365  C 944.7 365  948 368.3  948 372.5  C 948 376.7  944.7 380  940.5 380  C 936.3 380  933 376.7  933 372.5  C 933 368.3  936.3 365  940.5 365  Z " fill-rule="nonzero" fill="#ffffff" stroke="none" />
  <path d="M 940.5 365.5  C 944.42 365.5  947.5 368.58  947.5 372.5  C 947.5 376.42  944.42 379.5  940.5 379.5  C 936.58 379.5  933.5 376.42  933.5 372.5  C 933.5 368.58  936.58 365.5  940.5 365.5  Z " stroke-width="1" stroke="#4284f5" fill="none" />
  <path d="M 940.5 376.25  C 938.4 376.25  936.75 374.6  936.75 372.5  C 936.75 370.4  938.4 368.75  940.5 368.75  C 942.6 368.75  944.25 370.4  944.25 372.5  C 944.25 374.6  942.6 376.25  940.5 376.25  " fill-rule="nonzero" fill="#4284f5" stroke="none" />
</svg>