<?xml version="1.0" encoding="utf-8"?>
<svg version="1.1" xmlns:xlink="http://www.w3.org/1999/xlink" width="15px" height="15px" viewBox="531 338  15 15" xmlns="http://www.w3.org/2000/svg">
  <path d="M 538.5 338  C 542.7 338  546 341.3  546 345.5  C 546 349.7  542.7 353  538.5 353  C 534.3 353  531 349.7  531 345.5  C 531 341.3  534.3 338  538.5 338  Z " fill-rule="nonzero" fill="#ffffff" stroke="none" />
  <path d="M 538.5 338.5  C 542.42 338.5  545.5 341.58  545.5 345.5  C 545.5 349.42  542.42 352.5  538.5 352.5  C 534.58 352.5  531.5 349.42  531.5 345.5  C 531.5 341.58  534.58 338.5  538.5 338.5  Z " stroke-width="1" stroke="#4284f5" fill="none" />
  <path d="M 538.5 349.25  C 536.4 349.25  534.75 347.6  534.75 345.5  C 534.75 343.4  536.4 341.75  538.5 341.75  C 540.6 341.75  542.25 343.4  542.25 345.5  C 542.25 347.6  540.6 349.25  538.5 349.25  " fill-rule="nonzero" fill="#4284f5" stroke="none" />
</svg>