<?xml version="1.0" encoding="utf-8"?>
<svg version="1.1" xmlns:xlink="http://www.w3.org/1999/xlink" width="15px" height="15px" viewBox="144 578  15 15" xmlns="http://www.w3.org/2000/svg">
  <path d="M 151.5 578  C 155.7 578  159 581.3  159 585.5  C 159 589.7  155.7 593  151.5 593  C 147.3 593  144 589.7  144 585.5  C 144 581.3  147.3 578  151.5 578  Z " fill-rule="nonzero" fill="#ffffff" stroke="none" />
  <path d="M 151.5 578.5  C 155.42 578.5  158.5 581.58  158.5 585.5  C 158.5 589.42  155.42 592.5  151.5 592.5  C 147.58 592.5  144.5 589.42  144.5 585.5  C 144.5 581.58  147.58 578.5  151.5 578.5  Z " stroke-width="1" stroke="#4284f5" fill="none" />
  <path d="M 151.5 589.25  C 149.4 589.25  147.75 587.6  147.75 585.5  C 147.75 583.4  149.4 581.75  151.5 581.75  C 153.6 581.75  155.25 583.4  155.25 585.5  C 155.25 587.6  153.6 589.25  151.5 589.25  " fill-rule="nonzero" fill="#4284f5" stroke="none" />
</svg>