<?xml version="1.0" encoding="utf-8"?>
<svg version="1.1" xmlns:xlink="http://www.w3.org/1999/xlink" width="15px" height="15px" viewBox="59 578  15 15" xmlns="http://www.w3.org/2000/svg">
  <path d="M 66.5 578  C 70.7 578  74 581.3  74 585.5  C 74 589.7  70.7 593  66.5 593  C 62.3 593  59 589.7  59 585.5  C 59 581.3  62.3 578  66.5 578  Z " fill-rule="nonzero" fill="#ffffff" stroke="none" />
  <path d="M 66.5 578.5  C 70.42 578.5  73.5 581.58  73.5 585.5  C 73.5 589.42  70.42 592.5  66.5 592.5  C 62.58 592.5  59.5 589.42  59.5 585.5  C 59.5 581.58  62.58 578.5  66.5 578.5  Z " stroke-width="1" stroke="#4284f5" fill="none" />
  <path d="M 66.5 589.25  C 64.4 589.25  62.75 587.6  62.75 585.5  C 62.75 583.4  64.4 581.75  66.5 581.75  C 68.6 581.75  70.25 583.4  70.25 585.5  C 70.25 587.6  68.6 589.25  66.5 589.25  " fill-rule="nonzero" fill="#4284f5" stroke="none" />
</svg>