<?xml version="1.0" encoding="utf-8"?>
<svg version="1.1" xmlns:xlink="http://www.w3.org/1999/xlink" width="15px" height="15px" viewBox="59 655  15 15" xmlns="http://www.w3.org/2000/svg">
  <path d="M 66.5 655  C 70.7 655  74 658.3  74 662.5  C 74 666.7  70.7 670  66.5 670  C 62.3 670  59 666.7  59 662.5  C 59 658.3  62.3 655  66.5 655  Z " fill-rule="nonzero" fill="#ffffff" stroke="none" />
  <path d="M 66.5 655.5  C 70.42 655.5  73.5 658.58  73.5 662.5  C 73.5 666.42  70.42 669.5  66.5 669.5  C 62.58 669.5  59.5 666.42  59.5 662.5  C 59.5 658.58  62.58 655.5  66.5 655.5  Z " stroke-width="1" stroke="#4284f5" fill="none" />
  <path d="M 66.5 666.25  C 64.4 666.25  62.75 664.6  62.75 662.5  C 62.75 660.4  64.4 658.75  66.5 658.75  C 68.6 658.75  70.25 660.4  70.25 662.5  C 70.25 664.6  68.6 666.25  66.5 666.25  " fill-rule="nonzero" fill="#4284f5" stroke="none" />
</svg>