<?xml version="1.0" encoding="utf-8"?>
<svg version="1.1" xmlns:xlink="http://www.w3.org/1999/xlink" width="15px" height="15px" viewBox="144 655  15 15" xmlns="http://www.w3.org/2000/svg">
  <path d="M 151.5 655  C 155.7 655  159 658.3  159 662.5  C 159 666.7  155.7 670  151.5 670  C 147.3 670  144 666.7  144 662.5  C 144 658.3  147.3 655  151.5 655  Z " fill-rule="nonzero" fill="#ffffff" stroke="none" />
  <path d="M 151.5 655.5  C 155.42 655.5  158.5 658.58  158.5 662.5  C 158.5 666.42  155.42 669.5  151.5 669.5  C 147.58 669.5  144.5 666.42  144.5 662.5  C 144.5 658.58  147.58 655.5  151.5 655.5  Z " stroke-width="1" stroke="#4284f5" fill="none" />
  <path d="M 151.5 666.25  C 149.4 666.25  147.75 664.6  147.75 662.5  C 147.75 660.4  149.4 658.75  151.5 658.75  C 153.6 658.75  155.25 660.4  155.25 662.5  C 155.25 664.6  153.6 666.25  151.5 666.25  " fill-rule="nonzero" fill="#4284f5" stroke="none" />
</svg>