<?xml version="1.0" encoding="utf-8"?>
<svg version="1.1" xmlns:xlink="http://www.w3.org/1999/xlink" width="25px" height="25px" xmlns="http://www.w3.org/2000/svg">
  <g transform="matrix(1 0 0 1 -43 -50 )">
    <path d="M 20.3926411290323 24.9775705645161  C 17.9315778864647 24.9775705645161  15.9364919354839 22.9824846135353  15.9364919354839 20.5214213709677  C 15.9364919354839 18.0603581284002  17.9315778864647 16.0652721774194  20.3926411290323 16.0652721774194  C 22.8537043715998 16.0652721774194  24.8487903225807 18.0603581284002  24.8487903225807 20.5214213709677  C 24.8487903225807 22.9824846135353  22.8537043715998 24.9775705645161  20.3926411290323 24.9775705645161  Z M 22.742439516129 20.2021169354839  C 22.8994455645161 20.0380544354839  22.8112399193548 19.7522681451613  22.5889616935484 19.7169858870968  L 21.3805443548387 19.5317540322581  C 21.2911325368918 19.5163932757766  21.2147905367645 19.4584786549903  21.1759072580645 19.3765120967742  L 20.6360887096774 18.2245463709677  C 20.5940236871641 18.1280635722294  20.4987771477439 18.0656842888835  20.3935231854839 18.0656842888835  C 20.2882692232239 18.0656842888835  20.1930226838037 18.1280635722294  20.1509576612903 18.2245463709677  L 19.6111391129032 19.3765120967742  C 19.5737611531961 19.459689026695  19.4966738608041 19.5181690416132  19.406502016129 19.5317540322581  L 18.1980846774194 19.7169858870968  C 17.9758064516129 19.7505040322581  17.8876008064516 20.0380544354839  18.0481350806452 20.2021169354839  L 18.9231350806452 21.0982862903226  C 18.9875852171542 21.1652875122197  19.0163925014065 21.2589111860396  19.0007560483871 21.3505544354839  L 18.7943548387097 22.6154233870968  C 18.7555443548387 22.8482862903226  18.9884072580645 23.0264616935484  19.187752016129 22.9153225806452  L 20.2691532258065 22.3172883064516  C 20.3474869730703 22.2732888635978  20.4430876237039 22.2732888635978  20.5214213709677 22.3172883064516  L 21.6028225806452 22.9153225806452  C 21.8021673387097 23.0246975806452  22.0332661290323 22.8482862903226  21.9962197580645 22.6154233870968  L 21.7898185483871 21.3505544354839  C 21.7741820953677 21.2589111860396  21.80298937962 21.1652875122197  21.867439516129 21.0982862903226  L 22.742439516129 20.2021169354839  Z M 18.6920362903226 15.6436491935484  C 16.6164537074901 16.3667969075976  15.2251979307114 18.3234714868413  15.2237903225806 20.5214213709677  C 15.2237903225806 21.6539818548387  15.5924899193548 22.7001008064516  16.2116935483871 23.5521673387097  L 1.25378024193548 23.5521673387097  C 0.26940524193548 23.5521673387097  -0.106350806451616 22.5625  0.331149193548384 21.5587197580645  C 0.331149193548384 21.5587197580645  1.05619959677419 19.9463205645161  3.60005040322581 16.4357358870968  C 4.37273185483871 15.3878528225806  5.171875 14.359375  5.99571572580646 13.3520665322581  C 7.47404911910919 14.7473980596137  9.42811295601413 15.5276359441365  11.4609375 15.5342741935484  C 13.4853287367363 15.5275982477993  15.4317093087736 14.7527029698486  16.9067540322581 13.3661794354839  C 17.5171370967742 14.1123991935484  18.1098790322581 14.8744959677419  18.6920362903226 15.6436491935484  Z M 18.0922379032258 6.94480846774194  C 18.0922379032258 10.7676411290323  15.1232358870968 13.8654233870968  11.4609375 13.8654233870968  C 7.79863911290322 13.8654233870968  4.82963709677419 10.765877016129  4.82963709677419 6.94304435483871  C 4.82963709677419 6.75013922248862  4.83720417806983 6.55907303027514  4.85204552591245 6.37015175826121  C 5.13118187978387 2.81691686356588  7.9835287965407 0.0224294354838719  11.4609375 0.0224294354838719  C 15.1232358870968 0.0224294354838719  18.0922379032258 3.12197580645161  18.0922379032258 6.94480846774194  Z " fill-rule="nonzero" fill="#ffffff" stroke="none" transform="matrix(1 0 0 1 43 50 )" />
  </g>
</svg>