<?xml version="1.0" encoding="utf-8"?>
<svg version="1.1" xmlns:xlink="http://www.w3.org/1999/xlink" width="12px" height="12px" xmlns="http://www.w3.org/2000/svg">
  <g transform="matrix(1 0 0 1 -1285 -49 )">
    <path d="M 6.2484375 2.595703125  C 6.284765625 2.559375  6.315234375 2.518359375  6.34453125 2.484375  C 7.409765625 3.5484375  8.45859375 4.594921875  9.54375 5.677734375  C 9.50859375 5.698828125  9.4546875 5.71875  9.4171875 5.75625  C 7.829296875 7.3265625  6.240234375 8.895703125  4.66171875 10.47421875  C 4.45546875 10.68046875  4.233984375 10.81171875  3.955078125 10.890234375  C 2.872265625 11.197265625  1.79296875 11.520703125  0.7125 11.837109375  C 0.47109375 11.907421875  0.282421875 11.844140625  0.16171875 11.656640625  C 0.0820312500000001 11.534765625  0.0820312500000001 11.398828125  0.120703125 11.265234375  C 0.46640625 10.083984375  0.812109375 8.902734375  1.1625 7.72265625  C 1.18828125 7.637109375  1.2421875 7.550390625  1.30546875 7.48828125  C 2.951953125 5.855859375  4.60078125 4.22578125  6.2484375 2.595703125  Z M 1.98984375 8.2734375  C 1.9828125 8.260546875  1.967578125 8.253515625  1.940625 8.232421875  C 1.92421875 8.281640625  1.911328125 8.316796875  1.90078125 8.353125  C 1.754296875 8.84765625  1.6265625 9.34921875  1.456640625 9.835546875  C 1.367578125 10.088671875  1.3921875 10.26796875  1.613671875 10.41796875  C 1.6546875 10.44609375  1.68984375 10.484765625  1.7203125 10.524609375  C 1.768359375 10.587890625  1.822265625 10.5890625  1.89375 10.56796875  C 2.298046875 10.44609375  2.7046875 10.327734375  3.11015625 10.208203125  C 3.312890625 10.1484375  3.515625 10.08984375  3.73359375 10.025390625  C 3.699609375 9.98671875  3.680859375 9.95625  3.655078125 9.9375  C 3.488671875 9.816796875  3.413671875 9.65625  3.42890625 9.45  C 3.434765625 9.37265625  3.42421875 9.2953125  3.41953125 9.216796875  C 3.406640625 9.001171875  3.392578125 8.785546875  3.378515625 8.565234375  C 3.08203125 8.540625  2.799609375 8.511328125  2.5171875 8.497265625  C 2.3109375 8.48671875  2.11640625 8.465625  1.98984375 8.2734375  Z M 11.5265625 3.4640625  C 11.3859375 3.609375  11.240625 3.74765625  11.103515625 3.88359375  C 10.095703125 2.878125  9.090234375 1.87265625  8.07421875 0.8578125  C 8.319140625 0.63515625  8.516015625 0.34453125  8.837109375 0.18984375  C 9.223828125 0.00351562499999986  9.70546875 0.0914062499999999  10.048828125 0.42890625  C 10.546875 0.919921875  11.04375 1.412109375  11.532421875 1.913671875  C 11.98359375 2.3765625  11.9765625 3.001171875  11.5265625 3.4640625  Z M 7.526953125 1.31484375  C 8.583984375 2.36953125  9.633984375 3.41953125  10.6921875 4.47890625  C 10.466015625 4.691015625  10.23046875 4.911328125  10.00078125 5.12578125  C 8.94375 4.06875  7.89375 3.01875  6.83671875 1.962890625  C 7.06875 1.74609375  7.303125 1.52578125  7.526953125 1.31484375  Z " fill-rule="nonzero" fill="#555555" stroke="none" transform="matrix(1 0 0 1 1285 49 )" />
  </g>
</svg>