<?xml version="1.0" encoding="utf-8"?>
<svg version="1.1" xmlns:xlink="http://www.w3.org/1999/xlink" width="12px" height="12px" xmlns="http://www.w3.org/2000/svg">
  <g transform="matrix(1 0 0 1 -1406 -49 )">
    <path d="M 11.25 5.9578125  C 11.25234375 5.61796875  11.183203125 5.201953125  11.152734375 5.025  C 11.150390625 5.00390625  11.148046875 4.986328125  11.14453125 4.97578125  L 11.14453125 4.96640625  L 11.13984375 4.940625  C 11.056640625 4.53515625  10.78828125 4.273828125  10.454296875 4.273828125  L 10.39921875 4.273828125  C 9.8296875 4.273828125  9.36796875 3.809765625  9.36796875 3.242578125  C 9.36796875 3.111328125  9.42890625 2.925  9.4546875 2.859375  C 9.61640625 2.48203125  9.444140625 2.051953125  9.04453125 1.8328125  L 7.787109375 1.121484375  L 7.763671875 1.11328125  C 7.669921875 1.0828125  7.5609375 1.046484375  7.4390625 1.046484375  C 7.21171875 1.046484375  6.95625 1.151953125  6.798046875 1.31015625  C 6.6 1.505859375  6.198046875 1.79765625  5.958984375 1.79765625  C 5.72109375 1.79765625  5.31796875 1.50703125  5.119921875 1.31015625  C 4.951171875 1.14375  4.71796875 1.046484375  4.47890625 1.046484375  C 4.353515625 1.046484375  4.248046875 1.081640625  4.154296875 1.11328125  L 4.133203125 1.121484375  L 2.81484375 1.83515625  L 2.806640625 1.83984375  C 2.48671875 2.040234375  2.356640625 2.499609375  2.51953125 2.8640625  L 2.521875 2.86875  L 2.52421875 2.8734375  C 2.55 2.930859375  2.6296875 3.125390625  2.6296875 3.2953125  C 2.6296875 3.86484375  2.165625 4.3265625  1.5984375 4.3265625  L 1.543359375 4.3265625  C 1.194140625 4.3265625  0.932812499999999 4.584375  0.857812499999999 4.998046875  L 0.853124999999998 5.021484375  L 0.853124999999998 5.0296875  C 0.853124999999998 5.04140625  0.848437499999998 5.0578125  0.844921874999998 5.07890625  C 0.815624999999998 5.255859375  0.745312499999998 5.673046875  0.745312499999998 6.0140625  C 0.745312499999998 6.355078125  0.814453124999998 6.772265625  0.844921874999998 6.94921875  C 0.847265624999998 6.9703125  0.849609374999998 6.987890625  0.853124999999998 6.9984375  L 0.853124999999998 7.0078125  L 0.857812499999999 7.03359375  C 0.941015624999998 7.4390625  1.209375 7.700390625  1.543359375 7.700390625  L 1.571484375 7.700390625  C 2.141015625 7.700390625  2.602734375 8.164453125  2.602734375 8.731640625  C 2.602734375 8.862890625  2.541796875 9.04921875  2.516015625 9.11484375  C 2.36015625 9.469921875  2.5078125 9.92578125  2.85234375 10.15546875  L 2.86171875 10.16015625  L 4.10390625 10.8515625  L 4.12734375 10.859765625  C 4.22109375 10.890234375  4.327734375 10.9265625  4.449609375 10.9265625  C 4.709765625 10.9265625  4.944140625 10.826953125  5.090625 10.662890625  C 5.1046875 10.65234375  5.11875 10.63828125  5.13515625 10.62421875  C 5.28515625 10.49296875  5.68828125 10.14609375  5.954296875 10.14609375  C 6.15234375 10.14609375  6.483984375 10.353515625  6.81796875 10.6875  C 6.98671875 10.85390625  7.219921875 10.951171875  7.458984375 10.951171875  C 7.620703125 10.951171875  7.740234375 10.906640625  7.876171875 10.83984375  L 7.880859375 10.8375  L 9.1546875 10.133203125  L 9.159375 10.128515625  C 9.479296875 9.928125  9.609375 9.46875  9.446484375 9.104296875  L 9.444140625 9.099609375  L 9.441796875 9.094921875  C 9.439453125 9.09375  9.33984375 8.886328125  9.35859375 8.7  L 9.3609375 8.68828125  L 9.3609375 8.6765625  C 9.3609375 8.10703125  9.825 7.6453125  10.3921875 7.6453125  L 10.45078125 7.6453125  C 10.8 7.6453125  11.061328125 7.3875  11.136328125 6.973828125  L 11.141015625 6.950390625  L 11.141015625 6.9421875  C 11.143359375 6.9328125  11.145703125 6.91875  11.14921875 6.9  C 11.1796875 6.727734375  11.25 6.32578125  11.25 5.9578125  Z M 7.627734375 6  C 7.627734375 6.901171875  6.89765625 7.63125  5.996484375 7.63125  C 5.0953125 7.63125  4.365234375 6.901171875  4.365234375 6  C 4.365234375 5.098828125  5.0953125 4.36875  5.996484375 4.36875  C 6.89765625 4.36875  7.627734375 5.098828125  7.627734375 6  Z " fill-rule="nonzero" fill="#409eff" stroke="none" fill-opacity="0.996078431372549" transform="matrix(1 0 0 1 1406 49 )" />
  </g>
</svg>