<?xml version="1.0" encoding="utf-8"?>
<svg version="1.1" xmlns:xlink="http://www.w3.org/1999/xlink" width="15px" height="15px" viewBox="641 110  15 15" xmlns="http://www.w3.org/2000/svg">
  <path d="M 648.5 110  C 652.7 110  656 113.3  656 117.5  C 656 121.7  652.7 125  648.5 125  C 644.3 125  641 121.7  641 117.5  C 641 113.3  644.3 110  648.5 110  Z " fill-rule="nonzero" fill="#ffffff" stroke="none" />
  <path d="M 648.5 110.5  C 652.42 110.5  655.5 113.58  655.5 117.5  C 655.5 121.42  652.42 124.5  648.5 124.5  C 644.58 124.5  641.5 121.42  641.5 117.5  C 641.5 113.58  644.58 110.5  648.5 110.5  Z " stroke-width="1" stroke="#4284f5" fill="none" />
  <path d="M 648.5 121.25  C 646.4 121.25  644.75 119.6  644.75 117.5  C 644.75 115.4  646.4 113.75  648.5 113.75  C 650.6 113.75  652.25 115.4  652.25 117.5  C 652.25 119.6  650.6 121.25  648.5 121.25  " fill-rule="nonzero" fill="#4284f5" stroke="none" />
</svg>