<?xml version="1.0" encoding="utf-8"?>
<svg version="1.1" xmlns:xlink="http://www.w3.org/1999/xlink" width="23px" height="23px" xmlns="http://www.w3.org/2000/svg">
  <g transform="matrix(1 0 0 1 -637 -57 )">
    <path d="M 15.6 1.3875  C 16.9333333333333 1.9125  18.1333333333333 2.70833333333333  19.2 3.775  C 20.2666666666667 4.84166666666667  21.0625 6.04166666666667  21.5875 7.375  C 22.1125 8.70833333333333  22.375 10.075  22.375 11.475  C 22.375 12.875  22.1125 14.2416666666667  21.5875 15.575  C 21.0625 16.9083333333333  20.2666666666667 18.1083333333333  19.2 19.175  C 18.1333333333333 20.2416666666667  16.9333333333333 21.0416666666667  15.6 21.575  C 14.2666666666667 22.1083333333333  12.9 22.375  11.5 22.375  C 10.1 22.375  8.72916666666667 22.1083333333333  7.3875 21.575  C 6.04583333333334 21.0416666666667  4.84166666666667 20.2416666666667  3.775 19.175  C 2.70833333333333 18.1083333333333  1.90833333333333 16.9083333333333  1.375 15.575  C 0.841666666666669 14.2416666666667  0.575000000000002 12.875  0.575000000000001 11.475  C 0.574999999999999 10.075  0.841666666666666 8.70833333333334  1.375 7.375  C 1.90833333333334 6.04166666666666  2.70833333333334 4.84166666666666  3.775 3.775  C 4.84166666666667 2.70833333333334  6.04583333333333 1.9125  7.3875 1.3875  C 8.72916666666667 0.862499999999996  10.1 0.599999999999996  11.5 0.599999999999999  C 12.9 0.600000000000003  14.2666666666667 0.862500000000003  15.6 1.3875  Z M 15.3375 17  C 15.8291666666667 17  16.25 16.825  16.6 16.475  C 16.95 16.125  17.1041666666667 15.725  17.0625 15.275  C 17.0208333333333 14.825  16.825 14.425  16.475 14.075  L 13.85 11.45  L 16.475 8.825  C 16.825 8.475  17.0208333333333 8.075  17.0625 7.625  C 17.1041666666667 7.175  16.95 6.775  16.6 6.425  C 16.25 6.075  15.8291666666667 5.9  15.3375 5.9  C 14.8458333333333 5.9  14.425 6.075  14.075 6.425  L 11.45 9.025  L 8.9 6.475  C 8.55 6.14166666666667  8.15 5.95416666666667  7.7 5.9125  C 7.25 5.87083333333333  6.85 6.01666666666667  6.5 6.35  C 6.15 6.7  5.975 7.125  5.975 7.625  C 5.975 8.125  6.15 8.55  6.5 8.9  L 9.05 11.45  L 6.5 14  C 6.15 14.35  5.975 14.7708333333333  5.975 15.2625  C 5.975 15.7541666666667  6.15 16.175  6.5 16.525  C 6.85 16.875  7.25 17.0291666666667  7.7 16.9875  C 8.15 16.9458333333333  8.55 16.75  8.9 16.4  L 11.45 13.85  L 14.075 16.475  C 14.425 16.825  14.8458333333333 17  15.3375 17  Z " fill-rule="nonzero" fill="#555555" stroke="none" transform="matrix(1 0 0 1 637 57 )" />
  </g>
</svg>