<?xml version="1.0" encoding="utf-8"?>
<svg version="1.1" xmlns:xlink="http://www.w3.org/1999/xlink" width="15px" height="15px" viewBox="641 156  15 15" xmlns="http://www.w3.org/2000/svg">
  <path d="M 648.5 156  C 652.7 156  656 159.3  656 163.5  C 656 167.7  652.7 171  648.5 171  C 644.3 171  641 167.7  641 163.5  C 641 159.3  644.3 156  648.5 156  Z " fill-rule="nonzero" fill="#ffffff" stroke="none" />
  <path d="M 648.5 156.5  C 652.42 156.5  655.5 159.58  655.5 163.5  C 655.5 167.42  652.42 170.5  648.5 170.5  C 644.58 170.5  641.5 167.42  641.5 163.5  C 641.5 159.58  644.58 156.5  648.5 156.5  Z " stroke-width="1" stroke="#4284f5" fill="none" />
  <path d="M 648.5 167.25  C 646.4 167.25  644.75 165.6  644.75 163.5  C 644.75 161.4  646.4 159.75  648.5 159.75  C 650.6 159.75  652.25 161.4  652.25 163.5  C 652.25 165.6  650.6 167.25  648.5 167.25  " fill-rule="nonzero" fill="#4284f5" stroke="none" />
</svg>