<?xml version="1.0" encoding="utf-8"?>
<svg version="1.1" xmlns:xlink="http://www.w3.org/1999/xlink" width="15px" height="15px" viewBox="641 199  15 15" xmlns="http://www.w3.org/2000/svg">
  <path d="M 648.5 199  C 652.7 199  656 202.3  656 206.5  C 656 210.7  652.7 214  648.5 214  C 644.3 214  641 210.7  641 206.5  C 641 202.3  644.3 199  648.5 199  Z " fill-rule="nonzero" fill="#ffffff" stroke="none" />
  <path d="M 648.5 199.5  C 652.42 199.5  655.5 202.58  655.5 206.5  C 655.5 210.42  652.42 213.5  648.5 213.5  C 644.58 213.5  641.5 210.42  641.5 206.5  C 641.5 202.58  644.58 199.5  648.5 199.5  Z " stroke-width="1" stroke="#4284f5" fill="none" />
  <path d="M 648.5 210.25  C 646.4 210.25  644.75 208.6  644.75 206.5  C 644.75 204.4  646.4 202.75  648.5 202.75  C 650.6 202.75  652.25 204.4  652.25 206.5  C 652.25 208.6  650.6 210.25  648.5 210.25  " fill-rule="nonzero" fill="#4284f5" stroke="none" />
</svg>