<?xml version="1.0" encoding="utf-8"?>
<svg version="1.1" xmlns:xlink="http://www.w3.org/1999/xlink" width="18px" height="14px" xmlns="http://www.w3.org/2000/svg">
  <g transform="matrix(1 0 0 1 -34 -220 )">
    <path d="M 17.75 4.5  L 15.5 4.5  L 15.625 5.125  L 15.875 5.125  C 16.5653559372885 5.125  17.125 5.68464406271151  17.125 6.375  L 17.125 12.9375  C 17.125 13.4552669529664  16.7052669529664 13.875  16.1875 13.875  L 14.3125 13.875  C 13.7947330470336 13.875  13.375 13.4552669529664  13.375 12.9375  L 13.375 12  L 4.625 12  L 4.625 12.9375  C 4.625 13.4552669529664  4.20526695296637 13.875  3.6875 13.875  L 1.8125 13.875  C 1.29473304703363 13.875  0.874999999999998 13.4552669529664  0.874999999999998 12.9375  L 0.874999999999998 6.375  C 0.874999999999998 5.68464406271151  1.43464406271151 5.125  2.125 5.125  L 2.375 5.125  L 2.5 4.5  L 0.25 4.5  L 0.25 3.25  L 2.75 3.25  L 3.175 1.13  C 3.29174204361995 0.545929522854004  3.80437688289778 0.125359715936269  4.4 0.125  L 13.6 0.125  C 14.1956231171022 0.12535971593627  14.7082579563801 0.545929522854004  14.825 1.13  L 15.25 3.25  L 17.75 3.25  L 17.75 4.5  Z M 13.6 1.375  L 4.4 1.375  L 3.65 5.125  L 14.35 5.125  L 13.6 1.375  Z M 15.875 7.625  L 12.75 7.625  L 12.75 8.875  L 15.875 8.875  L 15.875 7.625  Z M 2.125 8.875  L 5.25 8.875  L 5.25 7.625  L 2.125 7.625  L 2.125 8.875  Z " fill-rule="nonzero" fill="#555555" stroke="none" transform="matrix(1 0 0 1 34 220 )" />
  </g>
</svg>