<?xml version="1.0" encoding="utf-8"?>
<svg version="1.1" xmlns:xlink="http://www.w3.org/1999/xlink" width="17px" height="17px" xmlns="http://www.w3.org/2000/svg">
  <g transform="matrix(1 0 0 1 -34 -152 )">
    <path d="M 15.9709333333333 16.0026666666667  C 15.9709333333333 12.4571506510417  13.6004493489583 9.45835065104166  10.3650173177083 8.49546666666667  C 11.5237373177083 7.75698666666667  12.2989373177083 6.45955065104167  12.2989373177083 4.98666666666667  C 12.2989373177083 2.69369869791667  10.4302973177083 0.825066666666667  8.13733731770833 0.825066666666667  C 5.84437731770834 0.825066666666667  3.97573333333333 2.69369869791667  3.97573333333333 4.98666666666667  C 3.97573333333333 6.46362666666667  4.75093333333333 7.75698268229167  5.90965333333333 8.49546666666667  C 2.67421731770833 9.45835065104166  0.303733333333333 12.4571506510417  0.303733333333333 16.0026666666667  C 0.303733333333333 16.2719466666667  0.524053333333333 16.4922666666667  0.793333333333333 16.4922666666667  C 1.06261333333333 16.4922666666667  1.28293333333333 16.2719466666667  1.28293333333333 16.0026666666667  C 1.28293333333333 12.2245826822917  4.35924934895833 9.14826666666666  8.13733333333333 9.14826666666666  C 11.9154173177083 9.14826666666666  14.9917333333333 12.2245826822917  14.9917333333333 16.0026666666667  C 14.9917333333333 16.2719466666667  15.2120533333333 16.4922666666667  15.4813333333333 16.4922666666667  C 15.7506133333333 16.4922666666667  15.9709333333333 16.2719466666667  15.9709333333333 16.0026666666667  Z M 8.13733333333333 8.16906666666666  C 6.38293333333333 8.16906666666666  4.95493333333333 6.74106666666667  4.95493333333333 4.98666666666667  C 4.95493333333333 3.23226666666667  6.38293333333333 1.80426666666667  8.13733333333333 1.80426666666667  C 9.89173333333333 1.80426666666667  11.3197333333333 3.23226666666667  11.3197333333333 4.98666666666667  C 11.3197333333333 6.74106666666667  9.89173333333333 8.16906666666666  8.13733333333333 8.16906666666666  Z " fill-rule="nonzero" fill="#555555" stroke="none" transform="matrix(1 0 0 1 34 152 )" />
  </g>
</svg>