<?xml version="1.0" encoding="utf-8"?>
<svg version="1.1" xmlns:xlink="http://www.w3.org/1999/xlink" width="18px" height="16px" xmlns="http://www.w3.org/2000/svg">
  <g transform="matrix(1 0 0 1 -34 -186 )">
    <path d="M 11.8125 0.5  L 6.1875 0.5  C 5.66973304703363 0.5  5.25 0.919733047033631  5.25 1.4375  L 5.25 4.5625  C 5.25 5.08  5.67 5.5  6.1875 5.5  L 8.375 5.5  L 8.375 7.375  L 2.75 7.375  C 2.40482203135575 7.375  2.125 7.65482203135575  2.125 8  L 2.125 10.5  L 1.1875 10.5  C 0.669733047033631 10.5  0.25 10.9197330470336  0.25 11.4375  L 0.25 14.5625  C 0.25 15.08  0.67 15.5  1.1875 15.5  L 4.3125 15.5  C 4.83026695296637 15.5  5.25 15.0802669529664  5.25 14.5625  L 5.25 11.4375  C 5.25 10.9197330470336  4.83026695296637 10.5  4.3125 10.5  L 3.375 10.5  L 3.375 8.625  L 8.375 8.625  L 8.375 10.5  L 7.4375 10.5  C 6.91973304703363 10.5  6.5 10.9197330470336  6.5 11.4375  L 6.5 14.5625  C 6.5 15.08  6.92 15.5  7.4375 15.5  L 10.5625 15.5  C 11.0802669529664 15.5  11.5 15.0802669529664  11.5 14.5625  L 11.5 11.4375  C 11.5 10.9197330470336  11.0802669529664 10.5  10.5625 10.5  L 9.625 10.5  L 9.625 8.625  L 14.625 8.625  L 14.625 10.5  L 13.6875 10.5  C 13.1697330470336 10.5  12.75 10.9197330470336  12.75 11.4375  L 12.75 14.5625  C 12.75 15.08  13.17 15.5  13.6875 15.5  L 16.8125 15.5  C 17.3302669529664 15.5  17.75 15.0802669529664  17.75 14.5625  L 17.75 11.4375  C 17.75 10.9197330470336  17.3302669529664 10.5  16.8125 10.5  L 15.875 10.5  L 15.875 8  C 15.875 7.65482203135575  15.5951779686442 7.375  15.25 7.375  L 9.625 7.375  L 9.625 5.5  L 11.8125 5.5  C 12.3302669529664 5.5  12.75 5.08026695296637  12.75 4.5625  L 12.75 1.4375  C 12.75 0.919733047033631  12.3302669529664 0.5  11.8125 0.5  Z M 6.5 4.25  L 6.5 1.75  L 11.5 1.75  L 11.5 4.25  L 6.5 4.25  Z M 1.5 14.25  L 1.5 11.75  L 4 11.75  L 4 14.25  L 1.5 14.25  Z M 10.25 14.25  L 7.75 14.25  L 7.75 11.75  L 10.25 11.75  L 10.25 14.25  Z M 14 14.25  L 14 11.75  L 16.5 11.75  L 16.5 14.25  L 14 14.25  Z " fill-rule="nonzero" fill="#555555" stroke="none" transform="matrix(1 0 0 1 34 186 )" />
  </g>
</svg>