<?xml version="1.0" encoding="utf-8"?>
<svg version="1.1" xmlns:xlink="http://www.w3.org/1999/xlink" width="315px" height="315px" xmlns="http://www.w3.org/2000/svg">
  <g transform="matrix(1 0 0 1 -688 -2778 )">
    <path d="M 845.5 2778  C 933.7 2778  1003 2847.3  1003 2935.5  C 1003 3023.7  933.7 3093  845.5 3093  C 757.3 3093  688 3023.7  688 2935.5  C 688 2847.3  757.3 2778  845.5 2778  Z " fill-rule="nonzero" fill="#ffffff" stroke="none" />
    <path d="M 845.5 2778.5  C 933.42 2778.5  1002.5 2847.58  1002.5 2935.5  C 1002.5 3023.42  933.42 3092.5  845.5 3092.5  C 757.58 3092.5  688.5 3023.42  688.5 2935.5  C 688.5 2847.58  757.58 2778.5  845.5 2778.5  Z " stroke-width="1" stroke="#ffffff" fill="none" />
  </g>
</svg>