<?xml version="1.0" encoding="utf-8"?>
<svg version="1.1" xmlns:xlink="http://www.w3.org/1999/xlink" width="13px" height="13px" xmlns="http://www.w3.org/2000/svg">
  <g transform="matrix(1 0 0 1 -8 -8 )">
    <path d="M 13 6.5  C 13 2.90904017857143  10.0895089285714 0  6.5 0  C 2.91049107142857 0  0 2.90904017857143  0 6.5  C 0 10.0909598214286  2.91049107142857 13  6.5 13  C 10.0895089285714 13  13 10.0909598214286  13 6.5  Z M 7.18482142857143 9.46272321428571  C 7.18482142857143 9.83995535714286  6.87868303571429 10.1475446428571  6.5 10.1475446428571  C 6.12131696428571 10.1475446428571  5.81517857142857 9.83995535714286  5.81517857142857 9.46272321428571  C 5.81517857142857 9.08404017857143  6.12131696428572 8.77645089285714  6.5 8.77645089285714  C 6.87868303571428 8.77645089285714  7.18482142857143 9.08404017857143  7.18482142857143 9.46272321428571  Z M 6.93236607142857 2.6  C 7.40970982142857 2.6  7.73616071428571 3.11071428571429  7.6578125 3.58225446428571  L 7.07600446428571 7.19933035714286  C 6.99765625 7.66941964285714  6.73939732142857 8.05390625  6.5 8.05390625  C 6.26060267857143 8.05390625  6.00234375 7.66941964285714  5.92399553571429 7.19933035714286  L 5.3421875 3.58225446428572  C 5.26383928571429 3.11216517857143  5.59029017857143 2.6  6.06618303571428 2.6  L 6.93236607142857 2.6  Z " fill-rule="nonzero" fill="#ff9900" stroke="none" transform="matrix(1 0 0 1 8 8 )" />
  </g>
</svg>