<?xml version="1.0" encoding="utf-8"?>
<svg version="1.1" xmlns:xlink="http://www.w3.org/1999/xlink" width="20px" height="21px" xmlns="http://www.w3.org/2000/svg">
  <g transform="matrix(1 0 0 1 -361 -121 )">
    <path d="M 19.8537735849057 4.42300884955752  C 19.8514150943396 2.97809734513274  18.6580188679245 1.80265486725664  17.1910377358491 1.80265486725664  L 15.3231132075472 1.80265486725664  L 15.3231132075472 1.05696902654867  C 15.3231132075472 0.573783185840708  14.9268867924528 0.183517699115044  14.436320754717 0.183517699115044  C 13.9457547169811 0.183517699115044  13.5495283018868 0.573783185840708  13.5495283018868 1.05696902654867  L 13.5495283018868 1.80265486725664  L 6.45518867924528 1.80265486725664  L 6.45518867924528 1.05696902654867  C 6.45518867924528 0.573783185840708  6.05896226415094 0.183517699115044  5.56839622641509 0.183517699115044  C 5.07783018867924 0.183517699115044  4.6816037735849 0.573783185840708  4.6816037735849 1.05696902654867  L 4.6816037735849 1.80265486725664  L 2.80896226415094 1.80265486725664  C 1.34198113207547 1.80265486725664  0.148584905660376 2.97809734513274  0.148584905660376 4.42300884955752  L 0.148584905660376 18.3726769911504  C 0.148584905660376 19.8175884955752  1.34198113207547 20.9930309734513  2.80896226415094 21  L 17.1933962264151 21  C 18.6603773584906 20.9930309734513  19.8537735849057 19.8175884955752  19.8537735849057 18.3726769911504  L 19.8537735849057 4.42300884955752  Z M 1.92216981132076 4.42300884955752  C 1.92216981132076 3.94214601769912  2.3183962264151 3.54955752212389  2.80896226415094 3.54955752212389  L 4.68160377358491 3.54955752212389  L 4.68160377358491 4.65995575221239  C 4.68160377358491 5.14314159292035  5.07783018867925 5.53340707964602  5.56839622641509 5.53340707964602  C 6.05896226415094 5.53340707964602  6.45518867924528 5.14314159292035  6.45518867924528 4.65995575221239  L 6.45518867924528 3.54955752212389  L 13.5495283018868 3.54955752212389  L 13.5495283018868 4.65995575221239  C 13.5495283018868 5.14314159292035  13.9457547169811 5.53340707964602  14.436320754717 5.53340707964602  C 14.9268867924528 5.53340707964602  15.3231132075472 5.14314159292035  15.3231132075472 4.65995575221239  L 15.3231132075472 3.54955752212389  L 17.1910377358491 3.54955752212389  C 17.6792452830189 3.54955752212389  18.0778301886792 3.94214601769912  18.0778301886792 4.42300884955752  L 18.0778301886792 6.4695796460177  L 1.92216981132076 6.4695796460177  L 1.92216981132076 4.42300884955752  Z M 18 18.375  C 18.0778301886792 18.8535398230089  17.6816037735849 19.2461283185841  17.1910377358491 19  L 2.80896226415094 19  C 2.32075471698113 19.2461283185841  1.92216981132075 18.8535398230089  2 18.3726769911504  L 2 8.21880530973451  L 18 8.21880530973451  L 18 18.375  Z M 15.9622641509434 11.1481194690265  C 15.9622641509434 10.6649336283186  15.563679245283 10.2746681415929  15.0754716981132 10  L 4.43160377358491 10  C 3.94103773584906 10.2746681415929  3.54481132075472 10.6649336283186  3.54481132075472 11.1481194690265  C 3.54481132075472 11.6313053097345  3.94103773584906 12.0215707964602  4.43160377358491 12  L 15.0754716981132 12  C 15.5660377358491 12.0215707964602  15.9622641509434 11.6313053097345  15.9622641509434 11.1481194690265  Z M 15.9622641509434 15.3783185840708  C 15.9622641509434 14.8951327433628  15.563679245283 14.5048672566372  15.0754716981132 14.5048672566372  L 4.43160377358491 14.5048672566372  C 3.94103773584906 14.5048672566372  3.54481132075472 14.8951327433628  3.54481132075472 15.3783185840708  C 3.54481132075472 15.8615044247788  3.94103773584906 16.2517699115044  4.43160377358491 16  L 15.0754716981132 16  C 15.5660377358491 16.2517699115044  15.9622641509434 15.8615044247788  15.9622641509434 15.3783185840708  Z " fill-rule="nonzero" fill="#006eff" stroke="none" fill-opacity="0.898039215686275" transform="matrix(1 0 0 1 361 121 )" />
  </g>
</svg>