<?xml version="1.0" encoding="utf-8"?>
<svg version="1.1" xmlns:xlink="http://www.w3.org/1999/xlink" width="14px" height="14px" xmlns="http://www.w3.org/2000/svg">
  <g transform="matrix(1 0 0 1 -69 -125 )">
    <path d="M 2.47282608695652 7.69086956521739  C 0.483913043478261 5.70195652173913  0.483913043478261 2.47739130434782  2.47282608695652 0.488478260869565  C 2.60673913043478 0.354565217391304  2.74673913043478 0.229782608695652  2.89130434782609 0.114130434782609  C 2.32369565217391 0.321086956521739  1.79260869565217 0.651304347826087  1.33760869565217 1.10630434782609  C -0.331739130434783 2.77565217391304  -0.331739130434783 5.48434782608696  1.33760869565217 7.15369565217391  C 1.84282608695652 7.65891304347826  2.44239130434783 8.01043478260869  3.07847826086957 8.20978260869565  C 2.86695652173913 8.05608695652174  2.6645652173913 7.88260869565217  2.47282608695652 7.69086956521739  Z M 13.4886956521739 11.714347826087  C 14.0091304347826 12.2363043478261  14.0091304347826 13.0884782608696  13.4871739130435 13.6089130434783  C 12.9667391304348 14.129347826087  12.1145652173913 14.129347826087  11.5926086956522 13.6089130434783  L 7.76391304347826 9.77869565217391  C 7.24347826086957 9.25826086956522  7.24347826086957 8.40608695652174  7.76391304347826 7.88413043478261  C 8.28434782608696 7.36369565217391  9.13652173913044 7.36369565217391  9.65847826086956 7.88413043478261  L 13.4886956521739 11.714347826087  Z " fill-rule="nonzero" fill="#aaaaaa" stroke="none" transform="matrix(1 0 0 1 69 125 )" />
  </g>
</svg>