<?xml version="1.0" encoding="utf-8"?>
<svg version="1.1" xmlns:xlink="http://www.w3.org/1999/xlink" width="17px" height="17px" xmlns="http://www.w3.org/2000/svg">
  <g transform="matrix(1 0 0 1 -29 -64 )">
    <path d="M 17 2.125  C 17 0.951394906609564  16.0486050933904 0  14.875 0  L 2.125 0  C 0.951394906609564 0  0 0.951394906609564  0 2.125  L 0 14.875  C 0 16.0486050933904  0.951394906609564 17  2.125 17  L 14.875 17  C 16.0486050933904 17  17 16.0486050933904  17 14.875  L 17 2.125  Z M 13.9081989164238 12.7516750580661  C 13.8939911390323 12.7516750580661  13.8797888579411 12.7511162735451  13.865625 12.75  L 3.1875 12.75  C 2.89647226917288 12.7443473876133  2.66190261238669 12.5097777308271  2.65625 12.21875  C 2.65625 11.9253487266524  2.89409872665239 11.6875  3.1875 11.6875  L 13.91875 11.6875  C 14.2121512733476 11.6875  14.45 11.9253487266524  14.45 12.21875  C 14.4451147163144 12.5144895717208  14.2039788350766 12.7516750580661  13.9081989164238 12.7516750580661  Z M 14.396875 4.78125  L 14.396875 7.214375  C 14.3930281324132 7.42797596689376  14.2640378048483 7.61938096908681  14.0675 7.703125  C 14.0005715768442 7.71301302533363  13.9325534231558 7.71301302533363  13.865625 7.703125  C 13.7229377596549 7.69850556829218  13.5868771503314 7.64181364774071  13.483125 7.54375  L 12.665 6.725625  L 11.0075 8.404375  L 9.870625 9.5625  C 9.65829302865279 9.76087993622771  9.32858197134721 9.76087993622771  9.11625 9.5625  L 6.31125 6.746875  L 3.516875 9.5625  C 3.30669796846795 9.76626974602508  2.97267703153205 9.76626974602508  2.7625 9.5625  C 2.66192765425023 9.46274899380017  2.60535714019349 9.32696369119686  2.60535714019349 9.1853125  C 2.60535714019349 9.04366130880314  2.66192765425023 8.90787600619983  2.7625 8.808125  L 5.95 5.620625  C 6.04975100619983 5.52005265425023  6.18553630880314 5.46348214019349  6.3271875 5.46348214019349  C 6.46883869119686 5.46348214019349  6.60462399380017 5.52005265425023  6.704375 5.620625  L 9.488125 8.425625  L 11.92125 5.9925  L 11.103125 5.185  C 10.9509328175844 5.03104285676855  10.9049791943977 4.80127474083501  10.98625 4.600625  C 11.0609398429282 4.39389161219851  11.255234310748 4.25450645050165  11.475 4.25  L 13.865625 4.25  C 14.1566527308271 4.25565261238669  14.3912223876133 4.49022226917288  14.396875 4.78125  Z " fill-rule="nonzero" fill="#ffffff" stroke="none" transform="matrix(1 0 0 1 29 64 )" />
  </g>
</svg>