<?xml version="1.0" encoding="utf-8"?>
<svg version="1.1" xmlns:xlink="http://www.w3.org/1999/xlink" width="17px" height="17px" xmlns="http://www.w3.org/2000/svg">
  <g transform="matrix(1 0 0 1 -29 -109 )">
    <path d="M 16.703125 0.953125  C 16.703125 0.5921875  16.4078125 0.296875  16.046875 0.296875  L 0.953125 0.296875  C 0.5921875 0.296875  0.296875 0.5921875  0.296875 0.953125  L 0.296875 16.046875  C 0.296875 16.4078125  0.5921875 16.703125  0.953125 16.703125  L 16.046875 16.703125  C 16.4078125 16.703125  16.703125 16.4078125  16.703125 16.046875  L 16.703125 0.953125  Z M 15 2  L 15 15  L 2 15  L 2 2  L 15 2  Z M 4.5830078125 6.3630859375  L 4.66708984375 6.21953125  C 5.18388671875 5.34794921875  5.505859375 5.046484375  5.68427734375 4.94599609375  C 5.86474609375 4.8455078125  6.26875 4.72451171875  7.16904296875 4.72451171875  C 7.42744140625 4.72451171875  7.5689453125 4.73271484375  7.64482421875 4.7388671875  C 7.6509765625 4.78603515625  7.655078125 4.85986328125  7.655078125 4.97265625  L 7.655078125 12.06015625  C 7.655078125 12.11552734375  7.638671875 12.1298828125  7.61201171875 12.1462890625  C 7.58740234375 12.16064453125  7.48486328125 12.20986328125  7.16904296875 12.20986328125  L 6.1703125 12.20986328125  L 6.1703125 13.02607421875  L 10.9732421875 13.02607421875  L 10.9732421875 12.2119140625  L 9.97451171875 12.2119140625  C 9.79404296875 12.2119140625  9.6525390625 12.1873046875  9.55 12.13603515625  C 9.4884765625 12.1052734375  9.4884765625 12.084765625  9.4884765625 12.06220703125  L 9.4884765625 5.0259765625  C 9.4884765625 4.8865234375  9.49462890624999 4.79833984375  9.50078125 4.74501953125  C 9.6033203125 4.73681640625  9.8083984375 4.7265625  10.22265625 4.7265625  C 11.1537109375 4.7265625  11.4818359375 4.86806640625  11.59462890625 4.95419921875  C 11.74638671875 5.06904296875  12.03759765625 5.38076171875  12.56259765625 6.22568359375  L 12.64873046875 6.36513671875  L 13.53876953125 6.2564453125  L 12.71640625 3.8611328125  L 4.5173828125 3.8611328125  L 3.5904296875 6.26259765625  L 4.5830078125 6.3630859375  Z " fill-rule="nonzero" fill="#ffffff" stroke="none" transform="matrix(1 0 0 1 29 109 )" />
  </g>
</svg>