<?xml version="1.0" encoding="utf-8"?>
<svg version="1.1" xmlns:xlink="http://www.w3.org/1999/xlink" width="17px" height="17px" xmlns="http://www.w3.org/2000/svg">
  <g transform="matrix(1 0 0 1 -29 -154 )">
    <path d="M 10.826943359375 4.506845703125  L 10.826943359375 3.632734375  L 13.912216796875 3.632734375  L 13.912216796875 4.506845703125  L 10.826943359375 4.506845703125  Z M 10.826943359375 5.683583984375  L 10.826943359375 4.80947265625  L 13.912216796875 4.80947265625  L 13.912216796875 5.683583984375  L 10.826943359375 5.683583984375  Z M 13.848017578125 2.884794921875  L 12.374404296875 4.347275390625  L 10.858857421875 2.889619140625  L 11.464853515625 2.2596875  L 12.364755859375 3.125263671875  L 13.232001953125 2.26451171875  L 13.848017578125 2.884794921875  Z M 11.9326171875 6.568271484375  L 11.9326171875 3.73626953125  L 12.806728515625 3.73626953125  L 12.806728515625 6.568271484375  L 11.9326171875 6.568271484375  Z M 16.523046875 4.3385546875  C 16.523046875 6.628759765625  14.65978515625 8.49220703125  12.369580078125 8.49220703125  C 10.079375 8.49220703125  8.215927734375 6.6289453125  8.215927734375 4.3385546875  C 8.215927734375 2.0481640625  10.079375 0.185087890625  12.369580078125 0.185087890625  C 14.65978515625 0.185087890625  16.523046875 2.048349609375  16.523046875 4.3385546875  Z M 15.648935546875 4.3385546875  C 15.648935546875 2.530400390625  14.177919921875 1.05919921875  12.369580078125 1.05919921875  C 10.561240234375 1.05919921875  9.090224609375 2.53021484375  9.090224609375 4.3385546875  C 9.090224609375 6.14689453125  10.56142578125 7.61791015625  12.369580078125 7.61791015625  C 14.177734375 7.61791015625  15.648935546875 6.146708984375  15.648935546875 4.3385546875  Z M 13.475625 15.15037109375  C 13.475810546875 15.873818359375  12.887626953125 16.462001953125  12.164365234375 16.462001953125  L 1.9427734375 16.462001953125  C 1.219697265625 16.462001953125  0.631513671875 15.873818359375  0.631513671875 15.1507421875  L 0.631513671875 3.523447265625  C 0.631513671875 2.80037109375  1.219697265625 2.2121875  1.9427734375 2.2121875  L 9.776748046875 2.2121875  L 9.45111328125 2.848427734375  C 9.211572265625 3.3165625  9.0900390625 3.81791015625  9.0900390625 4.3385546875  C 9.0900390625 6.14689453125  10.5610546875 7.61791015625  12.36939453125 7.61791015625  C 12.558837890625 7.61791015625  12.752177734375 7.599541015625  12.96017578125 7.56150390625  L 13.475625 7.4676171875  L 13.475625 15.15037109375  Z M 8.410009765625 3.086298828125  L 1.9427734375 3.086298828125  C 1.701748046875 3.086298828125  1.505625 3.282236328125  1.505625 3.523447265625  L 1.505625 15.1507421875  C 1.505625 15.391767578125  1.7015625 15.587890625  1.9427734375 15.587890625  L 12.164365234375 15.587890625  C 12.405390625 15.587890625  12.601513671875 15.391767578125  12.601513671875 15.1507421875  L 12.601513671875 8.48515625  C 10.2077734375 8.6269140625  8.215927734375 6.705947265625  8.215927734375 4.3385546875  C 8.215927734375 3.908828125  8.2810546875 3.48986328125  8.410009765625 3.086298828125  Z M 3.481884765625 6.88314453125  L 3.481884765625 6.009033203125  L 7.21453125 6.009033203125  L 7.21453125 6.88314453125  L 3.481884765625 6.88314453125  Z M 3.481884765625 9.774150390625  L 3.481884765625 8.9000390625  L 10.657353515625 8.9000390625  L 10.657353515625 9.774150390625  L 3.481884765625 9.774150390625  Z M 3.481884765625 12.664970703125  L 3.481884765625 11.790859375  L 10.657353515625 11.790859375  L 10.657353515625 12.664970703125  L 3.481884765625 12.664970703125  Z " fill-rule="nonzero" fill="#ffffff" stroke="none" transform="matrix(1 0 0 1 29 154 )" />
  </g>
</svg>