<?xml version="1.0" encoding="utf-8"?>
<svg version="1.1" xmlns:xlink="http://www.w3.org/1999/xlink" width="16px" height="8px" xmlns="http://www.w3.org/2000/svg">
  <g transform="matrix(1 0 0 1 -29 -64 )">
    <path d="M 2.35267857617188 7.44357142382813  C 2.18261645920057 7.60591578567725  1.95635927822467 7.69620110325751  1.72125 7.69553571191406  C 1.21969025200658 7.69354656201025  0.814147510905962 7.28639227825821  0.814147510905962 6.78482858586754  C 0.814147510905962 6.53747516365563  0.914760726332438 6.30076197673218  1.09285713574219 6.12910713574219  L 3.06 4.25  C 4.41195157202098 2.91627783256547  6.56169597740116 2.84492798535175  7.99910713574219 4.08607142382813  C 8.70137430294866 4.68363750454356  9.73597554116943 4.67458474375333  10.4276785761719 4.06482142382812  L 13.8125 1.21428571191406  C 13.9794246046301 1.06514835105845  14.1954276530436 0.982710328806346  14.4192708482359 0.982710328806346  C 14.9222444609987 0.982710328806346  15.3299851363218 1.39045100412941  15.3299851363218 1.89342461689228  C 15.3299851363218 2.17183447440318  15.2026366762407 2.43495074072877  14.9842857119141 2.60767857617188  L 11.6085714238281 5.43696428808594  C 10.2357814268876 6.6228722415492  8.20444200172783 6.63445782563008  6.81821428808594 5.46428571191406  C 6.09076160102296 4.84159369641661  5.00759692709924 4.87985407979949  4.32589286425781 5.55232142382813  L 2.35267857617188 7.44357142382813  Z " fill-rule="nonzero" fill="#ffffff" stroke="none" transform="matrix(1 0 0 1 29 64 )" />
  </g>
</svg>