<?xml version="1.0" encoding="utf-8"?>
<svg version="1.1" xmlns:xlink="http://www.w3.org/1999/xlink" width="16px" height="16px" xmlns="http://www.w3.org/2000/svg">
  <g transform="matrix(1 0 0 1 -29 -110 )">
    <path d="M 12.988125 11.74  C 12.988125 10.92625  12.325 10.264375  11.51 10.264375  C 10.695 10.264375  10.0325 10.92625  10.0325 11.74  C 10.0325 12.55375  10.695625 13.216875  11.51 13.216875  C 12.324375 13.216875  12.988125 12.55375  12.988125 11.74  Z M 12.22625 11.740625  C 12.22625 12.1361989520663  11.9055739520663 12.456875  11.51 12.456875  C 11.1145688749141 12.4565303975161  10.7940946024839 12.1360561250859  10.79375 11.740625  C 10.8097929431303 11.356682105849  11.1257220771455 11.0536782997345  11.51 11.0536782997345  C 11.8942779228545 11.0536782997345  12.2102070568697 11.356682105849  12.22625 11.740625  Z M 15.5 11.74625  C 15.5 11.419375  15.425625 11.01375  15.4175 10.97  C 15.361875 10.676875  15.17375 10.486875  14.933125 10.486875  L 14.899375 10.486875  C 14.4380145932472 10.4868755154165  14.0638146269156 10.1132348913366  14.063125 9.651875  C 14.063125 9.53125  14.115625 9.383125  14.135625 9.335625  C 14.250625 9.079375  14.1625 8.763125  13.908125 8.5875  L 12.93 8.04625  C 12.6845613868531 7.94706008333509  12.4036586948546 8.00304418628583  12.215 8.18875  C 12.09375 8.315  11.77 8.574375  11.5475 8.574375  C 11.321875 8.574375  10.99625 8.309375  10.875 8.1825  C 10.6882133834723 7.99468901152289  10.4075100092731 7.9361886585812  10.16125 8.03375  L 10.1425 8.04125  L 9.146875 8.588125  L 9.12375 8.6025  C 8.89100090402407 8.76698266378521  8.80479114295606 9.07171203070234  8.916875 9.33375000000001  C 8.925 9.35187500000001  8.99125 9.514375  8.99125 9.65250000000001  C 8.98987219724753 10.1140618671835  8.6153139236055 10.4875020564266  8.15375 10.4875  L 8.114375 10.4875  C 7.87875 10.4875  7.69125 10.678125  7.635625 10.970625  C 7.626875 11.014375  7.553125 11.42  7.553125 11.746875  C 7.553125 12.0725  7.626875 12.478125  7.635625 12.523125  C 7.69125 12.815  7.87875 13.004375  8.12 13.004375  L 8.153125 13.004375  C 8.614375 13.004375  8.990625 13.379375  8.990625 13.840625  C 8.990625 13.96  8.9375 14.109375  8.9175 14.156875  C 8.8025 14.413125  8.890625 14.728125  9.14375 14.90375  L 10.10375 15.438125  C 10.3515618991253 15.5409228705505  10.6370475023262 15.481395029744  10.823125 15.288125  C 10.94125 15.16  11.2775 14.879375  11.50625 14.879375  C 11.73875 14.879375  12.07 15.16  12.195 15.295625  C 12.310625 15.423125  12.489375 15.5  12.67125 15.5  C 12.7634478347868 15.4996135351813  12.8544013265283 15.4786899619638  12.9375 15.43875  L 13.908125 14.904375  L 13.93125 14.88875  C 14.163781186947 14.7246677593121  14.2497880775967 14.4202554918004  14.1375 14.15875  C 14.0951153713351 14.0574198651602  14.0701801545964 13.9496490131537  14.06375 13.84  C 14.0644383869527 13.378437317873  14.438437317873 13.0044383869527  14.9 13.00375  L 14.939375 13.00375  C 15.175 13.00375  15.363125 12.814375  15.418125 12.5225  C 15.4175 12.51875  15.5 12.089375  15.5 11.74625  Z M 14.738125 11.745625  C 14.738125 11.9125  14.710625 12.125  14.69 12.256875  C 13.8951275842572 12.3608084007979  13.3007638732072 13.0383616321614  13.30125 13.84  C 13.30125 14.025625  13.34625 14.2025  13.38625 14.323125  L 12.685625 14.70875  C 12.623125 14.64625  12.5225 14.55625  12.398125 14.463125  C 12.088125 14.23375  11.788125 14.11625  11.50625 14.11625  C 11.2275 14.11625  10.93 14.23125  10.6225 14.455625  C 10.5219289471184 14.5299443610104  10.4263095473598 14.6107406660465  10.33625 14.6975  L 9.666875 14.32375  C 9.706875 14.203125  9.7525 14.024375  9.7525 13.839375  C 9.75298612679283 13.0377366321614  9.15862241574274 12.3601834007979  8.36375 12.25625  C 8.3360905333229 12.087547193355  8.32001128523771 11.9171489279327  8.315625 11.74625  C 8.315625 11.576875  8.34375 11.365625  8.36375 11.235  C 9.1582066333003 11.1302882519455  9.75216025369255 10.4532025091671  9.7525 9.651875  C 9.7525 9.46625  9.7075 9.289375  9.6675 9.16875  L 10.390625 8.771875  C 10.453125 8.831875  10.55375 8.920625  10.676875 9.00875  C 10.980625 9.22625  11.273125 9.334375  11.5475 9.334375  C 11.818125 9.334375  12.1075 9.226875  12.409375 9.014375  C 12.531875 8.92875  12.63125 8.8425  12.694375 8.78375  L 13.386875 9.168125  C 13.3331698130666 9.32367875419811  13.3042748065986 9.48671408266364  13.30125 9.65125  C 13.30125 10.458125  13.901875 11.130625  14.69 11.234375  C 14.710625 11.36625  14.738125 11.57875  14.738125 11.745625  Z M 7.613125 14.41875  L 1.4875 14.41875  L 1.4875 13.5825  C 1.4875 10.738125  3.6825 8.395625  6.4775 8.131875  L 6.47625 8.130625  L 6.48375 8.130625  C 6.655 8.115  6.82875 8.105625  7.004375 8.105625  L 7.083125 8.1075  C 7.70125 8.06  8.63625 7.914375  9.125625 7.47875  L 9.365625 7.291875  C 10.3 6.561875  10.836875 5.473125  10.836875 4.3025  C 10.83625 2.205625  9.116875 0.5  7.003125 0.5  C 4.89 0.5  3.170625 2.205625  3.170625 4.3025  C 3.170625 5.473125  3.70625 6.561875  4.641875 7.291875  L 4.88125 7.47875  L 4.599375 7.59  C 2.10875 8.578125  0.5 10.93  0.5 13.5825  L 0.5 14.908125  C 0.5 15.176875  0.72125 15.39625  0.99375 15.39625  L 8.21 15.39625  C 7.9742249485505 15.0943767170576  7.773950734625 14.7663883709011  7.613125 14.41875  Z M 7.00375 7.1275  C 5.435 7.1275  4.15875 5.86  4.15875 4.3025  C 4.15875 2.745625  5.435 1.478125  7.00375 1.478125  C 8.573125 1.478125  9.849375 2.744375  9.849375 4.3025  C 9.849375 5.860625  8.573125 7.1275  7.00375 7.1275  Z " fill-rule="nonzero" fill="#ffffff" stroke="none" transform="matrix(1 0 0 1 29 110 )" />
  </g>
</svg>