<?xml version="1.0" encoding="utf-8"?>
<svg version="1.1" xmlns:xlink="http://www.w3.org/1999/xlink" width="17px" height="17px" xmlns="http://www.w3.org/2000/svg">
  <g transform="matrix(1 0 0 1 -29 -154 )">
    <path d="M 16.21875 15.587890625  L 16.21875 15.57861328125  C 16.21875 12.43359375  13.9958984375 9.76171875  10.926953125 8.82099609375  C 12.12001953125 8.0361328125  12.91044921875 6.6927734375  12.91044921875 5.167578125  C 12.91044921875 2.748046875  10.93251953125 0.78125  8.5 0.78125  C 6.06748046875 0.78125  4.08955078125 2.748046875  4.08955078125 5.16572265625  C 4.08955078125 6.69091796875  4.87998046875 8.03427734375  6.073046875 8.819140625  C 3.0041015625 9.76171875  0.78125 12.43173828125  0.78125 15.57861328125  L 0.78125 16  L 16.21875 16  L 16.21875 15.587890625  Z " fill-rule="nonzero" fill="#ffffff" stroke="none" transform="matrix(1 0 0 1 29 154 )" />
  </g>
</svg>