<?xml version="1.0" encoding="utf-8"?>
<svg version="1.1" xmlns:xlink="http://www.w3.org/1999/xlink" width="11px" height="15px" xmlns="http://www.w3.org/2000/svg">
  <g transform="matrix(1 0 0 1 -32 -201 )">
    <path d="M 10.74466796875 13.93486328125  C 10.63705078125 10.487587890625  8.645205078125 7.6875  6.10154296875 7.302490234375  C 6.08288788081313 7.2996300718114  6.06911285184703 7.28358212110338  6.06911285184703 7.26470904939201  C 6.06911285184703 7.24804660806159  6.07990675092743 7.23330408669459  6.095791015625 7.228271484375  C 7.257314453125 6.870908203125  8.123076171875 5.48765625  8.123076171875 3.835732421875  C 8.123076171875 1.9125390625  6.949677734375 0.353388671874999  5.502041015625 0.353388671874999  C 4.054404296875 0.353388671874999  2.881005859375 1.911982421875  2.881005859375 3.835732421875  C 2.881005859375 5.487099609375  3.746767578125 6.870908203125  4.908291015625 7.228271484375  C 4.92417528032257 7.23330408669459  4.93496917940297 7.24804660806159  4.93496917940297 7.26470904939201  C 4.93496917940297 7.28358212110339  4.92119415043687 7.2996300718114  4.9025390625 7.302490234375  C 2.358876953125 7.6875  0.36703125 10.487587890625  0.259414062499999 13.93486328125  C 0.259380362010632 13.9366633440817  0.259363510658766 13.9384636829209  0.259363510658766 13.9402640611926  C 0.259363510658766 14.0996122343738  0.388540728102607 14.2287894518176  0.547888901283766 14.2287894518176  C 0.549019062408703 14.2287894518176  0.55014921377942 14.2287828115138  0.551279296875 14.22876953125  L 10.452802734375 14.22876953125  C 10.4539328174704 14.2287828115138  10.4550629688415 14.2287894518176  10.4561931299662 14.2287894518176  C 10.6155413031474 14.2287894518176  10.7447185205912 14.0996122343738  10.7447185205912 13.9402640611926  C 10.7447185205912 13.9384636829209  10.7447016692394 13.9366633440818  10.74466796875 13.93486328125  Z " fill-rule="nonzero" fill="#ffffff" stroke="none" transform="matrix(1 0 0 1 32 201 )" />
  </g>
</svg>