<?xml version="1.0" encoding="utf-8"?>
<svg version="1.1" xmlns:xlink="http://www.w3.org/1999/xlink" width="17px" height="15px" xmlns="http://www.w3.org/2000/svg">
  <g transform="matrix(1 0 0 1 -29 -199 )">
    <path d="M 9.771923828125 1.96689453125  C 10.8594140625 2.55025390625  11.772861328125 3.88767578125  11.772861328125 5.519375  C 11.772861328125 7.16814453125  11.24498046875 8.369375  10.47978515625 8.9334375  C 10.4294500657408 8.97054564714272  10.3997392235168 9.02936115927971  10.3997392235168 9.09189623680374  C 10.3997392235168 9.18185588735081  10.4607199792148 9.26037195519291  10.547880859375 9.28263671875  C 12.57869140625 9.84298828125  13.87529296875 12.35158203125  14.231357421875 14.372001953125  C 14.2486189581384 14.4690890963564  14.3333258293172 14.5396128558947  14.43193359375 14.538994140625  L 16.6158203125 14.538994140625  C 16.6168731166716 14.5390106915224  16.6179260346697 14.5390189673545  16.6189789689297 14.5390189673545  C 16.7299590792545 14.5390189673545  16.8199262345547 14.4490518120544  16.8199262345547 14.3380717017295  C 16.8199262345547 14.3376304798549  16.8199247813619 14.3371892591773  16.819921875 14.336748046875  C 16.754794921875 11.0612890625  15.111591796875 8.36677734375  12.7935546875 7.729609375  C 12.7054007851764 7.70842529864393  12.6432569644564 7.62957867490264  12.6432569644564 7.53891514537761  C 12.6432569644564 7.4681958689282  12.681329895844 7.40295328833138  12.742900390625 7.3681640625  C 13.64447265625 6.833974609375  14.19517578125 5.584501953125  14.19517578125 4.143544921875  C 14.19517578125 2.2203515625  12.83548828125 0.863632812500001  11.3878515625 0.863632812500001  C 10.754580078125 0.863632812500001  10.1736328125 1.162177734375  9.72052734375 1.6592578125  C 9.68660968598344 1.69566312140792  9.6677508667387 1.74357086517084  9.6677508667387 1.79332781468596  C 9.6677508667387 1.86598366890841  9.7078061847789 1.93272142831016  9.771923828125 1.96689453125  Z M 7.21861328125 1.9694921875  C 6.13279296875 2.55359375  5.2217578125 3.889716796875  5.2217578125 5.519375  C 5.2217578125 7.16369140625  5.746669921875 8.3626953125  6.50833984375 8.9282421875  C 6.55959564555295 8.96613181495105  6.58983585216138 9.02609184442148  6.58983585216138 9.08983179332986  C 6.58983585216138 9.18160398931599  6.52766076056493 9.2617161243018  6.438759765625 9.2844921875  C 4.412958984375 9.848740234375  3.119140625 12.352880859375  2.76326171875 14.370517578125  C 2.74466067944576 14.4682727103431  2.65866291739533 14.5386345156571  2.55916015625 14.537509765625  L 0.382880859375 14.537509765625  C 0.381763523181051 14.5375281199266  0.380646055089313 14.5375372975417  0.379528568153955 14.5375372975417  C 0.266806387768569 14.5375372975417  0.175427005653955 14.4461579154271  0.175427005653955 14.3334357350417  C 0.175427005653955 14.332684353052  0.175431154874232 14.3319329767904  0.175439453125 14.331181640625  C 0.2416796875 11.0627734375  1.879501953125 8.37345703125  4.19123046875 7.73109375  C 4.27986020623919 7.70803716411771  4.34172501394024 7.6280194373741  4.34172501394024 7.53643976430223  C 4.34172501394024 7.46495848105388  4.30378671611985 7.39884785866284  4.2420703125 7.362783203125  C 3.346064453125 6.824697265625  2.799443359375 5.579677734375  2.799443359375 4.143916015625  C 2.799443359375 2.22072265625  4.159130859375 0.86400390625  5.60658203125 0.86400390625  C 6.2385546875 0.86400390625  6.818203125 1.16087890625  7.270751953125 1.656103515625  C 7.30533602825077 1.69320075814396  7.32456711052515 1.74203168144733  7.32456711052515 1.79274917009588  C 7.32456711052515 1.86670076992506  7.28383803363386 1.93464149462655  7.21861328125 1.9694921875  Z " fill-rule="nonzero" fill="#ffffff" stroke="none" transform="matrix(1 0 0 1 29 199 )" />
  </g>
</svg>