<?xml version="1.0" encoding="utf-8"?>
<svg version="1.1" xmlns:xlink="http://www.w3.org/1999/xlink" width="15px" height="17px" xmlns="http://www.w3.org/2000/svg">
  <g transform="matrix(1 0 0 1 -31 -244 )">
    <path d="M 6.5 12.1944444423828  C 6.5 10.1888888847656  8.18888888476563 8.5  10.1944444423828 8.5  C 12.2 8.5  13.8888888847656 10.1888888847656  13.8888888847656 12.1944444423828  C 13.8888888847656 14.2  12.2 15.8888888847656  10.1944444423828 15.8888888847656  C 8.18888888476563 15.8888888847656  6.5 14.2  6.5 12.1944444423828  Z M 14.9444444423828 12.1944444423828  C 14.9444444423828 9.55555555761719  12.8333333271484 7.44444444238281  10.1944444423828 7.44444444238281  C 7.55555555761719 7.44444444238281  5.44444444238281 9.55555555761719  5.44444444238281 12.1944444423828  C 5.44444444238281 14.8333333271484  7.55555555761719 16.9444444423828  10.1944444423828 16.9444444423828  C 12.8333333271484 16.9444444423828  14.9444444423828 14.8333333271484  14.9444444423828 12.1944444423828  Z M 1.22222223046875 3.22222223046875  L 1.22222223046875 0.0555555576171876  L 2.27777776953125 0.0555555576171876  L 2.27777776953125 3.22222223046875  L 1.22222223046875 3.22222223046875  Z M 7.55555555761719 3.22222223046875  L 7.55555555761719 0.0555555576171876  L 8.61111111523437 0.0555555576171876  L 8.61111111523437 3.22222223046875  L 7.55555555761719 3.22222223046875  Z M 0.166666672851562 6.38888888476562  L 0.166666672851562 5.33333332714844  L 9.66666667285156 5.33333332714844  L 9.66666667285156 6.38888888476562  L 0.166666672851562 6.38888888476562  Z M 0.166666672851562 9.55555555761719  L 0.166666672851562 8.5  L 5.44444444238281 8.5  L 5.44444444238281 9.55555555761719  L 0.166666672851562 9.55555555761719  Z M 0.166666672851562 12.7222222304687  L 0.166666672851562 11.6666666728516  L 4.38888888476562 11.6666666728516  L 4.38888888476562 12.7222222304687  L 0.166666672851562 12.7222222304687  Z " fill-rule="nonzero" fill="#ffffff" stroke="none" transform="matrix(1 0 0 1 31 244 )" />
  </g>
</svg>