<?xml version="1.0" encoding="utf-8"?>
<svg version="1.1" xmlns:xlink="http://www.w3.org/1999/xlink" width="14px" height="18px" xmlns="http://www.w3.org/2000/svg">
  <g transform="matrix(1 0 0 1 -30 -64 )">
    <path d="M 12.625 0.25  L 2.625 0.25  C 1.24428812542302 0.25  0.125 1.36928812542302  0.125 2.75  L 0.125 15.25  C 0.125 15.30375  0.12625 15.3575  0.13 15.4125  C 0.126568399066039 15.462426385072  0.124851082772737 15.5124558264731  0.124851082772737 15.5625000050689  C 0.124851082772737 16.7706228953237  1.10422819251788 17.7500000050689  2.31235108277274 17.7500000050689  L 12.625 17.75  C 12.9357699859421 17.7504146904935  13.2354363138388 17.6344723612477  13.465 17.425  C 13.7261825592138 17.1884167659055  13.8751183481528 16.8524030957381  13.875 16.5  L 13.875 1.5  C 13.875 0.809644062711508  13.3153559372885 0.25  12.625 0.25  Z M 7.625 6.5  L 7.625 1.5  L 11.375 1.5  L 11.375 6.5  L 9.5 5.265  L 7.625 6.5  Z M 2.3125 14.625  L 12.625 14.625  L 12.625 16.5  L 2.3125 16.5  C 1.79473304703363 16.5  1.375 16.0802669529664  1.375 15.5625  C 1.375 15.0447330470336  1.79473304703363 14.625  2.3125 14.625  Z " fill-rule="nonzero" fill="#ffffff" stroke="none" transform="matrix(1 0 0 1 30 64 )" />
  </g>
</svg>