<?xml version="1.0" encoding="utf-8"?>
<svg version="1.1" xmlns:xlink="http://www.w3.org/1999/xlink" width="17px" height="15px" xmlns="http://www.w3.org/2000/svg">
  <g transform="matrix(1 0 0 1 -29 -290 )">
    <path d="M 0.238 14.5635  L 10.8035 14.5635  C 10.829 14.3595  10.846 14.147  10.846 13.9345  C 10.846 11.138  8.466 8.877  5.525 8.877  C 2.584 8.877  0.1955 11.138  0.1955 13.9345  C 0.1955 14.147  0.2125 14.351  0.238 14.5635  Z M 16.796 1.72  C 16.8045 1.006  16.082 0.4365  15.164 0.4365  L 8.6445 0.4365  L 8.6445 1.159  L 15.164 1.159  C 15.6995 1.159  16.0735 1.448  16 1.7115  L 16 13.2715  C 16.0735 13.535  15.6995 13.824  15.164 13.824  L 11.4835 13.824  L 11.4835 14.5465  L 15.164 14.5465  C 16.082 14.5465  16.796 13.9855  16.796 13.263  L 16.796 1.72  Z " fill-rule="nonzero" fill="#ffffff" stroke="none" transform="matrix(1 0 0 1 29 290 )" />
  </g>
</svg>