<?xml version="1.0" encoding="utf-8"?>
<svg version="1.1" xmlns:xlink="http://www.w3.org/1999/xlink" width="7px" height="7px" xmlns="http://www.w3.org/2000/svg">
  <g transform="matrix(1 0 0 1 -38 -293 )">
    <path d="M 6.096 0.267  L 6.096 1.0235  C 6.096 1.168  5.9855 1.287  5.858 1.287  L 0.868500000000001 1.287  C 0.7325 1.287  0.6305 1.168  0.6305 1.0235  L 0.6305 0.267  C 0.6305 0.1225  0.741 0.00349999999999984  0.868500000000001 0.00349999999999984  L 5.858 0.00349999999999984  C 5.994 0.00349999999999984  6.096 0.1225  6.096 0.267  Z M 6.096 2.8935  L 6.096 3.65  C 6.096 3.7945  5.9855 3.9135  5.858 3.9135  L 0.868500000000001 3.9135  C 0.7325 3.9135  0.6305 3.7945  0.6305 3.65  L 0.6305 2.8935  C 0.6305 2.749  0.741 2.63  0.868500000000001 2.63  L 5.858 2.63  C 5.994 2.63  6.096 2.749  6.096 2.8935  Z M 6.096 5.52  L 6.096 6.2765  C 6.096 6.421  6.011 6.54  5.909 6.54  L 2.05 6.54  C 1.948 6.54  1.863 6.421  1.863 6.2765  L 1.863 5.52  C 1.863 5.3755  1.948 5.2565  2.05 5.2565  L 5.909 5.2565  C 6.011 5.2565  6.096 5.3755  6.096 5.52  Z " fill-rule="nonzero" fill="#ffffff" stroke="none" transform="matrix(1 0 0 1 38 293 )" />
  </g>
</svg>