<?xml version="1.0" encoding="utf-8"?>
<svg version="1.1" xmlns:xlink="http://www.w3.org/1999/xlink" width="20px" height="20px" xmlns="http://www.w3.org/2000/svg">
  <g transform="matrix(1 0 0 1 -433 -15 )">
    <path d="M 10 0.0775193895348802  C 14.3495255403637 0.0775193895348802  18.0454053344251 2.87610951165317  19.3851884271911 6.77083880089665  C 19.7334188429572 7.78313937926104  19.9224806104651 8.86949081871205  19.9224806104651 10  C 19.9224806104651 15.4800347216516  15.4800347216516 19.9224806104651  10 19.9224806104651  C 4.51996527834838 19.9224806104651  0.0775193895348518 15.4800347216516  0.0775193895348518 10  C 0.0775193895348518 4.51996527834838  4.51996527834838 0.0775193895348802  10 0.0775193895348802  Z M 14.95503875 14.1227906976744  C 14.8394475894855 12.1558802820289  13.2106140961174 10.6200452830326  11.2403100872093 10.6201550290698  L 8.75968991279069 10.6201550290698  C 6.70467689016452 10.6201550290698  5.03875968023256 12.2860722390017  5.03875968023256 14.3410852616279  L 14.9612403197674 14.3410852616279  L 14.95503875 14.1227906976744  Z M 10 4.41860465116279  C 8.62999131557338 4.41860465116279  7.51937984011624 5.52921612661991  7.51937984011624 6.89922481104651  C 7.51937984011624 8.26923349547312  8.62999131557338 9.37984497093023  10 9.37984497093023  C 11.3700086844266 9.37984497093023  12.4806201598837 8.26923349547312  12.4806201598837 6.89922481104651  C 12.4806201598837 5.52921612661991  11.3700086844266 4.41860465116279  10 4.41860465116279  Z " fill-rule="nonzero" fill="#ffffff" stroke="none" transform="matrix(1 0 0 1 433 15 )" />
  </g>
</svg>