<?xml version="1.0" encoding="utf-8"?>
<svg version="1.1" xmlns:xlink="http://www.w3.org/1999/xlink" width="15px" height="17px" xmlns="http://www.w3.org/2000/svg">
  <g transform="matrix(1 0 0 1 -23 -15 )">
    <path d="M 0.954536727272727 0  L 0.954536727272727 1.29455  C 2.23744581818182 0.86105  3.60588218181818 0.6443  5.05897309090909 0.6443  C 6.13242763636364 0.6443  6.72239127272727 0.7616  7.71730036363636 1.0863  L 7.76355490909091 1.1016  C 8.64500945454546 1.3906  9.12064581818182 1.48495  10.0195549090909 1.48495  C 11.5075549090909 1.48495  12.9266094545455 1.1475  14.2828276363636 0.47175  C 14.3444102985982 0.441018515254911  14.4126138796698 0.424991404352178  14.4818094546347 0.424991404352178  C 14.7228064363791 0.424991404352178  14.9181730909983 0.615270385674091  14.9181730909983 0.849991404352178  L 14.9181730909091 9.7529  C 14.9199185454545 10.34535  12.7642821818182 11.30075  10.9053730909091 11.30075  C 10.2194094545455 11.30075  9.54130036363637 11.26675  8.50450036363636 11.1928  L 8.07948218181818 11.16135  C 6.17257309090909 11.0211  5.36093672727273 10.98795  4.40530036363636 11.0551  C 3.18871854545454 11.1401  2.04020945454545 11.4376  0.954536727272726 11.9476  L 0.954536727272726 17  L 0 17  L 0 0  L 0.954536727272727 0  Z M 10.0195549090909 2.33495  C 9.01155490909091 2.33495  8.44951854545454 2.22275  7.48602763636364 1.90825  L 7.44064581818182 1.89295  C 6.52690036363636 1.5946  6.02420945454545 1.4943  5.05897309090909 1.4943  C 3.59279127272727 1.4943  2.22522763636364 1.72975  0.954536727272727 2.1998  L 0.954536727272727 11.0126  C 2.02862822192464 10.5585872075361  3.17437220265857 10.2863657154409  4.342464 10.20765  C 5.35657309090909 10.13625  6.19351854545454 10.17025  8.14580945454545 10.3139  L 8.56820945454545 10.34535  C 9.58580945454545 10.41845  10.246464 10.45075  10.9053730909091 10.45075  C 11.7903185454545 10.45075  12.6071912727273 10.2595  13.3254458181818 9.94075  C 13.5956243234047 9.82190083591663  13.8541438316323 9.67936365861365  14.0978094545455 9.5149  C 14.0803549090909 9.5302  14.0594094545455 9.5455  14.0454458181818 9.5574  L 14.0454458181818 1.5215  C 12.7755863173495 2.06069959992236  11.404845389371 2.33795359484121  10.0195549090909 2.3358  Z " fill-rule="nonzero" fill="#7f7f7f" stroke="none" transform="matrix(1 0 0 1 23 15 )" />
  </g>
</svg>