<?xml version="1.0" encoding="utf-8"?>
<svg version="1.1" xmlns:xlink="http://www.w3.org/1999/xlink" width="15px" height="15px" xmlns="http://www.w3.org/2000/svg">
  <g transform="matrix(1 0 0 1 -15 -24 )">
    <path d="M 14.948275862069 7.45862068965517  C 14.948275862069 6.46551724137931  14.7413793103448 5.51379310344828  14.3689655172414 4.60344827586207  C 13.9965517241379 3.69310344827586  13.4586206896552 2.86551724137931  12.7551724137931 2.20344827586207  C 12.051724137931 1.5  11.2241379310345 0.962068965517242  10.3551724137931 0.589655172413793  C 9.44482758620689 0.217241379310345  8.49310344827586 0.0103448275862071  7.5 0.0103448275862071  C 6.50689655172414 0.0103448275862071  5.5551724137931 0.217241379310345  4.6448275862069 0.589655172413793  C 3.73448275862069 0.962068965517242  2.94827586206897 1.5  2.2448275862069 2.20344827586207  C 1.54137931034483 2.90689655172414  1.00344827586207 3.73448275862069  0.631034482758621 4.60344827586207  C 0.258620689655173 5.51379310344828  0.0517241379310348 6.46551724137931  0.0517241379310348 7.45862068965517  C 0.0517241379310348 8.45172413793103  0.258620689655173 9.40344827586207  0.631034482758621 10.3137931034483  C 1.00344827586207 11.2241379310345  1.54137931034483 12.051724137931  2.2448275862069 12.7137931034483  C 2.94827586206897 13.4172413793103  3.77586206896552 13.9551724137931  4.6448275862069 14.3275862068966  C 5.5551724137931 14.7  6.50689655172414 14.9068965517241  7.5 14.9068965517241  C 8.49310344827586 14.9068965517241  9.44482758620689 14.7  10.3551724137931 14.3275862068966  C 11.2655172413793 13.9551724137931  12.0931034482759 13.4172413793103  12.7551724137931 12.7137931034483  C 13.4586206896552 12.0103448275862  13.9965517241379 11.1827586206897  14.3689655172414 10.3137931034483  C 14.7413793103448 9.40344827586207  14.948275862069 8.45172413793103  14.948275862069 7.45862068965517  Z M 12.1344827586207 5.26551724137931  C 12.0931034482759 5.63793103448276  11.9689655172414 5.92758620689655  11.7620689655172 6.13448275862069  L 7.91379310344828 9.98275862068965  C 7.83103448275862 10.0655172413793  7.74827586206897 10.0655172413793  7.66551724137931 10.0655172413793  C 7.58275862068965 10.0655172413793  7.5 10.0655172413793  7.45862068965517 9.98275862068965  C 7.33448275862069 9.85862068965517  7.33448275862069 9.65172413793104  7.45862068965517 9.52758620689655  L 11.3068965517241 5.67931034482759  C 11.3896551724138 5.59655172413793  11.4310344827586 5.47241379310345  11.4310344827586 5.30689655172414  C 11.4310344827586 5.14137931034483  11.348275862069 4.97586206896552  11.2655172413793 4.85172413793103  L 9.44482758620689 3.03103448275862  C 9.23793103448276 2.82413793103448  8.94827586206896 2.94827586206897  8.78275862068965 3.1551724137931  L 5.1 6.83793103448276  L 4.10689655172414 7.83103448275862  L 3.73448275862069 10.6448275862069  L 6.3 10.2310344827586  L 4.85172413793103 8.74137931034483  C 4.72758620689655 8.61724137931035  4.72758620689655 8.41034482758621  4.85172413793103 8.28620689655173  C 4.97586206896552 8.16206896551724  5.18275862068965 8.16206896551724  5.30689655172414 8.28620689655173  L 7.2103448275862 10.1896551724138  C 7.29310344827586 10.2724137931034  7.33448275862069 10.3965517241379  7.29310344827586 10.5206896551724  C 7.25172413793103 10.6448275862069  7.16896551724138 10.7275862068966  7.04482758620689 10.7275862068966  L 3.40344827586207 11.3068965517241  L 3.36206896551724 11.3068965517241  C 3.27931034482759 11.3068965517241  3.19655172413793 11.2655172413793  3.1551724137931 11.2241379310345  C 3.07241379310345 11.1413793103448  3.03103448275862 11.0586206896552  3.07241379310345 10.9344827586207  L 3.52758620689655 7.58275862068966  C 3.52758620689655 7.5  3.56896551724138 7.45862068965517  3.61034482758621 7.41724137931035  L 4.23103448275862 6.79655172413793  L 8.36896551724138 2.65862068965517  C 8.86551724137931 2.16206896551724  9.52758620689655 2.12068965517242  9.94137931034483 2.53448275862069  L 11.7620689655172 4.35517241379311  C 12.0103448275862 4.60344827586207  12.1344827586207 4.93448275862069  12.1344827586207 5.26551724137931  Z " fill-rule="nonzero" fill="#7f7f7f" stroke="none" transform="matrix(1 0 0 1 15 24 )" />
  </g>
</svg>