<?xml version="1.0" encoding="utf-8"?>
<svg version="1.1" xmlns:xlink="http://www.w3.org/1999/xlink" width="21px" height="17px" xmlns="http://www.w3.org/2000/svg">
  <g transform="matrix(1 0 0 1 -533 -17 )">
    <path d="M 20.5625 5.625  L 18.98125 5.625  L 19.447 6.789375  C 19.6928125 7.048125  19.84375 7.3974375  19.84375 7.78125  L 19.84375 15.328125  C 19.84375 15.9235569959113  19.3610569959113 16.40625  18.765625 16.40625  L 17.328125 16.40625  C 16.7326930040887 16.40625  16.25 15.9235569959113  16.25 15.328125  L 16.25 14  L 4.75 14  L 4.75 15.328125  C 4.75 15.9235569959113  4.26730699591132 16.40625  3.671875 16.40625  L 2.234375 16.40625  C 1.63894300408868 16.40625  1.15625 15.9235569959113  1.15625 15.328125  L 1.15625 7.78125  C 1.15625 7.3974375  1.3071875 7.048125  1.553 6.789375  L 2.01875 5.625  L 0.4375 5.625  L 0.4375 4.1875  L 2.59375 4.1875  L 3.6704375 1.4979375  C 3.88847008051509 0.952189934193896  4.41674840414786 0.594121975610908  5.0044375 0.59375  L 15.9955625 0.59375  C 16.5832515958521 0.594121975610907  17.1115299194849 0.952189934193895  17.3295625 1.4979375  L 18.40625 4.1875  L 20.5625 4.1875  L 20.5625 5.625  Z M 15.9955625 2  L 5.0044375 2  L 3.2794375 6.34375  L 17.7205625 6.34375  L 15.9955625 2  Z M 7.625 9.21875  L 4.75 9.21875  L 4.75 10.65625  L 7.625 10.65625  L 7.625 9.21875  Z M 16.25 10.65625  L 16.25 9.21875  L 13.375 9.21875  L 13.375 10.65625  L 16.25 10.65625  Z " fill-rule="nonzero" fill="#ffffff" stroke="none" transform="matrix(1 0 0 1 533 17 )" />
  </g>
</svg>