<?xml version="1.0" encoding="utf-8"?>
<svg version="1.1" xmlns:xlink="http://www.w3.org/1999/xlink" width="18px" height="18px" xmlns="http://www.w3.org/2000/svg">
  <g transform="matrix(1 0 0 1 -133 -17 )">
    <path d="M 17.4693084182243 3.38557010046729  C 18.169806848823 4.08628011194349  18.169806848823 5.22213111001912  17.4693084182243 5.92284112149533  L 14.6144298995327 8.77771961915888  C 13.9137198880565 9.47821804975758  12.7778688899809 9.47821804975758  12.0771588785047 8.77771961915888  L 9.22228038084112 5.92284112149533  C 8.52178195024242 5.22213111001912  8.52178195024242 4.08628011194349  9.22228038084112 3.38557010046729  L 12.0771588785047 0.530691581775701  C 12.7778688899809 -0.169806848822996  13.9137198880565 -0.169806848822998  14.6144298995327 0.530691581775701  L 17.4693084182243 3.38557010046729  Z M 5.94392524065421 17.8878504742991  L 1.90654206308411 17.8878504742991  C 0.915526420062628 17.8878504742991  0.112149525700935 17.0844735799374  0.112149525700935 16.0934579579439  L 0.112149525700934 12.0560747593458  C 0.112149525700935 11.0650591373523  0.915526420062628 10.2616822429906  1.90654204205607 10.2616822429906  L 5.9439252406542 10.2616822429906  C 6.93494086264765 10.2616822429906  7.73831775700934 11.0650591373523  7.73831775700934 12.0560747593458  C 7.73831775700934 13.2523364369159  7.73831775700934 10.8598130817757  7.73831775700934 12.0560747593458  L 7.73831775700934 16.0934579369159  C 7.73831775700934 17.0844735799374  6.93494086264765 17.8878504742991  5.9439252406542 17.8878504742991  Z M 5.94392524065421 8.46728972663551  L 1.90654206308411 8.46728972663551  C 0.915526420062628 8.46728972663551  0.112149525700935 7.66391283227382  0.112149525700935 6.67289721028037  L 0.112149525700934 2.63551401168224  C 0.112149525700935 1.6444983896888  0.915526420062628 0.841121495327102  1.90654204205607 0.841121495327102  L 5.9439252406542 0.841121495327102  C 6.93494086264765 0.841121495327102  7.73831775700934 1.6444983896888  7.73831775700934 2.63551401168224  L 7.73831775700934 6.67289718925233  C 7.73831775700934 7.66391283227382  6.93494086264765 8.46728972663551  5.9439252406542 8.46728972663551  Z M 11.3271028107477 10.2616822429907  L 15.3644859883178 10.2616822429907  C 16.3555016103112 10.2616822429907  17.1588785046729 11.0650591373523  17.1588785046729 12.0560747593458  L 17.1588785046729 16.0934579369159  C 17.1588785046729 17.0844735799374  16.3555016103112 17.8878504742991  15.3644859883178 17.8878504742991  L 11.3271028107477 17.8878504742991  C 10.3360871677262 17.8878504742991  9.53271027336448 17.0844735799374  9.53271027336448 16.0934579579439  L 9.53271027336448 12.0560747593458  C 9.53271027336448 11.0650591373523  10.3360871677262 10.2616822429907  11.3271027897196 10.2616822429907  Z " fill-rule="nonzero" fill="#ffffff" stroke="none" transform="matrix(1 0 0 1 133 17 )" />
  </g>
</svg>