<?xml version="1.0" encoding="utf-8"?>
<svg version="1.1" xmlns:xlink="http://www.w3.org/1999/xlink" width="20px" height="20px" xmlns="http://www.w3.org/2000/svg">
  <g transform="matrix(1 0 0 1 -747 -16 )">
    <path d="M 10.0797087732071 13.2886700048146  C 10.0797087732071 14.5855441502167  11.1371930202645 16.3031276649013  12.3073367212717 17.8037829369283  L 12.3073367212717 19.4575087722677  L 7 17.0431253923929  L 7 0.139624458353395  L 13.2540549350807 2.95687460760713  L 13.2540549350807 8.46929407799711  C 11.3250794573426 9.30802042737314  10.0792317859784 11.1994991665131  10.0797087732071 13.2886700048146  Z M 19.8810823929135 17.0431253923929  L 19.8810823929135 15.6992970630717  L 19.8810823929135 17.0431253923929  Z M 19.8810823929135 0.139624458353395  L 19.8810823929135 10.5042877804526  C 18.8685785855715 8.89356092931302  17.0591974061776 7.94950170441262  15.1474913432836 8.03449846894559  L 15.1474913432836 2.95687460760713  L 19.8810823929135 0.139624458353395  Z M 0 19.8603755416466  L 0 2.95687460760713  L 5 0.139624458353395  L 5 17.0431253923929  L 0 19.8603755416466  Z " fill-rule="nonzero" fill="#ffffff" stroke="none" transform="matrix(1 0 0 1 747 16 )" />
  </g>
</svg>