<?xml version="1.0" encoding="utf-8"?>
<svg version="1.1" xmlns:xlink="http://www.w3.org/1999/xlink" width="8px" height="11px" xmlns="http://www.w3.org/2000/svg">
  <g transform="matrix(1 0 0 1 -759 -25 )">
    <path d="M 3.96951419517796 10.9015387297359  C 3.96951419517796 10.9212450314581  0.028253464982778 6.7898184652124  0.028253464982778 4.3955025836969  C 0.0282534649827802 2.00086248543776  1.79301651353333 0.0596231320321477  3.96996205740528 0.0596231320321477  C 6.14690760127723 0.0596231320321477  7.91167064982779 2.00086248543776  7.91167064982779 4.3955025836969  C 7.91167064982779 6.78981848541906  3.97040991963261 10.8828177451206  3.97040991963261 10.9015387297359  Z M 4.02684160734788 5.56802763719862  C 4.76889780904991 5.56802763719862  5.37045321699196 4.90631668846236  5.37045321699196 4.09005486659013  C 5.37045321699196 3.27379304471789  4.76889780904991 2.61208209598163  4.02684160734788 2.61208209598163  C 3.28478540564584 2.61208209598163  2.68322999770379 3.27379304471789  2.68322999770379 4.09005486659013  C 2.68322999770379 4.90631668846236  3.28478540564584 5.56802763719862  4.02684160734788 5.56802763719862  Z " fill-rule="nonzero" fill="#ffffff" stroke="none" transform="matrix(1 0 0 1 759 25 )" />
  </g>
</svg>