<?xml version="1.0" encoding="utf-8"?>
<svg version="1.1" xmlns:xlink="http://www.w3.org/1999/xlink" width="20px" height="20px" xmlns="http://www.w3.org/2000/svg">
  <g transform="matrix(1 0 0 1 -948 -15 )">
    <path d="M 19.4015748031496 11.875  C 19.7795275590551 12.375  19.7795275590551 12.5  19.9055118110236 12.625  L 19.9055118110236 13.25  C 19.9055118110236 13.5  19.7795275590551 13.75  19.6535433070866 14  C 19.5275590551181 14.25  19.4015748031496 14.5  19.2755905511811 14.625  C 19.1496062992126 14.875  19.0236220472441 15  18.7716535433071 15  C 18.6456692913386 15.125  18.3937007874016 15.125  18.2677165354331 15.125  C 18.1417322834646 15.125  18.0157480314961 15.125  17.8897637795276 15  C 17.7637795275591 15  17.511811023622 14.875  17.3858267716535 14.875  L 16.755905511811 14.875  C 16.503937007874 14.875  16.3779527559055 15  16.1259842519685 15  C 15.8740157480315 15.125  15.748031496063 15.25  15.6220472440945 15.375  C 15.244094488189 15.75  15.1181102362205 16.125  14.992125984252 16.625  C 14.992125984252 17.125  14.992125984252 17.5  15.244094488189 17.875  C 15.3700787401575 18.125  15.3700787401575 18.375  15.1181102362205 18.75  L 14.740157480315 19.125  C 14.6141732283465 19.25  14.3622047244094 19.375  14.1102362204724 19.5  C 13.8582677165354 19.625  13.6062992125984 19.625  13.4803149606299 19.75  C 13.2283464566929 19.75  12.9763779527559 19.875  12.8503937007874 19.875  C 12.7244094488189 19.875  12.5984251968504 19.875  12.4724409448819 19.75  C 12.3464566929134 19.625  12.2204724409449 19.5  12.2204724409449 19.375  C 12.0944881889764 19  11.8425196850394 18.625  11.4645669291339 18.25  C 11.0866141732283 17.875  10.7086614173228 17.75  10.2047244094488 17.75  C 9.7007874015748 17.75  9.32283464566929 17.875  8.94488188976378 18.25  C 8.56692913385826 18.625  8.31496062992126 18.875  8.18897637795275 19.375  C 8.06299212598425 19.5  8.06299212598425 19.625  7.81102362204724 19.75  C 7.68503937007874 19.875  7.55905511811023 19.875  7.30708661417323 19.875  C 7.05511811023622 19.875  6.92913385826771 19.875  6.67716535433071 19.75  C 6.4251968503937 19.625  6.17322834645669 19.625  5.92125984251968 19.5  C 5.66929133858268 19.375  5.41732283464567 19.25  5.29133858267716 19.125  C 5.03937007874016 19  4.91338582677165 18.875  4.78740157480315 18.75  C 4.66141732283464 18.625  4.66141732283464 18.5  4.66141732283464 18.375  C 4.66141732283464 18.25  4.66141732283464 18  4.78740157480315 17.875  C 4.91338582677165 17.5  5.03937007874016 17.125  4.91338582677165 16.75  C 4.91338582677165 16.375  4.66141732283464 16  4.40944881889764 15.625  C 4.15748031496063 15.375  4.03149606299212 15.25  3.65354330708661 15.25  C 3.2755905511811 15  3.02362204724409 15  2.77165354330708 15  C 2.51968503937008 15  2.14173228346456 15.125  1.88976377952756 15.125  L 1.25984251968504 15.125  C 1.13385826771654 15.125  1.00787401574803 15  0.881889763779528 14.75  C 0.755905511811024 14.5  0.62992125984252 14.375  0.503937007874016 14.125  C 0.377952755905512 13.875  0.377952755905512 13.625  0.251968503937008 13.375  C 0.251968503937008 13.125  0.125984251968504 12.875  0.251968503937008 12.75  C 0.251968503937008 12.5  0.377952755905512 12.25  0.62992125984252 12.125  C 1.00787401574803 11.875  1.38582677165354 11.625  1.76377952755906 11.25  C 2.14173228346457 10.875  2.26771653543307 10.375  2.26771653543307 10  C 2.26771653543307 9.5  2.14173228346457 9.125  1.76377952755906 8.75  C 1.38582677165354 8.25  1.00787401574803 8  0.62992125984252 7.875  C 0.503937007874016 7.875  0.377952755905512 7.75  0.377952755905512 7.625  C 0.251968503937008 7.375  0.125984251968504 7.25  0.125984251968504 7.125  C 0.125984251968504 7  0.125984251968504 6.75  0.251968503937008 6.5  C 0.251968503937008 6.25  0.377952755905512 6  0.503937007874016 5.875  C 0.62992125984252 5.625  0.755905511811024 5.5  0.881889763779528 5.25  C 0.881889763779528 5  1.00787401574803 4.875  1.13385826771654 4.875  C 1.25984251968504 4.75  1.38582677165354 4.75  1.51181102362205 4.75  C 1.63779527559055 4.75  1.76377952755906 4.75  1.88976377952756 4.875  C 2.26771653543307 5  2.77165354330709 5.125  3.1496062992126 5  C 3.65354330708661 4.875  4.03149606299213 4.75  4.40944881889764 4.375  C 4.53543307086614 4.25  4.66141732283465 4  4.78740157480315 3.75  C 4.91338582677165 3.5  4.91338582677165 3.25  4.91338582677165 3  L 4.91338582677165 2.375  L 4.91338582677165 2  C 4.91338582677165 1.875  4.91338582677165 1.875  4.78740157480315 1.75  L 4.78740157480315 1.5  C 4.91338582677165 1.25  5.03937007874016 0.999999999999997  5.29133858267716 0.874999999999997  L 6.04724409448819 0.499999999999997  C 6.2992125984252 0.374999999999997  6.5511811023622 0.374999999999997  6.80314960629921 0.249999999999997  C 7.05511811023622 0.249999999999997  7.18110236220472 0.124999999999997  7.43307086614173 0.124999999999997  C 7.55905511811024 0.124999999999997  7.81102362204724 0.124999999999997  7.81102362204724 0.249999999999997  C 7.93700787401575 0.374999999999997  7.93700787401575 0.499999999999997  8.06299212598425 0.624999999999997  C 8.18897637795276 0.999999999999997  8.44094488188976 1.375  8.81889763779527 1.625  C 9.19685039370079 1.875  9.5748031496063 2  10.0787401574803 2  C 10.5826771653543 2  10.9606299212598 1.875  11.3385826771654 1.625  C 11.7165354330709 1.375  11.9685039370079 0.999999999999997  12.0944881889764 0.624999999999997  C 12.0944881889764 0.499999999999997  12.2204724409449 0.374999999999997  12.3464566929134 0.249999999999997  C 12.4724409448819 0.124999999999997  12.5984251968504 0.124999999999997  12.7244094488189 0.124999999999997  C 12.9763779527559 0.124999999999997  13.1023622047244 0.124999999999997  13.3543307086614 0.249999999999997  C 13.6062992125984 0.249999999999997  13.8582677165354 0.374999999999997  13.9842519685039 0.499999999999997  C 14.2362204724409 0.624999999999997  14.3622047244094 0.749999999999997  14.6141732283465 0.874999999999997  C 14.8661417322835 0.999999999999997  15.1181102362205 1.25  15.1181102362205 1.375  C 15.244094488189 1.5  15.244094488189 1.625  15.244094488189 1.75  C 15.244094488189 1.875  15.244094488189 2  15.1181102362205 2  C 14.992125984252 2.375  14.8661417322835 2.875  14.992125984252 3.25  C 15.1181102362205 3.75  15.244094488189 4.125  15.6220472440945 4.375  C 16 4.75  16.3779527559055 4.875  16.8818897637795 4.875  C 17.3858267716535 4.875  17.8897637795276 4.875  18.2677165354331 4.625  C 18.3937007874016 4.5  18.5196850393701 4.5  18.6456692913386 4.5  C 18.7716535433071 4.5  18.8976377952756 4.625  19.0236220472441 4.75  C 19.2755905511811 5  19.4015748031496 5.25  19.5275590551181 5.625  C 19.6535433070866 6  19.7795275590551 6.375  19.9055118110236 6.875  C 19.9055118110236 7.125  19.9055118110236 7.25  19.7795275590551 7.375  C 19.6535433070866 7.5  19.5275590551181 7.625  19.4015748031496 7.625  C 19.0236220472441 7.75  18.6456692913386 8  18.2677165354331 8.375  C 18.0157480314961 8.75  17.7637795275591 9.25  17.7637795275591 9.75  C 17.7637795275591 10.25  17.8897637795276 10.625  18.1417322834646 11  C 18.3937007874016 11.375  18.7716535433071 11.625  19.1496062992126 11.75  C 19.2755905511811 11.75  19.2755905511811 11.875  19.4015748031496 11.875  Z M 8.31496062992126 14.25  C 8.81889763779527 14.5  9.44881889763779 14.625  10.0787401574803 14.625  C 10.7086614173228 14.625  11.3385826771654 14.5  11.8425196850394 14.25  C 12.3464566929134 14  12.8503937007874 13.625  13.3543307086614 13.25  C 13.7322834645669 12.875  14.1102362204724 12.375  14.3622047244094 11.75  C 14.488188976378 11.25  14.6141732283465 10.625  14.6141732283465 10  C 14.6141732283465 9.375  14.488188976378 8.75  14.2362204724409 8.25  C 13.9842519685039 7.75  13.6062992125984 7.25  13.2283464566929 6.75  C 12.8503937007874 6.375  12.3464566929134 6  11.7165354330709 5.75  C 11.3385826771654 5.5  10.7086614173228 5.375  10.0787401574803 5.375  C 9.44881889763779 5.375  8.81889763779527 5.5  8.18897637795276 5.75  C 7.68503937007874 6  7.18110236220472 6.375  6.80314960629921 6.75  C 6.4251968503937 7.125  6.04724409448819 7.625  5.79527559055118 8.25  C 5.54330708661417 8.75  5.41732283464567 9.375  5.41732283464567 10  C 5.41732283464567 10.625  5.54330708661417 11.25  5.79527559055118 11.75  C 6.04724409448819 12.25  6.4251968503937 12.75  6.80314960629921 13.25  C 7.18110236220472 13.625  7.68503937007874 14  8.31496062992126 14.25  Z " fill-rule="nonzero" fill="#ffffff" stroke="none" transform="matrix(1 0 0 1 948 15 )" />
  </g>
</svg>