<?xml version="1.0" encoding="utf-8"?>
<svg version="1.1" xmlns:xlink="http://www.w3.org/1999/xlink" width="20px" height="20px" xmlns="http://www.w3.org/2000/svg">
  <g transform="matrix(1 0 0 1 -333 -15 )">
    <path d="M 14.8725 12.8525  L 14.87125 12.8525  C 13.52625 12.565  12.34 13.7825  12.62875 15.1925  C 12.7713957414784 15.9749979530092  13.3837520469908 16.5873542585216  14.16625 16.73  C 15.5125 17.01875  16.69875 15.80125  16.41 14.4875  C 16.2846916913491 13.677104761888  15.6736709342727 13.0273363470457  14.8725 12.8525  Z M 15.44875 14.74375  C 15.44875 15.25625  15 15.6725  14.51875 15.6725  C 14.0108171633065 15.6606214131407  13.6018785868593 15.2516828366935  13.59 14.74375  C 13.59 14.2625  14.00625 13.81375  14.51875 13.81375  C 15 13.81375  15.44875 14.23125  15.44875 14.74375  Z M 19.93625 14.71125  C 19.74375 14.35875  19.6475 13.7825  19.6475 13.7175  C 19.58375 13.365  19.295 13.0775  19.00625 13.0775  L 18.9425 13.0775  C 18.9332171003218 13.0777362124908  18.9239315714515 13.0778543330697  18.9146456669303 13.0778543330697  C 18.3098938658656 13.0778543330697  17.8196456669303 12.5876061341344  17.8196456669303 11.9828543330697  C 17.8196456669303 11.9735684285485  17.8197637875092 11.9642828996782  17.82 11.955  C 17.82 11.82625  17.885 11.6025  17.885 11.53875  C 18.0078551747772 11.1797506683407  17.8923586619546 10.7822626696656  17.59625 10.545  L 16.31375 9.84  L 15.96125 9.84  C 15.73625 9.84  15.48125 9.90375  15.32 10.1275  C 15.1925 10.25625  14.74375 10.60875  14.4875 10.60875  C 14.19875 10.60875  13.7825 10.25625  13.5575 10.12875  C 13.3899425670403 9.9520535680996  13.1596171514024 9.84833978444979  12.91625 9.84  C 12.78875 9.84  12.69125 9.84  12.62875 9.90375  L 11.2825 10.60875  C 10.99375 10.83375  10.865 11.25  10.99375 11.6025  C 10.99375 11.6025  11.0575 11.8275  11.0575 12.01875  C 11.0577356850352 12.028022535111  11.0578535418225 12.0372976906121  11.0578535418225 12.0465732205064  C 11.0578535418225 12.6513250215711  10.5676053428872 13.1415732205064  9.96285354182245 13.1415732205064  C 9.95398471282821 13.1415732205064  9.94511621110621 13.1414654723864  9.93625 13.14125  C 9.6475 13.14125  9.35875 13.42875  9.295 13.7825  C 9.295 13.845  9.16625 14.35875  9.16625 14.84  C 9.16625 15.25625  9.23125 15.83375  9.295 15.8975  C 9.35875 16.25  9.6475 16.53875  9.93625 16.53875  L 10 16.53875  C 10.64125 16.53875  11.12125 17.01875  11.12125 17.66  C 11.12125 17.78875  11.05875 18.0125  11.05875 18.0775  C 10.936200804406 18.4358708603365  11.0511273293725 18.8326172117428  11.34625 19.07  L 12.62875 19.775  C 12.75625 19.7125  12.85375 19.7125  12.98125 19.7125  C 13.20625 19.7125  13.46125 19.6475  13.62125 19.4225  C 13.75 19.295  14.19875 18.84625  14.55125 18.84625  C 14.83875 18.84625  15.32 19.19875  15.48125 19.4225  C 15.60875 19.55125  15.83375 19.71125  16.12125 19.71125  C 16.25 19.71125  16.34625 19.71125  16.47375 19.6475  L 17.75625 18.9425  C 18.04375 18.7175  18.17375 18.30125  18.04375 17.94875  C 18.04375 17.94875  17.98125 17.72375  17.98125 17.5325  C 17.98125 16.89125  18.46125 16.41  19.1025 16.41  L 19.16625 16.41  C 19.455 16.41  19.74375 16.1225  19.8075 15.76875  C 19.8075 15.76875  19.93625 15.1925  19.93625 14.71125  Z M 18.68625 15.48125  L 18.685 15.48  C 17.62875 15.60875  16.86 16.47375  16.86 17.59625  C 16.86 17.82125  16.9225 18.0775  16.9875 18.2375  L 16.0575 18.7175  L 15.705 18.365  C 15.28875 18.0775  14.93625 17.94875  14.51875 17.94875  C 14.16625 17.94875  13.75 18.0775  13.33375 18.365  C 13.205 18.49375  13.045 18.59  12.98125 18.7175  L 12.1475 18.2375  C 12.21125 18.10875  12.27625 17.82  12.27625 17.59625  C 12.27625 16.53875  11.50625 15.60875  10.44875 15.48125  C 10.44875 15.3525  10.385 15.06375  10.385 14.775  C 10.385 14.55  10.44875 14.295  10.44875 14.07  C 11.50625 13.9425  12.27625 13.0775  12.27625 11.955  C 12.27625 11.73  12.21125 11.47375  12.1475 11.31375  L 13.0775 10.83375  C 13.14 10.89625  13.30125 11.05875  13.43 11.12125  C 13.84625 11.41  14.19875 11.53875  14.55125 11.53875  C 14.90375 11.53875  15.25625 11.41  15.6725 11.12125  C 15.80125 10.99375  15.96125 10.89625  16.02625 10.83375  L 16.955 11.31375  C 16.8720218816389 11.5174660733359  16.8283369230717 11.7350426145495  16.82625 11.955  C 16.82625 13.0125  17.59625 13.9425  18.65375 14.07  C 18.65375 14.19875  18.7175 14.4875  18.7175 14.775  C 18.75 14.9675  18.68625 15.25625  18.68625 15.48125  Z M 2.40375 18.30125  L 2.405 18.3025  C 2.39614414186791 18.30271496923  2.3872860011391 18.3028224657162  2.37842753428385 18.3028224657162  C 1.77367573321913 18.3028224657162  1.28342753428385 17.8125742667809  1.28342753428385 17.2078224657162  C 1.28342753428385 17.1989639988609  1.28353503077004 17.1901058581321  1.28375 17.18125  C 1.28375 13.43125  4.1675 10.35375  7.82125 10.00125  L 8.59125 10.00125  C 9.42375 9.9375  10.64125 9.71375  11.28375 9.1675  L 11.57125 8.9425  C 12.7575 7.95  13.4625 6.54  13.4625 5  C 13.4625 2.24375  11.21875 0  8.39875 0  C 5.8 0  3.525 2.24375  3.525 5  C 3.525 6.5375  4.23 7.94875  5.415 8.9425  L 5.7675 9.1675  L 5.415 9.295  C 2.17875 10.5775  0 13.65375  0 17.18  C 0 18.52625  1.0575 19.58375  2.40375 19.58375  L 8.81375 19.58375  C 9.03875 19.58375  9.39125 19.35875  9.39125 18.9425  C 9.39125 18.46125  9.03875 18.30125  8.81375 18.30125  L 2.40375 18.30125  Z M 8.52625 8.7175  C 6.47375 8.7175  4.8075 7.01875  4.8075 4.9675  C 4.8075 2.9175  6.5075 1.2175  8.5575 1.2175  C 10.60875 1.2175  12.3075 2.9175  12.3075 4.9675  C 12.3075 7.01875  10.5775 8.7175  8.52625 8.7175  Z " fill-rule="nonzero" fill="#ffffff" stroke="none" transform="matrix(1 0 0 1 333 15 )" />
  </g>
</svg>