<?xml version="1.0" encoding="utf-8"?>
<svg version="1.1" xmlns:xlink="http://www.w3.org/1999/xlink" width="80px" height="30px" xmlns="http://www.w3.org/2000/svg">
  <g transform="matrix(1 0 0 1 -386 -359 )">
    <path d="M 386.5 362  A 2.5 2.5 0 0 1 389 359.5 L 463 359.5  A 2.5 2.5 0 0 1 465.5 362 L 465.5 386  A 2.5 2.5 0 0 1 463 388.5 L 389 388.5  A 2.5 2.5 0 0 1 386.5 386 L 386.5 362  Z " fill-rule="nonzero" fill="#f0f7ff" stroke="none" />
    <path d="M 386.5 362  A 2.5 2.5 0 0 1 389 359.5 L 463 359.5  A 2.5 2.5 0 0 1 465.5 362 L 465.5 386  A 2.5 2.5 0 0 1 463 388.5 L 389 388.5  A 2.5 2.5 0 0 1 386.5 386 L 386.5 362  Z " stroke-width="1" stroke="#409eff" fill="none" />
  </g>
</svg>