<?xml version="1.0" encoding="utf-8"?>
<svg version="1.1" xmlns:xlink="http://www.w3.org/1999/xlink" width="18px" height="5px" xmlns="http://www.w3.org/2000/svg">
  <g transform="matrix(1 0 0 1 -538 -181 )">
    <path d="M 17.5748 1.8701  C 18.0436 1.4263  17.7321 0.6381  17.0866 0.6381  C 16.8939 0.6381  16.7122 0.719  16.5753 0.8546  C 16.3001 1.127  15.8049 1.4589  15.0156 1.778  C 13.4558 2.4086  11.2632 2.7702  9.0001 2.7702  C 6.737 2.7702  4.5443 2.4086  2.9846 1.778  C 2.1953 1.4589  1.7001 1.127  1.4249 0.8546  C 1.2879 0.718999999999999  1.1063 0.638199999999999  0.9136 0.638199999999999  C 0.268 0.638199999999999  -0.0433999999999997 1.4264  0.4256 1.8701  C 1.8481 3.2157  5.1516 4.1586  9.0002 4.1586  C 12.8488 4.1586  16.1523 3.2156  17.5748 1.8701  Z " fill-rule="nonzero" fill="#aaaaaa" stroke="none" transform="matrix(1 0 0 1 538 181 )" />
  </g>
</svg>