<?xml version="1.0" encoding="utf-8"?>
<svg version="1.1" xmlns:xlink="http://www.w3.org/1999/xlink" width="18px" height="6px" xmlns="http://www.w3.org/2000/svg">
  <g transform="matrix(1 0 0 1 -538 -183 )">
    <path d="M 5.90036081366919 4.6676  C 5.90036081366919 4.62720318138262  5.90388726143221 4.58688346958456  5.9109 4.5471  L 6.3586 2.008  C 6.42312551142589 1.68302096319342  6.70828304896999 1.44891568230771  7.03960602732873 1.44891568230771  C 7.42305732913625 1.44891568230771  7.73390602732873 1.75976438050019  7.73390602732873 2.14321568230771  C 7.73390602732873 2.17863225681183  7.73119610855382 2.21399691782026  7.7258 2.249  L 7.2781 4.7881  C 7.2196197198643 5.11986032780714  6.93137513750862 5.36173918633081  6.5945 5.36173918633081  C 6.21113751312954 5.36173918633081  5.90036081366919 5.05096248687046  5.90036081366919 4.6676  Z M 11.6012060273287 5.34728431769233  C 11.26988304897 5.34728431769233  10.9847255114259 5.11317903680659  10.9202 4.7882  L 10.4725 2.2491  C 10.4654726102706 2.2092801336301  10.4619387485447 2.16892228484542  10.4619387485447 2.12848707785787  C 10.4619387485447 1.79162694097653  10.7038427224729 1.50341113444798  11.0356 1.445  C 11.0754198663699 1.43797261027062  11.1157777151546 1.43443874854469  11.1562129221421 1.43443874854469  C 11.4930730590235 1.43443874854469  11.781288865552 1.67634272247286  11.8397 2.0081  L 12.2874 4.5472  C 12.2927961085538 4.58220308217975  12.2955060273287 4.6175677431882  12.2955060273287 4.65298431769233  C 12.2955060273287 5.03643561949985  11.9846573291363 5.34728431769233  11.6012060273287 5.34728431769233  Z M 16.65485 3.71461672709084  C 16.4707455372776 3.71461672709084  16.2941815140377 3.64148151403774  16.164 3.5113  L 14.3409 1.6882  C 14.2107184859623 1.55801848596226  14.1375832729092 1.38145446272243  14.1375832729092 1.19735  C 14.1375832729092 0.813972302787779  14.4483723027878 0.503183272909165  14.83175 0.503183272909165  C 15.0158544627224 0.503183272909165  15.1924184859623 0.576318485962259  15.3226 0.7065  L 17.1457 2.5296  C 17.2758815140377 2.65978151403774  17.3490167270908 2.83634553727757  17.3490167270908 3.02045  C 17.3490167270908 3.40382769721222  17.0382276972122 3.71461672709084  16.65485 3.71461672709084  Z M 0.849383272909167 3.02045  C 0.849383272909167 2.83634553727756  0.92251848596226 2.65978151403774  1.0527 2.5296  L 2.8758 0.706499999999998  C 3.00598151403774 0.576318485962259  3.18254553727756 0.503183272909165  3.36665 0.503183272909165  C 3.75002769721222 0.503183272909165  4.06081672709083 0.813972302787779  4.06081672709083 1.19735  C 4.06081672709083 1.38145446272243  3.98768151403774 1.55801848596226  3.8575 1.6882  L 2.0344 3.5113  C 1.90421848596226 3.64148151403774  1.72765446272244 3.71461672709084  1.54355 3.71461672709084  C 1.16017230278778 3.71461672709084  0.849383272909167 3.40382769721222  0.849383272909167 3.02045  Z " fill-rule="nonzero" fill="#aaaaaa" stroke="none" transform="matrix(1 0 0 1 538 183 )" />
  </g>
</svg>