<?xml version="1.0" encoding="utf-8"?>
<svg version="1.1" xmlns:xlink="http://www.w3.org/1999/xlink" width="14px" height="14px" xmlns="http://www.w3.org/2000/svg">
  <g transform="matrix(1 0 0 1 -7 -13 )">
    <path d="M 13.3255208333333 7.45421006944444  C 13.7432725694444 7.45421006944444  13.9513888888889 6.94986979166667  13.658203125 6.65668402777778  L 7.33116319444444 0.331163194444444  C 7.14887152777778 0.148871527777778  6.85264756944444 0.148871527777778  6.67035590277778 0.331163194444444  L 0.344835069444444 6.65668402777778  C 0.0501302083333335 6.95138888888889  0.258246527777778 7.45421006944444  0.674479166666667 7.45421006944444  L 1.68923611111111 7.45421006944444  L 1.68923611111111 12.8272569444444  C 1.68923611111111 13.3634982638889  2.12521701388889 13.7994791666667  2.66145833333333 13.7994791666667  L 5.05555555555556 13.7994791666667  L 5.05555555555556 11.8580729166667  C 5.05555555555556 11.3218315972222  5.49153645833333 10.8858506944444  6.02777777777778 10.8858506944444  L 7.97222222222222 10.8858506944444  C 8.50846354166667 10.8858506944444  8.94444444444444 11.3218315972222  8.94444444444444 11.8580729166667  L 8.94444444444444 13.7994791666667  L 11.3233506944444 13.7994791666667  C 11.8595920138889 13.7994791666667  12.2955729166667 13.3634982638889  12.2955729166667 12.8272569444444  L 12.2955729166667 7.45421006944444  L 13.3255208333333 7.45421006944444  Z " fill-rule="nonzero" fill="#aaaaaa" stroke="none" transform="matrix(1 0 0 1 7 13 )" />
  </g>
</svg>