<?xml version="1.0" encoding="utf-8"?>
<svg version="1.1" xmlns:xlink="http://www.w3.org/1999/xlink" width="17px" height="17px" xmlns="http://www.w3.org/2000/svg">
  <g transform="matrix(1 0 0 1 -28 -109 )">
    <path d="M 0 8.5  C 0 3.80552083886719  3.80552083886719 0  8.5 0  C 13.1944791611328 0  17 3.80552083886719  17 8.5  C 17 13.1944791611328  13.1944791611328 17  8.5 17  C 3.80552083886719 17  0 13.1944791611328  0 8.5  Z M 15.9375 8.5  C 15.9375 4.392375  12.607625 1.0625  8.5 1.0625  C 4.392375 1.0625  1.0625 4.392375  1.0625 8.5  C 1.0625 12.607625  4.392375 15.9375  8.5 15.9375  C 12.607625 15.9375  15.9375 12.607625  15.9375 8.5  Z " fill-rule="nonzero" fill="#ffffff" stroke="none" transform="matrix(1 0 0 1 28 109 )" />
  </g>
</svg>