<?xml version="1.0" encoding="utf-8"?>
<svg version="1.1" xmlns:xlink="http://www.w3.org/1999/xlink" width="12px" height="7px" xmlns="http://www.w3.org/2000/svg">
  <g transform="matrix(1 0 0 1 -31 -114 )">
    <path d="M 0.895833338867187 3.14583333886719  L 4.79166666113281 3.14583333886719  C 5.08496513521973 3.14597862463128  5.32265350581657 3.38378476361938  5.32265350581657 3.67708327369003  C 5.32265350581657 3.95062869390581  5.11493556391569 4.17945829974445  4.84266666113281 4.20585416113281  L 4.79166666113281 4.20833333886719  L 0.895833338867187 4.20833333886719  C 0.602534798205955 4.20818814713129  0.364846323811032 3.97038198055838  0.364846323811032 3.67708340395997  C 0.364846323811032 3.40353791817786  0.572564362319084 3.1747082799889  0.844833338867187 3.1483125  L 0.895833338867187 3.14583333886719  Z M 0.895833338867187 5.625  L 4.08333333886719 5.625  C 4.37663187952843 5.62514519173589  4.61432035392335 5.86295135830881  4.61432035392335 6.15624993490722  C 4.61432035392335 6.42979542068933  4.4066023154153 6.65862505887829  4.13433333886719 6.68502083886719  L 4.08333333886719 6.6875  L 0.895833338867188 6.6875  C 0.60253479820595 6.68735480826411  0.364846323811023 6.44954864169119  0.364846323811023 6.15625006509278  C 0.364846323811023 5.88270457931067  0.572564362319081 5.65387494112171  0.844833338867188 5.62747916113281  L 0.895833338867187 5.625  Z M 8.19272916113281 2.28060416113281  L 7.5984375 3.48477083886719  L 6.2703125 3.67779166113281  L 6.2299375 3.6859375  C 6.07499278796842 3.72734760223035  5.96721501221171 3.86771248378973  5.96721501221171 4.02809533933632  C 5.96721501221171 4.12356423925325  6.00575727837944 4.21498989787732  6.07410416113281 4.28164583886719  L 7.03495833886719 5.21877083886719  L 6.80829166113281 6.54229166113281  L 6.8036875 6.58125  C 6.80327513466782 6.58821734426587  6.80306881684781 6.59519535583383  6.80306881684781 6.60217489244354  C 6.80306881684781 6.79777573828569  6.96163463213848 6.95634155357635  7.15723547798063 6.95634155357635  C 7.21471218514285 6.95634155357635  7.27132532838949 6.94235293664666  7.3221875 6.91558333886719  L 8.51041666113281 6.29083333886719  L 9.69864583886719 6.91558333886719  L 9.73441666113281 6.931875  C 9.77553537390728 6.94796182225854  9.81929960400822 6.95621805372683  9.86345313603689 6.95621805372683  C 10.059053981879 6.95621805372683  10.2176197971697 6.79765223843616  10.2176197971697 6.60205139259402  C 10.2176197971697 6.58202373181287  10.2159209956705 6.56203215997268  10.2125416611328 6.54229166113281  L 9.98552083886719 5.21877083886718  L 10.9470833388672 4.28164583886719  L 10.9747083388672 4.25154166113281  C 11.0259770878139 4.18841882878431  11.053961756083 4.1095756599583  11.053961756083 4.02825544978732  C 11.053961756083 3.85238526085725  10.9249064362924 3.70315664755727  10.750875 3.67779166113281  L 9.42204166113281 3.48477083886718  L 8.82810416113282 2.28060416113281  C 8.76847999134237 2.15961052040999  8.64530366094585 2.08298997108146  8.51041666113281 2.08298997108146  C 8.37552966131977 2.08298997108146  8.25235333092325 2.15961052040999  8.19272916113281 2.28060416113281  Z M 8.51041666113281 3.2375625  L 8.86954166113281 3.96502083886719  L 8.89079166113281 4.00291666113281  C 8.94653093011852 4.08759395957004  9.03588441166804 4.14432633082248  9.13622916113281 4.15875  L 9.93841666113281 4.27527083886719  L 9.35758333886719 4.8419375  L 9.32889583886719 4.8738125  C 9.26548111559348 4.95280203165529  9.23892361334883 5.05516443746986  9.2559375 5.15502083886719  L 9.393 5.954375  L 8.67510416113281 5.5771875  L 8.63579166113281 5.55947916113281  C 8.54091864478769 5.52350970384486  8.4351748768231 5.52995749671221  8.345375 5.5771875  L 7.62747916113281 5.954375  L 7.76489583886718 5.15502083886719  L 7.7695 5.11216666113281  C 7.77443601468549 5.01092345477915  7.73575566698752 4.91241750667087  7.66325 4.84158333886719  L 7.0820625 4.27527083886719  L 7.88460416113281 4.15875  C 7.99996500124359 4.14199768536906  8.09969507610145 4.06955100623365  8.15129166113281 3.96502083886719  L 8.51041666113281 3.23791666113281  Z M 0.895833338867187 0.489583338867188  L 10.2653125 0.489583338867188  C 10.5588041862348 0.489583331173549  10.7966529128872 0.72743205782594  10.7966529128872 1.02083333117355  C 10.7966529128872 1.29437852320559  10.588935307198 1.52320801645867  10.3166666611328 1.54960416113281  L 10.2653125 1.55208333886719  L 0.895833338867187 1.55208333886719  C 0.602534798205953 1.55193814713129  0.364846323811032 1.31413198055838  0.364846323811032 1.02083340395997  C 0.364846323811032 0.747287918177856  0.572564362319084 0.518458279988905  0.844833338867187 0.4920625  L 0.895833338867187 0.489583338867188  Z " fill-rule="nonzero" fill="#ffffff" stroke="none" transform="matrix(1 0 0 1 31 114 )" />
  </g>
</svg>