<?xml version="1.0" encoding="utf-8"?>
<svg version="1.1" xmlns:xlink="http://www.w3.org/1999/xlink" width="17px" height="17px" xmlns="http://www.w3.org/2000/svg">
  <g transform="matrix(1 0 0 1 -28 -154 )">
    <path d="M 17 1.7  C 17 0.761115925287651  16.2388840747123 0  15.3 0  L 1.7 0  C 0.761115925287651 0  0 0.761115925287651  0 1.7  L 0 15.3  C 0 16.2388840747123  0.761115925287651 17  1.7 17  L 15.3 17  C 16.2388840747123 17  17 16.2388840747123  17 15.3  L 17 1.7  Z M 14.45 9.35  L 10.03 12.665  C 9.95672979177651 12.7207363699318  9.86705798853787 12.7506269710113  9.775 12.75  C 9.64153965638724 12.7486946942311  9.51612045078281 12.6859850914288  9.435 12.58  C 9.37982559554275 12.5064341273903  9.35 12.4169573407621  9.35 12.325  C 9.35 12.1912281460835  9.41298251686676 12.0652631123499  9.52 11.985  L 11.9 10.2  L 4.675 10.2  C 4.44027898132191 10.2  4.25 10.0097210186781  4.25 9.775  C 4.25 9.54027898132191  4.44027898132191 9.35  4.675 9.35  L 14.45 9.35  Z M 14.025 7.65  L 2.55 7.65  L 6.97 4.335  C 7.04356587418775 4.27982559139246  7.13304266426053 4.24999999341856  7.22500000877525 4.24999999341856  C 7.45972102745334 4.24999999341856  7.65000000877525 4.44027897474047  7.65000000877525 4.67499999341856  C 7.65000000877525 4.80877185119522  7.58701748829289 4.93473688809608  7.48 5.015  L 5.1 6.8  L 14.025 6.8  C 14.2597210186781 6.8  14.45 6.99027898132191  14.45 7.225  C 14.45 7.45972101867809  14.2597210186781 7.65  14.025 7.65  Z " fill-rule="nonzero" fill="#ffffff" stroke="none" transform="matrix(1 0 0 1 28 154 )" />
  </g>
</svg>