<?xml version="1.0" encoding="utf-8"?>
<svg version="1.1" xmlns:xlink="http://www.w3.org/1999/xlink" width="15px" height="15px" xmlns="http://www.w3.org/2000/svg">
  <g transform="matrix(1 0 0 1 -29 -200 )">
    <path d="M 1.9716796875 0.215234375  C 2.07294921875 0.18701171875  2.1775390625 0.18037109375  2.28046875 0.1587890625  L 12.64150390625 0.1587890625  C 12.81083984375 0.1720703125  12.9818359375 0.19365234375  13.14453125 0.2484375  C 13.54130859375 0.374609375  13.88662109375 0.6435546875  14.11572265625 0.9888671875  C 14.27509765625 1.22626953125  14.3796875 1.49853515625  14.42451171875 1.78076171875  C 14.44111328125 1.8720703125  14.439453125 1.96669921875  14.4560546875 2.0580078125  L 14.4560546875 7.8685546875  C 14.4328125 7.925  14.4328125 7.984765625  14.4294921875 8.04453125  C 14.3564453125 9.12197265625  14.054296875 10.18447265625  13.5396484375 11.13408203125  C 13.07978515625 11.98740234375  12.4505859375 12.75107421875  11.69189453125 13.35703125  C 10.9365234375 13.96298828125  10.05166015625 14.40791015625  9.1103515625 14.64365234375  C 7.93330078125 14.93916015625  6.67490234375 14.904296875  5.51611328125 14.54072265625  C 4.78564453125 14.31162109375  4.093359375 13.9546875  3.48076171875 13.49482421875  C 2.751953125 12.951953125  2.134375 12.26298828125  1.6595703125 11.48935546875  C 1.0220703125 10.4484375  0.64521484375 9.24814453125  0.5671875 8.03125  C 0.56552734375 7.97646484375  0.560546875 7.9216796875  0.54560546875 7.87021484375  L 0.54560546875 2.04306640625  C 0.55224609375 1.9783203125  0.55888671875 1.915234375  0.5638671875 1.85048828125  C 0.6037109375 1.51015625  0.73486328125 1.1814453125  0.9390625 0.907519531249999  C 1.19140625 0.5671875  1.5599609375 0.31484375  1.9716796875 0.215234375  Z M 7.9283203125 2.167578125  C 7.20283203125 2.08125  6.45244140625 2.2173828125  5.806640625 2.559375  C 4.98486328125 2.98935546875  4.3390625 3.7447265625  4.04853515625 4.62626953125  C 3.92734375 4.9798828125  3.87255859375 5.3517578125  3.85927734375 5.7236328125  C 3.85927734375 5.84482421875  3.8908203125 5.9626953125  3.9240234375 6.07724609375  C 4.02197265625 6.38935546875  4.24443359375 6.65830078125  4.52998046875 6.81435546875  C 4.91513671875 7.03017578125  5.4115234375 7.02685546875  5.793359375 6.80439453125  C 6.05234375 6.656640625  6.25654296875 6.417578125  6.3611328125 6.138671875  C 6.4109375 5.9958984375  6.4474609375 5.84814453125  6.4474609375 5.6970703125  C 6.4607421875 5.461328125  6.56533203125 5.235546875  6.723046875 5.06123046875  C 6.882421875 4.88857421875  7.09990234375 4.77236328125  7.3306640625 4.7341796875  C 7.56142578125 4.69765625  7.80546875 4.7375  8.00966796875 4.85205078125  C 8.20390625 4.9599609375  8.36162109375 5.129296875  8.45625 5.33017578125  C 8.5591796875 5.54765625  8.582421875 5.80166015625  8.52431640625 6.03408203125  C 8.45791015625 6.3046875  8.276953125 6.54375  8.037890625 6.6865234375  C 7.8818359375 6.7794921875  7.7025390625 6.829296875  7.5232421875 6.83427734375  C 7.1447265625 6.8359375  6.7728515625 7.02021484375  6.537109375 7.3173828125  C 6.3611328125 7.53486328125  6.2615234375 7.812109375  6.2548828125 8.091015625  C 6.2515625 8.2603515625  6.2548828125 8.43134765625  6.25322265625 8.60068359375  C 6.2416015625 8.83642578125  6.2548828125 9.07216796875  6.25322265625 9.30625  C 6.25654296875 9.4423828125  6.2814453125 9.57685546875  6.32626953125 9.7046875  C 6.46240234375 10.10146484375  6.80771484375 10.4185546875  7.21611328125 10.521484375  C 7.4900390625 10.59287109375  7.7888671875 10.5712890625  8.04951171875 10.46005859375  C 8.3333984375 10.34052734375  8.57080078125 10.1130859375  8.70361328125 9.83583984375  C 8.80654296875 9.6283203125  8.84306640625 9.392578125  8.8314453125 9.16181640625  C 9.678125 8.8314453125  10.388671875 8.170703125  10.77880859375 7.3505859375  C 11.059375 6.76953125  11.17724609375 6.112109375  11.1224609375 5.46962890625  C 11.07763671875 4.92841796875  10.90830078125 4.39716796875  10.6310546875 3.9306640625  C 10.35712890625 3.46748046875  9.97861328125 3.06572265625  9.53203125 2.76357421875  C 9.05556640625 2.44150390625  8.50107421875 2.233984375  7.9283203125 2.167578125  Z M 8.13583984375 10.91826171875  C 7.9515625 10.79541015625  7.73076171875 10.733984375  7.51162109375 10.73564453125  C 7.27255859375 10.73896484375  7.03515625 10.8203125  6.84755859375 10.96806640625  C 6.6466796875 11.12412109375  6.5005859375 11.3515625  6.44580078125 11.6005859375  C 6.39267578125 11.83134765625  6.417578125 12.08037109375  6.5138671875 12.29619140625  C 6.6001953125 12.49208984375  6.7462890625 12.66142578125  6.92724609375 12.77763671875  C 7.1546875 12.925390625  7.43857421875 12.98349609375  7.705859375 12.94033203125  C 8.07939453125 12.8822265625  8.4130859375 12.61826171875  8.55419921875 12.26630859375  C 8.65546875 12.0189453125  8.66376953125 11.73505859375  8.57578125 11.48271484375  C 8.49775390625 11.251953125  8.3400390625 11.0494140625  8.13583984375 10.91826171875  Z M 6.67158203125001 3.0375  C 6.8990234375 2.96943359375  7.13642578125 2.92958984375  7.37548828125 2.91796875  C 7.8984375 2.89638671875  8.4263671875 3.017578125  8.88291015625 3.2732421875  C 9.32783203125 3.52060546875  9.7046875 3.8875  9.963671875 4.32412109375  C 10.2724609375 4.84208984375  10.40693359375 5.461328125  10.3455078125 6.0623046875  C 10.295703125 6.5802734375  10.09814453125 7.08330078125  9.784375 7.49833984375  C 9.43076171875 7.96650390625  8.93271484375 8.3267578125  8.37158203125 8.502734375  C 8.22880859375 8.529296875  8.104296875 8.6388671875  8.0677734375 8.77998046875  C 8.04287109375 8.8580078125  8.05615234375 8.941015625  8.0544921875 9.020703125  C 8.05283203125 9.13359375  8.0677734375 9.24814453125  8.04951171875 9.36103515625  C 8.0212890625 9.53369140625  7.89677734375 9.68642578125  7.7357421875 9.751171875  C 7.55810546875 9.82587890625  7.340625 9.7876953125  7.19951171875 9.65654296875  C 7.08994140625 9.55859375  7.0251953125 9.4125  7.02685546875 9.26474609375  C 7.03017578125 9.0970703125  7.01689453125 8.92939453125  7.028515625 8.76337890625  C 7.02685546875 8.55087890625  7.02685546875 8.33837890625  7.02685546875 8.12587890625  C 7.02685546875 7.97314453125  7.0982421875 7.8220703125  7.2177734375 7.72578125  C 7.30244140625 7.6560546875  7.4103515625 7.612890625  7.52158203125 7.6095703125  C 7.99306640625 7.6029296875  8.46123046875 7.4103515625  8.79326171875 7.075  C 9.1634765625 6.7130859375  9.3626953125 6.18515625  9.32783203125 5.66884765625  C 9.30126953125 5.16083984375  9.04726562500001 4.66943359375  8.64882812500001 4.35234375  C 8.22216796875 4.00205078125  7.63115234375 3.86923828125  7.09326171875001 3.99208984375  C 6.58193359375001 4.10498046875  6.13037109375 4.451953125  5.88466796875001 4.9134765625  C 5.74521484375 5.169140625  5.67714843750001 5.461328125  5.6638671875 5.7501953125  C 5.640625 5.97763671875  5.44306640625 6.171875  5.215625 6.1951171875  C 4.98154296875 6.2283203125  4.7408203125 6.0755859375  4.6677734375 5.85146484375  C 4.63623046875 5.77177734375  4.64287109375 5.6837890625  4.64453125 5.60078125  C 4.66943359375 5.1890625  4.78564453125 4.78232421875  4.98154296875 4.41875  C 5.33515625000001 3.761328125  5.9560546875 3.25166015625  6.67158203125001 3.0375  Z M 7.19453125 11.80478515625  C 7.2111328125 11.65703125  7.3373046875 11.52919921875  7.48505859375 11.51259765625  C 7.57470703125 11.5009765625  7.66767578125 11.5275390625  7.73740234375 11.58564453125  C 7.83203125 11.66201171875  7.8818359375 11.7931640625  7.8552734375 11.9126953125  C 7.8353515625 12.0123046875  7.765625 12.101953125  7.67431640625 12.14677734375  C 7.57470703125 12.19658203125  7.4501953125 12.1916015625  7.35556640625 12.1318359375  C 7.2443359375 12.06708984375  7.1779296875 11.9326171875  7.19453125 11.80478515625  Z " fill-rule="nonzero" fill="#ffffff" stroke="none" transform="matrix(1 0 0 1 29 200 )" />
  </g>
</svg>