<?xml version="1.0" encoding="utf-8"?>
<svg version="1.1" xmlns:xlink="http://www.w3.org/1999/xlink" width="17px" height="15px" xmlns="http://www.w3.org/2000/svg">
  <g transform="matrix(1 0 0 1 -29 -65 )">
    <path d="M 16.8385000059766 11.4375000062779  C 16.9532500059766 10.9955357142857  16.9532500059766 10.4330357268415  16.8385000059766 10.03125  C 16.762 9.79017857142857  16.5707500119531 9.58928570800781  16.303 9.50892857770647  C 15.8057500059766 9.38839286342076  15.6145 9.06696428571428  15.7674999940234 8.54464286342076  C 15.844 8.30357143484933  15.8057499880469 8.02232144112723  15.6145 7.82142857770647  C 15.3084999940234 7.5  14.8877500059766 7.2187500062779  14.467 7.13839285714286  C 14.2375 7.05803570800781  13.9697500059766 7.17857142229352  13.7785 7.33928572056362  C 13.43425 7.74107142857143  13.0517500059766 7.74107142857143  12.7075000059766 7.33928572056362  C 12.5545000119531 7.13839285714286  12.28675 7.05803572684152  12.0190000059766 7.13839285714286  C 11.59825 7.25892857142857  11.1775000119531 7.5  10.8715000059766 7.82142857770647  C 10.68025 8.02232144112723  10.6420000059766 8.30357143484933  10.7184999940234 8.54464286342076  C 10.8714999880469 9.06696428571428  10.7184999940234 9.38839286342076  10.1830000059766 9.50892857770647  C 9.95350000597657 9.54910714285714  9.72400000597657 9.7500000062779  9.6475 10.03125  C 9.53275 10.4732142919922  9.53275 10.9955357142857  9.6475 11.4375000062779  C 9.72400000597657 11.6785714348493  9.91524999402344 11.8794642982701  10.1830000059766 11.9598214285714  C 10.68025 12.0803571428571  10.8715000059766 12.4017857205636  10.7184999940234 12.9241071428571  C 10.6419999880469 13.1651785714286  10.68025 13.4464285651507  10.8715000059766 13.6473214285714  C 11.1775000119531 13.9687500062779  11.59825 14.25  12.0190000059766 14.330357149135  C 12.2485000059766 14.4107142982701  12.51625 14.2901785839844  12.7075000059766 14.1294642857143  C 13.0517500059766 13.7276785777065  13.43425 13.7276785777065  13.7785 14.1294642857143  C 13.9314999940234 14.330357149135  14.1992500059766 14.4107142794364  14.467 14.330357149135  C 14.8877500059766 14.2098214348493  15.3084999940234 13.9687500062779  15.6145 13.6473214285714  C 15.8057500059766 13.4464285651507  15.844 13.1651785714286  15.7674999940234 12.9241071428571  C 15.6145 12.4017857205636  15.7674999940234 12.0803571428571  16.303 11.9598214285714  C 16.5707499940234 11.9196428634208  16.762 11.71875  16.8385000059766 11.4375000062779  Z M 14.8494999940234 10.7142857205636  C 14.8494999940234 11.6383928696987  14.1609999940234 12.4017857205636  13.2812500059766 12.4017857205636  C 12.4015 12.4017857205636  11.713 11.6383928696987  11.713 10.7142857205636  C 11.713 9.79017857142857  12.4397499940234 9.02678572056362  13.2812500059766 9.02678572056362  C 14.1227500179297 9.02678572056362  14.8495000119531 9.79017857142857  14.8494999940234 10.7142857205636  Z M 10.1065 7.01785714285714  C 10.5655 6.49553572056362  11.1774999940234 6.0937499937221  11.7895000059766 5.93303571428572  C 11.9425 5.89285714913505  12.0955000119531 5.89285714913505  12.2485000059766 5.89285714913505  C 12.5545000119531 5.89285714913505  12.8222500059766 5.97321429827009  13.09 6.13392857770647  L 13.09 1.47321428571429  C 13.09 1.0312499937221  12.74575 0.669642850864955  12.3249999940234 0.669642850864955  L 0.849999994023437 0.669642850864955  C 0.429249988046875 0.669642850864955  0.084999988046875 1.0312499937221  0 1.47321428571429  L 0 13.6874999937221  C 0.0850000059765624 14.25  0.735250011953125 14.5312499937221  1.11775000597656 14.169642850865  L 3.60399999402344 11.9196428634208  L 8.7295 11.9196428634208  C 8.69125000597656 11.8794642982701  8.69125000597656 11.799107149135  8.65299999402344 11.7589285651507  C 8.46174998804687 11.1160714285714  8.46174998804687 10.3526785588728  8.65299999402344 9.70982142229353  C 8.80599998804687 9.1875  9.15024998804688 8.74553570800781  9.60925000597656 8.50446427943638  C 9.57100001195312 7.94196427315848  9.76225 7.41964285086496  10.1065 7.01785714285714  Z M 6.97000000597656 10.5133928571429  C 6.97000000597656 10.8348214348493  6.70225001195313 11.1160714285714  6.39625000597656 11.1160714285714  C 6.09025 11.1160714285714  5.82250000597656 10.8348214348493  5.82250000597656 10.5133928571429  C 5.82250000597656 10.1919642794364  6.09025 9.91071428571428  6.39625000597656 9.91071428571428  C 6.70225001195313 9.91071428571428  6.97000000597656 10.1919642794364  6.97000000597656 10.5133928571429  Z M 9.26500000597656 5.04910714913505  C 9.26500000597656 6.49553572056362  8.2705 7.66071429827009  6.97000000597656 7.86160714285714  L 6.97000000597656 8.50446427943638  C 6.97000000597656 8.82589285714286  6.70225001195313 9.10714285086496  6.39625000597656 9.10714285086496  C 6.09025 9.10714285086496  5.82250000597656 8.82589285714286  5.82250000597656 8.50446427943638  L 5.82250000597656 7.29910713657924  C 5.82250000597656 6.97767855887277  6.09025 6.69642856515067  6.39625000597656 6.69642856515067  L 6.58749999402344 6.69642856515067  C 7.54374998804688 6.69642856515067  8.30874999402344 5.77232141601563  8.07924999402344 4.72767857142857  C 7.96449999402344 4.16517856515067  7.50549999402344 3.68303570800781  6.97000000597656 3.5624999937221  C 6.12850001195312 3.36160713030134  5.36350000597656 3.88392857142857  5.13400000597656 4.6875000062779  C 5.0575 4.92857143484933  4.828 5.08928571428572  4.56025000597656 5.08928571428572  C 4.17775001195313 5.08928571428572  3.91 4.72767857142857  3.98650000597656 4.32589286342076  C 4.29250001195313 3.12053572056362  5.36350000597656 2.23660715541295  6.62575000597656 2.27678572056362  C 8.041 2.31696428571429  9.22675001195312 3.5625000125558  9.26500000597656 5.04910714913505  Z " fill-rule="nonzero" fill="#ffffff" stroke="none" transform="matrix(1 0 0 1 29 65 )" />
  </g>
</svg>