<?xml version="1.0" encoding="utf-8"?>
<svg version="1.1" xmlns:xlink="http://www.w3.org/1999/xlink" width="17px" height="17px" xmlns="http://www.w3.org/2000/svg">
  <g transform="matrix(1 0 0 1 -28 -289 )">
    <path d="M 11.2232862453532 8.7169814126394  C 12.6969516728625 9.22327137546468  14.3333531598513 8.85259479553903  15.4453828996283 7.7586468401487  C 16.6116579925651 6.57428996282528  16.9642527881041 4.81131598513011  16.3313903345725 3.27436431226766  L 14.1615762081784 5.44417843866171  C 13.5287137546468 6.04087732342007  12.5432565055762 6.00471375464684  11.9465576208178 5.37185130111524  C 11.3769814126394 4.76611152416357  11.3769814126394 3.83489962825279  11.9465576208178 3.22915985130112  L 14.1163717472119 1.05934572490706  C 12.5794200743494 0.435524163568773  10.8164460966543 0.779078066914498  9.62304832713755 1.93631226765799  C 8.44773234200743 3.1116282527881  8.10417843866171 4.88364312267658  8.74608178438662 6.41155390334572  L 7.2452936802974 7.91234200743494  L 3.44811895910781 4.11516728624535  L 3.71030483271376 3.57271375464684  L 1.65802230483271 2.17137546468401  L 0.365174721189591 3.47326394052045  L 1.72130855018587 5.49842379182156  L 2.33608921933086 5.19103345724907  L 6.16038661710037 8.98820817843866  L 1.72130855018587 13.4272862453532  C 1.44104089219331 13.7075539033457  1.432 14.1595985130112  1.71226765799257 14.4398661710037  L 1.72130855018587 14.448907063197  L 3.07744237918216 15.8140817843866  C 3.35771003717472 16.0943494423792  3.81879553903346 16.0943494423792  4.09906319702602 15.8140817843866  L 8.53814126394052 11.3840446096654  L 9.17100371747212 12.016907063197  L 8.99922676579926 12.1886840148699  C 8.75512267657993 12.3604609665427  8.69183643122677 12.6949739776952  8.86361338289963 12.9481189591078  C 8.88169516728625 12.9752416356877  8.89977695167287 13.0023643122677  8.92689962825279 13.0204460966543  L 11.9375167286245 16.0220223048327  C 12.1906617100372 16.2842081784387  12.6065427509294 16.3113308550186  12.8958513011152 16.0762676579926  L 14.2971895910781 14.6749293680297  C 14.5503345724907 14.3856208178439  14.5503345724907 13.9606988847584  14.2971895910781 13.6804312267658  L 11.2865724907063 10.6788550185874  C 11.042468401487 10.4257100371747  10.6717918215613 10.5342007434944  10.4096059479554 10.7963866171004  L 10.2830334572491 10.9229591078067  L 9.65017100371748 10.2991375464684  L 11.2232862453532 8.7169814126394  Z " fill-rule="nonzero" fill="#ffffff" stroke="none" transform="matrix(1 0 0 1 28 289 )" />
  </g>
</svg>