<?xml version="1.0" encoding="utf-8"?>
<svg version="1.1" xmlns:xlink="http://www.w3.org/1999/xlink" width="17px" height="17px" xmlns="http://www.w3.org/2000/svg">
  <g transform="matrix(1 0 0 1 -28 -64 )">
    <path d="M 16.1809895833333 9.05154079861111  C 16.6882595486111 9.05154079861111  16.9409722222222 8.43912760416667  16.5849609375 8.08311631944444  L 8.90212673611111 0.402126736111111  C 8.68077256944444 0.180772569444444  8.32107204861111 0.180772569444444  8.09971788194444 0.402126736111111  L 0.418728298611111 8.08311631944444  C 0.0608723958333335 8.44097222222222  0.313585069444444 9.05154079861111  0.819010416666667 9.05154079861111  L 2.05121527777778 9.05154079861111  L 2.05121527777778 15.5759548611111  C 2.05121527777778 16.2271050347222  2.58062065972222 16.7565104166667  3.23177083333333 16.7565104166667  L 6.13888888888889 16.7565104166667  L 6.13888888888889 14.3990885416667  C 6.13888888888889 13.7479383680556  6.66829427083333 13.2185329861111  7.31944444444444 13.2185329861111  L 9.68055555555556 13.2185329861111  C 10.3317057291667 13.2185329861111  10.8611111111111 13.7479383680556  10.8611111111111 14.3990885416667  L 10.8611111111111 16.7565104166667  L 13.7497829861111 16.7565104166667  C 14.4009331597222 16.7565104166667  14.9303385416667 16.2271050347222  14.9303385416667 15.5759548611111  L 14.9303385416667 9.05154079861111  L 16.1809895833333 9.05154079861111  Z " fill-rule="nonzero" fill="#ffffff" stroke="none" transform="matrix(1 0 0 1 28 64 )" />
  </g>
</svg>