<?xml version="1.0" encoding="utf-8"?>
<svg version="1.1" xmlns:xlink="http://www.w3.org/1999/xlink" width="17px" height="17px" xmlns="http://www.w3.org/2000/svg">
  <g transform="matrix(1 0 0 1 -28 -64 )">
    <path d="M 16.6795 15.4243125  C 16.8564375 15.60125  16.8564375 15.8874375  16.6806875 16.064375  L 16.040625 16.70325  C 15.8636875 16.8801875  15.5775 16.8801875  15.40175 16.70325  L 11.827375 13.128875  C 10.606625 14.0681875  9.081875 14.6334375  7.4229375 14.6334375  C 3.4258125 14.6334375  0.1875 11.3939375  0.1875 7.3991875  C 0.1875 3.40325  3.4258125 0.16375  7.42175 0.16375  C 11.4176875 0.16375  14.656 3.40325  14.656 7.398  C 14.656 9.081875  14.0753125 10.6268125  13.1110625 11.855875  L 16.6795 15.4243125  Z M 12.8474375 7.398  C 12.8474375 4.4019375  10.419 1.9723125  7.42175 1.9723125  C 4.4245 1.9723125  1.9960625 4.4019375  1.9960625 7.398  C 1.9960625 10.3940625  4.4256875 12.8236875  7.42175 12.8236875  C 10.4178125 12.8236875  12.8474375 10.3940625  12.8474375 7.398  Z M 10.1351875 7.851625  C 10.1351875 8.101  9.932125 8.302875  9.68275 8.302875  L 8.326625 8.302875  L 8.326625 9.659  C 8.326625 9.908375  8.1235625 10.1114375  7.8741875 10.1114375  L 6.9693125 10.1114375  C 6.7199375 10.1114375  6.516875 9.908375  6.516875 9.659  L 6.516875 8.302875  L 5.16075 8.302875  C 4.911375 8.302875  4.7083125 8.101  4.7083125 7.8504375  L 4.7083125 6.94675  C 4.7083125 6.697375  4.9101875 6.4943125  5.16075 6.4943125  L 6.516875 6.4943125  L 6.516875 5.1381875  C 6.516875 4.8888125  6.71875 4.68575  6.9693125 4.68575  L 7.8741875 4.68575  C 8.1235625 4.68575  8.326625 4.887625  8.326625 5.1381875  L 8.326625 6.4943125  L 9.68275 6.4943125  C 9.932125 6.4943125  10.1351875 6.697375  10.1351875 6.94675  L 10.1351875 7.851625  Z " fill-rule="nonzero" fill="#ffffff" stroke="none" transform="matrix(1 0 0 1 28 64 )" />
  </g>
</svg>