<?xml version="1.0" encoding="utf-8"?>
<svg version="1.1" xmlns:xlink="http://www.w3.org/1999/xlink" width="9px" height="9px" xmlns="http://www.w3.org/2000/svg">
  <g transform="matrix(1 0 0 1 -36 -117 )">
    <path d="M 7.736645 8.425145  L 1.27775 8.425145  C 1.02904 8.425145  0.827164999999999 8.224375  0.827164999999999 7.976855  L 0.827164999999999 7.262855  C 0.827164999999999 5.8125  1.677165 4.51948  3.006395 3.92771  C 2.53252 3.50271  2.262645 2.908815  2.262645 2.27225  C 2.262645 1.041875  3.268875 0.0410000000000004  4.506645 0.0410000000000004  C 5.743395 0.0410000000000004  6.751665 1.041875  6.751665 2.27225  C 6.751665 2.90873  6.480685 3.50373  6.00681 3.92771  C 7.33604 4.51948  8.18604 5.81148  8.18604 7.262855  L 8.18604 7.976855  C 8.18604 8.22327  7.98527 8.425145  7.736645 8.425145  Z M 1.728335 7.5295  L 7.28725 7.5295  L 7.28725 7.263875  C 7.28725 5.742375  6.039875 4.503415  4.507835 4.503415  C 2.97673 4.503415  1.728335 5.74229  1.728335 7.263875  L 1.728335 7.5295  Z M 5.851855 2.27327  C 5.851855 1.537  5.249375 0.938854999999998  4.505625 0.938854999999998  C 3.766125 0.938854999999998  3.1605 1.537  3.1605 2.27327  C 3.1605 3.00852  3.76502 3.608875  4.505625 3.608875  C 5.24827 3.608875  5.851855 3.009625  5.851855 2.27327  Z " fill-rule="nonzero" fill="#ffffff" stroke="none" transform="matrix(1 0 0 1 36 117 )" />
  </g>
</svg>