<?xml version="1.0" encoding="utf-8"?>
<svg version="1.1" xmlns:xlink="http://www.w3.org/1999/xlink" width="17px" height="15px" xmlns="http://www.w3.org/2000/svg">
  <g transform="matrix(1 0 0 1 -28 -110 )">
    <path d="M 16.854395 1.697645  C 16.853375 0.901875  16.20627 0.254855  15.4105 0.254855  L 1.59052 0.254855  C 0.79475 0.254855  0.147645 0.901875  0.147645 1.696625  L 0.147645 12.943145  C 0.147645 13.73798  0.79475 14.382875  1.59052 14.382875  L 7.703125 14.382875  C 7.996375 14.382875  8.234375 14.14598  8.234375 13.851625  C 8.234375 13.559395  7.996375 13.320375  7.703125 13.320375  L 1.59052 13.320375  C 1.380145 13.320375  1.210145 13.1525  1.210145 12.943145  L 1.210145 4.13927  L 15.791895 4.13927  L 15.791895 10.72354  C 15.7918948297275 11.0171317226014  16.0295532773986 11.2547901702725  16.3227198297275 11.2547901702725  C 16.616395 11.25479  16.854395 11.017895  16.854395 10.72354  L 16.854395 1.697645  Z M 15.792065 3.17673  L 1.209125 3.17673  L 1.209125 1.69773  C 1.209125 1.48846  1.380145 1.31846  1.5895 1.31846  L 5.09252 1.31846  C 5.09252 1.32271  5.090395 1.325855  5.090395 1.33019  L 5.090395 2.038835  C 5.09039496892707 2.29593065811797  5.29867434188203 2.50421003107293  5.55559996892707 2.50421003107293  C 5.812895 2.50421  6.021145 2.293835  6.021145 2.03671  L 6.021145 1.329  C 6.021145 1.32475  6.01902 1.321605  6.01902 1.317355  L 11.037165 1.317355  C 11.037165 1.321605  11.035125 1.32475  11.035125 1.329  L 11.035125 2.037645  C 11.0351249689271 2.29474065811797  11.243404341882 2.50302003107293  11.5003299689271 2.50302003107293  C 11.7576425790184 2.50302003105874  11.9659600077697 2.29470260230751  11.9659600077697 2.03773003105874  L 11.96596 1.329  C 11.96596 1.32475  11.963835 1.321605  11.963835 1.317355  L 15.41169 1.317355  C 15.621045 1.317355  15.792065 1.487355  15.792065 1.696625  L 15.792065 3.17673  Z " fill-rule="nonzero" fill="#ffffff" stroke="none" transform="matrix(1 0 0 1 28 110 )" />
  </g>
</svg>