<?xml version="1.0" encoding="utf-8"?>
<svg version="1.1" xmlns:xlink="http://www.w3.org/1999/xlink" width="15px" height="11px" xmlns="http://www.w3.org/2000/svg">
  <g transform="matrix(1 0 0 1 -30 -115 )">
    <path d="M 13.266 9.55823  L 7.7087 9.55823  C 7.7087 8.32063  8.95293 7.317375  10.487265 7.317375  C 12.021855 7.317375  13.266 8.320715  13.266 9.55823  Z M 0.578135 6.218325  L 0.578135 5.515715  L 0.94117 5.515715  L 0.94117 3.64206  L 0.675715 3.64206  L 0.675715 2.939365  L 0.94117 2.939365  L 0.94117 1.514595  L 0.630155 1.514595  L 0.630155 0.81853  L 1.94825 0.81853  L 1.94825 1.514595  L 1.637235 1.514595  L 1.637235 2.939365  L 1.896145 2.939365  L 1.896145 3.64206  L 1.637235 3.64206  L 1.637235 5.515715  L 2.00027 5.515715  L 2.00027 6.218325  L 0.578135 6.218325  Z M 3.09456 3.84589  L 2.65341 4.55054  L 2.653665 2.103305  L 3.09456 1.566615  L 3.09456 3.84589  Z M 3.043305 6.30205  L 3.18942 5.94505  L 3.583735 5.16424  L 3.583735 0.62983  L 4.116345 0.62983  L 4.116345 5.476615  L 3.043305 6.30205  Z M 4.795495 6.218325  L 4.795495 5.515715  L 5.15853 5.515715  L 5.15853 3.64206  L 4.89962 3.64206  L 4.89962 2.939365  L 5.15853 2.939365  L 5.15853 1.514595  L 4.8476 1.514595  L 4.8476 0.81853  L 6.165695 0.81853  L 6.165695 1.514595  L 5.86114 1.514595  L 5.86114 2.939365  L 6.12005 2.939365  L 6.12005 3.64206  L 5.86114 3.64206  L 5.86114 5.515715  L 6.217715 5.515715  L 6.217715 6.218325  L 4.795495 6.218325  Z " fill-rule="nonzero" fill="#ffffff" stroke="none" transform="matrix(1 0 0 1 30 115 )" />
  </g>
</svg>