<?xml version="1.0" encoding="utf-8"?>
<svg version="1.1" xmlns:xlink="http://www.w3.org/1999/xlink" width="7px" height="11px" xmlns="http://www.w3.org/2000/svg">
  <g transform="matrix(1 0 0 1 -146 -134 )">
    <path d="M 0.255963474315069 9.82666666308594  L 0.256986301369863 9.82666666308594  C 0.124670425363861 9.95392674756299  0.05109885690286 10.1214057523703  0.05109885690286 10.2953507624323  C 0.05109885690286 10.675046527941  0.39455165155321 10.9828507624323  0.818222144574093 10.9828507624323  C 1.01231271327127 10.9828507624323  1.19918841217873 10.9169155306294  1.34118721061644 10.7983333369141  L 6.71105022431507 5.98583333691406  C 7.01018062545707 5.71741725154865  7.01018062545707 5.28258274845135  6.71105022431507 5.01416666308594  L 1.34118721061644 0.201666663085938  C 1.19918841217873 0.0830844693705844  1.01231271327127 0.0171492375676628  0.818222144574098 0.0171492375676628  C 0.394551651553215 0.0171492375676628  0.0510988569028648 0.324953472058992  0.0510988569028648 0.704649237567663  C 0.0510988569028648 0.878594247629736  0.124670425363864 1.04607325243701  0.256986301369863 1.17333333691406  L 5.08372602739726 5.5  L 0.255963474315069 9.82666666308594  Z " fill-rule="nonzero" fill="#aaaaaa" stroke="none" transform="matrix(1 0 0 1 146 134 )" />
  </g>
</svg>