<?xml version="1.0" encoding="utf-8"?>
<svg version="1.1" xmlns:xlink="http://www.w3.org/1999/xlink" width="20px" height="5px" xmlns="http://www.w3.org/2000/svg">
  <g transform="matrix(1 0 0 1 -337 -62 )">
    <path d="M 5.03875968023256 2.50000005108709  C 5.03875968023256 3.83887216665904  3.92814821128293 4.92424246585981  2.55813953488372 4.92424246585981  C 1.18813085848451 4.92424246585981  0.0775193895348826 3.83887216665904  0.0775193895348826 2.50000005108709  C 0.0775194184056567 1.16112790437879  1.18813087889923 0.0757576363143593  2.55813953488372 0.0757576363143593  C 3.92814821128293 0.0757576363143593  5.03875968023256 1.16112793551513  5.03875968023256 2.50000005108709  Z M 12.4806201453488 2.50000007224805  C 12.4806201453488 3.83887218782001  11.3700086763992 4.92424248702078  10 4.92424248702078  C 8.62999132360079 4.92424248702078  7.51937985465116 3.83887218782001  7.51937985465116 2.50000007224805  C 7.5193798954806 1.16112791264266  8.62999135247156 0.0757576574753264  10 0.0757576574753264  C 11.3700086763992 0.0757576574753264  12.4806201453488 1.1611279566761  12.4806201453488 2.50000007224805  Z M 17.4418605390445 4.92424241477273  C 18.8118692154437 4.92424241477273  19.9224806843934 3.83887211557195  19.9224806843934 2.5  C 19.9224806843934 1.16112788442805  18.8118692154437 0.0757575852272732  17.4418605390445 0.0757575852272732  C 16.0718518626453 0.0757575852272732  14.9612403936957 1.16112788442805  14.9612403936957 2.5  C 14.9612403936957 3.83887211557195  16.0718518626453 4.92424241477273  17.4418605390445 4.92424241477273  Z " fill-rule="nonzero" fill="#14101c" stroke="none" transform="matrix(1 0 0 1 337 62 )" />
  </g>
</svg>