<?xml version="1.0" encoding="utf-8"?>
<svg version="1.1" xmlns:xlink="http://www.w3.org/1999/xlink" width="17px" height="18px" xmlns="http://www.w3.org/2000/svg">
  <g>
    <path d="M 16.89885 9.97875  C 16.89885 14.3971875  13.1386625 17.9783653846154  8.499575 17.9783653846154  C 3.862825 17.9783653846154  0.101362500000001 14.3982692307692  0.101362500000001 9.97875  C 0.101362500000001 5.5603125  3.86155 1.97913461538462  8.499575 1.97913461538462  C 13.1376 1.97913461538462  16.89885 5.5603125  16.89885 9.97875  Z M 8.8791 10.3580048076923  L 8.8791 5.57935096153846  C 8.8791 5.35153846153846  8.6850875 5.16764423076923  8.4456 5.16764423076923  C 8.207175 5.16764423076923  8.014225 5.35153846153846  8.014225 5.57935096153846  L 8.014225 10.1875240384615  L 6.0199125 12.0887740384615  C 5.850975 12.2501682692308  5.850975 12.5084855769231  6.0199125 12.6700961538462  C 6.100025 12.7475480769231  6.2103125 12.79125  6.3254875 12.79125  C 6.44045 12.79125  6.5507375 12.7475480769231  6.63085 12.6700961538462  L 8.7533 10.6487740384615  C 8.8334125 10.5713221153846  8.8791 10.4670432692308  8.8791 10.3580048076923  Z M 8.4456 1.17887019230769  C 7.08475 1.17887019230769  5.8533125 1.49408653846154  4.557275 2.041875  L 4.557275 0.779278846153846  C 4.557275 0.779278846153846  4.7215375 0.0216346153846154  5.5600625 0.0216346153846154  L 11.44015 0.0216346153846154  C 12.2810125 0.0216346153846154  12.333925 0.779278846153846  12.333925 0.779278846153846  L 12.333925 2.04295673076923  C 11.037675 1.49408653846154  9.80645 1.17887019230769  8.4456 1.17887019230769  Z " fill-rule="nonzero" fill="#006eff" stroke="none" />
  </g>
</svg>