<?xml version="1.0" encoding="utf-8"?>
<svg version="1.1" xmlns:xlink="http://www.w3.org/1999/xlink" width="44px" height="36px" xmlns="http://www.w3.org/2000/svg">
  <g transform="matrix(1 0 0 1 -259 -412 )">
    <path d="M 1 32.0625  L 1 3.9375  C 0.125 2.21161015677877  1.52411015677877 0.8125  3.25 1  L 40.75 1  C 42.4758898432212 0.8125  43.875 2.21161015677877  43 3.9375  L 43 32.0625  C 43.875 33.7883898432212  42.4758898432212 35.1875  40.75 35  L 3.25 35  C 1.52411015677877 35.1875  0.125 33.7883898432212  1 32.0625  Z M 40 4  L 4 4  L 4 20.428125  L 9.90625 13.771875  C 10.1993883219068 13.4779946853511  10.597414809818 13.3128319259831  11.0125 13.3128319259831  C 11.427585190182 13.3128319259831  11.8256116780932 13.4779946853511  12.11875 13.771875  L 22.396875 24.05  L 25.778125 20.66875  C 26.3882810179466 20.0587782213549  27.3773439820534 20.0587782213549  27.9875 20.66875  L 39.384375 32.0625  L 40 32.0625  L 40 4  Z " fill-rule="nonzero" fill="#555555" stroke="none" transform="matrix(1 0 0 1 259 412 )" />
  </g>
</svg>