<?xml version="1.0" encoding="utf-8"?>
<svg version="1.1" xmlns:xlink="http://www.w3.org/1999/xlink" width="18px" height="14px" xmlns="http://www.w3.org/2000/svg">
  <g>
    <path d="M 17.4753509433962 4.16528  L 15.7977781132075 4.16528  C 15.7212679245283 4.16656  15.6456271698113 4.18661333333333  15.5791154716981 4.22288  L 14.8231426415094 1.99184  C 14.5818747169811 0.72336  13.6694037735849 0.11024  12.5491381132075 0.11024  L 5.44455849056604 0.11024  C 4.15779622641509 0.11024  3.37704452830189 0.932  3.17011924528302 1.99056  L 2.41197283018868 4.22885333333333  C 2.34168803046936 4.18777033708778  2.2616309283984 4.16555168721006  2.17983396226415 4.16442666666667  L 0.502695849056604 4.16442666666667  C 0.24438169695182 4.16442587101869  0.0356145765705704 4.36913641737387  0.0353750943396227 4.62181333333333  L 0.0353750943396227 5.01861333333333  C 0.0353750943396227 5.27077333333333  0.244473962264151 5.47642666666667  0.502695849056604 5.47642666666667  L 1.13738264150943 5.58309333333333  C 0.924241938925597 5.99648960034499  0.81639482496192 6.45444067716878  0.823082264150943 6.91770666666666  L 0.587900377358491 9.55024  C 0.587900377358491 9.62618666666666  0.593551698113208 9.70384  0.603115471698114 9.78234666666667  C 0.593715159906161 9.83160765002376  0.588624910527422 9.88156750503731  0.587900377358491 9.93168  L 0.587900377358491 13.0988266666667  C 0.587900377358491 13.5498133333333  0.960887547169812 13.9146133333333  1.42125283018868 13.9146133333333  L 2.6928 13.9146133333333  C 2.69337977263431 13.9146145228535  2.69395954637567 13.914615117614  2.69453932027673 13.914615117614  C 3.15372811991461 13.914615117614  3.52610835198789 13.5495117249949  3.52658716981132 13.0988266666667  L 3.52658716981132 12  L 14.4666747169811 12  L 14.4666747169811 13.0988266666667  C 14.4666747169811 13.5498133333333  14.8396618867925 13.9146133333333  15.3000271698113 13.9146133333333  L 16.5724437735849 13.9146133333333  C 16.5728786412915 13.914614002555  16.5733135094689 13.914614337166  16.57374837771 13.914614337166  C 17.0329368668803 13.914614337166  17.4053169700773 13.5495114198275  17.4057962264151 13.0988266666667  L 17.4057962264151 9.93125333333333  C 17.4057962264151 9.88133333333333  17.4001449056604 9.83141333333333  17.3901464150943 9.78234666666667  C 17.3997101886792 9.70384  17.4057962264151 9.62618666666666  17.4057962264151 9.54981333333333  L 17.1701796226415 6.91728  C 17.1701796226415 6.40485333333333  17.0554143396226 5.96581333333333  16.8545750943396 5.58096  L 17.4749162264151 5.47770666666666  C 17.4753509423356 5.47770785958547  17.4757856597424 5.47770845604575  17.4762203773621 5.47770845604575  C 17.7338343283533 5.47770845604575  17.9426716981168 5.27273844498162  17.9426716981168 5.01989512271242  L 17.9426716981132 4.62309333333333  C 17.9414771962818 4.3702378745512  17.7325448738203 4.1657464067338  17.4749162264151 4.16528  Z M 3.52224 4.50448  L 3.73003471698113 3.69722666666667  L 4.28516830188679 2.24997333333333  L 4.2921237735849 2.21584  C 4.34733283018868 1.924  4.47035773584905 1.87109333333333  4.65293886792453 1.64581333333333  L 13.3464090566038 1.64581333333333  C 13.5307290566038 1.87792  13.6454943396226 1.9368  13.6954867924528 2.21370666666667  L 14.2601841509434 3.69850666666667  L 14.4671094339623 4.50490666666667  C 14.42016 5.09498666666667  13.6954867924528 5.56090666666667  13.0942732075472 5.56090666666667  L 4.89594566037736 5.56090666666667  C 4.2934279245283 5.56090666666667  3.56875471698113 5.09498666666667  3.52224 4.50448  Z M 4.1368583117224 10.5803420912046  C 4.13079587061162 10.5803420912046  4.12473350836163 10.5802991707976  4.11867169811321 10.5802133333333  C 3.42958148790151 10.570455562325  2.87617906643938 10.0194084249409  2.87617906643938 9.34300875787128  C 2.87617906643938 8.65964842741398  3.44060439012439 8.10567542453795  4.1368583117224 8.10567542453795  C 4.16748773299883 8.10567542453795  4.19810698069698 8.10677101009976  4.22865509433962 8.10896  C 4.88753953364902 8.15617376252386  5.39753755700541 8.69460465471503  5.39753755700541 9.34300875787128  C 5.39753755700541 10.0263690883286  4.8331122333204 10.5803420912046  4.1368583117224 10.5803420912046  Z M 11.1702158490566 8.63546666666667  L 11.1702158490566 9.66842666666667  C 11.1694973510951 9.87152086720922  11.0015477913413 10.0357878909628  10.7946203773585 10.0357866666667  L 7.25298113207547 10.0357866666667  C 7.04622265801827 10.0357888414212  6.87834287552321 9.87178077201696  6.87738566037736 9.66885333333333  L 6.87738566037736 8.63589333333333  C 6.87738566037736 8.4328  7.0460558490566 8.26853333333333  7.25298113207547 8.26853333333333  L 10.7946203773585 8.26853333333333  C 11.0015456603774 8.26853333333333  11.1702158490566 8.4328  11.1702158490566 8.63546666666667  Z M 15.1339652830189 9.34458666666667  C 15.1325263253793 10.0277515683739  14.5676032963757 10.5806856176782  13.8715471698113 10.5802133333333  C 13.8708222433059 10.580214560738  13.8700973158558 10.5802151744407  13.8693723882718 10.5802151744407  C 13.1737967077466 10.5802151744407  12.6096527193629 10.0272806680589  12.6086943396226 9.34458666666667  C 12.6096527193629 8.66189266527446  13.1737967077466 8.10895815889266  13.8693723882718 8.10895815889266  C 13.8700973158565 8.10895815889266  13.8708222433053 8.10895877259533  13.8715471698113 8.10896  C 13.872127191296 8.1089592142442  13.8727072132626 8.10895882136616  13.8732872352999 8.10895882136616  C 14.5688626523067 8.10895882136616  15.1330065312277 8.66189292441638  15.1339652830189 9.34458666666667  Z " fill-rule="nonzero" fill="#555555" stroke="none" />
  </g>
</svg>