<?xml version="1.0" encoding="utf-8"?>
<svg version="1.1" xmlns:xlink="http://www.w3.org/1999/xlink" width="8px" height="6px" xmlns="http://www.w3.org/2000/svg">
  <g transform="matrix(1 0 0 1 -11 -9 )">
    <path d="M 7.89473684210526 2.29946808510638  C 7.9280701754386 2.28191489361702  7.93947368421053 2.2436170212766  7.92105263157895 2.21329787234043  L 7.71315789473684 1.88297872340426  C 7.69385964912281 1.85265957446809  7.65087719298246 1.84228723404255  7.61754385964912 1.85984042553191  L 7.17280701754386 2.09601063829787  L 6.4859649122807 0.371010638297873  C 6.41140350877193 0.159574468085107  6.19561403508772 0.0167553191489366  5.95175438596491 0.0167553191489366  L 2.15087719298246 0.0167553191489366  C 1.84649122807018 0.0167553191489366  1.57631578947368 0.195478723404256  1.48245614035088 0.459574468085107  L 0.828070175438597 2.0968085106383  L 0.382456140350877 1.86063829787234  C 0.349122807017544 1.84308510638298  0.306140350877193 1.85345744680851  0.286842105263158 1.88377659574468  L 0.0789473684210526 2.21329787234043  C 0.0596491228070175 2.2436170212766  0.0710526315789473 2.28191489361702  0.104385964912281 2.29946808510638  L 0.63421052631579 2.58031914893617  L 0.507017543859649 2.89946808510638  C 0.496491228070176 2.925  0.491228070175439 2.95212765957447  0.491228070175439 2.97925531914894  L 0.491228070175439 5.75744680851064  C 0.491228070175439 5.88271276595745  0.594736842105263 5.98404255319149  0.721929824561404 5.98404255319149  L 1.31491228070175 5.98404255319149  C 1.42280701754386 5.98404255319149  1.51666666666667 5.90984042553192  1.53947368421053 5.8061170212766  L 1.60701754385965 5.50531914893617  L 6.39298245614035 5.50531914893617  L 6.46052631578947 5.8061170212766  C 6.48421052631579 5.90984042553192  6.57719298245614 5.98404255319149  6.68508771929825 5.98404255319149  L 7.2780701754386 5.98404255319149  C 7.40526315789474 5.98404255319149  7.50877192982456 5.88271276595745  7.50877192982456 5.75744680851064  L 7.50877192982456 2.97925531914894  C 7.50877192982456 2.95212765957447  7.50350877192982 2.925  7.49298245614035 2.89946808510638  L 7.36578947368421 2.58031914893617  L 7.89473684210526 2.29946808510638  Z M 2.17543859649123 3.55053191489362  C 2.17543859649123 3.72686170212766  2.01842105263158 3.86968085106383  1.82456140350877 3.86968085106383  C 1.63070175438596 3.86968085106383  1.47368421052632 3.72686170212766  1.47368421052632 3.55053191489362  C 1.47368421052632 3.37420212765957  1.63070175438596 3.2313829787234  1.82456140350877 3.2313829787234  C 2.01842105263158 3.2313829787234  2.17543859649123 3.37420212765957  2.17543859649123 3.55053191489362  Z M 5.2280701754386 3.79787234042553  L 5.2280701754386 4.46808510638298  C 5.2280701754386 4.5031914893617  5.19649122807018 4.53191489361702  5.15789473684211 4.53191489361702  L 2.84210526315789 4.53191489361702  C 2.80350877192982 4.53191489361702  2.7719298245614 4.5031914893617  2.7719298245614 4.46808510638298  L 2.7719298245614 3.79787234042553  C 2.7719298245614 3.76276595744681  2.80350877192982 3.73404255319149  2.84210526315789 3.73404255319149  L 3.19298245614035 3.73404255319149  C 3.23157894736842 3.73404255319149  3.26315789473684 3.76276595744681  3.26315789473684 3.79787234042553  L 3.26315789473684 4.08510638297872  L 4.73684210526316 4.08510638297872  L 4.73684210526316 3.79787234042553  C 4.73684210526316 3.76276595744681  4.76842105263158 3.73404255319149  4.80701754385965 3.73404255319149  L 5.15789473684211 3.73404255319149  C 5.19649122807018 3.73404255319149  5.2280701754386 3.76276595744681  5.2280701754386 3.79787234042553  Z M 6.52631578947368 3.55053191489362  C 6.52631578947368 3.72686170212766  6.36929824561404 3.86968085106383  6.17543859649123 3.86968085106383  C 5.98157894736842 3.86968085106383  5.82456140350877 3.72686170212766  5.82456140350877 3.55053191489362  C 5.82456140350877 3.37420212765957  5.98157894736842 3.2313829787234  6.17543859649123 3.2313829787234  C 6.36929824561404 3.2313829787234  6.52631578947368 3.37420212765957  6.52631578947368 3.55053191489362  Z M 6.56315789473684 2.25  L 1.43859649122807 2.25  L 2.07631578947368 0.655053191489362  L 2.08070175438596 0.64468085106383  L 2.08421052631579 0.634308510638298  C 2.09385964912281 0.607978723404255  2.12017543859649 0.590425531914893  2.15087719298246 0.590425531914893  L 5.90175438596491 0.590425531914893  L 6.56315789473684 2.25  Z " fill-rule="nonzero" fill="#555555" stroke="none" transform="matrix(1 0 0 1 11 9 )" />
  </g>
</svg>