<?xml version="1.0" encoding="utf-8"?>
<svg version="1.1" xmlns:xlink="http://www.w3.org/1999/xlink" width="15px" height="15px" xmlns="http://www.w3.org/2000/svg">
  <g>
    <path d="M 7.54525139648437 7.91061452636719  C 7.32402234375 7.91061452636719  7.14469274414062 7.73128491210937  7.14469274414062 7.510055859375  L 7.14469274414062 3.20614524902344  C 4.93072625976563 3.39385475097656  3.18938548828125 5.25251396484375  3.18938547363281 7.510055859375  C 3.18938547363281 9.89162011230469  5.12681563476562 11.8307262451172  7.510055859375 11.8307262597656  C 9.75754189453125 11.8307262597656  11.6094972070312 10.1061452490234  11.8122904980469 7.91061452636719  L 7.54525139648437 7.91061452636719  Z M 11.7569832421875 5.80055865234375  C 11.4519553125 4.86871507324219  10.2385474951172 3.610055859375  9.32346369140625 3.27486033691406  L 9.32346369140625 5.80055865234375  L 11.7569832421875 5.80055865234375  Z M 15 7.5  C 15 3.35865921386719  11.6413407861328 0  7.5 0  C 3.35865921386719 0  0 3.35865921386719  0 7.5  C 0 11.6413407861328  3.35865921386719 15  7.5 15  C 11.6413407861328 15  15 11.6413407861328  15 7.5  Z M 12.6301675927734 7.510055859375  C 12.6301675927734 10.334078203125  10.334078203125 12.6301675927734  7.510055859375 12.6301675927734  C 4.686033515625 12.6301675927734  2.38994412597656 10.334078203125  2.389944140625 7.510055859375  C 2.38994415527344 4.686033515625  4.68770950195312 2.38994412597656  7.510055859375 2.389944140625  L 7.54525139648437 2.389944140625  C 7.75977653320312 2.39832402832031  7.94413407714844 2.57597765625  7.94413407714844 2.79050279296875  L 7.94413407714844 7.10949720703125  L 12.2296089404297 7.10949720703125  C 12.4508379931641 7.10949720703125  12.6301675927734 7.28882682128906  12.6301675927734 7.510055859375  Z M 12.6301675927734 6.20111731933594  C 12.6301675927734 6.42234637207031  12.4508379785156 6.6  12.2296089404297 6.6  L 8.92458101074219 6.6  C 8.70335195800781 6.6  8.52402235839844 6.42067038574219  8.52402234375 6.19944134765625  L 8.52402234375 2.79050279296875  C 8.52402234375 2.68324022460937  8.56759776855469 2.5810055859375  8.6430167578125 2.50558659667969  C 8.72011173339844 2.43016760742188  8.82402234375 2.389944140625  8.92960894042969 2.389944140625  C 10.3826815576172 2.41340781738281  12.6301675927734 4.72793295410156  12.6301675927734 6.20111731933594  Z " fill-rule="nonzero" fill="#006eff" stroke="none" />
  </g>
</svg>