<?xml version="1.0" encoding="utf-8"?>
<svg version="1.1" xmlns:xlink="http://www.w3.org/1999/xlink" width="18px" height="18px" xmlns="http://www.w3.org/2000/svg">
  <g>
    <path d="M 9 6.3675  C 10.7345731338886 6.34845036164665  12.1370605264548 4.94881645309386  12.1596428571429 3.21428571428571  C 12.1596472169777 3.21214285991708  12.1596493968967 3.21000000166779  12.1596493968967 3.20785714286391  C 12.1596493968967 1.46283457795211  10.7450291046657 0.0482142857210541  9.00000653975388 0.0482142857210541  C 7.25498397484209 0.0482142857210541  5.84036368261103 1.46283457795211  5.84036368261103 3.20785714286391  C 5.84036368261103 4.95287970777571  7.25498397484209 6.36750000000677  9.00000653975388 6.36750000000677  Z M 12.1660714285714 6.885  C 11.5116948422459 6.5513485127848  10.788783627923 6.37419675402379  10.0542857142857 6.3675  L 7.94571428571429 6.3675  C 7.211216372077 6.37419675402379  6.48830515775411 6.5513485127848  5.83392857142857 6.885  C 6.94165453035827 7.18310206258329  8.00592911667375 7.62393864249873  9 8.19642857142857  C 9.99407088332625 7.62393864249873  11.0583454696417 7.18310206258329  12.1660714285714 6.885  Z M 17.9871428571429 10.5782142857143  C 17.9853714761381 9.99720401439219  17.5138701144551 9.52714015686067  16.9328571428571 9.52714285714286  C 16.3523664218743 9.52714285714286  15.8817857142857 9.99772356473142  15.8817857142857 10.5782142857143  L 15.8817857142857 12.6867857142857  C 15.9126758358322 13.2455897980727  16.3748070659216 13.6828804275314  16.9344642857143 13.6828804275314  C 17.494121505507 13.6828804275314  17.9562527355964 13.2455897980726  17.9871428571429 12.6867857142857  L 17.9871428571429 10.5782142857143  Z M 1.06553571428571 13.6828804275314  C 1.62519293407843 13.6828804275314  2.08732416416779 13.2455897980727  2.11821428571429 12.6867857142857  L 2.11821428571429 10.5782142857143  C 2.08732416416779 10.0194102019273  1.62519293407843 9.5821195724686  1.06553571428571 9.5821195724686  C 0.505878494492995 9.5821195724686  0.043747264403638 10.0194102019273  0.0128571428571429 10.5782142857143  L 0.0128571428571429 12.6867857142857  C 0.043747264403638 13.2455897980726  0.505878494492995 13.6828804275314  1.06553571428571 13.6828804275314  Z M 1.06714285714286 7.94571428571428  L 1.06714285714286 8.47285714285714  C 2.22916553996442 8.47462717287073  3.17072996998641 9.41619160289272  3.1725 10.5782142857143  L 3.1725 12.6867857142857  C 3.16719862985816 13.8462971016225  2.22666503472036 14.7839588384546  1.06714285714286 14.7857142857143  L 1.06714285714286 15.3128571428571  C 1.06711542506915 15.3150525006462  1.06710170863078 15.3172480083937  1.06710170863078 15.3194435375647  C 1.06710170863078 15.6105764985469  1.30311160479141 15.8465863947076  1.59424456577364 15.8465863947076  C 1.59854447899878 15.8465863947076  1.60284423128488 15.84653378301  1.60714285714286 15.8464285714286  C 4.30392857142857 15.8464285714286  6.46392857142857 16.6982142857143  8.48571428571429 17.9871428571429  L 8.48571428571429 9.12535714285714  C 6.42857142857143 7.96178571428571  4.25892857142857 7.42178571428571  1.60714285714286 7.42178571428571  C 1.60178727084031 7.4216213545587  1.59642947831846 7.42153916019034  1.59107137055882 7.42153916019034  C 1.30171361055819 7.42153916019034  1.06714279913025 7.65610997161827  1.06714279913025 7.94546773161891  Z M 16.92 14.7857142857143  C 15.7654988182388 14.776926399603  14.8327464384294 13.8413084210846  14.8275 12.6867857142857  L 14.8275 10.5782142857143  C 14.8292700300136 9.41619160289271  15.7708344600356 8.47462717287073  16.9328571428571 8.47285714285714  L 16.9328571428571 7.94571428571428  C 16.9328572008698 7.65610997161827  16.6982863894418 7.42153916019034  16.4089286294412 7.42153916019034  C 16.4035705216816 7.42153916019034  16.3982127291597 7.4216213545587  16.3928571428571 7.42178571428571  C 13.7282142857143 7.42178571428571  11.5457142857143 7.96178571428571  9.51428571428571 9.12535714285714  L 9.51428571428571 18  C 11.5360714285714 16.7142857142857  13.6928571428571 15.8592857142857  16.3928571428571 15.8592857142857  C 16.6839901038394 15.8592857142857  16.92 15.6232758181251  16.92 15.3321428571429  L 16.92 14.7857142857143  Z " fill-rule="nonzero" fill="#555555" stroke="none" />
  </g>
</svg>