<?xml version="1.0" encoding="utf-8"?>
<svg version="1.1" xmlns:xlink="http://www.w3.org/1999/xlink" width="8px" height="8px" xmlns="http://www.w3.org/2000/svg">
  <g transform="matrix(1 0 0 1 -245 -134 )">
    <path d="M 2.70736842105263 0.990526315789473  C 3.10526315789474 0.822105263157895  3.52736842105263 0.736842105263158  3.96315789473684 0.736842105263158  C 4.39894736842105 0.736842105263158  4.82105263157895 0.822105263157895  5.21894736842105 0.990526315789474  C 5.60315789473684 1.15263157894737  5.94842105263158 1.38526315789474  6.24421052631579 1.68210526315789  C 6.54105263157895 1.97894736842105  6.77368421052632 2.32421052631579  6.93578947368421 2.70736842105263  C 7.10421052631579 3.10421052631579  7.18947368421053 3.52736842105263  7.18947368421053 3.96315789473684  C 7.18947368421053 4.39894736842105  7.10421052631579 4.82105263157895  6.93578947368421 5.21894736842105  C 6.77368421052632 5.60315789473684  6.54105263157895 5.94842105263158  6.24421052631579 6.24421052631579  C 5.94736842105263 6.54105263157895  5.6021052631579 6.77368421052632  5.21894736842105 6.93578947368421  C 4.8221052631579 7.10421052631579  4.39894736842105 7.18947368421053  3.96315789473684 7.18947368421053  C 3.52736842105263 7.18947368421053  3.10526315789474 7.10421052631579  2.70736842105263 6.93578947368421  C 2.32315789473684 6.77368421052632  1.97789473684211 6.54105263157895  1.6821052631579 6.24421052631579  C 1.38631578947368 5.94736842105263  1.15263157894737 5.6021052631579  0.990526315789474 5.21894736842105  C 0.822105263157895 4.82105263157895  0.736842105263158 4.39894736842105  0.736842105263158 3.96315789473684  C 0.736842105263158 3.52736842105263  0.822105263157895 3.10526315789474  0.990526315789474 2.70736842105263  C 1.15263157894737 2.32315789473684  1.38526315789474 1.9778947368421  1.68210526315789 1.68210526315789  C 1.97894736842105 1.38526315789474  2.32421052631579 1.15263157894737  2.70736842105263 0.990526315789473  Z M 7.92631578947368 3.96315789473684  C 7.92631578947368 1.77473684210526  6.15157894736842 0  3.96315789473684 0  C 1.77473684210526 0  0 1.77473684210526  0 3.96315789473684  C 0 6.15157894736842  1.77473684210526 7.92631578947368  3.96315789473684 7.92631578947368  C 6.15157894736842 7.92631578947368  7.92631578947368 6.15157894736842  7.92631578947368 3.96315789473684  Z " fill-rule="nonzero" fill="#aaaaaa" stroke="none" transform="matrix(1 0 0 1 245 134 )" />
  </g>
</svg>