<?xml version="1.0" encoding="utf-8"?>
<svg version="1.1" xmlns:xlink="http://www.w3.org/1999/xlink" width="9px" height="9px" xmlns="http://www.w3.org/2000/svg">
  <g transform="matrix(1 0 0 1 -246 -135 )">
    <path d="M 1.58967391304348 4.94413043478261  C 0.311086956521739 3.66554347826087  0.311086956521739 1.59260869565217  1.58967391304348 0.314021739130435  C 1.67576086956522 0.227934782608696  1.76576086956522 0.147717391304348  1.85869565217391 0.0733695652173913  C 1.49380434782609 0.206413043478261  1.15239130434783 0.418695652173913  0.859891304347826 0.711195652173913  C -0.213260869565217 1.78434782608696  -0.213260869565217 3.52565217391304  0.859891304347826 4.59880434782609  C 1.18467391304348 4.92358695652174  1.57010869565217 5.1495652173913  1.97902173913044 5.27771739130435  C 1.84304347826087 5.17891304347826  1.7129347826087 5.06739130434782  1.58967391304348 4.94413043478261  Z M 8.67130434782609 7.53065217391304  C 9.00586956521739 7.86619565217391  9.00586956521739 8.41402173913043  8.67032608695652 8.74858695652174  C 8.33576086956522 9.08315217391304  7.7879347826087 9.08315217391304  7.45239130434783 8.74858695652174  L 4.99108695652174 6.28630434782609  C 4.65652173913043 5.95173913043478  4.65652173913043 5.40391304347826  4.99108695652174 5.06836956521739  C 5.32565217391304 4.73380434782609  5.87347826086957 4.73380434782609  6.20902173913044 5.06836956521739  L 8.67130434782609 7.53065217391304  Z " fill-rule="nonzero" fill="#aaaaaa" stroke="none" transform="matrix(1 0 0 1 246 135 )" />
  </g>
</svg>