<?xml version="1.0" encoding="utf-8"?>
<svg version="1.1" xmlns:xlink="http://www.w3.org/1999/xlink" width="5px" height="8px" xmlns="http://www.w3.org/2000/svg">
  <g transform="matrix(1 0 0 1 -330 -129 )">
    <path d="M 0.183561643835616 7.1466666640625  C 0.0890503038313294 7.23921945277309  0.0364991835020429 7.36102236536019  0.0364991835020429 7.48752782722352  C 0.0364991835020429 7.76367020213892  0.281822608252293 7.98752782722352  0.584444388981495 7.98752782722352  C 0.723080509479477 7.98752782722352  0.856563151556233 7.93957493136685  0.957990864726027 7.8533333359375  L 4.79360730308219 4.3533333359375  C 5.00727187532648 4.15812163748993  5.00727187532648 3.84187836251007  4.79360730308219 3.6466666640625  L 0.957990864726027 0.1466666640625  C 0.856563151556234 0.0604250686331523  0.723080509479479 0.012472172776482  0.584444388981498 0.012472172776482  C 0.281822608252297 0.012472172776482  0.0364991835020463 0.236329797861085  0.0364991835020463 0.512472172776482  C 0.0364991835020463 0.638977634639808  0.0890503038313313 0.760780547226915  0.183561643835616 0.8533333359375  L 3.63123287671233 4  L 0.182831053082192 7.1466666640625  Z " fill-rule="nonzero" fill="#18d0a5" stroke="none" transform="matrix(1 0 0 1 330 129 )" />
  </g>
</svg>