<?xml version="1.0" encoding="utf-8"?>
<svg version="1.1" xmlns:xlink="http://www.w3.org/1999/xlink" width="27px" height="25px" xmlns="http://www.w3.org/2000/svg">
  <g transform="matrix(1 0 0 1 -49 -7 )">
    <path d="M 26 3.63595478270423  C 25.9262035200949 3.36172869574771  25.8070752001898 3.10158956531293  25.6000780800949 2.92550260879119  C 25.3946361601898 2.74972869584324  25.1212320001898 2.67522434792162  24.8563814400949 2.72358956531293  L 18.2567036160949 3.91878956521739  L 16.571177856 3.34842434773055  C 16.090621056 3.18564173893937  15.578338176 3.44969391304348  15.4195522560949 3.93538086946968  C 15.2613884160949 4.42106782589589  15.519085056 4.94572869565217  15.9962204160949 5.10710260879118  L 17.9011848960949 5.75165913033925  C 17.9453525761898 5.76652869565217  17.9906088961898 5.77764173893937  18.0363317759051 5.78562434792162  L 18.0363317759051 13.3084034782609  L 14.2697617920949 12.1281043478261  C 13.9492350720949 12.0280869565217  13.6100459520949 12.2113739129479  13.5111352320949 12.5366260869565  C 13.412846592 12.8628173913999  13.5923166720949 13.2087304346871  13.912998912 13.3089043479216  L 18.0363317759051 14.6009913042523  L 18.0363317759051 22.3568626087912  L 10.1466155519051 20.101227826087  L 10.1466155519051 16.6096660870521  C 10.1466155519051 16.2684486956522  9.87507763190508 15.9918747826087  9.53962099190508 15.9918747826087  C 9.20416435190508 15.9918747826087  8.93262643190508 16.2684486956522  8.93262643190508 16.6096660870521  L 8.93262643190508 20.1167234782609  L 3 21.0863756521739  L 3 3.63595478270423  C 2.86358284809492 3.12397217410411  2.45580940809492 2.70918956521739  1.95332428809492 2.70918956521739  C 1.45068364818984 2.70918956521739  1.04291020818984 3.12397217381751  1 3.63595478270423  L 1 22.1699756522694  C 1.04291020790508 22.4407582610606  1.158928128 22.6980800001911  1.36172620809492 22.8743234783564  C 1.56374668809492 23.0500973913044  1.83232972818984 23.1285147826087  2.09422540809492 23.0853147826087  L 9.636230016 21.8805669564262  L 18.0945584639051 24.2986713043478  C 18.1743402239051 24.3215234783564  18.2573879039051 24.333106086861  18.3404355839051 24.333106086861  C 18.394867584 24.333106086861  18.449455104 24.3279408694697  18.5034205440949 24.3180799999045  L 25.178836608 23.081401739226  C 25.6114932479051 23.0015756522695  25.9261102080949 22.6174713044434  26 22.1699756522695  L 26 3.63595478270423  Z M 24.10537536 13.8047652174868  L 24.10537536 21.3967582608696  L 19.2500098560949 22.2959756521739  L 19.2500098560949 14.6650086957477  L 24.10537536 13.8047652174868  Z M 24.10537536 4.7422817390349  L 24.10537536 12.5503999999045  L 19.2500098560949 13.4106434781653  L 19.2500098560949 5.62130782599142  L 24.10537536 4.7422817390349  Z M 5.09681894409492 8.45654260860012  C 5.394173184 9.0568034780698  8.12964556809492 12.9809913042523  8.96105548809492 14.1696173913999  C 9.13181644809492 14.4136347827998  9.40786444818984 14.5585739130435  9.70241932809492 14.5585739130435  L 9.70506316790508 14.5585739130435  C 10.000706688 14.5577913042523  10.2767546878102 14.4111304347826  10.4468935679051 14.1652347825132  C 11.2755041279051 12.9672173913043  14.000712192 9.01454260850459  14.2804926720949 8.46609043487814  C 14.6479864321898 7.74640347826087  14.8500069121898 6.90807304357379  14.8500069119051 6.10589913033925  C 14.8500069119051 3.21037217381751  12.5355582718102 0.854719999808935  9.691377408 0.854720000095534  C 6.847041024 0.854720000095534  4.53259238390508 3.21037217410411  4.53259238390508 6.10589913033925  C 4.53259238390508 6.90744695642621  4.722326784 7.69772521729577  5.09681894409492 8.45560347816534  Z M 6.35326502409492 6.10589913033925  C 6.35326502409492 4.23245913043478  7.85092262409492 2.70809391285241  9.691377408 2.70809391313901  C 11.531490048 2.70809391313901  13.029334272 4.23245913043478  13.029334272 6.10589913033925  C 13.029334272 6.60880347816534  12.8965201919051 7.15788173893937  12.6660395519051 7.61007304357379  C 12.5070981118102 7.90934260869565  11.1298129918102 9.94428173922597  9.698375808 12.0248  C 8.38423180790508 10.132452173913  6.895563264 7.95629913043478  6.722469504 7.62118608686098  C 6.47768102390508 7.12469913043478  6.35326502409492 6.61490782599142  6.35326502409492 6.10589913033925  Z M 8.174124288 6.10715130434783  C 8.17409318390508 6.6590469564262  8.46336038390508 7.16899478251316  8.93290636790508 7.44478608705206  C 9.40149699900065 7.72073395770922  9.9815688568095 7.72073395770922  10.4501594879051 7.44478608705206  C 10.9195188479051 7.16899478279976  11.208630528 6.6590469567128  11.208630528 6.10715130434783  C 11.208630528 5.55541217391304  10.9195188479051 5.04562086946968  10.4501594879051 4.76967304357379  C 9.98152610443906 4.49388395508658  9.4015397513711 4.49388395508658  8.93290636790508 4.76967304357379  C 8.463391488 5.04562086975628  8.174124288 5.55541217391304  8.174124288 6.10715130434783  Z " fill-rule="nonzero" fill="#0099ff" stroke="none" transform="matrix(1 0 0 1 49 7 )" />
  </g>
</svg>