<?xml version="1.0" encoding="utf-8"?>
<svg version="1.1" xmlns:xlink="http://www.w3.org/1999/xlink" width="25px" height="23px" xmlns="http://www.w3.org/2000/svg">
  <g transform="matrix(1 0 0 1 -175 -8 )">
    <path d="M 9.375 3.06666667490234  L 4.16666667480469 3.06666667490234  L 4.16666667480469 8.3375  L 2.08333332519531 8.3375  L 2.08333332519531 0.958333325097656  L 9.375 0.958333325097656  L 9.375 3.06666667490234  Z M 20.8333333251953 8.3375  L 20.8333333251953 3.06666667490234  L 15.625 3.06666667490234  L 15.625 0.958333325097656  L 22.9166666748047 0.958333325097656  L 22.9166666748047 8.3375  L 20.8333333251953 8.3375  Z M 2.08333332519531 14.6625  L 4.16666667480469 14.6625  L 4.16666667480469 19.9333333250977  L 9.375 19.9333333250977  L 9.375 22.0416666749023  L 2.08333332519531 22.0416666749023  L 2.08333332519531 14.6625  Z M 20.8333333251953 19.9333333250977  L 20.8333333251953 14.6625  L 22.9166666748047 14.6625  L 22.9166666748047 22.0416666749023  L 15.625 22.0416666749023  L 15.625 19.9333333250977  L 20.8333333251953 19.9333333250977  Z M 23.9583333251953 12.5541666749023  L 1.04166667480469 12.5541666749023  L 1.04166667480469 10.4458333250977  L 23.9583333251953 10.4458333250977  L 23.9583333251953 12.5541666749023  Z " fill-rule="nonzero" fill="#555555" stroke="none" transform="matrix(1 0 0 1 175 8 )" />
  </g>
</svg>