<?xml version="1.0" encoding="utf-8"?>
<svg version="1.1" xmlns:xlink="http://www.w3.org/1999/xlink" width="16px" height="14px" xmlns="http://www.w3.org/2000/svg">
  <g transform="matrix(1 0 0 1 -304 -12 )">
    <path d="M 5.92857142857143 13.2544270833333  C 5.92857142857143 13.25625  10.0285714285714 10.084375  10.9339285714286 6.20703125  C 11.8392857142857 2.37526041666667  6.53214285714286 0.74375  6.53214285714286 0.74375  L 5.36607142857143 0.74375  C 5.36607142857143 0.74375  9.25 2.10911458333333  7.95535714285714 5.5453125  C 6.61785714285714 8.98151041666667  1.09464285714286 13.2544270833333  1.09464285714286 13.2544270833333  L 5.92857142857143 13.2544270833333  Z M 14.9053571428571 6.82317708333333  C 14.9053571428571 2.68333333333333  8.30178571428571 0.74375  8.30178571428571 0.74375  L 7.1375 0.74375  C 7.1375 0.74375  12.3589285714286 2.3734375  11.4964285714286 6.51510416666667  C 10.6767857142857 10.3924479166667  7.31071428571429 13.2544270833333  7.31071428571429 13.2544270833333  L 12.3160714285714 13.2544270833333  C 12.3160714285714 13.2544270833333  14.9053571428571 11.00859375  14.9053571428571 6.82317708333333  Z " fill-rule="nonzero" fill="#ffffff" stroke="none" transform="matrix(1 0 0 1 304 12 )" />
  </g>
</svg>