<?xml version="1.0" encoding="utf-8"?>
<svg version="1.1" xmlns:xlink="http://www.w3.org/1999/xlink" width="40px" height="42px" xmlns="http://www.w3.org/2000/svg">
  <g transform="matrix(1 0 0 1 -234 -396 )">
    <path d="M 33.39 12.815  L 29.8125 36.1925  C 29.64 37.3175  28.62 38.1675  27.4425 38  L 12.9075 38  C 11.73 38.1675  10.71 37.32  10.5375 36.195  L 6.9275 12.8125  L 3.9625 13.27  L 7.5725 36.6525  C 7.9775 39.2675  10.22 41.1675  12.9075 41  L 27.44 41  C 30.1325 41.1675  32.375 39.265  32.7775 36.645  L 36.355 13.2675  L 33.39 12.815  Z M 39.935 3.69  C 40.0525 2.8625  39.815 2.035  39.285 1.4225  C 38.81 0.875  38.135 0.560000000000001  37.4325 1  L 2.8775 1  C 2.175 0.560000000000001  1.5 0.875  1.025 1.4225  C 0.495 2.035  0.26 2.86  0.3775 3.69  L 0.955 7.695  C 1.175 9.22  2.3675 10.3275  3.7925 11  L 36.52 11  C 37.945 10.3275  39.1375 9.22  39.3575 7.695  L 39.935 3.69  Z M 36.92 4  L 36.3875 7.2675  C 36.3861017695023 7.2882319208416  36.381022465251 7.30854913784672  36.3725 8  L 3.9375 8  C 3.9325 7.31  3.9275 7.29  3.9225 7.2675  L 3.39 4  L 36.92 4  Z " fill-rule="nonzero" fill="#007cfd" stroke="none" transform="matrix(1 0 0 1 234 396 )" />
  </g>
</svg>