<?xml version="1.0" encoding="utf-8"?>
<svg version="1.1" xmlns:xlink="http://www.w3.org/1999/xlink" width="20px" height="20px" xmlns="http://www.w3.org/2000/svg">
  <g transform="matrix(1 0 0 1 -43 -252 )">
    <path d="M 53 252  C 58.6 252  63 256.4  63 262  C 63 267.6  58.6 272  53 272  C 47.4 272  43 267.6  43 262  C 43 256.4  47.4 252  53 252  Z " fill-rule="nonzero" fill="#ffffff" stroke="none" />
    <path d="M 53 252.5  C 58.32 252.5  62.5 256.68  62.5 262  C 62.5 267.32  58.32 271.5  53 271.5  C 47.68 271.5  43.5 267.32  43.5 262  C 43.5 256.68  47.68 252.5  53 252.5  Z " stroke-width="1" stroke="#1abc9c" fill="none" />
  </g>
</svg>