<?xml version="1.0" encoding="utf-8"?>
<svg version="1.1" xmlns:xlink="http://www.w3.org/1999/xlink" width="40px" height="40px" xmlns="http://www.w3.org/2000/svg">
  <g transform="matrix(1 0 0 1 -97 -587 )">
    <path d="M 38.4114583333333 12.2395833333333  C 39.4704861111111 14.7048611111111  40 17.2916666666667  40 20  C 40 22.7083333333333  39.4704861111111 25.2951388888889  38.4114583333333 27.7604166666667  C 37.3524305555556 30.2256944444444  35.9288194444444 32.3524305555556  34.140625 34.140625  C 32.3524305555556 35.9288194444444  30.2256944444444 37.3524305555556  27.7604166666667 38.4114583333333  C 25.2951388888889 39.4704861111111  22.7083333333333 40  20 40  C 17.0138888888889 40  14.1753472222222 39.3706597222222  11.484375 38.1119791666667  C 8.79340277777778 36.8532986111111  6.50173611111111 35.078125  4.609375 32.7864583333333  C 4.48784722222222 32.6128472222222  4.43142361111111 32.4175347222222  4.44010416666667 32.2005208333333  C 4.44878472222222 31.9835069444444  4.52256944444444 31.8055555555556  4.66145833333333 31.6666666666667  L 8.22916666666667 28.0729166666667  C 8.40277777777778 27.9166666666667  8.61979166666667 27.8385416666667  8.88020833333333 27.8385416666667  C 9.15798611111111 27.8732638888889  9.35763888888889 27.9774305555556  9.47916666666667 28.1510416666667  C 10.7465277777778 29.8003472222222  12.3003472222222 31.0763888888889  14.140625 31.9791666666667  C 15.9809027777778 32.8819444444444  17.9340277777778 33.3333333333333  20 33.3333333333333  C 21.8055555555556 33.3333333333333  23.5286458333333 32.9817708333333  25.1692708333333 32.2786458333333  C 26.8098958333333 31.5755208333333  28.2291666666667 30.625  29.4270833333333 29.4270833333333  C 30.625 28.2291666666667  31.5755208333333 26.8098958333333  32.2786458333333 25.1692708333333  C 32.9817708333333 23.5286458333333  33.3333333333333 21.8055555555556  33.3333333333333 20  C 33.3333333333333 18.1944444444444  32.9817708333333 16.4713541666667  32.2786458333333 14.8307291666667  C 31.5755208333333 13.1901041666667  30.625 11.7708333333333  29.4270833333333 10.5729166666667  C 28.2291666666667 9.375  26.8098958333333 8.42447916666666  25.1692708333333 7.72135416666667  C 23.5286458333333 7.01822916666667  21.8055555555556 6.66666666666667  20 6.66666666666667  C 18.2986111111111 6.66666666666667  16.6666666666667 6.97482638888889  15.1041666666667 7.59114583333333  C 13.5416666666667 8.20746527777777  12.1527777777778 9.08854166666666  10.9375 10.234375  L 14.5052083333333 13.828125  C 15.0434027777778 14.3489583333333  15.1649305555556 14.9479166666667  14.8697916666667 15.625  C 14.5746527777778 16.3194444444444  14.0625 16.6666666666667  13.3333333333333 17  L 1.66666666666667 17  C 1.21527777777778 16.6666666666667  0.824652777777778 16.5017361111111  0.494791666666667 16.171875  C 0.164930555555556 15.8420138888889  0 15.4513888888889  0 15  L 0 3.33333333333333  C 0 2.60416666666667  0.347222222222222 2.09201388888889  1.04166666666667 1.796875  C 1.71875 1.50173611111111  2.31770833333333 1.62326388888889  2.83854166666667 2.16145833333333  L 6.22395833333333 5.52083333333333  C 8.08159722222222 3.76736111111111  10.2039930555556 2.40885416666667  12.5911458333333 1.4453125  C 14.9782986111111 0.481770833333335  17.4479166666667 0  20 0  C 22.7083333333333 0  25.2951388888889 0.529513888888888  27.7604166666667 1.58854166666667  C 30.2256944444444 2.64756944444444  32.3524305555556 4.07118055555555  34.140625 5.859375  C 35.9288194444444 7.64756944444444  37.3524305555556 9.77430555555555  38.4114583333333 12.2395833333333  Z " fill-rule="nonzero" fill="#d7d7d7" stroke="none" transform="matrix(1 0 0 1 97 587 )" />
  </g>
</svg>