<?xml version="1.0" encoding="utf-8"?>
<svg version="1.1" xmlns:xlink="http://www.w3.org/1999/xlink" width="28px" height="36px" xmlns="http://www.w3.org/2000/svg">
  <g transform="matrix(1 0 0 1 -315 -459 )">
    <path d="M 0.25 31.75  L 0.25 4.25  C 0.25 2.17893218813452  1.92893218813452 0.5  4 1  L 16.5 1  L 16.5 8  C 16.5 10.0710678118655  18.1789321881345 11.75  20.25 11.75  L 27.75 11.75  L 27.75 31.75  C 27.75 33.8210678118655  26.0710678118655 35.5  24 35  L 4 35  C 1.92893218813452 35.5  0.25 33.8210678118655  0.25 31.75  Z M 12.745 14.25  L 12.745 23.725  L 9.58 20.565  L 7.8125 22.3325  L 13.115 27.6375  C 13.3495106575254 27.8726042517191  13.6679318478544 28.0047344592136  14 28.0047344592136  C 14.3320681521456 28.0047344592136  14.6504893424746 27.8726042517191  14.885 27.6375  L 20.185 22.3325  L 18.42 20.565  L 15.245 23.74  L 15.245 14.25  L 12.745 14.25  Z " fill-rule="nonzero" fill="#ffffff" stroke="none" transform="matrix(1 0 0 1 315 459 )" />
  </g>
</svg>