<?xml version="1.0" encoding="utf-8"?>
<svg version="1.1" xmlns:xlink="http://www.w3.org/1999/xlink" width="104px" height="188px" xmlns="http://www.w3.org/2000/svg">
  <g transform="matrix(1 0 0 1 -75 -253 )">
    <path d="M 84.875 1  L 19.25 1  C 8.89466094067263 0.5  0.5 8.89466094067263  1 19.25  L 1 84.875  C 0.5 95.2303390593274  8.89466094067263 103.625  19.25 103  L 84.875 103  C 95.2303390593274 103.625  103.625 95.2303390593274  103 84.875  L 103 19.25  C 103.625 8.89466094067263  95.2303390593274 0.5  84.875 1  Z M 20 20  L 84 20  L 84 85  L 20 85  L 20 20  Z M 52.0625 188  C 59.8290042944955 188  66.125 181.704004294496  66.125 173.9375  C 66.125 166.170995705504  59.8290042944955 159.875  52.0625 159.875  C 44.2959957055045 159.875  38 166.170995705504  38 173.9375  C 38 181.704004294496  44.2959957055045 188  52.0625 188  Z " fill-rule="nonzero" fill="#ffffff" stroke="none" transform="matrix(1 0 0 1 75 253 )" />
  </g>
</svg>