<?xml version="1.0" encoding="utf-8"?>
<svg version="1.1" xmlns:xlink="http://www.w3.org/1999/xlink" width="104px" height="226px" xmlns="http://www.w3.org/2000/svg">
  <g transform="matrix(1 0 0 1 -197 -253 )">
    <path d="M 1 84.875  L 1 19.25  C 0.375 8.89466094067263  8.76966094067262 0.5  19.125 1  L 84.75 1  C 95.1053390593274 0.5  103.5 8.89466094067263  103 19.25  L 103 84.875  C 103.5 95.2303390593274  95.1053390593274 103.625  84.75 104  L 19.125 104  C 8.76966094067262 103.625  0.375 95.2303390593274  1 84.875  Z M 84 20  L 20 20  L 20 85  L 84 85  L 84 20  Z M 20 225  L 20 141  L 56 141  L 56 122  L 19.125 122  C 8.76966094067262 122.375  0.375 130.769660940673  1 141.125  L 1 225  L 20 225  Z M 84 169  L 103 169  L 103 122  L 84 122  L 84 169  Z M 84 188  L 103 188  L 103 225  L 84 225  L 84 188  Z M 48 225  L 66 225  L 66 169  L 48 169  L 48 225  Z " fill-rule="nonzero" fill="#ffffff" stroke="none" transform="matrix(1 0 0 1 197 253 )" />
  </g>
</svg>