<?xml version="1.0" encoding="utf-8"?>
<svg version="1.1" xmlns:xlink="http://www.w3.org/1999/xlink" width="188px" height="188px" xmlns="http://www.w3.org/2000/svg">
  <g transform="matrix(1 0 0 1 -75 -291 )">
    <path d="M 84.875 85  L 19.25 85  C 8.89466094067263 84.375  0.5 92.7696609406726  1 103.125  L 1 168.75  C 0.5 179.105339059327  8.89466094067263 187.5  19.25 187  L 84.875 187  C 95.2303390593274 187.5  103.625 179.105339059327  103 168.75  L 103 103.125  C 103.625 92.7696609406726  95.2303390593274 84.375  84.875 85  Z M 20 168  L 20 103  L 85 103  L 85 168  L 20 168  Z M 188 14.0625  C 188 21.8290042944955  181.704004294496 28.125  173.9375 28.125  C 166.170995705504 28.125  159.875 21.8290042944955  159.875 14.0625  C 159.875 6.29599570550447  166.170995705504 0  173.9375 0  C 181.704004294496 0  188 6.29599570550447  188 14.0625  Z " fill-rule="nonzero" fill="#ffffff" stroke="none" transform="matrix(1 0 0 1 75 291 )" />
  </g>
</svg>