<?xml version="1.0" encoding="utf-8"?>
<svg version="1.1" xmlns:xlink="http://www.w3.org/1999/xlink" width="40px" height="40px" xmlns="http://www.w3.org/2000/svg">
  <g transform="matrix(1 0 0 1 -315 -563 )">
    <path d="M 7.27272727272727 29.0909090909091  L 10.9090909090909 29.0909090909091  L 10.9090909090909 32.7272727272727  L 7.27272727272727 32.7272727272727  L 7.27272727272727 29.0909090909091  Z M 7.27272727272727 7.27272727272727  L 10.9090909090909 7.27272727272727  L 10.9090909090909 10.9090909090909  L 7.27272727272727 10.9090909090909  L 7.27272727272727 7.27272727272727  Z M 29.0909090909091 7.27272727272727  L 32.7272727272727 7.27272727272727  L 32.7272727272727 10.9090909090909  L 29.0909090909091 10.9090909090909  L 29.0909090909091 7.27272727272727  Z M 4 25  L 4 36  L 15 36  L 15 25  L 4 25  Z M 4 4  L 4 15  L 15 15  L 15 4  L 4 4  Z M 25 4  L 25 15  L 36 15  L 36 4  L 25 4  Z M 0 21.8181818181818  L 18.1818181818182 21.8181818181818  L 18.1818181818182 40  L 0 40  L 0 21.8181818181818  Z M 29.0909090909091 36.3636363636364  L 32.7272727272727 36.3636363636364  L 32.7272727272727 40  L 29.0909090909091 40  L 29.0909090909091 36.3636363636364  Z M 36.3636363636364 36.3636363636364  L 40 36.3636363636364  L 40 40  L 36.3636363636364 40  L 36.3636363636364 36.3636363636364  Z M 36.3636363636364 21.8181818181818  L 40 21.8181818181818  L 40 32  L 29.0909090909091 32  L 29.0909090909091 29.0909090909091  L 25 29.0909090909091  L 25 40  L 21.8181818181818 40  L 21.8181818181818 21.8181818181818  L 32.7272727272727 21.8181818181818  L 32.7272727272727 25.4545454545455  L 36.3636363636364 25.4545454545455  L 36.3636363636364 21.8181818181818  Z M 0 0  L 18.1818181818182 0  L 18.1818181818182 18.1818181818182  L 0 18.1818181818182  L 0 0  Z M 21.8181818181818 0  L 40 0  L 40 18.1818181818182  L 21.8181818181818 18.1818181818182  L 21.8181818181818 0  Z " fill-rule="nonzero" fill="#555555" stroke="none" transform="matrix(1 0 0 1 315 563 )" />
  </g>
</svg>