<?xml version="1.0" encoding="utf-8"?>
<svg version="1.1" xmlns:xlink="http://www.w3.org/1999/xlink" width="26px" height="25px" xmlns="http://www.w3.org/2000/svg">
  <g transform="matrix(1 0 0 1 -2 -3 )">
    <path d="M 24.06 0.690000000000001  C 24.46 0.950000000000001  24.79 1.25  25.05 1.59  C 25.21 1.79  25.34 2.05  25.44 2.37  C 25.54 2.69  25.48 3.03  25.26 3.39  C 25.16 3.57  25.06 3.73  24.96 3.87  C 24.86 4.01  24.78 4.13  24.72 4.23  C 24.64 4.35  24.57 4.46  24.51 4.56  L 20.28 1.98  C 20.4 1.82  20.54 1.62  20.7 1.38  C 20.86 1.14  20.99 0.950000000000001  21.09 0.810000000000001  C 21.37 0.450000000000002  21.7 0.245000000000001  22.08 0.195000000000001  C 22.46 0.145000000000001  22.78 0.150000000000001  23.04 0.210000000000001  C 23.32 0.270000000000001  23.66 0.430000000000001  24.06 0.690000000000001  Z M 12.795 14.43  C 12.845 14.27  12.93 14.09  13.05 13.89  C 13.11 13.81  13.24 13.6  13.44 13.26  C 13.64 12.92  13.89 12.5  14.19 12  C 14.49 11.5  14.825 10.95  15.195 10.35  C 15.565 9.75  15.94 9.14  16.32 8.52  C 17.2 7.08  18.18 5.46  19.26 3.66  L 23.49 6.24  C 22.41 8.04  21.43 9.66  20.55 11.1  C 20.17 11.72  19.8 12.33  19.44 12.93  C 19.08 13.53  18.755 14.07  18.465 14.55  C 18.175 15.03  17.93 15.425  17.73 15.735  C 17.53 16.045  17.42 16.23  17.4 16.29  C 17.3 16.43  17.19 16.585  17.07 16.755  C 16.95 16.925  16.81 17.06  16.65 17.16  C 16.47 17.28  16.23 17.43  15.93 17.61  C 15.63 17.79  15.315 17.97  14.985 18.15  C 14.655 18.33  14.345 18.505  14.055 18.675  C 13.765 18.845  13.54 18.97  13.38 19.05  C 13.08 19.19  12.84 19.215  12.66 19.125  C 12.48 19.035  12.41 18.82  12.45 18.48  C 12.47 18.3  12.485 18.04  12.495 17.7  C 12.505 17.36  12.515 17.01  12.525 16.65  C 12.535 16.29  12.55 15.95  12.57 15.63  C 12.59 15.31  12.62 15.09  12.66 14.97  C 12.7 14.77  12.745 14.59  12.795 14.43  Z M 18.84 16.59  L 19.98 14.7  C 20.78 15.1  21.44 15.615  21.96 16.245  C 22.48 16.875  22.74 17.57  22.74 18.33  C 22.74 19.13  22.46 19.885  21.9 20.595  C 21.34 21.305  20.565 21.925  19.575 22.455  C 18.585 22.985  17.425 23.405  16.095 23.715  C 14.765 24.025  13.32 24.18  11.76 24.18  C 10.16 24.18  8.7 24.03  7.38 23.73  C 6.06 23.43  4.93 23.02  3.99 22.5  C 3.05 21.98  2.315 21.37  1.785 20.67  C 1.255 19.97  0.990000000000002 19.22  0.990000000000003 18.42  C 0.990000000000004 17.62  1.245 16.855  1.755 16.125  C 2.265 15.395  3 14.755  3.96 14.205  C 4.92 13.655  6.09000000000001 13.225  7.47 12.915  C 8.85 12.605  10.41 12.46  12.15 12.48  L 11.22 14.4  C 10.22 14.44  9.29500000000001 14.575  8.445 14.805  C 7.595 15.035  6.865 15.34  6.255 15.72  C 5.645 16.1  5.175 16.52  4.845 16.98  C 4.515 17.44  4.37 17.91  4.41 18.39  C 4.45 18.91  4.69 19.375  5.13 19.785  C 5.57 20.195  6.135 20.54  6.825 20.82  C 7.515 21.1  8.3 21.31  9.18 21.45  C 10.06 21.59  10.96 21.66  11.88 21.66  C 13.08 21.68  14.165 21.59  15.135 21.39  C 16.105 21.19  16.93 20.92  17.61 20.58  C 18.29 20.24  18.815 19.855  19.185 19.425  C 19.555 18.995  19.74 18.55  19.74 18.09  C 19.74 17.73  19.65 17.43  19.47 17.19  C 19.29 16.95  19.08 16.75  18.84 16.59  Z " fill-rule="nonzero" fill="#ffffff" stroke="none" transform="matrix(1 0 0 1 2 3 )" />
  </g>
</svg>