<?xml version="1.0" encoding="utf-8"?>
<svg version="1.1" xmlns:xlink="http://www.w3.org/1999/xlink" width="20px" height="22px" xmlns="http://www.w3.org/2000/svg">
  <g transform="matrix(1 0 0 1 -5 -4 )">
    <path d="M 19.7615104 7.42176000007813  C 19.7999104 7.002944  19.6080383999219 6.62227200007812  19.3392383999219 6.35577600007812  L 15.9224063999219 1.483328  C 15.6154624 1.06451199992187  15.1162624 0.798144000078124  14.5403903999219 1  L 2.10199040007813 1  C 1.2573184 0.759999999921875  0.566374400078125 1.44518399984375  0.566374400078125 2.28268800007812  L 0.566374400078125 19.7553279999219  C 0.566374400078125 20.5928319999219  1.2573184 21.2399999998438  2.10199040007813 21  L 18.2641664000781 21  C 19.1088384001563 21.2400000000781  19.7615104 20.554688  19.7615104 19.7553279999219  L 19.7615104 7.42176000007813  Z M 2.8059904 8.20550400007813  L 2.8059904 3  L 14.9371904000781 3  L 14.9371904000781 8.20550400007813  C 14.9371904000781 8.928704  14.3227904000781 9.57587200015625  13.5551744000781 9.57587199992187  L 4.1880064 9.57587199992187  C 3.42013439992188 9.57587199992187  2.8059904 8.96684799992187  2.8059904 8.20550400007813  Z M 16.6075904000781 17.553344  C 16.6075904003125 18.140096  16.1394432001563 18.6157440000781  15.5619839999219 18.6157440000781  L 4.719616 18.6157440000781  C 4.1421568 18.6157440000781  3.67400960007813 18.140096  3.67400960007813 17.553344  C 3.67400960007813 16.966592  4.14213120015625 16.4909439999219  4.719616 16.4909439999219  L 15.5619839999219 16.4909439999219  C 16.1394431999219 16.4909439999219  16.6075903998438 16.966592  16.6075904000781 17.553344  Z M 16.6076416 13.6368000000781  C 16.6076416 14.2235520000781  16.1394944000781 14.6992000001563  15.5620096 14.6991999999219  L 4.71959039992188 14.6991999999219  C 4.14213119992188 14.6991999999219  3.673984 14.2235519998438  3.673984 13.6368000000781  C 3.673984 13.0500480003125  4.14210560007812 12.5744  4.71959039992188 12.5744  L 15.5620352000781 12.5744  C 16.1394944000781 12.5744  16.6076416 13.0500480000781  16.6076416 13.6368000000781  Z " fill-rule="nonzero" fill="#ffffff" stroke="none" transform="matrix(1 0 0 1 5 4 )" />
  </g>
</svg>