<?xml version="1.0" encoding="utf-8"?>
<svg version="1.1" xmlns:xlink="http://www.w3.org/1999/xlink" width="14px" height="9px" xmlns="http://www.w3.org/2000/svg">
  <g transform="matrix(1 0 0 1 -343 -357 )">
    <path d="M 13.740234375 0.295555555555552  C 13.9134114583333 0.492592592592587  14 0.725925925925921  14 0.995555555555555  C 14 1.26518518518517  13.9134114583333 1.49851851851852  13.740234375 1.69555555555556  L 7.615234375 8.66444444444443  C 7.44205729166667 8.86148148148146  7.23697916666667 8.95999999999998  7 8.95999999999998  C 6.76302083333334 8.95999999999998  6.55794270833334 8.86148148148146  6.384765625 8.66444444444443  L 0.259765625 1.69555555555556  C 0.0865885416666714 1.49851851851852  0 1.26518518518517  0 0.995555555555555  C 0 0.725925925925921  0.0865885416666714 0.492592592592587  0.259765625 0.295555555555552  C 0.432942708333329 0.0985185185185173  0.638020833333329 0  0.875 0  L 13.125 0  C 13.3619791666667 0  13.5670572916667 0.0985185185185173  13.740234375 0.295555555555552  Z " fill-rule="nonzero" fill="#7f7f7f" stroke="none" transform="matrix(1 0 0 1 343 357 )" />
  </g>
</svg>