<?xml version="1.0" encoding="utf-8"?>
<svg version="1.1" xmlns:xlink="http://www.w3.org/1999/xlink" width="8px" height="8px" xmlns="http://www.w3.org/2000/svg">
  <g transform="matrix(1 0 0 1 -300 -786 )">
    <path d="M 8 4.12068965517241  C 8 1.97931034482759  6.26206896551724 0.241379310344828  4.12068965517241 0.241379310344828  C 1.97931034482759 0.241379310344828  0.241379310344828 1.97931034482759  0.241379310344828 4.12068965517241  C 0.241379310344828 6.26206896551724  1.97931034482759 8  4.12068965517241 8  C 6.26206896551724 8  8 6.26206896551724  8 4.12068965517241  Z M 5.85344827586207 5.48620689655172  C 5.95689655172414 5.58448275862069  5.95689655172414 5.75  5.85862068965517 5.85344827586207  C 5.7551724137931 5.95689655172414  5.58965517241379 5.95689655172414  5.49137931034483 5.85344827586207  L 4.1051724137931 4.45689655172414  L 2.69827586206897 5.84827586206897  C 2.5948275862069 5.95172413793103  2.42931034482759 5.95172413793103  2.32586206896552 5.84827586206897  C 2.22241379310345 5.7448275862069  2.22241379310345 5.57931034482759  2.32586206896552 5.48103448275862  L 3.73793103448276 4.08448275862069  L 2.40344827586207 2.75  C 2.3 2.64655172413793  2.3 2.48103448275862  2.40344827586207 2.38275862068966  C 2.50689655172414 2.27931034482759  2.67241379310345 2.27931034482759  2.77068965517241 2.38275862068966  L 4.1051724137931 3.72241379310345  L 5.46034482758621 2.38275862068966  C 5.56379310344828 2.27931034482759  5.72931034482759 2.27931034482759  5.83275862068966 2.38275862068966  C 5.93620689655172 2.48620689655172  5.93620689655172 2.65172413793103  5.83275862068966 2.75  L 4.47241379310345 4.0948275862069  L 5.85344827586207 5.48620689655172  Z " fill-rule="nonzero" fill="#555555" stroke="none" transform="matrix(1 0 0 1 300 786 )" />
  </g>
</svg>