<?xml version="1.0" encoding="utf-8"?>
<svg version="1.1" xmlns:xlink="http://www.w3.org/1999/xlink" width="40px" height="32px" xmlns="http://www.w3.org/2000/svg">
  <g transform="matrix(1 0 0 1 -260 -792 )">
    <path d="M 12.1666666666667 6.5  C 12.9444444444444 7.27777777777778  13.3333333333333 8.22222222222222  13.3333333333333 9.33333333333333  C 13.3333333333333 10.4444444444444  12.9444444444444 11.3888888888889  12.1666666666667 12.1666666666667  C 11.3888888888889 12.9444444444444  10.4444444444444 13.3333333333333  9.33333333333333 13.3333333333333  C 8.22222222222222 13.3333333333333  7.27777777777778 12.9444444444444  6.5 12.1666666666667  C 5.72222222222222 11.3888888888889  5.33333333333333 10.4444444444444  5.33333333333333 9.33333333333333  C 5.33333333333333 8.22222222222222  5.72222222222222 7.27777777777778  6.5 6.5  C 7.27777777777778 5.72222222222222  8.22222222222222 5.33333333333333  9.33333333333333 5.33333333333333  C 10.4444444444444 5.33333333333333  11.3888888888889 5.72222222222222  12.1666666666667 6.5  Z M 26 8.66666666666667  L 34.6666666666667 17.3333333333333  L 34.6666666666667 26.6666666666667  L 5.33333333333333 26.6666666666667  L 5.33333333333333 22.6666666666667  L 12 16  L 15.3333333333333 19.3333333333333  L 26 8.66666666666667  Z M 37.1354166666667 2.86458333333333  C 37.0034722222222 2.73263888888889  36.8472222222222 2.66666666666667  36.6666666666667 3  L 3.33333333333333 3  C 3.15277777777778 2.66666666666667  2.99652777777778 2.73263888888889  2.86458333333333 2.86458333333333  C 2.73263888888889 2.99652777777778  2.66666666666667 3.15277777777778  3 3.33333333333333  L 3 28.6666666666667  C 2.66666666666667 28.8472222222222  2.73263888888889 29.0034722222222  2.86458333333333 29.1354166666667  C 2.99652777777778 29.2673611111111  3.15277777777778 29.3333333333333  3.33333333333333 29  L 36.6666666666667 29  C 36.8472222222222 29.3333333333333  37.0034722222222 29.2673611111111  37.1354166666667 29.1354166666667  C 37.2673611111111 29.0034722222222  37.3333333333333 28.8472222222222  37 28.6666666666667  L 37 3.33333333333333  C 37.3333333333333 3.15277777777778  37.2673611111111 2.99652777777778  37.1354166666667 2.86458333333333  Z M 39.0208333333333 0.979166666666668  C 39.6736111111111 1.63194444444444  40 2.41666666666667  40 3.33333333333333  L 40 28.6666666666667  C 40 29.5833333333333  39.6736111111111 30.3680555555556  39.0208333333333 31.0208333333333  C 38.3680555555556 31.6736111111111  37.5833333333333 32  36.6666666666667 32  L 3.33333333333333 32  C 2.41666666666667 32  1.63194444444444 31.6736111111111  0.979166666666667 31.0208333333333  C 0.326388888888889 30.3680555555556  0 29.5833333333333  0 28.6666666666667  L 0 3.33333333333333  C 0 2.41666666666667  0.326388888888889 1.63194444444444  0.979166666666667 0.979166666666668  C 1.63194444444444 0.326388888888886  2.41666666666667 0  3.33333333333333 0  L 36.6666666666667 0  C 37.5833333333333 0  38.3680555555556 0.326388888888886  39.0208333333333 0.979166666666668  Z " fill-rule="nonzero" fill="#555555" stroke="none" transform="matrix(1 0 0 1 260 792 )" />
  </g>
</svg>