<?xml version="1.0" encoding="utf-8"?>
<svg version="1.1" xmlns:xlink="http://www.w3.org/1999/xlink" width="15px" height="15px" xmlns="http://www.w3.org/2000/svg">
  <g transform="matrix(1 0 0 1 -325 -801 )">
    <path d="M 14.9652465820313 7.5  C 14.9652648925781 7.14439086914062  14.6742919921875 6.85341796875  14.318701171875 6.85341796875  L 8.15537109375 6.85341796875  L 8.15537109375 0.690087890624999  C 8.15537109375 0.334460449218749  7.86439819335938 0.0435058593749996  7.50877075195313 0.0435058593749996  C 7.15316162109375 0.0435058593749996  6.86220703125 0.334460449218749  6.86220703125 0.690087890624999  L 6.86220703125 6.85341796875  L 0.698858642578125 6.85341796875  C 0.34324951171875 6.85341796875  0.0522766113281253 7.14437255859375  0.0522766113281253 7.49998168945312  C 0.0522766113281253 7.85560913085937  0.343231201171875 8.14656372070312  0.698858642578125 8.14656372070312  L 6.86218872070313 8.14656372070312  L 6.86218872070313 14.3098937988281  C 6.86218872070313 14.6655029296875  7.15314331054687 14.9564575195312  7.50875244140625 14.9564575195312  C 7.8643798828125 14.9564575195312  8.15533447265625 14.6655029296875  8.15533447265625 14.3098754882813  L 8.15533447265625 8.14658203125  L 14.3186645507813 8.14658203125  C 14.6742736816406 8.14658203125  14.9652465820313 7.85562744140625  14.9652465820313 7.5  Z " fill-rule="nonzero" fill="#d7d7d7" stroke="none" transform="matrix(1 0 0 1 325 801 )" />
  </g>
</svg>