<?xml version="1.0" encoding="utf-8"?>
<svg version="1.1" xmlns:xlink="http://www.w3.org/1999/xlink" width="375px" height="300px" xmlns="http://www.w3.org/2000/svg">
  <g transform="matrix(1 0 0 1 0 -216 )">
    <path d="M 114.0625 60.9375  C 121.354166666667 68.2291666666666  125 77.0833333333333  125 87.5  C 125 97.9166666666667  121.354166666667 106.770833333333  114.0625 114.0625  C 106.770833333333 121.354166666667  97.9166666666667 125  87.5 125  C 77.0833333333333 125  68.2291666666667 121.354166666667  60.9375 114.0625  C 53.6458333333333 106.770833333333  50 97.9166666666667  50 87.5  C 50 77.0833333333333  53.6458333333333 68.2291666666666  60.9375 60.9375  C 68.2291666666667 53.6458333333333  77.0833333333333 50  87.5 50  C 97.9166666666667 50  106.770833333333 53.6458333333333  114.0625 60.9375  Z M 243.75 81.25  L 325 162.5  L 325 250  L 50 250  L 50 212.5  L 112.5 150  L 143.75 181.25  L 243.75 81.25  Z M 348.14453125 26.85546875  C 346.907552083333 25.6184895833333  345.442708333333 25  343.75 25  L 31.25 25  C 29.5572916666667 25  28.0924479166667 25.6184895833333  26.85546875 26.85546875  C 25.6184895833333 28.0924479166666  25 29.5572916666666  25 31.25  L 25 268.75  C 25 270.442708333333  25.6184895833333 271.907552083333  26.85546875 273.14453125  C 28.0924479166667 274.381510416667  29.5572916666667 275  31.25 275  L 343.75 275  C 345.442708333333 275  346.907552083333 274.381510416667  348.14453125 273.14453125  C 349.381510416667 271.907552083333  350 270.442708333333  350 268.75  L 350 31.25  C 350 29.5572916666666  349.381510416667 28.0924479166666  348.14453125 26.85546875  Z M 365.8203125 9.17968750000001  C 371.940104166667 15.2994791666667  375 22.65625  375 31.25  L 375 268.75  C 375 277.34375  371.940104166667 284.700520833333  365.8203125 290.8203125  C 359.700520833333 296.940104166667  352.34375 300  343.75 300  L 31.25 300  C 22.65625 300  15.2994791666667 296.940104166667  9.1796875 290.8203125  C 3.05989583333333 284.700520833333  0 277.34375  0 268.75  L 0 31.25  C 0 22.65625  3.05989583333333 15.2994791666667  9.1796875 9.17968750000001  C 15.2994791666667 3.0598958333333  22.65625 0  31.25 0  L 343.75 0  C 352.34375 0  359.700520833333 3.0598958333333  365.8203125 9.17968750000001  Z " fill-rule="nonzero" fill="#d7d7d7" stroke="none" transform="matrix(1 0 0 1 0 216 )" />
  </g>
</svg>