<?xml version="1.0" encoding="utf-8"?>
<svg version="1.1" xmlns:xlink="http://www.w3.org/1999/xlink" width="15px" height="15px" viewBox="282 555  15 15" xmlns="http://www.w3.org/2000/svg">
  <path d="M 289.5 555  C 293.7 555  297 558.3  297 562.5  C 297 566.7  293.7 570  289.5 570  C 285.3 570  282 566.7  282 562.5  C 282 558.3  285.3 555  289.5 555  Z " fill-rule="nonzero" fill="#ffffff" stroke="none" />
  <path d="M 289.5 555.5  C 293.42 555.5  296.5 558.58  296.5 562.5  C 296.5 566.42  293.42 569.5  289.5 569.5  C 285.58 569.5  282.5 566.42  282.5 562.5  C 282.5 558.58  285.58 555.5  289.5 555.5  Z " stroke-width="1" stroke="#4284f5" fill="none" />
  <path d="M 289.5 566.25  C 287.4 566.25  285.75 564.6  285.75 562.5  C 285.75 560.4  287.4 558.75  289.5 558.75  C 291.6 558.75  293.25 560.4  293.25 562.5  C 293.25 564.6  291.6 566.25  289.5 566.25  " fill-rule="nonzero" fill="#4284f5" stroke="none" />
</svg>