<?xml version="1.0" encoding="utf-8"?>
<svg version="1.1" xmlns:xlink="http://www.w3.org/1999/xlink" width="15px" height="15px" viewBox="197 555  15 15" xmlns="http://www.w3.org/2000/svg">
  <path d="M 204.5 555  C 208.7 555  212 558.3  212 562.5  C 212 566.7  208.7 570  204.5 570  C 200.3 570  197 566.7  197 562.5  C 197 558.3  200.3 555  204.5 555  Z " fill-rule="nonzero" fill="#ffffff" stroke="none" />
  <path d="M 204.5 555.5  C 208.42 555.5  211.5 558.58  211.5 562.5  C 211.5 566.42  208.42 569.5  204.5 569.5  C 200.58 569.5  197.5 566.42  197.5 562.5  C 197.5 558.58  200.58 555.5  204.5 555.5  Z " stroke-width="1" stroke="#4284f5" fill="none" />
  <path d="M 204.5 566.25  C 202.4 566.25  200.75 564.6  200.75 562.5  C 200.75 560.4  202.4 558.75  204.5 558.75  C 206.6 558.75  208.25 560.4  208.25 562.5  C 208.25 564.6  206.6 566.25  204.5 566.25  " fill-rule="nonzero" fill="#4284f5" stroke="none" />
</svg>