<?xml version="1.0" encoding="utf-8"?>
<svg version="1.1" xmlns:xlink="http://www.w3.org/1999/xlink" width="15px" height="15px" viewBox="275 467  15 15" xmlns="http://www.w3.org/2000/svg">
  <path d="M 282.5 467  C 286.7 467  290 470.3  290 474.5  C 290 478.7  286.7 482  282.5 482  C 278.3 482  275 478.7  275 474.5  C 275 470.3  278.3 467  282.5 467  Z " fill-rule="nonzero" fill="#ffffff" stroke="none" />
  <path d="M 282.5 467.5  C 286.42 467.5  289.5 470.58  289.5 474.5  C 289.5 478.42  286.42 481.5  282.5 481.5  C 278.58 481.5  275.5 478.42  275.5 474.5  C 275.5 470.58  278.58 467.5  282.5 467.5  Z " stroke-width="1" stroke="#4284f5" fill="none" />
  <path d="M 282.5 478.25  C 280.4 478.25  278.75 476.6  278.75 474.5  C 278.75 472.4  280.4 470.75  282.5 470.75  C 284.6 470.75  286.25 472.4  286.25 474.5  C 286.25 476.6  284.6 478.25  282.5 478.25  " fill-rule="nonzero" fill="#4284f5" stroke="none" />
</svg>