<?xml version="1.0" encoding="utf-8"?>
<svg version="1.1" xmlns:xlink="http://www.w3.org/1999/xlink" width="15px" height="15px" viewBox="175 467  15 15" xmlns="http://www.w3.org/2000/svg">
  <path d="M 182.5 467  C 186.7 467  190 470.3  190 474.5  C 190 478.7  186.7 482  182.5 482  C 178.3 482  175 478.7  175 474.5  C 175 470.3  178.3 467  182.5 467  Z " fill-rule="nonzero" fill="#ffffff" stroke="none" />
  <path d="M 182.5 467.5  C 186.42 467.5  189.5 470.58  189.5 474.5  C 189.5 478.42  186.42 481.5  182.5 481.5  C 178.58 481.5  175.5 478.42  175.5 474.5  C 175.5 470.58  178.58 467.5  182.5 467.5  Z " stroke-width="1" stroke="#4284f5" fill="none" />
  <path d="M 182.5 478.25  C 180.4 478.25  178.75 476.6  178.75 474.5  C 178.75 472.4  180.4 470.75  182.5 470.75  C 184.6 470.75  186.25 472.4  186.25 474.5  C 186.25 476.6  184.6 478.25  182.5 478.25  " fill-rule="nonzero" fill="#4284f5" stroke="none" />
</svg>