<?xml version="1.0" encoding="utf-8"?>
<svg version="1.1" xmlns:xlink="http://www.w3.org/1999/xlink" width="30px" height="23px" xmlns="http://www.w3.org/2000/svg">
  <g transform="matrix(1 0 0 1 -1253 -112 )">
    <path d="M 29.685 16.9156481481482  C 29.895 17.4026234567901  30 17.9243827160494  30 18.4809259259259  C 30 18.9778395061728  29.915 19.4449382716049  29.745 19.8822222222222  C 29.575 20.3195061728395  29.335 20.7120679012346  29.025 21.0599074074074  C 28.715 21.4077469135803  28.355 21.7009259259259  27.945 21.9394444444444  C 27.535 22.177962962963  27.09 22.336975308642  26.61 22.4164814814815  L 26.64 22.4462962962963  L 26.13 22.4462962962963  L 26.01 22.4462962962963  L 25.89 22  L 6.09 22  C 5.99 22.4661728395062  5.83 22.4761111111111  5.61 22.4761111111111  C 4.83 22.4761111111111  4.1 22.327037037037  3.42 22.0288888888889  C 2.74 21.7307407407407  2.145 21.3282407407407  1.635 20.8213888888889  C 1.125 20.314537037037  0.724999999999998 19.7232098765432  0.434999999999999 19.0474074074074  C 0.144999999999999 18.3716049382716  0 17.6461111111111  0 16.8709259259259  C 0 16.0957407407407  0.144999999999999 15.3702469135803  0.434999999999999 14.6944444444445  C 0.724999999999998 14.0186419753086  1.125 13.4273148148148  1.635 12.920462962963  C 2.145 12.4136111111111  2.74 12.0111111111111  3.42 11.712962962963  C 4.1 11.4148148148148  4.83 11.2657407407407  5.61 11.2657407407407  L 5.64 11.2657407407407  C 5.62 11.1067283950617  5.61 10.9576543209877  5.61 10.8185185185185  L 5.61 10.3414814814815  C 5.61 8.93024691358025  5.88 7.59851851851852  6.42 6.3462962962963  C 6.96 5.09407407407408  7.7 4.00583333333334  8.64 3.08157407407408  C 9.58 2.15731481481482  10.675 1.42685185185186  11.925 0.89018518518519  C 13.175 0.353518518518523  14.51 0.0851851851851898  15.93 0.0851851851851898  C 17.35 0.0851851851851902  18.69 0.353518518518523  19.95 0.89018518518519  C 21.21 1.42685185185186  22.31 2.15731481481482  23.25 3.08157407407408  C 24.19 4.00583333333334  24.93 5.09407407407408  25.47 6.3462962962963  C 26.01 7.59851851851852  26.28 8.93024691358025  26.28 10.3414814814815  C 26.28 11.0769135802469  26.2 11.7974382716049  26.04 12.5030555555556  C 25.88 13.2086728395062  25.66 13.8795061728395  25.38 14.5155555555556  C 25.48 14.4956790123457  25.585 14.4807716049383  25.695 14.4708333333333  C 25.805 14.4608950617284  25.91 14.4559259259259  26.01 14.4559259259259  C 26.55 14.4559259259259  27.065 14.5602777777778  27.555 14.7689814814815  C 28.045 14.9776851851852  28.47 15.2658950617284  28.83 15.6336111111111  C 29.19 16.0013271604938  29.475 16.4286728395062  29.685 16.9156481481482  Z M 18.555 14.9478703703704  C 18.965 14.9379320987654  19.28 14.932962962963  19.5 14.932962962963  C 19.9 14.932962962963  20.16 14.8882407407407  20.28 14.7987962962963  C 20.4 14.7093518518519  20.32 14.4956790123457  20.04 14.1577777777778  C 19.76 13.8  19.45 13.3329012345679  19.11 12.7564814814815  C 18.77 12.1800617283951  18.415 11.5937037037037  18.045 10.9974074074074  C 17.675 10.4011111111111  17.3 9.84456790123457  16.92 9.32777777777778  C 16.54 8.81098765432099  16.17 8.43333333333334  15.81 8.19481481481482  C 15.45 7.93641975308643  15.185 7.79728395061729  15.015 7.77740740740741  C 14.845 7.75753086419754  14.6 7.8767901234568  14.28 8.13518518518519  C 13.92 8.43333333333334  13.57 8.81098765432099  13.23 9.26814814814815  C 12.89 9.72530864197531  12.545 10.2122839506173  12.195 10.7290740740741  C 11.845 11.2458641975309  11.495 11.7527160493827  11.145 12.2496296296296  C 10.795 12.7465432098765  10.44 13.1838271604938  10.08 13.5614814814815  C 9.72 13.9192592592593  9.59 14.2372839506173  9.69 14.5155555555556  C 9.79 14.7938271604938  10.04 14.932962962963  10.44 14.932962962963  L 10.92 14.932962962963  C 11.1 14.932962962963  11.295 14.9379320987654  11.505 14.9478703703704  C 11.715 14.9578086419753  11.92 14.9627777777778  12.12 14.9627777777778  L 12.63 14.9627777777778  C 12.91 14.9826543209877  13.09 15.0770679012346  13.17 15.2460185185185  C 13.25 15.4149691358025  13.29 15.6485185185185  13.29 15.9466666666667  C 13.29 16.2845679012346  13.285 16.5827160493827  13.275 16.8411111111111  C 13.265 17.0995061728395  13.26 17.347962962963  13.26 17.5864814814815  C 13.26 17.825  13.255 18.0734567901235  13.245 18.3318518518519  C 13.235 18.5902469135803  13.23 18.8883950617284  13.23 19.2262962962963  C 13.23 19.3654320987654  13.245 19.5145061728395  13.275 19.6735185185185  C 13.305 19.8325308641975  13.36 19.9816049382716  13.44 20.1207407407407  C 13.52 20.2598765432099  13.64 20.3741666666667  13.8 20.4636111111111  C 13.96 20.5530555555556  14.17 20.5977777777778  14.43 20.5977777777778  L 15.12 20.5977777777778  C 15.3 20.5977777777778  15.57 20.6077160493827  15.93 20.6275925925926  C 16.41 20.6275925925926  16.685 20.5083333333333  16.755 20.2698148148148  C 16.825 20.0312962962963  16.86 19.6536419753086  16.86 19.1368518518519  C 16.86 18.6796913580247  16.865 18.2672530864198  16.875 17.899537037037  C 16.885 17.5318209876543  16.89 17.0299382716049  16.89 16.3938888888889  C 16.89 15.9367283950617  16.935 15.5839197530864  17.025 15.335462962963  C 17.115 15.0870061728395  17.31 14.9627777777778  17.61 14.9627777777778  C 17.83 14.9627777777778  18.145 14.9578086419753  18.555 14.9478703703704  Z " fill-rule="nonzero" fill="#555555" stroke="none" transform="matrix(1 0 0 1 1253 112 )" />
  </g>
</svg>