<?xml version="1.0" encoding="utf-8"?>
<svg version="1.1" xmlns:xlink="http://www.w3.org/1999/xlink" width="20px" height="14px" xmlns="http://www.w3.org/2000/svg">
  <g transform="matrix(1 0 0 1 -64 -774 )">
    <path d="M 19.620618556701 1.42635294117647  C 19.9340206185567 1.09611764705882  19.9167010309278 0.574823529411764  19.5851546391753 0.262705882352942  C 19.2536082474227 -0.0477647058823528  18.7307216494845 -0.0329411764705875  18.419793814433 0.298941176470589  L 7.42103092783505 11.9922352941176  L 1.41278350515464 6.08094117647059  C 1.08783505154639 5.76141176470588  0.565773195876288 5.76470588235294  0.245773195876288 6.08917647058824  C -0.074226804123712 6.41282352941177  -0.0701030927835059 6.93494117647059  0.254845360824742 7.25364705882353  L 6.86515463917526 13.7562352941176  C 6.86762886597938 13.7587058823529  6.87092783505155 13.7595294117647  6.87340206185567 13.762  C 6.87587628865979 13.7644705882353  6.87670103092783 13.7677647058824  6.87917525773196 13.7702352941177  C 6.93113402061856 13.8196470588235  6.99381443298969 13.8476470588235  7.0540206185567 13.8805882352941  C 7.08371134020618 13.8978823529412  7.10927835051546 13.9234117647059  7.14061855670103 13.9357647058824  C 7.2379381443299 13.9736470588235  7.34103092783505 13.9934117647059  7.44329896907216 13.9934117647059  C 7.55134020618557 13.9934117647059  7.65938144329897 13.972  7.76 13.9291764705882  C 7.79381443298969 13.9151764705882  7.82020618556701 13.8863529411765  7.85154639175258 13.8682352941177  C 7.91340206185567 13.832  7.97773195876289 13.8015294117647  8.03051546391753 13.748  C 8.03298969072165 13.7455294117647  8.03381443298969 13.7414117647059  8.03628865979382 13.7389411764706  C 8.0379381443299 13.7364705882353  8.04123711340206 13.7356470588235  8.04371134020619 13.7331764705882  L 19.620618556701 1.42635294117647  Z " fill-rule="nonzero" fill="#d7d7d7" stroke="none" transform="matrix(1 0 0 1 64 774 )" />
  </g>
</svg>