<?xml version="1.0" encoding="utf-8"?>
<svg version="1.1" xmlns:xlink="http://www.w3.org/1999/xlink" width="18px" height="18px" xmlns="http://www.w3.org/2000/svg">
  <g transform="matrix(1 0 0 1 -308 -772 )">
    <path d="M 1.92857142857143 8.35714285714286  C 1.92861541987647 5.76531173703655  3.85710443584564 3.57840519292752  6.42857142857143 3.25414285714286  L 6.42857142857143 2.57142857142857  C 6.42857142857143 2.21638837510878  6.71638837510878 1.92857142857143  7.07142857142857 1.92857142857143  C 7.42646876774837 1.92857142857143  7.71428571428571 2.21638837510878  7.71428571428571 2.57142857142857  L 7.71428571428571 3.25414285714286  C 10.251 3.57042857142857  12.2142857142857 5.73428571428571  12.2142857142857 8.35714285714286  L 12.2142857142857 15.4285714285714  L 13.5 15.4285714285714  C 13.8550401963198 15.4285714285714  14.1428571428571 15.7163883751088  14.1428571428571 16.0714285714286  C 14.1428571428571 16.4264687677484  13.8550401963198 16.7142857142857  13.5 16.7142857142857  L 8.35714285714286 16.7142857142857  C 8.35714285714286 17.4243661069253  7.78150896406816 18  7.07142857142857 18  C 6.36134817878898 18  5.78571428571429 17.4243661069253  5.78571428571429 16.7142857142857  L 0.642857142857143 16.7142857142857  C 0.287816946537347 16.7142857142857  0 16.4264687677484  0 16.0714285714286  C 0 15.7163883751088  0.287816946537347 15.4285714285714  0.642857142857143 15.4285714285714  L 1.92857142857143 15.4285714285714  L 1.92857142857143 8.35714285714286  Z M 3.21428571428571 8.35714285714286  L 3.21428571428571 15.4285714285714  L 10.9285714285714 15.4285714285714  L 10.9285714285714 8.35714285714286  C 10.9285714285714 6.22690167922408  9.20166974934735 4.5  7.07142857142857 4.5  C 4.9411873935098 4.5  3.21428571428571 6.22690167922408  3.21428571428571 8.35714285714286  Z M 12.8571428571429 0  C 15.6974644277012 0  18 2.30253557229878  18 5.14285714285714  C 18 5.49789733917694  17.7121830534627 5.78571428571429  17.3571428571429 5.78571428571429  C 17.0021026608231 5.78571428571429  16.7142857142857 5.49789733917694  16.7142857142857 5.14285714285714  C 16.7142857142857 3.01261596493837  14.9873840350616 1.28571428571429  12.8571428571429 1.28571428571429  C 12.5021026608231 1.28571428571429  12.2142857142857 0.997897339176939  12.2142857142857 0.642857142857143  C 12.2142857142857 0.287816946537347  12.5021026608231 0  12.8571428571429 0  Z M 12.2142857142857 2.57142857142857  C 13.9894866958847 2.57142857142857  15.4285714285714 4.01051330411531  15.4285714285714 5.78571428571429  C 15.4285714285714 6.14075448203408  15.1407544820341 6.42857142857143  14.7857142857143 6.42857142857143  C 14.4306740893945 6.42857142857143  14.1428571428571 6.14075448203408  14.1428571428571 5.78571428571429  C 14.1428571428571 4.7205936967549  13.2794063032451 3.85714285714286  12.2142857142857 3.85714285714286  C 11.8592455179659 3.85714285714286  11.5714285714286 3.56932591060551  11.5714285714286 3.21428571428571  C 11.5714285714286 2.85924551796592  11.8592455179659 2.57142857142857  12.2142857142857 2.57142857142857  Z " fill-rule="nonzero" fill="#d7d7d7" stroke="none" transform="matrix(1 0 0 1 308 772 )" />
  </g>
</svg>