<?xml version="1.0" encoding="utf-8"?>
<svg version="1.1" xmlns:xlink="http://www.w3.org/1999/xlink" width="120px" height="80px" xmlns="http://www.w3.org/2000/svg">
  <g transform="matrix(1 0 0 1 -665 -365 )">
    <path d="M 36.5 16.25  C 38.8333333333333 18.1944444444444  40 20.5555555555555  40 23.3333333333333  C 40 26.1111111111111  38.8333333333333 28.4722222222222  36.5 30.4166666666667  C 34.1666666666667 32.3611111111111  31.3333333333333 33.3333333333333  28 33.3333333333333  C 24.6666666666667 33.3333333333333  21.8333333333333 32.3611111111111  19.5 30.4166666666667  C 17.1666666666667 28.4722222222222  16 26.1111111111111  16 23.3333333333333  C 16 20.5555555555555  17.1666666666667 18.1944444444444  19.5 16.25  C 21.8333333333333 14.3055555555555  24.6666666666667 13.3333333333333  28 13.3333333333333  C 31.3333333333333 13.3333333333333  34.1666666666667 14.3055555555555  36.5 16.25  Z M 78 21.6666666666667  L 104 43.3333333333333  L 104 66  L 16 66  L 16 56.6666666666667  L 36 40  L 46 48.3333333333333  L 78 21.6666666666667  Z M 111.40625 7.16145833333333  C 111.010416666667 6.83159722222221  110.541666666667 6.66666666666667  110 7  L 10 7  C 9.45833333333333 6.66666666666667  8.98958333333333 6.83159722222221  8.59375 7.16145833333333  C 8.19791666666667 7.49131944444444  8 7.88194444444444  8 8.33333333333333  L 8 71.6666666666667  C 8 72.1180555555556  8.19791666666667 72.5086805555556  8.59375 72.8385416666667  C 8.98958333333333 73.1684027777778  9.45833333333333 73.3333333333333  10 73  L 110 73  C 110.541666666667 73.3333333333333  111.010416666667 73.1684027777778  111.40625 72.8385416666667  C 111.802083333333 72.5086805555556  112 72.1180555555556  112 71.6666666666667  L 112 8.33333333333333  C 112 7.88194444444444  111.802083333333 7.49131944444444  111.40625 7.16145833333333  Z M 117.0625 2.44791666666667  C 119.020833333333 4.07986111111111  120 6.04166666666667  120 8.33333333333333  L 120 71.6666666666667  C 120 73.9583333333333  119.020833333333 75.9201388888889  117.0625 77.5520833333333  C 115.104166666667 79.1840277777778  112.75 80  110 80  L 10 80  C 7.25 80  4.89583333333333 79.1840277777778  2.9375 77.5520833333333  C 0.979166666666667 75.9201388888889  0 73.9583333333333  0 71.6666666666667  L 0 8.33333333333333  C 0 6.04166666666667  0.979166666666667 4.07986111111111  2.9375 2.44791666666667  C 4.89583333333333 0.815972222222214  7.25 0  10 0  L 110 0  C 112.75 0  115.104166666667 0.815972222222214  117.0625 2.44791666666667  Z " fill-rule="nonzero" fill="#555555" stroke="none" transform="matrix(1 0 0 1 665 365 )" />
  </g>
</svg>